{
	"patcher" : 	{
		"fileversion" : 1,
		"rect" : [ 43.0, 50.0, 429.0, 383.0 ],
		"bgcolor" : [ 1.0, 1.0, 1.0, 1.0 ],
		"bglocked" : 0,
		"defrect" : [ 43.0, 50.0, 429.0, 383.0 ],
		"openrect" : [ 0.0, 0.0, 0.0, 0.0 ],
		"openinpresentation" : 0,
		"default_fontsize" : 10.0,
		"default_fontface" : 0,
		"default_fontname" : "Arial",
		"gridonopen" : 0,
		"gridsize" : [ 15.0, 15.0 ],
		"gridsnaponopen" : 0,
		"toolbarvisible" : 1,
		"boxanimatetime" : 200,
		"imprint" : 1,
		"metadata" : [  ],
		"boxes" : [ 			{
				"box" : 				{
					"maxclass" : "newobj",
					"text" : "select 1",
					"fontsize" : 11.595187,
					"numinlets" : 2,
					"background" : 0,
					"color" : [ 0.8, 0.84, 0.71, 1.0 ],
					"numoutlets" : 2,
					"presentation_rect" : [ 0.0, 0.0, 0.0, 0.0 ],
					"ignoreclick" : 0,
					"outlettype" : [ "bang", "" ],
					"bgcolor" : [ 1.0, 1.0, 1.0, 1.0 ],
					"hidden" : 0,
					"fontname" : "Arial",
					"patching_rect" : [ 335.0, 112.0, 50.0, 20.0 ],
					"presentation" : 0,
					"id" : "obj-1",
					"textcolor" : [ 0.0, 0.0, 0.0, 1.0 ],
					"fontface" : 0
				}

			}
, 			{
				"box" : 				{
					"maxclass" : "comment",
					"text" : "Amplitude",
					"fontsize" : 11.595187,
					"numinlets" : 1,
					"background" : 0,
					"numoutlets" : 0,
					"presentation_rect" : [ 0.0, 0.0, 0.0, 0.0 ],
					"ignoreclick" : 1,
					"bgcolor" : [ 1.0, 1.0, 1.0, 0.0 ],
					"hidden" : 0,
					"fontname" : "Arial",
					"patching_rect" : [ 347.0, 156.0, 62.0, 20.0 ],
					"frgb" : [ 0.0, 0.0, 0.0, 1.0 ],
					"presentation" : 0,
					"id" : "obj-2",
					"underline" : 0,
					"textcolor" : [ 0.0, 0.0, 0.0, 1.0 ],
					"fontface" : 0
				}

			}
, 			{
				"box" : 				{
					"maxclass" : "comment",
					"text" : "Frequency",
					"fontsize" : 11.595187,
					"numinlets" : 1,
					"background" : 0,
					"numoutlets" : 0,
					"presentation_rect" : [ 0.0, 0.0, 0.0, 0.0 ],
					"ignoreclick" : 1,
					"bgcolor" : [ 1.0, 1.0, 1.0, 0.0 ],
					"hidden" : 0,
					"fontname" : "Arial",
					"patching_rect" : [ 200.0, 156.0, 65.0, 20.0 ],
					"frgb" : [ 0.0, 0.0, 0.0, 1.0 ],
					"presentation" : 0,
					"id" : "obj-3",
					"underline" : 0,
					"textcolor" : [ 0.0, 0.0, 0.0, 1.0 ],
					"fontface" : 0
				}

			}
, 			{
				"box" : 				{
					"maxclass" : "flonum",
					"triangle" : 1,
					"maximum" : 1.0,
					"fontsize" : 11.595187,
					"numinlets" : 1,
					"background" : 0,
					"mouseup" : 0,
					"numoutlets" : 2,
					"outputonclick" : 0,
					"bordercolor" : [ 0.5, 0.5, 0.5, 1.0 ],
					"presentation_rect" : [ 0.0, 0.0, 0.0, 0.0 ],
					"ignoreclick" : 0,
					"outlettype" : [ "float", "bang" ],
					"hbgcolor" : [ 0.0, 0.0, 0.0, 1.0 ],
					"bgcolor" : [ 0.866667, 0.866667, 0.866667, 1.0 ],
					"hidden" : 0,
					"fontname" : "Arial",
					"patching_rect" : [ 335.0, 180.0, 60.0, 20.0 ],
					"htextcolor" : [ 0.870588, 0.870588, 0.870588, 1.0 ],
					"presentation" : 0,
					"id" : "obj-4",
					"minimum" : 0.0,
					"textcolor" : [ 0.0, 0.0, 0.0, 1.0 ],
					"cantchange" : 0,
					"triscale" : 0.9,
					"numdecimalplaces" : 0,
					"fontface" : 0
				}

			}
, 			{
				"box" : 				{
					"maxclass" : "newobj",
					"text" : "pack 0. 100",
					"fontsize" : 11.595187,
					"numinlets" : 2,
					"background" : 0,
					"color" : [ 0.8, 0.84, 0.71, 1.0 ],
					"numoutlets" : 1,
					"presentation_rect" : [ 0.0, 0.0, 0.0, 0.0 ],
					"ignoreclick" : 0,
					"outlettype" : [ "" ],
					"bgcolor" : [ 1.0, 1.0, 1.0, 1.0 ],
					"hidden" : 0,
					"fontname" : "Arial",
					"patching_rect" : [ 335.0, 238.0, 70.0, 20.0 ],
					"presentation" : 0,
					"id" : "obj-5",
					"textcolor" : [ 0.0, 0.0, 0.0, 1.0 ],
					"fontface" : 0
				}

			}
, 			{
				"box" : 				{
					"maxclass" : "comment",
					"text" : "space bar",
					"fontsize" : 11.595187,
					"numinlets" : 1,
					"background" : 0,
					"numoutlets" : 0,
					"presentation_rect" : [ 0.0, 0.0, 0.0, 0.0 ],
					"ignoreclick" : 1,
					"bgcolor" : [ 1.0, 1.0, 1.0, 0.0 ],
					"hidden" : 0,
					"fontname" : "Arial",
					"patching_rect" : [ 114.0, 20.0, 61.0, 20.0 ],
					"frgb" : [ 0.0, 0.0, 0.0, 1.0 ],
					"presentation" : 0,
					"id" : "obj-6",
					"underline" : 0,
					"textcolor" : [ 0.0, 0.0, 0.0, 1.0 ],
					"fontface" : 0
				}

			}
, 			{
				"box" : 				{
					"maxclass" : "comment",
					"text" : "Audio On/Off",
					"fontsize" : 11.595187,
					"numinlets" : 1,
					"background" : 0,
					"numoutlets" : 0,
					"presentation_rect" : [ 0.0, 0.0, 0.0, 0.0 ],
					"ignoreclick" : 1,
					"bgcolor" : [ 1.0, 1.0, 1.0, 0.0 ],
					"hidden" : 0,
					"fontname" : "Arial",
					"patching_rect" : [ 92.0, 79.0, 78.0, 20.0 ],
					"frgb" : [ 0.0, 0.0, 0.0, 1.0 ],
					"presentation" : 0,
					"id" : "obj-7",
					"underline" : 0,
					"textcolor" : [ 0.0, 0.0, 0.0, 1.0 ],
					"fontface" : 0
				}

			}
, 			{
				"box" : 				{
					"maxclass" : "newobj",
					"text" : "delay 100",
					"fontsize" : 11.595187,
					"numinlets" : 2,
					"background" : 0,
					"color" : [ 0.8, 0.84, 0.71, 1.0 ],
					"numoutlets" : 1,
					"presentation_rect" : [ 0.0, 0.0, 0.0, 0.0 ],
					"ignoreclick" : 0,
					"outlettype" : [ "bang" ],
					"bgcolor" : [ 1.0, 1.0, 1.0, 1.0 ],
					"hidden" : 0,
					"fontname" : "Arial",
					"patching_rect" : [ 107.0, 186.0, 61.0, 20.0 ],
					"presentation" : 0,
					"id" : "obj-8",
					"textcolor" : [ 0.0, 0.0, 0.0, 1.0 ],
					"fontface" : 0
				}

			}
, 			{
				"box" : 				{
					"maxclass" : "comment",
					"text" : "bang on 0",
					"fontsize" : 11.595187,
					"numinlets" : 1,
					"background" : 0,
					"numoutlets" : 0,
					"presentation_rect" : [ 0.0, 0.0, 0.0, 0.0 ],
					"ignoreclick" : 1,
					"bgcolor" : [ 1.0, 1.0, 1.0, 0.0 ],
					"hidden" : 0,
					"fontname" : "Arial",
					"patching_rect" : [ 127.0, 156.0, 62.0, 20.0 ],
					"frgb" : [ 0.0, 0.0, 0.0, 1.0 ],
					"presentation" : 0,
					"id" : "obj-9",
					"underline" : 0,
					"textcolor" : [ 0.0, 0.0, 0.0, 1.0 ],
					"fontface" : 0
				}

			}
, 			{
				"box" : 				{
					"maxclass" : "newobj",
					"text" : "select 32",
					"fontsize" : 11.595187,
					"numinlets" : 2,
					"background" : 0,
					"color" : [ 0.8, 0.84, 0.71, 1.0 ],
					"numoutlets" : 2,
					"presentation_rect" : [ 0.0, 0.0, 0.0, 0.0 ],
					"ignoreclick" : 0,
					"outlettype" : [ "bang", "" ],
					"bgcolor" : [ 1.0, 1.0, 1.0, 1.0 ],
					"hidden" : 0,
					"fontname" : "Arial",
					"patching_rect" : [ 67.0, 45.0, 57.0, 20.0 ],
					"presentation" : 0,
					"id" : "obj-10",
					"textcolor" : [ 0.0, 0.0, 0.0, 1.0 ],
					"fontface" : 0
				}

			}
, 			{
				"box" : 				{
					"maxclass" : "newobj",
					"text" : "key",
					"fontsize" : 11.595187,
					"numinlets" : 0,
					"background" : 0,
					"color" : [ 0.8, 0.84, 0.71, 1.0 ],
					"numoutlets" : 3,
					"presentation_rect" : [ 0.0, 0.0, 0.0, 0.0 ],
					"ignoreclick" : 0,
					"outlettype" : [ "int", "int", "int" ],
					"bgcolor" : [ 1.0, 1.0, 1.0, 1.0 ],
					"hidden" : 0,
					"fontname" : "Arial",
					"patching_rect" : [ 67.0, 20.0, 46.0, 20.0 ],
					"presentation" : 0,
					"id" : "obj-11",
					"textcolor" : [ 0.0, 0.0, 0.0, 1.0 ],
					"fontface" : 0
				}

			}
, 			{
				"box" : 				{
					"maxclass" : "toggle",
					"numinlets" : 1,
					"background" : 0,
					"numoutlets" : 1,
					"bordercolor" : [ 0.5, 0.5, 0.5, 1.0 ],
					"presentation_rect" : [ 0.0, 0.0, 0.0, 0.0 ],
					"ignoreclick" : 0,
					"outlettype" : [ "int" ],
					"bgcolor" : [ 1.0, 1.0, 1.0, 1.0 ],
					"hidden" : 0,
					"patching_rect" : [ 67.0, 80.0, 20.0, 20.0 ],
					"presentation" : 0,
					"id" : "obj-12",
					"checkedcolor" : [ 0.0, 0.0, 0.0, 1.0 ]
				}

			}
, 			{
				"box" : 				{
					"maxclass" : "newobj",
					"text" : "TogEdge",
					"fontsize" : 11.595187,
					"numinlets" : 1,
					"background" : 0,
					"color" : [ 0.8, 0.84, 0.71, 1.0 ],
					"numoutlets" : 2,
					"presentation_rect" : [ 0.0, 0.0, 0.0, 0.0 ],
					"ignoreclick" : 0,
					"outlettype" : [ "bang", "bang" ],
					"bgcolor" : [ 1.0, 1.0, 1.0, 1.0 ],
					"hidden" : 0,
					"fontname" : "Arial",
					"patching_rect" : [ 67.0, 156.0, 59.0, 20.0 ],
					"presentation" : 0,
					"id" : "obj-13",
					"textcolor" : [ 0.0, 0.0, 0.0, 1.0 ],
					"fontface" : 0
				}

			}
, 			{
				"box" : 				{
					"maxclass" : "newobj",
					"text" : "line~",
					"fontsize" : 11.595187,
					"numinlets" : 2,
					"background" : 0,
					"color" : [ 1.0, 0.890196, 0.090196, 1.0 ],
					"numoutlets" : 2,
					"presentation_rect" : [ 0.0, 0.0, 0.0, 0.0 ],
					"ignoreclick" : 0,
					"outlettype" : [ "signal", "bang" ],
					"bgcolor" : [ 1.0, 1.0, 1.0, 1.0 ],
					"hidden" : 0,
					"fontname" : "Arial",
					"patching_rect" : [ 335.0, 259.0, 35.0, 20.0 ],
					"presentation" : 0,
					"id" : "obj-14",
					"textcolor" : [ 0.0, 0.0, 0.0, 1.0 ],
					"fontface" : 0
				}

			}
, 			{
				"box" : 				{
					"maxclass" : "newobj",
					"text" : "cycle~ 1000.",
					"fontsize" : 11.595187,
					"numinlets" : 2,
					"background" : 0,
					"color" : [ 0.8, 0.84, 0.71, 1.0 ],
					"numoutlets" : 1,
					"presentation_rect" : [ 0.0, 0.0, 0.0, 0.0 ],
					"ignoreclick" : 0,
					"outlettype" : [ "signal" ],
					"bgcolor" : [ 1.0, 1.0, 1.0, 1.0 ],
					"hidden" : 0,
					"fontname" : "Arial",
					"patching_rect" : [ 200.0, 259.0, 76.0, 20.0 ],
					"presentation" : 0,
					"id" : "obj-15",
					"textcolor" : [ 0.0, 0.0, 0.0, 1.0 ],
					"fontface" : 0
				}

			}
, 			{
				"box" : 				{
					"maxclass" : "flonum",
					"triangle" : 1,
					"maximum" : "<none>",
					"fontsize" : 11.595187,
					"numinlets" : 1,
					"background" : 0,
					"mouseup" : 0,
					"numoutlets" : 2,
					"outputonclick" : 0,
					"bordercolor" : [ 0.5, 0.5, 0.5, 1.0 ],
					"presentation_rect" : [ 0.0, 0.0, 0.0, 0.0 ],
					"ignoreclick" : 0,
					"outlettype" : [ "float", "bang" ],
					"hbgcolor" : [ 0.0, 0.0, 0.0, 1.0 ],
					"bgcolor" : [ 0.866667, 0.866667, 0.866667, 1.0 ],
					"hidden" : 0,
					"fontname" : "Arial",
					"patching_rect" : [ 200.0, 180.0, 60.0, 20.0 ],
					"htextcolor" : [ 0.870588, 0.870588, 0.870588, 1.0 ],
					"presentation" : 0,
					"id" : "obj-16",
					"minimum" : "<none>",
					"textcolor" : [ 0.0, 0.0, 0.0, 1.0 ],
					"cantchange" : 0,
					"triscale" : 0.9,
					"numdecimalplaces" : 0,
					"fontface" : 0
				}

			}
, 			{
				"box" : 				{
					"maxclass" : "message",
					"text" : "start",
					"fontsize" : 11.595187,
					"numinlets" : 2,
					"background" : 0,
					"numoutlets" : 1,
					"presentation_rect" : [ 0.0, 0.0, 0.0, 0.0 ],
					"ignoreclick" : 0,
					"outlettype" : [ "" ],
					"bgcolor" : [ 0.867, 0.867, 0.867, 1.0 ],
					"hidden" : 0,
					"fontname" : "Arial",
					"patching_rect" : [ 67.0, 207.0, 33.0, 18.0 ],
					"bgcolor2" : [ 0.867, 0.867, 0.867, 1.0 ],
					"presentation" : 0,
					"id" : "obj-17",
					"textcolor" : [ 0.0, 0.0, 0.0, 1.0 ],
					"gradient" : 0,
					"fontface" : 0
				}

			}
, 			{
				"box" : 				{
					"maxclass" : "message",
					"text" : "stop",
					"fontsize" : 11.595187,
					"numinlets" : 2,
					"background" : 0,
					"numoutlets" : 1,
					"presentation_rect" : [ 0.0, 0.0, 0.0, 0.0 ],
					"ignoreclick" : 0,
					"outlettype" : [ "" ],
					"bgcolor" : [ 0.867, 0.867, 0.867, 1.0 ],
					"hidden" : 0,
					"fontname" : "Arial",
					"patching_rect" : [ 107.0, 207.0, 32.5, 18.0 ],
					"bgcolor2" : [ 0.867, 0.867, 0.867, 1.0 ],
					"presentation" : 0,
					"id" : "obj-18",
					"textcolor" : [ 0.0, 0.0, 0.0, 1.0 ],
					"gradient" : 0,
					"fontface" : 0
				}

			}
, 			{
				"box" : 				{
					"maxclass" : "newobj",
					"text" : "*~",
					"fontsize" : 11.595187,
					"numinlets" : 2,
					"background" : 0,
					"color" : [ 1.0, 0.890196, 0.090196, 1.0 ],
					"numoutlets" : 1,
					"presentation_rect" : [ 0.0, 0.0, 0.0, 0.0 ],
					"ignoreclick" : 0,
					"outlettype" : [ "signal" ],
					"bgcolor" : [ 1.0, 1.0, 1.0, 1.0 ],
					"hidden" : 0,
					"fontname" : "Arial",
					"patching_rect" : [ 200.0, 288.0, 32.5, 20.0 ],
					"presentation" : 0,
					"id" : "obj-19",
					"textcolor" : [ 0.0, 0.0, 0.0, 1.0 ],
					"fontface" : 0
				}

			}
, 			{
				"box" : 				{
					"maxclass" : "newobj",
					"text" : "dac~",
					"fontsize" : 11.595187,
					"numinlets" : 2,
					"background" : 0,
					"color" : [ 0.8, 0.84, 0.71, 1.0 ],
					"numoutlets" : 0,
					"presentation_rect" : [ 0.0, 0.0, 0.0, 0.0 ],
					"ignoreclick" : 0,
					"bgcolor" : [ 1.0, 1.0, 1.0, 1.0 ],
					"hidden" : 0,
					"fontname" : "Arial",
					"patching_rect" : [ 200.0, 329.0, 36.0, 20.0 ],
					"presentation" : 0,
					"id" : "obj-20",
					"textcolor" : [ 0.0, 0.0, 0.0, 1.0 ],
					"fontface" : 0
				}

			}
, 			{
				"box" : 				{
					"maxclass" : "comment",
					"text" : "bang on 1",
					"fontsize" : 11.595187,
					"numinlets" : 1,
					"background" : 0,
					"numoutlets" : 0,
					"presentation_rect" : [ 0.0, 0.0, 0.0, 0.0 ],
					"ignoreclick" : 1,
					"bgcolor" : [ 1.0, 1.0, 1.0, 0.0 ],
					"hidden" : 0,
					"fontname" : "Arial",
					"patching_rect" : [ 4.0, 156.0, 62.0, 20.0 ],
					"frgb" : [ 0.0, 0.0, 0.0, 1.0 ],
					"presentation" : 0,
					"id" : "obj-21",
					"underline" : 0,
					"textcolor" : [ 0.0, 0.0, 0.0, 1.0 ],
					"fontface" : 0
				}

			}
 ],
		"lines" : [ 			{
				"patchline" : 				{
					"source" : [ "obj-14", 0 ],
					"destination" : [ "obj-19", 1 ],
					"hidden" : 0,
					"color" : [ 0.0, 0.0, 0.0, 1.0 ],
					"midpoints" : [ 344.5, 291.0, 234.0, 291.0, 234.0, 285.0, 223.0, 285.0 ]
				}

			}
, 			{
				"patchline" : 				{
					"source" : [ "obj-5", 0 ],
					"destination" : [ "obj-14", 0 ],
					"hidden" : 0,
					"color" : [ 0.0, 0.0, 0.0, 1.0 ],
					"midpoints" : [  ]
				}

			}
, 			{
				"patchline" : 				{
					"source" : [ "obj-4", 0 ],
					"destination" : [ "obj-5", 0 ],
					"hidden" : 0,
					"color" : [ 0.0, 0.0, 0.0, 1.0 ],
					"midpoints" : [  ]
				}

			}
, 			{
				"patchline" : 				{
					"source" : [ "obj-1", 1 ],
					"destination" : [ "obj-5", 0 ],
					"hidden" : 0,
					"color" : [ 0.0, 0.0, 0.0, 1.0 ],
					"midpoints" : [ 375.5, 143.0, 415.0, 143.0, 415.0, 225.0, 344.5, 225.0 ]
				}

			}
, 			{
				"patchline" : 				{
					"source" : [ "obj-1", 0 ],
					"destination" : [ "obj-4", 0 ],
					"hidden" : 0,
					"color" : [ 0.0, 0.0, 0.0, 1.0 ],
					"midpoints" : [  ]
				}

			}
, 			{
				"patchline" : 				{
					"source" : [ "obj-12", 0 ],
					"destination" : [ "obj-1", 0 ],
					"hidden" : 0,
					"color" : [ 0.0, 0.0, 0.0, 1.0 ],
					"midpoints" : [ 76.5, 108.0, 344.5, 108.0 ]
				}

			}
, 			{
				"patchline" : 				{
					"source" : [ "obj-19", 0 ],
					"destination" : [ "obj-20", 1 ],
					"hidden" : 0,
					"color" : [ 0.0, 0.0, 0.0, 1.0 ],
					"midpoints" : [  ]
				}

			}
, 			{
				"patchline" : 				{
					"source" : [ "obj-17", 0 ],
					"destination" : [ "obj-20", 0 ],
					"hidden" : 0,
					"color" : [ 0.0, 0.0, 0.0, 1.0 ],
					"midpoints" : [ 76.5, 319.0, 209.5, 319.0 ]
				}

			}
, 			{
				"patchline" : 				{
					"source" : [ "obj-18", 0 ],
					"destination" : [ "obj-20", 0 ],
					"hidden" : 0,
					"color" : [ 0.0, 0.0, 0.0, 1.0 ],
					"midpoints" : [ 116.5, 319.0, 209.5, 319.0 ]
				}

			}
, 			{
				"patchline" : 				{
					"source" : [ "obj-19", 0 ],
					"destination" : [ "obj-20", 0 ],
					"hidden" : 0,
					"color" : [ 0.0, 0.0, 0.0, 1.0 ],
					"midpoints" : [  ]
				}

			}
, 			{
				"patchline" : 				{
					"source" : [ "obj-15", 0 ],
					"destination" : [ "obj-19", 0 ],
					"hidden" : 0,
					"color" : [ 0.0, 0.0, 0.0, 1.0 ],
					"midpoints" : [  ]
				}

			}
, 			{
				"patchline" : 				{
					"source" : [ "obj-16", 0 ],
					"destination" : [ "obj-15", 0 ],
					"hidden" : 0,
					"color" : [ 0.0, 0.0, 0.0, 1.0 ],
					"midpoints" : [  ]
				}

			}
, 			{
				"patchline" : 				{
					"source" : [ "obj-8", 0 ],
					"destination" : [ "obj-18", 0 ],
					"hidden" : 0,
					"color" : [ 0.0, 0.0, 0.0, 1.0 ],
					"midpoints" : [  ]
				}

			}
, 			{
				"patchline" : 				{
					"source" : [ "obj-13", 1 ],
					"destination" : [ "obj-8", 0 ],
					"hidden" : 0,
					"color" : [ 0.0, 0.0, 0.0, 1.0 ],
					"midpoints" : [  ]
				}

			}
, 			{
				"patchline" : 				{
					"source" : [ "obj-13", 0 ],
					"destination" : [ "obj-17", 0 ],
					"hidden" : 0,
					"color" : [ 0.0, 0.0, 0.0, 1.0 ],
					"midpoints" : [  ]
				}

			}
, 			{
				"patchline" : 				{
					"source" : [ "obj-12", 0 ],
					"destination" : [ "obj-13", 0 ],
					"hidden" : 0,
					"color" : [ 0.0, 0.0, 0.0, 1.0 ],
					"midpoints" : [  ]
				}

			}
, 			{
				"patchline" : 				{
					"source" : [ "obj-10", 0 ],
					"destination" : [ "obj-12", 0 ],
					"hidden" : 0,
					"color" : [ 0.0, 0.0, 0.0, 1.0 ],
					"midpoints" : [  ]
				}

			}
, 			{
				"patchline" : 				{
					"source" : [ "obj-11", 0 ],
					"destination" : [ "obj-10", 0 ],
					"hidden" : 0,
					"color" : [ 0.0, 0.0, 0.0, 1.0 ],
					"midpoints" : [  ]
				}

			}
 ]
	}

}
