{
	"patcher" : 	{
		"fileversion" : 1,
		"rect" : [ 20.0, 48.0, 680.0, 445.0 ],
		"bgcolor" : [ 1.0, 1.0, 1.0, 1.0 ],
		"bglocked" : 0,
		"defrect" : [ 20.0, 48.0, 680.0, 445.0 ],
		"openrect" : [ 0.0, 0.0, 0.0, 0.0 ],
		"openinpresentation" : 0,
		"default_fontsize" : 10.0,
		"default_fontface" : 0,
		"default_fontname" : "Arial",
		"gridonopen" : 0,
		"gridsize" : [ 15.0, 15.0 ],
		"gridsnaponopen" : 0,
		"toolbarvisible" : 1,
		"boxanimatetime" : 200,
		"imprint" : 1,
		"metadata" : [  ],
		"boxes" : [ 			{
				"box" : 				{
					"maxclass" : "message",
					"text" : "write",
					"fontsize" : 11.595187,
					"numinlets" : 2,
					"background" : 0,
					"numoutlets" : 1,
					"presentation_rect" : [ 0.0, 0.0, 0.0, 0.0 ],
					"ignoreclick" : 0,
					"outlettype" : [ "" ],
					"bgcolor" : [ 0.867, 0.867, 0.867, 1.0 ],
					"hidden" : 0,
					"fontname" : "Arial",
					"patching_rect" : [ 406.0, 52.0, 35.0, 18.0 ],
					"bgcolor2" : [ 0.867, 0.867, 0.867, 1.0 ],
					"presentation" : 0,
					"id" : "obj-1",
					"textcolor" : [ 0.0, 0.0, 0.0, 1.0 ],
					"gradient" : 0,
					"fontface" : 0
				}

			}
, 			{
				"box" : 				{
					"maxclass" : "comment",
					"text" : "Save in AIFF",
					"fontsize" : 11.595187,
					"numinlets" : 1,
					"background" : 0,
					"numoutlets" : 0,
					"presentation_rect" : [ 0.0, 0.0, 0.0, 0.0 ],
					"ignoreclick" : 1,
					"bgcolor" : [ 1.0, 1.0, 1.0, 0.0 ],
					"hidden" : 0,
					"fontname" : "Arial",
					"patching_rect" : [ 444.0, 52.0, 78.0, 20.0 ],
					"frgb" : [ 0.0, 0.0, 0.0, 1.0 ],
					"presentation" : 0,
					"id" : "obj-2",
					"underline" : 0,
					"textcolor" : [ 0.0, 0.0, 0.0, 1.0 ],
					"fontface" : 0
				}

			}
, 			{
				"box" : 				{
					"maxclass" : "comment",
					"text" : "Audio On/Off",
					"fontsize" : 11.595187,
					"numinlets" : 1,
					"background" : 0,
					"numoutlets" : 0,
					"presentation_rect" : [ 0.0, 0.0, 0.0, 0.0 ],
					"ignoreclick" : 1,
					"bgcolor" : [ 1.0, 1.0, 1.0, 0.0 ],
					"hidden" : 0,
					"fontname" : "Arial",
					"patching_rect" : [ 236.0, 22.0, 78.0, 20.0 ],
					"frgb" : [ 0.0, 0.0, 0.0, 1.0 ],
					"presentation" : 0,
					"id" : "obj-3",
					"underline" : 0,
					"textcolor" : [ 0.0, 0.0, 0.0, 1.0 ],
					"fontface" : 0
				}

			}
, 			{
				"box" : 				{
					"maxclass" : "comment",
					"text" : "whole tone lower",
					"fontsize" : 11.595187,
					"numinlets" : 1,
					"background" : 0,
					"numoutlets" : 0,
					"presentation_rect" : [ 0.0, 0.0, 0.0, 0.0 ],
					"ignoreclick" : 1,
					"bgcolor" : [ 1.0, 1.0, 1.0, 0.0 ],
					"hidden" : 0,
					"fontname" : "Arial",
					"patching_rect" : [ 480.0, 267.0, 98.0, 20.0 ],
					"frgb" : [ 0.0, 0.0, 0.0, 1.0 ],
					"presentation" : 0,
					"id" : "obj-4",
					"underline" : 0,
					"textcolor" : [ 0.0, 0.0, 0.0, 1.0 ],
					"fontface" : 0
				}

			}
, 			{
				"box" : 				{
					"maxclass" : "comment",
					"text" : "middle, reversed, 1/4 speed",
					"fontsize" : 11.595187,
					"numinlets" : 1,
					"background" : 0,
					"numoutlets" : 0,
					"presentation_rect" : [ 0.0, 0.0, 0.0, 0.0 ],
					"ignoreclick" : 1,
					"bgcolor" : [ 1.0, 1.0, 1.0, 0.0 ],
					"hidden" : 0,
					"fontname" : "Arial",
					"patching_rect" : [ 480.0, 244.0, 154.0, 20.0 ],
					"frgb" : [ 0.0, 0.0, 0.0, 1.0 ],
					"presentation" : 0,
					"id" : "obj-5",
					"underline" : 0,
					"textcolor" : [ 0.0, 0.0, 0.0, 1.0 ],
					"fontface" : 0
				}

			}
, 			{
				"box" : 				{
					"maxclass" : "comment",
					"text" : "middle of sample",
					"fontsize" : 11.595187,
					"numinlets" : 1,
					"background" : 0,
					"numoutlets" : 0,
					"presentation_rect" : [ 0.0, 0.0, 0.0, 0.0 ],
					"ignoreclick" : 1,
					"bgcolor" : [ 1.0, 1.0, 1.0, 0.0 ],
					"hidden" : 0,
					"fontname" : "Arial",
					"patching_rect" : [ 480.0, 221.0, 98.0, 20.0 ],
					"frgb" : [ 0.0, 0.0, 0.0, 1.0 ],
					"presentation" : 0,
					"id" : "obj-6",
					"underline" : 0,
					"textcolor" : [ 0.0, 0.0, 0.0, 1.0 ],
					"fontface" : 0
				}

			}
, 			{
				"box" : 				{
					"maxclass" : "comment",
					"text" : "reversed, 1/2 speed",
					"fontsize" : 11.595187,
					"numinlets" : 1,
					"background" : 0,
					"numoutlets" : 0,
					"presentation_rect" : [ 0.0, 0.0, 0.0, 0.0 ],
					"ignoreclick" : 1,
					"bgcolor" : [ 1.0, 1.0, 1.0, 0.0 ],
					"hidden" : 0,
					"fontname" : "Arial",
					"patching_rect" : [ 480.0, 198.0, 113.0, 20.0 ],
					"frgb" : [ 0.0, 0.0, 0.0, 1.0 ],
					"presentation" : 0,
					"id" : "obj-7",
					"underline" : 0,
					"textcolor" : [ 0.0, 0.0, 0.0, 1.0 ],
					"fontface" : 0
				}

			}
, 			{
				"box" : 				{
					"maxclass" : "comment",
					"text" : "reversed",
					"fontsize" : 11.595187,
					"numinlets" : 1,
					"background" : 0,
					"numoutlets" : 0,
					"presentation_rect" : [ 0.0, 0.0, 0.0, 0.0 ],
					"ignoreclick" : 1,
					"bgcolor" : [ 1.0, 1.0, 1.0, 0.0 ],
					"hidden" : 0,
					"fontname" : "Arial",
					"patching_rect" : [ 480.0, 175.0, 56.0, 20.0 ],
					"frgb" : [ 0.0, 0.0, 0.0, 1.0 ],
					"presentation" : 0,
					"id" : "obj-8",
					"underline" : 0,
					"textcolor" : [ 0.0, 0.0, 0.0, 1.0 ],
					"fontface" : 0
				}

			}
, 			{
				"box" : 				{
					"maxclass" : "comment",
					"text" : "double speed",
					"fontsize" : 11.595187,
					"numinlets" : 1,
					"background" : 0,
					"numoutlets" : 0,
					"presentation_rect" : [ 0.0, 0.0, 0.0, 0.0 ],
					"ignoreclick" : 1,
					"bgcolor" : [ 1.0, 1.0, 1.0, 0.0 ],
					"hidden" : 0,
					"fontname" : "Arial",
					"patching_rect" : [ 480.0, 152.0, 80.0, 20.0 ],
					"frgb" : [ 0.0, 0.0, 0.0, 1.0 ],
					"presentation" : 0,
					"id" : "obj-9",
					"underline" : 0,
					"textcolor" : [ 0.0, 0.0, 0.0, 1.0 ],
					"fontface" : 0
				}

			}
, 			{
				"box" : 				{
					"maxclass" : "comment",
					"text" : "half speed",
					"fontsize" : 11.595187,
					"numinlets" : 1,
					"background" : 0,
					"numoutlets" : 0,
					"presentation_rect" : [ 0.0, 0.0, 0.0, 0.0 ],
					"ignoreclick" : 1,
					"bgcolor" : [ 1.0, 1.0, 1.0, 0.0 ],
					"hidden" : 0,
					"fontname" : "Arial",
					"patching_rect" : [ 480.0, 129.0, 64.0, 20.0 ],
					"frgb" : [ 0.0, 0.0, 0.0, 1.0 ],
					"presentation" : 0,
					"id" : "obj-10",
					"underline" : 0,
					"textcolor" : [ 0.0, 0.0, 0.0, 1.0 ],
					"fontface" : 0
				}

			}
, 			{
				"box" : 				{
					"maxclass" : "comment",
					"text" : "normal speed",
					"fontsize" : 11.595187,
					"numinlets" : 1,
					"background" : 0,
					"numoutlets" : 0,
					"presentation_rect" : [ 0.0, 0.0, 0.0, 0.0 ],
					"ignoreclick" : 1,
					"bgcolor" : [ 1.0, 1.0, 1.0, 0.0 ],
					"hidden" : 0,
					"fontname" : "Arial",
					"patching_rect" : [ 480.0, 106.0, 81.0, 20.0 ],
					"frgb" : [ 0.0, 0.0, 0.0, 1.0 ],
					"presentation" : 0,
					"id" : "obj-11",
					"underline" : 0,
					"textcolor" : [ 0.0, 0.0, 0.0, 1.0 ],
					"fontface" : 0
				}

			}
, 			{
				"box" : 				{
					"maxclass" : "message",
					"text" : "0, 2000 2245",
					"fontsize" : 11.595187,
					"numinlets" : 2,
					"background" : 0,
					"numoutlets" : 1,
					"presentation_rect" : [ 0.0, 0.0, 0.0, 0.0 ],
					"ignoreclick" : 0,
					"outlettype" : [ "" ],
					"bgcolor" : [ 0.867, 0.867, 0.867, 1.0 ],
					"hidden" : 0,
					"fontname" : "Arial",
					"patching_rect" : [ 388.0, 266.0, 78.0, 18.0 ],
					"bgcolor2" : [ 0.867, 0.867, 0.867, 1.0 ],
					"presentation" : 0,
					"id" : "obj-12",
					"textcolor" : [ 0.0, 0.0, 0.0, 1.0 ],
					"gradient" : 0,
					"fontface" : 0
				}

			}
, 			{
				"box" : 				{
					"maxclass" : "message",
					"text" : "1500, 500 4000",
					"fontsize" : 11.595187,
					"numinlets" : 2,
					"background" : 0,
					"numoutlets" : 1,
					"presentation_rect" : [ 0.0, 0.0, 0.0, 0.0 ],
					"ignoreclick" : 0,
					"outlettype" : [ "" ],
					"bgcolor" : [ 0.867, 0.867, 0.867, 1.0 ],
					"hidden" : 0,
					"fontname" : "Arial",
					"patching_rect" : [ 388.0, 243.0, 91.0, 18.0 ],
					"bgcolor2" : [ 0.867, 0.867, 0.867, 1.0 ],
					"presentation" : 0,
					"id" : "obj-13",
					"textcolor" : [ 0.0, 0.0, 0.0, 1.0 ],
					"gradient" : 0,
					"fontface" : 0
				}

			}
, 			{
				"box" : 				{
					"maxclass" : "message",
					"text" : "500, 1500 1000",
					"fontsize" : 11.595187,
					"numinlets" : 2,
					"background" : 0,
					"numoutlets" : 1,
					"presentation_rect" : [ 0.0, 0.0, 0.0, 0.0 ],
					"ignoreclick" : 0,
					"outlettype" : [ "" ],
					"bgcolor" : [ 0.867, 0.867, 0.867, 1.0 ],
					"hidden" : 0,
					"fontname" : "Arial",
					"patching_rect" : [ 388.0, 220.0, 91.0, 18.0 ],
					"bgcolor2" : [ 0.867, 0.867, 0.867, 1.0 ],
					"presentation" : 0,
					"id" : "obj-14",
					"textcolor" : [ 0.0, 0.0, 0.0, 1.0 ],
					"gradient" : 0,
					"fontface" : 0
				}

			}
, 			{
				"box" : 				{
					"maxclass" : "message",
					"text" : "2000, 0 4000",
					"fontsize" : 11.595187,
					"numinlets" : 2,
					"background" : 0,
					"numoutlets" : 1,
					"presentation_rect" : [ 0.0, 0.0, 0.0, 0.0 ],
					"ignoreclick" : 0,
					"outlettype" : [ "" ],
					"bgcolor" : [ 0.867, 0.867, 0.867, 1.0 ],
					"hidden" : 0,
					"fontname" : "Arial",
					"patching_rect" : [ 388.0, 197.0, 78.0, 18.0 ],
					"bgcolor2" : [ 0.867, 0.867, 0.867, 1.0 ],
					"presentation" : 0,
					"id" : "obj-15",
					"textcolor" : [ 0.0, 0.0, 0.0, 1.0 ],
					"gradient" : 0,
					"fontface" : 0
				}

			}
, 			{
				"box" : 				{
					"maxclass" : "message",
					"text" : "2000, 0 2000",
					"fontsize" : 11.595187,
					"numinlets" : 2,
					"background" : 0,
					"numoutlets" : 1,
					"presentation_rect" : [ 0.0, 0.0, 0.0, 0.0 ],
					"ignoreclick" : 0,
					"outlettype" : [ "" ],
					"bgcolor" : [ 0.867, 0.867, 0.867, 1.0 ],
					"hidden" : 0,
					"fontname" : "Arial",
					"patching_rect" : [ 388.0, 174.0, 78.0, 18.0 ],
					"bgcolor2" : [ 0.867, 0.867, 0.867, 1.0 ],
					"presentation" : 0,
					"id" : "obj-16",
					"textcolor" : [ 0.0, 0.0, 0.0, 1.0 ],
					"gradient" : 0,
					"fontface" : 0
				}

			}
, 			{
				"box" : 				{
					"maxclass" : "message",
					"text" : "0, 2000 1000",
					"fontsize" : 11.595187,
					"numinlets" : 2,
					"background" : 0,
					"numoutlets" : 1,
					"presentation_rect" : [ 0.0, 0.0, 0.0, 0.0 ],
					"ignoreclick" : 0,
					"outlettype" : [ "" ],
					"bgcolor" : [ 0.867, 0.867, 0.867, 1.0 ],
					"hidden" : 0,
					"fontname" : "Arial",
					"patching_rect" : [ 388.0, 151.0, 78.0, 18.0 ],
					"bgcolor2" : [ 0.867, 0.867, 0.867, 1.0 ],
					"presentation" : 0,
					"id" : "obj-17",
					"textcolor" : [ 0.0, 0.0, 0.0, 1.0 ],
					"gradient" : 0,
					"fontface" : 0
				}

			}
, 			{
				"box" : 				{
					"maxclass" : "message",
					"text" : "0, 2000 4000",
					"fontsize" : 11.595187,
					"numinlets" : 2,
					"background" : 0,
					"numoutlets" : 1,
					"presentation_rect" : [ 0.0, 0.0, 0.0, 0.0 ],
					"ignoreclick" : 0,
					"outlettype" : [ "" ],
					"bgcolor" : [ 0.867, 0.867, 0.867, 1.0 ],
					"hidden" : 0,
					"fontname" : "Arial",
					"patching_rect" : [ 388.0, 128.0, 78.0, 18.0 ],
					"bgcolor2" : [ 0.867, 0.867, 0.867, 1.0 ],
					"presentation" : 0,
					"id" : "obj-18",
					"textcolor" : [ 0.0, 0.0, 0.0, 1.0 ],
					"gradient" : 0,
					"fontface" : 0
				}

			}
, 			{
				"box" : 				{
					"maxclass" : "message",
					"text" : "0, 2000 2000",
					"fontsize" : 11.595187,
					"numinlets" : 2,
					"background" : 0,
					"numoutlets" : 1,
					"presentation_rect" : [ 0.0, 0.0, 0.0, 0.0 ],
					"ignoreclick" : 0,
					"outlettype" : [ "" ],
					"bgcolor" : [ 0.867, 0.867, 0.867, 1.0 ],
					"hidden" : 0,
					"fontname" : "Arial",
					"patching_rect" : [ 388.0, 105.0, 78.0, 18.0 ],
					"bgcolor2" : [ 0.867, 0.867, 0.867, 1.0 ],
					"presentation" : 0,
					"id" : "obj-19",
					"textcolor" : [ 0.0, 0.0, 0.0, 1.0 ],
					"gradient" : 0,
					"fontface" : 0
				}

			}
, 			{
				"box" : 				{
					"maxclass" : "comment",
					"text" : "Variable Playback",
					"fontsize" : 11.595187,
					"numinlets" : 1,
					"background" : 0,
					"numoutlets" : 0,
					"presentation_rect" : [ 0.0, 0.0, 0.0, 0.0 ],
					"ignoreclick" : 1,
					"bgcolor" : [ 1.0, 1.0, 1.0, 0.0 ],
					"hidden" : 0,
					"fontname" : "Arial",
					"patching_rect" : [ 393.0, 79.0, 103.0, 20.0 ],
					"frgb" : [ 0.0, 0.0, 0.0, 1.0 ],
					"presentation" : 0,
					"id" : "obj-20",
					"underline" : 0,
					"textcolor" : [ 0.0, 0.0, 0.0, 1.0 ],
					"fontface" : 0
				}

			}
, 			{
				"box" : 				{
					"maxclass" : "comment",
					"text" : "Simple Playback",
					"fontsize" : 11.595187,
					"numinlets" : 1,
					"background" : 0,
					"numoutlets" : 0,
					"presentation_rect" : [ 0.0, 0.0, 0.0, 0.0 ],
					"ignoreclick" : 1,
					"bgcolor" : [ 1.0, 1.0, 1.0, 0.0 ],
					"hidden" : 0,
					"fontname" : "Arial",
					"patching_rect" : [ 28.0, 161.0, 96.0, 20.0 ],
					"frgb" : [ 0.0, 0.0, 0.0, 1.0 ],
					"presentation" : 0,
					"id" : "obj-21",
					"underline" : 0,
					"textcolor" : [ 0.0, 0.0, 0.0, 1.0 ],
					"fontface" : 0
				}

			}
, 			{
				"box" : 				{
					"maxclass" : "comment",
					"text" : "Play",
					"fontsize" : 11.595187,
					"numinlets" : 1,
					"background" : 0,
					"numoutlets" : 0,
					"presentation_rect" : [ 0.0, 0.0, 0.0, 0.0 ],
					"ignoreclick" : 1,
					"bgcolor" : [ 1.0, 1.0, 1.0, 0.0 ],
					"hidden" : 0,
					"fontname" : "Arial",
					"patching_rect" : [ 18.0, 182.0, 33.0, 20.0 ],
					"frgb" : [ 0.0, 0.0, 0.0, 1.0 ],
					"presentation" : 0,
					"id" : "obj-22",
					"underline" : 0,
					"textcolor" : [ 0.0, 0.0, 0.0, 1.0 ],
					"fontface" : 0
				}

			}
, 			{
				"box" : 				{
					"maxclass" : "comment",
					"text" : "Starting sample #",
					"fontsize" : 11.595187,
					"numinlets" : 1,
					"background" : 0,
					"numoutlets" : 0,
					"presentation_rect" : [ 0.0, 0.0, 0.0, 0.0 ],
					"ignoreclick" : 1,
					"bgcolor" : [ 1.0, 1.0, 1.0, 0.0 ],
					"hidden" : 0,
					"fontname" : "Arial",
					"patching_rect" : [ 48.0, 182.0, 101.0, 20.0 ],
					"frgb" : [ 0.0, 0.0, 0.0, 1.0 ],
					"presentation" : 0,
					"id" : "obj-23",
					"underline" : 0,
					"textcolor" : [ 0.0, 0.0, 0.0, 1.0 ],
					"fontface" : 0
				}

			}
, 			{
				"box" : 				{
					"maxclass" : "comment",
					"text" : "Record On/Off",
					"fontsize" : 11.595187,
					"numinlets" : 1,
					"background" : 0,
					"numoutlets" : 0,
					"presentation_rect" : [ 0.0, 0.0, 0.0, 0.0 ],
					"ignoreclick" : 1,
					"bgcolor" : [ 1.0, 1.0, 1.0, 0.0 ],
					"hidden" : 0,
					"fontname" : "Arial",
					"patching_rect" : [ 5.0, 35.0, 85.0, 20.0 ],
					"frgb" : [ 0.0, 0.0, 0.0, 1.0 ],
					"presentation" : 0,
					"id" : "obj-24",
					"underline" : 0,
					"textcolor" : [ 0.0, 0.0, 0.0, 1.0 ],
					"fontface" : 0
				}

			}
, 			{
				"box" : 				{
					"maxclass" : "newobj",
					"text" : "0",
					"fontsize" : 11.595187,
					"numinlets" : 2,
					"background" : 0,
					"color" : [ 0.8, 0.84, 0.71, 1.0 ],
					"numoutlets" : 1,
					"presentation_rect" : [ 0.0, 0.0, 0.0, 0.0 ],
					"ignoreclick" : 0,
					"outlettype" : [ "int" ],
					"bgcolor" : [ 1.0, 1.0, 1.0, 1.0 ],
					"hidden" : 0,
					"fontname" : "Arial",
					"patching_rect" : [ 25.0, 135.0, 32.5, 20.0 ],
					"presentation" : 0,
					"id" : "obj-25",
					"textcolor" : [ 0.0, 0.0, 0.0, 1.0 ],
					"fontface" : 0
				}

			}
, 			{
				"box" : 				{
					"maxclass" : "newobj",
					"text" : "del 2000",
					"fontsize" : 11.595187,
					"numinlets" : 2,
					"background" : 0,
					"color" : [ 0.8, 0.84, 0.71, 1.0 ],
					"numoutlets" : 1,
					"presentation_rect" : [ 0.0, 0.0, 0.0, 0.0 ],
					"ignoreclick" : 0,
					"outlettype" : [ "bang" ],
					"bgcolor" : [ 1.0, 1.0, 1.0, 1.0 ],
					"hidden" : 0,
					"fontname" : "Arial",
					"patching_rect" : [ 25.0, 111.0, 55.0, 20.0 ],
					"presentation" : 0,
					"id" : "obj-26",
					"textcolor" : [ 0.0, 0.0, 0.0, 1.0 ],
					"fontface" : 0
				}

			}
, 			{
				"box" : 				{
					"maxclass" : "newobj",
					"text" : "sel 1",
					"fontsize" : 11.595187,
					"numinlets" : 2,
					"background" : 0,
					"color" : [ 0.8, 0.84, 0.71, 1.0 ],
					"numoutlets" : 2,
					"presentation_rect" : [ 0.0, 0.0, 0.0, 0.0 ],
					"ignoreclick" : 0,
					"outlettype" : [ "bang", "" ],
					"bgcolor" : [ 1.0, 1.0, 1.0, 1.0 ],
					"hidden" : 0,
					"fontname" : "Arial",
					"patching_rect" : [ 25.0, 89.0, 35.0, 20.0 ],
					"presentation" : 0,
					"id" : "obj-27",
					"textcolor" : [ 0.0, 0.0, 0.0, 1.0 ],
					"fontface" : 0
				}

			}
, 			{
				"box" : 				{
					"maxclass" : "comment",
					"text" : "Audio thruput level",
					"fontsize" : 11.595187,
					"numinlets" : 1,
					"background" : 0,
					"numoutlets" : 0,
					"presentation_rect" : [ 0.0, 0.0, 0.0, 0.0 ],
					"ignoreclick" : 1,
					"bgcolor" : [ 1.0, 1.0, 1.0, 0.0 ],
					"hidden" : 0,
					"fontname" : "Arial",
					"patching_rect" : [ 229.0, 229.0, 107.0, 20.0 ],
					"frgb" : [ 0.0, 0.0, 0.0, 1.0 ],
					"presentation" : 0,
					"id" : "obj-28",
					"underline" : 0,
					"textcolor" : [ 0.0, 0.0, 0.0, 1.0 ],
					"fontface" : 0
				}

			}
, 			{
				"box" : 				{
					"maxclass" : "newobj",
					"text" : "*~",
					"fontsize" : 11.595187,
					"numinlets" : 2,
					"background" : 0,
					"color" : [ 0.8, 0.84, 0.71, 1.0 ],
					"numoutlets" : 1,
					"presentation_rect" : [ 0.0, 0.0, 0.0, 0.0 ],
					"ignoreclick" : 0,
					"outlettype" : [ "signal" ],
					"bgcolor" : [ 1.0, 1.0, 1.0, 1.0 ],
					"hidden" : 0,
					"fontname" : "Arial",
					"patching_rect" : [ 339.0, 365.0, 32.5, 20.0 ],
					"presentation" : 0,
					"id" : "obj-29",
					"textcolor" : [ 0.0, 0.0, 0.0, 1.0 ],
					"fontface" : 0
				}

			}
, 			{
				"box" : 				{
					"maxclass" : "newobj",
					"text" : "*~",
					"fontsize" : 11.595187,
					"numinlets" : 2,
					"background" : 0,
					"color" : [ 0.8, 0.84, 0.71, 1.0 ],
					"numoutlets" : 1,
					"presentation_rect" : [ 0.0, 0.0, 0.0, 0.0 ],
					"ignoreclick" : 0,
					"outlettype" : [ "signal" ],
					"bgcolor" : [ 1.0, 1.0, 1.0, 1.0 ],
					"hidden" : 0,
					"fontname" : "Arial",
					"patching_rect" : [ 214.0, 365.0, 32.5, 20.0 ],
					"presentation" : 0,
					"id" : "obj-30",
					"textcolor" : [ 0.0, 0.0, 0.0, 1.0 ],
					"fontface" : 0
				}

			}
, 			{
				"box" : 				{
					"maxclass" : "message",
					"text" : "100",
					"fontsize" : 11.595187,
					"numinlets" : 2,
					"background" : 0,
					"numoutlets" : 1,
					"presentation_rect" : [ 0.0, 0.0, 0.0, 0.0 ],
					"ignoreclick" : 0,
					"outlettype" : [ "" ],
					"bgcolor" : [ 0.867, 0.867, 0.867, 1.0 ],
					"hidden" : 0,
					"fontname" : "Arial",
					"patching_rect" : [ 274.0, 286.0, 32.5, 18.0 ],
					"bgcolor2" : [ 0.867, 0.867, 0.867, 1.0 ],
					"presentation" : 0,
					"id" : "obj-31",
					"textcolor" : [ 0.0, 0.0, 0.0, 1.0 ],
					"gradient" : 0,
					"fontface" : 0
				}

			}
, 			{
				"box" : 				{
					"maxclass" : "newobj",
					"text" : "line~",
					"fontsize" : 11.595187,
					"numinlets" : 2,
					"background" : 0,
					"color" : [ 0.8, 0.84, 0.71, 1.0 ],
					"numoutlets" : 2,
					"presentation_rect" : [ 0.0, 0.0, 0.0, 0.0 ],
					"ignoreclick" : 0,
					"outlettype" : [ "signal", "bang" ],
					"bgcolor" : [ 1.0, 1.0, 1.0, 1.0 ],
					"hidden" : 0,
					"fontname" : "Arial",
					"patching_rect" : [ 246.0, 323.0, 47.0, 20.0 ],
					"presentation" : 0,
					"id" : "obj-32",
					"textcolor" : [ 0.0, 0.0, 0.0, 1.0 ],
					"fontface" : 0
				}

			}
, 			{
				"box" : 				{
					"maxclass" : "flonum",
					"triangle" : 1,
					"maximum" : "<none>",
					"fontsize" : 11.595187,
					"numinlets" : 1,
					"background" : 0,
					"mouseup" : 0,
					"numoutlets" : 2,
					"outputonclick" : 0,
					"bordercolor" : [ 0.5, 0.5, 0.5, 1.0 ],
					"presentation_rect" : [ 0.0, 0.0, 0.0, 0.0 ],
					"ignoreclick" : 0,
					"outlettype" : [ "float", "bang" ],
					"hbgcolor" : [ 0.0, 0.0, 0.0, 1.0 ],
					"bgcolor" : [ 0.866667, 0.866667, 0.866667, 1.0 ],
					"hidden" : 0,
					"fontname" : "Arial",
					"patching_rect" : [ 246.0, 253.0, 54.0, 20.0 ],
					"htextcolor" : [ 0.870588, 0.870588, 0.870588, 1.0 ],
					"presentation" : 0,
					"id" : "obj-33",
					"minimum" : 0.0,
					"textcolor" : [ 0.0, 0.0, 0.0, 1.0 ],
					"cantchange" : 0,
					"triscale" : 0.9,
					"numdecimalplaces" : 0,
					"fontface" : 0
				}

			}
, 			{
				"box" : 				{
					"maxclass" : "newobj",
					"text" : "dac~",
					"fontsize" : 11.595187,
					"numinlets" : 2,
					"background" : 0,
					"color" : [ 0.8, 0.84, 0.71, 1.0 ],
					"numoutlets" : 0,
					"presentation_rect" : [ 0.0, 0.0, 0.0, 0.0 ],
					"ignoreclick" : 0,
					"bgcolor" : [ 1.0, 1.0, 1.0, 1.0 ],
					"hidden" : 0,
					"fontname" : "Arial",
					"patching_rect" : [ 214.0, 412.0, 36.0, 20.0 ],
					"presentation" : 0,
					"id" : "obj-34",
					"textcolor" : [ 0.0, 0.0, 0.0, 1.0 ],
					"fontface" : 0
				}

			}
, 			{
				"box" : 				{
					"maxclass" : "button",
					"numinlets" : 1,
					"background" : 0,
					"numoutlets" : 1,
					"presentation_rect" : [ 0.0, 0.0, 0.0, 0.0 ],
					"ignoreclick" : 0,
					"outlettype" : [ "bang" ],
					"bgcolor" : [ 0.91328, 0.91328, 0.91328, 0.75 ],
					"hidden" : 0,
					"fgcolor" : [ 1.0, 1.0, 1.0, 1.0 ],
					"patching_rect" : [ 22.0, 203.0, 20.0, 20.0 ],
					"outlinecolor" : [ 0.71328, 0.71328, 0.71328, 1.0 ],
					"presentation" : 0,
					"id" : "obj-35",
					"blinkcolor" : [ 1.0, 0.890196, 0.090196, 1.0 ]
				}

			}
, 			{
				"box" : 				{
					"maxclass" : "number",
					"triangle" : 1,
					"maximum" : "<none>",
					"fontsize" : 11.595187,
					"numinlets" : 1,
					"background" : 0,
					"mouseup" : 0,
					"numoutlets" : 2,
					"outputonclick" : 0,
					"bordercolor" : [ 0.5, 0.5, 0.5, 1.0 ],
					"format" : 0,
					"presentation_rect" : [ 0.0, 0.0, 0.0, 0.0 ],
					"ignoreclick" : 0,
					"outlettype" : [ "int", "bang" ],
					"hbgcolor" : [ 0.0, 0.0, 0.0, 1.0 ],
					"bgcolor" : [ 0.866667, 0.866667, 0.866667, 1.0 ],
					"hidden" : 0,
					"fontname" : "Arial",
					"patching_rect" : [ 55.0, 203.0, 54.0, 20.0 ],
					"htextcolor" : [ 0.870588, 0.870588, 0.870588, 1.0 ],
					"presentation" : 0,
					"id" : "obj-36",
					"minimum" : "<none>",
					"textcolor" : [ 0.0, 0.0, 0.0, 1.0 ],
					"cantchange" : 0,
					"triscale" : 0.9,
					"fontface" : 0
				}

			}
, 			{
				"box" : 				{
					"maxclass" : "newobj",
					"text" : "i",
					"fontsize" : 11.595187,
					"numinlets" : 2,
					"background" : 0,
					"color" : [ 0.8, 0.84, 0.71, 1.0 ],
					"numoutlets" : 1,
					"presentation_rect" : [ 0.0, 0.0, 0.0, 0.0 ],
					"ignoreclick" : 0,
					"outlettype" : [ "int" ],
					"bgcolor" : [ 1.0, 1.0, 1.0, 1.0 ],
					"hidden" : 0,
					"fontname" : "Arial",
					"patching_rect" : [ 22.0, 228.0, 51.5, 20.0 ],
					"presentation" : 0,
					"id" : "obj-37",
					"textcolor" : [ 0.0, 0.0, 0.0, 1.0 ],
					"fontface" : 0
				}

			}
, 			{
				"box" : 				{
					"maxclass" : "newobj",
					"text" : "count~",
					"fontsize" : 11.595187,
					"numinlets" : 2,
					"background" : 0,
					"color" : [ 1.0, 0.890196, 0.090196, 1.0 ],
					"numoutlets" : 1,
					"presentation_rect" : [ 0.0, 0.0, 0.0, 0.0 ],
					"ignoreclick" : 0,
					"outlettype" : [ "signal" ],
					"bgcolor" : [ 1.0, 1.0, 1.0, 1.0 ],
					"hidden" : 0,
					"fontname" : "Arial",
					"patching_rect" : [ 22.0, 250.0, 46.0, 20.0 ],
					"presentation" : 0,
					"id" : "obj-38",
					"textcolor" : [ 0.0, 0.0, 0.0, 1.0 ],
					"fontface" : 0
				}

			}
, 			{
				"box" : 				{
					"maxclass" : "newobj",
					"text" : "index~ soundbite 1",
					"fontsize" : 11.595187,
					"numinlets" : 2,
					"background" : 0,
					"color" : [ 1.0, 0.890196, 0.090196, 1.0 ],
					"numoutlets" : 1,
					"presentation_rect" : [ 0.0, 0.0, 0.0, 0.0 ],
					"ignoreclick" : 0,
					"outlettype" : [ "signal" ],
					"bgcolor" : [ 1.0, 1.0, 1.0, 1.0 ],
					"hidden" : 0,
					"fontname" : "Arial",
					"patching_rect" : [ 22.0, 276.0, 108.0, 20.0 ],
					"presentation" : 0,
					"id" : "obj-39",
					"textcolor" : [ 0.0, 0.0, 0.0, 1.0 ],
					"fontface" : 0
				}

			}
, 			{
				"box" : 				{
					"maxclass" : "newobj",
					"text" : "index~ soundbite 2",
					"fontsize" : 11.595187,
					"numinlets" : 2,
					"background" : 0,
					"color" : [ 1.0, 0.890196, 0.090196, 1.0 ],
					"numoutlets" : 1,
					"presentation_rect" : [ 0.0, 0.0, 0.0, 0.0 ],
					"ignoreclick" : 0,
					"outlettype" : [ "signal" ],
					"bgcolor" : [ 1.0, 1.0, 1.0, 1.0 ],
					"hidden" : 0,
					"fontname" : "Arial",
					"patching_rect" : [ 55.0, 305.0, 108.0, 20.0 ],
					"presentation" : 0,
					"id" : "obj-40",
					"textcolor" : [ 0.0, 0.0, 0.0, 1.0 ],
					"fontface" : 0
				}

			}
, 			{
				"box" : 				{
					"maxclass" : "newobj",
					"text" : "line~",
					"fontsize" : 11.595187,
					"numinlets" : 2,
					"background" : 0,
					"color" : [ 0.8, 0.84, 0.71, 1.0 ],
					"numoutlets" : 2,
					"presentation_rect" : [ 0.0, 0.0, 0.0, 0.0 ],
					"ignoreclick" : 0,
					"outlettype" : [ "signal", "bang" ],
					"bgcolor" : [ 1.0, 1.0, 1.0, 1.0 ],
					"hidden" : 0,
					"fontname" : "Arial",
					"patching_rect" : [ 376.0, 289.0, 35.0, 20.0 ],
					"presentation" : 0,
					"id" : "obj-41",
					"textcolor" : [ 0.0, 0.0, 0.0, 1.0 ],
					"fontface" : 0
				}

			}
, 			{
				"box" : 				{
					"maxclass" : "newobj",
					"text" : "play~ soundbite 2",
					"fontsize" : 11.595187,
					"numinlets" : 1,
					"background" : 0,
					"color" : [ 1.0, 0.890196, 0.090196, 1.0 ],
					"numoutlets" : 2,
					"presentation_rect" : [ 0.0, 0.0, 0.0, 0.0 ],
					"ignoreclick" : 0,
					"outlettype" : [ "signal", "signal" ],
					"bgcolor" : [ 1.0, 1.0, 1.0, 1.0 ],
					"hidden" : 0,
					"fontname" : "Arial",
					"patching_rect" : [ 376.0, 322.0, 102.0, 20.0 ],
					"presentation" : 0,
					"id" : "obj-42",
					"textcolor" : [ 0.0, 0.0, 0.0, 1.0 ],
					"fontface" : 0
				}

			}
, 			{
				"box" : 				{
					"maxclass" : "toggle",
					"numinlets" : 1,
					"background" : 0,
					"numoutlets" : 1,
					"bordercolor" : [ 0.5, 0.5, 0.5, 1.0 ],
					"presentation_rect" : [ 0.0, 0.0, 0.0, 0.0 ],
					"ignoreclick" : 0,
					"outlettype" : [ "int" ],
					"bgcolor" : [ 1.0, 1.0, 1.0, 1.0 ],
					"hidden" : 0,
					"patching_rect" : [ 25.0, 61.0, 20.0, 20.0 ],
					"presentation" : 0,
					"id" : "obj-43",
					"checkedcolor" : [ 0.0, 0.0, 0.0, 1.0 ]
				}

			}
, 			{
				"box" : 				{
					"maxclass" : "toggle",
					"numinlets" : 1,
					"background" : 0,
					"numoutlets" : 1,
					"bordercolor" : [ 0.5, 0.5, 0.5, 1.0 ],
					"presentation_rect" : [ 0.0, 0.0, 0.0, 0.0 ],
					"ignoreclick" : 0,
					"outlettype" : [ "int" ],
					"bgcolor" : [ 1.0, 1.0, 1.0, 1.0 ],
					"hidden" : 0,
					"patching_rect" : [ 214.0, 21.0, 20.0, 20.0 ],
					"presentation" : 0,
					"id" : "obj-44",
					"checkedcolor" : [ 0.0, 0.0, 0.0, 1.0 ]
				}

			}
, 			{
				"box" : 				{
					"maxclass" : "newobj",
					"text" : "record~ soundbite 2",
					"fontsize" : 11.595187,
					"numinlets" : 4,
					"background" : 0,
					"color" : [ 1.0, 0.890196, 0.090196, 1.0 ],
					"numoutlets" : 1,
					"presentation_rect" : [ 0.0, 0.0, 0.0, 0.0 ],
					"ignoreclick" : 0,
					"outlettype" : [ "signal" ],
					"bgcolor" : [ 1.0, 1.0, 1.0, 1.0 ],
					"hidden" : 0,
					"fontname" : "Arial",
					"patching_rect" : [ 87.0, 89.0, 113.0, 20.0 ],
					"presentation" : 0,
					"id" : "obj-45",
					"textcolor" : [ 0.0, 0.0, 0.0, 1.0 ],
					"fontface" : 0
				}

			}
, 			{
				"box" : 				{
					"maxclass" : "newobj",
					"text" : "buffer~ soundbite 2000 2",
					"fontsize" : 11.595187,
					"numinlets" : 1,
					"background" : 0,
					"color" : [ 0.8, 0.84, 0.71, 1.0 ],
					"numoutlets" : 2,
					"presentation_rect" : [ 0.0, 0.0, 0.0, 0.0 ],
					"ignoreclick" : 0,
					"outlettype" : [ "float", "bang" ],
					"bgcolor" : [ 1.0, 1.0, 1.0, 1.0 ],
					"hidden" : 0,
					"fontname" : "Arial",
					"patching_rect" : [ 406.0, 25.0, 139.0, 20.0 ],
					"presentation" : 0,
					"id" : "obj-46",
					"textcolor" : [ 0.0, 0.0, 0.0, 1.0 ],
					"fontface" : 0
				}

			}
, 			{
				"box" : 				{
					"maxclass" : "newobj",
					"text" : "adc~",
					"fontsize" : 11.595187,
					"numinlets" : 1,
					"background" : 0,
					"color" : [ 1.0, 0.890196, 0.090196, 1.0 ],
					"numoutlets" : 2,
					"presentation_rect" : [ 0.0, 0.0, 0.0, 0.0 ],
					"ignoreclick" : 0,
					"outlettype" : [ "signal", "signal" ],
					"bgcolor" : [ 1.0, 1.0, 1.0, 1.0 ],
					"hidden" : 0,
					"fontname" : "Arial",
					"patching_rect" : [ 214.0, 45.0, 142.0, 20.0 ],
					"presentation" : 0,
					"id" : "obj-47",
					"textcolor" : [ 0.0, 0.0, 0.0, 1.0 ],
					"fontface" : 0
				}

			}
, 			{
				"box" : 				{
					"maxclass" : "comment",
					"text" : "hold 2 seconds of stereo audio",
					"fontsize" : 11.595187,
					"numinlets" : 1,
					"background" : 0,
					"numoutlets" : 0,
					"presentation_rect" : [ 0.0, 0.0, 0.0, 0.0 ],
					"ignoreclick" : 1,
					"bgcolor" : [ 1.0, 1.0, 1.0, 0.0 ],
					"hidden" : 0,
					"fontname" : "Arial",
					"patching_rect" : [ 420.0, 3.0, 169.0, 20.0 ],
					"frgb" : [ 0.0, 0.0, 0.0, 1.0 ],
					"presentation" : 0,
					"id" : "obj-48",
					"underline" : 0,
					"textcolor" : [ 0.0, 0.0, 0.0, 1.0 ],
					"fontface" : 0
				}

			}
 ],
		"lines" : [ 			{
				"patchline" : 				{
					"source" : [ "obj-1", 0 ],
					"destination" : [ "obj-46", 0 ],
					"hidden" : 0,
					"color" : [ 0.0, 0.0, 0.0, 1.0 ],
					"midpoints" : [ 415.5, 71.0, 393.0, 71.0, 393.0, 20.0, 415.5, 20.0 ]
				}

			}
, 			{
				"patchline" : 				{
					"source" : [ "obj-41", 0 ],
					"destination" : [ "obj-42", 0 ],
					"hidden" : 0,
					"color" : [ 0.0, 0.0, 0.0, 1.0 ],
					"midpoints" : [  ]
				}

			}
, 			{
				"patchline" : 				{
					"source" : [ "obj-19", 0 ],
					"destination" : [ "obj-41", 0 ],
					"hidden" : 0,
					"color" : [ 0.0, 0.0, 0.0, 1.0 ],
					"midpoints" : [ 397.5, 124.0, 385.5, 124.0 ]
				}

			}
, 			{
				"patchline" : 				{
					"source" : [ "obj-18", 0 ],
					"destination" : [ "obj-41", 0 ],
					"hidden" : 0,
					"color" : [ 0.0, 0.0, 0.0, 1.0 ],
					"midpoints" : [ 397.5, 147.0, 385.5, 147.0 ]
				}

			}
, 			{
				"patchline" : 				{
					"source" : [ "obj-17", 0 ],
					"destination" : [ "obj-41", 0 ],
					"hidden" : 0,
					"color" : [ 0.0, 0.0, 0.0, 1.0 ],
					"midpoints" : [ 397.5, 170.0, 385.5, 170.0 ]
				}

			}
, 			{
				"patchline" : 				{
					"source" : [ "obj-16", 0 ],
					"destination" : [ "obj-41", 0 ],
					"hidden" : 0,
					"color" : [ 0.0, 0.0, 0.0, 1.0 ],
					"midpoints" : [ 397.5, 193.0, 385.5, 193.0 ]
				}

			}
, 			{
				"patchline" : 				{
					"source" : [ "obj-15", 0 ],
					"destination" : [ "obj-41", 0 ],
					"hidden" : 0,
					"color" : [ 0.0, 0.0, 0.0, 1.0 ],
					"midpoints" : [ 397.5, 216.0, 385.5, 216.0 ]
				}

			}
, 			{
				"patchline" : 				{
					"source" : [ "obj-14", 0 ],
					"destination" : [ "obj-41", 0 ],
					"hidden" : 0,
					"color" : [ 0.0, 0.0, 0.0, 1.0 ],
					"midpoints" : [ 397.5, 239.0, 385.5, 239.0 ]
				}

			}
, 			{
				"patchline" : 				{
					"source" : [ "obj-13", 0 ],
					"destination" : [ "obj-41", 0 ],
					"hidden" : 0,
					"color" : [ 0.0, 0.0, 0.0, 1.0 ],
					"midpoints" : [ 397.5, 262.0, 385.5, 262.0 ]
				}

			}
, 			{
				"patchline" : 				{
					"source" : [ "obj-12", 0 ],
					"destination" : [ "obj-41", 0 ],
					"hidden" : 0,
					"color" : [ 0.0, 0.0, 0.0, 1.0 ],
					"midpoints" : [ 397.5, 285.0, 385.5, 285.0 ]
				}

			}
, 			{
				"patchline" : 				{
					"source" : [ "obj-32", 0 ],
					"destination" : [ "obj-29", 1 ],
					"hidden" : 0,
					"color" : [ 0.0, 0.0, 0.0, 1.0 ],
					"midpoints" : [ 255.5, 352.0, 362.0, 352.0 ]
				}

			}
, 			{
				"patchline" : 				{
					"source" : [ "obj-42", 1 ],
					"destination" : [ "obj-34", 1 ],
					"hidden" : 0,
					"color" : [ 0.0, 0.0, 0.0, 1.0 ],
					"midpoints" : [ 468.5, 399.0, 240.5, 399.0 ]
				}

			}
, 			{
				"patchline" : 				{
					"source" : [ "obj-40", 0 ],
					"destination" : [ "obj-34", 1 ],
					"hidden" : 0,
					"color" : [ 0.0, 0.0, 0.0, 1.0 ],
					"midpoints" : [ 64.5, 399.0, 240.5, 399.0 ]
				}

			}
, 			{
				"patchline" : 				{
					"source" : [ "obj-29", 0 ],
					"destination" : [ "obj-34", 1 ],
					"hidden" : 0,
					"color" : [ 0.0, 0.0, 0.0, 1.0 ],
					"midpoints" : [ 348.5, 399.0, 240.5, 399.0 ]
				}

			}
, 			{
				"patchline" : 				{
					"source" : [ "obj-47", 1 ],
					"destination" : [ "obj-29", 0 ],
					"hidden" : 0,
					"color" : [ 0.0, 0.0, 0.0, 1.0 ],
					"midpoints" : [  ]
				}

			}
, 			{
				"patchline" : 				{
					"source" : [ "obj-31", 0 ],
					"destination" : [ "obj-32", 1 ],
					"hidden" : 0,
					"color" : [ 0.0, 0.0, 0.0, 1.0 ],
					"midpoints" : [  ]
				}

			}
, 			{
				"patchline" : 				{
					"source" : [ "obj-33", 0 ],
					"destination" : [ "obj-31", 0 ],
					"hidden" : 0,
					"color" : [ 0.0, 0.0, 0.0, 1.0 ],
					"midpoints" : [ 255.5, 278.0, 283.5, 278.0 ]
				}

			}
, 			{
				"patchline" : 				{
					"source" : [ "obj-32", 0 ],
					"destination" : [ "obj-30", 1 ],
					"hidden" : 0,
					"color" : [ 0.0, 0.0, 0.0, 1.0 ],
					"midpoints" : [ 255.5, 352.0, 237.0, 352.0 ]
				}

			}
, 			{
				"patchline" : 				{
					"source" : [ "obj-33", 0 ],
					"destination" : [ "obj-32", 0 ],
					"hidden" : 0,
					"color" : [ 0.0, 0.0, 0.0, 1.0 ],
					"midpoints" : [  ]
				}

			}
, 			{
				"patchline" : 				{
					"source" : [ "obj-42", 0 ],
					"destination" : [ "obj-34", 0 ],
					"hidden" : 0,
					"color" : [ 0.0, 0.0, 0.0, 1.0 ],
					"midpoints" : [ 385.5, 399.0, 223.5, 399.0 ]
				}

			}
, 			{
				"patchline" : 				{
					"source" : [ "obj-39", 0 ],
					"destination" : [ "obj-34", 0 ],
					"hidden" : 0,
					"color" : [ 0.0, 0.0, 0.0, 1.0 ],
					"midpoints" : [ 31.5, 399.0, 223.5, 399.0 ]
				}

			}
, 			{
				"patchline" : 				{
					"source" : [ "obj-30", 0 ],
					"destination" : [ "obj-34", 0 ],
					"hidden" : 0,
					"color" : [ 0.0, 0.0, 0.0, 1.0 ],
					"midpoints" : [  ]
				}

			}
, 			{
				"patchline" : 				{
					"source" : [ "obj-47", 0 ],
					"destination" : [ "obj-30", 0 ],
					"hidden" : 0,
					"color" : [ 0.0, 0.0, 0.0, 1.0 ],
					"midpoints" : [  ]
				}

			}
, 			{
				"patchline" : 				{
					"source" : [ "obj-44", 0 ],
					"destination" : [ "obj-47", 0 ],
					"hidden" : 0,
					"color" : [ 0.0, 0.0, 0.0, 1.0 ],
					"midpoints" : [  ]
				}

			}
, 			{
				"patchline" : 				{
					"source" : [ "obj-47", 1 ],
					"destination" : [ "obj-45", 1 ],
					"hidden" : 0,
					"color" : [ 0.0, 0.0, 0.0, 1.0 ],
					"midpoints" : [ 346.5, 84.0, 127.833336, 84.0 ]
				}

			}
, 			{
				"patchline" : 				{
					"source" : [ "obj-43", 0 ],
					"destination" : [ "obj-45", 0 ],
					"hidden" : 0,
					"color" : [ 0.0, 0.0, 0.0, 1.0 ],
					"midpoints" : [ 34.5, 85.0, 96.5, 85.0 ]
				}

			}
, 			{
				"patchline" : 				{
					"source" : [ "obj-47", 0 ],
					"destination" : [ "obj-45", 0 ],
					"hidden" : 0,
					"color" : [ 0.0, 0.0, 0.0, 1.0 ],
					"midpoints" : [ 223.5, 79.0, 96.5, 79.0 ]
				}

			}
, 			{
				"patchline" : 				{
					"source" : [ "obj-38", 0 ],
					"destination" : [ "obj-40", 0 ],
					"hidden" : 0,
					"color" : [ 0.0, 0.0, 0.0, 1.0 ],
					"midpoints" : [ 31.5, 271.0, 138.0, 271.0, 138.0, 299.0, 64.5, 299.0 ]
				}

			}
, 			{
				"patchline" : 				{
					"source" : [ "obj-36", 0 ],
					"destination" : [ "obj-37", 1 ],
					"hidden" : 0,
					"color" : [ 0.0, 0.0, 0.0, 1.0 ],
					"midpoints" : [  ]
				}

			}
, 			{
				"patchline" : 				{
					"source" : [ "obj-26", 0 ],
					"destination" : [ "obj-25", 0 ],
					"hidden" : 0,
					"color" : [ 0.0, 0.0, 0.0, 1.0 ],
					"midpoints" : [  ]
				}

			}
, 			{
				"patchline" : 				{
					"source" : [ "obj-27", 0 ],
					"destination" : [ "obj-26", 0 ],
					"hidden" : 0,
					"color" : [ 0.0, 0.0, 0.0, 1.0 ],
					"midpoints" : [  ]
				}

			}
, 			{
				"patchline" : 				{
					"source" : [ "obj-43", 0 ],
					"destination" : [ "obj-27", 0 ],
					"hidden" : 0,
					"color" : [ 0.0, 0.0, 0.0, 1.0 ],
					"midpoints" : [  ]
				}

			}
, 			{
				"patchline" : 				{
					"source" : [ "obj-25", 0 ],
					"destination" : [ "obj-43", 0 ],
					"hidden" : 0,
					"color" : [ 0.0, 0.0, 0.0, 1.0 ],
					"midpoints" : [ 34.5, 156.0, 12.0, 156.0, 12.0, 57.0, 34.5, 57.0 ]
				}

			}
, 			{
				"patchline" : 				{
					"source" : [ "obj-38", 0 ],
					"destination" : [ "obj-39", 0 ],
					"hidden" : 0,
					"color" : [ 0.0, 0.0, 0.0, 1.0 ],
					"midpoints" : [  ]
				}

			}
, 			{
				"patchline" : 				{
					"source" : [ "obj-37", 0 ],
					"destination" : [ "obj-38", 0 ],
					"hidden" : 0,
					"color" : [ 0.0, 0.0, 0.0, 1.0 ],
					"midpoints" : [  ]
				}

			}
, 			{
				"patchline" : 				{
					"source" : [ "obj-35", 0 ],
					"destination" : [ "obj-37", 0 ],
					"hidden" : 0,
					"color" : [ 0.0, 0.0, 0.0, 1.0 ],
					"midpoints" : [  ]
				}

			}
 ]
	}

}
