{
	"patcher" : 	{
		"fileversion" : 1,
		"rect" : [ 16.0, 46.0, 560.0, 423.0 ],
		"bgcolor" : [ 1.0, 1.0, 1.0, 1.0 ],
		"bglocked" : 0,
		"defrect" : [ 16.0, 46.0, 560.0, 423.0 ],
		"openrect" : [ 0.0, 0.0, 0.0, 0.0 ],
		"openinpresentation" : 0,
		"default_fontsize" : 10.0,
		"default_fontface" : 0,
		"default_fontname" : "Arial",
		"gridonopen" : 0,
		"gridsize" : [ 15.0, 15.0 ],
		"gridsnaponopen" : 0,
		"toolbarvisible" : 1,
		"boxanimatetime" : 200,
		"imprint" : 1,
		"metadata" : [  ],
		"boxes" : [ 			{
				"box" : 				{
					"maxclass" : "message",
					"text" : "45",
					"fontsize" : 11.595187,
					"numinlets" : 2,
					"background" : 0,
					"numoutlets" : 1,
					"presentation_rect" : [ 0.0, 0.0, 0.0, 0.0 ],
					"ignoreclick" : 0,
					"outlettype" : [ "" ],
					"bgcolor" : [ 0.867, 0.867, 0.867, 1.0 ],
					"hidden" : 0,
					"fontname" : "Arial",
					"patching_rect" : [ 415.0, 73.0, 32.5, 18.0 ],
					"bgcolor2" : [ 0.867, 0.867, 0.867, 1.0 ],
					"presentation" : 0,
					"id" : "obj-1",
					"textcolor" : [ 0.0, 0.0, 0.0, 1.0 ],
					"gradient" : 0,
					"fontface" : 0
				}

			}
, 			{
				"box" : 				{
					"maxclass" : "number~",
					"maximum" : "<none>",
					"fontsize" : 11.595187,
					"numinlets" : 2,
					"sigoutmode" : 0,
					"background" : 0,
					"numoutlets" : 2,
					"monitormode" : 1,
					"bordercolor" : [ 0.5, 0.5, 0.5, 1.0 ],
					"ft1" : 0.0,
					"presentation_rect" : [ 0.0, 0.0, 0.0, 0.0 ],
					"ignoreclick" : 0,
					"outlettype" : [ "signal", "float" ],
					"hbgcolor" : [ 0.0, 0.0, 0.0, 1.0 ],
					"bgcolor" : [ 0.978, 0.978, 0.978, 1.0 ],
					"hidden" : 0,
					"fontname" : "Arial",
					"patching_rect" : [ 156.0, 318.0, 65.0, 20.0 ],
					"mode" : 2,
					"htextcolor" : [ 0.87, 0.87, 0.87, 1.0 ],
					"presentation" : 0,
					"id" : "obj-2",
					"minimum" : "<none>",
					"textcolor" : [ 0.0, 0.0, 0.0, 1.0 ],
					"interval" : 125.0,
					"sig" : 0.0,
					"numdecimalplaces" : 0,
					"fontface" : 0
				}

			}
, 			{
				"box" : 				{
					"maxclass" : "comment",
					"text" : "Right Gain",
					"fontsize" : 11.595187,
					"numinlets" : 1,
					"background" : 0,
					"numoutlets" : 0,
					"presentation_rect" : [ 0.0, 0.0, 0.0, 0.0 ],
					"ignoreclick" : 1,
					"bgcolor" : [ 1.0, 1.0, 1.0, 0.0 ],
					"hidden" : 0,
					"fontname" : "Arial",
					"patching_rect" : [ 364.0, 318.0, 65.0, 20.0 ],
					"frgb" : [ 0.0, 0.0, 0.0, 1.0 ],
					"presentation" : 0,
					"id" : "obj-3",
					"underline" : 0,
					"textcolor" : [ 0.0, 0.0, 0.0, 1.0 ],
					"fontface" : 0
				}

			}
, 			{
				"box" : 				{
					"maxclass" : "comment",
					"text" : "Left Gain",
					"fontsize" : 11.595187,
					"numinlets" : 1,
					"background" : 0,
					"numoutlets" : 0,
					"presentation_rect" : [ 0.0, 0.0, 0.0, 0.0 ],
					"ignoreclick" : 1,
					"bgcolor" : [ 1.0, 1.0, 1.0, 0.0 ],
					"hidden" : 0,
					"fontname" : "Arial",
					"patching_rect" : [ 229.0, 318.0, 58.0, 20.0 ],
					"frgb" : [ 0.0, 0.0, 0.0, 1.0 ],
					"presentation" : 0,
					"id" : "obj-4",
					"underline" : 0,
					"textcolor" : [ 0.0, 0.0, 0.0, 1.0 ],
					"fontface" : 0
				}

			}
, 			{
				"box" : 				{
					"maxclass" : "number~",
					"maximum" : "<none>",
					"fontsize" : 11.595187,
					"numinlets" : 2,
					"sigoutmode" : 0,
					"background" : 0,
					"numoutlets" : 2,
					"monitormode" : 1,
					"bordercolor" : [ 0.5, 0.5, 0.5, 1.0 ],
					"ft1" : 0.0,
					"presentation_rect" : [ 0.0, 0.0, 0.0, 0.0 ],
					"ignoreclick" : 0,
					"outlettype" : [ "signal", "float" ],
					"hbgcolor" : [ 0.0, 0.0, 0.0, 1.0 ],
					"bgcolor" : [ 0.978, 0.978, 0.978, 1.0 ],
					"hidden" : 0,
					"fontname" : "Arial",
					"patching_rect" : [ 291.0, 318.0, 65.0, 20.0 ],
					"mode" : 2,
					"htextcolor" : [ 0.87, 0.87, 0.87, 1.0 ],
					"presentation" : 0,
					"id" : "obj-5",
					"minimum" : "<none>",
					"textcolor" : [ 0.0, 0.0, 0.0, 1.0 ],
					"interval" : 125.0,
					"sig" : 0.0,
					"numdecimalplaces" : 0,
					"fontface" : 0
				}

			}
, 			{
				"box" : 				{
					"maxclass" : "newobj",
					"text" : "*~",
					"fontsize" : 11.595187,
					"numinlets" : 2,
					"background" : 0,
					"color" : [ 0.8, 0.84, 0.71, 1.0 ],
					"numoutlets" : 1,
					"presentation_rect" : [ 0.0, 0.0, 0.0, 0.0 ],
					"ignoreclick" : 0,
					"outlettype" : [ "signal" ],
					"bgcolor" : [ 1.0, 1.0, 1.0, 1.0 ],
					"hidden" : 0,
					"fontname" : "Arial",
					"patching_rect" : [ 7.0, 316.0, 32.5, 20.0 ],
					"presentation" : 0,
					"id" : "obj-6",
					"textcolor" : [ 0.0, 0.0, 0.0, 1.0 ],
					"fontface" : 0
				}

			}
, 			{
				"box" : 				{
					"maxclass" : "newobj",
					"text" : "== 0",
					"fontsize" : 11.595187,
					"numinlets" : 2,
					"background" : 0,
					"color" : [ 0.8, 0.84, 0.71, 1.0 ],
					"numoutlets" : 1,
					"presentation_rect" : [ 0.0, 0.0, 0.0, 0.0 ],
					"ignoreclick" : 0,
					"outlettype" : [ "int" ],
					"bgcolor" : [ 1.0, 1.0, 1.0, 1.0 ],
					"hidden" : 0,
					"fontname" : "Arial",
					"patching_rect" : [ 110.0, 213.0, 34.0, 20.0 ],
					"presentation" : 0,
					"id" : "obj-7",
					"textcolor" : [ 0.0, 0.0, 0.0, 1.0 ],
					"fontface" : 0
				}

			}
, 			{
				"box" : 				{
					"maxclass" : "newobj",
					"text" : "sig~ 1",
					"fontsize" : 11.595187,
					"numinlets" : 1,
					"background" : 0,
					"color" : [ 0.8, 0.84, 0.71, 1.0 ],
					"numoutlets" : 1,
					"presentation_rect" : [ 0.0, 0.0, 0.0, 0.0 ],
					"ignoreclick" : 0,
					"outlettype" : [ "signal" ],
					"bgcolor" : [ 1.0, 1.0, 1.0, 1.0 ],
					"hidden" : 0,
					"fontname" : "Arial",
					"patching_rect" : [ 110.0, 248.0, 42.0, 20.0 ],
					"presentation" : 0,
					"id" : "obj-8",
					"textcolor" : [ 0.0, 0.0, 0.0, 1.0 ],
					"fontface" : 0
				}

			}
, 			{
				"box" : 				{
					"maxclass" : "comment",
					"text" : "degrees",
					"fontsize" : 11.595187,
					"numinlets" : 1,
					"background" : 0,
					"numoutlets" : 0,
					"presentation_rect" : [ 0.0, 0.0, 0.0, 0.0 ],
					"ignoreclick" : 1,
					"bgcolor" : [ 1.0, 1.0, 1.0, 0.0 ],
					"hidden" : 0,
					"fontname" : "Arial",
					"patching_rect" : [ 460.0, 177.0, 52.0, 20.0 ],
					"frgb" : [ 0.0, 0.0, 0.0, 1.0 ],
					"presentation" : 0,
					"id" : "obj-9",
					"underline" : 0,
					"textcolor" : [ 0.0, 0.0, 0.0, 1.0 ],
					"fontface" : 0
				}

			}
, 			{
				"box" : 				{
					"maxclass" : "newobj",
					"text" : "*~",
					"fontsize" : 11.595187,
					"numinlets" : 2,
					"background" : 0,
					"color" : [ 0.8, 0.84, 0.71, 1.0 ],
					"numoutlets" : 1,
					"presentation_rect" : [ 0.0, 0.0, 0.0, 0.0 ],
					"ignoreclick" : 0,
					"outlettype" : [ "signal" ],
					"bgcolor" : [ 1.0, 1.0, 1.0, 1.0 ],
					"hidden" : 0,
					"fontname" : "Arial",
					"patching_rect" : [ 96.0, 316.0, 32.5, 20.0 ],
					"presentation" : 0,
					"id" : "obj-10",
					"textcolor" : [ 0.0, 0.0, 0.0, 1.0 ],
					"fontface" : 0
				}

			}
, 			{
				"box" : 				{
					"maxclass" : "flonum",
					"triangle" : 1,
					"maximum" : 1.0,
					"fontsize" : 11.595187,
					"numinlets" : 1,
					"background" : 0,
					"mouseup" : 0,
					"numoutlets" : 2,
					"outputonclick" : 0,
					"bordercolor" : [ 0.5, 0.5, 0.5, 1.0 ],
					"presentation_rect" : [ 0.0, 0.0, 0.0, 0.0 ],
					"ignoreclick" : 0,
					"outlettype" : [ "float", "bang" ],
					"hbgcolor" : [ 0.0, 0.0, 0.0, 1.0 ],
					"bgcolor" : [ 0.866667, 0.866667, 0.866667, 1.0 ],
					"hidden" : 0,
					"fontname" : "Arial",
					"patching_rect" : [ 104.0, 135.0, 51.0, 20.0 ],
					"htextcolor" : [ 0.870588, 0.870588, 0.870588, 1.0 ],
					"presentation" : 0,
					"id" : "obj-11",
					"minimum" : 0.0,
					"textcolor" : [ 0.0, 0.0, 0.0, 1.0 ],
					"cantchange" : 0,
					"triscale" : 0.9,
					"numdecimalplaces" : 0,
					"fontface" : 0
				}

			}
, 			{
				"box" : 				{
					"maxclass" : "comment",
					"text" : "Amplitude",
					"fontsize" : 11.595187,
					"numinlets" : 1,
					"background" : 0,
					"numoutlets" : 0,
					"presentation_rect" : [ 0.0, 0.0, 0.0, 0.0 ],
					"ignoreclick" : 1,
					"bgcolor" : [ 1.0, 1.0, 1.0, 0.0 ],
					"hidden" : 0,
					"fontname" : "Arial",
					"patching_rect" : [ 104.0, 101.0, 62.0, 20.0 ],
					"frgb" : [ 0.0, 0.0, 0.0, 1.0 ],
					"presentation" : 0,
					"id" : "obj-12",
					"underline" : 0,
					"textcolor" : [ 0.0, 0.0, 0.0, 1.0 ],
					"fontface" : 0
				}

			}
, 			{
				"box" : 				{
					"maxclass" : "newobj",
					"text" : "*~",
					"fontsize" : 11.595187,
					"numinlets" : 2,
					"background" : 0,
					"color" : [ 0.8, 0.84, 0.71, 1.0 ],
					"numoutlets" : 1,
					"presentation_rect" : [ 0.0, 0.0, 0.0, 0.0 ],
					"ignoreclick" : 0,
					"outlettype" : [ "signal" ],
					"bgcolor" : [ 1.0, 1.0, 1.0, 1.0 ],
					"hidden" : 0,
					"fontname" : "Arial",
					"patching_rect" : [ 7.0, 159.0, 32.5, 20.0 ],
					"presentation" : 0,
					"id" : "obj-13",
					"textcolor" : [ 0.0, 0.0, 0.0, 1.0 ],
					"fontface" : 0
				}

			}
, 			{
				"box" : 				{
					"maxclass" : "comment",
					"text" : "Chirp On/Off",
					"fontsize" : 11.595187,
					"numinlets" : 1,
					"background" : 0,
					"numoutlets" : 0,
					"presentation_rect" : [ 0.0, 0.0, 0.0, 0.0 ],
					"ignoreclick" : 1,
					"bgcolor" : [ 1.0, 1.0, 1.0, 0.0 ],
					"hidden" : 0,
					"fontname" : "Arial",
					"patching_rect" : [ 22.0, 99.0, 76.0, 20.0 ],
					"frgb" : [ 0.0, 0.0, 0.0, 1.0 ],
					"presentation" : 0,
					"id" : "obj-14",
					"underline" : 0,
					"textcolor" : [ 0.0, 0.0, 0.0, 1.0 ],
					"fontface" : 0
				}

			}
, 			{
				"box" : 				{
					"maxclass" : "comment",
					"text" : "Audio On/Off",
					"fontsize" : 11.595187,
					"numinlets" : 1,
					"background" : 0,
					"numoutlets" : 0,
					"presentation_rect" : [ 0.0, 0.0, 0.0, 0.0 ],
					"ignoreclick" : 1,
					"bgcolor" : [ 1.0, 1.0, 1.0, 0.0 ],
					"hidden" : 0,
					"fontname" : "Arial",
					"patching_rect" : [ 7.0, 392.0, 78.0, 20.0 ],
					"frgb" : [ 0.0, 0.0, 0.0, 1.0 ],
					"presentation" : 0,
					"id" : "obj-15",
					"underline" : 0,
					"textcolor" : [ 0.0, 0.0, 0.0, 1.0 ],
					"fontface" : 0
				}

			}
, 			{
				"box" : 				{
					"maxclass" : "toggle",
					"numinlets" : 1,
					"background" : 0,
					"numoutlets" : 1,
					"bordercolor" : [ 0.5, 0.5, 0.5, 1.0 ],
					"presentation_rect" : [ 0.0, 0.0, 0.0, 0.0 ],
					"ignoreclick" : 0,
					"outlettype" : [ "int" ],
					"bgcolor" : [ 1.0, 1.0, 1.0, 1.0 ],
					"hidden" : 0,
					"patching_rect" : [ 7.0, 98.0, 20.0, 20.0 ],
					"presentation" : 0,
					"id" : "obj-16",
					"checkedcolor" : [ 0.0, 0.0, 0.0, 1.0 ]
				}

			}
, 			{
				"box" : 				{
					"maxclass" : "newobj",
					"text" : "p \"sound source\"",
					"fontsize" : 11.595187,
					"numinlets" : 1,
					"background" : 0,
					"color" : [ 0.8, 0.84, 0.71, 1.0 ],
					"numoutlets" : 1,
					"presentation_rect" : [ 0.0, 0.0, 0.0, 0.0 ],
					"ignoreclick" : 0,
					"outlettype" : [ "signal" ],
					"bgcolor" : [ 1.0, 1.0, 1.0, 1.0 ],
					"hidden" : 0,
					"fontname" : "Arial",
					"patching_rect" : [ 7.0, 134.0, 98.0, 20.0 ],
					"presentation" : 0,
					"id" : "obj-17",
					"textcolor" : [ 0.0, 0.0, 0.0, 1.0 ],
					"fontface" : 0,
					"patcher" : 					{
						"fileversion" : 1,
						"rect" : [ 92.0, 111.0, 212.0, 295.0 ],
						"bglocked" : 0,
						"defrect" : [ 92.0, 111.0, 212.0, 295.0 ],
						"openrect" : [ 0.0, 0.0, 0.0, 0.0 ],
						"openinpresentation" : 0,
						"default_fontsize" : 10.0,
						"default_fontface" : 0,
						"default_fontname" : "Arial",
						"gridonopen" : 0,
						"gridsize" : [ 15.0, 15.0 ],
						"gridsnaponopen" : 0,
						"toolbarvisible" : 1,
						"boxanimatetime" : 200,
						"imprint" : 0,
						"metadata" : [  ],
						"boxes" : [ 							{
								"box" : 								{
									"maxclass" : "newobj",
									"text" : "begin~",
									"fontsize" : 11.595187,
									"numinlets" : 0,
									"numoutlets" : 1,
									"outlettype" : [ "signal" ],
									"fontname" : "Arial",
									"patching_rect" : [ 77.0, 19.0, 46.0, 20.0 ],
									"id" : "obj-1"
								}

							}
, 							{
								"box" : 								{
									"maxclass" : "newobj",
									"text" : "sig~ 2.",
									"fontsize" : 11.595187,
									"numinlets" : 1,
									"numoutlets" : 1,
									"outlettype" : [ "signal" ],
									"fontname" : "Arial",
									"patching_rect" : [ 77.0, 48.0, 45.0, 20.0 ],
									"id" : "obj-2"
								}

							}
, 							{
								"box" : 								{
									"maxclass" : "comment",
									"text" : "(1/0) On/Off",
									"fontsize" : 11.595187,
									"numinlets" : 1,
									"numoutlets" : 0,
									"fontname" : "Arial",
									"patching_rect" : [ 3.0, 161.0, 72.0, 20.0 ],
									"id" : "obj-3"
								}

							}
, 							{
								"box" : 								{
									"maxclass" : "inlet",
									"numinlets" : 0,
									"numoutlets" : 1,
									"outlettype" : [ "int" ],
									"patching_rect" : [ 36.0, 186.0, 25.0, 25.0 ],
									"id" : "obj-4",
									"comment" : "(1/0) on/off"
								}

							}
, 							{
								"box" : 								{
									"maxclass" : "newobj",
									"text" : "cycle~",
									"fontsize" : 11.595187,
									"numinlets" : 2,
									"numoutlets" : 1,
									"outlettype" : [ "signal" ],
									"fontname" : "Arial",
									"patching_rect" : [ 77.0, 184.0, 44.0, 20.0 ],
									"id" : "obj-5"
								}

							}
, 							{
								"box" : 								{
									"maxclass" : "newobj",
									"text" : "phasor~",
									"fontsize" : 11.595187,
									"numinlets" : 2,
									"numoutlets" : 1,
									"outlettype" : [ "signal" ],
									"fontname" : "Arial",
									"patching_rect" : [ 77.0, 73.0, 53.0, 20.0 ],
									"id" : "obj-6"
								}

							}
, 							{
								"box" : 								{
									"maxclass" : "newobj",
									"text" : "sig~ 200.",
									"fontsize" : 11.595187,
									"numinlets" : 1,
									"numoutlets" : 1,
									"outlettype" : [ "signal" ],
									"fontname" : "Arial",
									"patching_rect" : [ 125.0, 123.0, 58.0, 20.0 ],
									"id" : "obj-7"
								}

							}
, 							{
								"box" : 								{
									"maxclass" : "newobj",
									"text" : "+~ 10.",
									"fontsize" : 11.595187,
									"numinlets" : 2,
									"numoutlets" : 1,
									"outlettype" : [ "signal" ],
									"fontname" : "Arial",
									"patching_rect" : [ 77.0, 123.0, 43.0, 20.0 ],
									"id" : "obj-8"
								}

							}
, 							{
								"box" : 								{
									"maxclass" : "newobj",
									"text" : "*~",
									"fontsize" : 11.595187,
									"numinlets" : 2,
									"numoutlets" : 1,
									"outlettype" : [ "signal" ],
									"fontname" : "Arial",
									"patching_rect" : [ 77.0, 148.0, 32.5, 20.0 ],
									"id" : "obj-9"
								}

							}
, 							{
								"box" : 								{
									"maxclass" : "newobj",
									"text" : "*~ -9.",
									"fontsize" : 11.595187,
									"numinlets" : 2,
									"numoutlets" : 1,
									"outlettype" : [ "signal" ],
									"fontname" : "Arial",
									"patching_rect" : [ 77.0, 98.0, 39.0, 20.0 ],
									"id" : "obj-10"
								}

							}
, 							{
								"box" : 								{
									"maxclass" : "outlet",
									"numinlets" : 1,
									"numoutlets" : 0,
									"patching_rect" : [ 36.0, 244.0, 25.0, 25.0 ],
									"id" : "obj-11",
									"comment" : "(signal) chirp"
								}

							}
, 							{
								"box" : 								{
									"maxclass" : "comment",
									"text" : "annoying chirp",
									"fontsize" : 11.595187,
									"numinlets" : 1,
									"numoutlets" : 0,
									"fontname" : "Arial",
									"patching_rect" : [ 63.0, 244.0, 86.0, 20.0 ],
									"id" : "obj-12"
								}

							}
, 							{
								"box" : 								{
									"maxclass" : "newobj",
									"text" : "gate~",
									"fontsize" : 11.595187,
									"numinlets" : 2,
									"numoutlets" : 1,
									"outlettype" : [ "signal" ],
									"fontname" : "Arial",
									"patching_rect" : [ 36.0, 215.0, 40.0, 20.0 ],
									"id" : "obj-13"
								}

							}
 ],
						"lines" : [ 							{
								"patchline" : 								{
									"source" : [ "obj-7", 0 ],
									"destination" : [ "obj-9", 1 ],
									"hidden" : 0,
									"midpoints" : [  ]
								}

							}
, 							{
								"patchline" : 								{
									"source" : [ "obj-1", 0 ],
									"destination" : [ "obj-7", 0 ],
									"hidden" : 0,
									"midpoints" : [ 86.5, 43.0, 134.5, 43.0 ]
								}

							}
, 							{
								"patchline" : 								{
									"source" : [ "obj-5", 0 ],
									"destination" : [ "obj-13", 1 ],
									"hidden" : 0,
									"midpoints" : [  ]
								}

							}
, 							{
								"patchline" : 								{
									"source" : [ "obj-9", 0 ],
									"destination" : [ "obj-5", 0 ],
									"hidden" : 0,
									"midpoints" : [  ]
								}

							}
, 							{
								"patchline" : 								{
									"source" : [ "obj-8", 0 ],
									"destination" : [ "obj-9", 0 ],
									"hidden" : 0,
									"midpoints" : [  ]
								}

							}
, 							{
								"patchline" : 								{
									"source" : [ "obj-10", 0 ],
									"destination" : [ "obj-8", 0 ],
									"hidden" : 0,
									"midpoints" : [  ]
								}

							}
, 							{
								"patchline" : 								{
									"source" : [ "obj-6", 0 ],
									"destination" : [ "obj-10", 0 ],
									"hidden" : 0,
									"midpoints" : [  ]
								}

							}
, 							{
								"patchline" : 								{
									"source" : [ "obj-2", 0 ],
									"destination" : [ "obj-6", 0 ],
									"hidden" : 0,
									"midpoints" : [  ]
								}

							}
, 							{
								"patchline" : 								{
									"source" : [ "obj-1", 0 ],
									"destination" : [ "obj-2", 0 ],
									"hidden" : 0,
									"midpoints" : [  ]
								}

							}
, 							{
								"patchline" : 								{
									"source" : [ "obj-13", 0 ],
									"destination" : [ "obj-11", 0 ],
									"hidden" : 0,
									"midpoints" : [  ]
								}

							}
, 							{
								"patchline" : 								{
									"source" : [ "obj-4", 0 ],
									"destination" : [ "obj-13", 0 ],
									"hidden" : 0,
									"midpoints" : [  ]
								}

							}
 ]
					}
,
					"saved_object_attributes" : 					{
						"fontsize" : 10.0,
						"globalpatchername" : "",
						"default_fontface" : 0,
						"default_fontname" : "Arial",
						"fontname" : "Arial",
						"default_fontsize" : 10.0,
						"fontface" : 0
					}

				}

			}
, 			{
				"box" : 				{
					"maxclass" : "umenu",
					"depth" : 0,
					"showdotfiles" : 0,
					"fontsize" : 11.595187,
					"arrowbgcolor" : [ 0.86, 0.86, 0.86, 1.0 ],
					"align" : 0,
					"numinlets" : 1,
					"framecolor" : [ 0.5, 0.5, 0.5, 1.0 ],
					"autopopulate" : 0,
					"background" : 0,
					"arrowframe" : 1,
					"arrow" : 1,
					"numoutlets" : 3,
					"discolor" : [ 0.43, 0.43, 0.43, 1.0 ],
					"presentation_rect" : [ 0.0, 0.0, 0.0, 0.0 ],
					"items" : [ "Panning", "Off", ",", "Simple", "Linear", "Crossfade", ",", "Equal", "Distance", "Crossfade", ",", "Speaker-to-Speaker", "Crossfade" ],
					"togcolor" : [ 0.55, 0.55, 0.55, 1.0 ],
					"ignoreclick" : 0,
					"outlettype" : [ "int", "", "" ],
					"arrowlink" : 1,
					"bgcolor" : [ 1.0, 1.0, 1.0, 1.0 ],
					"prefix_mode" : 0,
					"prefix" : "",
					"labelclick" : 0,
					"hltcolor" : [ 0.92, 0.92, 0.92, 1.0 ],
					"hidden" : 0,
					"fontname" : "Arial",
					"types" : [  ],
					"textcolor2" : [ 0.15, 0.15, 0.15, 1.0 ],
					"patching_rect" : [ 177.0, 10.0, 188.0, 20.0 ],
					"bgcolor2" : [ 1.0, 1.0, 1.0, 1.0 ],
					"presentation" : 0,
					"id" : "obj-18",
					"rounded" : 8,
					"underline" : 0,
					"textcolor" : [ 0.15, 0.15, 0.15, 1.0 ],
					"arrowcolor" : [ 0.22, 0.22, 0.22, 1.0 ],
					"menumode" : 0,
					"fontface" : 0,
					"pattrmode" : 0
				}

			}
, 			{
				"box" : 				{
					"maxclass" : "newobj",
					"text" : "gate 3",
					"fontsize" : 11.595187,
					"numinlets" : 2,
					"background" : 0,
					"color" : [ 0.8, 0.84, 0.71, 1.0 ],
					"numoutlets" : 3,
					"presentation_rect" : [ 0.0, 0.0, 0.0, 0.0 ],
					"ignoreclick" : 0,
					"outlettype" : [ "", "", "" ],
					"bgcolor" : [ 1.0, 1.0, 1.0, 1.0 ],
					"hidden" : 0,
					"fontname" : "Arial",
					"patching_rect" : [ 177.0, 101.0, 93.0, 20.0 ],
					"presentation" : 0,
					"id" : "obj-19",
					"textcolor" : [ 0.0, 0.0, 0.0, 1.0 ],
					"fontface" : 0
				}

			}
, 			{
				"box" : 				{
					"maxclass" : "newobj",
					"text" : "selector~ 3",
					"fontsize" : 11.595187,
					"numinlets" : 4,
					"background" : 0,
					"color" : [ 0.8, 0.84, 0.71, 1.0 ],
					"numoutlets" : 1,
					"presentation_rect" : [ 0.0, 0.0, 0.0, 0.0 ],
					"ignoreclick" : 0,
					"outlettype" : [ "signal" ],
					"bgcolor" : [ 1.0, 1.0, 1.0, 1.0 ],
					"hidden" : 0,
					"fontname" : "Arial",
					"patching_rect" : [ 291.0, 248.0, 68.0, 20.0 ],
					"presentation" : 0,
					"id" : "obj-20",
					"textcolor" : [ 0.0, 0.0, 0.0, 1.0 ],
					"fontface" : 0
				}

			}
, 			{
				"box" : 				{
					"maxclass" : "newobj",
					"text" : "selector~ 3",
					"fontsize" : 11.595187,
					"numinlets" : 4,
					"background" : 0,
					"color" : [ 0.8, 0.84, 0.71, 1.0 ],
					"numoutlets" : 1,
					"presentation_rect" : [ 0.0, 0.0, 0.0, 0.0 ],
					"ignoreclick" : 0,
					"outlettype" : [ "signal" ],
					"bgcolor" : [ 1.0, 1.0, 1.0, 1.0 ],
					"hidden" : 0,
					"fontname" : "Arial",
					"patching_rect" : [ 156.0, 248.0, 83.0, 20.0 ],
					"presentation" : 0,
					"id" : "obj-21",
					"textcolor" : [ 0.0, 0.0, 0.0, 1.0 ],
					"fontface" : 0
				}

			}
, 			{
				"box" : 				{
					"maxclass" : "newobj",
					"text" : "ctlin a 10",
					"fontsize" : 11.595187,
					"numinlets" : 1,
					"background" : 0,
					"color" : [ 0.8, 0.84, 0.71, 1.0 ],
					"numoutlets" : 2,
					"presentation_rect" : [ 0.0, 0.0, 0.0, 0.0 ],
					"ignoreclick" : 0,
					"outlettype" : [ "int", "int" ],
					"bgcolor" : [ 1.0, 1.0, 1.0, 1.0 ],
					"hidden" : 0,
					"fontname" : "Arial",
					"patching_rect" : [ 251.0, 43.0, 57.0, 20.0 ],
					"presentation" : 0,
					"id" : "obj-22",
					"textcolor" : [ 0.0, 0.0, 0.0, 1.0 ],
					"fontface" : 0
				}

			}
, 			{
				"box" : 				{
					"maxclass" : "comment",
					"text" : "Speaker Angle",
					"fontsize" : 11.595187,
					"numinlets" : 1,
					"background" : 0,
					"numoutlets" : 0,
					"presentation_rect" : [ 0.0, 0.0, 0.0, 0.0 ],
					"ignoreclick" : 1,
					"bgcolor" : [ 1.0, 1.0, 1.0, 0.0 ],
					"hidden" : 0,
					"fontname" : "Arial",
					"patching_rect" : [ 429.0, 153.0, 87.0, 20.0 ],
					"frgb" : [ 0.0, 0.0, 0.0, 1.0 ],
					"presentation" : 0,
					"id" : "obj-23",
					"underline" : 0,
					"textcolor" : [ 0.0, 0.0, 0.0, 1.0 ],
					"fontface" : 0
				}

			}
, 			{
				"box" : 				{
					"maxclass" : "number",
					"triangle" : 1,
					"maximum" : 75,
					"fontsize" : 11.595187,
					"numinlets" : 1,
					"background" : 0,
					"mouseup" : 0,
					"numoutlets" : 2,
					"outputonclick" : 0,
					"bordercolor" : [ 0.5, 0.5, 0.5, 1.0 ],
					"format" : 0,
					"presentation_rect" : [ 0.0, 0.0, 0.0, 0.0 ],
					"ignoreclick" : 0,
					"outlettype" : [ "int", "bang" ],
					"hbgcolor" : [ 0.0, 0.0, 0.0, 1.0 ],
					"bgcolor" : [ 0.866667, 0.866667, 0.866667, 1.0 ],
					"hidden" : 0,
					"fontname" : "Arial",
					"patching_rect" : [ 415.0, 177.0, 44.0, 20.0 ],
					"htextcolor" : [ 0.870588, 0.870588, 0.870588, 1.0 ],
					"presentation" : 0,
					"id" : "obj-24",
					"minimum" : 15,
					"textcolor" : [ 0.0, 0.0, 0.0, 1.0 ],
					"cantchange" : 0,
					"triscale" : 0.9,
					"fontface" : 0
				}

			}
, 			{
				"box" : 				{
					"maxclass" : "newobj",
					"text" : "p \"speaker-to-speaker xfade\"",
					"fontsize" : 11.595187,
					"numinlets" : 2,
					"background" : 0,
					"color" : [ 0.8, 0.84, 0.71, 1.0 ],
					"numoutlets" : 2,
					"presentation_rect" : [ 0.0, 0.0, 0.0, 0.0 ],
					"ignoreclick" : 0,
					"outlettype" : [ "signal", "signal" ],
					"bgcolor" : [ 1.0, 1.0, 1.0, 1.0 ],
					"hidden" : 0,
					"fontname" : "Arial",
					"patching_rect" : [ 207.0, 193.0, 160.0, 20.0 ],
					"presentation" : 0,
					"id" : "obj-25",
					"textcolor" : [ 0.0, 0.0, 0.0, 1.0 ],
					"fontface" : 0,
					"patcher" : 					{
						"fileversion" : 1,
						"rect" : [ 12.0, 41.0, 515.0, 452.0 ],
						"bglocked" : 0,
						"defrect" : [ 12.0, 41.0, 515.0, 452.0 ],
						"openrect" : [ 0.0, 0.0, 0.0, 0.0 ],
						"openinpresentation" : 0,
						"default_fontsize" : 10.0,
						"default_fontface" : 0,
						"default_fontname" : "Arial",
						"gridonopen" : 0,
						"gridsize" : [ 15.0, 15.0 ],
						"gridsnaponopen" : 0,
						"toolbarvisible" : 1,
						"boxanimatetime" : 200,
						"imprint" : 0,
						"metadata" : [  ],
						"boxes" : [ 							{
								"box" : 								{
									"maxclass" : "comment",
									"text" : "Crossfade simulating the source moving in a straight line from speaker to speaker (which means it would be closer to the listener when it is in the center than when it is at one extreme or the other).",
									"linecount" : 4,
									"fontsize" : 11.595187,
									"numinlets" : 1,
									"numoutlets" : 0,
									"fontname" : "Arial",
									"patching_rect" : [ 163.0, 346.0, 341.0, 60.0 ],
									"id" : "obj-1"
								}

							}
, 							{
								"box" : 								{
									"maxclass" : "comment",
									"text" : "R Gain",
									"fontsize" : 11.595187,
									"numinlets" : 1,
									"numoutlets" : 0,
									"fontname" : "Arial",
									"patching_rect" : [ 58.0, 408.0, 47.0, 20.0 ],
									"id" : "obj-2"
								}

							}
, 							{
								"box" : 								{
									"maxclass" : "message",
									"text" : "$1 20",
									"fontsize" : 11.595187,
									"numinlets" : 2,
									"numoutlets" : 1,
									"outlettype" : [ "" ],
									"fontname" : "Arial",
									"patching_rect" : [ 65.0, 327.0, 40.0, 18.0 ],
									"id" : "obj-3"
								}

							}
, 							{
								"box" : 								{
									"maxclass" : "newobj",
									"text" : "line~ 1.",
									"fontsize" : 11.595187,
									"numinlets" : 2,
									"numoutlets" : 2,
									"outlettype" : [ "signal", "bang" ],
									"fontname" : "Arial",
									"patching_rect" : [ 65.0, 352.0, 48.0, 20.0 ],
									"id" : "obj-4"
								}

							}
, 							{
								"box" : 								{
									"maxclass" : "outlet",
									"numinlets" : 1,
									"numoutlets" : 0,
									"patching_rect" : [ 65.0, 380.0, 25.0, 25.0 ],
									"id" : "obj-5",
									"comment" : "(signal) right channel gain"
								}

							}
, 							{
								"box" : 								{
									"maxclass" : "outlet",
									"numinlets" : 1,
									"numoutlets" : 0,
									"patching_rect" : [ 7.0, 380.0, 25.0, 25.0 ],
									"id" : "obj-6",
									"comment" : "(signal) left channel gain"
								}

							}
, 							{
								"box" : 								{
									"maxclass" : "newobj",
									"text" : "line~ 1.",
									"fontsize" : 11.595187,
									"numinlets" : 2,
									"numoutlets" : 2,
									"outlettype" : [ "signal", "bang" ],
									"fontname" : "Arial",
									"patching_rect" : [ 7.0, 352.0, 48.0, 20.0 ],
									"id" : "obj-7"
								}

							}
, 							{
								"box" : 								{
									"maxclass" : "message",
									"text" : "$1 20",
									"fontsize" : 11.595187,
									"numinlets" : 2,
									"numoutlets" : 1,
									"outlettype" : [ "" ],
									"fontname" : "Arial",
									"patching_rect" : [ 7.0, 327.0, 40.0, 18.0 ],
									"id" : "obj-8"
								}

							}
, 							{
								"box" : 								{
									"maxclass" : "comment",
									"text" : "Speaker Angle (in degrees)",
									"fontsize" : 11.595187,
									"numinlets" : 1,
									"numoutlets" : 0,
									"fontname" : "Arial",
									"patching_rect" : [ 221.0, -57.0, 152.0, 20.0 ],
									"id" : "obj-9"
								}

							}
, 							{
								"box" : 								{
									"maxclass" : "inlet",
									"numinlets" : 0,
									"numoutlets" : 1,
									"outlettype" : [ "int" ],
									"patching_rect" : [ 192.0, -57.0, 25.0, 25.0 ],
									"id" : "obj-10",
									"comment" : "(int) speaker angle"
								}

							}
, 							{
								"box" : 								{
									"maxclass" : "flonum",
									"fontsize" : 11.595187,
									"numinlets" : 1,
									"numoutlets" : 2,
									"outlettype" : [ "float", "bang" ],
									"bgcolor" : [ 0.866667, 0.866667, 0.866667, 1.0 ],
									"fontname" : "Arial",
									"patching_rect" : [ 192.0, 2.0, 60.0, 20.0 ],
									"htextcolor" : [ 0.870588, 0.870588, 0.870588, 1.0 ],
									"id" : "obj-11",
									"cantchange" : 1,
									"triscale" : 0.9
								}

							}
, 							{
								"box" : 								{
									"maxclass" : "inlet",
									"numinlets" : 0,
									"numoutlets" : 1,
									"outlettype" : [ "" ],
									"patching_rect" : [ 65.0, -29.0, 25.0, 25.0 ],
									"id" : "obj-12",
									"comment" : "(int) MIDI panning"
								}

							}
, 							{
								"box" : 								{
									"maxclass" : "comment",
									"text" : "Speaker Angle",
									"fontsize" : 11.595187,
									"numinlets" : 1,
									"numoutlets" : 0,
									"fontname" : "Arial",
									"patching_rect" : [ 254.0, 2.0, 87.0, 20.0 ],
									"id" : "obj-13"
								}

							}
, 							{
								"box" : 								{
									"maxclass" : "newobj",
									"text" : "/ 360.",
									"fontsize" : 11.595187,
									"numinlets" : 2,
									"numoutlets" : 1,
									"outlettype" : [ "float" ],
									"fontname" : "Arial",
									"patching_rect" : [ 192.0, -29.0, 40.0, 20.0 ],
									"id" : "obj-14"
								}

							}
, 							{
								"box" : 								{
									"maxclass" : "newobj",
									"text" : "expr 1/cos(6.2832*$f1)",
									"fontsize" : 11.595187,
									"numinlets" : 1,
									"numoutlets" : 1,
									"outlettype" : [ "" ],
									"fontname" : "Arial",
									"patching_rect" : [ 192.0, 32.0, 128.0, 20.0 ],
									"id" : "obj-15"
								}

							}
, 							{
								"box" : 								{
									"maxclass" : "flonum",
									"fontsize" : 11.595187,
									"numinlets" : 1,
									"numoutlets" : 2,
									"outlettype" : [ "float", "bang" ],
									"bgcolor" : [ 0.866667, 0.866667, 0.866667, 1.0 ],
									"fontname" : "Arial",
									"patching_rect" : [ 192.0, 60.0, 60.0, 20.0 ],
									"htextcolor" : [ 0.870588, 0.870588, 0.870588, 1.0 ],
									"id" : "obj-16",
									"cantchange" : 1,
									"triscale" : 0.9
								}

							}
, 							{
								"box" : 								{
									"maxclass" : "comment",
									"text" : "Speaker Distance",
									"fontsize" : 11.595187,
									"numinlets" : 1,
									"numoutlets" : 0,
									"fontname" : "Arial",
									"patching_rect" : [ 254.0, 60.0, 102.0, 20.0 ],
									"id" : "obj-17"
								}

							}
, 							{
								"box" : 								{
									"maxclass" : "newobj",
									"text" : "- 64",
									"fontsize" : 11.595187,
									"numinlets" : 2,
									"numoutlets" : 1,
									"outlettype" : [ "int" ],
									"fontname" : "Arial",
									"patching_rect" : [ 65.0, -1.0, 32.5, 20.0 ],
									"id" : "obj-18"
								}

							}
, 							{
								"box" : 								{
									"maxclass" : "newobj",
									"text" : "split -64 0",
									"fontsize" : 11.595187,
									"numinlets" : 3,
									"numoutlets" : 2,
									"outlettype" : [ "int", "int" ],
									"fontname" : "Arial",
									"patching_rect" : [ 65.0, 28.0, 61.0, 20.0 ],
									"id" : "obj-19"
								}

							}
, 							{
								"box" : 								{
									"maxclass" : "newobj",
									"text" : "expr sqrt($f1*$f1+1)",
									"fontsize" : 11.595187,
									"numinlets" : 1,
									"numoutlets" : 1,
									"outlettype" : [ "" ],
									"fontname" : "Arial",
									"patching_rect" : [ 65.0, 171.0, 113.0, 20.0 ],
									"id" : "obj-20"
								}

							}
, 							{
								"box" : 								{
									"maxclass" : "newobj",
									"text" : "/ 64.",
									"fontsize" : 11.595187,
									"numinlets" : 2,
									"numoutlets" : 1,
									"outlettype" : [ "float" ],
									"fontname" : "Arial",
									"patching_rect" : [ 65.0, 56.0, 33.0, 20.0 ],
									"id" : "obj-21"
								}

							}
, 							{
								"box" : 								{
									"maxclass" : "newobj",
									"text" : "/ 63.",
									"fontsize" : 11.595187,
									"numinlets" : 2,
									"numoutlets" : 1,
									"outlettype" : [ "float" ],
									"fontname" : "Arial",
									"patching_rect" : [ 128.0, 56.0, 33.0, 20.0 ],
									"id" : "obj-22"
								}

							}
, 							{
								"box" : 								{
									"maxclass" : "comment",
									"text" : "Source Distance",
									"fontsize" : 11.595187,
									"numinlets" : 1,
									"numoutlets" : 0,
									"fontname" : "Arial",
									"patching_rect" : [ 127.0, 196.0, 96.0, 20.0 ],
									"id" : "obj-23"
								}

							}
, 							{
								"box" : 								{
									"maxclass" : "flonum",
									"fontsize" : 11.595187,
									"numinlets" : 1,
									"numoutlets" : 2,
									"outlettype" : [ "float", "bang" ],
									"bgcolor" : [ 0.866667, 0.866667, 0.866667, 1.0 ],
									"fontname" : "Arial",
									"patching_rect" : [ 65.0, 196.0, 60.0, 20.0 ],
									"htextcolor" : [ 0.870588, 0.870588, 0.870588, 1.0 ],
									"id" : "obj-24",
									"cantchange" : 1,
									"triscale" : 0.9
								}

							}
, 							{
								"box" : 								{
									"maxclass" : "newobj",
									"text" : "expr tan(6.2832*$f1)",
									"fontsize" : 11.595187,
									"numinlets" : 1,
									"numoutlets" : 1,
									"outlettype" : [ "" ],
									"fontname" : "Arial",
									"patching_rect" : [ 172.0, 86.0, 116.0, 20.0 ],
									"id" : "obj-25"
								}

							}
, 							{
								"box" : 								{
									"maxclass" : "flonum",
									"fontsize" : 11.595187,
									"numinlets" : 1,
									"numoutlets" : 2,
									"outlettype" : [ "float", "bang" ],
									"bgcolor" : [ 0.866667, 0.866667, 0.866667, 1.0 ],
									"fontname" : "Arial",
									"patching_rect" : [ 172.0, 111.0, 59.0, 20.0 ],
									"htextcolor" : [ 0.870588, 0.870588, 0.870588, 1.0 ],
									"id" : "obj-26",
									"cantchange" : 1,
									"triscale" : 0.9
								}

							}
, 							{
								"box" : 								{
									"maxclass" : "comment",
									"text" : "Speaker Offset L-R",
									"fontsize" : 11.595187,
									"numinlets" : 1,
									"numoutlets" : 0,
									"fontname" : "Arial",
									"patching_rect" : [ 233.0, 111.0, 110.0, 20.0 ],
									"id" : "obj-27"
								}

							}
, 							{
								"box" : 								{
									"maxclass" : "newobj",
									"text" : "t b f",
									"fontsize" : 11.595187,
									"numinlets" : 1,
									"numoutlets" : 2,
									"outlettype" : [ "bang", "float" ],
									"fontname" : "Arial",
									"patching_rect" : [ 74.0, 89.0, 32.5, 20.0 ],
									"id" : "obj-28"
								}

							}
, 							{
								"box" : 								{
									"maxclass" : "newobj",
									"text" : "* 1.",
									"fontsize" : 11.595187,
									"numinlets" : 2,
									"numoutlets" : 1,
									"outlettype" : [ "float" ],
									"fontname" : "Arial",
									"patching_rect" : [ 65.0, 118.0, 32.5, 20.0 ],
									"id" : "obj-29"
								}

							}
, 							{
								"box" : 								{
									"maxclass" : "comment",
									"text" : "MIDI Panning",
									"fontsize" : 11.595187,
									"numinlets" : 1,
									"numoutlets" : 0,
									"fontname" : "Arial",
									"patching_rect" : [ 94.0, -29.0, 81.0, 20.0 ],
									"id" : "obj-30"
								}

							}
, 							{
								"box" : 								{
									"maxclass" : "comment",
									"text" : "Source Offset L-R",
									"fontsize" : 11.595187,
									"numinlets" : 1,
									"numoutlets" : 0,
									"fontname" : "Arial",
									"patching_rect" : [ 126.0, 143.0, 103.0, 20.0 ],
									"id" : "obj-31"
								}

							}
, 							{
								"box" : 								{
									"maxclass" : "flonum",
									"fontsize" : 11.595187,
									"numinlets" : 1,
									"numoutlets" : 2,
									"outlettype" : [ "float", "bang" ],
									"bgcolor" : [ 0.866667, 0.866667, 0.866667, 1.0 ],
									"fontname" : "Arial",
									"patching_rect" : [ 65.0, 143.0, 59.0, 20.0 ],
									"htextcolor" : [ 0.870588, 0.870588, 0.870588, 1.0 ],
									"id" : "obj-32",
									"cantchange" : 1,
									"triscale" : 0.9
								}

							}
, 							{
								"box" : 								{
									"maxclass" : "comment",
									"text" : "Source Angle",
									"fontsize" : 11.595187,
									"numinlets" : 1,
									"numoutlets" : 0,
									"fontname" : "Arial",
									"patching_rect" : [ 373.0, 196.0, 80.0, 20.0 ],
									"id" : "obj-33"
								}

							}
, 							{
								"box" : 								{
									"maxclass" : "flonum",
									"fontsize" : 11.595187,
									"numinlets" : 1,
									"numoutlets" : 2,
									"outlettype" : [ "float", "bang" ],
									"bgcolor" : [ 0.866667, 0.866667, 0.866667, 1.0 ],
									"fontname" : "Arial",
									"patching_rect" : [ 311.0, 196.0, 60.0, 20.0 ],
									"htextcolor" : [ 0.870588, 0.870588, 0.870588, 1.0 ],
									"id" : "obj-34",
									"cantchange" : 1,
									"triscale" : 0.9
								}

							}
, 							{
								"box" : 								{
									"maxclass" : "newobj",
									"text" : "expr atan($f1)/6.2832",
									"fontsize" : 11.595187,
									"numinlets" : 1,
									"numoutlets" : 1,
									"outlettype" : [ "" ],
									"fontname" : "Arial",
									"patching_rect" : [ 311.0, 171.0, 121.0, 20.0 ],
									"id" : "obj-35"
								}

							}
, 							{
								"box" : 								{
									"maxclass" : "newobj",
									"text" : "expr cos(($f2+$f4)*6.2832)*$f3/$f1*2/($f3+1)",
									"fontsize" : 11.595187,
									"numinlets" : 4,
									"numoutlets" : 1,
									"outlettype" : [ "" ],
									"fontname" : "Arial",
									"patching_rect" : [ 65.0, 222.0, 240.0, 20.0 ],
									"id" : "obj-36"
								}

							}
, 							{
								"box" : 								{
									"maxclass" : "newobj",
									"text" : "expr cos(($f2-$f4)*6.2832)*$f3/$f1*2/($f3+1)",
									"fontsize" : 11.595187,
									"numinlets" : 4,
									"numoutlets" : 1,
									"outlettype" : [ "" ],
									"fontname" : "Arial",
									"patching_rect" : [ 65.0, 275.0, 237.0, 20.0 ],
									"id" : "obj-37"
								}

							}
, 							{
								"box" : 								{
									"maxclass" : "comment",
									"text" : "L Gain",
									"fontsize" : 11.595187,
									"numinlets" : 1,
									"numoutlets" : 0,
									"fontname" : "Arial",
									"patching_rect" : [ 0.0, 408.0, 45.0, 20.0 ],
									"id" : "obj-38"
								}

							}
, 							{
								"box" : 								{
									"maxclass" : "newobj",
									"text" : "if $f1 > 0. then $f1 else 0.",
									"fontsize" : 11.595187,
									"numinlets" : 1,
									"numoutlets" : 1,
									"outlettype" : [ "" ],
									"fontname" : "Arial",
									"patching_rect" : [ 65.0, 301.0, 141.0, 20.0 ],
									"id" : "obj-39"
								}

							}
, 							{
								"box" : 								{
									"maxclass" : "newobj",
									"text" : "if $f1 > 0. then $f1 else 0.",
									"fontsize" : 11.595187,
									"numinlets" : 1,
									"numoutlets" : 1,
									"outlettype" : [ "" ],
									"fontname" : "Arial",
									"patching_rect" : [ 65.0, 248.0, 141.0, 20.0 ],
									"id" : "obj-40"
								}

							}
 ],
						"lines" : [ 							{
								"patchline" : 								{
									"source" : [ "obj-11", 0 ],
									"destination" : [ "obj-37", 3 ],
									"hidden" : 0,
									"midpoints" : [ 201.5, 24.0, 171.0, 24.0, 171.0, 81.0, 159.0, 81.0, 159.0, 138.0, 240.0, 138.0, 240.0, 207.0, 306.0, 207.0, 306.0, 261.0, 292.5, 261.0 ]
								}

							}
, 							{
								"patchline" : 								{
									"source" : [ "obj-11", 0 ],
									"destination" : [ "obj-36", 3 ],
									"hidden" : 0,
									"midpoints" : [ 201.5, 56.0, 295.5, 56.0 ]
								}

							}
, 							{
								"patchline" : 								{
									"source" : [ "obj-16", 0 ],
									"destination" : [ "obj-37", 2 ],
									"hidden" : 0,
									"midpoints" : [ 201.5, 81.0, 159.0, 81.0, 159.0, 138.0, 240.0, 138.0, 240.0, 207.0, 306.0, 207.0, 306.0, 261.0, 219.833328, 261.0 ]
								}

							}
, 							{
								"patchline" : 								{
									"source" : [ "obj-16", 0 ],
									"destination" : [ "obj-36", 2 ],
									"hidden" : 0,
									"midpoints" : [ 201.5, 81.0, 159.0, 81.0, 159.0, 138.0, 240.0, 138.0, 240.0, 207.0, 225.0, 207.0, 225.0, 216.0, 221.833328, 216.0 ]
								}

							}
, 							{
								"patchline" : 								{
									"source" : [ "obj-34", 0 ],
									"destination" : [ "obj-37", 1 ],
									"hidden" : 0,
									"midpoints" : [  ]
								}

							}
, 							{
								"patchline" : 								{
									"source" : [ "obj-34", 0 ],
									"destination" : [ "obj-36", 1 ],
									"hidden" : 0,
									"midpoints" : [  ]
								}

							}
, 							{
								"patchline" : 								{
									"source" : [ "obj-35", 0 ],
									"destination" : [ "obj-34", 0 ],
									"hidden" : 0,
									"midpoints" : [  ]
								}

							}
, 							{
								"patchline" : 								{
									"source" : [ "obj-32", 0 ],
									"destination" : [ "obj-35", 0 ],
									"hidden" : 0,
									"midpoints" : [ 74.5, 167.0, 320.5, 167.0 ]
								}

							}
, 							{
								"patchline" : 								{
									"source" : [ "obj-15", 0 ],
									"destination" : [ "obj-16", 0 ],
									"hidden" : 0,
									"midpoints" : [  ]
								}

							}
, 							{
								"patchline" : 								{
									"source" : [ "obj-11", 0 ],
									"destination" : [ "obj-15", 0 ],
									"hidden" : 0,
									"midpoints" : [  ]
								}

							}
, 							{
								"patchline" : 								{
									"source" : [ "obj-14", 0 ],
									"destination" : [ "obj-11", 0 ],
									"hidden" : 0,
									"midpoints" : [  ]
								}

							}
, 							{
								"patchline" : 								{
									"source" : [ "obj-10", 0 ],
									"destination" : [ "obj-14", 0 ],
									"hidden" : 0,
									"midpoints" : [  ]
								}

							}
, 							{
								"patchline" : 								{
									"source" : [ "obj-25", 0 ],
									"destination" : [ "obj-26", 0 ],
									"hidden" : 0,
									"midpoints" : [  ]
								}

							}
, 							{
								"patchline" : 								{
									"source" : [ "obj-11", 0 ],
									"destination" : [ "obj-25", 0 ],
									"hidden" : 0,
									"midpoints" : [ 201.5, 30.0, 181.5, 30.0 ]
								}

							}
, 							{
								"patchline" : 								{
									"source" : [ "obj-19", 1 ],
									"destination" : [ "obj-22", 0 ],
									"hidden" : 0,
									"midpoints" : [  ]
								}

							}
, 							{
								"patchline" : 								{
									"source" : [ "obj-28", 1 ],
									"destination" : [ "obj-29", 1 ],
									"hidden" : 0,
									"midpoints" : [  ]
								}

							}
, 							{
								"patchline" : 								{
									"source" : [ "obj-26", 0 ],
									"destination" : [ "obj-28", 0 ],
									"hidden" : 0,
									"midpoints" : [ 181.5, 129.0, 116.0, 129.0, 116.0, 89.0, 83.5, 89.0 ]
								}

							}
, 							{
								"patchline" : 								{
									"source" : [ "obj-4", 0 ],
									"destination" : [ "obj-5", 0 ],
									"hidden" : 0,
									"midpoints" : [  ]
								}

							}
, 							{
								"patchline" : 								{
									"source" : [ "obj-3", 0 ],
									"destination" : [ "obj-4", 0 ],
									"hidden" : 0,
									"midpoints" : [  ]
								}

							}
, 							{
								"patchline" : 								{
									"source" : [ "obj-39", 0 ],
									"destination" : [ "obj-3", 0 ],
									"hidden" : 0,
									"midpoints" : [  ]
								}

							}
, 							{
								"patchline" : 								{
									"source" : [ "obj-37", 0 ],
									"destination" : [ "obj-39", 0 ],
									"hidden" : 0,
									"midpoints" : [  ]
								}

							}
, 							{
								"patchline" : 								{
									"source" : [ "obj-24", 0 ],
									"destination" : [ "obj-37", 0 ],
									"hidden" : 0,
									"midpoints" : [  ]
								}

							}
, 							{
								"patchline" : 								{
									"source" : [ "obj-36", 0 ],
									"destination" : [ "obj-40", 0 ],
									"hidden" : 0,
									"midpoints" : [  ]
								}

							}
, 							{
								"patchline" : 								{
									"source" : [ "obj-24", 0 ],
									"destination" : [ "obj-36", 0 ],
									"hidden" : 0,
									"midpoints" : [  ]
								}

							}
, 							{
								"patchline" : 								{
									"source" : [ "obj-20", 0 ],
									"destination" : [ "obj-24", 0 ],
									"hidden" : 0,
									"midpoints" : [  ]
								}

							}
, 							{
								"patchline" : 								{
									"source" : [ "obj-32", 0 ],
									"destination" : [ "obj-20", 0 ],
									"hidden" : 0,
									"midpoints" : [  ]
								}

							}
, 							{
								"patchline" : 								{
									"source" : [ "obj-29", 0 ],
									"destination" : [ "obj-32", 0 ],
									"hidden" : 0,
									"midpoints" : [  ]
								}

							}
, 							{
								"patchline" : 								{
									"source" : [ "obj-28", 0 ],
									"destination" : [ "obj-29", 0 ],
									"hidden" : 0,
									"midpoints" : [ 83.5, 114.0, 74.5, 114.0 ]
								}

							}
, 							{
								"patchline" : 								{
									"source" : [ "obj-22", 0 ],
									"destination" : [ "obj-29", 0 ],
									"hidden" : 0,
									"midpoints" : [ 137.5, 85.0, 74.5, 85.0 ]
								}

							}
, 							{
								"patchline" : 								{
									"source" : [ "obj-21", 0 ],
									"destination" : [ "obj-29", 0 ],
									"hidden" : 0,
									"midpoints" : [  ]
								}

							}
, 							{
								"patchline" : 								{
									"source" : [ "obj-19", 0 ],
									"destination" : [ "obj-21", 0 ],
									"hidden" : 0,
									"midpoints" : [  ]
								}

							}
, 							{
								"patchline" : 								{
									"source" : [ "obj-18", 0 ],
									"destination" : [ "obj-19", 0 ],
									"hidden" : 0,
									"midpoints" : [  ]
								}

							}
, 							{
								"patchline" : 								{
									"source" : [ "obj-12", 0 ],
									"destination" : [ "obj-18", 0 ],
									"hidden" : 0,
									"midpoints" : [  ]
								}

							}
, 							{
								"patchline" : 								{
									"source" : [ "obj-7", 0 ],
									"destination" : [ "obj-6", 0 ],
									"hidden" : 0,
									"midpoints" : [  ]
								}

							}
, 							{
								"patchline" : 								{
									"source" : [ "obj-8", 0 ],
									"destination" : [ "obj-7", 0 ],
									"hidden" : 0,
									"midpoints" : [  ]
								}

							}
, 							{
								"patchline" : 								{
									"source" : [ "obj-40", 0 ],
									"destination" : [ "obj-8", 0 ],
									"hidden" : 0,
									"midpoints" : [ 74.5, 281.0, 16.5, 281.0 ]
								}

							}
 ]
					}
,
					"saved_object_attributes" : 					{
						"fontsize" : 10.0,
						"globalpatchername" : "",
						"default_fontface" : 0,
						"default_fontname" : "Arial",
						"fontname" : "Arial",
						"default_fontsize" : 10.0,
						"fontface" : 0
					}

				}

			}
, 			{
				"box" : 				{
					"maxclass" : "newobj",
					"text" : "p \"constant distance xfade\"",
					"fontsize" : 11.595187,
					"numinlets" : 1,
					"background" : 0,
					"color" : [ 0.8, 0.84, 0.71, 1.0 ],
					"numoutlets" : 2,
					"presentation_rect" : [ 0.0, 0.0, 0.0, 0.0 ],
					"ignoreclick" : 0,
					"outlettype" : [ "signal", "signal" ],
					"bgcolor" : [ 1.0, 1.0, 1.0, 1.0 ],
					"hidden" : 0,
					"fontname" : "Arial",
					"patching_rect" : [ 192.0, 163.0, 150.0, 20.0 ],
					"presentation" : 0,
					"id" : "obj-26",
					"textcolor" : [ 0.0, 0.0, 0.0, 1.0 ],
					"fontface" : 0,
					"patcher" : 					{
						"fileversion" : 1,
						"rect" : [ 152.0, 77.0, 366.0, 304.0 ],
						"bglocked" : 0,
						"defrect" : [ 152.0, 77.0, 366.0, 304.0 ],
						"openrect" : [ 0.0, 0.0, 0.0, 0.0 ],
						"openinpresentation" : 0,
						"default_fontsize" : 10.0,
						"default_fontface" : 0,
						"default_fontname" : "Arial",
						"gridonopen" : 0,
						"gridsize" : [ 15.0, 15.0 ],
						"gridsnaponopen" : 0,
						"toolbarvisible" : 1,
						"boxanimatetime" : 200,
						"imprint" : 0,
						"metadata" : [  ],
						"boxes" : [ 							{
								"box" : 								{
									"maxclass" : "comment",
									"text" : "Crossfade in which the intensity of the combined channels (and thus the impression of distance from the sound source) is kept constant, as if the sound were travelling on an arc with the listener at the center.",
									"linecount" : 12,
									"fontsize" : 11.595187,
									"numinlets" : 1,
									"numoutlets" : 0,
									"fontname" : "Arial",
									"patching_rect" : [ 188.0, 104.0, 114.0, 166.0 ],
									"id" : "obj-1"
								}

							}
, 							{
								"box" : 								{
									"maxclass" : "comment",
									"text" : "R Gain",
									"fontsize" : 11.595187,
									"numinlets" : 1,
									"numoutlets" : 0,
									"fontname" : "Arial",
									"patching_rect" : [ 90.0, 253.0, 47.0, 20.0 ],
									"id" : "obj-2"
								}

							}
, 							{
								"box" : 								{
									"maxclass" : "comment",
									"text" : "L Gain",
									"fontsize" : 11.595187,
									"numinlets" : 1,
									"numoutlets" : 0,
									"fontname" : "Arial",
									"patching_rect" : [ 21.0, 253.0, 45.0, 20.0 ],
									"id" : "obj-3"
								}

							}
, 							{
								"box" : 								{
									"maxclass" : "outlet",
									"numinlets" : 1,
									"numoutlets" : 0,
									"patching_rect" : [ 99.0, 223.0, 25.0, 25.0 ],
									"id" : "obj-4",
									"comment" : "(signal) right channel gain"
								}

							}
, 							{
								"box" : 								{
									"maxclass" : "outlet",
									"numinlets" : 1,
									"numoutlets" : 0,
									"patching_rect" : [ 29.0, 223.0, 25.0, 25.0 ],
									"id" : "obj-5",
									"comment" : "(signal) left channel gain"
								}

							}
, 							{
								"box" : 								{
									"maxclass" : "inlet",
									"numinlets" : 0,
									"numoutlets" : 1,
									"outlettype" : [ "" ],
									"patching_rect" : [ 54.0, 5.0, 25.0, 25.0 ],
									"id" : "obj-6",
									"comment" : "(int) MIDI panning"
								}

							}
, 							{
								"box" : 								{
									"maxclass" : "newobj",
									"text" : "cycle~",
									"fontsize" : 11.595187,
									"numinlets" : 2,
									"numoutlets" : 1,
									"outlettype" : [ "signal" ],
									"fontname" : "Arial",
									"patching_rect" : [ 29.0, 194.0, 44.0, 20.0 ],
									"id" : "obj-7"
								}

							}
, 							{
								"box" : 								{
									"maxclass" : "flonum",
									"fontsize" : 11.595187,
									"numinlets" : 1,
									"numoutlets" : 2,
									"outlettype" : [ "float", "bang" ],
									"bgcolor" : [ 0.866667, 0.866667, 0.866667, 1.0 ],
									"fontname" : "Arial",
									"patching_rect" : [ 54.0, 85.0, 66.0, 20.0 ],
									"htextcolor" : [ 0.870588, 0.870588, 0.870588, 1.0 ],
									"id" : "obj-8",
									"cantchange" : 1,
									"triscale" : 0.9
								}

							}
, 							{
								"box" : 								{
									"maxclass" : "newobj",
									"text" : "split 0 64",
									"fontsize" : 11.595187,
									"numinlets" : 3,
									"numoutlets" : 2,
									"outlettype" : [ "int", "int" ],
									"fontname" : "Arial",
									"patching_rect" : [ 54.0, 31.0, 57.0, 20.0 ],
									"id" : "obj-9"
								}

							}
, 							{
								"box" : 								{
									"maxclass" : "newobj",
									"text" : "line~ 0.125",
									"fontsize" : 11.595187,
									"numinlets" : 2,
									"numoutlets" : 2,
									"outlettype" : [ "signal", "bang" ],
									"fontname" : "Arial",
									"patching_rect" : [ 54.0, 134.0, 68.0, 20.0 ],
									"id" : "obj-10"
								}

							}
, 							{
								"box" : 								{
									"maxclass" : "message",
									"text" : "$1 20",
									"fontsize" : 11.595187,
									"numinlets" : 2,
									"numoutlets" : 1,
									"outlettype" : [ "" ],
									"fontname" : "Arial",
									"patching_rect" : [ 54.0, 110.0, 40.0, 18.0 ],
									"id" : "obj-11"
								}

							}
, 							{
								"box" : 								{
									"maxclass" : "newobj",
									"text" : "/ 512.",
									"fontsize" : 11.595187,
									"numinlets" : 2,
									"numoutlets" : 1,
									"outlettype" : [ "float" ],
									"fontname" : "Arial",
									"patching_rect" : [ 54.0, 57.0, 40.0, 20.0 ],
									"id" : "obj-12"
								}

							}
, 							{
								"box" : 								{
									"maxclass" : "newobj",
									"text" : "+~ 0.75",
									"fontsize" : 11.595187,
									"numinlets" : 2,
									"numoutlets" : 1,
									"outlettype" : [ "signal" ],
									"fontname" : "Arial",
									"patching_rect" : [ 124.0, 165.0, 50.0, 20.0 ],
									"id" : "obj-13"
								}

							}
, 							{
								"box" : 								{
									"maxclass" : "newobj",
									"text" : "cycle~",
									"fontsize" : 11.595187,
									"numinlets" : 2,
									"numoutlets" : 1,
									"outlettype" : [ "signal" ],
									"fontname" : "Arial",
									"patching_rect" : [ 99.0, 194.0, 44.0, 20.0 ],
									"id" : "obj-14"
								}

							}
, 							{
								"box" : 								{
									"maxclass" : "newobj",
									"text" : "expr ($i1-64)/504.+0.125",
									"fontsize" : 11.595187,
									"numinlets" : 1,
									"numoutlets" : 1,
									"outlettype" : [ "" ],
									"fontname" : "Arial",
									"patching_rect" : [ 112.0, 57.0, 138.0, 20.0 ],
									"id" : "obj-15"
								}

							}
, 							{
								"box" : 								{
									"maxclass" : "comment",
									"text" : "MIDI Panning",
									"fontsize" : 11.595187,
									"numinlets" : 1,
									"numoutlets" : 0,
									"fontname" : "Arial",
									"patching_rect" : [ 84.0, 5.0, 81.0, 20.0 ],
									"id" : "obj-16"
								}

							}
 ],
						"lines" : [ 							{
								"patchline" : 								{
									"source" : [ "obj-13", 0 ],
									"destination" : [ "obj-14", 1 ],
									"hidden" : 0,
									"midpoints" : [  ]
								}

							}
, 							{
								"patchline" : 								{
									"source" : [ "obj-10", 0 ],
									"destination" : [ "obj-13", 0 ],
									"hidden" : 0,
									"midpoints" : [ 63.5, 160.0, 133.5, 160.0 ]
								}

							}
, 							{
								"patchline" : 								{
									"source" : [ "obj-9", 1 ],
									"destination" : [ "obj-15", 0 ],
									"hidden" : 0,
									"midpoints" : [  ]
								}

							}
, 							{
								"patchline" : 								{
									"source" : [ "obj-14", 0 ],
									"destination" : [ "obj-4", 0 ],
									"hidden" : 0,
									"midpoints" : [  ]
								}

							}
, 							{
								"patchline" : 								{
									"source" : [ "obj-10", 0 ],
									"destination" : [ "obj-7", 1 ],
									"hidden" : 0,
									"midpoints" : [  ]
								}

							}
, 							{
								"patchline" : 								{
									"source" : [ "obj-11", 0 ],
									"destination" : [ "obj-10", 0 ],
									"hidden" : 0,
									"midpoints" : [  ]
								}

							}
, 							{
								"patchline" : 								{
									"source" : [ "obj-8", 0 ],
									"destination" : [ "obj-11", 0 ],
									"hidden" : 0,
									"midpoints" : [  ]
								}

							}
, 							{
								"patchline" : 								{
									"source" : [ "obj-15", 0 ],
									"destination" : [ "obj-8", 0 ],
									"hidden" : 0,
									"midpoints" : [ 121.5, 81.0, 63.5, 81.0 ]
								}

							}
, 							{
								"patchline" : 								{
									"source" : [ "obj-12", 0 ],
									"destination" : [ "obj-8", 0 ],
									"hidden" : 0,
									"midpoints" : [  ]
								}

							}
, 							{
								"patchline" : 								{
									"source" : [ "obj-9", 0 ],
									"destination" : [ "obj-12", 0 ],
									"hidden" : 0,
									"midpoints" : [  ]
								}

							}
, 							{
								"patchline" : 								{
									"source" : [ "obj-6", 0 ],
									"destination" : [ "obj-9", 0 ],
									"hidden" : 0,
									"midpoints" : [  ]
								}

							}
, 							{
								"patchline" : 								{
									"source" : [ "obj-7", 0 ],
									"destination" : [ "obj-5", 0 ],
									"hidden" : 0,
									"midpoints" : [  ]
								}

							}
 ]
					}
,
					"saved_object_attributes" : 					{
						"fontsize" : 10.0,
						"globalpatchername" : "",
						"default_fontface" : 0,
						"default_fontname" : "Arial",
						"fontname" : "Arial",
						"default_fontsize" : 10.0,
						"fontface" : 0
					}

				}

			}
, 			{
				"box" : 				{
					"maxclass" : "newobj",
					"text" : "p \"simple linear xfade\"",
					"fontsize" : 11.595187,
					"numinlets" : 1,
					"background" : 0,
					"color" : [ 0.8, 0.84, 0.71, 1.0 ],
					"numoutlets" : 2,
					"presentation_rect" : [ 0.0, 0.0, 0.0, 0.0 ],
					"ignoreclick" : 0,
					"outlettype" : [ "signal", "signal" ],
					"bgcolor" : [ 1.0, 1.0, 1.0, 1.0 ],
					"hidden" : 0,
					"fontname" : "Arial",
					"patching_rect" : [ 177.0, 130.0, 149.0, 20.0 ],
					"presentation" : 0,
					"id" : "obj-27",
					"textcolor" : [ 0.0, 0.0, 0.0, 1.0 ],
					"fontface" : 0,
					"patcher" : 					{
						"fileversion" : 1,
						"rect" : [ 175.0, 50.0, 296.0, 299.0 ],
						"bglocked" : 0,
						"defrect" : [ 175.0, 50.0, 296.0, 299.0 ],
						"openrect" : [ 0.0, 0.0, 0.0, 0.0 ],
						"openinpresentation" : 0,
						"default_fontsize" : 10.0,
						"default_fontface" : 0,
						"default_fontname" : "Arial",
						"gridonopen" : 0,
						"gridsize" : [ 15.0, 15.0 ],
						"gridsnaponopen" : 0,
						"toolbarvisible" : 1,
						"boxanimatetime" : 200,
						"imprint" : 0,
						"metadata" : [  ],
						"boxes" : [ 							{
								"box" : 								{
									"maxclass" : "comment",
									"text" : "Simple linear crossfade with amplitude tracking the MIDI panning value.",
									"linecount" : 2,
									"fontsize" : 11.595187,
									"numinlets" : 1,
									"numoutlets" : 0,
									"fontname" : "Arial",
									"patching_rect" : [ 23.0, 7.0, 212.0, 33.0 ],
									"id" : "obj-1"
								}

							}
, 							{
								"box" : 								{
									"maxclass" : "comment",
									"text" : "R Gain",
									"fontsize" : 11.595187,
									"numinlets" : 1,
									"numoutlets" : 0,
									"fontname" : "Arial",
									"patching_rect" : [ 89.0, 262.0, 47.0, 20.0 ],
									"id" : "obj-2"
								}

							}
, 							{
								"box" : 								{
									"maxclass" : "comment",
									"text" : "L Gain",
									"fontsize" : 11.595187,
									"numinlets" : 1,
									"numoutlets" : 0,
									"fontname" : "Arial",
									"patching_rect" : [ 36.0, 262.0, 45.0, 20.0 ],
									"id" : "obj-3"
								}

							}
, 							{
								"box" : 								{
									"maxclass" : "outlet",
									"numinlets" : 1,
									"numoutlets" : 0,
									"patching_rect" : [ 99.0, 231.0, 25.0, 25.0 ],
									"id" : "obj-4",
									"comment" : "(signal) right channel gain"
								}

							}
, 							{
								"box" : 								{
									"maxclass" : "outlet",
									"numinlets" : 1,
									"numoutlets" : 0,
									"patching_rect" : [ 45.0, 231.0, 25.0, 25.0 ],
									"id" : "obj-5",
									"comment" : "(signal) left channel gain"
								}

							}
, 							{
								"box" : 								{
									"maxclass" : "inlet",
									"numinlets" : 0,
									"numoutlets" : 1,
									"outlettype" : [ "" ],
									"patching_rect" : [ 99.0, 46.0, 25.0, 25.0 ],
									"id" : "obj-6",
									"comment" : "(int) MIDI panning"
								}

							}
, 							{
								"box" : 								{
									"maxclass" : "comment",
									"text" : "MIDI Panning",
									"fontsize" : 11.595187,
									"numinlets" : 1,
									"numoutlets" : 0,
									"fontname" : "Arial",
									"patching_rect" : [ 131.0, 46.0, 81.0, 20.0 ],
									"id" : "obj-7"
								}

							}
, 							{
								"box" : 								{
									"maxclass" : "newobj",
									"text" : "split 0 64",
									"fontsize" : 11.595187,
									"numinlets" : 3,
									"numoutlets" : 2,
									"outlettype" : [ "int", "int" ],
									"fontname" : "Arial",
									"patching_rect" : [ 99.0, 77.0, 57.0, 20.0 ],
									"id" : "obj-8"
								}

							}
, 							{
								"box" : 								{
									"maxclass" : "newobj",
									"text" : "/ 128.",
									"fontsize" : 11.595187,
									"numinlets" : 2,
									"numoutlets" : 1,
									"outlettype" : [ "float" ],
									"fontname" : "Arial",
									"patching_rect" : [ 99.0, 106.0, 40.0, 20.0 ],
									"id" : "obj-9"
								}

							}
, 							{
								"box" : 								{
									"maxclass" : "newobj",
									"text" : "/ 127.",
									"fontsize" : 11.595187,
									"numinlets" : 2,
									"numoutlets" : 1,
									"outlettype" : [ "float" ],
									"fontname" : "Arial",
									"patching_rect" : [ 157.0, 106.0, 40.0, 20.0 ],
									"id" : "obj-10"
								}

							}
, 							{
								"box" : 								{
									"maxclass" : "newobj",
									"text" : "line~ 0.5",
									"fontsize" : 11.595187,
									"numinlets" : 2,
									"numoutlets" : 2,
									"outlettype" : [ "signal", "bang" ],
									"fontname" : "Arial",
									"patching_rect" : [ 99.0, 163.0, 55.0, 20.0 ],
									"id" : "obj-11"
								}

							}
, 							{
								"box" : 								{
									"maxclass" : "message",
									"text" : "$1 20",
									"fontsize" : 11.595187,
									"numinlets" : 2,
									"numoutlets" : 1,
									"outlettype" : [ "" ],
									"fontname" : "Arial",
									"patching_rect" : [ 99.0, 137.0, 40.0, 18.0 ],
									"id" : "obj-12"
								}

							}
, 							{
								"box" : 								{
									"maxclass" : "newobj",
									"text" : "sig~ 1.",
									"fontsize" : 11.595187,
									"numinlets" : 1,
									"numoutlets" : 1,
									"outlettype" : [ "signal" ],
									"fontname" : "Arial",
									"patching_rect" : [ 45.0, 163.0, 45.0, 20.0 ],
									"id" : "obj-13"
								}

							}
, 							{
								"box" : 								{
									"maxclass" : "newobj",
									"text" : "-~",
									"fontsize" : 11.595187,
									"numinlets" : 2,
									"numoutlets" : 1,
									"outlettype" : [ "signal" ],
									"fontname" : "Arial",
									"patching_rect" : [ 45.0, 198.0, 32.5, 20.0 ],
									"id" : "obj-14"
								}

							}
 ],
						"lines" : [ 							{
								"patchline" : 								{
									"source" : [ "obj-8", 1 ],
									"destination" : [ "obj-10", 0 ],
									"hidden" : 0,
									"midpoints" : [  ]
								}

							}
, 							{
								"patchline" : 								{
									"source" : [ "obj-11", 0 ],
									"destination" : [ "obj-4", 0 ],
									"hidden" : 0,
									"midpoints" : [  ]
								}

							}
, 							{
								"patchline" : 								{
									"source" : [ "obj-12", 0 ],
									"destination" : [ "obj-11", 0 ],
									"hidden" : 0,
									"midpoints" : [  ]
								}

							}
, 							{
								"patchline" : 								{
									"source" : [ "obj-10", 0 ],
									"destination" : [ "obj-12", 0 ],
									"hidden" : 0,
									"midpoints" : [ 166.5, 127.0, 108.5, 127.0 ]
								}

							}
, 							{
								"patchline" : 								{
									"source" : [ "obj-9", 0 ],
									"destination" : [ "obj-12", 0 ],
									"hidden" : 0,
									"midpoints" : [  ]
								}

							}
, 							{
								"patchline" : 								{
									"source" : [ "obj-8", 0 ],
									"destination" : [ "obj-9", 0 ],
									"hidden" : 0,
									"midpoints" : [  ]
								}

							}
, 							{
								"patchline" : 								{
									"source" : [ "obj-6", 0 ],
									"destination" : [ "obj-8", 0 ],
									"hidden" : 0,
									"midpoints" : [  ]
								}

							}
, 							{
								"patchline" : 								{
									"source" : [ "obj-11", 0 ],
									"destination" : [ "obj-14", 1 ],
									"hidden" : 0,
									"midpoints" : [ 108.5, 184.0, 68.0, 184.0 ]
								}

							}
, 							{
								"patchline" : 								{
									"source" : [ "obj-14", 0 ],
									"destination" : [ "obj-5", 0 ],
									"hidden" : 0,
									"midpoints" : [  ]
								}

							}
, 							{
								"patchline" : 								{
									"source" : [ "obj-13", 0 ],
									"destination" : [ "obj-14", 0 ],
									"hidden" : 0,
									"midpoints" : [  ]
								}

							}
 ]
					}
,
					"saved_object_attributes" : 					{
						"fontsize" : 10.0,
						"globalpatchername" : "",
						"default_fontface" : 0,
						"default_fontname" : "Arial",
						"fontname" : "Arial",
						"default_fontsize" : 10.0,
						"fontface" : 0
					}

				}

			}
, 			{
				"box" : 				{
					"maxclass" : "comment",
					"text" : "MIDI Panning",
					"fontsize" : 11.595187,
					"numinlets" : 1,
					"background" : 0,
					"numoutlets" : 0,
					"presentation_rect" : [ 0.0, 0.0, 0.0, 0.0 ],
					"ignoreclick" : 1,
					"bgcolor" : [ 1.0, 1.0, 1.0, 0.0 ],
					"hidden" : 0,
					"fontname" : "Arial",
					"patching_rect" : [ 297.0, 73.0, 81.0, 20.0 ],
					"frgb" : [ 0.0, 0.0, 0.0, 1.0 ],
					"presentation" : 0,
					"id" : "obj-28",
					"underline" : 0,
					"textcolor" : [ 0.0, 0.0, 0.0, 1.0 ],
					"fontface" : 0
				}

			}
, 			{
				"box" : 				{
					"maxclass" : "newobj",
					"text" : "bendin a",
					"fontsize" : 11.595187,
					"numinlets" : 1,
					"background" : 0,
					"color" : [ 0.8, 0.84, 0.71, 1.0 ],
					"numoutlets" : 2,
					"presentation_rect" : [ 0.0, 0.0, 0.0, 0.0 ],
					"ignoreclick" : 0,
					"outlettype" : [ "int", "int" ],
					"bgcolor" : [ 1.0, 1.0, 1.0, 1.0 ],
					"hidden" : 0,
					"fontname" : "Arial",
					"patching_rect" : [ 323.0, 43.0, 55.0, 20.0 ],
					"presentation" : 0,
					"id" : "obj-29",
					"textcolor" : [ 0.0, 0.0, 0.0, 1.0 ],
					"fontface" : 0
				}

			}
, 			{
				"box" : 				{
					"maxclass" : "number",
					"triangle" : 1,
					"maximum" : 127,
					"fontsize" : 11.595187,
					"numinlets" : 1,
					"background" : 0,
					"mouseup" : 0,
					"numoutlets" : 2,
					"outputonclick" : 0,
					"bordercolor" : [ 0.5, 0.5, 0.5, 1.0 ],
					"format" : 0,
					"presentation_rect" : [ 0.0, 0.0, 0.0, 0.0 ],
					"ignoreclick" : 0,
					"outlettype" : [ "int", "bang" ],
					"hbgcolor" : [ 0.0, 0.0, 0.0, 1.0 ],
					"bgcolor" : [ 0.866667, 0.866667, 0.866667, 1.0 ],
					"hidden" : 0,
					"fontname" : "Arial",
					"patching_rect" : [ 251.0, 73.0, 48.0, 20.0 ],
					"htextcolor" : [ 0.870588, 0.870588, 0.870588, 1.0 ],
					"presentation" : 0,
					"id" : "obj-30",
					"minimum" : 0,
					"textcolor" : [ 0.0, 0.0, 0.0, 1.0 ],
					"cantchange" : 0,
					"triscale" : 0.9,
					"fontface" : 0
				}

			}
, 			{
				"box" : 				{
					"maxclass" : "ezdac~",
					"numinlets" : 2,
					"background" : 0,
					"offgradcolor1" : [ 0.87, 0.87, 0.87, 1.0 ],
					"ongradcolor1" : [ 0.75, 0.79, 0.93, 1.0 ],
					"numoutlets" : 0,
					"presentation_rect" : [ 0.0, 0.0, 0.0, 0.0 ],
					"ongradcolor2" : [ 0.66, 0.66, 0.72, 1.0 ],
					"offgradcolor2" : [ 0.7, 0.7, 0.73, 1.0 ],
					"ignoreclick" : 0,
					"bgcolor" : [ 0.51, 0.51, 0.51, 1.0 ],
					"hidden" : 0,
					"patching_rect" : [ 7.0, 349.0, 33.0, 33.0 ],
					"presentation" : 0,
					"id" : "obj-31",
					"local" : 0
				}

			}
, 			{
				"box" : 				{
					"maxclass" : "comment",
					"text" : "Three panning algorithms",
					"fontsize" : 11.595187,
					"numinlets" : 1,
					"background" : 0,
					"numoutlets" : 0,
					"presentation_rect" : [ 0.0, 0.0, 0.0, 0.0 ],
					"ignoreclick" : 1,
					"bgcolor" : [ 1.0, 1.0, 1.0, 0.0 ],
					"hidden" : 0,
					"fontname" : "Arial",
					"patching_rect" : [ 32.0, 10.0, 142.0, 20.0 ],
					"frgb" : [ 0.0, 0.0, 0.0, 1.0 ],
					"presentation" : 0,
					"id" : "obj-32",
					"underline" : 0,
					"textcolor" : [ 0.0, 0.0, 0.0, 1.0 ],
					"fontface" : 0
				}

			}
, 			{
				"box" : 				{
					"maxclass" : "newobj",
					"text" : "loadbang",
					"fontsize" : 11.595187,
					"numinlets" : 1,
					"background" : 0,
					"color" : [ 0.8, 0.84, 0.71, 1.0 ],
					"numoutlets" : 1,
					"presentation_rect" : [ 0.0, 0.0, 0.0, 0.0 ],
					"ignoreclick" : 0,
					"outlettype" : [ "bang" ],
					"bgcolor" : [ 1.0, 1.0, 1.0, 1.0 ],
					"hidden" : 0,
					"fontname" : "Arial",
					"patching_rect" : [ 415.0, 43.0, 58.0, 20.0 ],
					"presentation" : 0,
					"id" : "obj-33",
					"textcolor" : [ 0.0, 0.0, 0.0, 1.0 ],
					"fontface" : 0
				}

			}
, 			{
				"box" : 				{
					"maxclass" : "message",
					"text" : "64",
					"fontsize" : 11.595187,
					"numinlets" : 2,
					"background" : 0,
					"numoutlets" : 1,
					"presentation_rect" : [ 0.0, 0.0, 0.0, 0.0 ],
					"ignoreclick" : 0,
					"outlettype" : [ "" ],
					"bgcolor" : [ 0.867, 0.867, 0.867, 1.0 ],
					"hidden" : 0,
					"fontname" : "Arial",
					"patching_rect" : [ 380.0, 73.0, 32.5, 18.0 ],
					"bgcolor2" : [ 0.867, 0.867, 0.867, 1.0 ],
					"presentation" : 0,
					"id" : "obj-34",
					"textcolor" : [ 0.0, 0.0, 0.0, 1.0 ],
					"gradient" : 0,
					"fontface" : 0
				}

			}
 ],
		"lines" : [ 			{
				"patchline" : 				{
					"source" : [ "obj-24", 0 ],
					"destination" : [ "obj-25", 1 ],
					"hidden" : 0,
					"color" : [ 0.0, 0.0, 0.0, 1.0 ],
					"midpoints" : [  ]
				}

			}
, 			{
				"patchline" : 				{
					"source" : [ "obj-1", 0 ],
					"destination" : [ "obj-24", 0 ],
					"hidden" : 0,
					"color" : [ 0.0, 0.0, 0.0, 1.0 ],
					"midpoints" : [  ]
				}

			}
, 			{
				"patchline" : 				{
					"source" : [ "obj-33", 0 ],
					"destination" : [ "obj-1", 0 ],
					"hidden" : 0,
					"color" : [ 0.0, 0.0, 0.0, 1.0 ],
					"midpoints" : [  ]
				}

			}
, 			{
				"patchline" : 				{
					"source" : [ "obj-33", 0 ],
					"destination" : [ "obj-34", 0 ],
					"hidden" : 0,
					"color" : [ 0.0, 0.0, 0.0, 1.0 ],
					"midpoints" : [ 424.5, 69.0, 389.5, 69.0 ]
				}

			}
, 			{
				"patchline" : 				{
					"source" : [ "obj-25", 1 ],
					"destination" : [ "obj-20", 3 ],
					"hidden" : 0,
					"color" : [ 0.0, 0.0, 0.0, 1.0 ],
					"midpoints" : [ 357.5, 221.0, 349.5, 221.0 ]
				}

			}
, 			{
				"patchline" : 				{
					"source" : [ "obj-26", 1 ],
					"destination" : [ "obj-20", 2 ],
					"hidden" : 0,
					"color" : [ 0.0, 0.0, 0.0, 1.0 ],
					"midpoints" : [ 332.5, 216.0, 333.166656, 216.0 ]
				}

			}
, 			{
				"patchline" : 				{
					"source" : [ "obj-27", 1 ],
					"destination" : [ "obj-20", 1 ],
					"hidden" : 0,
					"color" : [ 0.0, 0.0, 0.0, 1.0 ],
					"midpoints" : [  ]
				}

			}
, 			{
				"patchline" : 				{
					"source" : [ "obj-20", 0 ],
					"destination" : [ "obj-5", 0 ],
					"hidden" : 0,
					"color" : [ 0.0, 0.0, 0.0, 1.0 ],
					"midpoints" : [  ]
				}

			}
, 			{
				"patchline" : 				{
					"source" : [ "obj-8", 0 ],
					"destination" : [ "obj-5", 0 ],
					"hidden" : 0,
					"color" : [ 0.0, 0.0, 0.0, 1.0 ],
					"midpoints" : [ 119.5, 303.0, 300.5, 303.0 ]
				}

			}
, 			{
				"patchline" : 				{
					"source" : [ "obj-18", 0 ],
					"destination" : [ "obj-20", 0 ],
					"hidden" : 0,
					"color" : [ 0.0, 0.0, 0.0, 1.0 ],
					"midpoints" : [ 186.5, 48.0, 173.0, 48.0, 173.0, 220.0, 300.5, 220.0 ]
				}

			}
, 			{
				"patchline" : 				{
					"source" : [ "obj-30", 0 ],
					"destination" : [ "obj-19", 1 ],
					"hidden" : 0,
					"color" : [ 0.0, 0.0, 0.0, 1.0 ],
					"midpoints" : [  ]
				}

			}
, 			{
				"patchline" : 				{
					"source" : [ "obj-34", 0 ],
					"destination" : [ "obj-30", 0 ],
					"hidden" : 0,
					"color" : [ 0.0, 0.0, 0.0, 1.0 ],
					"midpoints" : [ 389.5, 93.0, 374.0, 93.0, 374.0, 69.0, 260.5, 69.0 ]
				}

			}
, 			{
				"patchline" : 				{
					"source" : [ "obj-29", 0 ],
					"destination" : [ "obj-30", 0 ],
					"hidden" : 0,
					"color" : [ 0.0, 0.0, 0.0, 1.0 ],
					"midpoints" : [ 332.5, 69.0, 260.5, 69.0 ]
				}

			}
, 			{
				"patchline" : 				{
					"source" : [ "obj-22", 0 ],
					"destination" : [ "obj-30", 0 ],
					"hidden" : 0,
					"color" : [ 0.0, 0.0, 0.0, 1.0 ],
					"midpoints" : [  ]
				}

			}
, 			{
				"patchline" : 				{
					"source" : [ "obj-25", 0 ],
					"destination" : [ "obj-21", 3 ],
					"hidden" : 0,
					"color" : [ 0.0, 0.0, 0.0, 1.0 ],
					"midpoints" : [ 216.5, 216.0, 229.5, 216.0 ]
				}

			}
, 			{
				"patchline" : 				{
					"source" : [ "obj-19", 2 ],
					"destination" : [ "obj-25", 0 ],
					"hidden" : 0,
					"color" : [ 0.0, 0.0, 0.0, 1.0 ],
					"midpoints" : [ 260.5, 123.0, 349.0, 123.0, 349.0, 189.0, 216.5, 189.0 ]
				}

			}
, 			{
				"patchline" : 				{
					"source" : [ "obj-26", 0 ],
					"destination" : [ "obj-21", 2 ],
					"hidden" : 0,
					"color" : [ 0.0, 0.0, 0.0, 1.0 ],
					"midpoints" : [ 201.5, 221.0, 208.166672, 221.0 ]
				}

			}
, 			{
				"patchline" : 				{
					"source" : [ "obj-19", 1 ],
					"destination" : [ "obj-26", 0 ],
					"hidden" : 0,
					"color" : [ 0.0, 0.0, 0.0, 1.0 ],
					"midpoints" : [ 223.5, 123.0, 312.0, 123.0, 312.0, 159.0, 201.5, 159.0 ]
				}

			}
, 			{
				"patchline" : 				{
					"source" : [ "obj-27", 0 ],
					"destination" : [ "obj-21", 1 ],
					"hidden" : 0,
					"color" : [ 0.0, 0.0, 0.0, 1.0 ],
					"midpoints" : [  ]
				}

			}
, 			{
				"patchline" : 				{
					"source" : [ "obj-19", 0 ],
					"destination" : [ "obj-27", 0 ],
					"hidden" : 0,
					"color" : [ 0.0, 0.0, 0.0, 1.0 ],
					"midpoints" : [  ]
				}

			}
, 			{
				"patchline" : 				{
					"source" : [ "obj-18", 0 ],
					"destination" : [ "obj-19", 0 ],
					"hidden" : 0,
					"color" : [ 0.0, 0.0, 0.0, 1.0 ],
					"midpoints" : [  ]
				}

			}
, 			{
				"patchline" : 				{
					"source" : [ "obj-21", 0 ],
					"destination" : [ "obj-2", 0 ],
					"hidden" : 0,
					"color" : [ 0.0, 0.0, 0.0, 1.0 ],
					"midpoints" : [ 165.5, 270.0, 165.5, 315.0 ]
				}

			}
, 			{
				"patchline" : 				{
					"source" : [ "obj-8", 0 ],
					"destination" : [ "obj-2", 0 ],
					"hidden" : 0,
					"color" : [ 0.0, 0.0, 0.0, 1.0 ],
					"midpoints" : [ 119.5, 303.0, 165.5, 303.0 ]
				}

			}
, 			{
				"patchline" : 				{
					"source" : [ "obj-18", 0 ],
					"destination" : [ "obj-21", 0 ],
					"hidden" : 0,
					"color" : [ 0.0, 0.0, 0.0, 1.0 ],
					"midpoints" : [ 186.5, 48.0, 165.5, 48.0 ]
				}

			}
, 			{
				"patchline" : 				{
					"source" : [ "obj-11", 0 ],
					"destination" : [ "obj-13", 1 ],
					"hidden" : 0,
					"color" : [ 0.0, 0.0, 0.0, 1.0 ],
					"midpoints" : [ 113.5, 165.0, 39.0, 165.0, 39.0, 156.0, 30.0, 156.0 ]
				}

			}
, 			{
				"patchline" : 				{
					"source" : [ "obj-20", 0 ],
					"destination" : [ "obj-10", 1 ],
					"hidden" : 0,
					"color" : [ 0.0, 0.0, 0.0, 1.0 ],
					"midpoints" : [ 300.5, 303.0, 119.0, 303.0 ]
				}

			}
, 			{
				"patchline" : 				{
					"source" : [ "obj-8", 0 ],
					"destination" : [ "obj-10", 1 ],
					"hidden" : 0,
					"color" : [ 0.0, 0.0, 0.0, 1.0 ],
					"midpoints" : [  ]
				}

			}
, 			{
				"patchline" : 				{
					"source" : [ "obj-7", 0 ],
					"destination" : [ "obj-8", 0 ],
					"hidden" : 0,
					"color" : [ 0.0, 0.0, 0.0, 1.0 ],
					"midpoints" : [  ]
				}

			}
, 			{
				"patchline" : 				{
					"source" : [ "obj-18", 0 ],
					"destination" : [ "obj-7", 0 ],
					"hidden" : 0,
					"color" : [ 0.0, 0.0, 0.0, 1.0 ],
					"midpoints" : [ 186.5, 48.0, 161.0, 48.0, 161.0, 183.0, 119.5, 183.0 ]
				}

			}
, 			{
				"patchline" : 				{
					"source" : [ "obj-13", 0 ],
					"destination" : [ "obj-10", 0 ],
					"hidden" : 0,
					"color" : [ 0.0, 0.0, 0.0, 1.0 ],
					"midpoints" : [ 16.5, 180.0, 105.5, 180.0 ]
				}

			}
, 			{
				"patchline" : 				{
					"source" : [ "obj-10", 0 ],
					"destination" : [ "obj-31", 1 ],
					"hidden" : 0,
					"color" : [ 0.0, 0.0, 0.0, 1.0 ],
					"midpoints" : [ 105.5, 337.0, 30.5, 337.0 ]
				}

			}
, 			{
				"patchline" : 				{
					"source" : [ "obj-21", 0 ],
					"destination" : [ "obj-6", 1 ],
					"hidden" : 0,
					"color" : [ 0.0, 0.0, 0.0, 1.0 ],
					"midpoints" : [ 165.5, 303.0, 30.0, 303.0 ]
				}

			}
, 			{
				"patchline" : 				{
					"source" : [ "obj-8", 0 ],
					"destination" : [ "obj-6", 1 ],
					"hidden" : 0,
					"color" : [ 0.0, 0.0, 0.0, 1.0 ],
					"midpoints" : [ 119.5, 303.0, 30.0, 303.0 ]
				}

			}
, 			{
				"patchline" : 				{
					"source" : [ "obj-6", 0 ],
					"destination" : [ "obj-31", 0 ],
					"hidden" : 0,
					"color" : [ 0.0, 0.0, 0.0, 1.0 ],
					"midpoints" : [  ]
				}

			}
, 			{
				"patchline" : 				{
					"source" : [ "obj-13", 0 ],
					"destination" : [ "obj-6", 0 ],
					"hidden" : 0,
					"color" : [ 0.0, 0.0, 0.0, 1.0 ],
					"midpoints" : [  ]
				}

			}
, 			{
				"patchline" : 				{
					"source" : [ "obj-17", 0 ],
					"destination" : [ "obj-13", 0 ],
					"hidden" : 0,
					"color" : [ 0.0, 0.0, 0.0, 1.0 ],
					"midpoints" : [  ]
				}

			}
, 			{
				"patchline" : 				{
					"source" : [ "obj-16", 0 ],
					"destination" : [ "obj-17", 0 ],
					"hidden" : 0,
					"color" : [ 0.0, 0.0, 0.0, 1.0 ],
					"midpoints" : [  ]
				}

			}
 ]
	}

}
