#N canvas 408 103 694 587 10;
#X obj 309 -699 hoa.pi 2;
#X obj 309 -728 loadbang;
#X obj 228 -656 *~;
#X obj 228 -699 phasor~ 0.1;
#X msg 428 -749 \; pd dsp 1;
#X msg 428 -711 \; pd dsp 0;
#X obj 273 -584 c.number @size 53 17 @fontname Helvetica @fontweight
normal @fontslant roman @fontsize 11 @receive (null) @send (null) @presetname
(null) @min 1 @max (null) @minmax 1 (null) @decimal 0 @bgcolor 0.75
0.75 0.75 1 @bdcolor 0.5 0.5 0.5 1 @textcolor 0 0 0 1;
#X msg 273 -558 order \$1;
#X obj 363 -529 s hoascope;
#X obj 273 -607 c.loadmess 7;
#X obj 363 -584 c.number @size 53 17 @fontname Helvetica @fontweight
normal @fontslant roman @fontsize 11 @receive (null) @send (null) @presetname
(null) @min 1 @max (null) @minmax 1 (null) @decimal 6 @bgcolor 0.75
0.75 0.75 1 @bdcolor 0.5 0.5 0.5 1 @textcolor 0 0 0 1;
#X msg 363 -558 gain \$1;
#X obj 363 -607 c.loadmess 1;
#X obj 453 -584 c.number @size 53 17 @fontname Helvetica @fontweight
normal @fontslant roman @fontsize 11 @receive (null) @send (null) @presetname
(null) @min 20 @max 1000 @minmax 20 1000 @decimal 0 @bgcolor 0.75 0.75
0.75 1 @bdcolor 0.5 0.5 0.5 1 @textcolor 0 0 0 1;
#X msg 453 -558 interval \$1;
#X obj 412 -379 s hoascope;
#X obj 272 -450 c.colorpanel @size 97 14 @fontname Helvetica @fontweight
normal @fontslant roman @fontsize 11 @receive (null) @send (null) @presetname
(null) @matrix 8 1 @reverse 0 @saturation 1 @hue 0 @lightness 0.5 @bgcolor
0.75 0.75 0.75 1 @bdcolor 0.5 0.5 0.5 1;
#X obj 272 -431 c.prepend phcolor;
#X obj 412 -450 c.colorpanel @size 97 14 @fontname Helvetica @fontweight
normal @fontslant roman @fontsize 11 @receive (null) @send (null) @presetname
(null) @matrix 8 1 @reverse 0 @saturation 1 @hue 0.65 @lightness 0.5
@bgcolor 0.75 0.75 0.75 1 @bdcolor 0.5 0.5 0.5 1;
#X text 271 -631 order :;
#X text 271 -641 Ambisonic;
#X text 361 -641 Gain :;
#X text 451 -631 interval :;
#X text 271 -481 color :;
#X text 271 -491 Positive;
#X text 411 -481 color :;
#X text 411 -491 Negative;
#X obj 27 -667 osc~ 0.1;
#X text 451 -641 Refresh;
#X obj 453 -607 c.loadmess 20;
#X obj 412 -431 c.prepend nhcolor;
#X obj 27 -570 hoa.2d.scope~ @size 207 207 @fontname Helvetica @fontweight
normal @fontslant roman @fontsize 11 @receive hoascope @send (null)
@order 7 @gain 1 @interval 20 @bgcolor 0.76 0.76 0.76 1 @bdcolor 0.7
0.7 0.7 1 @phcolor 1 0 0 1 @nhcolor 0 0 1 1;
#X obj 27 -616 hoa.2d.encoder~ 7 ----------------;
#X text -15 -761 hoa.2d.scope~ displays the circular harmonics of an
ambisonic sound field on a disc.;
#X obj 81 -335 hoa.help.pub;
#X obj 473 -317 hoa.connect;
#X obj 473 -337 bng 15 250 50 0 empty empty empty 17 7 0 10 -262144
-1 -1;
#X obj 2 -795 c.patcherinfos;
#X obj 7 -812 loadbang;
#X obj -13 -812 hoa.help.header;
#X obj 396 -812 hoa.help.also;
#X connect 0 0 2 1;
#X connect 1 0 0 0;
#X connect 2 0 32 1;
#X connect 3 0 2 0;
#X connect 6 0 7 0;
#X connect 7 0 8 0;
#X connect 9 0 6 0;
#X connect 10 0 11 0;
#X connect 11 0 8 0;
#X connect 12 0 10 0;
#X connect 13 0 14 0;
#X connect 14 0 8 0;
#X connect 16 0 17 0;
#X connect 17 0 15 0;
#X connect 18 0 30 0;
#X connect 27 0 32 0;
#X connect 29 0 13 0;
#X connect 30 0 15 0;
#X connect 32 0 31 0;
#X connect 32 1 31 1;
#X connect 32 2 31 2;
#X connect 32 3 31 3;
#X connect 32 4 31 4;
#X connect 32 5 31 5;
#X connect 32 6 31 6;
#X connect 32 7 31 7;
#X connect 32 8 31 8;
#X connect 32 9 31 9;
#X connect 32 10 31 10;
#X connect 32 11 31 11;
#X connect 32 12 31 12;
#X connect 32 13 31 13;
#X connect 32 14 31 14;
#X connect 36 0 35 0;
#X connect 37 0 39 0;
#X connect 38 0 37 0;
#X coords 0 587 1 586 85 60 0;
