#N canvas 248 42 837 726 10;
#X declare -lib HoaLibrary/hoa.library;
#X declare -lib hoa.library;
#X obj -610 -471 cnv 15 552 40 empty \$0-pddp.cnv.header hoa.2d.map
3 12 0 18 -228856 -1 0;
#X text -544 216 Eliott Paris © 2012-2013 CICM / Universite Paris
8;
#X text -544 200 hoalibrary | Julien Colafrancesco \, Pierre Guillot
;
#X text -252 -185 Mousewheel and alt to change the zoom.;
#X text -605 -450 A GUI to spatialize sources on a map.;
#X obj -559 -303 hoa.2d.map @size 225 225 @fontname Helvetica @fontweight
normal @fontslant roman @fontsize 11 @receive (null) @send (null) @presetname
hoamapexample @bgcolor 0.76 0.76 0.76 1 @bdcolor 0.7 0.7 0.7 1 @outputmode
polar @zoom 0.35;
#X obj -559 -328 c.loadmess;
#X msg -147 97 \; pd dsp 1;
#X msg -147 132 \; pd dsp 0;
#X text -605 -429 hoa.2d.map allows you to spatialize several sources
on a plane. You can add and remove sources \, change coordinates \,
add description and create groups., f 90;
#X obj -30 -437 hoa.connect;
#X obj -30 -462 bng 15 250 50 0 empty empty empty 17 7 0 10 -262144
-1 -1;
#X obj -559 -53 c.loadmess 1;
#X text -254 -380 To move source or group \, click on it and drag it.
Click and drag with alt to change the radius. Click and drag with shift
to change the angle.;
#X text -253 -328 To create source \, right-click or click with cmd
on a "free" zone then select "Add source" in the popup menu. To remove
source \, idem and select "Remove source".;
#X text -252 -274 To create group \, drag select a set of sources \,
when mouse up the group will be created. To remove group \, right-click
or click with cmd on group then select "Remove group".;
#X text -254 -223 To mute source or group \, right-click or click with
cmd on it and select "Mute" or "Unmute".;
#X obj -559 2 hoa.2d.map~ 3 4 -------------------------;
#N canvas 284 119 577 458 hoa.rhythm 0;
#X msg 231 -105 0;
#X obj 158 21 *~ 0;
#X msg 211 -33 0;
#X obj 204 -105 + 1;
#X obj 179 -104 f;
#X obj 8 21 *~ 0;
#X msg 61 -33 0;
#X obj 54 -105 + 1;
#X obj 29 -104 f;
#X msg 81 -105 0;
#X obj 29 -82 sel 0 4;
#X obj 61 -56 delay 3;
#X obj -112 57 *~ 0;
#X msg -59 -13 0;
#X obj -66 -85 + 1;
#X obj -91 -84 f;
#X msg -39 -85 0;
#X obj -91 -62 sel 0 6;
#X obj -62 231 *~ 0;
#X msg -9 177 0;
#X obj -9 154 delay 1;
#X obj -16 105 + 1;
#X obj -41 106 f;
#X msg 11 105 0;
#X obj -41 128 sel 0 2;
#X obj -62 200 osc~ 0.05;
#X obj -112 11 phasor~ 0.1;
#X obj -59 -36 delay 3;
#X obj -112 32 +~ 0.2;
#X obj 56 -9 osc~ 3.7;
#X obj 211 -59 delay 5;
#X obj -32 32 +~ 0.2;
#X obj 61 18 abs~;
#X obj 191 -166 nbx 5 14 -1e+37 1e+37 0 0 empty empty empty 0 -8 0
10 -262144 -1 -1 0 256;
#X obj 145 -194 tgl 15 0 empty empty empty 17 7 0 10 -262144 -1 -1
1 1;
#X obj 179 -82 sel 1 3 8;
#X obj 29 -138 metro 120;
#X msg -91 -13 0.8;
#X msg 29 -33 0.8;
#X obj 136 -66 noise~;
#X obj 144 -12 lop~ 200;
#X msg 179 -33 4;
#X msg -41 177 0.7;
#X obj 120 105 outlet~;
#X obj 180 105 outlet~;
#X obj 180 145 outlet~;
#X obj 120 145 outlet~;
#X obj 351 -46 inlet;
#X connect 0 0 4 0;
#X connect 1 0 44 0;
#X connect 2 0 1 1;
#X connect 3 0 4 1;
#X connect 4 0 3 0;
#X connect 4 0 35 0;
#X connect 5 0 43 0;
#X connect 6 0 5 1;
#X connect 7 0 8 1;
#X connect 8 0 7 0;
#X connect 8 0 10 0;
#X connect 9 0 8 0;
#X connect 10 0 38 0;
#X connect 10 0 11 0;
#X connect 10 1 9 0;
#X connect 11 0 6 0;
#X connect 12 0 46 0;
#X connect 13 0 12 1;
#X connect 14 0 15 1;
#X connect 15 0 14 0;
#X connect 15 0 17 0;
#X connect 16 0 15 0;
#X connect 17 0 37 0;
#X connect 17 0 27 0;
#X connect 17 1 16 0;
#X connect 18 0 45 0;
#X connect 19 0 18 1;
#X connect 20 0 19 0;
#X connect 21 0 22 1;
#X connect 22 0 21 0;
#X connect 22 0 24 0;
#X connect 23 0 22 0;
#X connect 24 0 42 0;
#X connect 24 0 20 0;
#X connect 24 1 23 0;
#X connect 25 0 18 0;
#X connect 26 0 28 0;
#X connect 27 0 13 0;
#X connect 28 0 12 0;
#X connect 29 0 32 0;
#X connect 30 0 2 0;
#X connect 31 0 5 0;
#X connect 32 0 31 0;
#X connect 33 0 36 1;
#X connect 34 0 36 0;
#X connect 35 0 41 0;
#X connect 35 0 30 0;
#X connect 35 1 41 0;
#X connect 35 1 30 0;
#X connect 35 2 0 0;
#X connect 36 0 4 0;
#X connect 36 0 8 0;
#X connect 36 0 15 0;
#X connect 36 0 22 0;
#X connect 37 0 12 1;
#X connect 38 0 5 1;
#X connect 39 0 40 0;
#X connect 40 0 1 0;
#X connect 41 0 1 1;
#X connect 42 0 18 1;
#X connect 47 0 34 0;
#X restore -559 -30 pd hoa.rhythm ---------------------------;
#X msg -274 40 roomsize \$1;
#X obj -274 8 c.number @size 53 17 @fontname Helvetica @fontweight
normal @fontslant roman @fontsize 11 @receive (null) @send (null) @presetname
(null) @min 0 @max 1 @minmax 0 1 @decimal 6 @bgcolor 0.75 0.75 0.75
1 @bdcolor 0.5 0.5 0.5 1 @textcolor 0 0 0 1;
#X obj -183 9 c.number @size 53 17 @fontname Helvetica @fontweight
normal @fontslant roman @fontsize 11 @receive (null) @send (null) @presetname
(null) @min 0 @max 1 @minmax 0 1 @decimal 6 @bgcolor 0.75 0.75 0.75
1 @bdcolor 0.5 0.5 0.5 1 @textcolor 0 0 0 1;
#X obj -559 37 hoa.2d.optim~ 3 inPhase -----------------;
#N canvas 153 23 1155 646 messages 0;
#X msg -518 -122 zoom \$1;
#X text -531 -173 Set the zoom;
#X obj -96 13 send map_mes;
#X msg -196 -83 source 0 pol 1 3.14;
#X msg -150 -59 group 0 car 0.5 0.5;
#X text -202 -216 Display source or group and set coordinates with
"source" or "group" message followed by an integer for the index \,
the type of coordinates and one or two floating values for coordinates.
The coordinates types accepted are "polar" (or "pol") \, "cartesian"
(or "car") \, "radius" \, "angle" \, "abscissa" \, "ordinate". The
polar type is followed by the radius then the angle and the cartesian
type is followed by the abscissa then the ordinate. Exemple : "source
0 car 1 0.".;
#X text 196 -216 Set descriptions with "source" or "group" message
followed by an integer for the index \, the "description" message and
everything you want for the description. Set "remove" instead of the
description to remove the description. Exemple : "source 0 description
Jimi Hendrix".;
#X obj 195 -77 send map_mes;
#X msg -50 -83 source 1 abscissa 2.5;
#X msg -18 -58 group 0 angle 1.14;
#X text 199 -40 Set colors with "source" or "group" message followed
by an integer for the index \, the "color" message and four floating
values for red \, green \, blue and alpha (ok... there's no alpha).
Exemple : "source 0 color 1 0.2 0.6 1;
#X obj 207 92 send map_mes;
#X msg 207 41 source 1 color 0.7 0 0.6 1;
#X obj -38 176 send map_mes;
#X text -184 39 Mute with the "mute" message".;
#X msg -44 144 source 1 mute \$1;
#X msg -121 88 source 0 mute \$1;
#X msg 32 123 group 0 mute \$1;
#X text 197 129 Remove a source or group with the "remove" message".
Note that remove will also remove coordinates \, descriptions \, color
and send a message to hoa.2D.map~ to mute the source (exept for groups).
;
#X obj 210 242 send map_mes;
#X msg 210 191 group 1 remove;
#X msg 232 214 source 3 remove;
#X msg -331 -121 clear;
#X msg -50 -30 source 3 car 0.2 -0.7;
#X text -194 214 Create a group with the "group" message followed by
an integer for the group index \, "set" message and a list of intergers
\, the indexs of source to put in the group. Exemple : "group 0 set
1 2 3 4".;
#X msg -181 292 group 1 set 0 1 3;
#X obj -181 332 send map_mes;
#X text -71 290 (create the source 3 before);
#X text 305 191 (create the group 1 before);
#X text 328 213 (create the source 3 before);
#X text -441 -149 Bang to output;
#X obj -518 -152 c.number @size 53 17 @fontname Helvetica @fontweight
normal @fontslant roman @fontsize 11 @receive (null) @send (null) @presetname
(null) @min 0.2 @max 1 @minmax 0.2 1 @decimal 6 @bgcolor 0.75 0.75
0.75 1 @bdcolor 0.5 0.5 0.5 1 @textcolor 0 0 0 1;
#X obj -436 -122 c.bang @size 17 17 @fontname Helvetica @fontweight
normal @fontslant roman @fontsize 11 @receive (null) @send (null) @bgcolor
0.75 0.75 0.75 1 @bdcolor 0.5 0.5 0.5 1 @bacolor 0 0 0 1;
#X obj 32 96 c.toggle @size 15 15 @fontname Helvetica @fontweight normal
@fontslant roman @fontsize 11 @receive (null) @send (null) @presetname
(null) @bgcolor 0.75 0.75 0.75 1 @bdcolor 0.5 0.5 0.5 1 @crcolor 0.5
0.5 0.5 1;
#X obj -121 66 c.toggle @size 15 15 @fontname Helvetica @fontweight
normal @fontslant roman @fontsize 11 @receive (null) @send (null) @presetname
(null) @bgcolor 0.75 0.75 0.75 1 @bdcolor 0.5 0.5 0.5 1 @crcolor 0.5
0.5 0.5 1;
#X obj -44 116 c.toggle @size 15 15 @fontname Helvetica @fontweight
normal @fontslant roman @fontsize 11 @receive (null) @send (null) @presetname
(null) @bgcolor 0.75 0.75 0.75 1 @bdcolor 0.5 0.5 0.5 1 @crcolor 0.5
0.5 0.5 1;
#X msg 195 -128 source 1 description Jimi Hendrix;
#X msg 217 -105 group 1 description Band of Gypsys;
#X msg 229 64 group 1 color 0.2 0.9 0 1;
#X obj -518 -68 hoa.2d.map @size 225 225 @fontname Helvetica @fontweight
normal @fontslant roman @fontsize 11 @receive map_mes @send (null)
@presetname (null) @bgcolor 0.76 0.76 0.76 1 @bdcolor 0.7 0.7 0.7 1
@outputmode polar @zoom 0.35;
#X obj -534 -270 cnv 15 552 40 empty \$0-pddp.cnv.header hoa.2d.map
3 12 0 18 -228856 -1 0;
#X text -529 -249 A GUI to spatialize sources on a map.;
#X text 52 -250 Eliott Paris © 2012-2013 CICM / Universite Paris 8
;
#X text 52 -266 hoalibrary | Julien Colafrancesco \, Pierre Guillot
;
#X text -531 -225 Manage hoa.2d.map with messages.;
#X text -332 -146 Clear all;
#X connect 0 0 39 0;
#X connect 3 0 2 0;
#X connect 4 0 2 0;
#X connect 8 0 2 0;
#X connect 9 0 2 0;
#X connect 12 0 11 0;
#X connect 15 0 13 0;
#X connect 16 0 13 0;
#X connect 17 0 13 0;
#X connect 20 0 19 0;
#X connect 21 0 19 0;
#X connect 22 0 39 0;
#X connect 23 0 2 0;
#X connect 25 0 26 0;
#X connect 31 0 0 0;
#X connect 32 0 39 0;
#X connect 33 0 17 0;
#X connect 34 0 16 0;
#X connect 35 0 15 0;
#X connect 36 0 7 0;
#X connect 37 0 7 0;
#X connect 38 0 11 0;
#X restore -249 -149 pd messages;
#N canvas 161 119 804 672 outputs 0;
#X obj -540 -463 cnv 15 552 40 empty \$0-pddp.cnv.header hoa.2d.map
3 12 0 18 -228856 -1 0;
#X text -535 -442 A GUI to spatialize sources on a map.;
#X text -480 141 Eliott Paris © 2012-2013 CICM / Universite Paris
8;
#X text -480 125 hoalibrary | Julien Colafrancesco \, Pierre Guillot
;
#X obj -504 45 send map_outs_sources;
#X obj -357 47 send map_outs_groups;
#X msg -382 -326 getinfo;
#X obj -27 -403 receive map_outs_sources;
#X text -305 -381 Change the coordinates type;
#X obj -27 -370 route 0 1;
#X obj -31 -145 receive map_outs_groups;
#X obj -210 48 route source group slot;
#X obj -210 22 route list;
#X obj -504 -287 hoa.2d.map @size 225 225 @fontname Helvetica @fontweight
normal @fontslant roman @fontsize 11 @receive (null) @send (null) @presetname
(null) @bgcolor 0.76 0.76 0.76 1 @bdcolor 0.7 0.7 0.7 1 @outputmode
polar @zoom 0.35;
#X obj -504 -328 c.bang @size 17 17 @fontname Helvetica @fontweight
normal @fontslant roman @fontsize 11 @receive (null) @send (null) @bgcolor
0.75 0.75 0.75 1 @bdcolor 0.5 0.5 0.5 1 @bacolor 0 0 0 1;
#X text -537 -416 hoa.2d.map outputs.;
#X text -529 -372 Outputs sources;
#X text -541 -356 and groups coordinates;
#X msg -265 -330 outputmode \$1;
#X obj -263 -356 c.menu @size 85 17 @fontname Helvetica @fontweight
normal @fontslant roman @fontsize 11 @receive (null) @send (null) @presetname
(null) @hover 0 @items polar cartesian @states 0 0 @bgcolor 0.75 0.75
0.75 1 @bdcolor 0.5 0.5 0.5 1 @textcolor 0 0 0 1;
#X text -394 -360 Output general;
#X text -390 -345 informations;
#X obj 26 49 c.prepend set;
#X msg 26 81 cartesian -0.00133376 -0.901368;
#X obj -31 19 route mute;
#X obj -31 81 c.toggle @size 15 15 @fontname Helvetica @fontweight
normal @fontslant roman @fontsize 11 @receive (null) @send (null) @presetname
(null) @bgcolor 0.75 0.75 0.75 1 @bdcolor 0.5 0.5 0.5 1 @crcolor 0.5
0.5 0.5 1;
#X text 38 -107 Route group by index;
#X obj 30 -213 c.prepend set;
#X msg 30 -181 cartesian -2.09075 -1.23738;
#X obj -27 -243 route mute;
#X obj -27 -181 c.toggle @size 15 15 @fontname Helvetica @fontweight
normal @fontslant roman @fontsize 11 @receive (null) @send (null) @presetname
(null) @bgcolor 0.75 0.75 0.75 1 @bdcolor 0.5 0.5 0.5 1 @crcolor 0.5
0.5 0.5 1;
#X obj 55 -303 c.prepend set;
#X msg 55 -271 cartesian 2.08808 -0.565355;
#X obj -2 -333 route mute;
#X obj -2 -271 c.toggle @size 15 15 @fontname Helvetica @fontweight
normal @fontslant roman @fontsize 11 @receive (null) @send (null) @presetname
(null) @bgcolor 0.75 0.75 0.75 1 @bdcolor 0.5 0.5 0.5 1 @crcolor 0.5
0.5 0.5 1;
#X obj 51 -52 c.prepend set;
#X msg 51 -20 cartesian 0.938703 0.76803;
#X obj -6 -82 route mute;
#X obj -6 -20 c.toggle @size 15 15 @fontname Helvetica @fontweight
normal @fontslant roman @fontsize 11 @receive (null) @send (null) @presetname
(null) @bgcolor 0.75 0.75 0.75 1 @bdcolor 0.5 0.5 0.5 1 @crcolor 0.5
0.5 0.5 1;
#X obj -31 -109 route 0 1;
#X text 39 -370 Route source by index;
#X obj -120 126 print slot;
#X obj -165 99 print group;
#X obj -210 74 print source;
#X connect 6 0 13 0;
#X connect 7 0 9 0;
#X connect 9 0 29 0;
#X connect 9 1 33 0;
#X connect 10 0 39 0;
#X connect 11 0 43 0;
#X connect 11 1 42 0;
#X connect 11 2 41 0;
#X connect 12 0 11 0;
#X connect 13 0 4 0;
#X connect 13 1 5 0;
#X connect 13 2 12 0;
#X connect 14 0 13 0;
#X connect 18 0 13 0;
#X connect 19 1 18 0;
#X connect 22 0 23 0;
#X connect 24 0 25 0;
#X connect 24 1 22 0;
#X connect 27 0 28 0;
#X connect 29 0 30 0;
#X connect 29 1 27 0;
#X connect 31 0 32 0;
#X connect 33 0 34 0;
#X connect 33 1 31 0;
#X connect 35 0 36 0;
#X connect 37 0 38 0;
#X connect 37 1 35 0;
#X connect 39 0 24 0;
#X connect 39 1 37 0;
#X restore -248 -101 pd outputs;
#X obj -213 214 declare -lib HoaLibrary/hoa.library;
#X obj -213 193 declare -lib hoa.library;
#X obj -42 46 c.preset @size 107 41 @fontname Helvetica @fontweight
normal @fontslant roman @fontsize 11 @receive (null) @send (null) @bgcolor
0.75 0.75 0.75 1 @bdcolor 0.5 0.5 0.5 1 @textcolor 0 0 0 1 @emcolor
0.85 0.85 0.85 1 @stcolor 0.5 0.5 0.5 1 @secolor 0.15 0.15 0.15 1 @preset
[ @index 0 @hoamapexample hoa.2d.map sources_preset source 0 1 1.28105
0.96732 0 0.2 0.2 0.2 1 Click source 1 1 1.54248 -1.38562 0 0.2 0.2
0.2 1 Crack source 2 1 -1.43791 0.96732 0 0.2 0.2 0.2 1 Boom source
3 1 -1.43791 -1.22876 0 0.2 0.2 0.2 1 Flam source 4 0 0 0 0 0 0 0 0
(null) source 5 0 0 0 0 0 0 0 0 (null) source 6 0 0 0 0 0 0 0 0 (null)
source 7 0 0 0 0 0 0 0 0 (null) source 8 0 0 0 0 0 0 0 0 (null) source
9 0 0 0 0 0 0 0 0 (null) source 10 0 0 0 0 0 0 0 0 (null) source 11
0 0 0 0 0 0 0 0 (null) source 12 0 0 0 0 0 0 0 0 (null) source 13 0
0 0 0 0 0 0 0 (null) source 14 0 0 0 0 0 0 0 0 (null) source 15 0 0
0 0 0 0 0 0 (null) source 16 0 0 0 0 0 0 0 0 (null) source 17 0 0 0
0 0 0 0 0 (null) source 18 0 0 0 0 0 0 0 0 (null) source 19 0 0 0 0
0 0 0 0 (null) source 20 0 0 0 0 0 0 0 0 (null) source 21 0 0 0 0 0
0 0 0 (null) source 22 0 0 0 0 0 0 0 0 (null) source 23 0 0 0 0 0 0
0 0 (null) source 24 0 0 0 0 0 0 0 0 (null) source 25 0 0 0 0 0 0 0
0 (null) source 26 0 0 0 0 0 0 0 0 (null) source 27 0 0 0 0 0 0 0 0
(null) source 28 0 0 0 0 0 0 0 0 (null) source 29 0 0 0 0 0 0 0 0 (null)
source 30 0 0 0 0 0 0 0 0 (null) source 31 0 0 0 0 0 0 0 0 (null) source
32 0 0 0 0 0 0 0 0 (null) source 33 0 0 0 0 0 0 0 0 (null) source 34
0 0 0 0 0 0 0 0 (null) source 35 0 0 0 0 0 0 0 0 (null) source 36 0
0 0 0 0 0 0 0 (null) source 37 0 0 0 0 0 0 0 0 (null) source 38 0 0
0 0 0 0 0 0 (null) source 39 0 0 0 0 0 0 0 0 (null) source 40 0 0 0
0 0 0 0 0 (null) source 41 0 0 0 0 0 0 0 0 (null) source 42 0 0 0 0
0 0 0 0 (null) source 43 0 0 0 0 0 0 0 0 (null) source 44 0 0 0 0 0
0 0 0 (null) source 45 0 0 0 0 0 0 0 0 (null) source 46 0 0 0 0 0 0
0 0 (null) source 47 0 0 0 0 0 0 0 0 (null) source 48 0 0 0 0 0 0 0
0 (null) source 49 0 0 0 0 0 0 0 0 (null) source 50 0 0 0 0 0 0 0 0
(null) source 51 0 0 0 0 0 0 0 0 (null) source 52 0 0 0 0 0 0 0 0 (null)
source 53 0 0 0 0 0 0 0 0 (null) source 54 0 0 0 0 0 0 0 0 (null) source
55 0 0 0 0 0 0 0 0 (null) source 56 0 0 0 0 0 0 0 0 (null) source 57
0 0 0 0 0 0 0 0 (null) source 58 0 0 0 0 0 0 0 0 (null) source 59 0
0 0 0 0 0 0 0 (null) source 60 0 0 0 0 0 0 0 0 (null) source 61 0 0
0 0 0 0 0 0 (null) source 62 0 0 0 0 0 0 0 0 (null) source 63 0 0 0
0 0 0 0 0 (null) @index 1 @hoamapexample hoa.2d.map sources_preset
source 0 1 0.592396 -1.49193 0 0.2 0.2 0.2 1 Click source 1 1 -1.74549
-1.11914 0 0.2 0.2 0.2 1 Crack source 2 1 1.31444 1.1294 0 0.2 0.2
0.2 1 Boom source 3 1 -0.80279 1.71259 0 0.2 0.2 0.2 1 Flam source
4 0 0 0 0 0 0 0 0 (null) source 5 0 0 0 0 0 0 0 0 (null) source 6 0
0 0 0 0 0 0 0 (null) source 7 0 0 0 0 0 0 0 0 (null) source 8 0 0 0
0 0 0 0 0 (null) source 9 0 0 0 0 0 0 0 0 (null) source 10 0 0 0 0
0 0 0 0 (null) source 11 0 0 0 0 0 0 0 0 (null) source 12 0 0 0 0 0
0 0 0 (null) source 13 0 0 0 0 0 0 0 0 (null) source 14 0 0 0 0 0 0
0 0 (null) source 15 0 0 0 0 0 0 0 0 (null) source 16 0 0 0 0 0 0 0
0 (null) source 17 0 0 0 0 0 0 0 0 (null) source 18 0 0 0 0 0 0 0 0
(null) source 19 0 0 0 0 0 0 0 0 (null) source 20 0 0 0 0 0 0 0 0 (null)
source 21 0 0 0 0 0 0 0 0 (null) source 22 0 0 0 0 0 0 0 0 (null) source
23 0 0 0 0 0 0 0 0 (null) source 24 0 0 0 0 0 0 0 0 (null) source 25
0 0 0 0 0 0 0 0 (null) source 26 0 0 0 0 0 0 0 0 (null) source 27 0
0 0 0 0 0 0 0 (null) source 28 0 0 0 0 0 0 0 0 (null) source 29 0 0
0 0 0 0 0 0 (null) source 30 0 0 0 0 0 0 0 0 (null) source 31 0 0 0
0 0 0 0 0 (null) source 32 0 0 0 0 0 0 0 0 (null) source 33 0 0 0 0
0 0 0 0 (null) source 34 0 0 0 0 0 0 0 0 (null) source 35 0 0 0 0 0
0 0 0 (null) source 36 0 0 0 0 0 0 0 0 (null) source 37 0 0 0 0 0 0
0 0 (null) source 38 0 0 0 0 0 0 0 0 (null) source 39 0 0 0 0 0 0 0
0 (null) source 40 0 0 0 0 0 0 0 0 (null) source 41 0 0 0 0 0 0 0 0
(null) source 42 0 0 0 0 0 0 0 0 (null) source 43 0 0 0 0 0 0 0 0 (null)
source 44 0 0 0 0 0 0 0 0 (null) source 45 0 0 0 0 0 0 0 0 (null) source
46 0 0 0 0 0 0 0 0 (null) source 47 0 0 0 0 0 0 0 0 (null) source 48
0 0 0 0 0 0 0 0 (null) source 49 0 0 0 0 0 0 0 0 (null) source 50 0
0 0 0 0 0 0 0 (null) source 51 0 0 0 0 0 0 0 0 (null) source 52 0 0
0 0 0 0 0 0 (null) source 53 0 0 0 0 0 0 0 0 (null) source 54 0 0 0
0 0 0 0 0 (null) source 55 0 0 0 0 0 0 0 0 (null) source 56 0 0 0 0
0 0 0 0 (null) source 57 0 0 0 0 0 0 0 0 (null) source 58 0 0 0 0 0
0 0 0 (null) source 59 0 0 0 0 0 0 0 0 (null) source 60 0 0 0 0 0 0
0 0 (null) source 61 0 0 0 0 0 0 0 0 (null) source 62 0 0 0 0 0 0 0
0 (null) source 63 0 0 0 0 0 0 0 0 (null) @index 2 @hoamapexample hoa.2d.map
sources_preset source 0 1 0 0 0 0.2 0.2 0.2 1 Click source 1 1 1.91568
1.13915 0 0.2 0.2 0.2 1 Crack source 2 1 0.701111 -1.2832 0 0.2 0.2
0.2 1 Boom source 3 1 2.48809 -1.08371 0 0.2 0.2 0.2 1 Flam source
4 0 0 0 0 0 0 0 0 (null) source 5 0 0 0 0 0 0 0 0 (null) source 6 0
0 0 0 0 0 0 0 (null) source 7 0 0 0 0 0 0 0 0 (null) source 8 0 0 0
0 0 0 0 0 (null) source 9 0 0 0 0 0 0 0 0 (null) source 10 0 0 0 0
0 0 0 0 (null) source 11 0 0 0 0 0 0 0 0 (null) source 12 0 0 0 0 0
0 0 0 (null) source 13 0 0 0 0 0 0 0 0 (null) source 14 0 0 0 0 0 0
0 0 (null) source 15 0 0 0 0 0 0 0 0 (null) source 16 0 0 0 0 0 0 0
0 (null) source 17 0 0 0 0 0 0 0 0 (null) source 18 0 0 0 0 0 0 0 0
(null) source 19 0 0 0 0 0 0 0 0 (null) source 20 0 0 0 0 0 0 0 0 (null)
source 21 0 0 0 0 0 0 0 0 (null) source 22 0 0 0 0 0 0 0 0 (null) source
23 0 0 0 0 0 0 0 0 (null) source 24 0 0 0 0 0 0 0 0 (null) source 25
0 0 0 0 0 0 0 0 (null) source 26 0 0 0 0 0 0 0 0 (null) source 27 0
0 0 0 0 0 0 0 (null) source 28 0 0 0 0 0 0 0 0 (null) source 29 0 0
0 0 0 0 0 0 (null) source 30 0 0 0 0 0 0 0 0 (null) source 31 0 0 0
0 0 0 0 0 (null) source 32 0 0 0 0 0 0 0 0 (null) source 33 0 0 0 0
0 0 0 0 (null) source 34 0 0 0 0 0 0 0 0 (null) source 35 0 0 0 0 0
0 0 0 (null) source 36 0 0 0 0 0 0 0 0 (null) source 37 0 0 0 0 0 0
0 0 (null) source 38 0 0 0 0 0 0 0 0 (null) source 39 0 0 0 0 0 0 0
0 (null) source 40 0 0 0 0 0 0 0 0 (null) source 41 0 0 0 0 0 0 0 0
(null) source 42 0 0 0 0 0 0 0 0 (null) source 43 0 0 0 0 0 0 0 0 (null)
source 44 0 0 0 0 0 0 0 0 (null) source 45 0 0 0 0 0 0 0 0 (null) source
46 0 0 0 0 0 0 0 0 (null) source 47 0 0 0 0 0 0 0 0 (null) source 48
0 0 0 0 0 0 0 0 (null) source 49 0 0 0 0 0 0 0 0 (null) source 50 0
0 0 0 0 0 0 0 (null) source 51 0 0 0 0 0 0 0 0 (null) source 52 0 0
0 0 0 0 0 0 (null) source 53 0 0 0 0 0 0 0 0 (null) source 54 0 0 0
0 0 0 0 0 (null) source 55 0 0 0 0 0 0 0 0 (null) source 56 0 0 0 0
0 0 0 0 (null) source 57 0 0 0 0 0 0 0 0 (null) source 58 0 0 0 0 0
0 0 0 (null) source 59 0 0 0 0 0 0 0 0 (null) source 60 0 0 0 0 0 0
0 0 (null) source 61 0 0 0 0 0 0 0 0 (null) source 62 0 0 0 0 0 0 0
0 (null) source 63 0 0 0 0 0 0 0 0 (null) @index 3 @hoamapexample hoa.2d.map
sources_preset source 0 1 -1.88922 0.0884151 0 0.2 0.2 0.2 1 Click
source 1 1 0.524538 2.92393 0 0.2 0.2 0.2 1 Crack source 2 1 0.733692
-1.74169 0 0.2 0.2 0.2 1 Boom source 3 1 2.86765 0.277803 0 0.2 0.2
0.2 1 Flam source 4 0 0 0 0 0 0 0 0 (null) source 5 0 0 0 0 0 0 0 0
(null) source 6 0 0 0 0 0 0 0 0 (null) source 7 0 0 0 0 0 0 0 0 (null)
source 8 0 0 0 0 0 0 0 0 (null) source 9 0 0 0 0 0 0 0 0 (null) source
10 0 0 0 0 0 0 0 0 (null) source 11 0 0 0 0 0 0 0 0 (null) source 12
0 0 0 0 0 0 0 0 (null) source 13 0 0 0 0 0 0 0 0 (null) source 14 0
0 0 0 0 0 0 0 (null) source 15 0 0 0 0 0 0 0 0 (null) source 16 0 0
0 0 0 0 0 0 (null) source 17 0 0 0 0 0 0 0 0 (null) source 18 0 0 0
0 0 0 0 0 (null) source 19 0 0 0 0 0 0 0 0 (null) source 20 0 0 0 0
0 0 0 0 (null) source 21 0 0 0 0 0 0 0 0 (null) source 22 0 0 0 0 0
0 0 0 (null) source 23 0 0 0 0 0 0 0 0 (null) source 24 0 0 0 0 0 0
0 0 (null) source 25 0 0 0 0 0 0 0 0 (null) source 26 0 0 0 0 0 0 0
0 (null) source 27 0 0 0 0 0 0 0 0 (null) source 28 0 0 0 0 0 0 0 0
(null) source 29 0 0 0 0 0 0 0 0 (null) source 30 0 0 0 0 0 0 0 0 (null)
source 31 0 0 0 0 0 0 0 0 (null) source 32 0 0 0 0 0 0 0 0 (null) source
33 0 0 0 0 0 0 0 0 (null) source 34 0 0 0 0 0 0 0 0 (null) source 35
0 0 0 0 0 0 0 0 (null) source 36 0 0 0 0 0 0 0 0 (null) source 37 0
0 0 0 0 0 0 0 (null) source 38 0 0 0 0 0 0 0 0 (null) source 39 0 0
0 0 0 0 0 0 (null) source 40 0 0 0 0 0 0 0 0 (null) source 41 0 0 0
0 0 0 0 0 (null) source 42 0 0 0 0 0 0 0 0 (null) source 43 0 0 0 0
0 0 0 0 (null) source 44 0 0 0 0 0 0 0 0 (null) source 45 0 0 0 0 0
0 0 0 (null) source 46 0 0 0 0 0 0 0 0 (null) source 47 0 0 0 0 0 0
0 0 (null) source 48 0 0 0 0 0 0 0 0 (null) source 49 0 0 0 0 0 0 0
0 (null) source 50 0 0 0 0 0 0 0 0 (null) source 51 0 0 0 0 0 0 0 0
(null) source 52 0 0 0 0 0 0 0 0 (null) source 53 0 0 0 0 0 0 0 0 (null)
source 54 0 0 0 0 0 0 0 0 (null) source 55 0 0 0 0 0 0 0 0 (null) source
56 0 0 0 0 0 0 0 0 (null) source 57 0 0 0 0 0 0 0 0 (null) source 58
0 0 0 0 0 0 0 0 (null) source 59 0 0 0 0 0 0 0 0 (null) source 60 0
0 0 0 0 0 0 0 (null) source 61 0 0 0 0 0 0 0 0 (null) source 62 0 0
0 0 0 0 0 0 (null) source 63 0 0 0 0 0 0 0 0 (null) @index 4 @hoamapexample
hoa.2d.map sources_preset source 0 1 1.71429 0.546032 0 0.2 0.2 0.2
1 Click source 1 1 0.266667 0.87619 0 0.2 0.2 0.2 1 Crack source 2
1 0.139683 -1.81587 0 0.2 0.2 0.2 1 Boom source 3 1 -0.673016 -0.977778
0 0.2 0.2 0.2 1 Flam source 4 0 0 0 0 0 0 0 0 (null) source 5 0 0 0
0 0 0 0 0 (null) source 6 0 0 0 0 0 0 0 0 (null) source 7 0 0 0 0 0
0 0 0 (null) source 8 0 0 0 0 0 0 0 0 (null) source 9 0 0 0 0 0 0 0
0 (null) source 10 0 0 0 0 0 0 0 0 (null) source 11 0 0 0 0 0 0 0 0
(null) source 12 0 0 0 0 0 0 0 0 (null) source 13 0 0 0 0 0 0 0 0 (null)
source 14 0 0 0 0 0 0 0 0 (null) source 15 0 0 0 0 0 0 0 0 (null) source
16 0 0 0 0 0 0 0 0 (null) source 17 0 0 0 0 0 0 0 0 (null) source 18
0 0 0 0 0 0 0 0 (null) source 19 0 0 0 0 0 0 0 0 (null) source 20 0
0 0 0 0 0 0 0 (null) source 21 0 0 0 0 0 0 0 0 (null) source 22 0 0
0 0 0 0 0 0 (null) source 23 0 0 0 0 0 0 0 0 (null) source 24 0 0 0
0 0 0 0 0 (null) source 25 0 0 0 0 0 0 0 0 (null) source 26 0 0 0 0
0 0 0 0 (null) source 27 0 0 0 0 0 0 0 0 (null) source 28 0 0 0 0 0
0 0 0 (null) source 29 0 0 0 0 0 0 0 0 (null) source 30 0 0 0 0 0 0
0 0 (null) source 31 0 0 0 0 0 0 0 0 (null) source 32 0 0 0 0 0 0 0
0 (null) source 33 0 0 0 0 0 0 0 0 (null) source 34 0 0 0 0 0 0 0 0
(null) source 35 0 0 0 0 0 0 0 0 (null) source 36 0 0 0 0 0 0 0 0 (null)
source 37 0 0 0 0 0 0 0 0 (null) source 38 0 0 0 0 0 0 0 0 (null) source
39 0 0 0 0 0 0 0 0 (null) source 40 0 0 0 0 0 0 0 0 (null) source 41
0 0 0 0 0 0 0 0 (null) source 42 0 0 0 0 0 0 0 0 (null) source 43 0
0 0 0 0 0 0 0 (null) source 44 0 0 0 0 0 0 0 0 (null) source 45 0 0
0 0 0 0 0 0 (null) source 46 0 0 0 0 0 0 0 0 (null) source 47 0 0 0
0 0 0 0 0 (null) source 48 0 0 0 0 0 0 0 0 (null) source 49 0 0 0 0
0 0 0 0 (null) source 50 0 0 0 0 0 0 0 0 (null) source 51 0 0 0 0 0
0 0 0 (null) source 52 0 0 0 0 0 0 0 0 (null) source 53 0 0 0 0 0 0
0 0 (null) source 54 0 0 0 0 0 0 0 0 (null) source 55 0 0 0 0 0 0 0
0 (null) source 56 0 0 0 0 0 0 0 0 (null) source 57 0 0 0 0 0 0 0 0
(null) source 58 0 0 0 0 0 0 0 0 (null) source 59 0 0 0 0 0 0 0 0 (null)
source 60 0 0 0 0 0 0 0 0 (null) source 61 0 0 0 0 0 0 0 0 (null) source
62 0 0 0 0 0 0 0 0 (null) source 63 0 0 0 0 0 0 0 0 (null) @index 5
@hoamapexample hoa.2d.map sources_preset source 0 1 0.368254 0.850794
0 0.2 0.2 0.2 1 Click source 1 1 -1.86667 -1.25714 0 0.2 0.2 0.2 1
Crack source 2 1 -1.28254 0.342857 0 0.2 0.2 0.2 1 Boom source 3 1
1.07937 -0.977778 0 0.2 0.2 0.2 1 Flam source 4 0 0 0 0 0 0 0 0 (null)
source 5 0 0 0 0 0 0 0 0 (null) source 6 0 0 0 0 0 0 0 0 (null) source
7 0 0 0 0 0 0 0 0 (null) source 8 0 0 0 0 0 0 0 0 (null) source 9 0
0 0 0 0 0 0 0 (null) source 10 0 0 0 0 0 0 0 0 (null) source 11 0 0
0 0 0 0 0 0 (null) source 12 0 0 0 0 0 0 0 0 (null) source 13 0 0 0
0 0 0 0 0 (null) source 14 0 0 0 0 0 0 0 0 (null) source 15 0 0 0 0
0 0 0 0 (null) source 16 0 0 0 0 0 0 0 0 (null) source 17 0 0 0 0 0
0 0 0 (null) source 18 0 0 0 0 0 0 0 0 (null) source 19 0 0 0 0 0 0
0 0 (null) source 20 0 0 0 0 0 0 0 0 (null) source 21 0 0 0 0 0 0 0
0 (null) source 22 0 0 0 0 0 0 0 0 (null) source 23 0 0 0 0 0 0 0 0
(null) source 24 0 0 0 0 0 0 0 0 (null) source 25 0 0 0 0 0 0 0 0 (null)
source 26 0 0 0 0 0 0 0 0 (null) source 27 0 0 0 0 0 0 0 0 (null) source
28 0 0 0 0 0 0 0 0 (null) source 29 0 0 0 0 0 0 0 0 (null) source 30
0 0 0 0 0 0 0 0 (null) source 31 0 0 0 0 0 0 0 0 (null) source 32 0
0 0 0 0 0 0 0 (null) source 33 0 0 0 0 0 0 0 0 (null) source 34 0 0
0 0 0 0 0 0 (null) source 35 0 0 0 0 0 0 0 0 (null) source 36 0 0 0
0 0 0 0 0 (null) source 37 0 0 0 0 0 0 0 0 (null) source 38 0 0 0 0
0 0 0 0 (null) source 39 0 0 0 0 0 0 0 0 (null) source 40 0 0 0 0 0
0 0 0 (null) source 41 0 0 0 0 0 0 0 0 (null) source 42 0 0 0 0 0 0
0 0 (null) source 43 0 0 0 0 0 0 0 0 (null) source 44 0 0 0 0 0 0 0
0 (null) source 45 0 0 0 0 0 0 0 0 (null) source 46 0 0 0 0 0 0 0 0
(null) source 47 0 0 0 0 0 0 0 0 (null) source 48 0 0 0 0 0 0 0 0 (null)
source 49 0 0 0 0 0 0 0 0 (null) source 50 0 0 0 0 0 0 0 0 (null) source
51 0 0 0 0 0 0 0 0 (null) source 52 0 0 0 0 0 0 0 0 (null) source 53
0 0 0 0 0 0 0 0 (null) source 54 0 0 0 0 0 0 0 0 (null) source 55 0
0 0 0 0 0 0 0 (null) source 56 0 0 0 0 0 0 0 0 (null) source 57 0 0
0 0 0 0 0 0 (null) source 58 0 0 0 0 0 0 0 0 (null) source 59 0 0 0
0 0 0 0 0 (null) source 60 0 0 0 0 0 0 0 0 (null) source 61 0 0 0 0
0 0 0 0 (null) source 62 0 0 0 0 0 0 0 0 (null) source 63 0 0 0 0 0
0 0 0 (null) @index 6 @hoamapexample hoa.2d.map sources_preset source
0 1 0.901587 1.43492 0 0.2 0.2 0.2 1 Click source 1 1 -0.622222 -1.05397
0 0.2 0.2 0.2 1 Crack source 2 1 1.28254 -0.24127 0 0.2 0.2 0.2 1 Boom
source 3 1 -0.8 0.647619 0 0.2 0.2 0.2 1 Flam source 4 0 0 0 0 0 0
0 0 (null) source 5 0 0 0 0 0 0 0 0 (null) source 6 0 0 0 0 0 0 0 0
(null) source 7 0 0 0 0 0 0 0 0 (null) source 8 0 0 0 0 0 0 0 0 (null)
source 9 0 0 0 0 0 0 0 0 (null) source 10 0 0 0 0 0 0 0 0 (null) source
11 0 0 0 0 0 0 0 0 (null) source 12 0 0 0 0 0 0 0 0 (null) source 13
0 0 0 0 0 0 0 0 (null) source 14 0 0 0 0 0 0 0 0 (null) source 15 0
0 0 0 0 0 0 0 (null) source 16 0 0 0 0 0 0 0 0 (null) source 17 0 0
0 0 0 0 0 0 (null) source 18 0 0 0 0 0 0 0 0 (null) source 19 0 0 0
0 0 0 0 0 (null) source 20 0 0 0 0 0 0 0 0 (null) source 21 0 0 0 0
0 0 0 0 (null) source 22 0 0 0 0 0 0 0 0 (null) source 23 0 0 0 0 0
0 0 0 (null) source 24 0 0 0 0 0 0 0 0 (null) source 25 0 0 0 0 0 0
0 0 (null) source 26 0 0 0 0 0 0 0 0 (null) source 27 0 0 0 0 0 0 0
0 (null) source 28 0 0 0 0 0 0 0 0 (null) source 29 0 0 0 0 0 0 0 0
(null) source 30 0 0 0 0 0 0 0 0 (null) source 31 0 0 0 0 0 0 0 0 (null)
source 32 0 0 0 0 0 0 0 0 (null) source 33 0 0 0 0 0 0 0 0 (null) source
34 0 0 0 0 0 0 0 0 (null) source 35 0 0 0 0 0 0 0 0 (null) source 36
0 0 0 0 0 0 0 0 (null) source 37 0 0 0 0 0 0 0 0 (null) source 38 0
0 0 0 0 0 0 0 (null) source 39 0 0 0 0 0 0 0 0 (null) source 40 0 0
0 0 0 0 0 0 (null) source 41 0 0 0 0 0 0 0 0 (null) source 42 0 0 0
0 0 0 0 0 (null) source 43 0 0 0 0 0 0 0 0 (null) source 44 0 0 0 0
0 0 0 0 (null) source 45 0 0 0 0 0 0 0 0 (null) source 46 0 0 0 0 0
0 0 0 (null) source 47 0 0 0 0 0 0 0 0 (null) source 48 0 0 0 0 0 0
0 0 (null) source 49 0 0 0 0 0 0 0 0 (null) source 50 0 0 0 0 0 0 0
0 (null) source 51 0 0 0 0 0 0 0 0 (null) source 52 0 0 0 0 0 0 0 0
(null) source 53 0 0 0 0 0 0 0 0 (null) source 54 0 0 0 0 0 0 0 0 (null)
source 55 0 0 0 0 0 0 0 0 (null) source 56 0 0 0 0 0 0 0 0 (null) source
57 0 0 0 0 0 0 0 0 (null) source 58 0 0 0 0 0 0 0 0 (null) source 59
0 0 0 0 0 0 0 0 (null) source 60 0 0 0 0 0 0 0 0 (null) source 61 0
0 0 0 0 0 0 0 (null) source 62 0 0 0 0 0 0 0 0 (null) source 63 0 0
0 0 0 0 0 0 (null) @index 7 @hoamapexample hoa.2d.map sources_preset
source 0 1 2.23608 3.55883 0 0.2 0.2 0.2 1 Click source 1 1 -1.89742
-3.21399 0 0.2 0.2 0.2 1 Crack source 2 1 3.74765 -0.705004 0 0.2 0.2
0.2 1 Boom source 3 1 -2.7496 2.22587 0 0.2 0.2 0.2 1 Flam source 4
0 0 0 0 0 0 0 0 (null) source 5 0 0 0 0 0 0 0 0 (null) source 6 0 0
0 0 0 0 0 0 (null) source 7 0 0 0 0 0 0 0 0 (null) source 8 0 0 0 0
0 0 0 0 (null) source 9 0 0 0 0 0 0 0 0 (null) source 10 0 0 0 0 0
0 0 0 (null) source 11 0 0 0 0 0 0 0 0 (null) source 12 0 0 0 0 0 0
0 0 (null) source 13 0 0 0 0 0 0 0 0 (null) source 14 0 0 0 0 0 0 0
0 (null) source 15 0 0 0 0 0 0 0 0 (null) source 16 0 0 0 0 0 0 0 0
(null) source 17 0 0 0 0 0 0 0 0 (null) source 18 0 0 0 0 0 0 0 0 (null)
source 19 0 0 0 0 0 0 0 0 (null) source 20 0 0 0 0 0 0 0 0 (null) source
21 0 0 0 0 0 0 0 0 (null) source 22 0 0 0 0 0 0 0 0 (null) source 23
0 0 0 0 0 0 0 0 (null) source 24 0 0 0 0 0 0 0 0 (null) source 25 0
0 0 0 0 0 0 0 (null) source 26 0 0 0 0 0 0 0 0 (null) source 27 0 0
0 0 0 0 0 0 (null) source 28 0 0 0 0 0 0 0 0 (null) source 29 0 0 0
0 0 0 0 0 (null) source 30 0 0 0 0 0 0 0 0 (null) source 31 0 0 0 0
0 0 0 0 (null) source 32 0 0 0 0 0 0 0 0 (null) source 33 0 0 0 0 0
0 0 0 (null) source 34 0 0 0 0 0 0 0 0 (null) source 35 0 0 0 0 0 0
0 0 (null) source 36 0 0 0 0 0 0 0 0 (null) source 37 0 0 0 0 0 0 0
0 (null) source 38 0 0 0 0 0 0 0 0 (null) source 39 0 0 0 0 0 0 0 0
(null) source 40 0 0 0 0 0 0 0 0 (null) source 41 0 0 0 0 0 0 0 0 (null)
source 42 0 0 0 0 0 0 0 0 (null) source 43 0 0 0 0 0 0 0 0 (null) source
44 0 0 0 0 0 0 0 0 (null) source 45 0 0 0 0 0 0 0 0 (null) source 46
0 0 0 0 0 0 0 0 (null) source 47 0 0 0 0 0 0 0 0 (null) source 48 0
0 0 0 0 0 0 0 (null) source 49 0 0 0 0 0 0 0 0 (null) source 50 0 0
0 0 0 0 0 0 (null) source 51 0 0 0 0 0 0 0 0 (null) source 52 0 0 0
0 0 0 0 0 (null) source 53 0 0 0 0 0 0 0 0 (null) source 54 0 0 0 0
0 0 0 0 (null) source 55 0 0 0 0 0 0 0 0 (null) source 56 0 0 0 0 0
0 0 0 (null) source 57 0 0 0 0 0 0 0 0 (null) source 58 0 0 0 0 0 0
0 0 (null) source 59 0 0 0 0 0 0 0 0 (null) source 60 0 0 0 0 0 0 0
0 (null) source 61 0 0 0 0 0 0 0 0 (null) source 62 0 0 0 0 0 0 0 0
(null) source 63 0 0 0 0 0 0 0 0 (null) @index 8 @hoamapexample hoa.2d.map
sources_preset source 0 1 -2.23094 -3.56204 0 0.2 0.2 0.2 1 Click source
1 1 1.89278 3.21672 0 0.2 0.2 0.2 1 Crack source 2 1 -3.74866 0.6996
0 0.2 0.2 0.2 1 Boom source 3 1 2.75281 -2.2219 0 0.2 0.2 0.2 1 Flam
source 4 0 0 0 0 0 0 0 0 (null) source 5 0 0 0 0 0 0 0 0 (null) source
6 0 0 0 0 0 0 0 0 (null) source 7 0 0 0 0 0 0 0 0 (null) source 8 0
0 0 0 0 0 0 0 (null) source 9 0 0 0 0 0 0 0 0 (null) source 10 0 0
0 0 0 0 0 0 (null) source 11 0 0 0 0 0 0 0 0 (null) source 12 0 0 0
0 0 0 0 0 (null) source 13 0 0 0 0 0 0 0 0 (null) source 14 0 0 0 0
0 0 0 0 (null) source 15 0 0 0 0 0 0 0 0 (null) source 16 0 0 0 0 0
0 0 0 (null) source 17 0 0 0 0 0 0 0 0 (null) source 18 0 0 0 0 0 0
0 0 (null) source 19 0 0 0 0 0 0 0 0 (null) source 20 0 0 0 0 0 0 0
0 (null) source 21 0 0 0 0 0 0 0 0 (null) source 22 0 0 0 0 0 0 0 0
(null) source 23 0 0 0 0 0 0 0 0 (null) source 24 0 0 0 0 0 0 0 0 (null)
source 25 0 0 0 0 0 0 0 0 (null) source 26 0 0 0 0 0 0 0 0 (null) source
27 0 0 0 0 0 0 0 0 (null) source 28 0 0 0 0 0 0 0 0 (null) source 29
0 0 0 0 0 0 0 0 (null) source 30 0 0 0 0 0 0 0 0 (null) source 31 0
0 0 0 0 0 0 0 (null) source 32 0 0 0 0 0 0 0 0 (null) source 33 0 0
0 0 0 0 0 0 (null) source 34 0 0 0 0 0 0 0 0 (null) source 35 0 0 0
0 0 0 0 0 (null) source 36 0 0 0 0 0 0 0 0 (null) source 37 0 0 0 0
0 0 0 0 (null) source 38 0 0 0 0 0 0 0 0 (null) source 39 0 0 0 0 0
0 0 0 (null) source 40 0 0 0 0 0 0 0 0 (null) source 41 0 0 0 0 0 0
0 0 (null) source 42 0 0 0 0 0 0 0 0 (null) source 43 0 0 0 0 0 0 0
0 (null) source 44 0 0 0 0 0 0 0 0 (null) source 45 0 0 0 0 0 0 0 0
(null) source 46 0 0 0 0 0 0 0 0 (null) source 47 0 0 0 0 0 0 0 0 (null)
source 48 0 0 0 0 0 0 0 0 (null) source 49 0 0 0 0 0 0 0 0 (null) source
50 0 0 0 0 0 0 0 0 (null) source 51 0 0 0 0 0 0 0 0 (null) source 52
0 0 0 0 0 0 0 0 (null) source 53 0 0 0 0 0 0 0 0 (null) source 54 0
0 0 0 0 0 0 0 (null) source 55 0 0 0 0 0 0 0 0 (null) source 56 0 0
0 0 0 0 0 0 (null) source 57 0 0 0 0 0 0 0 0 (null) source 58 0 0 0
0 0 0 0 0 (null) source 59 0 0 0 0 0 0 0 0 (null) source 60 0 0 0 0
0 0 0 0 (null) source 61 0 0 0 0 0 0 0 0 (null) source 62 0 0 0 0 0
0 0 0 (null) source 63 0 0 0 0 0 0 0 0 (null) @index 9 @hoamapexample
hoa.2d.map sources_preset source 0 1 -0.758541 -1.24066 0 0.2 0.2 0.2
1 Click source 1 1 0.564858 0.933692 0 0.2 0.2 0.2 1 Crack source 2
1 -1.03763 0.203496 0 0.2 0.2 0.2 1 Boom source 3 1 0.695022 -0.542146
0 0.2 0.2 0.2 1 Flam source 4 0 0 0 0 0 0 0 0 (null) source 5 0 0 0
0 0 0 0 0 (null) source 6 0 0 0 0 0 0 0 0 (null) source 7 0 0 0 0 0
0 0 0 (null) source 8 0 0 0 0 0 0 0 0 (null) source 9 0 0 0 0 0 0 0
0 (null) source 10 0 0 0 0 0 0 0 0 (null) source 11 0 0 0 0 0 0 0 0
(null) source 12 0 0 0 0 0 0 0 0 (null) source 13 0 0 0 0 0 0 0 0 (null)
source 14 0 0 0 0 0 0 0 0 (null) source 15 0 0 0 0 0 0 0 0 (null) source
16 0 0 0 0 0 0 0 0 (null) source 17 0 0 0 0 0 0 0 0 (null) source 18
0 0 0 0 0 0 0 0 (null) source 19 0 0 0 0 0 0 0 0 (null) source 20 0
0 0 0 0 0 0 0 (null) source 21 0 0 0 0 0 0 0 0 (null) source 22 0 0
0 0 0 0 0 0 (null) source 23 0 0 0 0 0 0 0 0 (null) source 24 0 0 0
0 0 0 0 0 (null) source 25 0 0 0 0 0 0 0 0 (null) source 26 0 0 0 0
0 0 0 0 (null) source 27 0 0 0 0 0 0 0 0 (null) source 28 0 0 0 0 0
0 0 0 (null) source 29 0 0 0 0 0 0 0 0 (null) source 30 0 0 0 0 0 0
0 0 (null) source 31 0 0 0 0 0 0 0 0 (null) source 32 0 0 0 0 0 0 0
0 (null) source 33 0 0 0 0 0 0 0 0 (null) source 34 0 0 0 0 0 0 0 0
(null) source 35 0 0 0 0 0 0 0 0 (null) source 36 0 0 0 0 0 0 0 0 (null)
source 37 0 0 0 0 0 0 0 0 (null) source 38 0 0 0 0 0 0 0 0 (null) source
39 0 0 0 0 0 0 0 0 (null) source 40 0 0 0 0 0 0 0 0 (null) source 41
0 0 0 0 0 0 0 0 (null) source 42 0 0 0 0 0 0 0 0 (null) source 43 0
0 0 0 0 0 0 0 (null) source 44 0 0 0 0 0 0 0 0 (null) source 45 0 0
0 0 0 0 0 0 (null) source 46 0 0 0 0 0 0 0 0 (null) source 47 0 0 0
0 0 0 0 0 (null) source 48 0 0 0 0 0 0 0 0 (null) source 49 0 0 0 0
0 0 0 0 (null) source 50 0 0 0 0 0 0 0 0 (null) source 51 0 0 0 0 0
0 0 0 (null) source 52 0 0 0 0 0 0 0 0 (null) source 53 0 0 0 0 0 0
0 0 (null) source 54 0 0 0 0 0 0 0 0 (null) source 55 0 0 0 0 0 0 0
0 (null) source 56 0 0 0 0 0 0 0 0 (null) source 57 0 0 0 0 0 0 0 0
(null) source 58 0 0 0 0 0 0 0 0 (null) source 59 0 0 0 0 0 0 0 0 (null)
source 60 0 0 0 0 0 0 0 0 (null) source 61 0 0 0 0 0 0 0 0 (null) source
62 0 0 0 0 0 0 0 0 (null) source 63 0 0 0 0 0 0 0 0 (null) @index 10
@hoamapexample hoa.2d.map sources_preset source 0 1 1.28105 0.96732
0 0.2 0.2 0.2 1 Click source 1 1 1.54248 -1.38562 0 0.2 0.2 0.2 1 Crack
source 2 1 -1.43791 0.96732 0 0.2 0.2 0.2 1 Boom source 3 1 -1.43791
-1.22876 0 0.2 0.2 0.2 1 Flam source 4 0 0 0 0 0 0 0 0 (null) source
5 0 0 0 0 0 0 0 0 (null) source 6 0 0 0 0 0 0 0 0 (null) source 7 0
0 0 0 0 0 0 0 (null) source 8 0 0 0 0 0 0 0 0 (null) source 9 0 0 0
0 0 0 0 0 (null) source 10 0 0 0 0 0 0 0 0 (null) source 11 0 0 0 0
0 0 0 0 (null) source 12 0 0 0 0 0 0 0 0 (null) source 13 0 0 0 0 0
0 0 0 (null) source 14 0 0 0 0 0 0 0 0 (null) source 15 0 0 0 0 0 0
0 0 (null) source 16 0 0 0 0 0 0 0 0 (null) source 17 0 0 0 0 0 0 0
0 (null) source 18 0 0 0 0 0 0 0 0 (null) source 19 0 0 0 0 0 0 0 0
(null) source 20 0 0 0 0 0 0 0 0 (null) source 21 0 0 0 0 0 0 0 0 (null)
source 22 0 0 0 0 0 0 0 0 (null) source 23 0 0 0 0 0 0 0 0 (null) source
24 0 0 0 0 0 0 0 0 (null) source 25 0 0 0 0 0 0 0 0 (null) source 26
0 0 0 0 0 0 0 0 (null) source 27 0 0 0 0 0 0 0 0 (null) source 28 0
0 0 0 0 0 0 0 (null) source 29 0 0 0 0 0 0 0 0 (null) source 30 0 0
0 0 0 0 0 0 (null) source 31 0 0 0 0 0 0 0 0 (null) source 32 0 0 0
0 0 0 0 0 (null) source 33 0 0 0 0 0 0 0 0 (null) source 34 0 0 0 0
0 0 0 0 (null) source 35 0 0 0 0 0 0 0 0 (null) source 36 0 0 0 0 0
0 0 0 (null) source 37 0 0 0 0 0 0 0 0 (null) source 38 0 0 0 0 0 0
0 0 (null) source 39 0 0 0 0 0 0 0 0 (null) source 40 0 0 0 0 0 0 0
0 (null) source 41 0 0 0 0 0 0 0 0 (null) source 42 0 0 0 0 0 0 0 0
(null) source 43 0 0 0 0 0 0 0 0 (null) source 44 0 0 0 0 0 0 0 0 (null)
source 45 0 0 0 0 0 0 0 0 (null) source 46 0 0 0 0 0 0 0 0 (null) source
47 0 0 0 0 0 0 0 0 (null) source 48 0 0 0 0 0 0 0 0 (null) source 49
0 0 0 0 0 0 0 0 (null) source 50 0 0 0 0 0 0 0 0 (null) source 51 0
0 0 0 0 0 0 0 (null) source 52 0 0 0 0 0 0 0 0 (null) source 53 0 0
0 0 0 0 0 0 (null) source 54 0 0 0 0 0 0 0 0 (null) source 55 0 0 0
0 0 0 0 0 (null) source 56 0 0 0 0 0 0 0 0 (null) source 57 0 0 0 0
0 0 0 0 (null) source 58 0 0 0 0 0 0 0 0 (null) source 59 0 0 0 0 0
0 0 0 (null) source 60 0 0 0 0 0 0 0 0 (null) source 61 0 0 0 0 0 0
0 0 (null) source 62 0 0 0 0 0 0 0 0 (null) source 63 0 0 0 0 0 0 0
0 (null) ];
#X msg -42 21 inter \$1;
#X obj -42 -7 c.number @size 53 17 @fontname Helvetica @fontweight
normal @fontslant roman @fontsize 11 @receive (null) @send (null) @presetname
(null) @min 1 @max (null) @minmax 1 (null) @decimal 6 @bgcolor 0.75
0.75 0.75 1 @bdcolor 0.5 0.5 0.5 1 @textcolor 0 0 0 1;
#X obj 87 -70 c.toggle @size 15 15 @fontname Helvetica @fontweight
normal @fontslant roman @fontsize 11 @receive (null) @send (null) @presetname
(null) @bgcolor 0.75 0.75 0.75 1 @bdcolor 0.5 0.5 0.5 1 @crcolor 0.5
0.5 0.5 1;
#X obj 22 -70 c.number @size 53 17 @fontname Helvetica @fontweight
normal @fontslant roman @fontsize 11 @receive (null) @send (null) @presetname
(null) @min 1 @max (null) @minmax 1 (null) @decimal 6 @bgcolor 0.75
0.75 0.75 1 @bdcolor 0.5 0.5 0.5 1 @textcolor 0 0 0 1;
#N canvas 0 22 450 300 preset_player 0;
#X obj 166 85 line;
#X obj 190 119 sel 11;
#X msg 188 13 1;
#X obj 139 -8 t b b;
#X obj 179 -33 spigot;
#X obj 138 40 pack 11 10000;
#X msg 138 13 11;
#X obj 114 -65 inlet;
#X obj 256 -76 inlet;
#X obj 230 -33 inlet;
#X obj 193 157 outlet;
#X obj 268 36 c.loadmess 1;
#X obj 270 77 pipe 500;
#X obj 112 -39 sel 0;
#X msg 99 50 stop;
#X connect 0 0 1 0;
#X connect 0 0 10 0;
#X connect 1 0 4 0;
#X connect 2 0 0 0;
#X connect 3 0 6 0;
#X connect 3 1 2 0;
#X connect 4 0 3 0;
#X connect 5 0 0 0;
#X connect 6 0 5 0;
#X connect 7 0 13 0;
#X connect 8 0 4 1;
#X connect 9 0 5 1;
#X connect 11 0 0 0;
#X connect 11 0 12 0;
#X connect 12 0 10 0;
#X connect 13 0 14 0;
#X connect 13 1 3 0;
#X connect 14 0 0 0;
#X restore -42 -39 pd preset_player _____;
#X text -47 -97 Play;
#X text 25 -97 Duration;
#X text 82 -97 Loop;
#N canvas 0 22 450 300 (subpatch) 0;
#X obj 0 10 inlet~;
#X obj 50 10 inlet~;
#X obj 100 10 inlet~;
#X obj 150 10 inlet~;
#X obj 200 10 inlet~;
#X obj 250 10 inlet~;
#X obj 300 10 inlet~;
#X obj 0 100 hoa.2d.decoder~ 3 binaural @pinna large;
#X obj 400 100 block~ 256;
#X obj 0 200 outlet~;
#X obj 100 200 outlet~;
#X connect 0 0 7 0;
#X connect 1 0 7 1;
#X connect 2 0 7 2;
#X connect 3 0 7 3;
#X connect 4 0 7 4;
#X connect 5 0 7 5;
#X connect 6 0 7 6;
#X connect 7 0 9 0;
#X connect 7 1 10 0;
#X restore -559 126 hoa.binaural~ 3 @block 256 @pinna large -;
#X obj -559 162 hoa.dac~ 1 2 ----------------------------;
#X text -252 -165 Control with messages;
#X text -250 -120 Output informations;
#X msg -183 41 damp \$1;
#X obj -559 82 hoa.process~ 3 hoa.fx.freeverb~ harmonics;
#X obj -123 9 c.number @size 53 17 @fontname Helvetica @fontweight
normal @fontslant roman @fontsize 11 @receive (null) @send (null) @presetname
(null) @min 0 @max 1 @minmax 0 1 @decimal 6 @bgcolor 0.75 0.75 0.75
1 @bdcolor 0.5 0.5 0.5 1 @textcolor 0 0 0 1;
#X msg -123 41 diff \$1;
#X obj 22 -121 c.loadmess 10000;
#X obj -42 -70 c.toggle @size 15 15 @fontname Helvetica @fontweight
normal @fontslant roman @fontsize 11 @receive (null) @send (null) @presetname
(null) @bgcolor 0.75 0.75 0.75 1 @bdcolor 0.5 0.5 0.5 1 @crcolor 0.5
0.5 0.5 1;
#X connect 5 0 17 0;
#X connect 6 0 5 0;
#X connect 11 0 10 0;
#X connect 12 0 18 0;
#X connect 17 0 22 0;
#X connect 17 1 22 1;
#X connect 17 2 22 2;
#X connect 17 3 22 3;
#X connect 17 4 22 4;
#X connect 17 5 22 5;
#X connect 17 6 22 6;
#X connect 18 0 17 0;
#X connect 18 1 17 1;
#X connect 18 2 17 2;
#X connect 18 3 17 3;
#X connect 19 0 41 7;
#X connect 20 0 19 0;
#X connect 21 0 40 0;
#X connect 22 0 41 0;
#X connect 22 1 41 1;
#X connect 22 2 41 2;
#X connect 22 3 41 3;
#X connect 22 4 41 4;
#X connect 22 5 41 5;
#X connect 22 6 41 6;
#X connect 28 0 27 0;
#X connect 29 0 28 0;
#X connect 30 0 32 2;
#X connect 31 0 32 1;
#X connect 32 0 29 0;
#X connect 36 0 37 0;
#X connect 36 1 37 1;
#X connect 40 0 41 7;
#X connect 41 0 36 0;
#X connect 41 1 36 1;
#X connect 41 2 36 2;
#X connect 41 3 36 3;
#X connect 41 4 36 4;
#X connect 41 5 36 5;
#X connect 41 6 36 6;
#X connect 42 0 43 0;
#X connect 43 0 41 7;
#X connect 44 0 31 0;
#X connect 45 0 32 0;
#X coords 0 726 1 725 85 60 0;
