#N canvas 123 102 987 685 10;
#X msg -23 -103 \; pd dsp 1;
#X msg -23 -68 \; pd dsp 0;
#X obj -93 -407 hoa.soundgrain;
#X obj -93 -378 c.gain~ @size 131 10 @fontname Helvetica @fontweight
normal @fontslant roman @fontsize 11 @receive (null) @send (null) @presetname
(null) @mode 0 @ramp 20 @bgcolor 0.75 0.75 0.75 1 @bdcolor 0.5 0.5
0.5 1 @kncolor 0.5 0.5 0.5 1;
#X obj 192 -460 hoa.connect;
#X obj 192 -480 bng 15 250 50 0 empty empty empty 17 7 0 10 -262144
-1 -1;
#X obj 84 -391 hoa.pi~ 2;
#X obj -380 -471 c.patcherinfos;
#X obj -380 -488 loadbang;
#X obj -380 -488 hoa.help.header;
#X obj -250 140 hoa.help.pub;
#X obj 36 -488 hoa.help.also;
#X text -375 -444 hoa.fx.ringmod~ uses ring modulation to diffuse a
sound field.;
#X obj -93 -310 hoa.2d.scope~ @size 183 183 @fontname Helvetica @fontweight
normal @fontslant roman @fontsize 11 @receive (null) @send (null) @order
7 @gain 10 @interval 100 @bgcolor 0.76 0.76 0.76 1 @bdcolor 0.7 0.7
0.7 1 @phcolor 1 0 0 1 @nhcolor 0 0 1 1;
#X obj -99 81 hoa.2d.decoder~ 7 ambisonics 16;
#X obj -99 113 hoa.dac~ 1:16 -----------------;
#X obj -93 -360 hoa.2d.encoder~ 7 ------------;
#X obj -363 -130 hoa.2d.scope~ @size 189 189 @fontname Helvetica @fontweight
normal @fontslant roman @fontsize 11 @receive (null) @send (null) @order
7 @gain 10 @interval 100 @bgcolor 0.76 0.76 0.76 1 @bdcolor 0.7 0.7
0.7 1 @phcolor 1 0 0 1 @nhcolor 0 0 1 1;
#X obj -353 -302 c.number @size 53 17 @fontname Helvetica @fontweight
normal @fontslant roman @fontsize 11 @receive (null) @send (null) @presetname
(null) @min (null) @max (null) @minmax (null) (null) @decimal 6 @bgcolor
0.75 0.75 0.75 1 @bdcolor 0.5 0.5 0.5 1 @textcolor 0 0 0 1;
#X obj -363 -183 hoa.2d.process~ 7 hoa.fx.ringmod~ harmonics, f 31
;
#X obj 147 -248 hoa.2d.projector~ 7 16, f 29;
#X obj 147 -70 hoa.2d.scope~ @size 189 189 @fontname Helvetica @fontweight
normal @fontslant roman @fontsize 11 @receive (null) @send (null) @order
7 @gain 10 @interval 100 @bgcolor 0.76 0.76 0.76 1 @bdcolor 0.7 0.7
0.7 1 @phcolor 1 0 0 1 @nhcolor 0 0 1 1;
#X obj 147 -114 hoa.2d.recomposer~ 7 16 fixe, f 31;
#X obj 147 -183 hoa.2d.process~ 16 hoa.fx.ringmod~ planewaves, f 31
;
#X obj 330 -420 hoa.2d.space @size 189 189 @fontname Helvetica @fontweight
normal @fontslant roman @fontsize 11 @receive (null) @send (null) @presetname
(null) @channels 16 @minmax 0 20 @bgcolor 0.76 0.76 0.76 1 @bdcolor
0.7 0.7 0.7 1 @spcolor 0.27 0.43 0.54 0.25 @ptcolor 0 0 0 1;
#X text 339 -225 Control the frequency of the ring modulation of each
channel with a list or the hoa.2d.space GUI., f 31;
#X obj -270 -331 c.number @size 53 17 @fontname Helvetica @fontweight
normal @fontslant roman @fontsize 11 @receive (null) @send (null) @presetname
(null) @min 0 @max 1 @minmax 0 1 @decimal 6 @bgcolor 0.75 0.75 0.75
1 @bdcolor 0.5 0.5 0.5 1 @textcolor 0 0 0 1;
#X obj 83 -416 phasor~ 1;
#X text -361 -392 Control the global frequency of the ring modulation.
, f 12;
#X text -190 -383 Control the diffusion factor., f 10;
#X msg -270 -302 diffusion \$1;
#X obj -270 -353 c.loadmess 1;
#X obj -354 -323 c.loadmess 10;
#X connect 2 0 3 0;
#X connect 3 0 16 0;
#X connect 5 0 4 0;
#X connect 6 0 16 1;
#X connect 7 0 9 0;
#X connect 8 0 7 0;
#X connect 14 0 15 0;
#X connect 14 1 15 1;
#X connect 14 2 15 2;
#X connect 14 3 15 3;
#X connect 14 4 15 4;
#X connect 14 5 15 5;
#X connect 14 6 15 6;
#X connect 14 7 15 7;
#X connect 14 8 15 8;
#X connect 14 9 15 9;
#X connect 14 10 15 10;
#X connect 14 11 15 11;
#X connect 14 12 15 12;
#X connect 14 13 15 13;
#X connect 14 14 15 14;
#X connect 14 15 15 15;
#X connect 16 0 13 0;
#X connect 16 0 19 0;
#X connect 16 0 20 0;
#X connect 16 1 13 1;
#X connect 16 1 19 1;
#X connect 16 1 20 1;
#X connect 16 2 13 2;
#X connect 16 2 19 2;
#X connect 16 2 20 2;
#X connect 16 3 13 3;
#X connect 16 3 19 3;
#X connect 16 3 20 3;
#X connect 16 4 13 4;
#X connect 16 4 19 4;
#X connect 16 4 20 4;
#X connect 16 5 13 5;
#X connect 16 5 19 5;
#X connect 16 5 20 5;
#X connect 16 6 13 6;
#X connect 16 6 19 6;
#X connect 16 6 20 6;
#X connect 16 7 13 7;
#X connect 16 7 19 7;
#X connect 16 7 20 7;
#X connect 16 8 13 8;
#X connect 16 8 19 8;
#X connect 16 8 20 8;
#X connect 16 9 13 9;
#X connect 16 9 19 9;
#X connect 16 9 20 9;
#X connect 16 10 13 10;
#X connect 16 10 19 10;
#X connect 16 10 20 10;
#X connect 16 11 13 11;
#X connect 16 11 19 11;
#X connect 16 11 20 11;
#X connect 16 12 13 12;
#X connect 16 12 19 12;
#X connect 16 12 20 12;
#X connect 16 13 13 13;
#X connect 16 13 19 13;
#X connect 16 13 20 13;
#X connect 16 14 13 14;
#X connect 16 14 19 14;
#X connect 16 14 20 14;
#X connect 18 0 19 15;
#X connect 19 0 14 0;
#X connect 19 0 17 0;
#X connect 19 1 14 1;
#X connect 19 1 17 1;
#X connect 19 2 14 2;
#X connect 19 2 17 2;
#X connect 19 3 14 3;
#X connect 19 3 17 3;
#X connect 19 4 14 4;
#X connect 19 4 17 4;
#X connect 19 5 14 5;
#X connect 19 5 17 5;
#X connect 19 6 14 6;
#X connect 19 6 17 6;
#X connect 19 7 14 7;
#X connect 19 7 17 7;
#X connect 19 8 14 8;
#X connect 19 8 17 8;
#X connect 19 9 14 9;
#X connect 19 9 17 9;
#X connect 19 10 14 10;
#X connect 19 10 17 10;
#X connect 19 11 14 11;
#X connect 19 11 17 11;
#X connect 19 12 14 12;
#X connect 19 12 17 12;
#X connect 19 13 14 13;
#X connect 19 13 17 13;
#X connect 19 14 14 14;
#X connect 19 14 17 14;
#X connect 20 0 23 0;
#X connect 20 1 23 1;
#X connect 20 2 23 2;
#X connect 20 3 23 3;
#X connect 20 4 23 4;
#X connect 20 5 23 5;
#X connect 20 6 23 6;
#X connect 20 7 23 7;
#X connect 20 8 23 8;
#X connect 20 9 23 9;
#X connect 20 10 23 10;
#X connect 20 11 23 11;
#X connect 20 12 23 12;
#X connect 20 13 23 13;
#X connect 20 14 23 14;
#X connect 20 15 23 15;
#X connect 22 0 21 0;
#X connect 22 0 14 0;
#X connect 22 1 21 1;
#X connect 22 1 14 1;
#X connect 22 2 21 2;
#X connect 22 2 14 2;
#X connect 22 3 21 3;
#X connect 22 3 14 3;
#X connect 22 4 21 4;
#X connect 22 4 14 4;
#X connect 22 5 21 5;
#X connect 22 5 14 5;
#X connect 22 6 21 6;
#X connect 22 6 14 6;
#X connect 22 7 21 7;
#X connect 22 7 14 7;
#X connect 22 8 21 8;
#X connect 22 8 14 8;
#X connect 22 9 21 9;
#X connect 22 9 14 9;
#X connect 22 10 21 10;
#X connect 22 10 14 10;
#X connect 22 11 21 11;
#X connect 22 11 14 11;
#X connect 22 12 21 12;
#X connect 22 12 14 12;
#X connect 22 13 21 13;
#X connect 22 13 14 13;
#X connect 22 14 21 14;
#X connect 22 14 14 14;
#X connect 23 0 22 0;
#X connect 23 1 22 1;
#X connect 23 2 22 2;
#X connect 23 3 22 3;
#X connect 23 4 22 4;
#X connect 23 5 22 5;
#X connect 23 6 22 6;
#X connect 23 7 22 7;
#X connect 23 8 22 8;
#X connect 23 9 22 9;
#X connect 23 10 22 10;
#X connect 23 11 22 11;
#X connect 23 12 22 12;
#X connect 23 13 22 13;
#X connect 23 14 22 14;
#X connect 23 15 22 15;
#X connect 24 0 23 16;
#X connect 26 0 30 0;
#X connect 27 0 6 1;
#X connect 30 0 19 15;
#X connect 31 0 26 0;
#X connect 32 0 18 0;
#X coords 0 685 1 684 100 60 0;
