#N canvas 123 102 675 681 10;
#X msg -21 -139 \; pd dsp 1;
#X msg -21 -104 \; pd dsp 0;
#X obj -309 -401 hoa.soundgrain;
#X obj -309 -372 c.gain~ @size 131 10 @fontname Helvetica @fontweight
normal @fontslant roman @fontsize 11 @receive (null) @send (null) @presetname
(null) @mode 0 @ramp 20 @bgcolor 0.75 0.75 0.75 1 @bdcolor 0.5 0.5
0.5 1 @kncolor 0.5 0.5 0.5 1;
#X obj 192 -464 hoa.connect;
#X obj 192 -484 bng 15 250 50 0 empty empty empty 17 7 0 10 -262144
-1 -1;
#X obj -380 -475 c.patcherinfos;
#X obj -380 -492 loadbang;
#X obj -380 -492 hoa.help.header;
#X obj -350 86 hoa.help.pub;
#X obj 36 -492 hoa.help.also;
#X obj -309 27 hoa.2d.decoder~ 7 ambisonics 16;
#X obj -309 59 hoa.dac~ 1:16 -----------------;
#X obj -309 -248 hoa.2d.scope~ @size 189 189 @fontname Helvetica @fontweight
normal @fontslant roman @fontsize 11 @receive (null) @send (null) @order
7 @gain 10 @interval 100 @bgcolor 0.76 0.76 0.76 1 @bdcolor 0.7 0.7
0.7 1 @phcolor 1 0 0 1 @nhcolor 0 0 1 1;
#X text -375 -448 hoa.syn.encoder~ shows the encoding operation.;
#X obj -309 -331 hoa.2d.process~ 7 hoa.syn.encoder~ harmonics, f 31
;
#X obj -126 -355 hoa.pi 2;
#X obj -126 -378 c.number @size 53 17 @fontname Helvetica @fontweight
normal @fontslant roman @fontsize 11 @receive (null) @send (null) @presetname
(null) @min (null) @max (null) @minmax (null) (null) @decimal 6 @bgcolor
0.75 0.75 0.75 1 @bdcolor 0.5 0.5 0.5 1 @textcolor 0 0 0 1;
#X obj -126 -406 c.loadmess 0;
#X text -63 -377 The azimuth;
#X text -105 -323 Look inside to see what it computes.;
#X connect 2 0 3 0;
#X connect 3 0 15 0;
#X connect 5 0 4 0;
#X connect 6 0 8 0;
#X connect 7 0 6 0;
#X connect 11 0 12 0;
#X connect 11 1 12 1;
#X connect 11 2 12 2;
#X connect 11 3 12 3;
#X connect 11 4 12 4;
#X connect 11 5 12 5;
#X connect 11 6 12 6;
#X connect 11 7 12 7;
#X connect 11 8 12 8;
#X connect 11 9 12 9;
#X connect 11 10 12 10;
#X connect 11 11 12 11;
#X connect 11 12 12 12;
#X connect 11 13 12 13;
#X connect 11 14 12 14;
#X connect 11 15 12 15;
#X connect 15 0 11 0;
#X connect 15 0 13 0;
#X connect 15 1 11 1;
#X connect 15 1 13 1;
#X connect 15 2 11 2;
#X connect 15 2 13 2;
#X connect 15 3 11 3;
#X connect 15 3 13 3;
#X connect 15 4 11 4;
#X connect 15 4 13 4;
#X connect 15 5 11 5;
#X connect 15 5 13 5;
#X connect 15 6 11 6;
#X connect 15 6 13 6;
#X connect 15 7 11 7;
#X connect 15 7 13 7;
#X connect 15 8 11 8;
#X connect 15 8 13 8;
#X connect 15 9 11 9;
#X connect 15 9 13 9;
#X connect 15 10 11 10;
#X connect 15 10 13 10;
#X connect 15 11 11 11;
#X connect 15 11 13 11;
#X connect 15 12 11 12;
#X connect 15 12 13 12;
#X connect 15 13 11 13;
#X connect 15 13 13 13;
#X connect 15 14 11 14;
#X connect 15 14 13 14;
#X connect 16 0 15 1;
#X connect 17 0 16 0;
#X connect 18 0 17 0;
#X coords 0 681 1 680 100 60 0;
