#N canvas 64 88 1205 608 10;
#X obj -494 -198 hoa.map @patching_rect { 0 0 300 300 } @bgcolor {
0.9 0.9 0.9 1 } @bgcolor2 { 0.75 0.75 0.75 1 } @bdcolor { 0 0 0 1 }
@selcolor { 0.36 0.36 0.37 0.5 } @outputmode { 0 } @zoom { 0.277677
} sources_parameters { source 0 -0.0240087 -2.01673 0 0.2 0.2 0.2 1
s_nosymbol source 1 -1.00837 0.960348 0 0.2 0.2 0.2 1 s_nosymbol }
groups_parameters { group 0 2 0 1 0 0.2 0.2 0.2 1 s_nosymbol } slots_parameters
{ slot 0 source 0 -1.60508 -1.11746 0 0.2 0.2 0.2 1 s_nosymbol source
1 1.76064 1.2611 0 0.2 0.2 0.2 1 s_nosymbol group 0 2 0 1 0 0.2 0.2
0.2 1 s_nosymbol slot 1 source 0 -1.54413 1.7473 0 0.2 0.2 0.2 1 s_nosymbol
source 1 1.70667 -2.15365 0 0.2 0.2 0.2 1 s_nosymbol group 0 2 0 1
0 0.2 0.2 0.2 1 s_nosymbol slot 2 source 0 -1.54413 1.7473 0 0.2 0.2
0.2 1 s_nosymbol source 1 -2.17397 -1.7473 0 0.2 0.2 0.2 1 s_nosymbol
group 0 2 0 1 0 0.2 0.2 0.2 1 s_nosymbol } @patching_rect [ 0 0 300
300 ] @bgcolor [ 0.9 0.9 0.9 1 ] @bgcolor2 [ 0.75 0.75 0.75 1 ] @bdcolor
[ 0 0 0 1 ] @selcolor [ 0.36 0.36 0.37 0.5 ] @outputmode [ 0 ] @zoom
[ 0.312488 ] sources_parameters [ source 0 -1.49339 -0.0853365 0 0.2
0.2 0.2 1 s_nosymbol source 1 1.0027 0.768029 1 0.2 0.2 0.2 1 s_nosymbol
] groups_parameters [ group 0 2 0 1 0 0.2 0.2 0.2 1 s_nosymbol ] slots_parameters
[ slot 0 source 0 -1.60508 -1.11746 0 0.2 0.2 0.2 1 s_nosymbol source
1 1.76064 1.2611 0 0.2 0.2 0.2 1 s_nosymbol group 0 2 0 1 0 0.2 0.2
0.2 1 s_nosymbol slot 1 source 0 -1.54413 1.7473 0 0.2 0.2 0.2 1 s_nosymbol
source 1 1.70667 -2.15365 0 0.2 0.2 0.2 1 s_nosymbol group 0 2 0 1
0 0.2 0.2 0.2 1 s_nosymbol slot 2 source 0 -1.54413 1.7473 0 0.2 0.2
0.2 1 s_nosymbol source 1 -2.17397 -1.7473 0 0.2 0.2 0.2 1 s_nosymbol
group 0 2 0 1 0 0.2 0.2 0.2 1 s_nosymbol ] @patching_rect [ 0 0 300
300 ] @bgcolor [ 0.9 0.9 0.9 1 ] @bgcolor2 [ 0.75 0.75 0.75 1 ] @bdcolor
[ 0 0 0 1 ] @selcolor [ 0.36 0.36 0.37 0.5 ] @outputmode [ 0 ] @zoom
[ 0.312488 ] sources_parameters [ source 0 -1.8933 -1.07654 0 0.2 0.2
0.2 1 s_nosymbol source 1 0.608295 1.66711 0 0.7 0 0.6 1 Jimi Hendrix
] groups_parameters [ group 0 2 0 1 0 0.2 0.9 0 1 Band of Gypsys ]
slots_parameters [ slot 0 source 0 -1.60508 -1.11746 0 0.2 0.2 0.2
1 s_nosymbol source 1 1.76064 1.2611 0 0.2 0.2 0.2 1 s_nosymbol group
0 2 0 1 0 0.2 0.2 0.2 1 s_nosymbol slot 1 source 0 -1.54413 1.7473
0 0.2 0.2 0.2 1 s_nosymbol source 1 1.70667 -2.15365 0 0.2 0.2 0.2
1 s_nosymbol group 0 2 0 1 0 0.2 0.2 0.2 1 s_nosymbol slot 2 source
0 -1.54413 1.7473 0 0.2 0.2 0.2 1 s_nosymbol source 1 -2.17397 -1.7473
0 0.2 0.2 0.2 1 s_nosymbol group 0 2 0 1 0 0.2 0.2 0.2 1 s_nosymbol
] @patching_rect [ 0 0 300 300 ] @bgcolor [ 0.9 0.9 0.9 1 ] @bgcolor2
[ 0.75 0.75 0.75 1 ] @bdcolor [ 0 0 0 1 ] @selcolor [ 0.36 0.36 0.37
0.5 ] @outputmode [ 0 ] @zoom [ 0.312488 ] sources_parameters [ source
0 -1.8933 -1.07654 0 0.2 0.2 0.2 1 s_nosymbol source 1 0.608295 1.66711
0 0.7 0 0.6 1 Jimi ] groups_parameters [ group 0 2 0 1 0 0.2 0.9 0
1 Band ] slots_parameters [ slot 0 source 0 -1.60508 -1.11746 0 0.2
0.2 0.2 1 s_nosymbol source 1 1.76064 1.2611 0 0.2 0.2 0.2 1 s_nosymbol
group 0 2 0 1 0 0.2 0.2 0.2 1 s_nosymbol slot 1 source 0 -1.54413 1.7473
0 0.2 0.2 0.2 1 s_nosymbol source 1 1.70667 -2.15365 0 0.2 0.2 0.2
1 s_nosymbol group 0 2 0 1 0 0.2 0.2 0.2 1 s_nosymbol slot 2 source
0 -1.54413 1.7473 0 0.2 0.2 0.2 1 s_nosymbol source 1 -2.17397 -1.7473
0 0.2 0.2 0.2 1 s_nosymbol group 0 2 0 1 0 0.2 0.2 0.2 1 s_nosymbol
];
#X obj -508 -264 nbx 10 14 -1e+37 1e+37 0 0 empty empty empty 0 -8
0 10 -262144 -1 -1 0.312488 256;
#X msg -494 -232 zoom \$1;
#X obj -511 -196 vsl 15 294 0 127 0 0 empty empty empty 0 -9 0 10 -262144
-1 -1 9228 1;
#X obj -558 -111 / 128;
#X text -507 -283 Set the zoom;
#X obj -557 -244 loadbang;
#X msg -557 -219 40;
#X obj -399 -254 receive map_mes;
#X obj -142 -37 send map_mes;
#X text -156 -309 hoa.map allows you to define the sources and groups
coordinates \, colors and descriptions with messages. Here \, we show
you how to use the syntax.;
#X msg -142 -123 source 0 pol 1 3.14;
#X msg -130 -99 group 0 car 0.5 0.5;
#X text -147 -256 Display source or group and set coordinates with
"source" or "group" message followed by an integer for the index \,
the type of coordinates and one or two floating values for coordinates.
The coordinates types accepted are "polar" (or "pol") \, "cartesian"
(or "car") \, "radius" \, "angle" \, "abscissa" \, "ordinate". The
polar type is followed by the radius then the angle and the cartesian
type is followed by the abscissa then the ordinate. Exemple : "source
0 car 1 0.".;
#X text 230 -278 Set descriptions with "source" or "group" message
followed by an integer for the index \, the "description" message and
everything you want for the description. Set "remove" instead of the
description to remove the description. Exemple : "source 0 description
Jimi Hendrix".;
#X msg 229 -190 source 1 description Jimi Hendrix;
#X msg 251 -167 group 0 description Band of Gypsys;
#X obj 229 -139 send map_mes;
#X text -14 -122 comment;
#X msg 4 -122 source 1 abscissa 2.5;
#X msg 16 -98 group 0 angle 1.14;
#X text 171 -98 Set colors with "source" or "group" message followed
by an integer for the index \, the "color" message and four floating
values for red \, green \, blue and alpha (ok... there's no alpha).
Exemple : "source 0 color 1 0.2 0.6 1;
#X obj 179 34 send map_mes;
#X msg 179 -17 source 1 color 0.7 0 0.6 1;
#X msg 201 6 group 0 color 0.2 0.9 0 1;
#X obj -34 106 send map_mes;
#X text -122 -11 Mute with the "mute" message".;
#X msg -85 61 source 1 mute \$1;
#X msg -107 38 source 0 mute \$1;
#X obj -106 11 tgl 15 0 empty empty empty 17 7 0 10 -262144 -1 -1 0
1;
#X obj -63 13 tgl 15 0 empty empty empty 17 7 0 10 -262144 -1 -1 0
1;
#X obj 29 15 tgl 15 0 empty empty empty 17 7 0 10 -262144 -1 -1 0 1
;
#X msg 36 53 group 0 mute \$1;
#X text 177 57 Remove a source or group with the "remove" message".
Note that remove will also remove coordinates \, descriptions \, color
and send a message to hoa.map~ to mute the source (exept for groups).
;
#X obj 190 170 send map_mes;
#X msg 190 119 group 1 remove;
#X msg 212 142 source 3 remove;
#X obj -493 207 send map_mes;
#X msg -492 173 clear;
#X text -493 148 Clear all !;
#X msg -26 -60 source 3 car 0.2 -0.7;
#X text -360 125 Create a group with the "group" message followed by
an integer for the group index \, "set" message and a list of intergers
\, the indexs of source to put in the group. Exemple : "group 0 set
1 2 3 4".;
#X msg -347 192 group 1 set 0 1 3;
#X obj -347 232 send map_mes;
#X text -237 190 (create the source 3 before);
#X text 285 119 (create the group 1 before);
#X text 308 141 (create the source 3 before);
#X obj -283 -252 bng 15 250 50 0 empty empty empty 17 7 0 10 -262144
-1 -1;
#X text -308 -286 Bang to output;
#X text -323 -271 (see hoa.map_outs.pd);
#X connect 1 0 2 0;
#X connect 2 0 0 0;
#X connect 3 0 4 0;
#X connect 4 0 1 0;
#X connect 6 0 7 0;
#X connect 7 0 3 0;
#X connect 8 0 0 0;
#X connect 11 0 9 0;
#X connect 12 0 9 0;
#X connect 15 0 17 0;
#X connect 16 0 17 0;
#X connect 19 0 9 0;
#X connect 20 0 9 0;
#X connect 23 0 22 0;
#X connect 24 0 22 0;
#X connect 27 0 25 0;
#X connect 28 0 25 0;
#X connect 29 0 28 0;
#X connect 30 0 27 0;
#X connect 31 0 32 0;
#X connect 32 0 25 0;
#X connect 35 0 34 0;
#X connect 36 0 34 0;
#X connect 38 0 37 0;
#X connect 40 0 9 0;
#X connect 42 0 43 0;
#X connect 47 0 0 0;
