#N canvas 83 35 925 675 10;
#X obj -255 -297 cnv 15 552 40 empty \$0-pddp.cnv.header hoa.optim~
3 12 0 18 -204280 -1 0;
#X obj 31 -159 noise~;
#X obj 199 -169 hoa.pi 2;
#X obj 199 -198 loadbang;
#X obj 148 -150 *~;
#X obj 148 -181 phasor~ -0.3;
#X obj 31 349 dac~ 1 2 3 4 5 6 7 8;
#X obj 31 -122 hoa.encoder~ 3 -----;
#X text -252 -275 An ambisonics soundfield optimization;
#X text -250 -257 hoa.optim~ weights the cylindrical harmonics signals
depending to the optimization.;
#X text -220 -139 Optimization "basic" has no effect.;
#X text -54 -221 "maxRe" is used when auditory is confined to the center
of the circle.;
#X text 188 -135 "inPhase" is used when auditory cover all the circle.
;
#X obj 235 -82 hoa.optim~ 3 @mode [ inPhase ];
#X obj 7 -83 hoa.optim~ 3 @mode [ maxRe ];
#X obj -205 -82 hoa.optim~ 3 @mode [ basic ];
#X text 321 -281 Eliott Paris © 2012-2013 CICM / Universite Paris
8;
#X text 321 -297 hoalibrary | Julien Colafrancesco \, Pierre Guillot
;
#X msg 360 -244 \; pd dsp 1;
#X msg 360 -206 \; pd dsp 0;
#X obj 238 -53 hoa.scope~ @order [ 3 ] @patching_rect { 0 0 180 180
} @order { 3 } @gain { 1 } @interval { 100 } @drawcircle { 1 } @drawangles
{ 1 } @drawcontrib { 1 } @bgcolor { 0.76 0.76 0.76 1 } @bordercolor
{ 0.7 0.7 0.7 1 } @txcolor { 0 0 0 7 } @phcolor { 1 0 0 1 } @nhcolor
{ 0 0 1 1 } @patching_rect { 0 0 180 180 } @order { 3 } @gain { 1 }
@interval { 100 } @drawcircle { 1 } @drawangles { 1 } @drawcontrib
{ 1 } @bgcolor { 0.76 0.76 0.76 1 } @bordercolor { 0.7 0.7 0.7 1 }
@txcolor { 0 0 0 7 } @phcolor { 1 0 0 1 } @nhcolor { 0 0 1 1 } @patching_rect
{ 0 0 180 180 } @order { 3 } @gain { 1 } @interval { 100 } @drawcircle
{ 1 } @drawangles { 1 } @drawcontrib { 1 } @bgcolor { 0.76 0.76 0.76
1 } @bordercolor { 0.7 0.7 0.7 1 } @txcolor { 0 0 0 7 } @phcolor {
1 0 0 1 } @nhcolor { 0 0 1 1 };
#X obj 3 -54 hoa.scope~ @order [ 3 ] @patching_rect { 0 0 180 180 }
@order { 3 } @gain { 1 } @interval { 100 } @drawcircle { 1 } @drawangles
{ 1 } @drawcontrib { 1 } @bgcolor { 0.76 0.76 0.76 1 } @bordercolor
{ 0.7 0.7 0.7 1 } @txcolor { 0 0 0 7 } @phcolor { 1 0 0 1 } @nhcolor
{ 0 0 1 1 } @patching_rect { 0 0 180 180 } @order { 3 } @gain { 1 }
@interval { 100 } @drawcircle { 1 } @drawangles { 1 } @drawcontrib
{ 1 } @bgcolor { 0.76 0.76 0.76 1 } @bordercolor { 0.7 0.7 0.7 1 }
@txcolor { 0 0 0 7 } @phcolor { 1 0 0 1 } @nhcolor { 0 0 1 1 } @patching_rect
{ 0 0 180 180 } @order { 3 } @gain { 1 } @interval { 100 } @drawcircle
{ 1 } @drawangles { 1 } @drawcontrib { 1 } @bgcolor { 0.76 0.76 0.76
1 } @bordercolor { 0.7 0.7 0.7 1 } @txcolor { 0 0 0 7 } @phcolor {
1 0 0 1 } @nhcolor { 0 0 1 1 } @patching_rect { 0 0 180 180 } @order
{ 3 } @gain { 1 } @interval { 100 } @drawcircle { 1 } @drawangles {
1 } @drawcontrib { 1 } @bgcolor { 0.76 0.76 0.76 1 } @bordercolor {
0.7 0.7 0.7 1 } @txcolor { 0 0 0 7 } @phcolor { 1 0 0 1 } @nhcolor
{ 0 0 1 1 };
#X obj -210 -54 hoa.scope~ @order [ 3 ] @patching_rect { 0 0 180 180
} @order { 3 } @gain { 1 } @interval { 100 } @drawcircle { 1 } @drawangles
{ 1 } @drawcontrib { 1 } @bgcolor { 0.76 0.76 0.76 1 } @bordercolor
{ 0.7 0.7 0.7 1 } @txcolor { 0 0 0 7 } @phcolor { 1 0 0 1 } @nhcolor
{ 0 0 1 1 } @patching_rect { 0 0 180 180 } @order { 3 } @gain { 1 }
@interval { 100 } @drawcircle { 1 } @drawangles { 1 } @drawcontrib
{ 1 } @bgcolor { 0.76 0.76 0.76 1 } @bordercolor { 0.7 0.7 0.7 1 }
@txcolor { 0 0 0 7 } @phcolor { 1 0 0 1 } @nhcolor { 0 0 1 1 } @patching_rect
{ 0 0 180 180 } @order { 3 } @gain { 1 } @interval { 100 } @drawcircle
{ 1 } @drawangles { 1 } @drawcontrib { 1 } @bgcolor { 0.76 0.76 0.76
1 } @bordercolor { 0.7 0.7 0.7 1 } @txcolor { 0 0 0 7 } @phcolor {
1 0 0 1 } @nhcolor { 0 0 1 1 } @patching_rect { 0 0 180 180 } @order
{ 3 } @gain { 1 } @interval { 100 } @drawcircle { 1 } @drawangles {
1 } @drawcontrib { 1 } @bgcolor { 0.76 0.76 0.76 1 } @bordercolor {
0.7 0.7 0.7 1 } @txcolor { 0 0 0 7 } @phcolor { 1 0 0 1 } @nhcolor
{ 0 0 1 1 } @patching_rect { 0 0 180 180 } @order { 3 } @gain { 1 }
@interval { 100 } @drawcircle { 1 } @drawangles { 1 } @drawcontrib
{ 1 } @bgcolor { 0.76 0.76 0.76 1 } @bordercolor { 0.7 0.7 0.7 1 }
@txcolor { 0 0 0 7 } @phcolor { 1 0 0 1 } @nhcolor { 0 0 1 1 } @patching_rect
{ 0 0 180 180 } @order { 3 } @gain { 1 } @interval { 100 } @drawcircle
{ 1 } @drawangles { 1 } @drawcontrib { 1 } @bgcolor { 0.76 0.76 0.76
1 } @bordercolor { 0.7 0.7 0.7 1 } @txcolor { 0 0 0 7 } @phcolor {
1 0 0 1 } @nhcolor { 0 0 1 1 };
#X obj 241 155 hoa.meter~ @patching_rect { 0 0 180 180 } @leds_bg {
1 } @drawvector { 1 } @drawmborder { 3 } @metersize { 0.8 } @orientation
{ 0 } @loudspeakers { 8 } @angles { 0 45 90 135 180 225 270 315 0 0
0 0 0 0 0 0 0 0 0 0 0 0 0 0 0 0 0 0 0 0 0 0 0 0 0 0 0 0 0 0 0 0 0 0
0 0 0 0 0 0 0 0 0 0 0 0 0 0 0 0 0 0 0 0 } @offset { 0 } @rotation {
1 } @interval { 50 } @dbperled { 3 } @nhotleds { 3 } @ntepidleds {
3 } @nwarmleds { 3 } @numleds { 12 } @bgcolor { 0.55 0.55 0.55 1 }
@mbgcolor { 0.4 0.4 0.4 1 } @bordercolor { 0.25 0.25 0.25 1 } @coldcolor
{ 0 0.6 0 0.8 } @tepidcolor { 0.6 0.73 0 0.8 } @warmcolor { 0.85 0.85
0 0.8 } @hotcolor { 1 0.6 0 0.8 } @overcolor { 1 0 0 0.8 } @energycolor
{ 0 0 1 0.8 } @velocitycolor { 1 0 0 0.8 } @patching_rect [ 0 0 180
180 ] @leds_bg [ 1 ] @vectors [ 1 ] @drawmborder [ 3 ] @metersize [
0.8 ] @orientation [ 0 ] @loudspeakers [ 8 ] @angles [ 0 45 90 135
180 225 270 315 0 0 0 0 0 0 0 0 0 0 0 0 0 0 0 0 0 0 0 0 0 0 0 0 0 0
0 0 0 0 0 0 0 0 0 0 0 0 0 0 0 0 0 0 0 0 0 0 0 0 0 0 0 0 0 0 ] @offset
[ 0 ] @rotation [ 1 ] @interval [ 50 ] @dbperled [ 3 ] @nhotleds [
3 ] @ntepidleds [ 3 ] @nwarmleds [ 3 ] @numleds [ 12 ] @bgcolor [ 0.55
0.55 0.55 1 ] @mbgcolor [ 0.4 0.4 0.4 1 ] @bordercolor [ 0.25 0.25
0.25 1 ] @coldcolor [ 0 0.6 0 0.8 ] @tepidcolor [ 0.6 0.73 0 0.8 ]
@warmcolor [ 0.85 0.85 0 0.8 ] @hotcolor [ 1 0.6 0 0.8 ] @overcolor
[ 1 0 0 0.8 ] @energycolor [ 0 0 1 0.8 ] @velocitycolor [ 1 0 0 0.8
];
#X obj 3 155 hoa.meter~ @patching_rect { 0 0 180 180 } @leds_bg { 1
} @drawvector { 1 } @drawmborder { 3 } @metersize { 0.8 } @orientation
{ 0 } @loudspeakers { 8 } @angles { 0 45 90 135 180 225 270 315 0 0
0 0 0 0 0 0 0 0 0 0 0 0 0 0 0 0 0 0 0 0 0 0 0 0 0 0 0 0 0 0 0 0 0 0
0 0 0 0 0 0 0 0 0 0 0 0 0 0 0 0 0 0 0 0 } @offset { 0 } @rotation {
1 } @interval { 50 } @dbperled { 3 } @nhotleds { 3 } @ntepidleds {
3 } @nwarmleds { 3 } @numleds { 12 } @bgcolor { 0.55 0.55 0.55 1 }
@mbgcolor { 0.4 0.4 0.4 1 } @bordercolor { 0.25 0.25 0.25 1 } @coldcolor
{ 0 0.6 0 0.8 } @tepidcolor { 0.6 0.73 0 0.8 } @warmcolor { 0.85 0.85
0 0.8 } @hotcolor { 1 0.6 0 0.8 } @overcolor { 1 0 0 0.8 } @energycolor
{ 0 0 1 0.8 } @velocitycolor { 1 0 0 0.8 } @patching_rect [ 0 0 180
180 ] @leds_bg [ 1 ] @vectors [ 1 ] @drawmborder [ 3 ] @metersize [
0.8 ] @orientation [ 0 ] @loudspeakers [ 8 ] @angles [ 0 45 90 135
180 225 270 315 0 0 0 0 0 0 0 0 0 0 0 0 0 0 0 0 0 0 0 0 0 0 0 0 0 0
0 0 0 0 0 0 0 0 0 0 0 0 0 0 0 0 0 0 0 0 0 0 0 0 0 0 0 0 0 0 ] @offset
[ 0 ] @rotation [ 1 ] @interval [ 50 ] @dbperled [ 3 ] @nhotleds [
3 ] @ntepidleds [ 3 ] @nwarmleds [ 3 ] @numleds [ 12 ] @bgcolor [ 0.55
0.55 0.55 1 ] @mbgcolor [ 0.4 0.4 0.4 1 ] @bordercolor [ 0.25 0.25
0.25 1 ] @coldcolor [ 0 0.6 0 0.8 ] @tepidcolor [ 0.6 0.73 0 0.8 ]
@warmcolor [ 0.85 0.85 0 0.8 ] @hotcolor [ 1 0.6 0 0.8 ] @overcolor
[ 1 0 0 0.8 ] @energycolor [ 0 0 1 0.8 ] @velocitycolor [ 1 0 0 0.8
];
#X obj -216 155 hoa.meter~ @patching_rect { 0 0 180 180 } @leds_bg
{ 1 } @drawvector { 1 } @drawmborder { 3 } @metersize { 0.8 } @orientation
{ 0 } @loudspeakers { 8 } @angles { 0 45 90 135 180 225 270 315 0 0
0 0 0 0 0 0 0 0 0 0 0 0 0 0 0 0 0 0 0 0 0 0 0 0 0 0 0 0 0 0 0 0 0 0
0 0 0 0 0 0 0 0 0 0 0 0 0 0 0 0 0 0 0 0 } @offset { 0 } @rotation {
1 } @interval { 50 } @dbperled { 3 } @nhotleds { 3 } @ntepidleds {
3 } @nwarmleds { 3 } @numleds { 12 } @bgcolor { 0.55 0.55 0.55 1 }
@mbgcolor { 0.4 0.4 0.4 1 } @bordercolor { 0.25 0.25 0.25 1 } @coldcolor
{ 0 0.6 0 0.8 } @tepidcolor { 0.6 0.73 0 0.8 } @warmcolor { 0.85 0.85
0 0.8 } @hotcolor { 1 0.6 0 0.8 } @overcolor { 1 0 0 0.8 } @energycolor
{ 0 0 1 0.8 } @velocitycolor { 1 0 0 0.8 } @patching_rect [ 0 0 180
180 ] @leds_bg [ 1 ] @vectors [ 1 ] @drawmborder [ 3 ] @metersize [
0.8 ] @orientation [ 0 ] @loudspeakers [ 8 ] @angles [ 0 45 90 135
180 225 270 315 0 0 0 0 0 0 0 0 0 0 0 0 0 0 0 0 0 0 0 0 0 0 0 0 0 0
0 0 0 0 0 0 0 0 0 0 0 0 0 0 0 0 0 0 0 0 0 0 0 0 0 0 0 0 0 0 ] @offset
[ 0 ] @rotation [ 1 ] @interval [ 50 ] @dbperled [ 3 ] @nhotleds [
3 ] @ntepidleds [ 3 ] @nwarmleds [ 3 ] @numleds [ 12 ] @bgcolor [ 0.55
0.55 0.55 1 ] @mbgcolor [ 0.4 0.4 0.4 1 ] @bordercolor [ 0.25 0.25
0.25 1 ] @coldcolor [ 0 0.6 0 0.8 ] @tepidcolor [ 0.6 0.73 0 0.8 ]
@warmcolor [ 0.85 0.85 0 0.8 ] @hotcolor [ 1 0.6 0 0.8 ] @overcolor
[ 1 0 0 0.8 ] @energycolor [ 0 0 1 0.8 ] @velocitycolor [ 1 0 0 0.8
];
#X obj 268 132 hoa.decoder~ 3 0 8 -;
#X obj 31 131 hoa.decoder~ 3 0 8 -;
#X obj -189 132 hoa.decoder~ 3 0 8 -;
#X connect 1 0 7 0;
#X connect 2 0 4 1;
#X connect 3 0 2 0;
#X connect 4 0 7 1;
#X connect 5 0 4 0;
#X connect 7 0 13 0;
#X connect 7 0 14 0;
#X connect 7 0 15 0;
#X connect 7 1 13 1;
#X connect 7 1 14 1;
#X connect 7 1 15 1;
#X connect 7 2 13 2;
#X connect 7 2 14 2;
#X connect 7 2 15 2;
#X connect 7 3 13 3;
#X connect 7 3 14 3;
#X connect 7 3 15 3;
#X connect 7 4 13 4;
#X connect 7 4 14 4;
#X connect 7 4 15 4;
#X connect 7 5 13 5;
#X connect 7 5 14 5;
#X connect 7 5 15 5;
#X connect 7 6 13 6;
#X connect 7 6 14 6;
#X connect 7 6 15 6;
#X connect 13 0 20 0;
#X connect 13 0 26 0;
#X connect 13 1 20 1;
#X connect 13 1 26 1;
#X connect 13 2 20 2;
#X connect 13 2 26 2;
#X connect 13 3 20 3;
#X connect 13 3 26 3;
#X connect 13 4 20 4;
#X connect 13 4 26 4;
#X connect 13 5 20 5;
#X connect 13 5 26 5;
#X connect 13 6 20 6;
#X connect 13 6 26 6;
#X connect 14 0 21 0;
#X connect 14 0 27 0;
#X connect 14 1 21 1;
#X connect 14 1 27 1;
#X connect 14 2 21 2;
#X connect 14 2 27 2;
#X connect 14 3 21 3;
#X connect 14 3 27 3;
#X connect 14 4 21 4;
#X connect 14 4 27 4;
#X connect 14 5 21 5;
#X connect 14 5 27 5;
#X connect 14 6 21 6;
#X connect 14 6 27 6;
#X connect 15 0 22 0;
#X connect 15 0 28 0;
#X connect 15 1 22 1;
#X connect 15 1 28 1;
#X connect 15 2 22 2;
#X connect 15 2 28 2;
#X connect 15 3 22 3;
#X connect 15 3 28 3;
#X connect 15 4 22 4;
#X connect 15 4 28 4;
#X connect 15 5 22 5;
#X connect 15 5 28 5;
#X connect 15 6 22 6;
#X connect 15 6 28 6;
#X connect 26 0 6 0;
#X connect 26 0 23 0;
#X connect 26 1 6 1;
#X connect 26 1 23 1;
#X connect 26 2 6 2;
#X connect 26 2 23 2;
#X connect 26 3 6 3;
#X connect 26 3 23 3;
#X connect 26 4 6 4;
#X connect 26 4 23 4;
#X connect 26 5 6 5;
#X connect 26 5 23 5;
#X connect 26 6 6 6;
#X connect 26 6 23 6;
#X connect 26 7 6 7;
#X connect 26 7 23 7;
#X connect 27 0 6 0;
#X connect 27 0 24 0;
#X connect 27 1 6 1;
#X connect 27 1 24 1;
#X connect 27 2 6 2;
#X connect 27 2 24 2;
#X connect 27 3 6 3;
#X connect 27 3 24 3;
#X connect 27 4 6 4;
#X connect 27 4 24 4;
#X connect 27 5 6 5;
#X connect 27 5 24 5;
#X connect 27 6 6 6;
#X connect 27 6 24 6;
#X connect 27 7 6 7;
#X connect 27 7 24 7;
#X connect 28 0 6 0;
#X connect 28 0 25 0;
#X connect 28 1 6 1;
#X connect 28 1 25 1;
#X connect 28 2 6 2;
#X connect 28 2 25 2;
#X connect 28 3 6 3;
#X connect 28 3 25 3;
#X connect 28 4 6 4;
#X connect 28 4 25 4;
#X connect 28 5 6 5;
#X connect 28 5 25 5;
#X connect 28 6 6 6;
#X connect 28 6 25 6;
#X connect 28 7 6 7;
#X connect 28 7 25 7;
#X coords 0 675 1 674 100 60 0;
