#N canvas 31 82 1297 653 10;
#X obj -255 -434 cnv 15 552 40 empty \$0-pddp.cnv.header hoa.grain~
3 12 0 18 -204280 -1 0;
#X obj 119 -266 hoa.pi 2;
#X obj 119 -295 loadbang;
#X obj 68 -237 *~;
#X obj 68 -324 phasor~ -0.3;
#X obj -95 -200 hoa.encoder~ 7 ----------------------------;
#X obj 75 64 dac~ 1 2 3 4 5 6 7 8 9 10 11 12 13 14 15 16;
#X text 106 -236 angle;
#X obj -227 -268 nbx 5 14 -1e+37 1e+37 0 0 empty empty empty 0 -8 0
10 -262144 -1 -1 0 256;
#X obj -157 -306 nbx 5 14 -1e+37 1e+37 0 0 empty empty empty 0 -8 0
10 -262144 -1 -1 0 256;
#X obj 262 -176 hoa.grain~ 7 no -----------------------;
#X msg -157 -273 size \$1;
#X msg -227 -235 delay \$1;
#X obj -24 -306 nbx 5 14 -1e+37 1e+37 0 0 empty empty empty 0 -8 0
10 -262144 -1 -1 0 256;
#X obj -213 -159 nbx 5 14 -1e+37 1e+37 0 0 empty empty empty 0 -8 0
10 -262144 -1 -1 0 256;
#X msg -24 -271 feedback \$1;
#X msg -213 -125 rarefaction \$1;
#X obj 345 -344 nbx 5 14 -1e+37 1e+37 0 0 empty empty empty 0 -8 0
10 -262144 -1 -1 0 256;
#X obj 446 -347 nbx 5 14 -1e+37 1e+37 0 0 empty empty empty 0 -8 0
10 -262144 -1 -1 0 256;
#X msg 446 -313 size \$1;
#X msg 345 -312 delay \$1;
#X obj 574 -359 nbx 5 14 0 1 0 0 empty empty empty 0 -8 0 10 -262144
-1 -1 0 256;
#X obj 570 -287 nbx 5 14 0 1 0 0 empty empty empty 0 -8 0 10 -262144
-1 -1 0 256;
#X msg 573 -324 feedback \$1;
#X msg 570 -255 rarefaction \$1;
#N canvas 0 22 665 459 (subpatch) 0;
#X array grain_env 44100 float 2;
#X coords 0 1 44100 -1 200 140 1;
#X restore 712 -7 graph;
#X obj -95 -153 hoa.grain~ 7 post grain_env ---------------;
#X obj 719 -55 soundfiler;
#X msg 193 -378 \; pd dsp 1;
#X msg 192 -341 \; pd dsp 0;
#X msg 563 -199 set grain_env;
#X obj -95 -244 osc~ 220;
#X msg 814 -58 read -resize hanning.wav grain_env;
#X msg 719 -79 read -resize triangle.wav grain_env;
#X msg 824 -33 read -resize sinc5.wav grain_env;
#X obj 261 -264 osc~ 440;
#X text 301 -417 Eliott Paris © 2012-2013 CICM / Universite Paris
8;
#X text 301 -433 hoalibrary | Julien Colafrancesco \, Pierre Guillot
;
#X text -252 -412 An ambisonic granular synthesizer.;
#X text -250 -394 hoa.grain~ synthesizes a diffuse sound field. It
uses delay lines and amplitude modulation to create streams of grains.
The parameters are scaled depending to the orders to generate a granular
sound field.;
#X obj 814 -114 loadbang;
#X text 342 -376 Delay (in ms);
#X text 440 -378 grain size (in ms);
#X text 509 -219 Set the buffer for the envelope;
#X msg -237 -189 set grain_env;
#X text 708 -319 1st argument is the order;
#X text 708 -300 2nd argument is the mode :;
#X text 738 -281 post : after an encoder;
#X text 737 -264 no : no encoder (direct synthesis);
#X text 708 -247 3rd argument is the buffer name;
#X obj -190 -25 hoa.scope~ @order [ 7 ] @patching_rect { 0 0 225 225
} @order { 7 } @gain { 1 } @interval { 100 } @drawcircle { 1 } @drawangles
{ 1 } @drawcontrib { 1 } @bgcolor { 0.76 0.76 0.76 1 } @bordercolor
{ 0.7 0.7 0.7 1 } @txcolor { 0 0 0 7 } @phcolor { 1 0 0 1 } @nhcolor
{ 0 0 1 1 } @patching_rect { 0 0 225 225 } @order { 7 } @gain { 1 }
@interval { 100 } @drawcircle { 1 } @drawangles { 1 } @drawcontrib
{ 1 } @bgcolor { 0.76 0.76 0.76 1 } @bordercolor { 0.7 0.7 0.7 1 }
@txcolor { 0 0 0 7 } @phcolor { 1 0 0 1 } @nhcolor { 0 0 1 1 };
#X obj 408 -35 hoa.scope~ @order [ 7 ] @patching_rect { 0 0 225 225
} @order { 7 } @gain { 1 } @interval { 100 } @drawcircle { 1 } @drawangles
{ 1 } @drawcontrib { 1 } @bgcolor { 0.76 0.76 0.76 1 } @bordercolor
{ 0.7 0.7 0.7 1 } @txcolor { 0 0 0 7 } @phcolor { 1 0 0 1 } @nhcolor
{ 0 0 1 1 } @patching_rect { 0 0 225 225 } @order { 7 } @gain { 1 }
@interval { 100 } @drawcircle { 1 } @drawangles { 1 } @drawcontrib
{ 1 } @bgcolor { 0.76 0.76 0.76 1 } @bordercolor { 0.7 0.7 0.7 1 }
@txcolor { 0 0 0 7 } @phcolor { 1 0 0 1 } @nhcolor { 0 0 1 1 } @patching_rect
{ 0 0 225 225 } @order { 7 } @gain { 1 } @interval { 100 } @drawcircle
{ 1 } @drawangles { 1 } @drawcontrib { 1 } @bgcolor { 0.76 0.76 0.76
1 } @bordercolor { 0.7 0.7 0.7 1 } @txcolor { 0 0 0 7 } @phcolor {
1 0 0 1 } @nhcolor { 0 0 1 1 };
#X text 570 -388 Feedback (0 - 1);
#X text 566 -307 Rarefaction (0 - 1);
#X text 732 -142 Change the envelope :;
#X obj 75 -7 hoa.decoder~ 7 ambisonic 16 ---------------;
#X connect 1 0 3 1;
#X connect 2 0 1 0;
#X connect 3 0 5 1;
#X connect 4 0 3 0;
#X connect 5 0 26 0;
#X connect 5 1 26 1;
#X connect 5 2 26 2;
#X connect 5 3 26 3;
#X connect 5 4 26 4;
#X connect 5 5 26 5;
#X connect 5 6 26 6;
#X connect 5 7 26 7;
#X connect 5 8 26 8;
#X connect 5 9 26 9;
#X connect 5 10 26 10;
#X connect 5 11 26 11;
#X connect 5 12 26 12;
#X connect 5 13 26 13;
#X connect 5 14 26 14;
#X connect 8 0 12 0;
#X connect 9 0 11 0;
#X connect 10 0 51 0;
#X connect 10 0 55 0;
#X connect 10 1 51 1;
#X connect 10 1 55 1;
#X connect 10 2 51 2;
#X connect 10 2 55 2;
#X connect 10 3 51 3;
#X connect 10 3 55 3;
#X connect 10 4 51 4;
#X connect 10 4 55 4;
#X connect 10 5 51 5;
#X connect 10 5 55 5;
#X connect 10 6 51 6;
#X connect 10 6 55 6;
#X connect 10 7 51 7;
#X connect 10 7 55 7;
#X connect 10 8 51 8;
#X connect 10 8 55 8;
#X connect 10 9 51 9;
#X connect 10 9 55 9;
#X connect 10 10 51 10;
#X connect 10 10 55 10;
#X connect 10 11 51 11;
#X connect 10 11 55 11;
#X connect 10 12 51 12;
#X connect 10 12 55 12;
#X connect 10 13 51 13;
#X connect 10 13 55 13;
#X connect 10 14 51 14;
#X connect 10 14 55 14;
#X connect 11 0 26 0;
#X connect 12 0 26 0;
#X connect 13 0 15 0;
#X connect 14 0 16 0;
#X connect 15 0 26 0;
#X connect 16 0 26 0;
#X connect 17 0 20 0;
#X connect 18 0 19 0;
#X connect 19 0 10 0;
#X connect 20 0 10 0;
#X connect 21 0 23 0;
#X connect 22 0 24 0;
#X connect 23 0 10 0;
#X connect 24 0 10 0;
#X connect 26 0 50 0;
#X connect 26 0 55 0;
#X connect 26 1 50 1;
#X connect 26 1 55 1;
#X connect 26 2 50 2;
#X connect 26 2 55 2;
#X connect 26 3 50 3;
#X connect 26 3 55 3;
#X connect 26 4 50 4;
#X connect 26 4 55 4;
#X connect 26 5 50 5;
#X connect 26 5 55 5;
#X connect 26 6 50 6;
#X connect 26 6 55 6;
#X connect 26 7 50 7;
#X connect 26 7 55 7;
#X connect 26 8 50 8;
#X connect 26 8 55 8;
#X connect 26 9 50 9;
#X connect 26 9 55 9;
#X connect 26 10 50 10;
#X connect 26 10 55 10;
#X connect 26 11 50 11;
#X connect 26 11 55 11;
#X connect 26 12 50 12;
#X connect 26 12 55 12;
#X connect 26 13 50 13;
#X connect 26 13 55 13;
#X connect 26 14 50 14;
#X connect 26 14 55 14;
#X connect 30 0 10 0;
#X connect 31 0 5 0;
#X connect 32 0 27 0;
#X connect 33 0 27 0;
#X connect 34 0 27 0;
#X connect 35 0 10 0;
#X connect 40 0 32 0;
#X connect 44 0 26 0;
#X connect 55 0 6 0;
#X connect 55 1 6 1;
#X connect 55 2 6 2;
#X connect 55 3 6 3;
#X connect 55 4 6 4;
#X connect 55 5 6 5;
#X connect 55 6 6 6;
#X connect 55 7 6 7;
#X connect 55 8 6 8;
#X connect 55 9 6 9;
#X connect 55 10 6 10;
#X connect 55 11 6 11;
#X connect 55 12 6 12;
#X connect 55 13 6 13;
#X connect 55 14 6 14;
#X connect 55 15 6 15;
#X coords 0 653 1 652 100 60 0;
