#N canvas 207 114 1205 608 10;
#X obj -524 -258 hoa.map @patching_rect { 0 0 300 300 } @bgcolor {
0.9 0.9 0.9 1 } @bgcolor2 { 0.75 0.75 0.75 1 } @bdcolor { 0 0 0 1 }
@selcolor { 0.36 0.36 0.37 0.5 } @outputmode { 0 } @zoom { 0.277677
} sources_parameters { source 0 -0.0240087 -2.01673 0 0.2 0.2 0.2 1
s_nosymbol source 1 -1.00837 0.960348 0 0.2 0.2 0.2 1 s_nosymbol }
groups_parameters { group 0 2 0 1 0 0.2 0.2 0.2 1 s_nosymbol } slots_parameters
{ slot 0 source 0 -1.60508 -1.11746 0 0.2 0.2 0.2 1 s_nosymbol source
1 1.76064 1.2611 0 0.2 0.2 0.2 1 s_nosymbol group 0 2 0 1 0 0.2 0.2
0.2 1 s_nosymbol slot 1 source 0 -1.54413 1.7473 0 0.2 0.2 0.2 1 s_nosymbol
source 1 1.70667 -2.15365 0 0.2 0.2 0.2 1 s_nosymbol group 0 2 0 1
0 0.2 0.2 0.2 1 s_nosymbol slot 2 source 0 -1.54413 1.7473 0 0.2 0.2
0.2 1 s_nosymbol source 1 -2.17397 -1.7473 0 0.2 0.2 0.2 1 s_nosymbol
group 0 2 0 1 0 0.2 0.2 0.2 1 s_nosymbol } @patching_rect [ 0 0 300
300 ] @bgcolor [ 0.9 0.9 0.9 1 ] @bgcolor2 [ 0.75 0.75 0.75 1 ] @bdcolor
[ 0 0 0 1 ] @selcolor [ 0.36 0.36 0.37 0.5 ] @outputmode [ 0 ] @zoom
[ 0.312488 ] sources_parameters [ source 0 -1.49339 -0.0853365 0 0.2
0.2 0.2 1 s_nosymbol source 1 1.0027 0.768029 1 0.2 0.2 0.2 1 s_nosymbol
] groups_parameters [ group 0 2 0 1 0 0.2 0.2 0.2 1 s_nosymbol ] slots_parameters
[ slot 0 source 0 -1.60508 -1.11746 0 0.2 0.2 0.2 1 s_nosymbol source
1 1.76064 1.2611 0 0.2 0.2 0.2 1 s_nosymbol group 0 2 0 1 0 0.2 0.2
0.2 1 s_nosymbol slot 1 source 0 -1.54413 1.7473 0 0.2 0.2 0.2 1 s_nosymbol
source 1 1.70667 -2.15365 0 0.2 0.2 0.2 1 s_nosymbol group 0 2 0 1
0 0.2 0.2 0.2 1 s_nosymbol slot 2 source 0 -1.54413 1.7473 0 0.2 0.2
0.2 1 s_nosymbol source 1 -2.17397 -1.7473 0 0.2 0.2 0.2 1 s_nosymbol
group 0 2 0 1 0 0.2 0.2 0.2 1 s_nosymbol ] @patching_rect [ 0 0 300
300 ] @bgcolor [ 0.9 0.9 0.9 1 ] @bgcolor2 [ 0.75 0.75 0.75 1 ] @bdcolor
[ 0 0 0 1 ] @selcolor [ 0.36 0.36 0.37 0.5 ] @outputmode [ 0 ] @zoom
[ 0.312488 ] sources_parameters [ source 0 -1.8933 -1.07654 0 0.2 0.2
0.2 1 s_nosymbol source 1 0.608295 1.66711 0 0.7 0 0.6 1 Jimi Hendrix
] groups_parameters [ group 0 2 0 1 0 0.2 0.9 0 1 Band of Gypsys ]
slots_parameters [ slot 0 source 0 -1.60508 -1.11746 0 0.2 0.2 0.2
1 s_nosymbol source 1 1.76064 1.2611 0 0.2 0.2 0.2 1 s_nosymbol group
0 2 0 1 0 0.2 0.2 0.2 1 s_nosymbol slot 1 source 0 -1.54413 1.7473
0 0.2 0.2 0.2 1 s_nosymbol source 1 1.70667 -2.15365 0 0.2 0.2 0.2
1 s_nosymbol group 0 2 0 1 0 0.2 0.2 0.2 1 s_nosymbol slot 2 source
0 -1.54413 1.7473 0 0.2 0.2 0.2 1 s_nosymbol source 1 -2.17397 -1.7473
0 0.2 0.2 0.2 1 s_nosymbol group 0 2 0 1 0 0.2 0.2 0.2 1 s_nosymbol
] @patching_rect [ 0 0 300 300 ] @bgcolor [ 0.9 0.9 0.9 1 ] @bgcolor2
[ 0.75 0.75 0.75 1 ] @bdcolor [ 0 0 0 1 ] @selcolor [ 0.36 0.36 0.37
0.5 ] @outputmode [ 0 ] @zoom [ 0.312488 ] sources_parameters [ source
0 -2.34675 2.51743 0 0.2 0.2 0.2 1 s_nosymbol source 1 -2.30409 -0.960036
0 0.2 0.2 0.2 1 s_nosymbol ] groups_parameters [ group 0 2 0 1 0 0.2
0.2 0.2 1 s_nosymbol ] slots_parameters [ slot 0 source 0 -1.60508
-1.11746 0 0.2 0.2 0.2 1 s_nosymbol source 1 1.76064 1.2611 0 0.2 0.2
0.2 1 s_nosymbol group 0 2 0 1 0 0.2 0.2 0.2 1 s_nosymbol slot 1 source
0 -2.34675 2.51743 0 0.2 0.2 0.2 1 s_nosymbol source 1 1.70673 -1.92007
0 0.2 0.2 0.2 1 s_nosymbol group 0 2 0 1 0 0.2 0.2 0.2 1 s_nosymbol
slot 2 source 0 -2.34675 2.51743 0 0.2 0.2 0.2 1 s_nosymbol source
1 -2.30409 -0.960036 0 0.2 0.2 0.2 1 s_nosymbol group 0 2 0 1 0 0.2
0.2 0.2 1 s_nosymbol slot 3 source 0 1.32585 -1.65066 0 0.2 0.2 0.2
1 s_nosymbol source 1 1.11177 0.369875 0 0.2 0.2 0.2 1 s_nosymbol group
0 2 0 1 0 0.2 0.2 0.2 1 s_nosymbol ] @patching_rect [ 0 0 300 300 ]
@bgcolor [ 0.9 0.9 0.9 1 ] @bgcolor2 [ 0.75 0.75 0.75 1 ] @bdcolor
[ 0 0 0 1 ] @selcolor [ 0.36 0.36 0.37 0.5 ] @outputmode [ 0 ] @zoom
[ 0.312488 ] sources_parameters [ source 0 -2.34675 2.51743 0 0.2 0.2
0.2 1 s_nosymbol source 1 -2.30409 -0.960036 0 0.2 0.2 0.2 1 s_nosymbol
] groups_parameters [ group 0 2 0 1 0 0.2 0.2 0.2 1 s_nosymbol ] slots_parameters
[ slot 0 source 0 -1.60508 -1.11746 0 0.2 0.2 0.2 1 s_nosymbol source
1 1.76064 1.2611 0 0.2 0.2 0.2 1 s_nosymbol group 0 2 0 1 0 0.2 0.2
0.2 1 s_nosymbol slot 1 source 0 -2.34675 2.51743 0 0.2 0.2 0.2 1 s_nosymbol
source 1 1.70673 -1.92007 0 0.2 0.2 0.2 1 s_nosymbol group 0 2 0 1
0 0.2 0.2 0.2 1 s_nosymbol slot 2 source 0 -2.34675 2.51743 0 0.2 0.2
0.2 1 s_nosymbol source 1 -2.30409 -0.960036 0 0.2 0.2 0.2 1 s_nosymbol
group 0 2 0 1 0 0.2 0.2 0.2 1 s_nosymbol slot 3 source 0 1.32585 -1.65066
0 0.2 0.2 0.2 1 s_nosymbol source 1 1.11177 0.369875 0 0.2 0.2 0.2
1 s_nosymbol group 0 2 0 1 0 0.2 0.2 0.2 1 s_nosymbol ] @patching_rect
[ 0 0 300 300 ] @bgcolor [ 0.9 0.9 0.9 1 ] @bgcolor2 [ 0.75 0.75 0.75
1 ] @bdcolor [ 0 0 0 1 ] @selcolor [ 0.36 0.36 0.37 0.5 ] @outputmode
[ 0 ] @zoom [ 0.312488 ] sources_parameters [ source 0 -1.82077 -0.518721
0 0.2 0.2 0.2 1 s_nosymbol source 1 2.47476 1.45072 0 0.2 0.2 0.2 1
s_nosymbol ] slots_parameters [ slot 0 source 0 -1.60508 -1.11746 0
0.2 0.2 0.2 1 s_nosymbol source 1 1.76064 1.2611 0 0.2 0.2 0.2 1 s_nosymbol
group 0 2 0 1 0 0.2 0.2 0.2 1 s_nosymbol slot 1 source 0 -2.34675 2.51743
0 0.2 0.2 0.2 1 s_nosymbol source 1 1.70673 -1.92007 0 0.2 0.2 0.2
1 s_nosymbol group 0 2 0 1 0 0.2 0.2 0.2 1 s_nosymbol slot 2 source
0 -2.34675 2.51743 0 0.2 0.2 0.2 1 s_nosymbol source 1 -2.30409 -0.960036
0 0.2 0.2 0.2 1 s_nosymbol group 0 2 0 1 0 0.2 0.2 0.2 1 s_nosymbol
slot 3 source 0 1.32585 -1.65066 0 0.2 0.2 0.2 1 s_nosymbol source
1 1.11177 0.369875 0 0.2 0.2 0.2 1 s_nosymbol group 0 2 0 1 0 0.2 0.2
0.2 1 s_nosymbol ] trajectory_parameters [ slot 0 source 0 -1.82077
-0.518721 0 0.2 0.2 0.2 1 s_nosymbol source 1 2.47476 1.45072 0 0.2
0.2 0.2 1 s_nosymbol group 0 1 0 0 0.2 0.2 0.2 1 s_nosymbol slot 1
source 0 -1.82077 -0.518721 0 0.2 0.2 0.2 1 s_nosymbol source 1 2.47476
1.45072 0 0.2 0.2 0.2 1 s_nosymbol group 0 1 0 0 0.2 0.2 0.2 1 s_nosymbol
slot 2 source 0 -1.82077 -0.518721 0 0.2 0.2 0.2 1 s_nosymbol source
1 2.45343 1.45072 0 0.2 0.2 0.2 1 s_nosymbol group 0 2 0 1 0 0.2 0.2
0.2 1 s_nosymbol slot 3 source 0 -1.84705 -0.41558 0 0.2 0.2 0.2 1
s_nosymbol source 1 2.45343 1.02404 0 0.2 0.2 0.2 1 s_nosymbol group
0 2 0 1 0 0.2 0.2 0.2 1 s_nosymbol slot 4 source 0 -1.89291 0.034162
0 0.2 0.2 0.2 1 s_nosymbol source 1 2.45343 0.810697 0 0.2 0.2 0.2
1 s_nosymbol group 0 2 0 1 0 0.2 0.2 0.2 1 s_nosymbol slot 5 source
0 -1.849 0.406816 0 0.2 0.2 0.2 1 s_nosymbol source 1 2.36809 0.341346
0 0.2 0.2 0.2 1 s_nosymbol group 0 2 0 1 0 0.2 0.2 0.2 1 s_nosymbol
slot 6 source 0 -1.72314 0.784265 0 0.2 0.2 0.2 1 s_nosymbol source
1 2.26142 -0.192007 0 0.2 0.2 0.2 1 s_nosymbol group 0 2 0 1 0 0.2
0.2 0.2 1 s_nosymbol slot 7 source 0 -1.30059 1.37578 0 0.2 0.2 0.2
1 s_nosymbol source 1 1.96274 -0.640024 0 0.2 0.2 0.2 1 s_nosymbol
group 0 2 0 1 0 0.2 0.2 0.2 1 s_nosymbol slot 8 source 0 -0.808487
1.71191 0 0.2 0.2 0.2 1 s_nosymbol source 1 1.6854 -0.917368 0 0.2
0.2 0.2 1 s_nosymbol group 0 2 0 1 0 0.2 0.2 0.2 1 s_nosymbol slot
9 source 0 -0.198899 1.88274 0 0.2 0.2 0.2 1 s_nosymbol source 1 1.17338
-1.15204 0 0.2 0.2 0.2 1 s_nosymbol group 0 2 0 1 0 0.2 0.2 0.2 1 s_nosymbol
slot 10 source 0 0.206228 1.88195 0 0.2 0.2 0.2 1 s_nosymbol source
1 0.768029 -1.25871 0 0.2 0.2 0.2 1 s_nosymbol group 0 2 0 1 0 0.2
0.2 0.2 1 s_nosymbol slot 11 source 0 0.893754 1.66898 0 0.2 0.2 0.2
1 s_nosymbol source 1 0.25601 -1.36538 0 0.2 0.2 0.2 1 s_nosymbol group
0 2 0 1 0 0.2 0.2 0.2 1 s_nosymbol slot 12 source 0 1.38925 1.28619
0 0.2 0.2 0.2 1 s_nosymbol source 1 -0.0426683 -1.38672 0 0.2 0.2 0.2
1 s_nosymbol group 0 2 0 1 0 0.2 0.2 0.2 1 s_nosymbol slot 13 source
0 1.67679 0.879001 0 0.2 0.2 0.2 1 s_nosymbol source 1 -0.277344 -1.32272
0 0.2 0.2 0.2 1 s_nosymbol group 0 2 0 1 0 0.2 0.2 0.2 1 s_nosymbol
slot 14 source 0 1.8835 0.191648 0 0.2 0.2 0.2 1 s_nosymbol source
1 -0.597356 -1.15204 0 0.2 0.2 0.2 1 s_nosymbol group 0 2 0 1 0 0.2
0.2 0.2 1 s_nosymbol slot 15 source 0 1.87804 -0.239284 0 0.2 0.2 0.2
1 s_nosymbol source 1 -0.960036 -0.8747 0 0.2 0.2 0.2 1 s_nosymbol
group 0 2 0 1 0 0.2 0.2 0.2 1 s_nosymbol slot 16 source 0 1.73286 -0.762544
0 0.2 0.2 0.2 1 s_nosymbol source 1 -1.08804 -0.405349 0 0.2 0.2 0.2
1 s_nosymbol group 0 2 0 1 0 0.2 0.2 0.2 1 s_nosymbol slot 17 source
0 1.43758 -1.23193 0 0.2 0.2 0.2 1 s_nosymbol source 1 -1.10938 0.234675
0 0.2 0.2 0.2 1 s_nosymbol group 0 2 0 1 0 0.2 0.2 0.2 1 s_nosymbol
slot 18 source 0 0.824081 -1.70446 0 0.2 0.2 0.2 1 s_nosymbol source
1 -1.10938 0.405349 0 0.2 0.2 0.2 1 s_nosymbol group 0 2 0 1 0 0.2
0.2 0.2 1 s_nosymbol slot 19 source 0 -0.000247049 -1.89322 0 0.2 0.2
0.2 1 s_nosymbol source 1 -1.08804 0.789363 0 0.2 0.2 0.2 1 s_nosymbol
group 0 2 0 1 0 0.2 0.2 0.2 1 s_nosymbol slot 20 source 0 -0.361754
-1.85834 0 0.2 0.2 0.2 1 s_nosymbol source 1 -1.0027 1.08804 0 0.2
0.2 0.2 1 s_nosymbol group 0 2 0 1 0 0.2 0.2 0.2 1 s_nosymbol slot
21 source 0 -0.835556 -1.69886 0 0.2 0.2 0.2 1 s_nosymbol source 1
-0.832031 1.25871 0 0.2 0.2 0.2 1 s_nosymbol group 0 2 0 1 0 0.2 0.2
0.2 1 s_nosymbol slot 22 source 0 -1.30827 -1.36848 0 0.2 0.2 0.2 1
s_nosymbol source 1 -0.426683 1.40805 0 0.2 0.2 0.2 1 s_nosymbol group
0 2 0 1 0 0.2 0.2 0.2 1 s_nosymbol slot 23 source 0 -1.51472 -1.13573
0 0.2 0.2 0.2 1 s_nosymbol source 1 9.40564e-17 1.53606 0 0.2 0.2 0.2
1 s_nosymbol group 0 2 0 1 0 0.2 0.2 0.2 1 s_nosymbol slot 24 source
0 -1.51472 -1.13573 0 0.2 0.2 0.2 1 s_nosymbol source 1 0.490685 1.55739
0 0.2 0.2 0.2 1 s_nosymbol group 0 2 0 1 0 0.2 0.2 0.2 1 s_nosymbol
slot 25 source 0 -1.51472 -1.13573 0 0.2 0.2 0.2 1 s_nosymbol source
1 0.896034 1.47206 0 0.2 0.2 0.2 1 s_nosymbol group 0 2 0 1 0 0.2 0.2
0.2 1 s_nosymbol slot 26 source 0 -1.51472 -1.13573 0 0.2 0.2 0.2 1
s_nosymbol source 1 1.25871 1.21605 0 0.2 0.2 0.2 1 s_nosymbol group
0 2 0 1 0 0.2 0.2 0.2 1 s_nosymbol slot 27 source 0 -1.51472 -1.13573
0 0.2 0.2 0.2 1 s_nosymbol source 1 1.49339 0.746695 0 0.2 0.2 0.2
1 s_nosymbol group 0 2 0 1 0 0.2 0.2 0.2 1 s_nosymbol slot 28 source
0 -1.51472 -1.13573 0 0.2 0.2 0.2 1 s_nosymbol source 1 1.72806 0.213341
0 0.2 0.2 0.2 1 s_nosymbol group 0 2 0 1 0 0.2 0.2 0.2 1 s_nosymbol
slot 29 source 0 -1.20706 -1.14577 0 0.2 0.2 0.2 1 s_nosymbol source
1 1.79207 -0.170673 0 0.2 0.2 0.2 1 s_nosymbol group 0 2 0 1 0 0.2
0.2 0.2 1 s_nosymbol slot 30 source 0 -0.396365 -1.08177 0 0.2 0.2
0.2 1 s_nosymbol source 1 1.79207 -0.490685 0 0.2 0.2 0.2 1 s_nosymbol
group 0 2 0 1 0 0.2 0.2 0.2 1 s_nosymbol slot 31 source 0 0.435666
-1.01777 0 0.2 0.2 0.2 1 s_nosymbol source 1 1.42939 -1.10938 0 0.2
0.2 0.2 1 s_nosymbol group 0 2 0 1 0 0.2 0.2 0.2 1 s_nosymbol slot
32 source 0 0.905017 -1.01777 0 0.2 0.2 0.2 1 s_nosymbol source 1 1.06671
-1.30138 0 0.2 0.2 0.2 1 s_nosymbol group 0 2 0 1 0 0.2 0.2 0.2 1 s_nosymbol
slot 33 source 0 1.28903 -1.06043 0 0.2 0.2 0.2 1 s_nosymbol source
1 0.61869 -1.38672 0 0.2 0.2 0.2 1 s_nosymbol group 0 2 0 1 0 0.2 0.2
0.2 1 s_nosymbol slot 34 source 0 1.4597 -1.12444 0 0.2 0.2 0.2 1 s_nosymbol
source 1 0.341346 -1.47206 0 0.2 0.2 0.2 1 s_nosymbol group 0 2 0 1
0 0.2 0.2 0.2 1 s_nosymbol slot 35 source 0 1.54504 -1.14577 0 0.2
0.2 0.2 1 s_nosymbol source 1 -0.0640024 -1.57873 0 0.2 0.2 0.2 1 s_nosymbol
group 0 2 0 1 0 0.2 0.2 0.2 1 s_nosymbol slot 36 source 0 1.54504 -1.1671
0 0.2 0.2 0.2 1 s_nosymbol source 1 -0.490685 -1.47206 0 0.2 0.2 0.2
1 s_nosymbol group 0 2 0 1 0 0.2 0.2 0.2 1 s_nosymbol slot 37 source
0 1.54504 -1.1671 0 0.2 0.2 0.2 1 s_nosymbol source 1 -1.08804 -0.896034
0 0.2 0.2 0.2 1 s_nosymbol group 0 2 0 1 0 0.2 0.2 0.2 1 s_nosymbol
slot 38 source 0 1.54504 -1.1671 0 0.2 0.2 0.2 1 s_nosymbol source
1 -1.10938 -0.213341 0 0.2 0.2 0.2 1 s_nosymbol group 0 2 0 1 0 0.2
0.2 0.2 1 s_nosymbol slot 39 source 0 1.54504 -1.1671 0 0.2 0.2 0.2
1 s_nosymbol source 1 -1.08804 0.490685 0 0.2 0.2 0.2 1 s_nosymbol
group 0 2 0 1 0 0.2 0.2 0.2 1 s_nosymbol slot 40 source 0 1.54504 -1.1671
0 0.2 0.2 0.2 1 s_nosymbol source 1 -0.597356 1.02404 0 0.2 0.2 0.2
1 s_nosymbol group 0 2 0 1 0 0.2 0.2 0.2 1 s_nosymbol slot 41 source
0 1.54504 -1.1671 0 0.2 0.2 0.2 1 s_nosymbol source 1 -0.170673 1.49339
0 0.2 0.2 0.2 1 s_nosymbol group 0 2 0 1 0 0.2 0.2 0.2 1 s_nosymbol
slot 42 source 0 1.54504 -1.1671 0 0.2 0.2 0.2 1 s_nosymbol source
1 0.384014 2.17608 0 0.2 0.2 0.2 1 s_nosymbol group 0 2 0 1 0 0.2 0.2
0.2 1 s_nosymbol slot 43 source 0 1.54504 -1.1671 0 0.2 0.2 0.2 1 s_nosymbol
source 1 0.426683 2.38942 0 0.2 0.2 0.2 1 s_nosymbol group 0 2 0 1
0 0.2 0.2 0.2 1 s_nosymbol slot 44 source 0 1.51118 -1.21062 0 0.2
0.2 0.2 1 s_nosymbol source 1 0.36268 2.5601 0 0.2 0.2 0.2 1 s_nosymbol
group 0 2 0 1 0 0.2 0.2 0.2 1 s_nosymbol slot 45 source 0 1.42203 -1.31419
0 0.2 0.2 0.2 1 s_nosymbol source 1 -0.25601 2.6881 0 0.2 0.2 0.2 1
s_nosymbol group 0 2 0 1 0 0.2 0.2 0.2 1 s_nosymbol slot 46 source
0 1.34695 -1.39105 0 0.2 0.2 0.2 1 s_nosymbol source 1 -0.810697 2.60276
0 0.2 0.2 0.2 1 s_nosymbol group 0 2 0 1 0 0.2 0.2 0.2 1 s_nosymbol
slot 47 source 0 1.21034 -1.51141 0 0.2 0.2 0.2 1 s_nosymbol source
1 -1.0027 2.36809 0 0.2 0.2 0.2 1 s_nosymbol group 0 2 0 1 0 0.2 0.2
0.2 1 s_nosymbol slot 48 source 0 0.856492 -1.73658 0 0.2 0.2 0.2 1
s_nosymbol source 1 -1.08804 2.09075 0 0.2 0.2 0.2 1 s_nosymbol group
0 2 0 1 0 0.2 0.2 0.2 1 s_nosymbol slot 49 source 0 -0.23369 -1.92215
0 0.2 0.2 0.2 1 s_nosymbol source 1 -1.13071 1.72806 0 0.2 0.2 0.2
1 s_nosymbol group 0 2 0 1 0 0.2 0.2 0.2 1 s_nosymbol slot 50 source
0 -0.673766 -1.8153 0 0.2 0.2 0.2 1 s_nosymbol source 1 -1.13071 1.30138
0 0.2 0.2 0.2 1 s_nosymbol group 0 2 0 1 0 0.2 0.2 0.2 1 s_nosymbol
slot 51 source 0 -0.863456 -1.73313 0 0.2 0.2 0.2 1 s_nosymbol source
1 -1.02404 0.8747 0 0.2 0.2 0.2 1 s_nosymbol group 0 2 0 1 0 0.2 0.2
0.2 1 s_nosymbol slot 52 source 0 -1.26182 -1.46871 0 0.2 0.2 0.2 1
s_nosymbol source 1 -0.746695 0.512019 0 0.2 0.2 0.2 1 s_nosymbol group
0 2 0 1 0 0.2 0.2 0.2 1 s_nosymbol slot 53 source 0 -1.26182 -1.46871
0 0.2 0.2 0.2 1 s_nosymbol source 1 -0.320012 0.170673 0 0.2 0.2 0.2
1 s_nosymbol group 0 2 0 1 0 0.2 0.2 0.2 1 s_nosymbol slot 54 source
0 -1.26182 -1.46871 0 0.2 0.2 0.2 1 s_nosymbol source 1 0.106671 -0.0426683
0 0.2 0.2 0.2 1 s_nosymbol group 0 2 0 1 0 0.2 0.2 0.2 1 s_nosymbol
slot 55 source 0 -1.28365 -1.44967 0 0.2 0.2 0.2 1 s_nosymbol source
1 0.576022 -0.277344 0 0.2 0.2 0.2 1 s_nosymbol group 0 2 0 1 0 0.2
0.2 0.2 1 s_nosymbol slot 56 source 0 -1.28365 -1.44967 0 0.2 0.2 0.2
1 s_nosymbol source 1 1.02404 -0.661358 0 0.2 0.2 0.2 1 s_nosymbol
group 0 2 0 1 0 0.2 0.2 0.2 1 s_nosymbol slot 57 source 0 -1.28365
-1.44967 0 0.2 0.2 0.2 1 s_nosymbol source 1 1.25871 -0.960036 0 0.2
0.2 0.2 1 s_nosymbol group 0 2 0 1 0 0.2 0.2 0.2 1 s_nosymbol slot
58 source 0 -1.28365 -1.44967 0 0.2 0.2 0.2 1 s_nosymbol source 1 1.38672
-1.21605 0 0.2 0.2 0.2 1 s_nosymbol group 0 2 0 1 0 0.2 0.2 0.2 1 s_nosymbol
slot 59 source 0 -1.28365 -1.44967 0 0.2 0.2 0.2 1 s_nosymbol source
1 1.57873 -1.47206 0 0.2 0.2 0.2 1 s_nosymbol group 0 2 0 1 0 0.2 0.2
0.2 1 s_nosymbol slot 60 source 0 -1.28365 -1.44967 0 0.2 0.2 0.2 1
s_nosymbol source 1 2.41076 -1.34405 0 0.2 0.2 0.2 1 s_nosymbol group
0 2 0 1 0 0.2 0.2 0.2 1 s_nosymbol slot 61 source 0 -1.28365 -1.44967
0 0.2 0.2 0.2 1 s_nosymbol source 1 2.53876 -1.10938 0 0.2 0.2 0.2
1 s_nosymbol group 0 2 0 1 0 0.2 0.2 0.2 1 s_nosymbol slot 62 source
0 -1.27445 -1.35249 0 0.2 0.2 0.2 1 s_nosymbol source 1 2.60276 -0.213341
0 0.2 0.2 0.2 1 s_nosymbol group 0 2 0 1 0 0.2 0.2 0.2 1 s_nosymbol
slot 63 source 0 -1.27445 -0.17911 0 0.2 0.2 0.2 1 s_nosymbol source
1 2.41076 0.469351 0 0.2 0.2 0.2 1 s_nosymbol group 0 2 0 1 0 0.2 0.2
0.2 1 s_nosymbol slot 64 source 0 -1.27445 0.162236 0 0.2 0.2 0.2 1
s_nosymbol source 1 1.83474 1.0027 0 0.2 0.2 0.2 1 s_nosymbol group
0 2 0 1 0 0.2 0.2 0.2 1 s_nosymbol slot 65 source 0 -1.27445 0.80226
0 0.2 0.2 0.2 1 s_nosymbol source 1 1.10938 1.55739 0 0.2 0.2 0.2 1
s_nosymbol group 0 2 0 1 0 0.2 0.2 0.2 1 s_nosymbol slot 66 source
0 -1.27445 1.39962 0 0.2 0.2 0.2 1 s_nosymbol source 1 0.640024 1.85607
0 0.2 0.2 0.2 1 s_nosymbol group 0 2 0 1 0 0.2 0.2 0.2 1 s_nosymbol
slot 67 source 0 -1.27445 1.71963 0 0.2 0.2 0.2 1 s_nosymbol source
1 0.384014 1.92007 0 0.2 0.2 0.2 1 s_nosymbol group 0 2 0 1 0 0.2 0.2
0.2 1 s_nosymbol slot 68 source 0 -1.27445 1.8903 0 0.2 0.2 0.2 1 s_nosymbol
source 1 -0.106671 2.09075 0 0.2 0.2 0.2 1 s_nosymbol group 0 2 0 1
0 0.2 0.2 0.2 1 s_nosymbol slot 69 source 0 -1.25312 1.99697 0 0.2
0.2 0.2 1 s_nosymbol source 1 -0.384014 2.19742 0 0.2 0.2 0.2 1 s_nosymbol
group 0 2 0 1 0 0.2 0.2 0.2 1 s_nosymbol slot 70 source 0 -1.25312
1.99697 0 0.2 0.2 0.2 1 s_nosymbol source 1 -0.405349 2.15475 0 0.2
0.2 0.2 1 s_nosymbol group 0 2 0 1 0 0.2 0.2 0.2 1 s_nosymbol slot
71 source 0 -1.25312 1.99697 0 0.2 0.2 0.2 1 s_nosymbol source 1 -0.36268
1.83474 0 0.2 0.2 0.2 1 s_nosymbol group 0 2 0 1 0 0.2 0.2 0.2 1 s_nosymbol
slot 72 source 0 -1.25312 1.99697 0 0.2 0.2 0.2 1 s_nosymbol source
1 -0.36268 1.49339 0 0.2 0.2 0.2 1 s_nosymbol group 0 2 0 1 0 0.2 0.2
0.2 1 s_nosymbol slot 73 source 0 -1.25312 1.99697 0 0.2 0.2 0.2 1
s_nosymbol source 1 -0.384014 1.06671 0 0.2 0.2 0.2 1 s_nosymbol group
0 2 0 1 0 0.2 0.2 0.2 1 s_nosymbol slot 74 source 0 -1.25312 1.99697
0 0.2 0.2 0.2 1 s_nosymbol source 1 -0.490685 0.746695 0 0.2 0.2 0.2
1 s_nosymbol group 0 2 0 1 0 0.2 0.2 0.2 1 s_nosymbol slot 75 source
0 -0.906814 2.17621 0 0.2 0.2 0.2 1 s_nosymbol source 1 -0.8747 0.0426683
0 0.2 0.2 0.2 1 s_nosymbol group 0 2 0 1 0 0.2 0.2 0.2 1 s_nosymbol
slot 76 source 0 -0.489783 2.30615 0 0.2 0.2 0.2 1 s_nosymbol source
1 -0.960036 -0.149339 0 0.2 0.2 0.2 1 s_nosymbol group 0 2 0 1 0 0.2
0.2 0.2 1 s_nosymbol slot 77 source 0 -0.169719 2.35147 0 0.2 0.2 0.2
1 s_nosymbol source 1 -1.02404 -0.469351 0 0.2 0.2 0.2 1 s_nosymbol
group 0 2 0 1 0 0.2 0.2 0.2 1 s_nosymbol slot 78 source 0 0.204561
2.34869 0 0.2 0.2 0.2 1 s_nosymbol source 1 -1.04537 -1.15204 0 0.2
0.2 0.2 1 s_nosymbol group 0 2 0 1 0 0.2 0.2 0.2 1 s_nosymbol slot
79 source 0 0.419159 2.32002 0 0.2 0.2 0.2 1 s_nosymbol source 1 -0.512019
-1.83474 0 0.2 0.2 0.2 1 s_nosymbol group 0 2 0 1 0 0.2 0.2 0.2 1 s_nosymbol
slot 80 source 0 0.459273 2.31242 0 0.2 0.2 0.2 1 s_nosymbol source
1 0.896034 -2.09075 0 0.2 0.2 0.2 1 s_nosymbol group 0 2 0 1 0 0.2
0.2 0.2 1 s_nosymbol slot 81 source 0 0.459273 2.31242 0 0.2 0.2 0.2
1 s_nosymbol source 1 1.92007 -1.96274 0 0.2 0.2 0.2 1 s_nosymbol group
0 2 0 1 0 0.2 0.2 0.2 1 s_nosymbol slot 82 source 0 0.459273 2.31242
0 0.2 0.2 0.2 1 s_nosymbol source 1 2.58143 -1.70673 0 0.2 0.2 0.2
1 s_nosymbol group 0 2 0 1 0 0.2 0.2 0.2 1 s_nosymbol slot 83 source
0 0.459273 2.31242 0 0.2 0.2 0.2 1 s_nosymbol source 1 2.85877 -0.810697
0 0.2 0.2 0.2 1 s_nosymbol group 0 2 0 1 0 0.2 0.2 0.2 1 s_nosymbol
slot 84 source 1 2.66677 -0.277344 0 0.2 0.2 0.2 1 s_nosymbol group
0 1 1 0 0.2 0.2 0.2 1 s_nosymbol slot 85 source 1 2.19742 0.128005
0 0.2 0.2 0.2 1 s_nosymbol group 0 1 1 0 0.2 0.2 0.2 1 s_nosymbol slot
86 source 1 1.40805 0.213341 0 0.2 0.2 0.2 1 s_nosymbol slot 87 source
1 0.725361 0.0853365 0 0.2 0.2 0.2 1 s_nosymbol slot 88 source 1 0.36268
-0.0640024 0 0.2 0.2 0.2 1 s_nosymbol slot 89 source 1 0.25601 -0.128005
0 0.2 0.2 0.2 1 s_nosymbol slot 90 source 1 0.234675 -0.149339 0 0.2
0.2 0.2 1 s_nosymbol slot 91 source 1 0.234675 -0.149339 0 0.2 0.2
0.2 1 s_nosymbol slot 92 source 1 0.234675 -0.149339 0 0.2 0.2 0.2
1 s_nosymbol slot 93 source 1 0.234675 -0.149339 0 0.2 0.2 0.2 1 s_nosymbol
slot 94 source 1 -1.66406 -0.298678 0 0.2 0.2 0.2 1 s_nosymbol slot
95 source 1 -1.62139 -0.298678 0 0.2 0.2 0.2 1 s_nosymbol slot 96 source
1 -1.62139 -0.298678 0 0.2 0.2 0.2 1 s_nosymbol ] @patching_rect [
0 0 300 300 ] @bgcolor [ 0.9 0.9 0.9 1 ] @bgcolor2 [ 0.75 0.75 0.75
1 ] @bdcolor [ 0 0 0 1 ] @selcolor [ 0.36 0.36 0.37 0.5 ] @outputmode
[ 0 ] @zoom [ 0.312488 ] sources_parameters [ source 0 -1.24805 1.18404
0 0.2 0.2 0.2 1 s_nosymbol source 1 1.12004 1.03471 0 0.2 0.2 0.2 1
s_nosymbol ] groups_parameters [ group 0 2 0 1 0 0.2 0.2 0.2 1 s_nosymbol
] slots_parameters [ slot 0 source 0 -1.60508 -1.11746 0 0.2 0.2 0.2
1 s_nosymbol source 1 1.76064 1.2611 0 0.2 0.2 0.2 1 s_nosymbol group
0 2 0 1 0 0.2 0.2 0.2 1 s_nosymbol slot 1 source 0 -2.34675 2.51743
0 0.2 0.2 0.2 1 s_nosymbol source 1 1.70673 -1.92007 0 0.2 0.2 0.2
1 s_nosymbol group 0 2 0 1 0 0.2 0.2 0.2 1 s_nosymbol slot 2 source
0 -2.34675 2.51743 0 0.2 0.2 0.2 1 s_nosymbol source 1 -2.30409 -0.960036
0 0.2 0.2 0.2 1 s_nosymbol group 0 2 0 1 0 0.2 0.2 0.2 1 s_nosymbol
slot 3 source 0 1.32585 -1.65066 0 0.2 0.2 0.2 1 s_nosymbol source
1 1.11177 0.369875 0 0.2 0.2 0.2 1 s_nosymbol group 0 2 0 1 0 0.2 0.2
0.2 1 s_nosymbol ] trajectory_parameters [ slot 0 source 0 -1.82077
-0.518721 0 0.2 0.2 0.2 1 s_nosymbol source 1 2.47476 1.45072 0 0.2
0.2 0.2 1 s_nosymbol group 0 1 0 0 0.2 0.2 0.2 1 s_nosymbol slot 1
source 0 -1.82077 -0.518721 0 0.2 0.2 0.2 1 s_nosymbol source 1 2.47476
1.45072 0 0.2 0.2 0.2 1 s_nosymbol group 0 1 0 0 0.2 0.2 0.2 1 s_nosymbol
slot 2 source 0 -1.82077 -0.518721 0 0.2 0.2 0.2 1 s_nosymbol source
1 2.45343 1.45072 0 0.2 0.2 0.2 1 s_nosymbol group 0 2 0 1 0 0.2 0.2
0.2 1 s_nosymbol slot 3 source 0 -1.84705 -0.41558 0 0.2 0.2 0.2 1
s_nosymbol source 1 2.45343 1.02404 0 0.2 0.2 0.2 1 s_nosymbol group
0 2 0 1 0 0.2 0.2 0.2 1 s_nosymbol slot 4 source 0 -1.89291 0.034162
0 0.2 0.2 0.2 1 s_nosymbol source 1 2.45343 0.810697 0 0.2 0.2 0.2
1 s_nosymbol group 0 2 0 1 0 0.2 0.2 0.2 1 s_nosymbol slot 5 source
0 -1.849 0.406816 0 0.2 0.2 0.2 1 s_nosymbol source 1 2.36809 0.341346
0 0.2 0.2 0.2 1 s_nosymbol group 0 2 0 1 0 0.2 0.2 0.2 1 s_nosymbol
slot 6 source 0 -1.72314 0.784265 0 0.2 0.2 0.2 1 s_nosymbol source
1 2.26142 -0.192007 0 0.2 0.2 0.2 1 s_nosymbol group 0 2 0 1 0 0.2
0.2 0.2 1 s_nosymbol slot 7 source 0 -1.30059 1.37578 0 0.2 0.2 0.2
1 s_nosymbol source 1 1.96274 -0.640024 0 0.2 0.2 0.2 1 s_nosymbol
group 0 2 0 1 0 0.2 0.2 0.2 1 s_nosymbol slot 8 source 0 -0.808487
1.71191 0 0.2 0.2 0.2 1 s_nosymbol source 1 1.6854 -0.917368 0 0.2
0.2 0.2 1 s_nosymbol group 0 2 0 1 0 0.2 0.2 0.2 1 s_nosymbol slot
9 source 0 -0.198899 1.88274 0 0.2 0.2 0.2 1 s_nosymbol source 1 1.17338
-1.15204 0 0.2 0.2 0.2 1 s_nosymbol group 0 2 0 1 0 0.2 0.2 0.2 1 s_nosymbol
slot 10 source 0 0.206228 1.88195 0 0.2 0.2 0.2 1 s_nosymbol source
1 0.768029 -1.25871 0 0.2 0.2 0.2 1 s_nosymbol group 0 2 0 1 0 0.2
0.2 0.2 1 s_nosymbol slot 11 source 0 0.893754 1.66898 0 0.2 0.2 0.2
1 s_nosymbol source 1 0.25601 -1.36538 0 0.2 0.2 0.2 1 s_nosymbol group
0 2 0 1 0 0.2 0.2 0.2 1 s_nosymbol slot 12 source 0 1.38925 1.28619
0 0.2 0.2 0.2 1 s_nosymbol source 1 -0.0426683 -1.38672 0 0.2 0.2 0.2
1 s_nosymbol group 0 2 0 1 0 0.2 0.2 0.2 1 s_nosymbol slot 13 source
0 1.67679 0.879001 0 0.2 0.2 0.2 1 s_nosymbol source 1 -0.277344 -1.32272
0 0.2 0.2 0.2 1 s_nosymbol group 0 2 0 1 0 0.2 0.2 0.2 1 s_nosymbol
slot 14 source 0 1.8835 0.191648 0 0.2 0.2 0.2 1 s_nosymbol source
1 -0.597356 -1.15204 0 0.2 0.2 0.2 1 s_nosymbol group 0 2 0 1 0 0.2
0.2 0.2 1 s_nosymbol slot 15 source 0 1.87804 -0.239284 0 0.2 0.2 0.2
1 s_nosymbol source 1 -0.960036 -0.8747 0 0.2 0.2 0.2 1 s_nosymbol
group 0 2 0 1 0 0.2 0.2 0.2 1 s_nosymbol slot 16 source 0 1.73286 -0.762544
0 0.2 0.2 0.2 1 s_nosymbol source 1 -1.08804 -0.405349 0 0.2 0.2 0.2
1 s_nosymbol group 0 2 0 1 0 0.2 0.2 0.2 1 s_nosymbol slot 17 source
0 1.43758 -1.23193 0 0.2 0.2 0.2 1 s_nosymbol source 1 -1.10938 0.234675
0 0.2 0.2 0.2 1 s_nosymbol group 0 2 0 1 0 0.2 0.2 0.2 1 s_nosymbol
slot 18 source 0 0.824081 -1.70446 0 0.2 0.2 0.2 1 s_nosymbol source
1 -1.10938 0.405349 0 0.2 0.2 0.2 1 s_nosymbol group 0 2 0 1 0 0.2
0.2 0.2 1 s_nosymbol slot 19 source 0 -0.000247049 -1.89322 0 0.2 0.2
0.2 1 s_nosymbol source 1 -1.08804 0.789363 0 0.2 0.2 0.2 1 s_nosymbol
group 0 2 0 1 0 0.2 0.2 0.2 1 s_nosymbol slot 20 source 0 -0.361754
-1.85834 0 0.2 0.2 0.2 1 s_nosymbol source 1 -1.0027 1.08804 0 0.2
0.2 0.2 1 s_nosymbol group 0 2 0 1 0 0.2 0.2 0.2 1 s_nosymbol slot
21 source 0 -0.835556 -1.69886 0 0.2 0.2 0.2 1 s_nosymbol source 1
-0.832031 1.25871 0 0.2 0.2 0.2 1 s_nosymbol group 0 2 0 1 0 0.2 0.2
0.2 1 s_nosymbol slot 22 source 0 -1.30827 -1.36848 0 0.2 0.2 0.2 1
s_nosymbol source 1 -0.426683 1.40805 0 0.2 0.2 0.2 1 s_nosymbol group
0 2 0 1 0 0.2 0.2 0.2 1 s_nosymbol slot 23 source 0 -1.51472 -1.13573
0 0.2 0.2 0.2 1 s_nosymbol source 1 9.40565e-17 1.53606 0 0.2 0.2 0.2
1 s_nosymbol group 0 2 0 1 0 0.2 0.2 0.2 1 s_nosymbol slot 24 source
0 -1.51472 -1.13573 0 0.2 0.2 0.2 1 s_nosymbol source 1 0.490685 1.55739
0 0.2 0.2 0.2 1 s_nosymbol group 0 2 0 1 0 0.2 0.2 0.2 1 s_nosymbol
slot 25 source 0 -1.51472 -1.13573 0 0.2 0.2 0.2 1 s_nosymbol source
1 0.896034 1.47206 0 0.2 0.2 0.2 1 s_nosymbol group 0 2 0 1 0 0.2 0.2
0.2 1 s_nosymbol slot 26 source 0 -1.51472 -1.13573 0 0.2 0.2 0.2 1
s_nosymbol source 1 1.25871 1.21605 0 0.2 0.2 0.2 1 s_nosymbol group
0 2 0 1 0 0.2 0.2 0.2 1 s_nosymbol slot 27 source 0 -1.51472 -1.13573
0 0.2 0.2 0.2 1 s_nosymbol source 1 1.49339 0.746695 0 0.2 0.2 0.2
1 s_nosymbol group 0 2 0 1 0 0.2 0.2 0.2 1 s_nosymbol slot 28 source
0 -1.51472 -1.13573 0 0.2 0.2 0.2 1 s_nosymbol source 1 1.72806 0.213341
0 0.2 0.2 0.2 1 s_nosymbol group 0 2 0 1 0 0.2 0.2 0.2 1 s_nosymbol
slot 29 source 0 -1.20706 -1.14577 0 0.2 0.2 0.2 1 s_nosymbol source
1 1.79207 -0.170673 0 0.2 0.2 0.2 1 s_nosymbol group 0 2 0 1 0 0.2
0.2 0.2 1 s_nosymbol slot 30 source 0 -0.396365 -1.08177 0 0.2 0.2
0.2 1 s_nosymbol source 1 1.79207 -0.490685 0 0.2 0.2 0.2 1 s_nosymbol
group 0 2 0 1 0 0.2 0.2 0.2 1 s_nosymbol slot 31 source 0 0.435666
-1.01777 0 0.2 0.2 0.2 1 s_nosymbol source 1 1.42939 -1.10938 0 0.2
0.2 0.2 1 s_nosymbol group 0 2 0 1 0 0.2 0.2 0.2 1 s_nosymbol slot
32 source 0 0.905017 -1.01777 0 0.2 0.2 0.2 1 s_nosymbol source 1 1.06671
-1.30138 0 0.2 0.2 0.2 1 s_nosymbol group 0 2 0 1 0 0.2 0.2 0.2 1 s_nosymbol
slot 33 source 0 1.28903 -1.06043 0 0.2 0.2 0.2 1 s_nosymbol source
1 0.61869 -1.38672 0 0.2 0.2 0.2 1 s_nosymbol group 0 2 0 1 0 0.2 0.2
0.2 1 s_nosymbol slot 34 source 0 1.4597 -1.12444 0 0.2 0.2 0.2 1 s_nosymbol
source 1 0.341346 -1.47206 0 0.2 0.2 0.2 1 s_nosymbol group 0 2 0 1
0 0.2 0.2 0.2 1 s_nosymbol slot 35 source 0 1.54504 -1.14577 0 0.2
0.2 0.2 1 s_nosymbol source 1 -0.0640024 -1.57873 0 0.2 0.2 0.2 1 s_nosymbol
group 0 2 0 1 0 0.2 0.2 0.2 1 s_nosymbol slot 36 source 0 1.54504 -1.1671
0 0.2 0.2 0.2 1 s_nosymbol source 1 -0.490685 -1.47206 0 0.2 0.2 0.2
1 s_nosymbol group 0 2 0 1 0 0.2 0.2 0.2 1 s_nosymbol slot 37 source
0 1.54504 -1.1671 0 0.2 0.2 0.2 1 s_nosymbol source 1 -1.08804 -0.896034
0 0.2 0.2 0.2 1 s_nosymbol group 0 2 0 1 0 0.2 0.2 0.2 1 s_nosymbol
slot 38 source 0 1.54504 -1.1671 0 0.2 0.2 0.2 1 s_nosymbol source
1 -1.10938 -0.213341 0 0.2 0.2 0.2 1 s_nosymbol group 0 2 0 1 0 0.2
0.2 0.2 1 s_nosymbol slot 39 source 0 1.54504 -1.1671 0 0.2 0.2 0.2
1 s_nosymbol source 1 -1.08804 0.490685 0 0.2 0.2 0.2 1 s_nosymbol
group 0 2 0 1 0 0.2 0.2 0.2 1 s_nosymbol slot 40 source 0 1.54504 -1.1671
0 0.2 0.2 0.2 1 s_nosymbol source 1 -0.597356 1.02404 0 0.2 0.2 0.2
1 s_nosymbol group 0 2 0 1 0 0.2 0.2 0.2 1 s_nosymbol slot 41 source
0 1.54504 -1.1671 0 0.2 0.2 0.2 1 s_nosymbol source 1 -0.170673 1.49339
0 0.2 0.2 0.2 1 s_nosymbol group 0 2 0 1 0 0.2 0.2 0.2 1 s_nosymbol
slot 42 source 0 1.54504 -1.1671 0 0.2 0.2 0.2 1 s_nosymbol source
1 0.384014 2.17608 0 0.2 0.2 0.2 1 s_nosymbol group 0 2 0 1 0 0.2 0.2
0.2 1 s_nosymbol slot 43 source 0 1.54504 -1.1671 0 0.2 0.2 0.2 1 s_nosymbol
source 1 0.426683 2.38942 0 0.2 0.2 0.2 1 s_nosymbol group 0 2 0 1
0 0.2 0.2 0.2 1 s_nosymbol slot 44 source 0 1.51118 -1.21062 0 0.2
0.2 0.2 1 s_nosymbol source 1 0.36268 2.5601 0 0.2 0.2 0.2 1 s_nosymbol
group 0 2 0 1 0 0.2 0.2 0.2 1 s_nosymbol slot 45 source 0 1.42203 -1.31419
0 0.2 0.2 0.2 1 s_nosymbol source 1 -0.25601 2.6881 0 0.2 0.2 0.2 1
s_nosymbol group 0 2 0 1 0 0.2 0.2 0.2 1 s_nosymbol slot 46 source
0 1.34695 -1.39105 0 0.2 0.2 0.2 1 s_nosymbol source 1 -0.810697 2.60276
0 0.2 0.2 0.2 1 s_nosymbol group 0 2 0 1 0 0.2 0.2 0.2 1 s_nosymbol
slot 47 source 0 1.21034 -1.51141 0 0.2 0.2 0.2 1 s_nosymbol source
1 -1.0027 2.36809 0 0.2 0.2 0.2 1 s_nosymbol group 0 2 0 1 0 0.2 0.2
0.2 1 s_nosymbol slot 48 source 0 0.856492 -1.73658 0 0.2 0.2 0.2 1
s_nosymbol source 1 -1.08804 2.09075 0 0.2 0.2 0.2 1 s_nosymbol group
0 2 0 1 0 0.2 0.2 0.2 1 s_nosymbol slot 49 source 0 -0.23369 -1.92215
0 0.2 0.2 0.2 1 s_nosymbol source 1 -1.13071 1.72806 0 0.2 0.2 0.2
1 s_nosymbol group 0 2 0 1 0 0.2 0.2 0.2 1 s_nosymbol slot 50 source
0 -0.673766 -1.8153 0 0.2 0.2 0.2 1 s_nosymbol source 1 -1.13071 1.30138
0 0.2 0.2 0.2 1 s_nosymbol group 0 2 0 1 0 0.2 0.2 0.2 1 s_nosymbol
slot 51 source 0 -0.863456 -1.73313 0 0.2 0.2 0.2 1 s_nosymbol source
1 -1.02404 0.8747 0 0.2 0.2 0.2 1 s_nosymbol group 0 2 0 1 0 0.2 0.2
0.2 1 s_nosymbol slot 52 source 0 -1.26182 -1.46871 0 0.2 0.2 0.2 1
s_nosymbol source 1 -0.746695 0.512019 0 0.2 0.2 0.2 1 s_nosymbol group
0 2 0 1 0 0.2 0.2 0.2 1 s_nosymbol slot 53 source 0 -1.26182 -1.46871
0 0.2 0.2 0.2 1 s_nosymbol source 1 -0.320012 0.170673 0 0.2 0.2 0.2
1 s_nosymbol group 0 2 0 1 0 0.2 0.2 0.2 1 s_nosymbol slot 54 source
0 -1.26182 -1.46871 0 0.2 0.2 0.2 1 s_nosymbol source 1 0.106671 -0.0426683
0 0.2 0.2 0.2 1 s_nosymbol group 0 2 0 1 0 0.2 0.2 0.2 1 s_nosymbol
slot 55 source 0 -1.28365 -1.44967 0 0.2 0.2 0.2 1 s_nosymbol source
1 0.576022 -0.277344 0 0.2 0.2 0.2 1 s_nosymbol group 0 2 0 1 0 0.2
0.2 0.2 1 s_nosymbol slot 56 source 0 -1.28365 -1.44967 0 0.2 0.2 0.2
1 s_nosymbol source 1 1.02404 -0.661358 0 0.2 0.2 0.2 1 s_nosymbol
group 0 2 0 1 0 0.2 0.2 0.2 1 s_nosymbol slot 57 source 0 -1.28365
-1.44967 0 0.2 0.2 0.2 1 s_nosymbol source 1 1.25871 -0.960036 0 0.2
0.2 0.2 1 s_nosymbol group 0 2 0 1 0 0.2 0.2 0.2 1 s_nosymbol slot
58 source 0 -1.28365 -1.44967 0 0.2 0.2 0.2 1 s_nosymbol source 1 1.38672
-1.21605 0 0.2 0.2 0.2 1 s_nosymbol group 0 2 0 1 0 0.2 0.2 0.2 1 s_nosymbol
slot 59 source 0 -1.28365 -1.44967 0 0.2 0.2 0.2 1 s_nosymbol source
1 1.57873 -1.47206 0 0.2 0.2 0.2 1 s_nosymbol group 0 2 0 1 0 0.2 0.2
0.2 1 s_nosymbol slot 60 source 0 -1.28365 -1.44967 0 0.2 0.2 0.2 1
s_nosymbol source 1 2.41076 -1.34405 0 0.2 0.2 0.2 1 s_nosymbol group
0 2 0 1 0 0.2 0.2 0.2 1 s_nosymbol slot 61 source 0 -1.28365 -1.44967
0 0.2 0.2 0.2 1 s_nosymbol source 1 2.53876 -1.10938 0 0.2 0.2 0.2
1 s_nosymbol group 0 2 0 1 0 0.2 0.2 0.2 1 s_nosymbol slot 62 source
0 -1.27445 -1.35249 0 0.2 0.2 0.2 1 s_nosymbol source 1 2.60276 -0.213341
0 0.2 0.2 0.2 1 s_nosymbol group 0 2 0 1 0 0.2 0.2 0.2 1 s_nosymbol
slot 63 source 0 -1.27445 -0.17911 0 0.2 0.2 0.2 1 s_nosymbol source
1 2.41076 0.469351 0 0.2 0.2 0.2 1 s_nosymbol group 0 2 0 1 0 0.2 0.2
0.2 1 s_nosymbol slot 64 source 0 -1.27445 0.162236 0 0.2 0.2 0.2 1
s_nosymbol source 1 1.83474 1.0027 0 0.2 0.2 0.2 1 s_nosymbol group
0 2 0 1 0 0.2 0.2 0.2 1 s_nosymbol slot 65 source 0 -1.27445 0.80226
0 0.2 0.2 0.2 1 s_nosymbol source 1 1.10938 1.55739 0 0.2 0.2 0.2 1
s_nosymbol group 0 2 0 1 0 0.2 0.2 0.2 1 s_nosymbol slot 66 source
0 -1.27445 1.39962 0 0.2 0.2 0.2 1 s_nosymbol source 1 0.640024 1.85607
0 0.2 0.2 0.2 1 s_nosymbol group 0 2 0 1 0 0.2 0.2 0.2 1 s_nosymbol
slot 67 source 0 -1.27445 1.71963 0 0.2 0.2 0.2 1 s_nosymbol source
1 0.384014 1.92007 0 0.2 0.2 0.2 1 s_nosymbol group 0 2 0 1 0 0.2 0.2
0.2 1 s_nosymbol slot 68 source 0 -1.27445 1.8903 0 0.2 0.2 0.2 1 s_nosymbol
source 1 -0.106671 2.09075 0 0.2 0.2 0.2 1 s_nosymbol group 0 2 0 1
0 0.2 0.2 0.2 1 s_nosymbol slot 69 source 0 -1.25312 1.99697 0 0.2
0.2 0.2 1 s_nosymbol source 1 -0.384014 2.19742 0 0.2 0.2 0.2 1 s_nosymbol
group 0 2 0 1 0 0.2 0.2 0.2 1 s_nosymbol slot 70 source 0 -1.25312
1.99697 0 0.2 0.2 0.2 1 s_nosymbol source 1 -0.405349 2.15475 0 0.2
0.2 0.2 1 s_nosymbol group 0 2 0 1 0 0.2 0.2 0.2 1 s_nosymbol slot
71 source 0 -1.25312 1.99697 0 0.2 0.2 0.2 1 s_nosymbol source 1 -0.36268
1.83474 0 0.2 0.2 0.2 1 s_nosymbol group 0 2 0 1 0 0.2 0.2 0.2 1 s_nosymbol
slot 72 source 0 -1.25312 1.99697 0 0.2 0.2 0.2 1 s_nosymbol source
1 -0.36268 1.49339 0 0.2 0.2 0.2 1 s_nosymbol group 0 2 0 1 0 0.2 0.2
0.2 1 s_nosymbol slot 73 source 0 -1.25312 1.99697 0 0.2 0.2 0.2 1
s_nosymbol source 1 -0.384014 1.06671 0 0.2 0.2 0.2 1 s_nosymbol group
0 2 0 1 0 0.2 0.2 0.2 1 s_nosymbol slot 74 source 0 -1.25312 1.99697
0 0.2 0.2 0.2 1 s_nosymbol source 1 -0.490685 0.746695 0 0.2 0.2 0.2
1 s_nosymbol group 0 2 0 1 0 0.2 0.2 0.2 1 s_nosymbol slot 75 source
0 -0.906814 2.17621 0 0.2 0.2 0.2 1 s_nosymbol source 1 -0.8747 0.0426683
0 0.2 0.2 0.2 1 s_nosymbol group 0 2 0 1 0 0.2 0.2 0.2 1 s_nosymbol
slot 76 source 0 -0.489783 2.30615 0 0.2 0.2 0.2 1 s_nosymbol source
1 -0.960036 -0.149339 0 0.2 0.2 0.2 1 s_nosymbol group 0 2 0 1 0 0.2
0.2 0.2 1 s_nosymbol slot 77 source 0 -0.169719 2.35147 0 0.2 0.2 0.2
1 s_nosymbol source 1 -1.02404 -0.469351 0 0.2 0.2 0.2 1 s_nosymbol
group 0 2 0 1 0 0.2 0.2 0.2 1 s_nosymbol slot 78 source 0 0.204561
2.34869 0 0.2 0.2 0.2 1 s_nosymbol source 1 -1.04537 -1.15204 0 0.2
0.2 0.2 1 s_nosymbol group 0 2 0 1 0 0.2 0.2 0.2 1 s_nosymbol slot
79 source 0 0.419159 2.32002 0 0.2 0.2 0.2 1 s_nosymbol source 1 -0.512019
-1.83474 0 0.2 0.2 0.2 1 s_nosymbol group 0 2 0 1 0 0.2 0.2 0.2 1 s_nosymbol
slot 80 source 0 0.459273 2.31242 0 0.2 0.2 0.2 1 s_nosymbol source
1 0.896034 -2.09075 0 0.2 0.2 0.2 1 s_nosymbol group 0 2 0 1 0 0.2
0.2 0.2 1 s_nosymbol slot 81 source 0 0.459273 2.31242 0 0.2 0.2 0.2
1 s_nosymbol source 1 1.92007 -1.96274 0 0.2 0.2 0.2 1 s_nosymbol group
0 2 0 1 0 0.2 0.2 0.2 1 s_nosymbol slot 82 source 0 0.459273 2.31242
0 0.2 0.2 0.2 1 s_nosymbol source 1 2.58143 -1.70673 0 0.2 0.2 0.2
1 s_nosymbol group 0 2 0 1 0 0.2 0.2 0.2 1 s_nosymbol slot 83 source
0 0.459273 2.31242 0 0.2 0.2 0.2 1 s_nosymbol source 1 2.85877 -0.810697
0 0.2 0.2 0.2 1 s_nosymbol group 0 2 0 1 0 0.2 0.2 0.2 1 s_nosymbol
slot 84 source 1 2.66677 -0.277344 0 0.2 0.2 0.2 1 s_nosymbol group
0 1 1 0 0.2 0.2 0.2 1 s_nosymbol slot 85 source 1 2.19742 0.128005
0 0.2 0.2 0.2 1 s_nosymbol group 0 1 1 0 0.2 0.2 0.2 1 s_nosymbol slot
86 source 1 1.40805 0.213341 0 0.2 0.2 0.2 1 s_nosymbol slot 87 source
1 0.725361 0.0853365 0 0.2 0.2 0.2 1 s_nosymbol slot 88 source 1 0.36268
-0.0640024 0 0.2 0.2 0.2 1 s_nosymbol slot 89 source 1 0.25601 -0.128005
0 0.2 0.2 0.2 1 s_nosymbol slot 90 source 1 0.234675 -0.149339 0 0.2
0.2 0.2 1 s_nosymbol slot 91 source 1 0.234675 -0.149339 0 0.2 0.2
0.2 1 s_nosymbol slot 92 source 1 0.234675 -0.149339 0 0.2 0.2 0.2
1 s_nosymbol slot 93 source 1 0.234675 -0.149339 0 0.2 0.2 0.2 1 s_nosymbol
slot 94 source 1 -1.66406 -0.298678 0 0.2 0.2 0.2 1 s_nosymbol slot
95 source 1 -1.62139 -0.298678 0 0.2 0.2 0.2 1 s_nosymbol slot 96 source
1 -1.62139 -0.298678 0 0.2 0.2 0.2 1 s_nosymbol ] @patching_rect [
0 0 300 300 ] @bgcolor [ 0.9 0.9 0.9 1 ] @bgcolor2 [ 0.75 0.75 0.75
1 ] @bdcolor [ 0 0 0 1 ] @selcolor [ 0.36 0.36 0.37 0.5 ] @outputmode
[ 0 ] @zoom [ 0.312488 ] sources_parameters [ source 0 -1.24805 1.18404
0 0.2 0.2 0.2 1 s_nosymbol source 1 1.12004 1.03471 0 0.2 0.2 0.2 1
s_nosymbol ] groups_parameters [ group 0 2 0 1 0 0.2 0.2 0.2 1 s_nosymbol
] slots_parameters [ slot 0 source 0 -1.60508 -1.11746 0 0.2 0.2 0.2
1 s_nosymbol source 1 1.76064 1.2611 0 0.2 0.2 0.2 1 s_nosymbol group
0 2 0 1 0 0.2 0.2 0.2 1 s_nosymbol slot 1 source 0 -2.34675 2.51743
0 0.2 0.2 0.2 1 s_nosymbol source 1 1.70673 -1.92007 0 0.2 0.2 0.2
1 s_nosymbol group 0 2 0 1 0 0.2 0.2 0.2 1 s_nosymbol slot 2 source
0 -2.34675 2.51743 0 0.2 0.2 0.2 1 s_nosymbol source 1 -2.30409 -0.960036
0 0.2 0.2 0.2 1 s_nosymbol group 0 2 0 1 0 0.2 0.2 0.2 1 s_nosymbol
slot 3 source 0 1.32585 -1.65066 0 0.2 0.2 0.2 1 s_nosymbol source
1 1.11177 0.369875 0 0.2 0.2 0.2 1 s_nosymbol group 0 2 0 1 0 0.2 0.2
0.2 1 s_nosymbol ] trajectory_parameters [ slot 0 source 0 -1.82077
-0.518721 0 0.2 0.2 0.2 1 s_nosymbol source 1 2.47476 1.45072 0 0.2
0.2 0.2 1 s_nosymbol group 0 1 0 0 0.2 0.2 0.2 1 s_nosymbol slot 1
source 0 -1.82077 -0.518721 0 0.2 0.2 0.2 1 s_nosymbol source 1 2.47476
1.45072 0 0.2 0.2 0.2 1 s_nosymbol group 0 1 0 0 0.2 0.2 0.2 1 s_nosymbol
slot 2 source 0 -1.82077 -0.518721 0 0.2 0.2 0.2 1 s_nosymbol source
1 2.45343 1.45072 0 0.2 0.2 0.2 1 s_nosymbol group 0 2 0 1 0 0.2 0.2
0.2 1 s_nosymbol slot 3 source 0 -1.84705 -0.41558 0 0.2 0.2 0.2 1
s_nosymbol source 1 2.45343 1.02404 0 0.2 0.2 0.2 1 s_nosymbol group
0 2 0 1 0 0.2 0.2 0.2 1 s_nosymbol slot 4 source 0 -1.89291 0.034162
0 0.2 0.2 0.2 1 s_nosymbol source 1 2.45343 0.810697 0 0.2 0.2 0.2
1 s_nosymbol group 0 2 0 1 0 0.2 0.2 0.2 1 s_nosymbol slot 5 source
0 -1.849 0.406816 0 0.2 0.2 0.2 1 s_nosymbol source 1 2.36809 0.341346
0 0.2 0.2 0.2 1 s_nosymbol group 0 2 0 1 0 0.2 0.2 0.2 1 s_nosymbol
slot 6 source 0 -1.72314 0.784265 0 0.2 0.2 0.2 1 s_nosymbol source
1 2.26142 -0.192007 0 0.2 0.2 0.2 1 s_nosymbol group 0 2 0 1 0 0.2
0.2 0.2 1 s_nosymbol slot 7 source 0 -1.30059 1.37578 0 0.2 0.2 0.2
1 s_nosymbol source 1 1.96274 -0.640024 0 0.2 0.2 0.2 1 s_nosymbol
group 0 2 0 1 0 0.2 0.2 0.2 1 s_nosymbol slot 8 source 0 -0.808487
1.71191 0 0.2 0.2 0.2 1 s_nosymbol source 1 1.6854 -0.917368 0 0.2
0.2 0.2 1 s_nosymbol group 0 2 0 1 0 0.2 0.2 0.2 1 s_nosymbol slot
9 source 0 -0.198899 1.88274 0 0.2 0.2 0.2 1 s_nosymbol source 1 1.17338
-1.15204 0 0.2 0.2 0.2 1 s_nosymbol group 0 2 0 1 0 0.2 0.2 0.2 1 s_nosymbol
slot 10 source 0 0.206228 1.88195 0 0.2 0.2 0.2 1 s_nosymbol source
1 0.768029 -1.25871 0 0.2 0.2 0.2 1 s_nosymbol group 0 2 0 1 0 0.2
0.2 0.2 1 s_nosymbol slot 11 source 0 0.893754 1.66898 0 0.2 0.2 0.2
1 s_nosymbol source 1 0.25601 -1.36538 0 0.2 0.2 0.2 1 s_nosymbol group
0 2 0 1 0 0.2 0.2 0.2 1 s_nosymbol slot 12 source 0 1.38925 1.28619
0 0.2 0.2 0.2 1 s_nosymbol source 1 -0.0426683 -1.38672 0 0.2 0.2 0.2
1 s_nosymbol group 0 2 0 1 0 0.2 0.2 0.2 1 s_nosymbol slot 13 source
0 1.67679 0.879001 0 0.2 0.2 0.2 1 s_nosymbol source 1 -0.277344 -1.32272
0 0.2 0.2 0.2 1 s_nosymbol group 0 2 0 1 0 0.2 0.2 0.2 1 s_nosymbol
slot 14 source 0 1.8835 0.191648 0 0.2 0.2 0.2 1 s_nosymbol source
1 -0.597356 -1.15204 0 0.2 0.2 0.2 1 s_nosymbol group 0 2 0 1 0 0.2
0.2 0.2 1 s_nosymbol slot 15 source 0 1.87804 -0.239284 0 0.2 0.2 0.2
1 s_nosymbol source 1 -0.960036 -0.8747 0 0.2 0.2 0.2 1 s_nosymbol
group 0 2 0 1 0 0.2 0.2 0.2 1 s_nosymbol slot 16 source 0 1.73286 -0.762544
0 0.2 0.2 0.2 1 s_nosymbol source 1 -1.08804 -0.405349 0 0.2 0.2 0.2
1 s_nosymbol group 0 2 0 1 0 0.2 0.2 0.2 1 s_nosymbol slot 17 source
0 1.43758 -1.23193 0 0.2 0.2 0.2 1 s_nosymbol source 1 -1.10938 0.234675
0 0.2 0.2 0.2 1 s_nosymbol group 0 2 0 1 0 0.2 0.2 0.2 1 s_nosymbol
slot 18 source 0 0.824081 -1.70446 0 0.2 0.2 0.2 1 s_nosymbol source
1 -1.10938 0.405349 0 0.2 0.2 0.2 1 s_nosymbol group 0 2 0 1 0 0.2
0.2 0.2 1 s_nosymbol slot 19 source 0 -0.000247049 -1.89322 0 0.2 0.2
0.2 1 s_nosymbol source 1 -1.08804 0.789363 0 0.2 0.2 0.2 1 s_nosymbol
group 0 2 0 1 0 0.2 0.2 0.2 1 s_nosymbol slot 20 source 0 -0.361754
-1.85834 0 0.2 0.2 0.2 1 s_nosymbol source 1 -1.0027 1.08804 0 0.2
0.2 0.2 1 s_nosymbol group 0 2 0 1 0 0.2 0.2 0.2 1 s_nosymbol slot
21 source 0 -0.835556 -1.69886 0 0.2 0.2 0.2 1 s_nosymbol source 1
-0.832031 1.25871 0 0.2 0.2 0.2 1 s_nosymbol group 0 2 0 1 0 0.2 0.2
0.2 1 s_nosymbol slot 22 source 0 -1.30827 -1.36848 0 0.2 0.2 0.2 1
s_nosymbol source 1 -0.426683 1.40805 0 0.2 0.2 0.2 1 s_nosymbol group
0 2 0 1 0 0.2 0.2 0.2 1 s_nosymbol slot 23 source 0 -1.51472 -1.13573
0 0.2 0.2 0.2 1 s_nosymbol source 1 9.40565e-17 1.53606 0 0.2 0.2 0.2
1 s_nosymbol group 0 2 0 1 0 0.2 0.2 0.2 1 s_nosymbol slot 24 source
0 -1.51472 -1.13573 0 0.2 0.2 0.2 1 s_nosymbol source 1 0.490685 1.55739
0 0.2 0.2 0.2 1 s_nosymbol group 0 2 0 1 0 0.2 0.2 0.2 1 s_nosymbol
slot 25 source 0 -1.51472 -1.13573 0 0.2 0.2 0.2 1 s_nosymbol source
1 0.896034 1.47206 0 0.2 0.2 0.2 1 s_nosymbol group 0 2 0 1 0 0.2 0.2
0.2 1 s_nosymbol slot 26 source 0 -1.51472 -1.13573 0 0.2 0.2 0.2 1
s_nosymbol source 1 1.25871 1.21605 0 0.2 0.2 0.2 1 s_nosymbol group
0 2 0 1 0 0.2 0.2 0.2 1 s_nosymbol slot 27 source 0 -1.51472 -1.13573
0 0.2 0.2 0.2 1 s_nosymbol source 1 1.49339 0.746695 0 0.2 0.2 0.2
1 s_nosymbol group 0 2 0 1 0 0.2 0.2 0.2 1 s_nosymbol slot 28 source
0 -1.51472 -1.13573 0 0.2 0.2 0.2 1 s_nosymbol source 1 1.72806 0.213341
0 0.2 0.2 0.2 1 s_nosymbol group 0 2 0 1 0 0.2 0.2 0.2 1 s_nosymbol
slot 29 source 0 -1.20706 -1.14577 0 0.2 0.2 0.2 1 s_nosymbol source
1 1.79207 -0.170673 0 0.2 0.2 0.2 1 s_nosymbol group 0 2 0 1 0 0.2
0.2 0.2 1 s_nosymbol slot 30 source 0 -0.396365 -1.08177 0 0.2 0.2
0.2 1 s_nosymbol source 1 1.79207 -0.490685 0 0.2 0.2 0.2 1 s_nosymbol
group 0 2 0 1 0 0.2 0.2 0.2 1 s_nosymbol slot 31 source 0 0.435666
-1.01777 0 0.2 0.2 0.2 1 s_nosymbol source 1 1.42939 -1.10938 0 0.2
0.2 0.2 1 s_nosymbol group 0 2 0 1 0 0.2 0.2 0.2 1 s_nosymbol slot
32 source 0 0.905017 -1.01777 0 0.2 0.2 0.2 1 s_nosymbol source 1 1.06671
-1.30138 0 0.2 0.2 0.2 1 s_nosymbol group 0 2 0 1 0 0.2 0.2 0.2 1 s_nosymbol
slot 33 source 0 1.28903 -1.06043 0 0.2 0.2 0.2 1 s_nosymbol source
1 0.61869 -1.38672 0 0.2 0.2 0.2 1 s_nosymbol group 0 2 0 1 0 0.2 0.2
0.2 1 s_nosymbol slot 34 source 0 1.4597 -1.12444 0 0.2 0.2 0.2 1 s_nosymbol
source 1 0.341346 -1.47206 0 0.2 0.2 0.2 1 s_nosymbol group 0 2 0 1
0 0.2 0.2 0.2 1 s_nosymbol slot 35 source 0 1.54504 -1.14577 0 0.2
0.2 0.2 1 s_nosymbol source 1 -0.0640024 -1.57873 0 0.2 0.2 0.2 1 s_nosymbol
group 0 2 0 1 0 0.2 0.2 0.2 1 s_nosymbol slot 36 source 0 1.54504 -1.1671
0 0.2 0.2 0.2 1 s_nosymbol source 1 -0.490685 -1.47206 0 0.2 0.2 0.2
1 s_nosymbol group 0 2 0 1 0 0.2 0.2 0.2 1 s_nosymbol slot 37 source
0 1.54504 -1.1671 0 0.2 0.2 0.2 1 s_nosymbol source 1 -1.08804 -0.896034
0 0.2 0.2 0.2 1 s_nosymbol group 0 2 0 1 0 0.2 0.2 0.2 1 s_nosymbol
slot 38 source 0 1.54504 -1.1671 0 0.2 0.2 0.2 1 s_nosymbol source
1 -1.10938 -0.213341 0 0.2 0.2 0.2 1 s_nosymbol group 0 2 0 1 0 0.2
0.2 0.2 1 s_nosymbol slot 39 source 0 1.54504 -1.1671 0 0.2 0.2 0.2
1 s_nosymbol source 1 -1.08804 0.490685 0 0.2 0.2 0.2 1 s_nosymbol
group 0 2 0 1 0 0.2 0.2 0.2 1 s_nosymbol slot 40 source 0 1.54504 -1.1671
0 0.2 0.2 0.2 1 s_nosymbol source 1 -0.597356 1.02404 0 0.2 0.2 0.2
1 s_nosymbol group 0 2 0 1 0 0.2 0.2 0.2 1 s_nosymbol slot 41 source
0 1.54504 -1.1671 0 0.2 0.2 0.2 1 s_nosymbol source 1 -0.170673 1.49339
0 0.2 0.2 0.2 1 s_nosymbol group 0 2 0 1 0 0.2 0.2 0.2 1 s_nosymbol
slot 42 source 0 1.54504 -1.1671 0 0.2 0.2 0.2 1 s_nosymbol source
1 0.384014 2.17608 0 0.2 0.2 0.2 1 s_nosymbol group 0 2 0 1 0 0.2 0.2
0.2 1 s_nosymbol slot 43 source 0 1.54504 -1.1671 0 0.2 0.2 0.2 1 s_nosymbol
source 1 0.426683 2.38942 0 0.2 0.2 0.2 1 s_nosymbol group 0 2 0 1
0 0.2 0.2 0.2 1 s_nosymbol slot 44 source 0 1.51118 -1.21062 0 0.2
0.2 0.2 1 s_nosymbol source 1 0.36268 2.5601 0 0.2 0.2 0.2 1 s_nosymbol
group 0 2 0 1 0 0.2 0.2 0.2 1 s_nosymbol slot 45 source 0 1.42203 -1.31419
0 0.2 0.2 0.2 1 s_nosymbol source 1 -0.25601 2.6881 0 0.2 0.2 0.2 1
s_nosymbol group 0 2 0 1 0 0.2 0.2 0.2 1 s_nosymbol slot 46 source
0 1.34695 -1.39105 0 0.2 0.2 0.2 1 s_nosymbol source 1 -0.810697 2.60276
0 0.2 0.2 0.2 1 s_nosymbol group 0 2 0 1 0 0.2 0.2 0.2 1 s_nosymbol
slot 47 source 0 1.21034 -1.51141 0 0.2 0.2 0.2 1 s_nosymbol source
1 -1.0027 2.36809 0 0.2 0.2 0.2 1 s_nosymbol group 0 2 0 1 0 0.2 0.2
0.2 1 s_nosymbol slot 48 source 0 0.856492 -1.73658 0 0.2 0.2 0.2 1
s_nosymbol source 1 -1.08804 2.09075 0 0.2 0.2 0.2 1 s_nosymbol group
0 2 0 1 0 0.2 0.2 0.2 1 s_nosymbol slot 49 source 0 -0.23369 -1.92215
0 0.2 0.2 0.2 1 s_nosymbol source 1 -1.13071 1.72806 0 0.2 0.2 0.2
1 s_nosymbol group 0 2 0 1 0 0.2 0.2 0.2 1 s_nosymbol slot 50 source
0 -0.673766 -1.8153 0 0.2 0.2 0.2 1 s_nosymbol source 1 -1.13071 1.30138
0 0.2 0.2 0.2 1 s_nosymbol group 0 2 0 1 0 0.2 0.2 0.2 1 s_nosymbol
slot 51 source 0 -0.863456 -1.73313 0 0.2 0.2 0.2 1 s_nosymbol source
1 -1.02404 0.8747 0 0.2 0.2 0.2 1 s_nosymbol group 0 2 0 1 0 0.2 0.2
0.2 1 s_nosymbol slot 52 source 0 -1.26182 -1.46871 0 0.2 0.2 0.2 1
s_nosymbol source 1 -0.746695 0.512019 0 0.2 0.2 0.2 1 s_nosymbol group
0 2 0 1 0 0.2 0.2 0.2 1 s_nosymbol slot 53 source 0 -1.26182 -1.46871
0 0.2 0.2 0.2 1 s_nosymbol source 1 -0.320012 0.170673 0 0.2 0.2 0.2
1 s_nosymbol group 0 2 0 1 0 0.2 0.2 0.2 1 s_nosymbol slot 54 source
0 -1.26182 -1.46871 0 0.2 0.2 0.2 1 s_nosymbol source 1 0.106671 -0.0426683
0 0.2 0.2 0.2 1 s_nosymbol group 0 2 0 1 0 0.2 0.2 0.2 1 s_nosymbol
slot 55 source 0 -1.28365 -1.44967 0 0.2 0.2 0.2 1 s_nosymbol source
1 0.576022 -0.277344 0 0.2 0.2 0.2 1 s_nosymbol group 0 2 0 1 0 0.2
0.2 0.2 1 s_nosymbol slot 56 source 0 -1.28365 -1.44967 0 0.2 0.2 0.2
1 s_nosymbol source 1 1.02404 -0.661358 0 0.2 0.2 0.2 1 s_nosymbol
group 0 2 0 1 0 0.2 0.2 0.2 1 s_nosymbol slot 57 source 0 -1.28365
-1.44967 0 0.2 0.2 0.2 1 s_nosymbol source 1 1.25871 -0.960036 0 0.2
0.2 0.2 1 s_nosymbol group 0 2 0 1 0 0.2 0.2 0.2 1 s_nosymbol slot
58 source 0 -1.28365 -1.44967 0 0.2 0.2 0.2 1 s_nosymbol source 1 1.38672
-1.21605 0 0.2 0.2 0.2 1 s_nosymbol group 0 2 0 1 0 0.2 0.2 0.2 1 s_nosymbol
slot 59 source 0 -1.28365 -1.44967 0 0.2 0.2 0.2 1 s_nosymbol source
1 1.57873 -1.47206 0 0.2 0.2 0.2 1 s_nosymbol group 0 2 0 1 0 0.2 0.2
0.2 1 s_nosymbol slot 60 source 0 -1.28365 -1.44967 0 0.2 0.2 0.2 1
s_nosymbol source 1 2.41076 -1.34405 0 0.2 0.2 0.2 1 s_nosymbol group
0 2 0 1 0 0.2 0.2 0.2 1 s_nosymbol slot 61 source 0 -1.28365 -1.44967
0 0.2 0.2 0.2 1 s_nosymbol source 1 2.53876 -1.10938 0 0.2 0.2 0.2
1 s_nosymbol group 0 2 0 1 0 0.2 0.2 0.2 1 s_nosymbol slot 62 source
0 -1.27445 -1.35249 0 0.2 0.2 0.2 1 s_nosymbol source 1 2.60276 -0.213341
0 0.2 0.2 0.2 1 s_nosymbol group 0 2 0 1 0 0.2 0.2 0.2 1 s_nosymbol
slot 63 source 0 -1.27445 -0.17911 0 0.2 0.2 0.2 1 s_nosymbol source
1 2.41076 0.469351 0 0.2 0.2 0.2 1 s_nosymbol group 0 2 0 1 0 0.2 0.2
0.2 1 s_nosymbol slot 64 source 0 -1.27445 0.162236 0 0.2 0.2 0.2 1
s_nosymbol source 1 1.83474 1.0027 0 0.2 0.2 0.2 1 s_nosymbol group
0 2 0 1 0 0.2 0.2 0.2 1 s_nosymbol slot 65 source 0 -1.27445 0.80226
0 0.2 0.2 0.2 1 s_nosymbol source 1 1.10938 1.55739 0 0.2 0.2 0.2 1
s_nosymbol group 0 2 0 1 0 0.2 0.2 0.2 1 s_nosymbol slot 66 source
0 -1.27445 1.39962 0 0.2 0.2 0.2 1 s_nosymbol source 1 0.640024 1.85607
0 0.2 0.2 0.2 1 s_nosymbol group 0 2 0 1 0 0.2 0.2 0.2 1 s_nosymbol
slot 67 source 0 -1.27445 1.71963 0 0.2 0.2 0.2 1 s_nosymbol source
1 0.384014 1.92007 0 0.2 0.2 0.2 1 s_nosymbol group 0 2 0 1 0 0.2 0.2
0.2 1 s_nosymbol slot 68 source 0 -1.27445 1.8903 0 0.2 0.2 0.2 1 s_nosymbol
source 1 -0.106671 2.09075 0 0.2 0.2 0.2 1 s_nosymbol group 0 2 0 1
0 0.2 0.2 0.2 1 s_nosymbol slot 69 source 0 -1.25312 1.99697 0 0.2
0.2 0.2 1 s_nosymbol source 1 -0.384014 2.19742 0 0.2 0.2 0.2 1 s_nosymbol
group 0 2 0 1 0 0.2 0.2 0.2 1 s_nosymbol slot 70 source 0 -1.25312
1.99697 0 0.2 0.2 0.2 1 s_nosymbol source 1 -0.405349 2.15475 0 0.2
0.2 0.2 1 s_nosymbol group 0 2 0 1 0 0.2 0.2 0.2 1 s_nosymbol slot
71 source 0 -1.25312 1.99697 0 0.2 0.2 0.2 1 s_nosymbol source 1 -0.36268
1.83474 0 0.2 0.2 0.2 1 s_nosymbol group 0 2 0 1 0 0.2 0.2 0.2 1 s_nosymbol
slot 72 source 0 -1.25312 1.99697 0 0.2 0.2 0.2 1 s_nosymbol source
1 -0.36268 1.49339 0 0.2 0.2 0.2 1 s_nosymbol group 0 2 0 1 0 0.2 0.2
0.2 1 s_nosymbol slot 73 source 0 -1.25312 1.99697 0 0.2 0.2 0.2 1
s_nosymbol source 1 -0.384014 1.06671 0 0.2 0.2 0.2 1 s_nosymbol group
0 2 0 1 0 0.2 0.2 0.2 1 s_nosymbol slot 74 source 0 -1.25312 1.99697
0 0.2 0.2 0.2 1 s_nosymbol source 1 -0.490685 0.746695 0 0.2 0.2 0.2
1 s_nosymbol group 0 2 0 1 0 0.2 0.2 0.2 1 s_nosymbol slot 75 source
0 -0.906814 2.17621 0 0.2 0.2 0.2 1 s_nosymbol source 1 -0.8747 0.0426683
0 0.2 0.2 0.2 1 s_nosymbol group 0 2 0 1 0 0.2 0.2 0.2 1 s_nosymbol
slot 76 source 0 -0.489783 2.30615 0 0.2 0.2 0.2 1 s_nosymbol source
1 -0.960036 -0.149339 0 0.2 0.2 0.2 1 s_nosymbol group 0 2 0 1 0 0.2
0.2 0.2 1 s_nosymbol slot 77 source 0 -0.169719 2.35147 0 0.2 0.2 0.2
1 s_nosymbol source 1 -1.02404 -0.469351 0 0.2 0.2 0.2 1 s_nosymbol
group 0 2 0 1 0 0.2 0.2 0.2 1 s_nosymbol slot 78 source 0 0.204561
2.34869 0 0.2 0.2 0.2 1 s_nosymbol source 1 -1.04537 -1.15204 0 0.2
0.2 0.2 1 s_nosymbol group 0 2 0 1 0 0.2 0.2 0.2 1 s_nosymbol slot
79 source 0 0.419159 2.32002 0 0.2 0.2 0.2 1 s_nosymbol source 1 -0.512019
-1.83474 0 0.2 0.2 0.2 1 s_nosymbol group 0 2 0 1 0 0.2 0.2 0.2 1 s_nosymbol
slot 80 source 0 0.459273 2.31242 0 0.2 0.2 0.2 1 s_nosymbol source
1 0.896034 -2.09075 0 0.2 0.2 0.2 1 s_nosymbol group 0 2 0 1 0 0.2
0.2 0.2 1 s_nosymbol slot 81 source 0 0.459273 2.31242 0 0.2 0.2 0.2
1 s_nosymbol source 1 1.92007 -1.96274 0 0.2 0.2 0.2 1 s_nosymbol group
0 2 0 1 0 0.2 0.2 0.2 1 s_nosymbol slot 82 source 0 0.459273 2.31242
0 0.2 0.2 0.2 1 s_nosymbol source 1 2.58143 -1.70673 0 0.2 0.2 0.2
1 s_nosymbol group 0 2 0 1 0 0.2 0.2 0.2 1 s_nosymbol slot 83 source
0 0.459273 2.31242 0 0.2 0.2 0.2 1 s_nosymbol source 1 2.85877 -0.810697
0 0.2 0.2 0.2 1 s_nosymbol group 0 2 0 1 0 0.2 0.2 0.2 1 s_nosymbol
slot 84 source 1 2.66677 -0.277344 0 0.2 0.2 0.2 1 s_nosymbol group
0 1 1 0 0.2 0.2 0.2 1 s_nosymbol slot 85 source 1 2.19742 0.128005
0 0.2 0.2 0.2 1 s_nosymbol group 0 1 1 0 0.2 0.2 0.2 1 s_nosymbol slot
86 source 1 1.40805 0.213341 0 0.2 0.2 0.2 1 s_nosymbol slot 87 source
1 0.725361 0.0853365 0 0.2 0.2 0.2 1 s_nosymbol slot 88 source 1 0.36268
-0.0640024 0 0.2 0.2 0.2 1 s_nosymbol slot 89 source 1 0.25601 -0.128005
0 0.2 0.2 0.2 1 s_nosymbol slot 90 source 1 0.234675 -0.149339 0 0.2
0.2 0.2 1 s_nosymbol slot 91 source 1 0.234675 -0.149339 0 0.2 0.2
0.2 1 s_nosymbol slot 92 source 1 0.234675 -0.149339 0 0.2 0.2 0.2
1 s_nosymbol slot 93 source 1 0.234675 -0.149339 0 0.2 0.2 0.2 1 s_nosymbol
slot 94 source 1 -1.66406 -0.298678 0 0.2 0.2 0.2 1 s_nosymbol slot
95 source 1 -1.62139 -0.298678 0 0.2 0.2 0.2 1 s_nosymbol slot 96 source
1 -1.62139 -0.298678 0 0.2 0.2 0.2 1 s_nosymbol ];
#X obj -538 -384 nbx 10 14 -1e+37 1e+37 0 0 empty empty empty 0 -8
0 10 -262144 -1 -1 0.312488 256;
#X msg -524 -352 zoom \$1;
#X obj -541 -256 vsl 15 294 0 127 0 0 empty empty empty 0 -9 0 10 -262144
-1 -1 9228 1;
#X obj -588 -171 / 128;
#X text -537 -403 Set the zoom;
#X obj -587 -364 loadbang;
#X msg -587 -339 40;
#X obj -524 74 send map_outs_sources;
#X obj -378 76 send map_outs_groups;
#X obj -231 77 send map_outs_infos;
#X obj -400 -375 bng 15 250 50 0 empty empty empty 17 7 0 10 -262144
-1 -1;
#X text -186 -429 hoa.map outputs informations about sources \, groups
and slots by the last outlet when it receives the "getinfo" message.
A bang outputs the sources coordinates by the first outlet and groups
coordinates by the second outlet. Here \, we show you how to route
messages.;
#X msg -355 -362 getinfo;
#X text -440 -406 Outputs sources and groups coordinates;
#X obj -147 -344 receive map_outs_sources;
#X text -374 -342 Change the coordinates type;
#X obj -147 -311 route 0 1;
#X msg -147 -227 polar;
#X obj -147 -276 unpack s 0 0;
#X msg -147 -251 set \$1;
#X obj -103 -225 nbx 5 14 -1e+37 1e+37 0 0 empty empty empty 0 -8 0
10 -262144 -1 -1 1.72034 256;
#X obj -36 -222 nbx 5 14 -1e+37 1e+37 0 0 empty empty empty 0 -8 0
10 -262144 -1 -1 0.811711 256;
#X msg 35 -224 polar;
#X obj 35 -273 unpack s 0 0;
#X msg 35 -248 set \$1;
#X obj 79 -222 nbx 5 14 -1e+37 1e+37 0 0 empty empty empty 0 -8 0 10
-262144 -1 -1 1.52483 256;
#X obj 146 -219 nbx 5 14 -1e+37 1e+37 0 0 empty empty empty 0 -8 0
10 -262144 -1 -1 5.45821 256;
#X msg -378 -290 outputmode \$1;
#X obj -378 -321 tgl 15 0 empty empty empty 17 7 0 10 -262144 -1 -1
0 1;
#X obj 215 -309 route 0 1;
#X msg 215 -225 polar;
#X obj 215 -274 unpack s 0 0;
#X msg 215 -249 set \$1;
#X obj 259 -223 nbx 5 14 -1e+37 1e+37 0 0 empty empty empty 0 -8 0
10 -262144 -1 -1 1.11122 256;
#X obj 326 -220 nbx 5 14 -1e+37 1e+37 0 0 empty empty empty 0 -8 0
10 -262144 -1 -1 3.19922 256;
#X msg 397 -222 polar;
#X obj 397 -271 unpack s 0 0;
#X msg 397 -246 set \$1;
#X obj 441 -220 nbx 5 14 -1e+37 1e+37 0 0 empty empty empty 0 -8 0
10 -262144 -1 -1 0 256;
#X obj 508 -217 nbx 5 14 -1e+37 1e+37 0 0 empty empty empty 0 -8 0
10 -262144 -1 -1 0 256;
#X obj 215 -347 receive map_outs_groups;
#X obj -147 -180 receive map_outs_infos;
#X text -81 -311 Route sources by index;
#X text 284 -309 Route groups by index;
#X text -371 -382 Output general informations;
#X obj -147 -85 print source;
#X obj -147 -121 route source group slot;
#X obj -102 -46 print source;
#X obj -57 -15 print slot;
#X obj -147 -147 route list;
#X connect 0 0 8 0;
#X connect 0 1 9 0;
#X connect 0 2 10 0;
#X connect 1 0 2 0;
#X connect 2 0 0 0;
#X connect 3 0 4 0;
#X connect 4 0 1 0;
#X connect 6 0 7 0;
#X connect 7 0 3 0;
#X connect 11 0 0 0;
#X connect 13 0 0 0;
#X connect 15 0 17 0;
#X connect 17 0 19 0;
#X connect 17 1 24 0;
#X connect 19 0 20 0;
#X connect 19 1 21 0;
#X connect 19 2 22 0;
#X connect 20 0 18 0;
#X connect 24 0 25 0;
#X connect 24 1 26 0;
#X connect 24 2 27 0;
#X connect 25 0 23 0;
#X connect 28 0 0 0;
#X connect 29 0 28 0;
#X connect 30 0 32 0;
#X connect 30 1 37 0;
#X connect 32 0 33 0;
#X connect 32 1 34 0;
#X connect 32 2 35 0;
#X connect 33 0 31 0;
#X connect 37 0 38 0;
#X connect 37 1 39 0;
#X connect 37 2 40 0;
#X connect 38 0 36 0;
#X connect 41 0 30 0;
#X connect 42 0 50 0;
#X connect 47 0 46 0;
#X connect 47 1 48 0;
#X connect 47 2 49 0;
#X connect 50 0 47 0;
