{
	"patcher" : 	{
		"fileversion" : 1,
		"rect" : [ 20.0, 74.0, 605.0, 258.0 ],
		"bgcolor" : [ 1.0, 1.0, 1.0, 1.0 ],
		"bglocked" : 0,
		"defrect" : [ 20.0, 74.0, 605.0, 258.0 ],
		"openrect" : [ 0.0, 0.0, 0.0, 0.0 ],
		"openinpresentation" : 0,
		"default_fontsize" : 10.0,
		"default_fontface" : 0,
		"default_fontname" : "Arial",
		"gridonopen" : 0,
		"gridsize" : [ 15.0, 15.0 ],
		"gridsnaponopen" : 0,
		"toolbarvisible" : 1,
		"boxanimatetime" : 200,
		"imprint" : 1,
		"metadata" : [  ],
		"boxes" : [ 			{
				"box" : 				{
					"maxclass" : "number",
					"textcolor" : [ 0.0, 0.0, 0.0, 1.0 ],
					"numoutlets" : 2,
					"hbgcolor" : [ 0.0, 0.0, 0.0, 1.0 ],
					"fontname" : "Arial",
					"bordercolor" : [ 0.5, 0.5, 0.5, 1.0 ],
					"triangle" : 1,
					"minimum" : "<none>",
					"id" : "obj-4",
					"outlettype" : [ "int", "bang" ],
					"cantchange" : 0,
					"htextcolor" : [ 0.870588, 0.870588, 0.870588, 1.0 ],
					"background" : 0,
					"mouseup" : 0,
					"maximum" : "<none>",
					"bgcolor" : [ 1.0, 1.0, 1.0, 1.0 ],
					"fontface" : 0,
					"triscale" : 0.9,
					"presentation_rect" : [ 0.0, 0.0, 0.0, 0.0 ],
					"fontsize" : 11.595187,
					"ignoreclick" : 0,
					"format" : 0,
					"hidden" : 0,
					"patching_rect" : [ 183.0, 39.0, 37.0, 20.0 ],
					"numinlets" : 1,
					"outputonclick" : 0,
					"presentation" : 0
				}

			}
, 			{
				"box" : 				{
					"maxclass" : "message",
					"text" : "size $1",
					"textcolor" : [ 0.0, 0.0, 0.0, 1.0 ],
					"numoutlets" : 1,
					"fontname" : "Arial",
					"id" : "obj-5",
					"bgcolor2" : [ 0.867, 0.867, 0.867, 1.0 ],
					"outlettype" : [ "" ],
					"background" : 0,
					"gradient" : 0,
					"bgcolor" : [ 0.867, 0.867, 0.867, 1.0 ],
					"fontface" : 0,
					"presentation_rect" : [ 0.0, 0.0, 0.0, 0.0 ],
					"fontsize" : 11.595187,
					"ignoreclick" : 0,
					"hidden" : 0,
					"patching_rect" : [ 183.0, 64.0, 47.0, 18.0 ],
					"numinlets" : 2,
					"presentation" : 0
				}

			}
, 			{
				"box" : 				{
					"maxclass" : "number",
					"textcolor" : [ 0.0, 0.0, 0.0, 1.0 ],
					"numoutlets" : 2,
					"hbgcolor" : [ 0.0, 0.0, 0.0, 1.0 ],
					"fontname" : "Arial",
					"bordercolor" : [ 0.5, 0.5, 0.5, 1.0 ],
					"triangle" : 1,
					"minimum" : "<none>",
					"id" : "obj-6",
					"outlettype" : [ "int", "bang" ],
					"cantchange" : 0,
					"htextcolor" : [ 0.870588, 0.870588, 0.870588, 1.0 ],
					"background" : 0,
					"mouseup" : 0,
					"maximum" : "<none>",
					"bgcolor" : [ 1.0, 1.0, 1.0, 1.0 ],
					"fontface" : 0,
					"triscale" : 0.9,
					"presentation_rect" : [ 0.0, 0.0, 0.0, 0.0 ],
					"fontsize" : 11.595187,
					"ignoreclick" : 0,
					"format" : 0,
					"hidden" : 0,
					"patching_rect" : [ 229.0, 39.0, 37.0, 20.0 ],
					"numinlets" : 1,
					"outputonclick" : 0,
					"presentation" : 0
				}

			}
, 			{
				"box" : 				{
					"maxclass" : "message",
					"text" : "min $1",
					"textcolor" : [ 0.0, 0.0, 0.0, 1.0 ],
					"numoutlets" : 1,
					"fontname" : "Arial",
					"id" : "obj-7",
					"bgcolor2" : [ 0.867, 0.867, 0.867, 1.0 ],
					"outlettype" : [ "" ],
					"background" : 0,
					"gradient" : 0,
					"bgcolor" : [ 0.867, 0.867, 0.867, 1.0 ],
					"fontface" : 0,
					"presentation_rect" : [ 0.0, 0.0, 0.0, 0.0 ],
					"fontsize" : 11.595187,
					"ignoreclick" : 0,
					"hidden" : 0,
					"patching_rect" : [ 229.0, 64.0, 45.0, 18.0 ],
					"numinlets" : 2,
					"presentation" : 0
				}

			}
, 			{
				"box" : 				{
					"maxclass" : "number",
					"textcolor" : [ 0.0, 0.0, 0.0, 1.0 ],
					"numoutlets" : 2,
					"hbgcolor" : [ 0.0, 0.0, 0.0, 1.0 ],
					"fontname" : "Arial",
					"bordercolor" : [ 0.5, 0.5, 0.5, 1.0 ],
					"triangle" : 1,
					"minimum" : "<none>",
					"id" : "obj-8",
					"outlettype" : [ "int", "bang" ],
					"cantchange" : 0,
					"htextcolor" : [ 0.870588, 0.870588, 0.870588, 1.0 ],
					"background" : 0,
					"mouseup" : 0,
					"maximum" : "<none>",
					"bgcolor" : [ 1.0, 1.0, 1.0, 1.0 ],
					"fontface" : 0,
					"triscale" : 0.9,
					"presentation_rect" : [ 0.0, 0.0, 0.0, 0.0 ],
					"fontsize" : 11.595187,
					"ignoreclick" : 0,
					"format" : 0,
					"hidden" : 0,
					"patching_rect" : [ 275.0, 39.0, 37.0, 20.0 ],
					"numinlets" : 1,
					"outputonclick" : 0,
					"presentation" : 0
				}

			}
, 			{
				"box" : 				{
					"maxclass" : "message",
					"text" : "mult $1",
					"textcolor" : [ 0.0, 0.0, 0.0, 1.0 ],
					"numoutlets" : 1,
					"fontname" : "Arial",
					"id" : "obj-9",
					"bgcolor2" : [ 0.867, 0.867, 0.867, 1.0 ],
					"outlettype" : [ "" ],
					"background" : 0,
					"gradient" : 0,
					"bgcolor" : [ 0.867, 0.867, 0.867, 1.0 ],
					"fontface" : 0,
					"presentation_rect" : [ 0.0, 0.0, 0.0, 0.0 ],
					"fontsize" : 11.595187,
					"ignoreclick" : 0,
					"hidden" : 0,
					"patching_rect" : [ 275.0, 64.0, 50.0, 18.0 ],
					"numinlets" : 2,
					"presentation" : 0
				}

			}
, 			{
				"box" : 				{
					"maxclass" : "number",
					"textcolor" : [ 0.0, 0.0, 0.0, 1.0 ],
					"numoutlets" : 2,
					"hbgcolor" : [ 0.0, 0.0, 0.0, 1.0 ],
					"fontname" : "Arial",
					"bordercolor" : [ 0.5, 0.5, 0.5, 1.0 ],
					"triangle" : 1,
					"minimum" : "<none>",
					"id" : "obj-10",
					"outlettype" : [ "int", "bang" ],
					"cantchange" : 0,
					"htextcolor" : [ 0.870588, 0.870588, 0.870588, 1.0 ],
					"background" : 0,
					"mouseup" : 0,
					"maximum" : "<none>",
					"bgcolor" : [ 1.0, 1.0, 1.0, 1.0 ],
					"fontface" : 0,
					"triscale" : 0.9,
					"presentation_rect" : [ 0.0, 0.0, 0.0, 0.0 ],
					"fontsize" : 16.233263,
					"ignoreclick" : 0,
					"format" : 0,
					"hidden" : 0,
					"patching_rect" : [ 275.0, 179.0, 64.0, 25.0 ],
					"numinlets" : 1,
					"outputonclick" : 0,
					"presentation" : 0
				}

			}
, 			{
				"box" : 				{
					"maxclass" : "number",
					"textcolor" : [ 0.0, 0.0, 0.0, 1.0 ],
					"numoutlets" : 2,
					"hbgcolor" : [ 0.0, 0.0, 0.0, 1.0 ],
					"fontname" : "Arial",
					"bordercolor" : [ 0.5, 0.5, 0.5, 1.0 ],
					"triangle" : 1,
					"minimum" : "<none>",
					"id" : "obj-11",
					"outlettype" : [ "int", "bang" ],
					"cantchange" : 0,
					"htextcolor" : [ 0.870588, 0.870588, 0.870588, 1.0 ],
					"background" : 0,
					"mouseup" : 0,
					"maximum" : "<none>",
					"bgcolor" : [ 1.0, 1.0, 1.0, 1.0 ],
					"fontface" : 0,
					"triscale" : 0.9,
					"presentation_rect" : [ 0.0, 0.0, 0.0, 0.0 ],
					"fontsize" : 16.233263,
					"ignoreclick" : 0,
					"format" : 0,
					"hidden" : 0,
					"patching_rect" : [ 220.0, 208.0, 64.0, 25.0 ],
					"numinlets" : 1,
					"outputonclick" : 0,
					"presentation" : 0
				}

			}
, 			{
				"box" : 				{
					"maxclass" : "button",
					"numoutlets" : 1,
					"fgcolor" : [ 1.0, 1.0, 1.0, 1.0 ],
					"id" : "obj-12",
					"outlettype" : [ "bang" ],
					"background" : 0,
					"bgcolor" : [ 0.91328, 0.91328, 0.91328, 0.75 ],
					"presentation_rect" : [ 0.0, 0.0, 0.0, 0.0 ],
					"ignoreclick" : 0,
					"outlinecolor" : [ 0.71328, 0.71328, 0.71328, 1.0 ],
					"hidden" : 0,
					"patching_rect" : [ 70.0, 87.0, 24.0, 24.0 ],
					"blinkcolor" : [ 1.0, 0.890196, 0.090196, 1.0 ],
					"numinlets" : 1,
					"presentation" : 0
				}

			}
, 			{
				"box" : 				{
					"maxclass" : "number",
					"textcolor" : [ 0.0, 0.0, 0.0, 1.0 ],
					"numoutlets" : 2,
					"hbgcolor" : [ 0.0, 0.0, 0.0, 1.0 ],
					"fontname" : "Arial",
					"bordercolor" : [ 0.5, 0.5, 0.5, 1.0 ],
					"triangle" : 1,
					"minimum" : "<none>",
					"id" : "obj-13",
					"outlettype" : [ "int", "bang" ],
					"cantchange" : 0,
					"htextcolor" : [ 0.870588, 0.870588, 0.870588, 1.0 ],
					"background" : 0,
					"mouseup" : 0,
					"maximum" : "<none>",
					"bgcolor" : [ 1.0, 1.0, 1.0, 1.0 ],
					"fontface" : 0,
					"triscale" : 0.9,
					"presentation_rect" : [ 0.0, 0.0, 0.0, 0.0 ],
					"fontsize" : 16.233263,
					"ignoreclick" : 0,
					"format" : 0,
					"hidden" : 0,
					"patching_rect" : [ 70.0, 148.0, 64.0, 25.0 ],
					"numinlets" : 1,
					"outputonclick" : 0,
					"presentation" : 0
				}

			}
, 			{
				"box" : 				{
					"maxclass" : "slider",
					"numoutlets" : 1,
					"orientation" : 2,
					"bordercolor" : [ 0.5, 0.5, 0.5, 1.0 ],
					"id" : "obj-14",
					"outlettype" : [ "" ],
					"background" : 0,
					"size" : 128.0,
					"bgcolor" : [ 1.0, 1.0, 1.0, 1.0 ],
					"relative" : 0,
					"presentation_rect" : [ 0.0, 0.0, 0.0, 0.0 ],
					"ignoreclick" : 0,
					"knobcolor" : [ 0.2, 0.2, 0.2, 1.0 ],
					"mult" : 1.0,
					"min" : 0.0,
					"hidden" : 0,
					"floatoutput" : 0,
					"patching_rect" : [ 220.0, 117.0, 36.0, 79.0 ],
					"numinlets" : 1,
					"presentation" : 0
				}

			}
, 			{
				"box" : 				{
					"maxclass" : "slider",
					"numoutlets" : 1,
					"orientation" : 1,
					"bordercolor" : [ 0.5, 0.5, 0.5, 1.0 ],
					"id" : "obj-15",
					"outlettype" : [ "" ],
					"background" : 0,
					"size" : 128.0,
					"bgcolor" : [ 1.0, 1.0, 1.0, 1.0 ],
					"relative" : 0,
					"presentation_rect" : [ 0.0, 0.0, 0.0, 0.0 ],
					"ignoreclick" : 0,
					"knobcolor" : [ 0.2, 0.2, 0.2, 1.0 ],
					"mult" : 1.0,
					"min" : 0.0,
					"hidden" : 0,
					"floatoutput" : 0,
					"patching_rect" : [ 70.0, 118.0, 144.0, 18.0 ],
					"numinlets" : 1,
					"presentation" : 0
				}

			}
, 			{
				"box" : 				{
					"maxclass" : "dial",
					"numoutlets" : 1,
					"vtracking" : 1,
					"fgcolor" : [ 1.0, 1.0, 1.0, 1.0 ],
					"clip" : 1,
					"id" : "obj-16",
					"outlettype" : [ "int" ],
					"background" : 0,
					"size" : 128,
					"needlecolor" : [ 0.664, 0.664, 0.664, 1.0 ],
					"bgcolor" : [ 0.8633, 0.8633, 0.8633, 1.0 ],
					"presentation_rect" : [ 0.0, 0.0, 0.0, 0.0 ],
					"ignoreclick" : 0,
					"mult" : 1,
					"min" : 0,
					"outlinecolor" : [ 0.78, 0.78, 0.78, 1.0 ],
					"hidden" : 0,
					"patching_rect" : [ 275.0, 128.0, 40.0, 40.0 ],
					"numinlets" : 1,
					"presentation" : 0,
					"degrees" : 270
				}

			}
, 			{
				"box" : 				{
					"maxclass" : "number",
					"textcolor" : [ 0.0, 0.0, 0.0, 1.0 ],
					"numoutlets" : 2,
					"hbgcolor" : [ 0.0, 0.0, 0.0, 1.0 ],
					"fontname" : "Arial",
					"bordercolor" : [ 0.5, 0.5, 0.5, 1.0 ],
					"triangle" : 1,
					"minimum" : "<none>",
					"id" : "obj-17",
					"outlettype" : [ "int", "bang" ],
					"cantchange" : 0,
					"htextcolor" : [ 0.870588, 0.870588, 0.870588, 1.0 ],
					"background" : 0,
					"mouseup" : 0,
					"maximum" : "<none>",
					"bgcolor" : [ 1.0, 1.0, 1.0, 1.0 ],
					"fontface" : 0,
					"triscale" : 0.9,
					"presentation_rect" : [ 0.0, 0.0, 0.0, 0.0 ],
					"fontsize" : 11.595187,
					"ignoreclick" : 0,
					"format" : 0,
					"hidden" : 0,
					"patching_rect" : [ 422.0, 82.0, 37.0, 20.0 ],
					"numinlets" : 1,
					"outputonclick" : 0,
					"presentation" : 0
				}

			}
, 			{
				"box" : 				{
					"maxclass" : "number",
					"textcolor" : [ 0.0, 0.0, 0.0, 1.0 ],
					"numoutlets" : 2,
					"hbgcolor" : [ 0.0, 0.0, 0.0, 1.0 ],
					"fontname" : "Arial",
					"bordercolor" : [ 0.5, 0.5, 0.5, 1.0 ],
					"triangle" : 0,
					"minimum" : "<none>",
					"id" : "obj-18",
					"outlettype" : [ "int", "bang" ],
					"cantchange" : 1,
					"htextcolor" : [ 0.870588, 0.870588, 0.870588, 1.0 ],
					"background" : 0,
					"mouseup" : 0,
					"maximum" : "<none>",
					"bgcolor" : [ 1.0, 1.0, 1.0, 1.0 ],
					"fontface" : 1,
					"triscale" : 0.9,
					"presentation_rect" : [ 0.0, 0.0, 0.0, 0.0 ],
					"fontsize" : 11.595187,
					"ignoreclick" : 0,
					"format" : 0,
					"hidden" : 0,
					"patching_rect" : [ 422.0, 162.0, 38.0, 20.0 ],
					"numinlets" : 1,
					"outputonclick" : 0,
					"presentation" : 0
				}

			}
, 			{
				"box" : 				{
					"maxclass" : "comment",
					"text" : "hexadecimal",
					"underline" : 0,
					"textcolor" : [ 0.0, 0.0, 0.0, 1.0 ],
					"numoutlets" : 0,
					"fontname" : "Arial",
					"id" : "obj-19",
					"background" : 0,
					"bgcolor" : [ 1.0, 1.0, 1.0, 0.0 ],
					"fontface" : 0,
					"presentation_rect" : [ 0.0, 0.0, 0.0, 0.0 ],
					"fontsize" : 11.595187,
					"ignoreclick" : 1,
					"hidden" : 0,
					"patching_rect" : [ 340.0, 101.0, 74.0, 20.0 ],
					"frgb" : [ 0.0, 0.0, 0.0, 1.0 ],
					"numinlets" : 1,
					"presentation" : 0
				}

			}
, 			{
				"box" : 				{
					"maxclass" : "number",
					"textcolor" : [ 0.0, 0.0, 0.0, 1.0 ],
					"numoutlets" : 2,
					"hbgcolor" : [ 0.0, 0.0, 0.0, 1.0 ],
					"fontname" : "Arial",
					"bordercolor" : [ 0.5, 0.5, 0.5, 1.0 ],
					"triangle" : 1,
					"minimum" : "<none>",
					"id" : "obj-20",
					"outlettype" : [ "int", "bang" ],
					"cantchange" : 0,
					"htextcolor" : [ 0.870588, 0.870588, 0.870588, 1.0 ],
					"background" : 0,
					"mouseup" : 0,
					"maximum" : "<none>",
					"bgcolor" : [ 1.0, 1.0, 1.0, 1.0 ],
					"fontface" : 0,
					"triscale" : 0.9,
					"presentation_rect" : [ 0.0, 0.0, 0.0, 0.0 ],
					"fontsize" : 11.595187,
					"ignoreclick" : 0,
					"format" : 1,
					"hidden" : 0,
					"patching_rect" : [ 394.0, 122.0, 37.0, 20.0 ],
					"numinlets" : 1,
					"outputonclick" : 0,
					"presentation" : 0
				}

			}
, 			{
				"box" : 				{
					"maxclass" : "comment",
					"text" : "bold, no triangle",
					"underline" : 0,
					"textcolor" : [ 0.0, 0.0, 0.0, 1.0 ],
					"numoutlets" : 0,
					"fontname" : "Arial",
					"id" : "obj-21",
					"background" : 0,
					"bgcolor" : [ 1.0, 1.0, 1.0, 0.0 ],
					"fontface" : 0,
					"presentation_rect" : [ 0.0, 0.0, 0.0, 0.0 ],
					"fontsize" : 11.595187,
					"ignoreclick" : 1,
					"hidden" : 0,
					"patching_rect" : [ 405.0, 182.0, 91.0, 20.0 ],
					"frgb" : [ 0.0, 0.0, 0.0, 1.0 ],
					"numinlets" : 1,
					"presentation" : 0
				}

			}
, 			{
				"box" : 				{
					"maxclass" : "comment",
					"text" : "decimal (default)",
					"underline" : 0,
					"textcolor" : [ 0.0, 0.0, 0.0, 1.0 ],
					"numoutlets" : 0,
					"fontname" : "Arial",
					"id" : "obj-22",
					"background" : 0,
					"bgcolor" : [ 1.0, 1.0, 1.0, 0.0 ],
					"fontface" : 0,
					"presentation_rect" : [ 0.0, 0.0, 0.0, 0.0 ],
					"fontsize" : 11.595187,
					"ignoreclick" : 1,
					"hidden" : 0,
					"patching_rect" : [ 404.0, 62.0, 94.0, 20.0 ],
					"frgb" : [ 0.0, 0.0, 0.0, 1.0 ],
					"numinlets" : 1,
					"presentation" : 0
				}

			}
, 			{
				"box" : 				{
					"maxclass" : "number",
					"textcolor" : [ 0.0, 0.0, 0.0, 1.0 ],
					"numoutlets" : 2,
					"hbgcolor" : [ 0.0, 0.0, 0.0, 1.0 ],
					"fontname" : "Arial",
					"bordercolor" : [ 0.5, 0.5, 0.5, 1.0 ],
					"triangle" : 1,
					"minimum" : "<none>",
					"id" : "obj-23",
					"outlettype" : [ "int", "bang" ],
					"cantchange" : 0,
					"htextcolor" : [ 0.870588, 0.870588, 0.870588, 1.0 ],
					"background" : 0,
					"mouseup" : 0,
					"maximum" : "<none>",
					"bgcolor" : [ 1.0, 1.0, 1.0, 1.0 ],
					"fontface" : 0,
					"triscale" : 0.9,
					"presentation_rect" : [ 0.0, 0.0, 0.0, 0.0 ],
					"fontsize" : 11.595187,
					"ignoreclick" : 0,
					"format" : 4,
					"hidden" : 0,
					"patching_rect" : [ 450.0, 122.0, 38.0, 20.0 ],
					"numinlets" : 1,
					"outputonclick" : 0,
					"presentation" : 0
				}

			}
, 			{
				"box" : 				{
					"maxclass" : "comment",
					"text" : "as MIDI note",
					"underline" : 0,
					"textcolor" : [ 0.0, 0.0, 0.0, 1.0 ],
					"numoutlets" : 0,
					"fontname" : "Arial",
					"id" : "obj-24",
					"background" : 0,
					"bgcolor" : [ 1.0, 1.0, 1.0, 0.0 ],
					"fontface" : 0,
					"presentation_rect" : [ 0.0, 0.0, 0.0, 0.0 ],
					"fontsize" : 11.595187,
					"ignoreclick" : 1,
					"hidden" : 0,
					"patching_rect" : [ 457.0, 101.0, 74.0, 20.0 ],
					"frgb" : [ 0.0, 0.0, 0.0, 1.0 ],
					"numinlets" : 1,
					"presentation" : 0
				}

			}
 ],
		"lines" : [ 			{
				"patchline" : 				{
					"source" : [ "obj-15", 0 ],
					"destination" : [ "obj-13", 0 ],
					"hidden" : 0,
					"color" : [ 0.0, 0.0, 0.0, 1.0 ],
					"midpoints" : [  ]
				}

			}
, 			{
				"patchline" : 				{
					"source" : [ "obj-12", 0 ],
					"destination" : [ "obj-15", 0 ],
					"hidden" : 0,
					"color" : [ 0.0, 0.0, 0.0, 1.0 ],
					"midpoints" : [  ]
				}

			}
, 			{
				"patchline" : 				{
					"source" : [ "obj-7", 0 ],
					"destination" : [ "obj-15", 0 ],
					"hidden" : 0,
					"color" : [ 0.0, 0.0, 0.0, 1.0 ],
					"midpoints" : [  ]
				}

			}
, 			{
				"patchline" : 				{
					"source" : [ "obj-5", 0 ],
					"destination" : [ "obj-15", 0 ],
					"hidden" : 0,
					"color" : [ 0.0, 0.0, 0.0, 1.0 ],
					"midpoints" : [  ]
				}

			}
, 			{
				"patchline" : 				{
					"source" : [ "obj-9", 0 ],
					"destination" : [ "obj-15", 0 ],
					"hidden" : 0,
					"color" : [ 0.0, 0.0, 0.0, 1.0 ],
					"midpoints" : [  ]
				}

			}
, 			{
				"patchline" : 				{
					"source" : [ "obj-16", 0 ],
					"destination" : [ "obj-10", 0 ],
					"hidden" : 0,
					"color" : [ 0.0, 0.0, 0.0, 1.0 ],
					"midpoints" : [  ]
				}

			}
, 			{
				"patchline" : 				{
					"source" : [ "obj-7", 0 ],
					"destination" : [ "obj-16", 0 ],
					"hidden" : 0,
					"color" : [ 0.0, 0.0, 0.0, 1.0 ],
					"midpoints" : [  ]
				}

			}
, 			{
				"patchline" : 				{
					"source" : [ "obj-5", 0 ],
					"destination" : [ "obj-16", 0 ],
					"hidden" : 0,
					"color" : [ 0.0, 0.0, 0.0, 1.0 ],
					"midpoints" : [  ]
				}

			}
, 			{
				"patchline" : 				{
					"source" : [ "obj-9", 0 ],
					"destination" : [ "obj-16", 0 ],
					"hidden" : 0,
					"color" : [ 0.0, 0.0, 0.0, 1.0 ],
					"midpoints" : [  ]
				}

			}
, 			{
				"patchline" : 				{
					"source" : [ "obj-4", 0 ],
					"destination" : [ "obj-5", 0 ],
					"hidden" : 0,
					"color" : [ 0.0, 0.0, 0.0, 1.0 ],
					"midpoints" : [  ]
				}

			}
, 			{
				"patchline" : 				{
					"source" : [ "obj-9", 0 ],
					"destination" : [ "obj-14", 0 ],
					"hidden" : 0,
					"color" : [ 0.0, 0.0, 0.0, 1.0 ],
					"midpoints" : [  ]
				}

			}
, 			{
				"patchline" : 				{
					"source" : [ "obj-5", 0 ],
					"destination" : [ "obj-14", 0 ],
					"hidden" : 0,
					"color" : [ 0.0, 0.0, 0.0, 1.0 ],
					"midpoints" : [  ]
				}

			}
, 			{
				"patchline" : 				{
					"source" : [ "obj-7", 0 ],
					"destination" : [ "obj-14", 0 ],
					"hidden" : 0,
					"color" : [ 0.0, 0.0, 0.0, 1.0 ],
					"midpoints" : [  ]
				}

			}
, 			{
				"patchline" : 				{
					"source" : [ "obj-14", 0 ],
					"destination" : [ "obj-11", 0 ],
					"hidden" : 0,
					"color" : [ 0.0, 0.0, 0.0, 1.0 ],
					"midpoints" : [  ]
				}

			}
, 			{
				"patchline" : 				{
					"source" : [ "obj-6", 0 ],
					"destination" : [ "obj-7", 0 ],
					"hidden" : 0,
					"color" : [ 0.0, 0.0, 0.0, 1.0 ],
					"midpoints" : [  ]
				}

			}
, 			{
				"patchline" : 				{
					"source" : [ "obj-8", 0 ],
					"destination" : [ "obj-9", 0 ],
					"hidden" : 0,
					"color" : [ 0.0, 0.0, 0.0, 1.0 ],
					"midpoints" : [  ]
				}

			}
, 			{
				"patchline" : 				{
					"source" : [ "obj-17", 0 ],
					"destination" : [ "obj-20", 0 ],
					"hidden" : 0,
					"color" : [ 0.0, 0.0, 0.0, 1.0 ],
					"midpoints" : [  ]
				}

			}
, 			{
				"patchline" : 				{
					"source" : [ "obj-23", 0 ],
					"destination" : [ "obj-18", 0 ],
					"hidden" : 0,
					"color" : [ 0.0, 0.0, 0.0, 1.0 ],
					"midpoints" : [  ]
				}

			}
, 			{
				"patchline" : 				{
					"source" : [ "obj-20", 0 ],
					"destination" : [ "obj-18", 0 ],
					"hidden" : 0,
					"color" : [ 0.0, 0.0, 0.0, 1.0 ],
					"midpoints" : [  ]
				}

			}
, 			{
				"patchline" : 				{
					"source" : [ "obj-17", 0 ],
					"destination" : [ "obj-23", 0 ],
					"hidden" : 0,
					"color" : [ 0.0, 0.0, 0.0, 1.0 ],
					"midpoints" : [  ]
				}

			}
 ]
	}

}
