{
	"patcher" : 	{
		"fileversion" : 1,
		"rect" : [ 25.0, 65.0, 957.0, 465.0 ],
		"bgcolor" : [ 1.0, 1.0, 1.0, 1.0 ],
		"bglocked" : 0,
		"defrect" : [ 25.0, 65.0, 957.0, 465.0 ],
		"openrect" : [ 0.0, 0.0, 0.0, 0.0 ],
		"openinpresentation" : 0,
		"default_fontsize" : 10.0,
		"default_fontface" : 0,
		"default_fontname" : "Arial",
		"gridonopen" : 0,
		"gridsize" : [ 15.0, 15.0 ],
		"gridsnaponopen" : 0,
		"toolbarvisible" : 1,
		"boxanimatetime" : 200,
		"imprint" : 1,
		"metadata" : [  ],
		"boxes" : [ 			{
				"box" : 				{
					"maxclass" : "comment",
					"text" : "3",
					"underline" : 0,
					"textcolor" : [ 0.0, 0.0, 0.0, 1.0 ],
					"numoutlets" : 0,
					"fontname" : "Arial",
					"id" : "obj-33",
					"background" : 0,
					"bgcolor" : [ 1.0, 1.0, 1.0, 0.0 ],
					"fontface" : 0,
					"presentation_rect" : [ 0.0, 0.0, 0.0, 0.0 ],
					"fontsize" : 11.595187,
					"ignoreclick" : 1,
					"hidden" : 0,
					"patching_rect" : [ 695.0, 49.0, 18.0, 20.0 ],
					"frgb" : [ 0.0, 0.0, 0.0, 1.0 ],
					"numinlets" : 1,
					"presentation" : 0
				}

			}
, 			{
				"box" : 				{
					"maxclass" : "comment",
					"text" : "2",
					"underline" : 0,
					"textcolor" : [ 0.0, 0.0, 0.0, 1.0 ],
					"numoutlets" : 0,
					"fontname" : "Arial",
					"id" : "obj-31",
					"background" : 0,
					"bgcolor" : [ 1.0, 1.0, 1.0, 0.0 ],
					"fontface" : 0,
					"presentation_rect" : [ 0.0, 0.0, 0.0, 0.0 ],
					"fontsize" : 11.595187,
					"ignoreclick" : 1,
					"hidden" : 0,
					"patching_rect" : [ 481.0, 231.0, 18.0, 20.0 ],
					"frgb" : [ 0.0, 0.0, 0.0, 1.0 ],
					"numinlets" : 1,
					"presentation" : 0
				}

			}
, 			{
				"box" : 				{
					"maxclass" : "comment",
					"text" : "1",
					"underline" : 0,
					"textcolor" : [ 0.0, 0.0, 0.0, 1.0 ],
					"numoutlets" : 0,
					"fontname" : "Arial",
					"id" : "obj-30",
					"background" : 0,
					"bgcolor" : [ 1.0, 1.0, 1.0, 0.0 ],
					"fontface" : 0,
					"presentation_rect" : [ 0.0, 0.0, 0.0, 0.0 ],
					"fontsize" : 11.595187,
					"ignoreclick" : 1,
					"hidden" : 0,
					"patching_rect" : [ 470.0, 16.0, 18.0, 20.0 ],
					"frgb" : [ 0.0, 0.0, 0.0, 1.0 ],
					"numinlets" : 1,
					"presentation" : 0
				}

			}
, 			{
				"box" : 				{
					"maxclass" : "message",
					"text" : "rate 2.",
					"textcolor" : [ 0.0, 0.0, 0.0, 1.0 ],
					"numoutlets" : 1,
					"fontname" : "Arial",
					"id" : "obj-28",
					"bgcolor2" : [ 0.867, 0.867, 0.867, 1.0 ],
					"outlettype" : [ "" ],
					"background" : 0,
					"gradient" : 0,
					"bgcolor" : [ 0.867, 0.867, 0.867, 1.0 ],
					"fontface" : 0,
					"presentation_rect" : [ 0.0, 0.0, 0.0, 0.0 ],
					"fontsize" : 11.595187,
					"ignoreclick" : 0,
					"hidden" : 0,
					"patching_rect" : [ 280.0, 16.0, 43.0, 18.0 ],
					"numinlets" : 2,
					"presentation" : 0
				}

			}
, 			{
				"box" : 				{
					"maxclass" : "message",
					"text" : "rate -1.",
					"textcolor" : [ 0.0, 0.0, 0.0, 1.0 ],
					"numoutlets" : 1,
					"fontname" : "Arial",
					"id" : "obj-19",
					"bgcolor2" : [ 0.867, 0.867, 0.867, 1.0 ],
					"outlettype" : [ "" ],
					"background" : 0,
					"gradient" : 0,
					"bgcolor" : [ 0.867, 0.867, 0.867, 1.0 ],
					"fontface" : 0,
					"presentation_rect" : [ 0.0, 0.0, 0.0, 0.0 ],
					"fontsize" : 11.595187,
					"ignoreclick" : 0,
					"hidden" : 0,
					"patching_rect" : [ 280.0, 100.0, 48.0, 18.0 ],
					"numinlets" : 2,
					"presentation" : 0
				}

			}
, 			{
				"box" : 				{
					"maxclass" : "message",
					"text" : "rate 0.",
					"textcolor" : [ 0.0, 0.0, 0.0, 1.0 ],
					"numoutlets" : 1,
					"fontname" : "Arial",
					"id" : "obj-18",
					"bgcolor2" : [ 0.867, 0.867, 0.867, 1.0 ],
					"outlettype" : [ "" ],
					"background" : 0,
					"gradient" : 0,
					"bgcolor" : [ 0.867, 0.867, 0.867, 1.0 ],
					"fontface" : 0,
					"presentation_rect" : [ 0.0, 0.0, 0.0, 0.0 ],
					"fontsize" : 11.595187,
					"ignoreclick" : 0,
					"hidden" : 0,
					"patching_rect" : [ 280.0, 79.0, 43.0, 18.0 ],
					"numinlets" : 2,
					"presentation" : 0
				}

			}
, 			{
				"box" : 				{
					"maxclass" : "message",
					"text" : "rate 0.5",
					"textcolor" : [ 0.0, 0.0, 0.0, 1.0 ],
					"numoutlets" : 1,
					"fontname" : "Arial",
					"id" : "obj-9",
					"bgcolor2" : [ 0.867, 0.867, 0.867, 1.0 ],
					"outlettype" : [ "" ],
					"background" : 0,
					"gradient" : 0,
					"bgcolor" : [ 0.867, 0.867, 0.867, 1.0 ],
					"fontface" : 0,
					"presentation_rect" : [ 0.0, 0.0, 0.0, 0.0 ],
					"fontsize" : 11.595187,
					"ignoreclick" : 0,
					"hidden" : 0,
					"patching_rect" : [ 280.0, 58.0, 50.0, 18.0 ],
					"numinlets" : 2,
					"presentation" : 0
				}

			}
, 			{
				"box" : 				{
					"maxclass" : "newobj",
					"text" : "change",
					"textcolor" : [ 0.0, 0.0, 0.0, 1.0 ],
					"numoutlets" : 3,
					"fontname" : "Arial",
					"id" : "obj-50",
					"outlettype" : [ "", "int", "int" ],
					"background" : 0,
					"color" : [ 0.8, 0.84, 0.71, 1.0 ],
					"bgcolor" : [ 1.0, 1.0, 1.0, 1.0 ],
					"fontface" : 0,
					"presentation_rect" : [ 0.0, 0.0, 0.0, 0.0 ],
					"fontsize" : 11.595187,
					"ignoreclick" : 0,
					"hidden" : 0,
					"patching_rect" : [ 527.0, 351.0, 49.0, 20.0 ],
					"numinlets" : 1,
					"presentation" : 0
				}

			}
, 			{
				"box" : 				{
					"maxclass" : "message",
					"text" : "read dishes.mov, read dozer.mov, read garbage.mov, read rain.mov",
					"linecount" : 4,
					"textcolor" : [ 0.0, 0.0, 0.0, 1.0 ],
					"numoutlets" : 1,
					"fontname" : "Arial",
					"id" : "obj-46",
					"bgcolor2" : [ 0.867, 0.867, 0.867, 1.0 ],
					"outlettype" : [ "" ],
					"background" : 0,
					"gradient" : 0,
					"bgcolor" : [ 0.867, 0.867, 0.867, 1.0 ],
					"fontface" : 0,
					"presentation_rect" : [ 0.0, 0.0, 0.0, 0.0 ],
					"fontsize" : 11.595187,
					"ignoreclick" : 0,
					"hidden" : 0,
					"patching_rect" : [ 725.0, 32.0, 112.0, 58.0 ],
					"numinlets" : 2,
					"presentation" : 0
				}

			}
, 			{
				"box" : 				{
					"maxclass" : "message",
					"text" : "dispose",
					"textcolor" : [ 0.0, 0.0, 0.0, 1.0 ],
					"numoutlets" : 1,
					"fontname" : "Arial",
					"id" : "obj-45",
					"bgcolor2" : [ 0.867, 0.867, 0.867, 1.0 ],
					"outlettype" : [ "" ],
					"background" : 0,
					"gradient" : 0,
					"bgcolor" : [ 0.867, 0.867, 0.867, 1.0 ],
					"fontface" : 0,
					"presentation_rect" : [ 0.0, 0.0, 0.0, 0.0 ],
					"fontsize" : 11.595187,
					"ignoreclick" : 0,
					"hidden" : 0,
					"patching_rect" : [ 229.0, 14.0, 50.0, 18.0 ],
					"numinlets" : 2,
					"presentation" : 0
				}

			}
, 			{
				"box" : 				{
					"maxclass" : "message",
					"text" : "rate 1.",
					"textcolor" : [ 0.0, 0.0, 0.0, 1.0 ],
					"numoutlets" : 1,
					"fontname" : "Arial",
					"id" : "obj-44",
					"bgcolor2" : [ 0.867, 0.867, 0.867, 1.0 ],
					"outlettype" : [ "" ],
					"background" : 0,
					"gradient" : 0,
					"bgcolor" : [ 0.867, 0.867, 0.867, 1.0 ],
					"fontface" : 0,
					"presentation_rect" : [ 0.0, 0.0, 0.0, 0.0 ],
					"fontsize" : 11.595187,
					"ignoreclick" : 0,
					"hidden" : 0,
					"patching_rect" : [ 280.0, 37.0, 43.0, 18.0 ],
					"numinlets" : 2,
					"presentation" : 0
				}

			}
, 			{
				"box" : 				{
					"maxclass" : "message",
					"text" : "switch rain.mov, start",
					"textcolor" : [ 0.0, 0.0, 0.0, 1.0 ],
					"numoutlets" : 1,
					"fontname" : "Arial",
					"id" : "obj-43",
					"bgcolor2" : [ 0.867, 0.867, 0.867, 1.0 ],
					"outlettype" : [ "" ],
					"background" : 0,
					"gradient" : 0,
					"bgcolor" : [ 0.867, 0.867, 0.867, 1.0 ],
					"fontface" : 0,
					"presentation_rect" : [ 0.0, 0.0, 0.0, 0.0 ],
					"fontsize" : 11.595187,
					"ignoreclick" : 0,
					"hidden" : 0,
					"patching_rect" : [ 806.0, 311.0, 117.0, 18.0 ],
					"numinlets" : 2,
					"presentation" : 0
				}

			}
, 			{
				"box" : 				{
					"maxclass" : "message",
					"text" : "switch garbage.mov, start",
					"textcolor" : [ 0.0, 0.0, 0.0, 1.0 ],
					"numoutlets" : 1,
					"fontname" : "Arial",
					"id" : "obj-42",
					"bgcolor2" : [ 0.867, 0.867, 0.867, 1.0 ],
					"outlettype" : [ "" ],
					"background" : 0,
					"gradient" : 0,
					"bgcolor" : [ 0.867, 0.867, 0.867, 1.0 ],
					"fontface" : 0,
					"presentation_rect" : [ 0.0, 0.0, 0.0, 0.0 ],
					"fontsize" : 11.595187,
					"ignoreclick" : 0,
					"hidden" : 0,
					"patching_rect" : [ 780.0, 283.0, 143.0, 18.0 ],
					"numinlets" : 2,
					"presentation" : 0
				}

			}
, 			{
				"box" : 				{
					"maxclass" : "message",
					"text" : "switch dozer.mov, start",
					"textcolor" : [ 0.0, 0.0, 0.0, 1.0 ],
					"numoutlets" : 1,
					"fontname" : "Arial",
					"id" : "obj-41",
					"bgcolor2" : [ 0.867, 0.867, 0.867, 1.0 ],
					"outlettype" : [ "" ],
					"background" : 0,
					"gradient" : 0,
					"bgcolor" : [ 0.867, 0.867, 0.867, 1.0 ],
					"fontface" : 0,
					"presentation_rect" : [ 0.0, 0.0, 0.0, 0.0 ],
					"fontsize" : 11.595187,
					"ignoreclick" : 0,
					"hidden" : 0,
					"patching_rect" : [ 754.0, 257.0, 129.0, 18.0 ],
					"numinlets" : 2,
					"presentation" : 0
				}

			}
, 			{
				"box" : 				{
					"maxclass" : "message",
					"text" : "switch dishes.mov, start",
					"textcolor" : [ 0.0, 0.0, 0.0, 1.0 ],
					"numoutlets" : 1,
					"fontname" : "Arial",
					"id" : "obj-40",
					"bgcolor2" : [ 0.867, 0.867, 0.867, 1.0 ],
					"outlettype" : [ "" ],
					"background" : 0,
					"gradient" : 0,
					"bgcolor" : [ 0.867, 0.867, 0.867, 1.0 ],
					"fontface" : 0,
					"presentation_rect" : [ 0.0, 0.0, 0.0, 0.0 ],
					"fontsize" : 11.595187,
					"ignoreclick" : 0,
					"hidden" : 0,
					"patching_rect" : [ 727.0, 231.0, 134.0, 18.0 ],
					"numinlets" : 2,
					"presentation" : 0
				}

			}
, 			{
				"box" : 				{
					"maxclass" : "button",
					"numoutlets" : 1,
					"fgcolor" : [ 1.0, 1.0, 1.0, 1.0 ],
					"id" : "obj-38",
					"outlettype" : [ "bang" ],
					"background" : 0,
					"bgcolor" : [ 0.91328, 0.91328, 0.91328, 0.75 ],
					"presentation_rect" : [ 0.0, 0.0, 0.0, 0.0 ],
					"ignoreclick" : 0,
					"outlinecolor" : [ 0.71328, 0.71328, 0.71328, 1.0 ],
					"hidden" : 0,
					"patching_rect" : [ 806.0, 197.0, 20.0, 20.0 ],
					"blinkcolor" : [ 1.0, 0.890196, 0.090196, 1.0 ],
					"numinlets" : 1,
					"presentation" : 0
				}

			}
, 			{
				"box" : 				{
					"maxclass" : "button",
					"numoutlets" : 1,
					"fgcolor" : [ 1.0, 1.0, 1.0, 1.0 ],
					"id" : "obj-37",
					"outlettype" : [ "bang" ],
					"background" : 0,
					"bgcolor" : [ 0.91328, 0.91328, 0.91328, 0.75 ],
					"presentation_rect" : [ 0.0, 0.0, 0.0, 0.0 ],
					"ignoreclick" : 0,
					"outlinecolor" : [ 0.71328, 0.71328, 0.71328, 1.0 ],
					"hidden" : 0,
					"patching_rect" : [ 780.0, 197.0, 20.0, 20.0 ],
					"blinkcolor" : [ 1.0, 0.890196, 0.090196, 1.0 ],
					"numinlets" : 1,
					"presentation" : 0
				}

			}
, 			{
				"box" : 				{
					"maxclass" : "button",
					"numoutlets" : 1,
					"fgcolor" : [ 1.0, 1.0, 1.0, 1.0 ],
					"id" : "obj-36",
					"outlettype" : [ "bang" ],
					"background" : 0,
					"bgcolor" : [ 0.91328, 0.91328, 0.91328, 0.75 ],
					"presentation_rect" : [ 0.0, 0.0, 0.0, 0.0 ],
					"ignoreclick" : 0,
					"outlinecolor" : [ 0.71328, 0.71328, 0.71328, 1.0 ],
					"hidden" : 0,
					"patching_rect" : [ 754.0, 197.0, 20.0, 20.0 ],
					"blinkcolor" : [ 1.0, 0.890196, 0.090196, 1.0 ],
					"numinlets" : 1,
					"presentation" : 0
				}

			}
, 			{
				"box" : 				{
					"maxclass" : "button",
					"numoutlets" : 1,
					"fgcolor" : [ 1.0, 1.0, 1.0, 1.0 ],
					"id" : "obj-35",
					"outlettype" : [ "bang" ],
					"background" : 0,
					"bgcolor" : [ 0.91328, 0.91328, 0.91328, 0.75 ],
					"presentation_rect" : [ 0.0, 0.0, 0.0, 0.0 ],
					"ignoreclick" : 0,
					"outlinecolor" : [ 0.71328, 0.71328, 0.71328, 1.0 ],
					"hidden" : 0,
					"patching_rect" : [ 727.0, 197.0, 20.0, 20.0 ],
					"blinkcolor" : [ 1.0, 0.890196, 0.090196, 1.0 ],
					"numinlets" : 1,
					"presentation" : 0
				}

			}
, 			{
				"box" : 				{
					"maxclass" : "newobj",
					"text" : "select 97 115 100 102",
					"textcolor" : [ 0.0, 0.0, 0.0, 1.0 ],
					"numoutlets" : 5,
					"fontname" : "Arial",
					"id" : "obj-32",
					"outlettype" : [ "bang", "bang", "bang", "bang", "" ],
					"background" : 0,
					"color" : [ 0.8, 0.84, 0.71, 1.0 ],
					"bgcolor" : [ 1.0, 1.0, 1.0, 1.0 ],
					"fontface" : 0,
					"presentation_rect" : [ 0.0, 0.0, 0.0, 0.0 ],
					"fontsize" : 11.595187,
					"ignoreclick" : 0,
					"hidden" : 0,
					"patching_rect" : [ 727.0, 163.0, 125.0, 20.0 ],
					"numinlets" : 1,
					"presentation" : 0
				}

			}
, 			{
				"box" : 				{
					"maxclass" : "number",
					"textcolor" : [ 0.0, 0.0, 0.0, 1.0 ],
					"numoutlets" : 2,
					"hbgcolor" : [ 0.0, 0.0, 0.0, 1.0 ],
					"fontname" : "Arial",
					"bordercolor" : [ 0.5, 0.5, 0.5, 1.0 ],
					"triangle" : 1,
					"minimum" : "<none>",
					"id" : "obj-29",
					"outlettype" : [ "int", "bang" ],
					"cantchange" : 0,
					"htextcolor" : [ 1.0, 1.0, 1.0, 1.0 ],
					"background" : 0,
					"mouseup" : 0,
					"maximum" : "<none>",
					"bgcolor" : [ 1.0, 1.0, 1.0, 1.0 ],
					"fontface" : 0,
					"triscale" : 1.0,
					"presentation_rect" : [ 0.0, 0.0, 0.0, 0.0 ],
					"fontsize" : 11.595187,
					"ignoreclick" : 0,
					"format" : 0,
					"hidden" : 0,
					"patching_rect" : [ 727.0, 133.0, 50.0, 20.0 ],
					"numinlets" : 1,
					"outputonclick" : 0,
					"presentation" : 0
				}

			}
, 			{
				"box" : 				{
					"maxclass" : "newobj",
					"text" : "key",
					"textcolor" : [ 0.0, 0.0, 0.0, 1.0 ],
					"numoutlets" : 3,
					"fontname" : "Arial",
					"id" : "obj-27",
					"outlettype" : [ "int", "int", "int" ],
					"background" : 0,
					"color" : [ 0.8, 0.84, 0.71, 1.0 ],
					"bgcolor" : [ 1.0, 1.0, 1.0, 1.0 ],
					"fontface" : 0,
					"presentation_rect" : [ 0.0, 0.0, 0.0, 0.0 ],
					"fontsize" : 11.595187,
					"ignoreclick" : 0,
					"hidden" : 0,
					"patching_rect" : [ 727.0, 104.0, 38.705883, 20.0 ],
					"numinlets" : 0,
					"presentation" : 0
				}

			}
, 			{
				"box" : 				{
					"maxclass" : "number",
					"textcolor" : [ 0.0, 0.0, 0.0, 1.0 ],
					"numoutlets" : 2,
					"hbgcolor" : [ 0.0, 0.0, 0.0, 1.0 ],
					"fontname" : "Arial",
					"bordercolor" : [ 0.5, 0.5, 0.5, 1.0 ],
					"triangle" : 1,
					"minimum" : "<none>",
					"id" : "obj-26",
					"outlettype" : [ "int", "bang" ],
					"cantchange" : 0,
					"htextcolor" : [ 1.0, 1.0, 1.0, 1.0 ],
					"background" : 0,
					"mouseup" : 0,
					"maximum" : "<none>",
					"bgcolor" : [ 1.0, 1.0, 1.0, 1.0 ],
					"fontface" : 0,
					"triscale" : 1.0,
					"presentation_rect" : [ 0.0, 0.0, 0.0, 0.0 ],
					"fontsize" : 11.595187,
					"ignoreclick" : 0,
					"format" : 0,
					"hidden" : 0,
					"patching_rect" : [ 527.0, 408.0, 50.0, 20.0 ],
					"numinlets" : 1,
					"outputonclick" : 0,
					"presentation" : 0
				}

			}
, 			{
				"box" : 				{
					"maxclass" : "newobj",
					"text" : "- 1",
					"textcolor" : [ 0.0, 0.0, 0.0, 1.0 ],
					"numoutlets" : 1,
					"fontname" : "Arial",
					"id" : "obj-25",
					"outlettype" : [ "int" ],
					"background" : 0,
					"color" : [ 0.8, 0.84, 0.71, 1.0 ],
					"bgcolor" : [ 1.0, 1.0, 1.0, 1.0 ],
					"fontface" : 0,
					"presentation_rect" : [ 0.0, 0.0, 0.0, 0.0 ],
					"fontsize" : 11.595187,
					"ignoreclick" : 0,
					"hidden" : 0,
					"patching_rect" : [ 589.0, 351.0, 30.470589, 20.0 ],
					"numinlets" : 2,
					"presentation" : 0
				}

			}
, 			{
				"box" : 				{
					"maxclass" : "number",
					"textcolor" : [ 0.0, 0.0, 0.0, 1.0 ],
					"numoutlets" : 2,
					"hbgcolor" : [ 0.0, 0.0, 0.0, 1.0 ],
					"fontname" : "Arial",
					"bordercolor" : [ 0.5, 0.5, 0.5, 1.0 ],
					"triangle" : 1,
					"minimum" : "<none>",
					"id" : "obj-20",
					"outlettype" : [ "int", "bang" ],
					"cantchange" : 0,
					"htextcolor" : [ 1.0, 1.0, 1.0, 1.0 ],
					"background" : 0,
					"mouseup" : 0,
					"maximum" : "<none>",
					"bgcolor" : [ 1.0, 1.0, 1.0, 1.0 ],
					"fontface" : 0,
					"triscale" : 1.0,
					"presentation_rect" : [ 0.0, 0.0, 0.0, 0.0 ],
					"fontsize" : 11.595187,
					"ignoreclick" : 0,
					"format" : 0,
					"hidden" : 0,
					"patching_rect" : [ 527.0, 326.0, 50.0, 20.0 ],
					"numinlets" : 1,
					"outputonclick" : 0,
					"presentation" : 0
				}

			}
, 			{
				"box" : 				{
					"maxclass" : "newobj",
					"text" : "scale 0 767 0 10",
					"textcolor" : [ 0.0, 0.0, 0.0, 1.0 ],
					"numoutlets" : 1,
					"fontname" : "Arial",
					"id" : "obj-21",
					"outlettype" : [ "int" ],
					"background" : 0,
					"color" : [ 0.8, 0.84, 0.71, 1.0 ],
					"bgcolor" : [ 1.0, 1.0, 1.0, 1.0 ],
					"fontface" : 0,
					"presentation_rect" : [ 0.0, 0.0, 0.0, 0.0 ],
					"fontsize" : 11.595187,
					"ignoreclick" : 0,
					"hidden" : 0,
					"patching_rect" : [ 527.0, 380.0, 96.0, 20.0 ],
					"numinlets" : 6,
					"presentation" : 0
				}

			}
, 			{
				"box" : 				{
					"maxclass" : "newobj",
					"text" : "mousestate",
					"textcolor" : [ 0.0, 0.0, 0.0, 1.0 ],
					"numoutlets" : 5,
					"fontname" : "Arial",
					"id" : "obj-22",
					"outlettype" : [ "int", "int", "int", "int", "int" ],
					"background" : 0,
					"color" : [ 0.8, 0.84, 0.71, 1.0 ],
					"bgcolor" : [ 1.0, 1.0, 1.0, 1.0 ],
					"fontface" : 0,
					"presentation_rect" : [ 0.0, 0.0, 0.0, 0.0 ],
					"fontsize" : 11.595187,
					"ignoreclick" : 0,
					"hidden" : 0,
					"patching_rect" : [ 502.0, 293.0, 70.0, 20.0 ],
					"numinlets" : 1,
					"presentation" : 0
				}

			}
, 			{
				"box" : 				{
					"maxclass" : "toggle",
					"numoutlets" : 1,
					"bordercolor" : [ 0.5, 0.5, 0.5, 1.0 ],
					"id" : "obj-23",
					"outlettype" : [ "int" ],
					"background" : 0,
					"checkedcolor" : [ 0.0, 0.0, 0.0, 1.0 ],
					"bgcolor" : [ 1.0, 1.0, 1.0, 1.0 ],
					"presentation_rect" : [ 0.0, 0.0, 0.0, 0.0 ],
					"ignoreclick" : 0,
					"hidden" : 0,
					"patching_rect" : [ 502.0, 232.0, 20.0, 20.0 ],
					"numinlets" : 1,
					"presentation" : 0
				}

			}
, 			{
				"box" : 				{
					"maxclass" : "newobj",
					"text" : "metro 33",
					"textcolor" : [ 0.0, 0.0, 0.0, 1.0 ],
					"numoutlets" : 1,
					"fontname" : "Arial",
					"id" : "obj-24",
					"outlettype" : [ "bang" ],
					"background" : 0,
					"color" : [ 0.8, 0.84, 0.71, 1.0 ],
					"bgcolor" : [ 1.0, 1.0, 1.0, 1.0 ],
					"fontface" : 0,
					"presentation_rect" : [ 0.0, 0.0, 0.0, 0.0 ],
					"fontsize" : 11.595187,
					"ignoreclick" : 0,
					"hidden" : 0,
					"patching_rect" : [ 502.0, 264.0, 56.0, 20.0 ],
					"numinlets" : 2,
					"presentation" : 0
				}

			}
, 			{
				"box" : 				{
					"maxclass" : "number",
					"textcolor" : [ 0.0, 0.0, 0.0, 1.0 ],
					"numoutlets" : 2,
					"hbgcolor" : [ 0.0, 0.0, 0.0, 1.0 ],
					"fontname" : "Arial",
					"bordercolor" : [ 0.5, 0.5, 0.5, 1.0 ],
					"triangle" : 1,
					"minimum" : "<none>",
					"id" : "obj-17",
					"outlettype" : [ "int", "bang" ],
					"cantchange" : 0,
					"htextcolor" : [ 1.0, 1.0, 1.0, 1.0 ],
					"background" : 0,
					"mouseup" : 0,
					"maximum" : "<none>",
					"bgcolor" : [ 1.0, 1.0, 1.0, 1.0 ],
					"fontface" : 0,
					"triscale" : 1.0,
					"presentation_rect" : [ 0.0, 0.0, 0.0, 0.0 ],
					"fontsize" : 11.595187,
					"ignoreclick" : 0,
					"format" : 0,
					"hidden" : 0,
					"patching_rect" : [ 19.0, 424.0, 145.0, 20.0 ],
					"numinlets" : 1,
					"outputonclick" : 0,
					"presentation" : 0
				}

			}
, 			{
				"box" : 				{
					"maxclass" : "message",
					"text" : "duration",
					"textcolor" : [ 0.0, 0.0, 0.0, 1.0 ],
					"numoutlets" : 1,
					"fontname" : "Arial",
					"id" : "obj-16",
					"bgcolor2" : [ 0.867, 0.867, 0.867, 1.0 ],
					"outlettype" : [ "" ],
					"background" : 0,
					"gradient" : 0,
					"bgcolor" : [ 0.867, 0.867, 0.867, 1.0 ],
					"fontface" : 0,
					"presentation_rect" : [ 0.0, 0.0, 0.0, 0.0 ],
					"fontsize" : 11.595187,
					"ignoreclick" : 0,
					"hidden" : 0,
					"patching_rect" : [ 329.0, 16.0, 52.0, 18.0 ],
					"numinlets" : 2,
					"presentation" : 0
				}

			}
, 			{
				"box" : 				{
					"maxclass" : "toggle",
					"numoutlets" : 1,
					"bordercolor" : [ 0.5, 0.5, 0.5, 1.0 ],
					"id" : "obj-15",
					"outlettype" : [ "int" ],
					"background" : 0,
					"checkedcolor" : [ 0.0, 0.0, 0.0, 1.0 ],
					"bgcolor" : [ 1.0, 1.0, 1.0, 1.0 ],
					"presentation_rect" : [ 0.0, 0.0, 0.0, 0.0 ],
					"ignoreclick" : 0,
					"hidden" : 0,
					"patching_rect" : [ 348.0, 40.0, 20.0, 20.0 ],
					"numinlets" : 1,
					"presentation" : 0
				}

			}
, 			{
				"box" : 				{
					"maxclass" : "message",
					"text" : "loop $1",
					"textcolor" : [ 0.0, 0.0, 0.0, 1.0 ],
					"numoutlets" : 1,
					"fontname" : "Arial",
					"id" : "obj-14",
					"bgcolor2" : [ 0.867, 0.867, 0.867, 1.0 ],
					"outlettype" : [ "" ],
					"background" : 0,
					"gradient" : 0,
					"bgcolor" : [ 0.867, 0.867, 0.867, 1.0 ],
					"fontface" : 0,
					"presentation_rect" : [ 0.0, 0.0, 0.0, 0.0 ],
					"fontsize" : 11.595187,
					"ignoreclick" : 0,
					"hidden" : 0,
					"patching_rect" : [ 348.0, 75.0, 49.0, 18.0 ],
					"numinlets" : 2,
					"presentation" : 0
				}

			}
, 			{
				"box" : 				{
					"maxclass" : "message",
					"text" : "rate $1",
					"textcolor" : [ 0.0, 0.0, 0.0, 1.0 ],
					"numoutlets" : 1,
					"fontname" : "Arial",
					"id" : "obj-13",
					"bgcolor2" : [ 0.867, 0.867, 0.867, 1.0 ],
					"outlettype" : [ "" ],
					"background" : 0,
					"gradient" : 0,
					"bgcolor" : [ 0.867, 0.867, 0.867, 1.0 ],
					"fontface" : 0,
					"presentation_rect" : [ 0.0, 0.0, 0.0, 0.0 ],
					"fontsize" : 11.595187,
					"ignoreclick" : 0,
					"hidden" : 0,
					"patching_rect" : [ 504.0, 189.0, 47.0, 18.0 ],
					"numinlets" : 2,
					"presentation" : 0
				}

			}
, 			{
				"box" : 				{
					"maxclass" : "flonum",
					"textcolor" : [ 0.0, 0.0, 0.0, 1.0 ],
					"numoutlets" : 2,
					"hbgcolor" : [ 0.0, 0.0, 0.0, 1.0 ],
					"fontname" : "Arial",
					"bordercolor" : [ 0.5, 0.5, 0.5, 1.0 ],
					"triangle" : 1,
					"minimum" : "<none>",
					"id" : "obj-12",
					"outlettype" : [ "float", "bang" ],
					"cantchange" : 0,
					"htextcolor" : [ 1.0, 1.0, 1.0, 1.0 ],
					"background" : 0,
					"mouseup" : 0,
					"maximum" : "<none>",
					"bgcolor" : [ 1.0, 1.0, 1.0, 1.0 ],
					"fontface" : 0,
					"triscale" : 1.0,
					"presentation_rect" : [ 0.0, 0.0, 0.0, 0.0 ],
					"fontsize" : 11.595187,
					"ignoreclick" : 0,
					"numdecimalplaces" : 0,
					"hidden" : 0,
					"patching_rect" : [ 504.0, 160.0, 50.0, 20.0 ],
					"numinlets" : 1,
					"outputonclick" : 0,
					"presentation" : 0
				}

			}
, 			{
				"box" : 				{
					"maxclass" : "number",
					"textcolor" : [ 0.0, 0.0, 0.0, 1.0 ],
					"numoutlets" : 2,
					"hbgcolor" : [ 0.0, 0.0, 0.0, 1.0 ],
					"fontname" : "Arial",
					"bordercolor" : [ 0.5, 0.5, 0.5, 1.0 ],
					"triangle" : 1,
					"minimum" : "<none>",
					"id" : "obj-11",
					"outlettype" : [ "int", "bang" ],
					"cantchange" : 0,
					"htextcolor" : [ 1.0, 1.0, 1.0, 1.0 ],
					"background" : 0,
					"mouseup" : 0,
					"maximum" : "<none>",
					"bgcolor" : [ 1.0, 1.0, 1.0, 1.0 ],
					"fontface" : 0,
					"triscale" : 1.0,
					"presentation_rect" : [ 0.0, 0.0, 0.0, 0.0 ],
					"fontsize" : 11.595187,
					"ignoreclick" : 0,
					"format" : 0,
					"hidden" : 0,
					"patching_rect" : [ 504.0, 104.0, 50.0, 20.0 ],
					"numinlets" : 1,
					"outputonclick" : 0,
					"presentation" : 0
				}

			}
, 			{
				"box" : 				{
					"maxclass" : "newobj",
					"text" : "scale 0 1023 -2. 2.",
					"textcolor" : [ 0.0, 0.0, 0.0, 1.0 ],
					"numoutlets" : 1,
					"fontname" : "Arial",
					"id" : "obj-10",
					"outlettype" : [ "float" ],
					"background" : 0,
					"color" : [ 0.8, 0.84, 0.71, 1.0 ],
					"bgcolor" : [ 1.0, 1.0, 1.0, 1.0 ],
					"fontface" : 0,
					"presentation_rect" : [ 0.0, 0.0, 0.0, 0.0 ],
					"fontsize" : 11.595187,
					"ignoreclick" : 0,
					"hidden" : 0,
					"patching_rect" : [ 504.0, 132.0, 106.0, 20.0 ],
					"numinlets" : 6,
					"presentation" : 0
				}

			}
, 			{
				"box" : 				{
					"maxclass" : "newobj",
					"text" : "mousestate",
					"textcolor" : [ 0.0, 0.0, 0.0, 1.0 ],
					"numoutlets" : 5,
					"fontname" : "Arial",
					"id" : "obj-8",
					"outlettype" : [ "int", "int", "int", "int", "int" ],
					"background" : 0,
					"color" : [ 0.8, 0.84, 0.71, 1.0 ],
					"bgcolor" : [ 1.0, 1.0, 1.0, 1.0 ],
					"fontface" : 0,
					"presentation_rect" : [ 0.0, 0.0, 0.0, 0.0 ],
					"fontsize" : 11.595187,
					"ignoreclick" : 0,
					"hidden" : 0,
					"patching_rect" : [ 491.0, 77.0, 70.0, 20.0 ],
					"numinlets" : 1,
					"presentation" : 0
				}

			}
, 			{
				"box" : 				{
					"maxclass" : "toggle",
					"numoutlets" : 1,
					"bordercolor" : [ 0.5, 0.5, 0.5, 1.0 ],
					"id" : "obj-7",
					"outlettype" : [ "int" ],
					"background" : 0,
					"checkedcolor" : [ 0.0, 0.0, 0.0, 1.0 ],
					"bgcolor" : [ 1.0, 1.0, 1.0, 1.0 ],
					"presentation_rect" : [ 0.0, 0.0, 0.0, 0.0 ],
					"ignoreclick" : 0,
					"hidden" : 0,
					"patching_rect" : [ 491.0, 16.0, 20.0, 20.0 ],
					"numinlets" : 1,
					"presentation" : 0
				}

			}
, 			{
				"box" : 				{
					"maxclass" : "newobj",
					"text" : "metro 33",
					"textcolor" : [ 0.0, 0.0, 0.0, 1.0 ],
					"numoutlets" : 1,
					"fontname" : "Arial",
					"id" : "obj-6",
					"outlettype" : [ "bang" ],
					"background" : 0,
					"color" : [ 0.8, 0.84, 0.71, 1.0 ],
					"bgcolor" : [ 1.0, 1.0, 1.0, 1.0 ],
					"fontface" : 0,
					"presentation_rect" : [ 0.0, 0.0, 0.0, 0.0 ],
					"fontsize" : 11.595187,
					"ignoreclick" : 0,
					"hidden" : 0,
					"patching_rect" : [ 491.0, 48.0, 56.0, 20.0 ],
					"numinlets" : 2,
					"presentation" : 0
				}

			}
, 			{
				"box" : 				{
					"maxclass" : "message",
					"text" : "stop",
					"textcolor" : [ 0.0, 0.0, 0.0, 1.0 ],
					"numoutlets" : 1,
					"fontname" : "Arial",
					"id" : "obj-5",
					"bgcolor2" : [ 0.867, 0.867, 0.867, 1.0 ],
					"outlettype" : [ "" ],
					"background" : 0,
					"gradient" : 0,
					"bgcolor" : [ 0.867, 0.867, 0.867, 1.0 ],
					"fontface" : 0,
					"presentation_rect" : [ 0.0, 0.0, 0.0, 0.0 ],
					"fontsize" : 11.595187,
					"ignoreclick" : 0,
					"hidden" : 0,
					"patching_rect" : [ 192.0, 14.0, 32.0, 18.0 ],
					"numinlets" : 2,
					"presentation" : 0
				}

			}
, 			{
				"box" : 				{
					"maxclass" : "message",
					"text" : "start",
					"textcolor" : [ 0.0, 0.0, 0.0, 1.0 ],
					"numoutlets" : 1,
					"fontname" : "Arial",
					"id" : "obj-4",
					"bgcolor2" : [ 0.867, 0.867, 0.867, 1.0 ],
					"outlettype" : [ "" ],
					"background" : 0,
					"gradient" : 0,
					"bgcolor" : [ 0.867, 0.867, 0.867, 1.0 ],
					"fontface" : 0,
					"presentation_rect" : [ 0.0, 0.0, 0.0, 0.0 ],
					"fontsize" : 11.595187,
					"ignoreclick" : 0,
					"hidden" : 0,
					"patching_rect" : [ 155.0, 14.0, 33.0, 18.0 ],
					"numinlets" : 2,
					"presentation" : 0
				}

			}
, 			{
				"box" : 				{
					"maxclass" : "message",
					"text" : "read countdown15.mov",
					"textcolor" : [ 0.0, 0.0, 0.0, 1.0 ],
					"numoutlets" : 1,
					"fontname" : "Arial",
					"id" : "obj-2",
					"bgcolor2" : [ 0.867, 0.867, 0.867, 1.0 ],
					"outlettype" : [ "" ],
					"background" : 0,
					"gradient" : 0,
					"bgcolor" : [ 0.867, 0.867, 0.867, 1.0 ],
					"fontface" : 0,
					"presentation_rect" : [ 0.0, 0.0, 0.0, 0.0 ],
					"fontsize" : 11.595187,
					"ignoreclick" : 0,
					"hidden" : 0,
					"patching_rect" : [ 19.0, 14.0, 132.0, 18.0 ],
					"numinlets" : 2,
					"presentation" : 0
				}

			}
, 			{
				"box" : 				{
					"maxclass" : "imovie",
					"border" : 1,
					"numoutlets" : 3,
					"id" : "obj-1",
					"outlettype" : [ "int", "int", "int" ],
					"autofit" : 0,
					"name" : "countdown15.mov",
					"background" : 0,
					"presentation_rect" : [ 0.0, 0.0, 0.0, 0.0 ],
					"ignoreclick" : 0,
					"hidden" : 0,
					"patching_rect" : [ 19.0, 167.0, 320.0, 240.0 ],
					"numinlets" : 1,
					"presentation" : 0,
					"films" : [  ]
				}

			}
 ],
		"lines" : [ 			{
				"patchline" : 				{
					"source" : [ "obj-29", 0 ],
					"destination" : [ "obj-32", 0 ],
					"hidden" : 0,
					"color" : [ 0.0, 0.0, 0.0, 1.0 ],
					"midpoints" : [  ]
				}

			}
, 			{
				"patchline" : 				{
					"source" : [ "obj-32", 0 ],
					"destination" : [ "obj-35", 0 ],
					"hidden" : 0,
					"color" : [ 0.0, 0.0, 0.0, 1.0 ],
					"midpoints" : [  ]
				}

			}
, 			{
				"patchline" : 				{
					"source" : [ "obj-32", 1 ],
					"destination" : [ "obj-36", 0 ],
					"hidden" : 0,
					"color" : [ 0.0, 0.0, 0.0, 1.0 ],
					"midpoints" : [  ]
				}

			}
, 			{
				"patchline" : 				{
					"source" : [ "obj-32", 2 ],
					"destination" : [ "obj-37", 0 ],
					"hidden" : 0,
					"color" : [ 0.0, 0.0, 0.0, 1.0 ],
					"midpoints" : [  ]
				}

			}
, 			{
				"patchline" : 				{
					"source" : [ "obj-32", 3 ],
					"destination" : [ "obj-38", 0 ],
					"hidden" : 0,
					"color" : [ 0.0, 0.0, 0.0, 1.0 ],
					"midpoints" : [  ]
				}

			}
, 			{
				"patchline" : 				{
					"source" : [ "obj-43", 0 ],
					"destination" : [ "obj-1", 0 ],
					"hidden" : 0,
					"color" : [ 0.0, 0.0, 0.0, 1.0 ],
					"midpoints" : [ 815.5, 335.0, 625.0, 335.0, 625.0, 325.0, 585.0, 325.0, 585.0, 300.0, 580.0, 300.0, 580.0, 265.0, 565.0, 265.0, 565.0, 226.0, 462.0, 226.0, 462.0, 245.0, 345.0, 245.0, 345.0, 155.0, 28.5, 155.0 ]
				}

			}
, 			{
				"patchline" : 				{
					"source" : [ "obj-42", 0 ],
					"destination" : [ "obj-1", 0 ],
					"hidden" : 0,
					"color" : [ 0.0, 0.0, 0.0, 1.0 ],
					"midpoints" : [ 789.5, 310.0, 585.0, 310.0, 585.0, 300.0, 580.0, 300.0, 580.0, 265.0, 565.0, 265.0, 565.0, 226.0, 462.0, 226.0, 462.0, 245.0, 345.0, 245.0, 345.0, 155.0, 28.5, 155.0 ]
				}

			}
, 			{
				"patchline" : 				{
					"source" : [ "obj-41", 0 ],
					"destination" : [ "obj-1", 0 ],
					"hidden" : 0,
					"color" : [ 0.0, 0.0, 0.0, 1.0 ],
					"midpoints" : [ 763.5, 280.0, 580.0, 280.0, 580.0, 265.0, 565.0, 265.0, 565.0, 226.0, 462.0, 226.0, 462.0, 245.0, 345.0, 245.0, 345.0, 155.0, 28.5, 155.0 ]
				}

			}
, 			{
				"patchline" : 				{
					"source" : [ "obj-40", 0 ],
					"destination" : [ "obj-1", 0 ],
					"hidden" : 0,
					"color" : [ 0.0, 0.0, 0.0, 1.0 ],
					"midpoints" : [ 736.5, 255.0, 565.0, 255.0, 565.0, 226.0, 462.0, 226.0, 462.0, 245.0, 345.0, 245.0, 345.0, 155.0, 28.5, 155.0 ]
				}

			}
, 			{
				"patchline" : 				{
					"source" : [ "obj-46", 0 ],
					"destination" : [ "obj-1", 0 ],
					"hidden" : 0,
					"color" : [ 0.0, 0.0, 0.0, 1.0 ],
					"midpoints" : [ 734.5, 96.0, 571.0, 96.0, 571.0, 13.0, 458.0, 13.0, 458.0, 141.0, 28.5, 141.0 ]
				}

			}
, 			{
				"patchline" : 				{
					"source" : [ "obj-19", 0 ],
					"destination" : [ "obj-1", 0 ],
					"hidden" : 0,
					"color" : [ 0.0, 0.0, 0.0, 1.0 ],
					"midpoints" : [ 289.5, 125.0, 28.5, 125.0 ]
				}

			}
, 			{
				"patchline" : 				{
					"source" : [ "obj-18", 0 ],
					"destination" : [ "obj-1", 0 ],
					"hidden" : 0,
					"color" : [ 0.0, 0.0, 0.0, 1.0 ],
					"midpoints" : [ 28.5, 95.0 ]
				}

			}
, 			{
				"patchline" : 				{
					"source" : [ "obj-9", 0 ],
					"destination" : [ "obj-1", 0 ],
					"hidden" : 0,
					"color" : [ 0.0, 0.0, 0.0, 1.0 ],
					"midpoints" : [ 28.5, 75.0 ]
				}

			}
, 			{
				"patchline" : 				{
					"source" : [ "obj-28", 0 ],
					"destination" : [ "obj-1", 0 ],
					"hidden" : 0,
					"color" : [ 0.0, 0.0, 0.0, 1.0 ],
					"midpoints" : [ 289.5, 30.0, 275.0, 30.0, 275.0, 35.0, 275.0, 40.0, 28.5, 40.0 ]
				}

			}
, 			{
				"patchline" : 				{
					"source" : [ "obj-50", 0 ],
					"destination" : [ "obj-21", 0 ],
					"hidden" : 0,
					"color" : [ 0.0, 0.0, 0.0, 1.0 ],
					"midpoints" : [  ]
				}

			}
, 			{
				"patchline" : 				{
					"source" : [ "obj-20", 0 ],
					"destination" : [ "obj-50", 0 ],
					"hidden" : 0,
					"color" : [ 0.0, 0.0, 0.0, 1.0 ],
					"midpoints" : [  ]
				}

			}
, 			{
				"patchline" : 				{
					"source" : [ "obj-45", 0 ],
					"destination" : [ "obj-1", 0 ],
					"hidden" : 0,
					"color" : [ 0.0, 0.0, 0.0, 1.0 ],
					"midpoints" : [ 238.5, 40.0, 28.5, 40.0 ]
				}

			}
, 			{
				"patchline" : 				{
					"source" : [ "obj-2", 0 ],
					"destination" : [ "obj-1", 0 ],
					"hidden" : 0,
					"color" : [ 0.0, 0.0, 0.0, 1.0 ],
					"midpoints" : [  ]
				}

			}
, 			{
				"patchline" : 				{
					"source" : [ "obj-4", 0 ],
					"destination" : [ "obj-1", 0 ],
					"hidden" : 0,
					"color" : [ 0.0, 0.0, 0.0, 1.0 ],
					"midpoints" : [ 164.5, 40.0, 28.5, 40.0 ]
				}

			}
, 			{
				"patchline" : 				{
					"source" : [ "obj-5", 0 ],
					"destination" : [ "obj-1", 0 ],
					"hidden" : 0,
					"color" : [ 0.0, 0.0, 0.0, 1.0 ],
					"midpoints" : [ 201.5, 40.0, 28.5, 40.0 ]
				}

			}
, 			{
				"patchline" : 				{
					"source" : [ "obj-13", 0 ],
					"destination" : [ "obj-1", 0 ],
					"hidden" : 0,
					"color" : [ 0.0, 0.0, 0.0, 1.0 ],
					"midpoints" : [ 513.5, 210.0, 490.0, 210.0, 490.0, 205.0, 345.0, 205.0, 345.0, 155.0, 28.5, 155.0 ]
				}

			}
, 			{
				"patchline" : 				{
					"source" : [ "obj-14", 0 ],
					"destination" : [ "obj-1", 0 ],
					"hidden" : 0,
					"color" : [ 0.0, 0.0, 0.0, 1.0 ],
					"midpoints" : [ 357.5, 100.0, 335.0, 100.0, 335.0, 125.0, 28.5, 125.0 ]
				}

			}
, 			{
				"patchline" : 				{
					"source" : [ "obj-16", 0 ],
					"destination" : [ "obj-1", 0 ],
					"hidden" : 0,
					"color" : [ 0.0, 0.0, 0.0, 1.0 ],
					"midpoints" : [ 338.5, 125.0, 28.5, 125.0 ]
				}

			}
, 			{
				"patchline" : 				{
					"source" : [ "obj-1", 0 ],
					"destination" : [ "obj-17", 0 ],
					"hidden" : 0,
					"color" : [ 0.0, 0.0, 0.0, 1.0 ],
					"midpoints" : [  ]
				}

			}
, 			{
				"patchline" : 				{
					"source" : [ "obj-26", 0 ],
					"destination" : [ "obj-1", 0 ],
					"hidden" : 0,
					"color" : [ 0.0, 0.0, 0.0, 1.0 ],
					"midpoints" : [ 536.5, 435.0, 345.0, 435.0, 345.0, 155.0, 28.5, 155.0 ]
				}

			}
, 			{
				"patchline" : 				{
					"source" : [ "obj-44", 0 ],
					"destination" : [ "obj-1", 0 ],
					"hidden" : 0,
					"color" : [ 0.0, 0.0, 0.0, 1.0 ],
					"midpoints" : [ 28.5, 55.0 ]
				}

			}
, 			{
				"patchline" : 				{
					"source" : [ "obj-38", 0 ],
					"destination" : [ "obj-43", 0 ],
					"hidden" : 0,
					"color" : [ 0.0, 0.0, 0.0, 1.0 ],
					"midpoints" : [  ]
				}

			}
, 			{
				"patchline" : 				{
					"source" : [ "obj-37", 0 ],
					"destination" : [ "obj-42", 0 ],
					"hidden" : 0,
					"color" : [ 0.0, 0.0, 0.0, 1.0 ],
					"midpoints" : [  ]
				}

			}
, 			{
				"patchline" : 				{
					"source" : [ "obj-36", 0 ],
					"destination" : [ "obj-41", 0 ],
					"hidden" : 0,
					"color" : [ 0.0, 0.0, 0.0, 1.0 ],
					"midpoints" : [  ]
				}

			}
, 			{
				"patchline" : 				{
					"source" : [ "obj-35", 0 ],
					"destination" : [ "obj-40", 0 ],
					"hidden" : 0,
					"color" : [ 0.0, 0.0, 0.0, 1.0 ],
					"midpoints" : [  ]
				}

			}
, 			{
				"patchline" : 				{
					"source" : [ "obj-27", 0 ],
					"destination" : [ "obj-29", 0 ],
					"hidden" : 0,
					"color" : [ 0.0, 0.0, 0.0, 1.0 ],
					"midpoints" : [  ]
				}

			}
, 			{
				"patchline" : 				{
					"source" : [ "obj-25", 0 ],
					"destination" : [ "obj-21", 4 ],
					"hidden" : 0,
					"color" : [ 0.0, 0.0, 0.0, 1.0 ],
					"midpoints" : [  ]
				}

			}
, 			{
				"patchline" : 				{
					"source" : [ "obj-21", 0 ],
					"destination" : [ "obj-26", 0 ],
					"hidden" : 0,
					"color" : [ 0.0, 0.0, 0.0, 1.0 ],
					"midpoints" : [  ]
				}

			}
, 			{
				"patchline" : 				{
					"source" : [ "obj-11", 0 ],
					"destination" : [ "obj-10", 0 ],
					"hidden" : 0,
					"color" : [ 0.0, 0.0, 0.0, 1.0 ],
					"midpoints" : [  ]
				}

			}
, 			{
				"patchline" : 				{
					"source" : [ "obj-10", 0 ],
					"destination" : [ "obj-12", 0 ],
					"hidden" : 0,
					"color" : [ 0.0, 0.0, 0.0, 1.0 ],
					"midpoints" : [  ]
				}

			}
, 			{
				"patchline" : 				{
					"source" : [ "obj-17", 0 ],
					"destination" : [ "obj-25", 0 ],
					"hidden" : 0,
					"color" : [ 0.0, 0.0, 0.0, 1.0 ],
					"midpoints" : [ 28.5, 450.0, 595.0, 450.0, 595.0, 405.0, 630.0, 405.0, 630.0, 355.0, 625.0, 355.0, 625.0, 344.0, 598.5, 344.0 ]
				}

			}
, 			{
				"patchline" : 				{
					"source" : [ "obj-22", 2 ],
					"destination" : [ "obj-20", 0 ],
					"hidden" : 0,
					"color" : [ 0.0, 0.0, 0.0, 1.0 ],
					"midpoints" : [  ]
				}

			}
, 			{
				"patchline" : 				{
					"source" : [ "obj-23", 0 ],
					"destination" : [ "obj-24", 0 ],
					"hidden" : 0,
					"color" : [ 0.0, 0.0, 0.0, 1.0 ],
					"midpoints" : [  ]
				}

			}
, 			{
				"patchline" : 				{
					"source" : [ "obj-24", 0 ],
					"destination" : [ "obj-22", 0 ],
					"hidden" : 0,
					"color" : [ 0.0, 0.0, 0.0, 1.0 ],
					"midpoints" : [  ]
				}

			}
, 			{
				"patchline" : 				{
					"source" : [ "obj-15", 0 ],
					"destination" : [ "obj-14", 0 ],
					"hidden" : 0,
					"color" : [ 0.0, 0.0, 0.0, 1.0 ],
					"midpoints" : [  ]
				}

			}
, 			{
				"patchline" : 				{
					"source" : [ "obj-12", 0 ],
					"destination" : [ "obj-13", 0 ],
					"hidden" : 0,
					"color" : [ 0.0, 0.0, 0.0, 1.0 ],
					"midpoints" : [  ]
				}

			}
, 			{
				"patchline" : 				{
					"source" : [ "obj-8", 1 ],
					"destination" : [ "obj-11", 0 ],
					"hidden" : 0,
					"color" : [ 0.0, 0.0, 0.0, 1.0 ],
					"midpoints" : [  ]
				}

			}
, 			{
				"patchline" : 				{
					"source" : [ "obj-6", 0 ],
					"destination" : [ "obj-8", 0 ],
					"hidden" : 0,
					"color" : [ 0.0, 0.0, 0.0, 1.0 ],
					"midpoints" : [  ]
				}

			}
, 			{
				"patchline" : 				{
					"source" : [ "obj-7", 0 ],
					"destination" : [ "obj-6", 0 ],
					"hidden" : 0,
					"color" : [ 0.0, 0.0, 0.0, 1.0 ],
					"midpoints" : [  ]
				}

			}
 ]
	}

}
