{
	"patcher" : 	{
		"fileversion" : 1,
		"rect" : [ 0.0, 44.0, 995.0, 619.0 ],
		"bgcolor" : [ 1.0, 1.0, 1.0, 1.0 ],
		"bglocked" : 0,
		"defrect" : [ 0.0, 44.0, 995.0, 619.0 ],
		"openrect" : [ 0.0, 0.0, 0.0, 0.0 ],
		"openinpresentation" : 0,
		"default_fontsize" : 10.0,
		"default_fontface" : 0,
		"default_fontname" : "Arial",
		"gridonopen" : 0,
		"gridsize" : [ 15.0, 15.0 ],
		"gridsnaponopen" : 0,
		"toolbarvisible" : 1,
		"boxanimatetime" : 200,
		"imprint" : 1,
		"metadata" : [  ],
		"boxes" : [ 			{
				"box" : 				{
					"maxclass" : "comment",
					"text" : "clock",
					"fontsize" : 11.595187,
					"numinlets" : 1,
					"background" : 0,
					"numoutlets" : 0,
					"presentation_rect" : [ 0.0, 0.0, 0.0, 0.0 ],
					"ignoreclick" : 1,
					"bgcolor" : [ 1.0, 1.0, 1.0, 0.0 ],
					"hidden" : 0,
					"fontname" : "Arial",
					"patching_rect" : [ 176.0, 462.0, 37.0, 20.0 ],
					"frgb" : [ 0.0, 0.0, 0.0, 1.0 ],
					"presentation" : 0,
					"id" : "obj-77",
					"underline" : 0,
					"textcolor" : [ 0.0, 0.0, 0.0, 1.0 ],
					"fontface" : 0
				}

			}
, 			{
				"box" : 				{
					"maxclass" : "comment",
					"text" : "generate coefficients",
					"fontsize" : 11.595187,
					"numinlets" : 1,
					"background" : 0,
					"numoutlets" : 0,
					"presentation_rect" : [ 0.0, 0.0, 0.0, 0.0 ],
					"ignoreclick" : 1,
					"bgcolor" : [ 1.0, 1.0, 1.0, 0.0 ],
					"hidden" : 0,
					"fontname" : "Arial",
					"patching_rect" : [ 44.0, 68.0, 118.0, 20.0 ],
					"frgb" : [ 0.0, 0.0, 0.0, 1.0 ],
					"presentation" : 0,
					"id" : "obj-76",
					"underline" : 0,
					"textcolor" : [ 0.0, 0.0, 0.0, 1.0 ],
					"fontface" : 0
				}

			}
, 			{
				"box" : 				{
					"maxclass" : "newobj",
					"text" : "s lcd",
					"fontsize" : 11.595187,
					"numinlets" : 1,
					"background" : 0,
					"color" : [ 0.8, 0.84, 0.71, 1.0 ],
					"numoutlets" : 0,
					"presentation_rect" : [ 0.0, 0.0, 0.0, 0.0 ],
					"ignoreclick" : 0,
					"bgcolor" : [ 1.0, 1.0, 1.0, 1.0 ],
					"hidden" : 0,
					"fontname" : "Arial",
					"patching_rect" : [ 190.0, 558.0, 34.0, 20.0 ],
					"presentation" : 0,
					"id" : "obj-64",
					"textcolor" : [ 0.0, 0.0, 0.0, 1.0 ],
					"fontface" : 0
				}

			}
, 			{
				"box" : 				{
					"maxclass" : "newobj",
					"text" : "p changecolor",
					"fontsize" : 11.595187,
					"numinlets" : 1,
					"background" : 0,
					"color" : [ 0.686275, 0.14902, 0.14902, 1.0 ],
					"numoutlets" : 1,
					"presentation_rect" : [ 0.0, 0.0, 0.0, 0.0 ],
					"ignoreclick" : 0,
					"outlettype" : [ "" ],
					"bgcolor" : [ 1.0, 1.0, 1.0, 1.0 ],
					"hidden" : 0,
					"fontname" : "Arial",
					"patching_rect" : [ 190.0, 527.0, 83.0, 20.0 ],
					"presentation" : 0,
					"id" : "obj-4",
					"textcolor" : [ 0.0, 0.0, 0.0, 1.0 ],
					"fontface" : 0,
					"patcher" : 					{
						"fileversion" : 1,
						"rect" : [ 25.0, 47.0, 465.0, 310.0 ],
						"bglocked" : 0,
						"defrect" : [ 25.0, 47.0, 465.0, 310.0 ],
						"openrect" : [ 0.0, 0.0, 0.0, 0.0 ],
						"openinpresentation" : 0,
						"default_fontsize" : 10.0,
						"default_fontface" : 0,
						"default_fontname" : "Arial",
						"gridonopen" : 0,
						"gridsize" : [ 15.0, 15.0 ],
						"gridsnaponopen" : 0,
						"toolbarvisible" : 1,
						"boxanimatetime" : 200,
						"imprint" : 0,
						"metadata" : [  ],
						"boxes" : [ 							{
								"box" : 								{
									"maxclass" : "comment",
									"text" : "<- make changes here",
									"fontsize" : 11.595187,
									"numinlets" : 1,
									"numoutlets" : 0,
									"fontname" : "Arial",
									"patching_rect" : [ 305.0, 142.0, 126.0, 20.0 ],
									"id" : "obj-14"
								}

							}
, 							{
								"box" : 								{
									"maxclass" : "newobj",
									"text" : "prepend frgb",
									"fontsize" : 11.595187,
									"numinlets" : 1,
									"numoutlets" : 1,
									"outlettype" : [ "" ],
									"fontname" : "Arial",
									"patching_rect" : [ 69.0, 201.0, 76.0, 20.0 ],
									"id" : "obj-8"
								}

							}
, 							{
								"box" : 								{
									"maxclass" : "newobj",
									"text" : "pack 0 0 0",
									"fontsize" : 11.595187,
									"numinlets" : 3,
									"numoutlets" : 1,
									"outlettype" : [ "" ],
									"fontname" : "Arial",
									"patching_rect" : [ 69.0, 172.0, 175.0, 20.0 ],
									"id" : "obj-7"
								}

							}
, 							{
								"box" : 								{
									"maxclass" : "newobj",
									"text" : "drunk 128 -5",
									"fontsize" : 11.595187,
									"numinlets" : 3,
									"numoutlets" : 1,
									"outlettype" : [ "int" ],
									"fontname" : "Arial",
									"patching_rect" : [ 225.0, 120.0, 76.0, 20.0 ],
									"id" : "obj-6"
								}

							}
, 							{
								"box" : 								{
									"maxclass" : "newobj",
									"text" : "drunk 128 -5",
									"fontsize" : 11.595187,
									"numinlets" : 3,
									"numoutlets" : 1,
									"outlettype" : [ "int" ],
									"fontname" : "Arial",
									"patching_rect" : [ 147.0, 120.0, 76.0, 20.0 ],
									"id" : "obj-4"
								}

							}
, 							{
								"box" : 								{
									"maxclass" : "newobj",
									"text" : "drunk 128 -5",
									"fontsize" : 11.595187,
									"numinlets" : 3,
									"numoutlets" : 1,
									"outlettype" : [ "int" ],
									"fontname" : "Arial",
									"patching_rect" : [ 69.0, 120.0, 76.0, 20.0 ],
									"id" : "obj-3"
								}

							}
, 							{
								"box" : 								{
									"maxclass" : "outlet",
									"numinlets" : 1,
									"numoutlets" : 0,
									"patching_rect" : [ 69.0, 250.0, 25.0, 25.0 ],
									"id" : "obj-2",
									"comment" : ""
								}

							}
, 							{
								"box" : 								{
									"maxclass" : "inlet",
									"numinlets" : 0,
									"numoutlets" : 1,
									"outlettype" : [ "bang" ],
									"patching_rect" : [ 69.0, 52.0, 25.0, 25.0 ],
									"id" : "obj-1",
									"comment" : ""
								}

							}
 ],
						"lines" : [ 							{
								"patchline" : 								{
									"source" : [ "obj-3", 0 ],
									"destination" : [ "obj-7", 0 ],
									"hidden" : 0,
									"midpoints" : [  ]
								}

							}
, 							{
								"patchline" : 								{
									"source" : [ "obj-4", 0 ],
									"destination" : [ "obj-7", 1 ],
									"hidden" : 0,
									"midpoints" : [  ]
								}

							}
, 							{
								"patchline" : 								{
									"source" : [ "obj-6", 0 ],
									"destination" : [ "obj-7", 2 ],
									"hidden" : 0,
									"midpoints" : [  ]
								}

							}
, 							{
								"patchline" : 								{
									"source" : [ "obj-7", 0 ],
									"destination" : [ "obj-8", 0 ],
									"hidden" : 0,
									"midpoints" : [  ]
								}

							}
, 							{
								"patchline" : 								{
									"source" : [ "obj-8", 0 ],
									"destination" : [ "obj-2", 0 ],
									"hidden" : 0,
									"midpoints" : [  ]
								}

							}
, 							{
								"patchline" : 								{
									"source" : [ "obj-1", 0 ],
									"destination" : [ "obj-3", 0 ],
									"hidden" : 0,
									"midpoints" : [  ]
								}

							}
, 							{
								"patchline" : 								{
									"source" : [ "obj-1", 0 ],
									"destination" : [ "obj-4", 0 ],
									"hidden" : 0,
									"midpoints" : [ 78.5, 105.0, 156.5, 105.0 ]
								}

							}
, 							{
								"patchline" : 								{
									"source" : [ "obj-1", 0 ],
									"destination" : [ "obj-6", 0 ],
									"hidden" : 0,
									"midpoints" : [ 78.5, 105.0, 234.5, 105.0 ]
								}

							}
 ]
					}
,
					"saved_object_attributes" : 					{
						"fontsize" : 10.0,
						"globalpatchername" : "",
						"default_fontface" : 0,
						"default_fontname" : "Arial",
						"fontname" : "Arial",
						"default_fontsize" : 10.0,
						"fontface" : 0
					}

				}

			}
, 			{
				"box" : 				{
					"maxclass" : "comment",
					"text" : "on/off",
					"fontsize" : 11.595187,
					"numinlets" : 1,
					"background" : 0,
					"numoutlets" : 0,
					"presentation_rect" : [ 0.0, 0.0, 0.0, 0.0 ],
					"ignoreclick" : 1,
					"bgcolor" : [ 1.0, 1.0, 1.0, 0.0 ],
					"hidden" : 0,
					"fontname" : "Arial",
					"patching_rect" : [ 76.0, 448.0, 40.0, 20.0 ],
					"frgb" : [ 0.0, 0.0, 0.0, 1.0 ],
					"presentation" : 0,
					"id" : "obj-75",
					"underline" : 0,
					"textcolor" : [ 0.0, 0.0, 0.0, 1.0 ],
					"fontface" : 0
				}

			}
, 			{
				"box" : 				{
					"maxclass" : "newobj",
					"text" : "r draw",
					"fontsize" : 11.595187,
					"numinlets" : 0,
					"background" : 0,
					"color" : [ 0.8, 0.84, 0.71, 1.0 ],
					"numoutlets" : 1,
					"presentation_rect" : [ 0.0, 0.0, 0.0, 0.0 ],
					"ignoreclick" : 0,
					"outlettype" : [ "" ],
					"bgcolor" : [ 1.0, 1.0, 1.0, 1.0 ],
					"hidden" : 0,
					"fontname" : "Arial",
					"patching_rect" : [ 700.0, 9.0, 43.0, 20.0 ],
					"presentation" : 0,
					"id" : "obj-74",
					"textcolor" : [ 0.0, 0.0, 0.0, 1.0 ],
					"fontface" : 0
				}

			}
, 			{
				"box" : 				{
					"maxclass" : "newobj",
					"text" : "s draw",
					"fontsize" : 11.595187,
					"numinlets" : 1,
					"background" : 0,
					"color" : [ 0.8, 0.84, 0.71, 1.0 ],
					"numoutlets" : 0,
					"presentation_rect" : [ 0.0, 0.0, 0.0, 0.0 ],
					"ignoreclick" : 0,
					"bgcolor" : [ 1.0, 1.0, 1.0, 1.0 ],
					"hidden" : 0,
					"fontname" : "Arial",
					"patching_rect" : [ 53.0, 527.0, 45.0, 20.0 ],
					"presentation" : 0,
					"id" : "obj-73",
					"textcolor" : [ 0.0, 0.0, 0.0, 1.0 ],
					"fontface" : 0
				}

			}
, 			{
				"box" : 				{
					"maxclass" : "newobj",
					"text" : "s compute",
					"fontsize" : 11.595187,
					"numinlets" : 1,
					"background" : 0,
					"color" : [ 0.8, 0.84, 0.71, 1.0 ],
					"numoutlets" : 0,
					"presentation_rect" : [ 0.0, 0.0, 0.0, 0.0 ],
					"ignoreclick" : 0,
					"bgcolor" : [ 1.0, 1.0, 1.0, 1.0 ],
					"hidden" : 0,
					"fontname" : "Arial",
					"patching_rect" : [ 122.0, 527.0, 64.0, 20.0 ],
					"presentation" : 0,
					"id" : "obj-72",
					"textcolor" : [ 0.0, 0.0, 0.0, 1.0 ],
					"fontface" : 0
				}

			}
, 			{
				"box" : 				{
					"maxclass" : "newobj",
					"text" : "t b b b",
					"fontsize" : 11.595187,
					"numinlets" : 1,
					"background" : 0,
					"color" : [ 0.8, 0.84, 0.71, 1.0 ],
					"numoutlets" : 3,
					"presentation_rect" : [ 0.0, 0.0, 0.0, 0.0 ],
					"ignoreclick" : 0,
					"outlettype" : [ "bang", "bang", "bang" ],
					"bgcolor" : [ 1.0, 1.0, 1.0, 1.0 ],
					"hidden" : 0,
					"fontname" : "Arial",
					"patching_rect" : [ 53.0, 501.0, 156.0, 20.0 ],
					"presentation" : 0,
					"id" : "obj-71",
					"textcolor" : [ 0.0, 0.0, 0.0, 1.0 ],
					"fontface" : 0
				}

			}
, 			{
				"box" : 				{
					"maxclass" : "newobj",
					"text" : "metro 33",
					"fontsize" : 11.595187,
					"numinlets" : 2,
					"background" : 0,
					"color" : [ 0.8, 0.84, 0.71, 1.0 ],
					"numoutlets" : 1,
					"presentation_rect" : [ 0.0, 0.0, 0.0, 0.0 ],
					"ignoreclick" : 0,
					"outlettype" : [ "bang" ],
					"bgcolor" : [ 1.0, 1.0, 1.0, 1.0 ],
					"hidden" : 0,
					"fontname" : "Arial",
					"patching_rect" : [ 53.0, 478.0, 56.0, 20.0 ],
					"presentation" : 0,
					"id" : "obj-70",
					"textcolor" : [ 0.0, 0.0, 0.0, 1.0 ],
					"fontface" : 0
				}

			}
, 			{
				"box" : 				{
					"maxclass" : "newobj",
					"text" : "value z",
					"fontsize" : 11.595187,
					"numinlets" : 1,
					"background" : 0,
					"color" : [ 0.8, 0.84, 0.71, 1.0 ],
					"numoutlets" : 1,
					"presentation_rect" : [ 0.0, 0.0, 0.0, 0.0 ],
					"ignoreclick" : 0,
					"outlettype" : [ "" ],
					"bgcolor" : [ 1.0, 1.0, 1.0, 1.0 ],
					"hidden" : 0,
					"fontname" : "Arial",
					"patching_rect" : [ 914.0, 45.0, 47.0, 20.0 ],
					"presentation" : 0,
					"id" : "obj-69",
					"textcolor" : [ 0.0, 0.0, 0.0, 1.0 ],
					"fontface" : 0
				}

			}
, 			{
				"box" : 				{
					"maxclass" : "newobj",
					"text" : "value y",
					"fontsize" : 11.595187,
					"numinlets" : 1,
					"background" : 0,
					"color" : [ 0.8, 0.84, 0.71, 1.0 ],
					"numoutlets" : 1,
					"presentation_rect" : [ 0.0, 0.0, 0.0, 0.0 ],
					"ignoreclick" : 0,
					"outlettype" : [ "" ],
					"bgcolor" : [ 1.0, 1.0, 1.0, 1.0 ],
					"hidden" : 0,
					"fontname" : "Arial",
					"patching_rect" : [ 807.0, 45.0, 47.0, 20.0 ],
					"presentation" : 0,
					"id" : "obj-68",
					"textcolor" : [ 0.0, 0.0, 0.0, 1.0 ],
					"fontface" : 0
				}

			}
, 			{
				"box" : 				{
					"maxclass" : "newobj",
					"text" : "value x",
					"fontsize" : 11.595187,
					"numinlets" : 1,
					"background" : 0,
					"color" : [ 0.8, 0.84, 0.71, 1.0 ],
					"numoutlets" : 1,
					"presentation_rect" : [ 0.0, 0.0, 0.0, 0.0 ],
					"ignoreclick" : 0,
					"outlettype" : [ "" ],
					"bgcolor" : [ 1.0, 1.0, 1.0, 1.0 ],
					"hidden" : 0,
					"fontname" : "Arial",
					"patching_rect" : [ 700.0, 45.0, 47.0, 20.0 ],
					"presentation" : 0,
					"id" : "obj-67",
					"textcolor" : [ 0.0, 0.0, 0.0, 1.0 ],
					"fontface" : 0
				}

			}
, 			{
				"box" : 				{
					"maxclass" : "newobj",
					"text" : "value z",
					"fontsize" : 11.595187,
					"numinlets" : 1,
					"background" : 0,
					"color" : [ 0.8, 0.84, 0.71, 1.0 ],
					"numoutlets" : 1,
					"presentation_rect" : [ 0.0, 0.0, 0.0, 0.0 ],
					"ignoreclick" : 0,
					"outlettype" : [ "" ],
					"bgcolor" : [ 1.0, 1.0, 1.0, 1.0 ],
					"hidden" : 0,
					"fontname" : "Arial",
					"patching_rect" : [ 113.0, 146.0, 47.0, 20.0 ],
					"presentation" : 0,
					"id" : "obj-66",
					"textcolor" : [ 0.0, 0.0, 0.0, 1.0 ],
					"fontface" : 0
				}

			}
, 			{
				"box" : 				{
					"maxclass" : "newobj",
					"text" : "value y",
					"fontsize" : 11.595187,
					"numinlets" : 1,
					"background" : 0,
					"color" : [ 0.8, 0.84, 0.71, 1.0 ],
					"numoutlets" : 1,
					"presentation_rect" : [ 0.0, 0.0, 0.0, 0.0 ],
					"ignoreclick" : 0,
					"outlettype" : [ "" ],
					"bgcolor" : [ 1.0, 1.0, 1.0, 1.0 ],
					"hidden" : 0,
					"fontname" : "Arial",
					"patching_rect" : [ 66.0, 146.0, 47.0, 20.0 ],
					"presentation" : 0,
					"id" : "obj-65",
					"textcolor" : [ 0.0, 0.0, 0.0, 1.0 ],
					"fontface" : 0
				}

			}
, 			{
				"box" : 				{
					"maxclass" : "newobj",
					"text" : "value x",
					"fontsize" : 11.595187,
					"numinlets" : 1,
					"background" : 0,
					"color" : [ 0.8, 0.84, 0.71, 1.0 ],
					"numoutlets" : 1,
					"presentation_rect" : [ 0.0, 0.0, 0.0, 0.0 ],
					"ignoreclick" : 0,
					"outlettype" : [ "" ],
					"bgcolor" : [ 1.0, 1.0, 1.0, 1.0 ],
					"hidden" : 0,
					"fontname" : "Arial",
					"patching_rect" : [ 19.0, 146.0, 47.0, 20.0 ],
					"presentation" : 0,
					"id" : "obj-62",
					"textcolor" : [ 0.0, 0.0, 0.0, 1.0 ],
					"fontface" : 0
				}

			}
, 			{
				"box" : 				{
					"maxclass" : "message",
					"text" : "0.",
					"fontsize" : 11.595187,
					"numinlets" : 2,
					"background" : 0,
					"numoutlets" : 1,
					"presentation_rect" : [ 0.0, 0.0, 0.0, 0.0 ],
					"ignoreclick" : 0,
					"outlettype" : [ "" ],
					"bgcolor" : [ 0.867, 0.867, 0.867, 1.0 ],
					"hidden" : 0,
					"fontname" : "Arial",
					"patching_rect" : [ 19.0, 118.0, 20.0, 18.0 ],
					"bgcolor2" : [ 0.867, 0.867, 0.867, 1.0 ],
					"presentation" : 0,
					"id" : "obj-63",
					"textcolor" : [ 0.0, 0.0, 0.0, 1.0 ],
					"gradient" : 0,
					"fontface" : 0
				}

			}
, 			{
				"box" : 				{
					"maxclass" : "newobj",
					"text" : "s lcd",
					"fontsize" : 11.595187,
					"numinlets" : 1,
					"background" : 0,
					"color" : [ 0.8, 0.84, 0.71, 1.0 ],
					"numoutlets" : 0,
					"presentation_rect" : [ 0.0, 0.0, 0.0, 0.0 ],
					"ignoreclick" : 0,
					"bgcolor" : [ 1.0, 1.0, 1.0, 1.0 ],
					"hidden" : 0,
					"fontname" : "Arial",
					"patching_rect" : [ 160.0, 146.0, 34.0, 20.0 ],
					"presentation" : 0,
					"id" : "obj-61",
					"textcolor" : [ 0.0, 0.0, 0.0, 1.0 ],
					"fontface" : 0
				}

			}
, 			{
				"box" : 				{
					"maxclass" : "newobj",
					"text" : "value E",
					"fontsize" : 11.595187,
					"numinlets" : 1,
					"background" : 0,
					"color" : [ 0.8, 0.84, 0.71, 1.0 ],
					"numoutlets" : 1,
					"presentation_rect" : [ 0.0, 0.0, 0.0, 0.0 ],
					"ignoreclick" : 0,
					"outlettype" : [ "" ],
					"bgcolor" : [ 1.0, 1.0, 1.0, 1.0 ],
					"hidden" : 0,
					"fontname" : "Arial",
					"patching_rect" : [ 375.0, 301.0, 49.0, 20.0 ],
					"presentation" : 0,
					"id" : "obj-56",
					"textcolor" : [ 0.0, 0.0, 0.0, 1.0 ],
					"fontface" : 0
				}

			}
, 			{
				"box" : 				{
					"maxclass" : "newobj",
					"text" : "value D",
					"fontsize" : 11.595187,
					"numinlets" : 1,
					"background" : 0,
					"color" : [ 0.8, 0.84, 0.71, 1.0 ],
					"numoutlets" : 1,
					"presentation_rect" : [ 0.0, 0.0, 0.0, 0.0 ],
					"ignoreclick" : 0,
					"outlettype" : [ "" ],
					"bgcolor" : [ 1.0, 1.0, 1.0, 1.0 ],
					"hidden" : 0,
					"fontname" : "Arial",
					"patching_rect" : [ 324.0, 301.0, 50.0, 20.0 ],
					"presentation" : 0,
					"id" : "obj-57",
					"textcolor" : [ 0.0, 0.0, 0.0, 1.0 ],
					"fontface" : 0
				}

			}
, 			{
				"box" : 				{
					"maxclass" : "newobj",
					"text" : "value C",
					"fontsize" : 11.595187,
					"numinlets" : 1,
					"background" : 0,
					"color" : [ 0.8, 0.84, 0.71, 1.0 ],
					"numoutlets" : 1,
					"presentation_rect" : [ 0.0, 0.0, 0.0, 0.0 ],
					"ignoreclick" : 0,
					"outlettype" : [ "" ],
					"bgcolor" : [ 1.0, 1.0, 1.0, 1.0 ],
					"hidden" : 0,
					"fontname" : "Arial",
					"patching_rect" : [ 273.0, 301.0, 50.0, 20.0 ],
					"presentation" : 0,
					"id" : "obj-58",
					"textcolor" : [ 0.0, 0.0, 0.0, 1.0 ],
					"fontface" : 0
				}

			}
, 			{
				"box" : 				{
					"maxclass" : "newobj",
					"text" : "value B",
					"fontsize" : 11.595187,
					"numinlets" : 1,
					"background" : 0,
					"color" : [ 0.8, 0.84, 0.71, 1.0 ],
					"numoutlets" : 1,
					"presentation_rect" : [ 0.0, 0.0, 0.0, 0.0 ],
					"ignoreclick" : 0,
					"outlettype" : [ "" ],
					"bgcolor" : [ 1.0, 1.0, 1.0, 1.0 ],
					"hidden" : 0,
					"fontname" : "Arial",
					"patching_rect" : [ 223.0, 301.0, 49.0, 20.0 ],
					"presentation" : 0,
					"id" : "obj-59",
					"textcolor" : [ 0.0, 0.0, 0.0, 1.0 ],
					"fontface" : 0
				}

			}
, 			{
				"box" : 				{
					"maxclass" : "newobj",
					"text" : "value A",
					"fontsize" : 11.595187,
					"numinlets" : 1,
					"background" : 0,
					"color" : [ 0.8, 0.84, 0.71, 1.0 ],
					"numoutlets" : 1,
					"presentation_rect" : [ 0.0, 0.0, 0.0, 0.0 ],
					"ignoreclick" : 0,
					"outlettype" : [ "" ],
					"bgcolor" : [ 1.0, 1.0, 1.0, 1.0 ],
					"hidden" : 0,
					"fontname" : "Arial",
					"patching_rect" : [ 173.0, 301.0, 49.0, 20.0 ],
					"presentation" : 0,
					"id" : "obj-60",
					"textcolor" : [ 0.0, 0.0, 0.0, 1.0 ],
					"fontface" : 0
				}

			}
, 			{
				"box" : 				{
					"maxclass" : "newobj",
					"text" : "value E",
					"fontsize" : 11.595187,
					"numinlets" : 1,
					"background" : 0,
					"color" : [ 0.8, 0.84, 0.71, 1.0 ],
					"numoutlets" : 1,
					"presentation_rect" : [ 0.0, 0.0, 0.0, 0.0 ],
					"ignoreclick" : 0,
					"outlettype" : [ "" ],
					"bgcolor" : [ 1.0, 1.0, 1.0, 1.0 ],
					"hidden" : 0,
					"fontname" : "Arial",
					"patching_rect" : [ 596.0, 209.0, 49.0, 20.0 ],
					"presentation" : 0,
					"id" : "obj-55",
					"textcolor" : [ 0.0, 0.0, 0.0, 1.0 ],
					"fontface" : 0
				}

			}
, 			{
				"box" : 				{
					"maxclass" : "newobj",
					"text" : "value D",
					"fontsize" : 11.595187,
					"numinlets" : 1,
					"background" : 0,
					"color" : [ 0.8, 0.84, 0.71, 1.0 ],
					"numoutlets" : 1,
					"presentation_rect" : [ 0.0, 0.0, 0.0, 0.0 ],
					"ignoreclick" : 0,
					"outlettype" : [ "" ],
					"bgcolor" : [ 1.0, 1.0, 1.0, 1.0 ],
					"hidden" : 0,
					"fontname" : "Arial",
					"patching_rect" : [ 497.0, 209.0, 50.0, 20.0 ],
					"presentation" : 0,
					"id" : "obj-54",
					"textcolor" : [ 0.0, 0.0, 0.0, 1.0 ],
					"fontface" : 0
				}

			}
, 			{
				"box" : 				{
					"maxclass" : "newobj",
					"text" : "value C",
					"fontsize" : 11.595187,
					"numinlets" : 1,
					"background" : 0,
					"color" : [ 0.8, 0.84, 0.71, 1.0 ],
					"numoutlets" : 1,
					"presentation_rect" : [ 0.0, 0.0, 0.0, 0.0 ],
					"ignoreclick" : 0,
					"outlettype" : [ "" ],
					"bgcolor" : [ 1.0, 1.0, 1.0, 1.0 ],
					"hidden" : 0,
					"fontname" : "Arial",
					"patching_rect" : [ 398.0, 209.0, 50.0, 20.0 ],
					"presentation" : 0,
					"id" : "obj-51",
					"textcolor" : [ 0.0, 0.0, 0.0, 1.0 ],
					"fontface" : 0
				}

			}
, 			{
				"box" : 				{
					"maxclass" : "newobj",
					"text" : "value B",
					"fontsize" : 11.595187,
					"numinlets" : 1,
					"background" : 0,
					"color" : [ 0.8, 0.84, 0.71, 1.0 ],
					"numoutlets" : 1,
					"presentation_rect" : [ 0.0, 0.0, 0.0, 0.0 ],
					"ignoreclick" : 0,
					"outlettype" : [ "" ],
					"bgcolor" : [ 1.0, 1.0, 1.0, 1.0 ],
					"hidden" : 0,
					"fontname" : "Arial",
					"patching_rect" : [ 299.0, 209.0, 49.0, 20.0 ],
					"presentation" : 0,
					"id" : "obj-52",
					"textcolor" : [ 0.0, 0.0, 0.0, 1.0 ],
					"fontface" : 0
				}

			}
, 			{
				"box" : 				{
					"maxclass" : "newobj",
					"text" : "value A",
					"fontsize" : 11.595187,
					"numinlets" : 1,
					"background" : 0,
					"color" : [ 0.8, 0.84, 0.71, 1.0 ],
					"numoutlets" : 1,
					"presentation_rect" : [ 0.0, 0.0, 0.0, 0.0 ],
					"ignoreclick" : 0,
					"outlettype" : [ "" ],
					"bgcolor" : [ 1.0, 1.0, 1.0, 1.0 ],
					"hidden" : 0,
					"fontname" : "Arial",
					"patching_rect" : [ 200.0, 209.0, 49.0, 20.0 ],
					"presentation" : 0,
					"id" : "obj-53",
					"textcolor" : [ 0.0, 0.0, 0.0, 1.0 ],
					"fontface" : 0
				}

			}
, 			{
				"box" : 				{
					"maxclass" : "newobj",
					"text" : "prepend linesegment",
					"fontsize" : 11.595187,
					"numinlets" : 1,
					"background" : 0,
					"color" : [ 0.8, 0.84, 0.71, 1.0 ],
					"numoutlets" : 1,
					"presentation_rect" : [ 0.0, 0.0, 0.0, 0.0 ],
					"ignoreclick" : 0,
					"outlettype" : [ "" ],
					"bgcolor" : [ 1.0, 1.0, 1.0, 1.0 ],
					"hidden" : 0,
					"fontname" : "Arial",
					"patching_rect" : [ 700.0, 225.0, 119.0, 20.0 ],
					"presentation" : 0,
					"id" : "obj-39",
					"textcolor" : [ 0.0, 0.0, 0.0, 1.0 ],
					"fontface" : 0
				}

			}
, 			{
				"box" : 				{
					"maxclass" : "newobj",
					"text" : "pack 0. 0. 0. 0.",
					"fontsize" : 11.595187,
					"numinlets" : 4,
					"background" : 0,
					"color" : [ 0.8, 0.84, 0.71, 1.0 ],
					"numoutlets" : 1,
					"presentation_rect" : [ 0.0, 0.0, 0.0, 0.0 ],
					"ignoreclick" : 0,
					"outlettype" : [ "" ],
					"bgcolor" : [ 1.0, 1.0, 1.0, 1.0 ],
					"hidden" : 0,
					"fontname" : "Arial",
					"patching_rect" : [ 700.0, 191.0, 105.0, 20.0 ],
					"presentation" : 0,
					"id" : "obj-32",
					"textcolor" : [ 0.0, 0.0, 0.0, 1.0 ],
					"fontface" : 0
				}

			}
, 			{
				"box" : 				{
					"maxclass" : "newobj",
					"text" : "bucket 1",
					"fontsize" : 11.595187,
					"numinlets" : 1,
					"background" : 0,
					"color" : [ 0.8, 0.84, 0.71, 1.0 ],
					"numoutlets" : 1,
					"presentation_rect" : [ 0.0, 0.0, 0.0, 0.0 ],
					"ignoreclick" : 0,
					"outlettype" : [ "" ],
					"bgcolor" : [ 1.0, 1.0, 1.0, 1.0 ],
					"hidden" : 0,
					"fontname" : "Arial",
					"patching_rect" : [ 731.0, 161.0, 54.0, 20.0 ],
					"presentation" : 0,
					"id" : "obj-30",
					"textcolor" : [ 0.0, 0.0, 0.0, 1.0 ],
					"fontface" : 0
				}

			}
, 			{
				"box" : 				{
					"maxclass" : "newobj",
					"text" : "bucket 1",
					"fontsize" : 11.595187,
					"numinlets" : 1,
					"background" : 0,
					"color" : [ 0.8, 0.84, 0.71, 1.0 ],
					"numoutlets" : 1,
					"presentation_rect" : [ 0.0, 0.0, 0.0, 0.0 ],
					"ignoreclick" : 0,
					"outlettype" : [ "" ],
					"bgcolor" : [ 1.0, 1.0, 1.0, 1.0 ],
					"hidden" : 0,
					"fontname" : "Arial",
					"patching_rect" : [ 786.0, 161.0, 54.0, 20.0 ],
					"presentation" : 0,
					"id" : "obj-28",
					"textcolor" : [ 0.0, 0.0, 0.0, 1.0 ],
					"fontface" : 0
				}

			}
, 			{
				"box" : 				{
					"maxclass" : "newobj",
					"text" : "scale -4. 4. 0. 299.",
					"fontsize" : 11.595187,
					"numinlets" : 6,
					"background" : 0,
					"color" : [ 0.8, 0.84, 0.71, 1.0 ],
					"numoutlets" : 1,
					"presentation_rect" : [ 0.0, 0.0, 0.0, 0.0 ],
					"ignoreclick" : 0,
					"outlettype" : [ "float" ],
					"bgcolor" : [ 1.0, 1.0, 1.0, 1.0 ],
					"hidden" : 0,
					"fontname" : "Arial",
					"patching_rect" : [ 807.0, 79.0, 106.0, 20.0 ],
					"presentation" : 0,
					"id" : "obj-24",
					"textcolor" : [ 0.0, 0.0, 0.0, 1.0 ],
					"fontface" : 0
				}

			}
, 			{
				"box" : 				{
					"maxclass" : "newobj",
					"text" : "scale -4. 4. 0. 299.",
					"fontsize" : 11.595187,
					"numinlets" : 6,
					"background" : 0,
					"color" : [ 0.8, 0.84, 0.71, 1.0 ],
					"numoutlets" : 1,
					"presentation_rect" : [ 0.0, 0.0, 0.0, 0.0 ],
					"ignoreclick" : 0,
					"outlettype" : [ "float" ],
					"bgcolor" : [ 1.0, 1.0, 1.0, 1.0 ],
					"hidden" : 0,
					"fontname" : "Arial",
					"patching_rect" : [ 700.0, 79.0, 106.0, 20.0 ],
					"presentation" : 0,
					"id" : "obj-22",
					"textcolor" : [ 0.0, 0.0, 0.0, 1.0 ],
					"fontface" : 0
				}

			}
, 			{
				"box" : 				{
					"maxclass" : "newobj",
					"text" : "scale 0 999 -4. 4.",
					"fontsize" : 11.595187,
					"numinlets" : 6,
					"background" : 0,
					"color" : [ 0.8, 0.84, 0.71, 1.0 ],
					"numoutlets" : 1,
					"presentation_rect" : [ 0.0, 0.0, 0.0, 0.0 ],
					"ignoreclick" : 0,
					"outlettype" : [ "float" ],
					"bgcolor" : [ 1.0, 1.0, 1.0, 1.0 ],
					"hidden" : 0,
					"fontname" : "Arial",
					"patching_rect" : [ 596.0, 146.0, 99.0, 20.0 ],
					"presentation" : 0,
					"id" : "obj-19",
					"textcolor" : [ 0.0, 0.0, 0.0, 1.0 ],
					"fontface" : 0
				}

			}
, 			{
				"box" : 				{
					"maxclass" : "newobj",
					"text" : "random 1000",
					"fontsize" : 11.595187,
					"numinlets" : 2,
					"background" : 0,
					"color" : [ 0.8, 0.84, 0.71, 1.0 ],
					"numoutlets" : 1,
					"presentation_rect" : [ 0.0, 0.0, 0.0, 0.0 ],
					"ignoreclick" : 0,
					"outlettype" : [ "int" ],
					"bgcolor" : [ 1.0, 1.0, 1.0, 1.0 ],
					"hidden" : 0,
					"fontname" : "Arial",
					"patching_rect" : [ 596.0, 118.0, 79.0, 20.0 ],
					"presentation" : 0,
					"id" : "obj-20",
					"textcolor" : [ 0.0, 0.0, 0.0, 1.0 ],
					"fontface" : 0
				}

			}
, 			{
				"box" : 				{
					"maxclass" : "newobj",
					"text" : "scale 0 999 -4. 4.",
					"fontsize" : 11.595187,
					"numinlets" : 6,
					"background" : 0,
					"color" : [ 0.8, 0.84, 0.71, 1.0 ],
					"numoutlets" : 1,
					"presentation_rect" : [ 0.0, 0.0, 0.0, 0.0 ],
					"ignoreclick" : 0,
					"outlettype" : [ "float" ],
					"bgcolor" : [ 1.0, 1.0, 1.0, 1.0 ],
					"hidden" : 0,
					"fontname" : "Arial",
					"patching_rect" : [ 497.0, 146.0, 99.0, 20.0 ],
					"presentation" : 0,
					"id" : "obj-17",
					"textcolor" : [ 0.0, 0.0, 0.0, 1.0 ],
					"fontface" : 0
				}

			}
, 			{
				"box" : 				{
					"maxclass" : "newobj",
					"text" : "random 1000",
					"fontsize" : 11.595187,
					"numinlets" : 2,
					"background" : 0,
					"color" : [ 0.8, 0.84, 0.71, 1.0 ],
					"numoutlets" : 1,
					"presentation_rect" : [ 0.0, 0.0, 0.0, 0.0 ],
					"ignoreclick" : 0,
					"outlettype" : [ "int" ],
					"bgcolor" : [ 1.0, 1.0, 1.0, 1.0 ],
					"hidden" : 0,
					"fontname" : "Arial",
					"patching_rect" : [ 497.0, 118.0, 79.0, 20.0 ],
					"presentation" : 0,
					"id" : "obj-18",
					"textcolor" : [ 0.0, 0.0, 0.0, 1.0 ],
					"fontface" : 0
				}

			}
, 			{
				"box" : 				{
					"maxclass" : "newobj",
					"text" : "scale 0 999 -4. 4.",
					"fontsize" : 11.595187,
					"numinlets" : 6,
					"background" : 0,
					"color" : [ 0.8, 0.84, 0.71, 1.0 ],
					"numoutlets" : 1,
					"presentation_rect" : [ 0.0, 0.0, 0.0, 0.0 ],
					"ignoreclick" : 0,
					"outlettype" : [ "float" ],
					"bgcolor" : [ 1.0, 1.0, 1.0, 1.0 ],
					"hidden" : 0,
					"fontname" : "Arial",
					"patching_rect" : [ 398.0, 146.0, 99.0, 20.0 ],
					"presentation" : 0,
					"id" : "obj-10",
					"textcolor" : [ 0.0, 0.0, 0.0, 1.0 ],
					"fontface" : 0
				}

			}
, 			{
				"box" : 				{
					"maxclass" : "newobj",
					"text" : "random 1000",
					"fontsize" : 11.595187,
					"numinlets" : 2,
					"background" : 0,
					"color" : [ 0.8, 0.84, 0.71, 1.0 ],
					"numoutlets" : 1,
					"presentation_rect" : [ 0.0, 0.0, 0.0, 0.0 ],
					"ignoreclick" : 0,
					"outlettype" : [ "int" ],
					"bgcolor" : [ 1.0, 1.0, 1.0, 1.0 ],
					"hidden" : 0,
					"fontname" : "Arial",
					"patching_rect" : [ 398.0, 118.0, 79.0, 20.0 ],
					"presentation" : 0,
					"id" : "obj-14",
					"textcolor" : [ 0.0, 0.0, 0.0, 1.0 ],
					"fontface" : 0
				}

			}
, 			{
				"box" : 				{
					"maxclass" : "newobj",
					"text" : "scale 0 999 -4. 4.",
					"fontsize" : 11.595187,
					"numinlets" : 6,
					"background" : 0,
					"color" : [ 0.8, 0.84, 0.71, 1.0 ],
					"numoutlets" : 1,
					"presentation_rect" : [ 0.0, 0.0, 0.0, 0.0 ],
					"ignoreclick" : 0,
					"outlettype" : [ "float" ],
					"bgcolor" : [ 1.0, 1.0, 1.0, 1.0 ],
					"hidden" : 0,
					"fontname" : "Arial",
					"patching_rect" : [ 299.0, 146.0, 99.0, 20.0 ],
					"presentation" : 0,
					"id" : "obj-8",
					"textcolor" : [ 0.0, 0.0, 0.0, 1.0 ],
					"fontface" : 0
				}

			}
, 			{
				"box" : 				{
					"maxclass" : "newobj",
					"text" : "random 1000",
					"fontsize" : 11.595187,
					"numinlets" : 2,
					"background" : 0,
					"color" : [ 0.8, 0.84, 0.71, 1.0 ],
					"numoutlets" : 1,
					"presentation_rect" : [ 0.0, 0.0, 0.0, 0.0 ],
					"ignoreclick" : 0,
					"outlettype" : [ "int" ],
					"bgcolor" : [ 1.0, 1.0, 1.0, 1.0 ],
					"hidden" : 0,
					"fontname" : "Arial",
					"patching_rect" : [ 299.0, 118.0, 79.0, 20.0 ],
					"presentation" : 0,
					"id" : "obj-9",
					"textcolor" : [ 0.0, 0.0, 0.0, 1.0 ],
					"fontface" : 0
				}

			}
, 			{
				"box" : 				{
					"maxclass" : "newobj",
					"text" : "scale 0 999 -4. 4.",
					"fontsize" : 11.595187,
					"numinlets" : 6,
					"background" : 0,
					"color" : [ 0.8, 0.84, 0.71, 1.0 ],
					"numoutlets" : 1,
					"presentation_rect" : [ 0.0, 0.0, 0.0, 0.0 ],
					"ignoreclick" : 0,
					"outlettype" : [ "float" ],
					"bgcolor" : [ 1.0, 1.0, 1.0, 1.0 ],
					"hidden" : 0,
					"fontname" : "Arial",
					"patching_rect" : [ 200.0, 146.0, 99.0, 20.0 ],
					"presentation" : 0,
					"id" : "obj-7",
					"textcolor" : [ 0.0, 0.0, 0.0, 1.0 ],
					"fontface" : 0
				}

			}
, 			{
				"box" : 				{
					"maxclass" : "message",
					"text" : "clear",
					"fontsize" : 11.595187,
					"numinlets" : 2,
					"background" : 0,
					"numoutlets" : 1,
					"presentation_rect" : [ 0.0, 0.0, 0.0, 0.0 ],
					"ignoreclick" : 0,
					"outlettype" : [ "" ],
					"bgcolor" : [ 0.867, 0.867, 0.867, 1.0 ],
					"hidden" : 0,
					"fontname" : "Arial",
					"patching_rect" : [ 160.0, 118.0, 36.0, 18.0 ],
					"bgcolor2" : [ 0.867, 0.867, 0.867, 1.0 ],
					"presentation" : 0,
					"id" : "obj-50",
					"textcolor" : [ 0.0, 0.0, 0.0, 1.0 ],
					"gradient" : 0,
					"fontface" : 0
				}

			}
, 			{
				"box" : 				{
					"maxclass" : "newobj",
					"text" : "sel 32",
					"fontsize" : 11.595187,
					"numinlets" : 2,
					"background" : 0,
					"color" : [ 0.8, 0.84, 0.71, 1.0 ],
					"numoutlets" : 2,
					"presentation_rect" : [ 0.0, 0.0, 0.0, 0.0 ],
					"ignoreclick" : 0,
					"outlettype" : [ "bang", "" ],
					"bgcolor" : [ 1.0, 1.0, 1.0, 1.0 ],
					"hidden" : 0,
					"fontname" : "Arial",
					"patching_rect" : [ 19.0, 40.0, 41.0, 20.0 ],
					"presentation" : 0,
					"id" : "obj-49",
					"textcolor" : [ 0.0, 0.0, 0.0, 1.0 ],
					"fontface" : 0
				}

			}
, 			{
				"box" : 				{
					"maxclass" : "newobj",
					"text" : "key",
					"fontsize" : 11.595187,
					"numinlets" : 0,
					"background" : 0,
					"color" : [ 0.8, 0.84, 0.71, 1.0 ],
					"numoutlets" : 3,
					"presentation_rect" : [ 0.0, 0.0, 0.0, 0.0 ],
					"ignoreclick" : 0,
					"outlettype" : [ "int", "int", "int" ],
					"bgcolor" : [ 1.0, 1.0, 1.0, 1.0 ],
					"hidden" : 0,
					"fontname" : "Arial",
					"patching_rect" : [ 19.0, 10.0, 38.705883, 20.0 ],
					"presentation" : 0,
					"id" : "obj-48",
					"textcolor" : [ 0.0, 0.0, 0.0, 1.0 ],
					"fontface" : 0
				}

			}
, 			{
				"box" : 				{
					"maxclass" : "newobj",
					"text" : "s lcd",
					"fontsize" : 11.595187,
					"numinlets" : 1,
					"background" : 0,
					"color" : [ 0.8, 0.84, 0.71, 1.0 ],
					"numoutlets" : 0,
					"presentation_rect" : [ 0.0, 0.0, 0.0, 0.0 ],
					"ignoreclick" : 0,
					"bgcolor" : [ 1.0, 1.0, 1.0, 1.0 ],
					"hidden" : 0,
					"fontname" : "Arial",
					"patching_rect" : [ 700.0, 258.0, 34.0, 20.0 ],
					"presentation" : 0,
					"id" : "obj-47",
					"textcolor" : [ 0.0, 0.0, 0.0, 1.0 ],
					"fontface" : 0
				}

			}
, 			{
				"box" : 				{
					"maxclass" : "newobj",
					"text" : "prepend frameoval",
					"fontsize" : 11.595187,
					"numinlets" : 1,
					"background" : 0,
					"color" : [ 0.8, 0.84, 0.71, 1.0 ],
					"numoutlets" : 1,
					"presentation_rect" : [ 0.0, 0.0, 0.0, 0.0 ],
					"ignoreclick" : 0,
					"outlettype" : [ "" ],
					"bgcolor" : [ 1.0, 1.0, 1.0, 1.0 ],
					"hidden" : 0,
					"fontname" : "Arial",
					"patching_rect" : [ 843.0, 223.0, 107.0, 20.0 ],
					"presentation" : 0,
					"id" : "obj-46",
					"textcolor" : [ 0.0, 0.0, 0.0, 1.0 ],
					"fontface" : 0
				}

			}
, 			{
				"box" : 				{
					"maxclass" : "newobj",
					"text" : "pack 0. 0. 0. 0.",
					"fontsize" : 11.595187,
					"numinlets" : 4,
					"background" : 0,
					"color" : [ 0.8, 0.84, 0.71, 1.0 ],
					"numoutlets" : 1,
					"presentation_rect" : [ 0.0, 0.0, 0.0, 0.0 ],
					"ignoreclick" : 0,
					"outlettype" : [ "" ],
					"bgcolor" : [ 1.0, 1.0, 1.0, 1.0 ],
					"hidden" : 0,
					"fontname" : "Arial",
					"patching_rect" : [ 843.0, 191.0, 121.0, 20.0 ],
					"presentation" : 0,
					"id" : "obj-45",
					"textcolor" : [ 0.0, 0.0, 0.0, 1.0 ],
					"fontface" : 0
				}

			}
, 			{
				"box" : 				{
					"maxclass" : "newobj",
					"text" : "* 10.",
					"fontsize" : 11.595187,
					"numinlets" : 2,
					"background" : 0,
					"color" : [ 0.8, 0.84, 0.71, 1.0 ],
					"numoutlets" : 1,
					"presentation_rect" : [ 0.0, 0.0, 0.0, 0.0 ],
					"ignoreclick" : 0,
					"outlettype" : [ "float" ],
					"bgcolor" : [ 1.0, 1.0, 1.0, 1.0 ],
					"hidden" : 0,
					"fontname" : "Arial",
					"patching_rect" : [ 914.0, 77.0, 34.0, 20.0 ],
					"presentation" : 0,
					"id" : "obj-44",
					"textcolor" : [ 0.0, 0.0, 0.0, 1.0 ],
					"fontface" : 0
				}

			}
, 			{
				"box" : 				{
					"maxclass" : "newobj",
					"text" : "+ 0.",
					"fontsize" : 11.595187,
					"numinlets" : 2,
					"background" : 0,
					"color" : [ 0.8, 0.84, 0.71, 1.0 ],
					"numoutlets" : 1,
					"presentation_rect" : [ 0.0, 0.0, 0.0, 0.0 ],
					"ignoreclick" : 0,
					"outlettype" : [ "float" ],
					"bgcolor" : [ 1.0, 1.0, 1.0, 1.0 ],
					"hidden" : 0,
					"fontname" : "Arial",
					"patching_rect" : [ 945.0, 161.0, 30.470589, 20.0 ],
					"presentation" : 0,
					"id" : "obj-42",
					"textcolor" : [ 0.0, 0.0, 0.0, 1.0 ],
					"fontface" : 0
				}

			}
, 			{
				"box" : 				{
					"maxclass" : "newobj",
					"text" : "- 0.",
					"fontsize" : 11.595187,
					"numinlets" : 2,
					"background" : 0,
					"color" : [ 0.8, 0.84, 0.71, 1.0 ],
					"numoutlets" : 1,
					"presentation_rect" : [ 0.0, 0.0, 0.0, 0.0 ],
					"ignoreclick" : 0,
					"outlettype" : [ "float" ],
					"bgcolor" : [ 1.0, 1.0, 1.0, 1.0 ],
					"hidden" : 0,
					"fontname" : "Arial",
					"patching_rect" : [ 877.0, 161.0, 30.470589, 20.0 ],
					"presentation" : 0,
					"id" : "obj-43",
					"textcolor" : [ 0.0, 0.0, 0.0, 1.0 ],
					"fontface" : 0
				}

			}
, 			{
				"box" : 				{
					"maxclass" : "newobj",
					"text" : "+ 0.",
					"fontsize" : 11.595187,
					"numinlets" : 2,
					"background" : 0,
					"color" : [ 0.8, 0.84, 0.71, 1.0 ],
					"numoutlets" : 1,
					"presentation_rect" : [ 0.0, 0.0, 0.0, 0.0 ],
					"ignoreclick" : 0,
					"outlettype" : [ "float" ],
					"bgcolor" : [ 1.0, 1.0, 1.0, 1.0 ],
					"hidden" : 0,
					"fontname" : "Arial",
					"patching_rect" : [ 911.0, 161.0, 30.470589, 20.0 ],
					"presentation" : 0,
					"id" : "obj-41",
					"textcolor" : [ 0.0, 0.0, 0.0, 1.0 ],
					"fontface" : 0
				}

			}
, 			{
				"box" : 				{
					"maxclass" : "newobj",
					"text" : "- 0.",
					"fontsize" : 11.595187,
					"numinlets" : 2,
					"background" : 0,
					"color" : [ 0.8, 0.84, 0.71, 1.0 ],
					"numoutlets" : 1,
					"presentation_rect" : [ 0.0, 0.0, 0.0, 0.0 ],
					"ignoreclick" : 0,
					"outlettype" : [ "float" ],
					"bgcolor" : [ 1.0, 1.0, 1.0, 1.0 ],
					"hidden" : 0,
					"fontname" : "Arial",
					"patching_rect" : [ 843.0, 161.0, 30.470589, 20.0 ],
					"presentation" : 0,
					"id" : "obj-40",
					"textcolor" : [ 0.0, 0.0, 0.0, 1.0 ],
					"fontface" : 0
				}

			}
, 			{
				"box" : 				{
					"maxclass" : "newobj",
					"text" : "value x",
					"fontsize" : 11.595187,
					"numinlets" : 1,
					"background" : 0,
					"color" : [ 0.8, 0.84, 0.71, 1.0 ],
					"numoutlets" : 1,
					"presentation_rect" : [ 0.0, 0.0, 0.0, 0.0 ],
					"ignoreclick" : 0,
					"outlettype" : [ "" ],
					"bgcolor" : [ 1.0, 1.0, 1.0, 1.0 ],
					"hidden" : 0,
					"fontname" : "Arial",
					"patching_rect" : [ 29.0, 389.0, 47.0, 20.0 ],
					"presentation" : 0,
					"id" : "obj-38",
					"textcolor" : [ 0.0, 0.0, 0.0, 1.0 ],
					"fontface" : 0
				}

			}
, 			{
				"box" : 				{
					"maxclass" : "newobj",
					"text" : "value y",
					"fontsize" : 11.595187,
					"numinlets" : 1,
					"background" : 0,
					"color" : [ 0.8, 0.84, 0.71, 1.0 ],
					"numoutlets" : 1,
					"presentation_rect" : [ 0.0, 0.0, 0.0, 0.0 ],
					"ignoreclick" : 0,
					"outlettype" : [ "" ],
					"bgcolor" : [ 1.0, 1.0, 1.0, 1.0 ],
					"hidden" : 0,
					"fontname" : "Arial",
					"patching_rect" : [ 213.0, 389.0, 47.0, 20.0 ],
					"presentation" : 0,
					"id" : "obj-37",
					"textcolor" : [ 0.0, 0.0, 0.0, 1.0 ],
					"fontface" : 0
				}

			}
, 			{
				"box" : 				{
					"maxclass" : "newobj",
					"text" : "value z",
					"fontsize" : 11.595187,
					"numinlets" : 1,
					"background" : 0,
					"color" : [ 0.8, 0.84, 0.71, 1.0 ],
					"numoutlets" : 1,
					"presentation_rect" : [ 0.0, 0.0, 0.0, 0.0 ],
					"ignoreclick" : 0,
					"outlettype" : [ "" ],
					"bgcolor" : [ 1.0, 1.0, 1.0, 1.0 ],
					"hidden" : 0,
					"fontname" : "Arial",
					"patching_rect" : [ 397.0, 389.0, 47.0, 20.0 ],
					"presentation" : 0,
					"id" : "obj-36",
					"textcolor" : [ 0.0, 0.0, 0.0, 1.0 ],
					"fontface" : 0
				}

			}
, 			{
				"box" : 				{
					"maxclass" : "newobj",
					"text" : "expr $f2*sin($f1)",
					"fontsize" : 11.595187,
					"numinlets" : 2,
					"background" : 0,
					"color" : [ 0.8, 0.84, 0.71, 1.0 ],
					"numoutlets" : 1,
					"presentation_rect" : [ 0.0, 0.0, 0.0, 0.0 ],
					"ignoreclick" : 0,
					"outlettype" : [ "" ],
					"bgcolor" : [ 1.0, 1.0, 1.0, 1.0 ],
					"hidden" : 0,
					"fontname" : "Arial",
					"patching_rect" : [ 397.0, 362.0, 96.0, 20.0 ],
					"presentation" : 0,
					"id" : "obj-35",
					"textcolor" : [ 0.0, 0.0, 0.0, 1.0 ],
					"fontface" : 0
				}

			}
, 			{
				"box" : 				{
					"maxclass" : "newobj",
					"text" : "expr $f3*sin($f1*$f4)-cos($f2*$f5)",
					"fontsize" : 11.595187,
					"numinlets" : 5,
					"background" : 0,
					"color" : [ 0.8, 0.84, 0.71, 1.0 ],
					"numoutlets" : 1,
					"presentation_rect" : [ 0.0, 0.0, 0.0, 0.0 ],
					"ignoreclick" : 0,
					"outlettype" : [ "" ],
					"bgcolor" : [ 1.0, 1.0, 1.0, 1.0 ],
					"hidden" : 0,
					"fontname" : "Arial",
					"patching_rect" : [ 213.0, 362.0, 183.0, 20.0 ],
					"presentation" : 0,
					"id" : "obj-34",
					"textcolor" : [ 0.0, 0.0, 0.0, 1.0 ],
					"fontface" : 0
				}

			}
, 			{
				"box" : 				{
					"maxclass" : "newobj",
					"text" : "expr sin($f2*$f4)-$f3*cos($f1*$f5)",
					"fontsize" : 11.595187,
					"numinlets" : 5,
					"background" : 0,
					"color" : [ 0.113725, 0.592157, 0.003922, 1.0 ],
					"numoutlets" : 1,
					"presentation_rect" : [ 0.0, 0.0, 0.0, 0.0 ],
					"ignoreclick" : 0,
					"outlettype" : [ "" ],
					"bgcolor" : [ 1.0, 1.0, 1.0, 1.0 ],
					"hidden" : 0,
					"fontname" : "Arial",
					"patching_rect" : [ 29.0, 362.0, 183.0, 20.0 ],
					"presentation" : 0,
					"id" : "obj-31",
					"textcolor" : [ 0.0, 0.0, 0.0, 1.0 ],
					"fontface" : 0
				}

			}
, 			{
				"box" : 				{
					"maxclass" : "flonum",
					"triangle" : 1,
					"maximum" : "<none>",
					"fontsize" : 11.595187,
					"numinlets" : 1,
					"background" : 0,
					"mouseup" : 0,
					"numoutlets" : 2,
					"outputonclick" : 0,
					"bordercolor" : [ 0.5, 0.5, 0.5, 1.0 ],
					"presentation_rect" : [ 0.0, 0.0, 0.0, 0.0 ],
					"ignoreclick" : 0,
					"outlettype" : [ "float", "bang" ],
					"hbgcolor" : [ 0.0, 0.0, 0.0, 1.0 ],
					"bgcolor" : [ 1.0, 1.0, 1.0, 1.0 ],
					"hidden" : 0,
					"fontname" : "Arial",
					"patching_rect" : [ 596.0, 178.0, 50.0, 20.0 ],
					"htextcolor" : [ 1.0, 1.0, 1.0, 1.0 ],
					"presentation" : 0,
					"id" : "obj-29",
					"minimum" : "<none>",
					"textcolor" : [ 0.0, 0.0, 0.0, 1.0 ],
					"cantchange" : 0,
					"triscale" : 1.0,
					"numdecimalplaces" : 0,
					"fontface" : 0
				}

			}
, 			{
				"box" : 				{
					"maxclass" : "flonum",
					"triangle" : 1,
					"maximum" : "<none>",
					"fontsize" : 11.595187,
					"numinlets" : 1,
					"background" : 0,
					"mouseup" : 0,
					"numoutlets" : 2,
					"outputonclick" : 0,
					"bordercolor" : [ 0.5, 0.5, 0.5, 1.0 ],
					"presentation_rect" : [ 0.0, 0.0, 0.0, 0.0 ],
					"ignoreclick" : 0,
					"outlettype" : [ "float", "bang" ],
					"hbgcolor" : [ 0.0, 0.0, 0.0, 1.0 ],
					"bgcolor" : [ 1.0, 1.0, 1.0, 1.0 ],
					"hidden" : 0,
					"fontname" : "Arial",
					"patching_rect" : [ 497.0, 178.0, 50.0, 20.0 ],
					"htextcolor" : [ 1.0, 1.0, 1.0, 1.0 ],
					"presentation" : 0,
					"id" : "obj-27",
					"minimum" : "<none>",
					"textcolor" : [ 0.0, 0.0, 0.0, 1.0 ],
					"cantchange" : 0,
					"triscale" : 1.0,
					"numdecimalplaces" : 0,
					"fontface" : 0
				}

			}
, 			{
				"box" : 				{
					"maxclass" : "flonum",
					"triangle" : 1,
					"maximum" : "<none>",
					"fontsize" : 11.595187,
					"numinlets" : 1,
					"background" : 0,
					"mouseup" : 0,
					"numoutlets" : 2,
					"outputonclick" : 0,
					"bordercolor" : [ 0.5, 0.5, 0.5, 1.0 ],
					"presentation_rect" : [ 0.0, 0.0, 0.0, 0.0 ],
					"ignoreclick" : 0,
					"outlettype" : [ "float", "bang" ],
					"hbgcolor" : [ 0.0, 0.0, 0.0, 1.0 ],
					"bgcolor" : [ 1.0, 1.0, 1.0, 1.0 ],
					"hidden" : 0,
					"fontname" : "Arial",
					"patching_rect" : [ 398.0, 178.0, 50.0, 20.0 ],
					"htextcolor" : [ 1.0, 1.0, 1.0, 1.0 ],
					"presentation" : 0,
					"id" : "obj-25",
					"minimum" : "<none>",
					"textcolor" : [ 0.0, 0.0, 0.0, 1.0 ],
					"cantchange" : 0,
					"triscale" : 1.0,
					"numdecimalplaces" : 0,
					"fontface" : 0
				}

			}
, 			{
				"box" : 				{
					"maxclass" : "flonum",
					"triangle" : 1,
					"maximum" : "<none>",
					"fontsize" : 11.595187,
					"numinlets" : 1,
					"background" : 0,
					"mouseup" : 0,
					"numoutlets" : 2,
					"outputonclick" : 0,
					"bordercolor" : [ 0.5, 0.5, 0.5, 1.0 ],
					"presentation_rect" : [ 0.0, 0.0, 0.0, 0.0 ],
					"ignoreclick" : 0,
					"outlettype" : [ "float", "bang" ],
					"hbgcolor" : [ 0.0, 0.0, 0.0, 1.0 ],
					"bgcolor" : [ 1.0, 1.0, 1.0, 1.0 ],
					"hidden" : 0,
					"fontname" : "Arial",
					"patching_rect" : [ 299.0, 178.0, 50.0, 20.0 ],
					"htextcolor" : [ 1.0, 1.0, 1.0, 1.0 ],
					"presentation" : 0,
					"id" : "obj-23",
					"minimum" : "<none>",
					"textcolor" : [ 0.0, 0.0, 0.0, 1.0 ],
					"cantchange" : 0,
					"triscale" : 1.0,
					"numdecimalplaces" : 0,
					"fontface" : 0
				}

			}
, 			{
				"box" : 				{
					"maxclass" : "flonum",
					"triangle" : 1,
					"maximum" : "<none>",
					"fontsize" : 11.595187,
					"numinlets" : 1,
					"background" : 0,
					"mouseup" : 0,
					"numoutlets" : 2,
					"outputonclick" : 0,
					"bordercolor" : [ 0.5, 0.5, 0.5, 1.0 ],
					"presentation_rect" : [ 0.0, 0.0, 0.0, 0.0 ],
					"ignoreclick" : 0,
					"outlettype" : [ "float", "bang" ],
					"hbgcolor" : [ 0.0, 0.0, 0.0, 1.0 ],
					"bgcolor" : [ 1.0, 1.0, 1.0, 1.0 ],
					"hidden" : 0,
					"fontname" : "Arial",
					"patching_rect" : [ 200.0, 178.0, 50.0, 20.0 ],
					"htextcolor" : [ 1.0, 1.0, 1.0, 1.0 ],
					"presentation" : 0,
					"id" : "obj-21",
					"minimum" : "<none>",
					"textcolor" : [ 0.0, 0.0, 0.0, 1.0 ],
					"cantchange" : 0,
					"triscale" : 1.0,
					"numdecimalplaces" : 0,
					"fontface" : 0
				}

			}
, 			{
				"box" : 				{
					"maxclass" : "toggle",
					"numinlets" : 1,
					"background" : 0,
					"numoutlets" : 1,
					"bordercolor" : [ 0.5, 0.5, 0.5, 1.0 ],
					"presentation_rect" : [ 0.0, 0.0, 0.0, 0.0 ],
					"ignoreclick" : 0,
					"outlettype" : [ "int" ],
					"bgcolor" : [ 1.0, 1.0, 1.0, 1.0 ],
					"hidden" : 0,
					"patching_rect" : [ 53.0, 448.0, 20.0, 20.0 ],
					"presentation" : 0,
					"id" : "obj-16",
					"checkedcolor" : [ 0.0, 0.0, 0.0, 1.0 ]
				}

			}
, 			{
				"box" : 				{
					"maxclass" : "newobj",
					"text" : "r compute",
					"fontsize" : 11.595187,
					"numinlets" : 0,
					"background" : 0,
					"color" : [ 0.8, 0.84, 0.71, 1.0 ],
					"numoutlets" : 1,
					"presentation_rect" : [ 0.0, 0.0, 0.0, 0.0 ],
					"ignoreclick" : 0,
					"outlettype" : [ "" ],
					"bgcolor" : [ 1.0, 1.0, 1.0, 1.0 ],
					"hidden" : 0,
					"fontname" : "Arial",
					"patching_rect" : [ 29.0, 257.0, 62.0, 20.0 ],
					"presentation" : 0,
					"id" : "obj-15",
					"textcolor" : [ 0.0, 0.0, 0.0, 1.0 ],
					"fontface" : 0
				}

			}
, 			{
				"box" : 				{
					"maxclass" : "newobj",
					"text" : "value z",
					"fontsize" : 11.595187,
					"numinlets" : 1,
					"background" : 0,
					"color" : [ 0.8, 0.84, 0.71, 1.0 ],
					"numoutlets" : 1,
					"presentation_rect" : [ 0.0, 0.0, 0.0, 0.0 ],
					"ignoreclick" : 0,
					"outlettype" : [ "" ],
					"bgcolor" : [ 1.0, 1.0, 1.0, 1.0 ],
					"hidden" : 0,
					"fontname" : "Arial",
					"patching_rect" : [ 124.0, 300.0, 47.0, 20.0 ],
					"presentation" : 0,
					"id" : "obj-13",
					"textcolor" : [ 0.0, 0.0, 0.0, 1.0 ],
					"fontface" : 0
				}

			}
, 			{
				"box" : 				{
					"maxclass" : "newobj",
					"text" : "value y",
					"fontsize" : 11.595187,
					"numinlets" : 1,
					"background" : 0,
					"color" : [ 0.8, 0.84, 0.71, 1.0 ],
					"numoutlets" : 1,
					"presentation_rect" : [ 0.0, 0.0, 0.0, 0.0 ],
					"ignoreclick" : 0,
					"outlettype" : [ "" ],
					"bgcolor" : [ 1.0, 1.0, 1.0, 1.0 ],
					"hidden" : 0,
					"fontname" : "Arial",
					"patching_rect" : [ 76.0, 300.0, 47.0, 20.0 ],
					"presentation" : 0,
					"id" : "obj-12",
					"textcolor" : [ 0.0, 0.0, 0.0, 1.0 ],
					"fontface" : 0
				}

			}
, 			{
				"box" : 				{
					"maxclass" : "newobj",
					"text" : "value x",
					"fontsize" : 11.595187,
					"numinlets" : 1,
					"background" : 0,
					"color" : [ 0.8, 0.84, 0.71, 1.0 ],
					"numoutlets" : 1,
					"presentation_rect" : [ 0.0, 0.0, 0.0, 0.0 ],
					"ignoreclick" : 0,
					"outlettype" : [ "" ],
					"bgcolor" : [ 1.0, 1.0, 1.0, 1.0 ],
					"hidden" : 0,
					"fontname" : "Arial",
					"patching_rect" : [ 29.0, 300.0, 47.0, 20.0 ],
					"presentation" : 0,
					"id" : "obj-11",
					"textcolor" : [ 0.0, 0.0, 0.0, 1.0 ],
					"fontface" : 0
				}

			}
, 			{
				"box" : 				{
					"maxclass" : "button",
					"numinlets" : 1,
					"background" : 0,
					"numoutlets" : 1,
					"presentation_rect" : [ 0.0, 0.0, 0.0, 0.0 ],
					"ignoreclick" : 0,
					"outlettype" : [ "bang" ],
					"bgcolor" : [ 0.91328, 0.91328, 0.91328, 0.75 ],
					"hidden" : 0,
					"fgcolor" : [ 1.0, 1.0, 1.0, 1.0 ],
					"patching_rect" : [ 19.0, 68.0, 20.0, 20.0 ],
					"outlinecolor" : [ 0.71328, 0.71328, 0.71328, 1.0 ],
					"presentation" : 0,
					"id" : "obj-6",
					"blinkcolor" : [ 1.0, 0.890196, 0.090196, 1.0 ]
				}

			}
, 			{
				"box" : 				{
					"maxclass" : "newobj",
					"text" : "r lcd",
					"fontsize" : 11.595187,
					"numinlets" : 0,
					"background" : 0,
					"color" : [ 0.8, 0.84, 0.71, 1.0 ],
					"numoutlets" : 1,
					"presentation_rect" : [ 0.0, 0.0, 0.0, 0.0 ],
					"ignoreclick" : 0,
					"outlettype" : [ "" ],
					"bgcolor" : [ 1.0, 1.0, 1.0, 1.0 ],
					"hidden" : 0,
					"fontname" : "Arial",
					"patching_rect" : [ 519.0, 256.0, 32.0, 20.0 ],
					"presentation" : 0,
					"id" : "obj-5",
					"textcolor" : [ 0.0, 0.0, 0.0, 1.0 ],
					"fontface" : 0
				}

			}
, 			{
				"box" : 				{
					"maxclass" : "newobj",
					"text" : "random 1000",
					"fontsize" : 11.595187,
					"numinlets" : 2,
					"background" : 0,
					"color" : [ 0.8, 0.84, 0.71, 1.0 ],
					"numoutlets" : 1,
					"presentation_rect" : [ 0.0, 0.0, 0.0, 0.0 ],
					"ignoreclick" : 0,
					"outlettype" : [ "int" ],
					"bgcolor" : [ 1.0, 1.0, 1.0, 1.0 ],
					"hidden" : 0,
					"fontname" : "Arial",
					"patching_rect" : [ 200.0, 118.0, 79.0, 20.0 ],
					"presentation" : 0,
					"id" : "obj-3",
					"textcolor" : [ 0.0, 0.0, 0.0, 1.0 ],
					"fontface" : 0
				}

			}
, 			{
				"box" : 				{
					"maxclass" : "comment",
					"text" : "\tx = sin(A*y)-z*cos(B*x);\n\ty = z*sin(C*x)-cos(D*y);\n\tz = E*sin(x);\n\n",
					"linecount" : 4,
					"fontsize" : 11.595187,
					"numinlets" : 1,
					"background" : 0,
					"numoutlets" : 0,
					"presentation_rect" : [ 0.0, 0.0, 0.0, 0.0 ],
					"ignoreclick" : 1,
					"bgcolor" : [ 1.0, 1.0, 1.0, 0.0 ],
					"hidden" : 0,
					"fontname" : "Arial",
					"patching_rect" : [ 278.0, 27.0, 150.0, 60.0 ],
					"frgb" : [ 0.0, 0.0, 0.0, 1.0 ],
					"presentation" : 0,
					"id" : "obj-2",
					"underline" : 0,
					"textcolor" : [ 0.0, 0.0, 0.0, 1.0 ],
					"fontface" : 0
				}

			}
, 			{
				"box" : 				{
					"maxclass" : "lcd",
					"numinlets" : 1,
					"background" : 0,
					"numoutlets" : 4,
					"enablesprites" : 0,
					"presentation_rect" : [ 0.0, 0.0, 0.0, 0.0 ],
					"ignoreclick" : 0,
					"outlettype" : [ "list", "list", "int", "" ],
					"hidden" : 0,
					"patching_rect" : [ 519.0, 293.0, 300.0, 300.0 ],
					"presentation" : 0,
					"id" : "obj-1",
					"border" : 1,
					"local" : 1,
					"bgtransparent" : 0,
					"idle" : 0
				}

			}
 ],
		"lines" : [ 			{
				"patchline" : 				{
					"source" : [ "obj-22", 0 ],
					"destination" : [ "obj-40", 0 ],
					"hidden" : 0,
					"color" : [ 1.0, 0.0, 0.0, 1.0 ],
					"midpoints" : [  ]
				}

			}
, 			{
				"patchline" : 				{
					"source" : [ "obj-22", 0 ],
					"destination" : [ "obj-41", 0 ],
					"hidden" : 0,
					"color" : [ 1.0, 0.0, 0.0, 1.0 ],
					"midpoints" : [  ]
				}

			}
, 			{
				"patchline" : 				{
					"source" : [ "obj-22", 0 ],
					"destination" : [ "obj-30", 0 ],
					"hidden" : 0,
					"color" : [ 1.0, 0.0, 0.0, 1.0 ],
					"midpoints" : [  ]
				}

			}
, 			{
				"patchline" : 				{
					"source" : [ "obj-22", 0 ],
					"destination" : [ "obj-32", 0 ],
					"hidden" : 0,
					"color" : [ 1.0, 0.0, 0.0, 1.0 ],
					"midpoints" : [  ]
				}

			}
, 			{
				"patchline" : 				{
					"source" : [ "obj-67", 0 ],
					"destination" : [ "obj-22", 0 ],
					"hidden" : 0,
					"color" : [ 0.0, 0.0, 0.0, 1.0 ],
					"midpoints" : [  ]
				}

			}
, 			{
				"patchline" : 				{
					"source" : [ "obj-24", 0 ],
					"destination" : [ "obj-43", 0 ],
					"hidden" : 0,
					"color" : [ 0.184314, 1.0, 0.0, 1.0 ],
					"midpoints" : [  ]
				}

			}
, 			{
				"patchline" : 				{
					"source" : [ "obj-24", 0 ],
					"destination" : [ "obj-42", 0 ],
					"hidden" : 0,
					"color" : [ 0.184314, 1.0, 0.0, 1.0 ],
					"midpoints" : [  ]
				}

			}
, 			{
				"patchline" : 				{
					"source" : [ "obj-24", 0 ],
					"destination" : [ "obj-28", 0 ],
					"hidden" : 0,
					"color" : [ 0.184314, 1.0, 0.0, 1.0 ],
					"midpoints" : [  ]
				}

			}
, 			{
				"patchline" : 				{
					"source" : [ "obj-24", 0 ],
					"destination" : [ "obj-32", 1 ],
					"hidden" : 0,
					"color" : [ 0.184314, 1.0, 0.0, 1.0 ],
					"midpoints" : [  ]
				}

			}
, 			{
				"patchline" : 				{
					"source" : [ "obj-68", 0 ],
					"destination" : [ "obj-24", 0 ],
					"hidden" : 0,
					"color" : [ 0.0, 0.0, 0.0, 1.0 ],
					"midpoints" : [  ]
				}

			}
, 			{
				"patchline" : 				{
					"source" : [ "obj-74", 0 ],
					"destination" : [ "obj-69", 0 ],
					"hidden" : 0,
					"color" : [ 0.0, 0.0, 0.0, 1.0 ],
					"midpoints" : [ 709.5, 35.0, 923.5, 35.0 ]
				}

			}
, 			{
				"patchline" : 				{
					"source" : [ "obj-74", 0 ],
					"destination" : [ "obj-68", 0 ],
					"hidden" : 0,
					"color" : [ 0.0, 0.0, 0.0, 1.0 ],
					"midpoints" : [ 709.5, 35.0, 816.5, 35.0 ]
				}

			}
, 			{
				"patchline" : 				{
					"source" : [ "obj-74", 0 ],
					"destination" : [ "obj-67", 0 ],
					"hidden" : 0,
					"color" : [ 0.0, 0.0, 0.0, 1.0 ],
					"midpoints" : [  ]
				}

			}
, 			{
				"patchline" : 				{
					"source" : [ "obj-16", 0 ],
					"destination" : [ "obj-70", 0 ],
					"hidden" : 0,
					"color" : [ 0.0, 0.0, 0.0, 1.0 ],
					"midpoints" : [  ]
				}

			}
, 			{
				"patchline" : 				{
					"source" : [ "obj-15", 0 ],
					"destination" : [ "obj-13", 0 ],
					"hidden" : 0,
					"color" : [ 0.0, 0.0, 0.0, 1.0 ],
					"midpoints" : [ 38.5, 286.0, 133.5, 286.0 ]
				}

			}
, 			{
				"patchline" : 				{
					"source" : [ "obj-15", 0 ],
					"destination" : [ "obj-12", 0 ],
					"hidden" : 0,
					"color" : [ 0.0, 0.0, 0.0, 1.0 ],
					"midpoints" : [ 38.5, 295.0, 85.5, 295.0 ]
				}

			}
, 			{
				"patchline" : 				{
					"source" : [ "obj-15", 0 ],
					"destination" : [ "obj-11", 0 ],
					"hidden" : 0,
					"color" : [ 0.0, 0.0, 0.0, 1.0 ],
					"midpoints" : [ 38.5, 286.0, 38.5, 295.0 ]
				}

			}
, 			{
				"patchline" : 				{
					"source" : [ "obj-15", 0 ],
					"destination" : [ "obj-60", 0 ],
					"hidden" : 0,
					"color" : [ 0.0, 0.0, 0.0, 1.0 ],
					"midpoints" : [ 38.5, 286.0, 182.5, 286.0 ]
				}

			}
, 			{
				"patchline" : 				{
					"source" : [ "obj-15", 0 ],
					"destination" : [ "obj-59", 0 ],
					"hidden" : 0,
					"color" : [ 0.0, 0.0, 0.0, 1.0 ],
					"midpoints" : [ 38.5, 286.0, 232.5, 286.0 ]
				}

			}
, 			{
				"patchline" : 				{
					"source" : [ "obj-15", 0 ],
					"destination" : [ "obj-58", 0 ],
					"hidden" : 0,
					"color" : [ 0.0, 0.0, 0.0, 1.0 ],
					"midpoints" : [ 38.5, 286.0, 282.5, 286.0 ]
				}

			}
, 			{
				"patchline" : 				{
					"source" : [ "obj-15", 0 ],
					"destination" : [ "obj-57", 0 ],
					"hidden" : 0,
					"color" : [ 0.0, 0.0, 0.0, 1.0 ],
					"midpoints" : [ 38.5, 286.0, 333.5, 286.0 ]
				}

			}
, 			{
				"patchline" : 				{
					"source" : [ "obj-15", 0 ],
					"destination" : [ "obj-56", 0 ],
					"hidden" : 0,
					"color" : [ 0.0, 0.0, 0.0, 1.0 ],
					"midpoints" : [ 38.5, 286.0, 384.5, 286.0 ]
				}

			}
, 			{
				"patchline" : 				{
					"source" : [ "obj-69", 0 ],
					"destination" : [ "obj-44", 0 ],
					"hidden" : 0,
					"color" : [ 0.0, 0.0, 0.0, 1.0 ],
					"midpoints" : [  ]
				}

			}
, 			{
				"patchline" : 				{
					"source" : [ "obj-63", 0 ],
					"destination" : [ "obj-66", 0 ],
					"hidden" : 0,
					"color" : [ 0.0, 0.0, 0.0, 1.0 ],
					"midpoints" : [ 28.5, 139.0, 47.0, 139.0, 47.0, 134.0, 122.5, 134.0 ]
				}

			}
, 			{
				"patchline" : 				{
					"source" : [ "obj-63", 0 ],
					"destination" : [ "obj-65", 0 ],
					"hidden" : 0,
					"color" : [ 0.0, 0.0, 0.0, 1.0 ],
					"midpoints" : [ 28.5, 139.0, 47.0, 139.0, 47.0, 134.0, 75.5, 134.0 ]
				}

			}
, 			{
				"patchline" : 				{
					"source" : [ "obj-6", 0 ],
					"destination" : [ "obj-63", 0 ],
					"hidden" : 0,
					"color" : [ 0.0, 0.0, 0.0, 1.0 ],
					"midpoints" : [  ]
				}

			}
, 			{
				"patchline" : 				{
					"source" : [ "obj-63", 0 ],
					"destination" : [ "obj-62", 0 ],
					"hidden" : 0,
					"color" : [ 0.0, 0.0, 0.0, 1.0 ],
					"midpoints" : [  ]
				}

			}
, 			{
				"patchline" : 				{
					"source" : [ "obj-50", 0 ],
					"destination" : [ "obj-61", 0 ],
					"hidden" : 0,
					"color" : [ 0.0, 0.0, 0.0, 1.0 ],
					"midpoints" : [  ]
				}

			}
, 			{
				"patchline" : 				{
					"source" : [ "obj-56", 0 ],
					"destination" : [ "obj-35", 1 ],
					"hidden" : 0,
					"color" : [ 0.721569, 0.705882, 0.078431, 1.0 ],
					"midpoints" : [  ]
				}

			}
, 			{
				"patchline" : 				{
					"source" : [ "obj-57", 0 ],
					"destination" : [ "obj-34", 4 ],
					"hidden" : 0,
					"color" : [ 0.721569, 0.705882, 0.078431, 1.0 ],
					"midpoints" : [  ]
				}

			}
, 			{
				"patchline" : 				{
					"source" : [ "obj-58", 0 ],
					"destination" : [ "obj-34", 3 ],
					"hidden" : 0,
					"color" : [ 0.721569, 0.705882, 0.078431, 1.0 ],
					"midpoints" : [  ]
				}

			}
, 			{
				"patchline" : 				{
					"source" : [ "obj-59", 0 ],
					"destination" : [ "obj-31", 4 ],
					"hidden" : 0,
					"color" : [ 0.721569, 0.705882, 0.078431, 1.0 ],
					"midpoints" : [  ]
				}

			}
, 			{
				"patchline" : 				{
					"source" : [ "obj-60", 0 ],
					"destination" : [ "obj-31", 3 ],
					"hidden" : 0,
					"color" : [ 0.721569, 0.705882, 0.078431, 1.0 ],
					"midpoints" : [  ]
				}

			}
, 			{
				"patchline" : 				{
					"source" : [ "obj-21", 0 ],
					"destination" : [ "obj-53", 0 ],
					"hidden" : 0,
					"color" : [ 0.0, 0.0, 0.0, 1.0 ],
					"midpoints" : [  ]
				}

			}
, 			{
				"patchline" : 				{
					"source" : [ "obj-23", 0 ],
					"destination" : [ "obj-52", 0 ],
					"hidden" : 0,
					"color" : [ 0.0, 0.0, 0.0, 1.0 ],
					"midpoints" : [  ]
				}

			}
, 			{
				"patchline" : 				{
					"source" : [ "obj-25", 0 ],
					"destination" : [ "obj-51", 0 ],
					"hidden" : 0,
					"color" : [ 0.0, 0.0, 0.0, 1.0 ],
					"midpoints" : [  ]
				}

			}
, 			{
				"patchline" : 				{
					"source" : [ "obj-27", 0 ],
					"destination" : [ "obj-54", 0 ],
					"hidden" : 0,
					"color" : [ 0.0, 0.0, 0.0, 1.0 ],
					"midpoints" : [  ]
				}

			}
, 			{
				"patchline" : 				{
					"source" : [ "obj-29", 0 ],
					"destination" : [ "obj-55", 0 ],
					"hidden" : 0,
					"color" : [ 0.0, 0.0, 0.0, 1.0 ],
					"midpoints" : [  ]
				}

			}
, 			{
				"patchline" : 				{
					"source" : [ "obj-39", 0 ],
					"destination" : [ "obj-47", 0 ],
					"hidden" : 0,
					"color" : [ 0.0, 0.0, 0.0, 1.0 ],
					"midpoints" : [  ]
				}

			}
, 			{
				"patchline" : 				{
					"source" : [ "obj-32", 0 ],
					"destination" : [ "obj-39", 0 ],
					"hidden" : 0,
					"color" : [ 0.0, 0.0, 0.0, 1.0 ],
					"midpoints" : [  ]
				}

			}
, 			{
				"patchline" : 				{
					"source" : [ "obj-28", 0 ],
					"destination" : [ "obj-32", 3 ],
					"hidden" : 0,
					"color" : [ 0.0, 0.0, 0.0, 1.0 ],
					"midpoints" : [  ]
				}

			}
, 			{
				"patchline" : 				{
					"source" : [ "obj-30", 0 ],
					"destination" : [ "obj-32", 2 ],
					"hidden" : 0,
					"color" : [ 0.0, 0.0, 0.0, 1.0 ],
					"midpoints" : [  ]
				}

			}
, 			{
				"patchline" : 				{
					"source" : [ "obj-44", 0 ],
					"destination" : [ "obj-42", 1 ],
					"hidden" : 0,
					"color" : [ 0.133333, 0.015686, 1.0, 1.0 ],
					"midpoints" : [  ]
				}

			}
, 			{
				"patchline" : 				{
					"source" : [ "obj-44", 0 ],
					"destination" : [ "obj-41", 1 ],
					"hidden" : 0,
					"color" : [ 0.133333, 0.015686, 1.0, 1.0 ],
					"midpoints" : [  ]
				}

			}
, 			{
				"patchline" : 				{
					"source" : [ "obj-44", 0 ],
					"destination" : [ "obj-43", 1 ],
					"hidden" : 0,
					"color" : [ 0.133333, 0.015686, 1.0, 1.0 ],
					"midpoints" : [  ]
				}

			}
, 			{
				"patchline" : 				{
					"source" : [ "obj-44", 0 ],
					"destination" : [ "obj-40", 1 ],
					"hidden" : 0,
					"color" : [ 0.133333, 0.015686, 1.0, 1.0 ],
					"midpoints" : [  ]
				}

			}
, 			{
				"patchline" : 				{
					"source" : [ "obj-46", 0 ],
					"destination" : [ "obj-47", 0 ],
					"hidden" : 0,
					"color" : [ 0.0, 0.0, 0.0, 1.0 ],
					"midpoints" : [ 852.5, 250.0, 709.5, 250.0 ]
				}

			}
, 			{
				"patchline" : 				{
					"source" : [ "obj-45", 0 ],
					"destination" : [ "obj-46", 0 ],
					"hidden" : 0,
					"color" : [ 0.0, 0.0, 0.0, 1.0 ],
					"midpoints" : [  ]
				}

			}
, 			{
				"patchline" : 				{
					"source" : [ "obj-8", 0 ],
					"destination" : [ "obj-23", 0 ],
					"hidden" : 0,
					"color" : [ 0.0, 0.0, 0.0, 1.0 ],
					"midpoints" : [  ]
				}

			}
, 			{
				"patchline" : 				{
					"source" : [ "obj-10", 0 ],
					"destination" : [ "obj-25", 0 ],
					"hidden" : 0,
					"color" : [ 0.0, 0.0, 0.0, 1.0 ],
					"midpoints" : [  ]
				}

			}
, 			{
				"patchline" : 				{
					"source" : [ "obj-17", 0 ],
					"destination" : [ "obj-27", 0 ],
					"hidden" : 0,
					"color" : [ 0.0, 0.0, 0.0, 1.0 ],
					"midpoints" : [  ]
				}

			}
, 			{
				"patchline" : 				{
					"source" : [ "obj-19", 0 ],
					"destination" : [ "obj-29", 0 ],
					"hidden" : 0,
					"color" : [ 0.0, 0.0, 0.0, 1.0 ],
					"midpoints" : [  ]
				}

			}
, 			{
				"patchline" : 				{
					"source" : [ "obj-6", 0 ],
					"destination" : [ "obj-20", 0 ],
					"hidden" : 0,
					"color" : [ 0.0, 0.0, 0.0, 1.0 ],
					"midpoints" : [ 28.5, 104.0, 605.5, 104.0 ]
				}

			}
, 			{
				"patchline" : 				{
					"source" : [ "obj-6", 0 ],
					"destination" : [ "obj-18", 0 ],
					"hidden" : 0,
					"color" : [ 0.0, 0.0, 0.0, 1.0 ],
					"midpoints" : [ 28.5, 104.0, 506.5, 104.0 ]
				}

			}
, 			{
				"patchline" : 				{
					"source" : [ "obj-6", 0 ],
					"destination" : [ "obj-14", 0 ],
					"hidden" : 0,
					"color" : [ 0.0, 0.0, 0.0, 1.0 ],
					"midpoints" : [ 28.5, 104.0, 407.5, 104.0 ]
				}

			}
, 			{
				"patchline" : 				{
					"source" : [ "obj-6", 0 ],
					"destination" : [ "obj-9", 0 ],
					"hidden" : 0,
					"color" : [ 0.0, 0.0, 0.0, 1.0 ],
					"midpoints" : [ 28.5, 104.0, 308.5, 104.0 ]
				}

			}
, 			{
				"patchline" : 				{
					"source" : [ "obj-20", 0 ],
					"destination" : [ "obj-19", 0 ],
					"hidden" : 0,
					"color" : [ 0.0, 0.0, 0.0, 1.0 ],
					"midpoints" : [  ]
				}

			}
, 			{
				"patchline" : 				{
					"source" : [ "obj-18", 0 ],
					"destination" : [ "obj-17", 0 ],
					"hidden" : 0,
					"color" : [ 0.0, 0.0, 0.0, 1.0 ],
					"midpoints" : [  ]
				}

			}
, 			{
				"patchline" : 				{
					"source" : [ "obj-14", 0 ],
					"destination" : [ "obj-10", 0 ],
					"hidden" : 0,
					"color" : [ 0.0, 0.0, 0.0, 1.0 ],
					"midpoints" : [  ]
				}

			}
, 			{
				"patchline" : 				{
					"source" : [ "obj-9", 0 ],
					"destination" : [ "obj-8", 0 ],
					"hidden" : 0,
					"color" : [ 0.0, 0.0, 0.0, 1.0 ],
					"midpoints" : [  ]
				}

			}
, 			{
				"patchline" : 				{
					"source" : [ "obj-7", 0 ],
					"destination" : [ "obj-21", 0 ],
					"hidden" : 0,
					"color" : [ 0.0, 0.0, 0.0, 1.0 ],
					"midpoints" : [  ]
				}

			}
, 			{
				"patchline" : 				{
					"source" : [ "obj-3", 0 ],
					"destination" : [ "obj-7", 0 ],
					"hidden" : 0,
					"color" : [ 0.0, 0.0, 0.0, 1.0 ],
					"midpoints" : [  ]
				}

			}
, 			{
				"patchline" : 				{
					"source" : [ "obj-6", 0 ],
					"destination" : [ "obj-3", 0 ],
					"hidden" : 0,
					"color" : [ 0.0, 0.0, 0.0, 1.0 ],
					"midpoints" : [ 28.5, 104.0, 209.5, 104.0 ]
				}

			}
, 			{
				"patchline" : 				{
					"source" : [ "obj-49", 0 ],
					"destination" : [ "obj-6", 0 ],
					"hidden" : 0,
					"color" : [ 0.0, 0.0, 0.0, 1.0 ],
					"midpoints" : [  ]
				}

			}
, 			{
				"patchline" : 				{
					"source" : [ "obj-5", 0 ],
					"destination" : [ "obj-1", 0 ],
					"hidden" : 0,
					"color" : [ 0.0, 0.0, 0.0, 1.0 ],
					"midpoints" : [  ]
				}

			}
, 			{
				"patchline" : 				{
					"source" : [ "obj-11", 0 ],
					"destination" : [ "obj-31", 0 ],
					"hidden" : 0,
					"color" : [ 0.639216, 0.015686, 0.015686, 1.0 ],
					"midpoints" : [  ]
				}

			}
, 			{
				"patchline" : 				{
					"source" : [ "obj-12", 0 ],
					"destination" : [ "obj-31", 1 ],
					"hidden" : 0,
					"color" : [ 0.0, 0.545098, 0.243137, 1.0 ],
					"midpoints" : [  ]
				}

			}
, 			{
				"patchline" : 				{
					"source" : [ "obj-13", 0 ],
					"destination" : [ "obj-31", 2 ],
					"hidden" : 0,
					"color" : [ 0.027451, 0.003922, 0.466667, 1.0 ],
					"midpoints" : [  ]
				}

			}
, 			{
				"patchline" : 				{
					"source" : [ "obj-11", 0 ],
					"destination" : [ "obj-34", 0 ],
					"hidden" : 0,
					"color" : [ 0.639216, 0.015686, 0.015686, 1.0 ],
					"midpoints" : [  ]
				}

			}
, 			{
				"patchline" : 				{
					"source" : [ "obj-12", 0 ],
					"destination" : [ "obj-34", 1 ],
					"hidden" : 0,
					"color" : [ 0.0, 0.545098, 0.243137, 1.0 ],
					"midpoints" : [  ]
				}

			}
, 			{
				"patchline" : 				{
					"source" : [ "obj-13", 0 ],
					"destination" : [ "obj-34", 2 ],
					"hidden" : 0,
					"color" : [ 0.027451, 0.003922, 0.466667, 1.0 ],
					"midpoints" : [  ]
				}

			}
, 			{
				"patchline" : 				{
					"source" : [ "obj-11", 0 ],
					"destination" : [ "obj-35", 0 ],
					"hidden" : 0,
					"color" : [ 0.639216, 0.015686, 0.015686, 1.0 ],
					"midpoints" : [  ]
				}

			}
, 			{
				"patchline" : 				{
					"source" : [ "obj-35", 0 ],
					"destination" : [ "obj-36", 0 ],
					"hidden" : 0,
					"color" : [ 0.027451, 0.003922, 0.466667, 1.0 ],
					"midpoints" : [  ]
				}

			}
, 			{
				"patchline" : 				{
					"source" : [ "obj-34", 0 ],
					"destination" : [ "obj-37", 0 ],
					"hidden" : 0,
					"color" : [ 0.0, 0.545098, 0.243137, 1.0 ],
					"midpoints" : [  ]
				}

			}
, 			{
				"patchline" : 				{
					"source" : [ "obj-31", 0 ],
					"destination" : [ "obj-38", 0 ],
					"hidden" : 0,
					"color" : [ 0.639216, 0.015686, 0.015686, 1.0 ],
					"midpoints" : [  ]
				}

			}
, 			{
				"patchline" : 				{
					"source" : [ "obj-40", 0 ],
					"destination" : [ "obj-45", 0 ],
					"hidden" : 0,
					"color" : [ 0.0, 0.0, 0.0, 1.0 ],
					"midpoints" : [  ]
				}

			}
, 			{
				"patchline" : 				{
					"source" : [ "obj-43", 0 ],
					"destination" : [ "obj-45", 1 ],
					"hidden" : 0,
					"color" : [ 0.0, 0.0, 0.0, 1.0 ],
					"midpoints" : [  ]
				}

			}
, 			{
				"patchline" : 				{
					"source" : [ "obj-41", 0 ],
					"destination" : [ "obj-45", 2 ],
					"hidden" : 0,
					"color" : [ 0.0, 0.0, 0.0, 1.0 ],
					"midpoints" : [  ]
				}

			}
, 			{
				"patchline" : 				{
					"source" : [ "obj-42", 0 ],
					"destination" : [ "obj-45", 3 ],
					"hidden" : 0,
					"color" : [ 0.0, 0.0, 0.0, 1.0 ],
					"midpoints" : [  ]
				}

			}
, 			{
				"patchline" : 				{
					"source" : [ "obj-48", 0 ],
					"destination" : [ "obj-49", 0 ],
					"hidden" : 0,
					"color" : [ 0.0, 0.0, 0.0, 1.0 ],
					"midpoints" : [  ]
				}

			}
, 			{
				"patchline" : 				{
					"source" : [ "obj-6", 0 ],
					"destination" : [ "obj-50", 0 ],
					"hidden" : 0,
					"color" : [ 0.0, 0.0, 0.0, 1.0 ],
					"midpoints" : [ 28.5, 104.0, 169.5, 104.0 ]
				}

			}
, 			{
				"patchline" : 				{
					"source" : [ "obj-70", 0 ],
					"destination" : [ "obj-71", 0 ],
					"hidden" : 0,
					"color" : [ 0.0, 0.0, 0.0, 1.0 ],
					"midpoints" : [  ]
				}

			}
, 			{
				"patchline" : 				{
					"source" : [ "obj-71", 1 ],
					"destination" : [ "obj-72", 0 ],
					"hidden" : 0,
					"color" : [ 0.0, 0.0, 0.0, 1.0 ],
					"midpoints" : [  ]
				}

			}
, 			{
				"patchline" : 				{
					"source" : [ "obj-71", 0 ],
					"destination" : [ "obj-73", 0 ],
					"hidden" : 0,
					"color" : [ 0.0, 0.0, 0.0, 1.0 ],
					"midpoints" : [  ]
				}

			}
, 			{
				"patchline" : 				{
					"source" : [ "obj-71", 2 ],
					"destination" : [ "obj-4", 0 ],
					"hidden" : 0,
					"color" : [ 0.0, 0.0, 0.0, 1.0 ],
					"midpoints" : [  ]
				}

			}
, 			{
				"patchline" : 				{
					"source" : [ "obj-4", 0 ],
					"destination" : [ "obj-64", 0 ],
					"hidden" : 0,
					"color" : [ 0.0, 0.0, 0.0, 1.0 ],
					"midpoints" : [  ]
				}

			}
 ]
	}

}
