{
	"patcher" : 	{
		"fileversion" : 1,
		"rect" : [ 25.0, 47.0, 640.0, 506.0 ],
		"bgcolor" : [ 1.0, 1.0, 1.0, 1.0 ],
		"bglocked" : 0,
		"defrect" : [ 25.0, 47.0, 640.0, 506.0 ],
		"openrect" : [ 0.0, 0.0, 0.0, 0.0 ],
		"openinpresentation" : 0,
		"default_fontsize" : 10.0,
		"default_fontface" : 0,
		"default_fontname" : "Arial",
		"gridonopen" : 0,
		"gridsize" : [ 15.0, 15.0 ],
		"gridsnaponopen" : 0,
		"toolbarvisible" : 1,
		"boxanimatetime" : 200,
		"imprint" : 1,
		"metadata" : [  ],
		"boxes" : [ 			{
				"box" : 				{
					"maxclass" : "comment",
					"text" : "where the heck is the mouse?",
					"fontsize" : 11.595187,
					"numinlets" : 1,
					"background" : 0,
					"numoutlets" : 0,
					"presentation_rect" : [ 0.0, 0.0, 0.0, 0.0 ],
					"ignoreclick" : 1,
					"bgcolor" : [ 1.0, 1.0, 1.0, 0.0 ],
					"hidden" : 0,
					"fontname" : "Arial",
					"patching_rect" : [ 400.0, 290.0, 165.0, 20.0 ],
					"frgb" : [ 0.0, 0.0, 0.0, 1.0 ],
					"presentation" : 0,
					"id" : "obj-2",
					"underline" : 0,
					"textcolor" : [ 0.0, 0.0, 0.0, 1.0 ],
					"fontface" : 0
				}

			}
, 			{
				"box" : 				{
					"maxclass" : "outlet",
					"hint" : "scaled y position",
					"annotation" : "scaled y position",
					"numinlets" : 1,
					"background" : 0,
					"numoutlets" : 0,
					"presentation_rect" : [ 0.0, 0.0, 0.0, 0.0 ],
					"ignoreclick" : 0,
					"hidden" : 0,
					"patching_rect" : [ 292.0, 287.0, 25.0, 25.0 ],
					"presentation" : 0,
					"id" : "obj-8",
					"comment" : "scaled y position"
				}

			}
, 			{
				"box" : 				{
					"maxclass" : "outlet",
					"hint" : "scaled x position",
					"annotation" : "scaled x position",
					"numinlets" : 1,
					"background" : 0,
					"numoutlets" : 0,
					"presentation_rect" : [ 0.0, 0.0, 0.0, 0.0 ],
					"ignoreclick" : 0,
					"hidden" : 0,
					"patching_rect" : [ 193.0, 287.0, 25.0, 25.0 ],
					"presentation" : 0,
					"id" : "obj-7",
					"comment" : "scaled x position"
				}

			}
, 			{
				"box" : 				{
					"maxclass" : "inlet",
					"hint" : "bang to poll mouse",
					"annotation" : "bang to poll mouse",
					"numinlets" : 0,
					"background" : 0,
					"numoutlets" : 1,
					"presentation_rect" : [ 0.0, 0.0, 0.0, 0.0 ],
					"ignoreclick" : 0,
					"outlettype" : [ "" ],
					"hidden" : 0,
					"patching_rect" : [ 118.0, 110.0, 25.0, 25.0 ],
					"presentation" : 0,
					"id" : "obj-6",
					"comment" : "bang to poll mouse"
				}

			}
, 			{
				"box" : 				{
					"maxclass" : "flonum",
					"triangle" : 1,
					"maximum" : "<none>",
					"fontsize" : 11.595187,
					"numinlets" : 1,
					"background" : 0,
					"mouseup" : 0,
					"numoutlets" : 2,
					"outputonclick" : 0,
					"bordercolor" : [ 0.5, 0.5, 0.5, 1.0 ],
					"presentation_rect" : [ 0.0, 0.0, 0.0, 0.0 ],
					"ignoreclick" : 0,
					"outlettype" : [ "float", "bang" ],
					"hbgcolor" : [ 0.0, 0.0, 0.0, 1.0 ],
					"bgcolor" : [ 1.0, 1.0, 1.0, 1.0 ],
					"hidden" : 0,
					"fontname" : "Arial",
					"patching_rect" : [ 292.0, 251.0, 50.0, 20.0 ],
					"htextcolor" : [ 1.0, 1.0, 1.0, 1.0 ],
					"presentation" : 0,
					"id" : "obj-25",
					"minimum" : "<none>",
					"textcolor" : [ 0.0, 0.0, 0.0, 1.0 ],
					"cantchange" : 0,
					"triscale" : 1.0,
					"numdecimalplaces" : 0,
					"fontface" : 0
				}

			}
, 			{
				"box" : 				{
					"maxclass" : "newobj",
					"text" : "scale 0 599 0. 1.",
					"fontsize" : 11.595187,
					"numinlets" : 6,
					"background" : 0,
					"color" : [ 0.8, 0.84, 0.71, 1.0 ],
					"numoutlets" : 1,
					"presentation_rect" : [ 0.0, 0.0, 0.0, 0.0 ],
					"ignoreclick" : 0,
					"outlettype" : [ "float" ],
					"bgcolor" : [ 1.0, 1.0, 1.0, 1.0 ],
					"hidden" : 0,
					"fontname" : "Arial",
					"patching_rect" : [ 292.0, 225.0, 96.0, 20.0 ],
					"presentation" : 0,
					"id" : "obj-1",
					"textcolor" : [ 0.0, 0.0, 0.0, 1.0 ],
					"fontface" : 0
				}

			}
, 			{
				"box" : 				{
					"maxclass" : "flonum",
					"triangle" : 1,
					"maximum" : "<none>",
					"fontsize" : 11.595187,
					"numinlets" : 1,
					"background" : 0,
					"mouseup" : 0,
					"numoutlets" : 2,
					"outputonclick" : 0,
					"bordercolor" : [ 0.5, 0.5, 0.5, 1.0 ],
					"presentation_rect" : [ 0.0, 0.0, 0.0, 0.0 ],
					"ignoreclick" : 0,
					"outlettype" : [ "float", "bang" ],
					"hbgcolor" : [ 0.0, 0.0, 0.0, 1.0 ],
					"bgcolor" : [ 1.0, 1.0, 1.0, 1.0 ],
					"hidden" : 0,
					"fontname" : "Arial",
					"patching_rect" : [ 193.0, 251.0, 50.0, 20.0 ],
					"htextcolor" : [ 1.0, 1.0, 1.0, 1.0 ],
					"presentation" : 0,
					"id" : "obj-24",
					"minimum" : "<none>",
					"textcolor" : [ 0.0, 0.0, 0.0, 1.0 ],
					"cantchange" : 0,
					"triscale" : 1.0,
					"numdecimalplaces" : 0,
					"fontface" : 0
				}

			}
, 			{
				"box" : 				{
					"maxclass" : "number",
					"triangle" : 1,
					"maximum" : "<none>",
					"fontsize" : 11.595187,
					"numinlets" : 1,
					"background" : 0,
					"mouseup" : 0,
					"numoutlets" : 2,
					"outputonclick" : 0,
					"bordercolor" : [ 0.5, 0.5, 0.5, 1.0 ],
					"format" : 0,
					"presentation_rect" : [ 0.0, 0.0, 0.0, 0.0 ],
					"ignoreclick" : 0,
					"outlettype" : [ "int", "bang" ],
					"hbgcolor" : [ 0.0, 0.0, 0.0, 1.0 ],
					"bgcolor" : [ 1.0, 1.0, 1.0, 1.0 ],
					"hidden" : 0,
					"fontname" : "Arial",
					"patching_rect" : [ 184.0, 184.0, 50.0, 20.0 ],
					"htextcolor" : [ 1.0, 1.0, 1.0, 1.0 ],
					"presentation" : 0,
					"id" : "obj-23",
					"minimum" : "<none>",
					"textcolor" : [ 0.0, 0.0, 0.0, 1.0 ],
					"cantchange" : 0,
					"triscale" : 1.0,
					"fontface" : 0
				}

			}
, 			{
				"box" : 				{
					"maxclass" : "number",
					"triangle" : 1,
					"maximum" : "<none>",
					"fontsize" : 11.595187,
					"numinlets" : 1,
					"background" : 0,
					"mouseup" : 0,
					"numoutlets" : 2,
					"outputonclick" : 0,
					"bordercolor" : [ 0.5, 0.5, 0.5, 1.0 ],
					"format" : 0,
					"presentation_rect" : [ 0.0, 0.0, 0.0, 0.0 ],
					"ignoreclick" : 0,
					"outlettype" : [ "int", "bang" ],
					"hbgcolor" : [ 0.0, 0.0, 0.0, 1.0 ],
					"bgcolor" : [ 1.0, 1.0, 1.0, 1.0 ],
					"hidden" : 0,
					"fontname" : "Arial",
					"patching_rect" : [ 131.0, 184.0, 50.0, 20.0 ],
					"htextcolor" : [ 1.0, 1.0, 1.0, 1.0 ],
					"presentation" : 0,
					"id" : "obj-22",
					"minimum" : "<none>",
					"textcolor" : [ 0.0, 0.0, 0.0, 1.0 ],
					"cantchange" : 0,
					"triscale" : 1.0,
					"fontface" : 0
				}

			}
, 			{
				"box" : 				{
					"maxclass" : "newobj",
					"text" : "scale 0 799 0. 1.",
					"fontsize" : 11.595187,
					"numinlets" : 6,
					"background" : 0,
					"color" : [ 0.8, 0.84, 0.71, 1.0 ],
					"numoutlets" : 1,
					"presentation_rect" : [ 0.0, 0.0, 0.0, 0.0 ],
					"ignoreclick" : 0,
					"outlettype" : [ "float" ],
					"bgcolor" : [ 1.0, 1.0, 1.0, 1.0 ],
					"hidden" : 0,
					"fontname" : "Arial",
					"patching_rect" : [ 193.0, 225.0, 96.0, 20.0 ],
					"presentation" : 0,
					"id" : "obj-21",
					"textcolor" : [ 0.0, 0.0, 0.0, 1.0 ],
					"fontface" : 0
				}

			}
, 			{
				"box" : 				{
					"maxclass" : "number",
					"triangle" : 1,
					"maximum" : "<none>",
					"fontsize" : 11.595187,
					"numinlets" : 1,
					"background" : 0,
					"mouseup" : 0,
					"numoutlets" : 2,
					"outputonclick" : 0,
					"bordercolor" : [ 0.5, 0.5, 0.5, 1.0 ],
					"format" : 0,
					"presentation_rect" : [ 0.0, 0.0, 0.0, 0.0 ],
					"ignoreclick" : 0,
					"outlettype" : [ "int", "bang" ],
					"hbgcolor" : [ 0.0, 0.0, 0.0, 1.0 ],
					"bgcolor" : [ 1.0, 1.0, 1.0, 1.0 ],
					"hidden" : 0,
					"fontname" : "Arial",
					"patching_rect" : [ 417.0, 184.0, 50.0, 20.0 ],
					"htextcolor" : [ 1.0, 1.0, 1.0, 1.0 ],
					"presentation" : 0,
					"id" : "obj-20",
					"minimum" : "<none>",
					"textcolor" : [ 0.0, 0.0, 0.0, 1.0 ],
					"cantchange" : 0,
					"triscale" : 1.0,
					"fontface" : 0
				}

			}
, 			{
				"box" : 				{
					"maxclass" : "number",
					"triangle" : 1,
					"maximum" : "<none>",
					"fontsize" : 11.595187,
					"numinlets" : 1,
					"background" : 0,
					"mouseup" : 0,
					"numoutlets" : 2,
					"outputonclick" : 0,
					"bordercolor" : [ 0.5, 0.5, 0.5, 1.0 ],
					"format" : 0,
					"presentation_rect" : [ 0.0, 0.0, 0.0, 0.0 ],
					"ignoreclick" : 0,
					"outlettype" : [ "int", "bang" ],
					"hbgcolor" : [ 0.0, 0.0, 0.0, 1.0 ],
					"bgcolor" : [ 1.0, 1.0, 1.0, 1.0 ],
					"hidden" : 0,
					"fontname" : "Arial",
					"patching_rect" : [ 360.0, 184.0, 50.0, 20.0 ],
					"htextcolor" : [ 1.0, 1.0, 1.0, 1.0 ],
					"presentation" : 0,
					"id" : "obj-19",
					"minimum" : "<none>",
					"textcolor" : [ 0.0, 0.0, 0.0, 1.0 ],
					"cantchange" : 0,
					"triscale" : 1.0,
					"fontface" : 0
				}

			}
, 			{
				"box" : 				{
					"maxclass" : "number",
					"triangle" : 1,
					"maximum" : "<none>",
					"fontsize" : 11.595187,
					"numinlets" : 1,
					"background" : 0,
					"mouseup" : 0,
					"numoutlets" : 2,
					"outputonclick" : 0,
					"bordercolor" : [ 0.5, 0.5, 0.5, 1.0 ],
					"format" : 0,
					"presentation_rect" : [ 0.0, 0.0, 0.0, 0.0 ],
					"ignoreclick" : 0,
					"outlettype" : [ "int", "bang" ],
					"hbgcolor" : [ 0.0, 0.0, 0.0, 1.0 ],
					"bgcolor" : [ 1.0, 1.0, 1.0, 1.0 ],
					"hidden" : 0,
					"fontname" : "Arial",
					"patching_rect" : [ 304.0, 184.0, 50.0, 20.0 ],
					"htextcolor" : [ 1.0, 1.0, 1.0, 1.0 ],
					"presentation" : 0,
					"id" : "obj-18",
					"minimum" : "<none>",
					"textcolor" : [ 0.0, 0.0, 0.0, 1.0 ],
					"cantchange" : 0,
					"triscale" : 1.0,
					"fontface" : 0
				}

			}
, 			{
				"box" : 				{
					"maxclass" : "number",
					"triangle" : 1,
					"maximum" : "<none>",
					"fontsize" : 11.595187,
					"numinlets" : 1,
					"background" : 0,
					"mouseup" : 0,
					"numoutlets" : 2,
					"outputonclick" : 0,
					"bordercolor" : [ 0.5, 0.5, 0.5, 1.0 ],
					"format" : 0,
					"presentation_rect" : [ 0.0, 0.0, 0.0, 0.0 ],
					"ignoreclick" : 0,
					"outlettype" : [ "int", "bang" ],
					"hbgcolor" : [ 0.0, 0.0, 0.0, 1.0 ],
					"bgcolor" : [ 1.0, 1.0, 1.0, 1.0 ],
					"hidden" : 0,
					"fontname" : "Arial",
					"patching_rect" : [ 247.0, 184.0, 50.0, 20.0 ],
					"htextcolor" : [ 1.0, 1.0, 1.0, 1.0 ],
					"presentation" : 0,
					"id" : "obj-17",
					"minimum" : "<none>",
					"textcolor" : [ 0.0, 0.0, 0.0, 1.0 ],
					"cantchange" : 0,
					"triscale" : 1.0,
					"fontface" : 0
				}

			}
, 			{
				"box" : 				{
					"maxclass" : "newobj",
					"text" : "mousestate",
					"fontsize" : 11.595187,
					"numinlets" : 1,
					"background" : 0,
					"color" : [ 0.8, 0.84, 0.71, 1.0 ],
					"numoutlets" : 5,
					"presentation_rect" : [ 0.0, 0.0, 0.0, 0.0 ],
					"ignoreclick" : 0,
					"outlettype" : [ "int", "int", "int", "int", "int" ],
					"bgcolor" : [ 1.0, 1.0, 1.0, 1.0 ],
					"hidden" : 0,
					"fontname" : "Arial",
					"patching_rect" : [ 118.0, 156.0, 70.0, 20.0 ],
					"presentation" : 0,
					"id" : "obj-16",
					"textcolor" : [ 0.0, 0.0, 0.0, 1.0 ],
					"fontface" : 0
				}

			}
, 			{
				"box" : 				{
					"maxclass" : "newobj",
					"text" : "unpack 0 0 0 0",
					"fontsize" : 11.595187,
					"numinlets" : 1,
					"background" : 0,
					"color" : [ 0.8, 0.84, 0.71, 1.0 ],
					"numoutlets" : 4,
					"presentation_rect" : [ 0.0, 0.0, 0.0, 0.0 ],
					"ignoreclick" : 0,
					"outlettype" : [ "int", "int", "int", "int" ],
					"bgcolor" : [ 1.0, 1.0, 1.0, 1.0 ],
					"hidden" : 0,
					"fontname" : "Arial",
					"patching_rect" : [ 247.0, 150.0, 189.0, 20.0 ],
					"presentation" : 0,
					"id" : "obj-13",
					"textcolor" : [ 0.0, 0.0, 0.0, 1.0 ],
					"fontface" : 0
				}

			}
, 			{
				"box" : 				{
					"maxclass" : "newobj",
					"text" : "screensize",
					"fontsize" : 11.595187,
					"numinlets" : 1,
					"background" : 0,
					"color" : [ 0.8, 0.84, 0.71, 1.0 ],
					"numoutlets" : 2,
					"presentation_rect" : [ 0.0, 0.0, 0.0, 0.0 ],
					"ignoreclick" : 0,
					"outlettype" : [ "list", "list" ],
					"bgcolor" : [ 1.0, 1.0, 1.0, 1.0 ],
					"hidden" : 0,
					"fontname" : "Arial",
					"patching_rect" : [ 247.0, 119.0, 66.0, 20.0 ],
					"presentation" : 0,
					"id" : "obj-12",
					"textcolor" : [ 0.0, 0.0, 0.0, 1.0 ],
					"fontface" : 0
				}

			}
, 			{
				"box" : 				{
					"maxclass" : "newobj",
					"text" : "loadbang",
					"fontsize" : 11.595187,
					"numinlets" : 1,
					"background" : 0,
					"color" : [ 0.8, 0.84, 0.71, 1.0 ],
					"numoutlets" : 1,
					"presentation_rect" : [ 0.0, 0.0, 0.0, 0.0 ],
					"ignoreclick" : 0,
					"outlettype" : [ "bang" ],
					"bgcolor" : [ 1.0, 1.0, 1.0, 1.0 ],
					"hidden" : 0,
					"fontname" : "Arial",
					"patching_rect" : [ 247.0, 84.0, 58.0, 20.0 ],
					"presentation" : 0,
					"id" : "obj-11",
					"textcolor" : [ 0.0, 0.0, 0.0, 1.0 ],
					"fontface" : 0
				}

			}
 ],
		"lines" : [ 			{
				"patchline" : 				{
					"source" : [ "obj-20", 0 ],
					"destination" : [ "obj-1", 2 ],
					"hidden" : 0,
					"color" : [ 0.0, 0.0, 0.0, 1.0 ],
					"midpoints" : [  ]
				}

			}
, 			{
				"patchline" : 				{
					"source" : [ "obj-23", 0 ],
					"destination" : [ "obj-1", 0 ],
					"hidden" : 0,
					"color" : [ 0.0, 0.0, 0.0, 1.0 ],
					"midpoints" : [  ]
				}

			}
, 			{
				"patchline" : 				{
					"source" : [ "obj-1", 0 ],
					"destination" : [ "obj-25", 0 ],
					"hidden" : 0,
					"color" : [ 0.0, 0.0, 0.0, 1.0 ],
					"midpoints" : [  ]
				}

			}
, 			{
				"patchline" : 				{
					"source" : [ "obj-21", 0 ],
					"destination" : [ "obj-24", 0 ],
					"hidden" : 0,
					"color" : [ 0.0, 0.0, 0.0, 1.0 ],
					"midpoints" : [  ]
				}

			}
, 			{
				"patchline" : 				{
					"source" : [ "obj-19", 0 ],
					"destination" : [ "obj-21", 2 ],
					"hidden" : 0,
					"color" : [ 0.0, 0.0, 0.0, 1.0 ],
					"midpoints" : [  ]
				}

			}
, 			{
				"patchline" : 				{
					"source" : [ "obj-22", 0 ],
					"destination" : [ "obj-21", 0 ],
					"hidden" : 0,
					"color" : [ 0.0, 0.0, 0.0, 1.0 ],
					"midpoints" : [  ]
				}

			}
, 			{
				"patchline" : 				{
					"source" : [ "obj-16", 2 ],
					"destination" : [ "obj-23", 0 ],
					"hidden" : 0,
					"color" : [ 0.0, 0.0, 0.0, 1.0 ],
					"midpoints" : [ 153.0, 178.0, 193.5, 178.0 ]
				}

			}
, 			{
				"patchline" : 				{
					"source" : [ "obj-16", 1 ],
					"destination" : [ "obj-22", 0 ],
					"hidden" : 0,
					"color" : [ 0.0, 0.0, 0.0, 1.0 ],
					"midpoints" : [  ]
				}

			}
, 			{
				"patchline" : 				{
					"source" : [ "obj-13", 3 ],
					"destination" : [ "obj-20", 0 ],
					"hidden" : 0,
					"color" : [ 0.0, 0.0, 0.0, 1.0 ],
					"midpoints" : [  ]
				}

			}
, 			{
				"patchline" : 				{
					"source" : [ "obj-13", 2 ],
					"destination" : [ "obj-19", 0 ],
					"hidden" : 0,
					"color" : [ 0.0, 0.0, 0.0, 1.0 ],
					"midpoints" : [  ]
				}

			}
, 			{
				"patchline" : 				{
					"source" : [ "obj-13", 1 ],
					"destination" : [ "obj-18", 0 ],
					"hidden" : 0,
					"color" : [ 0.0, 0.0, 0.0, 1.0 ],
					"midpoints" : [  ]
				}

			}
, 			{
				"patchline" : 				{
					"source" : [ "obj-13", 0 ],
					"destination" : [ "obj-17", 0 ],
					"hidden" : 0,
					"color" : [ 0.0, 0.0, 0.0, 1.0 ],
					"midpoints" : [  ]
				}

			}
, 			{
				"patchline" : 				{
					"source" : [ "obj-12", 0 ],
					"destination" : [ "obj-13", 0 ],
					"hidden" : 0,
					"color" : [ 0.0, 0.0, 0.0, 1.0 ],
					"midpoints" : [  ]
				}

			}
, 			{
				"patchline" : 				{
					"source" : [ "obj-11", 0 ],
					"destination" : [ "obj-12", 0 ],
					"hidden" : 0,
					"color" : [ 0.0, 0.0, 0.0, 1.0 ],
					"midpoints" : [  ]
				}

			}
, 			{
				"patchline" : 				{
					"source" : [ "obj-6", 0 ],
					"destination" : [ "obj-16", 0 ],
					"hidden" : 0,
					"color" : [ 0.0, 0.0, 0.0, 1.0 ],
					"midpoints" : [  ]
				}

			}
, 			{
				"patchline" : 				{
					"source" : [ "obj-24", 0 ],
					"destination" : [ "obj-7", 0 ],
					"hidden" : 0,
					"color" : [ 0.0, 0.0, 0.0, 1.0 ],
					"midpoints" : [  ]
				}

			}
, 			{
				"patchline" : 				{
					"source" : [ "obj-25", 0 ],
					"destination" : [ "obj-8", 0 ],
					"hidden" : 0,
					"color" : [ 0.0, 0.0, 0.0, 1.0 ],
					"midpoints" : [  ]
				}

			}
 ]
	}

}
