{
	"patcher" : 	{
		"fileversion" : 1,
		"appversion" : 		{
			"major" : 6,
			"minor" : 1,
			"revision" : 3,
			"architecture" : "x64"
		}
,
		"rect" : [ 92.0, 47.0, 772.0, 721.0 ],
		"bgcolor" : [ 0.93, 0.93, 0.92, 1.0 ],
		"bglocked" : 0,
		"openinpresentation" : 0,
		"default_fontsize" : 11.595187,
		"default_fontface" : 0,
		"default_fontname" : "Arial",
		"gridonopen" : 0,
		"gridsize" : [ 15.0, 15.0 ],
		"gridsnaponopen" : 0,
		"statusbarvisible" : 2,
		"toolbarvisible" : 1,
		"boxanimatetime" : 200,
		"imprint" : 0,
		"enablehscroll" : 1,
		"enablevscroll" : 1,
		"devicewidth" : 0.0,
		"description" : "",
		"digest" : "",
		"tags" : "",
		"showrootpatcherontab" : 0,
		"showontab" : 0,
		"boxes" : [ 			{
				"box" : 				{
					"color" : [ 0.734694, 0.734694, 0.734694, 1.0 ],
					"fontname" : "Arial",
					"fontsize" : 12.0,
					"hidden" : 1,
					"id" : "obj-11",
					"maxclass" : "newobj",
					"numinlets" : 0,
					"numoutlets" : 0,
					"patcher" : 					{
						"fileversion" : 1,
						"appversion" : 						{
							"major" : 6,
							"minor" : 1,
							"revision" : 3,
							"architecture" : "x64"
						}
,
						"rect" : [ 92.0, 73.0, 772.0, 695.0 ],
						"bgcolor" : [ 0.93, 0.93, 0.92, 1.0 ],
						"bglocked" : 0,
						"openinpresentation" : 0,
						"default_fontsize" : 11.595187,
						"default_fontface" : 0,
						"default_fontname" : "Arial",
						"gridonopen" : 0,
						"gridsize" : [ 15.0, 15.0 ],
						"gridsnaponopen" : 0,
						"statusbarvisible" : 2,
						"toolbarvisible" : 1,
						"boxanimatetime" : 200,
						"imprint" : 0,
						"enablehscroll" : 1,
						"enablevscroll" : 1,
						"devicewidth" : 0.0,
						"description" : "",
						"digest" : "",
						"tags" : "",
						"showontab" : 1,
						"boxes" : [ 							{
								"box" : 								{
									"attr" : "optim",
									"fontname" : "Arial",
									"fontsize" : 11.595187,
									"id" : "obj-15",
									"maxclass" : "attrui",
									"numinlets" : 1,
									"numoutlets" : 1,
									"outlettype" : [ "" ],
									"patching_rect" : [ 576.0, 389.0, 161.0, 19.0 ]
								}

							}
, 							{
								"box" : 								{
									"fontname" : "Arial",
									"fontsize" : 11.595187,
									"id" : "obj-16",
									"maxclass" : "flonum",
									"numinlets" : 1,
									"numoutlets" : 2,
									"outlettype" : [ "float", "bang" ],
									"parameter_enable" : 0,
									"patching_rect" : [ 242.949997, 240.0, 50.0, 19.0 ]
								}

							}
, 							{
								"box" : 								{
									"attr" : "order",
									"fontname" : "Arial",
									"fontsize" : 11.595187,
									"id" : "obj-10",
									"maxclass" : "attrui",
									"numinlets" : 1,
									"numoutlets" : 1,
									"outlettype" : [ "" ],
									"patching_rect" : [ 545.0, 223.0, 150.0, 19.0 ]
								}

							}
, 							{
								"box" : 								{
									"fontname" : "Arial",
									"fontsize" : 11.595187,
									"id" : "obj-8",
									"maxclass" : "newobj",
									"numinlets" : 15,
									"numoutlets" : 15,
									"outlettype" : [ "signal", "signal", "signal", "signal", "signal", "signal", "signal", "signal", "signal", "signal", "signal", "signal", "signal", "signal", "signal" ],
									"patching_rect" : [ 38.5, 479.0, 253.700256, 19.0 ],
									"saved_object_attributes" : 									{
										"autoconnect" : 1,
										"negcolor" : [ 0.0, 0.0, 0.0, 1.0 ],
										"optim" : "inPhase",
										"order" : 7,
										"poscolor" : [ 1.0, 1.0, 1.0, 1.0 ]
									}
,
									"text" : "hoa.optim~ 7"
								}

							}
, 							{
								"box" : 								{
									"fontname" : "Arial",
									"fontsize" : 11.595187,
									"id" : "obj-4",
									"maxclass" : "newobj",
									"numinlets" : 2,
									"numoutlets" : 1,
									"outlettype" : [ "signal" ],
									"patching_rect" : [ 273.200256, 373.0, 59.0, 19.0 ],
									"text" : "hoa.pi~ 1"
								}

							}
, 							{
								"box" : 								{
									"color" : [ 1.0, 1.0, 1.0, 1.0 ],
									"fontname" : "Arial",
									"fontsize" : 11.595187,
									"id" : "obj-1",
									"maxclass" : "hoa.scope~",
									"numinlets" : 15,
									"numoutlets" : 0,
									"order" : 7,
									"patching_rect" : [ 494.0, 531.0, 118.0, 118.0 ]
								}

							}
, 							{
								"box" : 								{
									"fontname" : "Arial",
									"fontsize" : 11.595187,
									"id" : "obj-21",
									"maxclass" : "newobj",
									"numinlets" : 16,
									"numoutlets" : 15,
									"outlettype" : [ "signal", "signal", "signal", "signal", "signal", "signal", "signal", "signal", "signal", "signal", "signal", "signal", "signal", "signal", "signal" ],
									"patching_rect" : [ 38.5, 405.0, 253.700256, 19.0 ],
									"saved_object_attributes" : 									{
										"autoconnect" : 1,
										"negcolor" : [ 0.0, 0.0, 0.0, 1.0 ],
										"order" : 7,
										"poscolor" : [ 1.0, 1.0, 1.0, 1.0 ]
									}
,
									"text" : "hoa.rotate~ 7"
								}

							}
, 							{
								"box" : 								{
									"fontname" : "Arial",
									"fontsize" : 11.595187,
									"id" : "obj-23",
									"maxclass" : "flonum",
									"numinlets" : 1,
									"numoutlets" : 2,
									"outlettype" : [ "float", "bang" ],
									"parameter_enable" : 0,
									"patching_rect" : [ 257.553589, 311.0, 50.0, 19.0 ]
								}

							}
, 							{
								"box" : 								{
									"fontname" : "Arial",
									"fontsize" : 11.595187,
									"id" : "obj-3",
									"maxclass" : "newobj",
									"numinlets" : 16,
									"numoutlets" : 15,
									"outlettype" : [ "signal", "signal", "signal", "signal", "signal", "signal", "signal", "signal", "signal", "signal", "signal", "signal", "signal", "signal", "signal" ],
									"patching_rect" : [ 38.5, 348.0, 238.053574, 19.0 ],
									"saved_object_attributes" : 									{
										"autoconnect" : 1,
										"negcolor" : [ 0.0, 0.0, 0.0, 1.0 ],
										"order" : 7,
										"poscolor" : [ 1.0, 1.0, 1.0, 1.0 ]
									}
,
									"text" : "hoa.wider~ 7"
								}

							}
, 							{
								"box" : 								{
									"attr" : "autoconnect",
									"fontname" : "Arial",
									"fontsize" : 11.595187,
									"id" : "obj-11",
									"maxclass" : "attrui",
									"numinlets" : 1,
									"numoutlets" : 1,
									"outlettype" : [ "" ],
									"patching_rect" : [ 522.0, 187.0, 150.0, 19.0 ]
								}

							}
, 							{
								"box" : 								{
									"attr" : "negcolor",
									"fontname" : "Arial",
									"fontsize" : 11.595187,
									"id" : "obj-5",
									"maxclass" : "attrui",
									"numinlets" : 1,
									"numoutlets" : 1,
									"outlettype" : [ "" ],
									"patching_rect" : [ 500.0, 149.0, 150.0, 19.0 ]
								}

							}
, 							{
								"box" : 								{
									"attr" : "poscolor",
									"fontname" : "Arial",
									"fontsize" : 11.595187,
									"id" : "obj-2",
									"maxclass" : "attrui",
									"numinlets" : 1,
									"numoutlets" : 1,
									"outlettype" : [ "" ],
									"patching_rect" : [ 478.0, 111.0, 150.0, 19.0 ]
								}

							}
, 							{
								"box" : 								{
									"args" : [ "@size", 0 ],
									"id" : "obj-25",
									"maxclass" : "bpatcher",
									"name" : "hoa.helpcredit.maxpat",
									"numinlets" : 1,
									"numoutlets" : 0,
									"patching_rect" : [ 7.0, 655.0, 548.0, 23.0 ]
								}

							}
, 							{
								"box" : 								{
									"args" : [ "@obj-name", "hoa.encoder~", "@obj-desc", "An", "ambisonic", "encoder." ],
									"id" : "obj-56",
									"maxclass" : "bpatcher",
									"name" : "hoa.helpheader.maxpat",
									"numinlets" : 1,
									"numoutlets" : 0,
									"patching_rect" : [ 7.0, 6.0, 483.0, 56.0 ]
								}

							}
, 							{
								"box" : 								{
									"fontname" : "Arial",
									"fontsize" : 7.180877,
									"hidden" : 1,
									"id" : "obj-57",
									"linecount" : 2,
									"maxclass" : "newobj",
									"numinlets" : 4,
									"numoutlets" : 0,
									"patching_rect" : [ 419.0, 22.5, 52.0, 23.0 ],
									"text" : "bgcolor 0.93 0.93 0.92 1."
								}

							}
, 							{
								"box" : 								{
									"fontname" : "Arial",
									"fontsize" : 12.0,
									"frgb" : 0.0,
									"id" : "obj-60",
									"linecount" : 2,
									"maxclass" : "comment",
									"numinlets" : 1,
									"numoutlets" : 0,
									"patching_rect" : [ 7.0, 62.0, 483.0, 33.0 ],
									"text" : "hoa.encoder~ creates the circular harmonics of a signal depending of a given order \n(arg 1) and a position on a circle (last inlet).",
									"textcolor" : [ 0.30292, 0.30292, 0.30292, 1.0 ],
									"varname" : "autohelp_top_description[1]"
								}

							}
, 							{
								"box" : 								{
									"bgcolor" : [ 0.94324, 0.954082, 0.954082, 1.0 ],
									"bordercolor" : [ 0.235294, 0.235294, 0.235294, 0.2 ],
									"id" : "obj-31",
									"maxclass" : "panel",
									"numinlets" : 1,
									"numoutlets" : 0,
									"patching_rect" : [ 7.0, 62.0, 483.0, 33.0 ],
									"rounded" : 15,
									"shadow" : -1
								}

							}
, 							{
								"box" : 								{
									"args" : [ "@module", 3, "@noise", 1, "@vol", 80 ],
									"border" : 1,
									"id" : "obj-55",
									"maxclass" : "bpatcher",
									"name" : "hoa.helpaudio.maxpat",
									"numinlets" : 0,
									"numoutlets" : 1,
									"outlettype" : [ "signal" ],
									"patching_rect" : [ 38.750004, 106.0, 218.0, 87.0 ]
								}

							}
, 							{
								"box" : 								{
									"fontname" : "Arial",
									"fontsize" : 11.595187,
									"id" : "obj-13",
									"maxclass" : "message",
									"numinlets" : 2,
									"numoutlets" : 1,
									"outlettype" : [ "" ],
									"patching_rect" : [ 405.25, 567.0, 32.5, 17.0 ],
									"text" : "stop"
								}

							}
, 							{
								"box" : 								{
									"fontname" : "Arial",
									"fontsize" : 11.595187,
									"id" : "obj-7",
									"maxclass" : "message",
									"numinlets" : 2,
									"numoutlets" : 1,
									"outlettype" : [ "" ],
									"patching_rect" : [ 327.5, 567.0, 72.0, 17.0 ],
									"text" : "startwindow"
								}

							}
, 							{
								"box" : 								{
									"fontname" : "Arial",
									"fontsize" : 11.595187,
									"id" : "obj-40",
									"maxclass" : "newobj",
									"numinlets" : 16,
									"numoutlets" : 0,
									"patching_rect" : [ 39.0, 614.0, 253.200256, 19.0 ],
									"text" : "hoa.dac~ 1:16"
								}

							}
, 							{
								"box" : 								{
									"fontname" : "Arial",
									"fontsize" : 11.595187,
									"id" : "obj-34",
									"maxclass" : "newobj",
									"numinlets" : 2,
									"numoutlets" : 15,
									"outlettype" : [ "signal", "signal", "signal", "signal", "signal", "signal", "signal", "signal", "signal", "signal", "signal", "signal", "signal", "signal", "signal" ],
									"patching_rect" : [ 38.750004, 284.0, 208.0, 19.0 ],
									"saved_object_attributes" : 									{
										"autoconnect" : 1,
										"negcolor" : [ 0.0, 0.0, 0.0, 1.0 ],
										"order" : 7,
										"poscolor" : [ 1.0, 1.0, 1.0, 1.0 ]
									}
,
									"text" : "hoa.encoder~ 7 Salut Nounou !!!"
								}

							}
, 							{
								"box" : 								{
									"fontname" : "Arial",
									"fontsize" : 11.595187,
									"id" : "obj-12",
									"maxclass" : "newobj",
									"numinlets" : 15,
									"numoutlets" : 16,
									"outlettype" : [ "signal", "signal", "signal", "signal", "signal", "signal", "signal", "signal", "signal", "signal", "signal", "signal", "signal", "signal", "signal", "signal" ],
									"patching_rect" : [ 38.5, 559.0, 253.700256, 19.0 ],
									"saved_object_attributes" : 									{
										"angles" : [ 0.0, 22.5, 45.0, 67.5, 90.0, 112.5, 135.0, 157.5, 180.0, 202.5, 225.0, 247.5, 270.0, 292.5, 315.0, 337.5 ],
										"autoconnect" : 1,
										"loudspeakers" : 16,
										"ls" : 16,
										"ls_angles" : [ 0.0, 22.5, 45.0, 67.5, 90.0, 112.5, 135.0, 157.5, 180.0, 202.5, 225.0, 247.5, 270.0, 292.5, 315.0, 337.5 ],
										"mode" : "ambisonic",
										"pinnaesize" : "small",
										"restitution" : "panning",
										"yls" : 16,
										"zls" : [ 0.0, 22.5, 45.0, 67.5, 90.0, 112.5, 135.0, 157.5, 180.0, 202.5, 225.0, 247.5, 270.0, 292.5, 315.0, 337.5 ]
									}
,
									"text" : "hoa.decoder~ 7"
								}

							}
 ],
						"lines" : [ 							{
								"patchline" : 								{
									"destination" : [ "obj-21", 15 ],
									"disabled" : 0,
									"hidden" : 0,
									"midpoints" : [ 554.5, 402.0, 282.700256, 402.0 ],
									"source" : [ "obj-10", 0 ]
								}

							}
, 							{
								"patchline" : 								{
									"destination" : [ "obj-3", 15 ],
									"disabled" : 0,
									"hidden" : 0,
									"midpoints" : [ 554.5, 345.0, 267.053574, 345.0 ],
									"source" : [ "obj-10", 0 ]
								}

							}
, 							{
								"patchline" : 								{
									"destination" : [ "obj-34", 1 ],
									"disabled" : 0,
									"hidden" : 0,
									"midpoints" : [ 554.5, 270.0, 237.250004, 270.0 ],
									"source" : [ "obj-10", 0 ]
								}

							}
, 							{
								"patchline" : 								{
									"destination" : [ "obj-8", 0 ],
									"disabled" : 0,
									"hidden" : 0,
									"midpoints" : [ 554.5, 465.0, 48.0, 465.0 ],
									"source" : [ "obj-10", 0 ]
								}

							}
, 							{
								"patchline" : 								{
									"destination" : [ "obj-21", 15 ],
									"disabled" : 0,
									"hidden" : 0,
									"midpoints" : [ 531.5, 402.0, 282.700256, 402.0 ],
									"source" : [ "obj-11", 0 ]
								}

							}
, 							{
								"patchline" : 								{
									"destination" : [ "obj-3", 15 ],
									"disabled" : 0,
									"hidden" : 0,
									"midpoints" : [ 531.5, 345.0, 267.053574, 345.0 ],
									"source" : [ "obj-11", 0 ]
								}

							}
, 							{
								"patchline" : 								{
									"destination" : [ "obj-34", 1 ],
									"disabled" : 0,
									"hidden" : 0,
									"midpoints" : [ 531.5, 270.0, 237.250004, 270.0 ],
									"source" : [ "obj-11", 0 ]
								}

							}
, 							{
								"patchline" : 								{
									"destination" : [ "obj-8", 14 ],
									"disabled" : 0,
									"hidden" : 0,
									"midpoints" : [ 531.5, 465.0, 282.700256, 465.0 ],
									"source" : [ "obj-11", 0 ]
								}

							}
, 							{
								"patchline" : 								{
									"destination" : [ "obj-40", 15 ],
									"disabled" : 0,
									"hidden" : 0,
									"source" : [ "obj-12", 15 ]
								}

							}
, 							{
								"patchline" : 								{
									"destination" : [ "obj-40", 14 ],
									"disabled" : 0,
									"hidden" : 0,
									"source" : [ "obj-12", 14 ]
								}

							}
, 							{
								"patchline" : 								{
									"destination" : [ "obj-40", 13 ],
									"disabled" : 0,
									"hidden" : 0,
									"source" : [ "obj-12", 13 ]
								}

							}
, 							{
								"patchline" : 								{
									"destination" : [ "obj-40", 12 ],
									"disabled" : 0,
									"hidden" : 0,
									"source" : [ "obj-12", 12 ]
								}

							}
, 							{
								"patchline" : 								{
									"destination" : [ "obj-40", 11 ],
									"disabled" : 0,
									"hidden" : 0,
									"source" : [ "obj-12", 11 ]
								}

							}
, 							{
								"patchline" : 								{
									"destination" : [ "obj-40", 10 ],
									"disabled" : 0,
									"hidden" : 0,
									"source" : [ "obj-12", 10 ]
								}

							}
, 							{
								"patchline" : 								{
									"destination" : [ "obj-40", 9 ],
									"disabled" : 0,
									"hidden" : 0,
									"source" : [ "obj-12", 9 ]
								}

							}
, 							{
								"patchline" : 								{
									"destination" : [ "obj-40", 8 ],
									"disabled" : 0,
									"hidden" : 0,
									"source" : [ "obj-12", 8 ]
								}

							}
, 							{
								"patchline" : 								{
									"destination" : [ "obj-40", 7 ],
									"disabled" : 0,
									"hidden" : 0,
									"source" : [ "obj-12", 7 ]
								}

							}
, 							{
								"patchline" : 								{
									"destination" : [ "obj-40", 6 ],
									"disabled" : 0,
									"hidden" : 0,
									"source" : [ "obj-12", 6 ]
								}

							}
, 							{
								"patchline" : 								{
									"destination" : [ "obj-40", 5 ],
									"disabled" : 0,
									"hidden" : 0,
									"source" : [ "obj-12", 5 ]
								}

							}
, 							{
								"patchline" : 								{
									"destination" : [ "obj-40", 4 ],
									"disabled" : 0,
									"hidden" : 0,
									"source" : [ "obj-12", 4 ]
								}

							}
, 							{
								"patchline" : 								{
									"destination" : [ "obj-40", 3 ],
									"disabled" : 0,
									"hidden" : 0,
									"source" : [ "obj-12", 3 ]
								}

							}
, 							{
								"patchline" : 								{
									"destination" : [ "obj-40", 2 ],
									"disabled" : 0,
									"hidden" : 0,
									"source" : [ "obj-12", 2 ]
								}

							}
, 							{
								"patchline" : 								{
									"destination" : [ "obj-40", 1 ],
									"disabled" : 0,
									"hidden" : 0,
									"source" : [ "obj-12", 1 ]
								}

							}
, 							{
								"patchline" : 								{
									"destination" : [ "obj-40", 0 ],
									"disabled" : 0,
									"hidden" : 0,
									"source" : [ "obj-12", 0 ]
								}

							}
, 							{
								"patchline" : 								{
									"destination" : [ "obj-40", 15 ],
									"disabled" : 0,
									"hidden" : 0,
									"midpoints" : [ 414.75, 597.0, 282.700256, 597.0 ],
									"source" : [ "obj-13", 0 ]
								}

							}
, 							{
								"patchline" : 								{
									"destination" : [ "obj-8", 0 ],
									"disabled" : 0,
									"hidden" : 0,
									"midpoints" : [ 585.5, 465.0, 48.0, 465.0 ],
									"source" : [ "obj-15", 0 ]
								}

							}
, 							{
								"patchline" : 								{
									"destination" : [ "obj-34", 1 ],
									"disabled" : 0,
									"hidden" : 0,
									"source" : [ "obj-16", 0 ]
								}

							}
, 							{
								"patchline" : 								{
									"destination" : [ "obj-21", 15 ],
									"disabled" : 0,
									"hidden" : 0,
									"midpoints" : [ 487.5, 402.0, 282.700256, 402.0 ],
									"source" : [ "obj-2", 0 ]
								}

							}
, 							{
								"patchline" : 								{
									"destination" : [ "obj-3", 15 ],
									"disabled" : 0,
									"hidden" : 0,
									"midpoints" : [ 487.5, 345.0, 267.053574, 345.0 ],
									"source" : [ "obj-2", 0 ]
								}

							}
, 							{
								"patchline" : 								{
									"destination" : [ "obj-34", 1 ],
									"disabled" : 0,
									"hidden" : 0,
									"midpoints" : [ 487.5, 270.0, 237.250004, 270.0 ],
									"source" : [ "obj-2", 0 ]
								}

							}
, 							{
								"patchline" : 								{
									"destination" : [ "obj-8", 0 ],
									"disabled" : 0,
									"hidden" : 0,
									"midpoints" : [ 487.5, 465.0, 48.0, 465.0 ],
									"source" : [ "obj-2", 0 ]
								}

							}
, 							{
								"patchline" : 								{
									"color" : [ 1.0, 1.0, 1.0, 1.0 ],
									"destination" : [ "obj-8", 14 ],
									"disabled" : 0,
									"hidden" : 0,
									"source" : [ "obj-21", 14 ]
								}

							}
, 							{
								"patchline" : 								{
									"color" : [ 0.0, 0.0, 0.0, 1.0 ],
									"destination" : [ "obj-8", 13 ],
									"disabled" : 0,
									"hidden" : 0,
									"source" : [ "obj-21", 13 ]
								}

							}
, 							{
								"patchline" : 								{
									"color" : [ 1.0, 1.0, 1.0, 1.0 ],
									"destination" : [ "obj-8", 12 ],
									"disabled" : 0,
									"hidden" : 0,
									"source" : [ "obj-21", 12 ]
								}

							}
, 							{
								"patchline" : 								{
									"color" : [ 0.0, 0.0, 0.0, 1.0 ],
									"destination" : [ "obj-8", 11 ],
									"disabled" : 0,
									"hidden" : 0,
									"source" : [ "obj-21", 11 ]
								}

							}
, 							{
								"patchline" : 								{
									"color" : [ 1.0, 1.0, 1.0, 1.0 ],
									"destination" : [ "obj-8", 10 ],
									"disabled" : 0,
									"hidden" : 0,
									"source" : [ "obj-21", 10 ]
								}

							}
, 							{
								"patchline" : 								{
									"color" : [ 0.0, 0.0, 0.0, 1.0 ],
									"destination" : [ "obj-8", 9 ],
									"disabled" : 0,
									"hidden" : 0,
									"source" : [ "obj-21", 9 ]
								}

							}
, 							{
								"patchline" : 								{
									"color" : [ 1.0, 1.0, 1.0, 1.0 ],
									"destination" : [ "obj-8", 8 ],
									"disabled" : 0,
									"hidden" : 0,
									"source" : [ "obj-21", 8 ]
								}

							}
, 							{
								"patchline" : 								{
									"color" : [ 0.0, 0.0, 0.0, 1.0 ],
									"destination" : [ "obj-8", 7 ],
									"disabled" : 0,
									"hidden" : 0,
									"source" : [ "obj-21", 7 ]
								}

							}
, 							{
								"patchline" : 								{
									"color" : [ 1.0, 1.0, 1.0, 1.0 ],
									"destination" : [ "obj-8", 6 ],
									"disabled" : 0,
									"hidden" : 0,
									"source" : [ "obj-21", 6 ]
								}

							}
, 							{
								"patchline" : 								{
									"color" : [ 0.0, 0.0, 0.0, 1.0 ],
									"destination" : [ "obj-8", 5 ],
									"disabled" : 0,
									"hidden" : 0,
									"source" : [ "obj-21", 5 ]
								}

							}
, 							{
								"patchline" : 								{
									"color" : [ 1.0, 1.0, 1.0, 1.0 ],
									"destination" : [ "obj-8", 4 ],
									"disabled" : 0,
									"hidden" : 0,
									"source" : [ "obj-21", 4 ]
								}

							}
, 							{
								"patchline" : 								{
									"color" : [ 0.0, 0.0, 0.0, 1.0 ],
									"destination" : [ "obj-8", 3 ],
									"disabled" : 0,
									"hidden" : 0,
									"source" : [ "obj-21", 3 ]
								}

							}
, 							{
								"patchline" : 								{
									"color" : [ 1.0, 1.0, 1.0, 1.0 ],
									"destination" : [ "obj-8", 2 ],
									"disabled" : 0,
									"hidden" : 0,
									"source" : [ "obj-21", 2 ]
								}

							}
, 							{
								"patchline" : 								{
									"color" : [ 0.0, 0.0, 0.0, 1.0 ],
									"destination" : [ "obj-8", 1 ],
									"disabled" : 0,
									"hidden" : 0,
									"source" : [ "obj-21", 1 ]
								}

							}
, 							{
								"patchline" : 								{
									"color" : [ 1.0, 1.0, 1.0, 1.0 ],
									"destination" : [ "obj-8", 0 ],
									"disabled" : 0,
									"hidden" : 0,
									"source" : [ "obj-21", 0 ]
								}

							}
, 							{
								"patchline" : 								{
									"destination" : [ "obj-3", 15 ],
									"disabled" : 0,
									"hidden" : 0,
									"source" : [ "obj-23", 0 ]
								}

							}
, 							{
								"patchline" : 								{
									"color" : [ 1.0, 1.0, 1.0, 1.0 ],
									"destination" : [ "obj-21", 14 ],
									"disabled" : 0,
									"hidden" : 0,
									"source" : [ "obj-3", 14 ]
								}

							}
, 							{
								"patchline" : 								{
									"color" : [ 0.0, 0.0, 0.0, 1.0 ],
									"destination" : [ "obj-21", 13 ],
									"disabled" : 0,
									"hidden" : 0,
									"source" : [ "obj-3", 13 ]
								}

							}
, 							{
								"patchline" : 								{
									"color" : [ 1.0, 1.0, 1.0, 1.0 ],
									"destination" : [ "obj-21", 12 ],
									"disabled" : 0,
									"hidden" : 0,
									"source" : [ "obj-3", 12 ]
								}

							}
, 							{
								"patchline" : 								{
									"color" : [ 0.0, 0.0, 0.0, 1.0 ],
									"destination" : [ "obj-21", 11 ],
									"disabled" : 0,
									"hidden" : 0,
									"source" : [ "obj-3", 11 ]
								}

							}
, 							{
								"patchline" : 								{
									"color" : [ 1.0, 1.0, 1.0, 1.0 ],
									"destination" : [ "obj-21", 10 ],
									"disabled" : 0,
									"hidden" : 0,
									"source" : [ "obj-3", 10 ]
								}

							}
, 							{
								"patchline" : 								{
									"color" : [ 0.0, 0.0, 0.0, 1.0 ],
									"destination" : [ "obj-21", 9 ],
									"disabled" : 0,
									"hidden" : 0,
									"source" : [ "obj-3", 9 ]
								}

							}
, 							{
								"patchline" : 								{
									"color" : [ 1.0, 1.0, 1.0, 1.0 ],
									"destination" : [ "obj-21", 8 ],
									"disabled" : 0,
									"hidden" : 0,
									"source" : [ "obj-3", 8 ]
								}

							}
, 							{
								"patchline" : 								{
									"color" : [ 0.0, 0.0, 0.0, 1.0 ],
									"destination" : [ "obj-21", 7 ],
									"disabled" : 0,
									"hidden" : 0,
									"source" : [ "obj-3", 7 ]
								}

							}
, 							{
								"patchline" : 								{
									"color" : [ 1.0, 1.0, 1.0, 1.0 ],
									"destination" : [ "obj-21", 6 ],
									"disabled" : 0,
									"hidden" : 0,
									"source" : [ "obj-3", 6 ]
								}

							}
, 							{
								"patchline" : 								{
									"color" : [ 0.0, 0.0, 0.0, 1.0 ],
									"destination" : [ "obj-21", 5 ],
									"disabled" : 0,
									"hidden" : 0,
									"source" : [ "obj-3", 5 ]
								}

							}
, 							{
								"patchline" : 								{
									"color" : [ 1.0, 1.0, 1.0, 1.0 ],
									"destination" : [ "obj-21", 4 ],
									"disabled" : 0,
									"hidden" : 0,
									"source" : [ "obj-3", 4 ]
								}

							}
, 							{
								"patchline" : 								{
									"color" : [ 0.0, 0.0, 0.0, 1.0 ],
									"destination" : [ "obj-21", 3 ],
									"disabled" : 0,
									"hidden" : 0,
									"source" : [ "obj-3", 3 ]
								}

							}
, 							{
								"patchline" : 								{
									"color" : [ 1.0, 1.0, 1.0, 1.0 ],
									"destination" : [ "obj-21", 2 ],
									"disabled" : 0,
									"hidden" : 0,
									"source" : [ "obj-3", 2 ]
								}

							}
, 							{
								"patchline" : 								{
									"color" : [ 0.0, 0.0, 0.0, 1.0 ],
									"destination" : [ "obj-21", 1 ],
									"disabled" : 0,
									"hidden" : 0,
									"source" : [ "obj-3", 1 ]
								}

							}
, 							{
								"patchline" : 								{
									"color" : [ 1.0, 1.0, 1.0, 1.0 ],
									"destination" : [ "obj-21", 0 ],
									"disabled" : 0,
									"hidden" : 0,
									"source" : [ "obj-3", 0 ]
								}

							}
, 							{
								"patchline" : 								{
									"color" : [ 1.0, 1.0, 1.0, 1.0 ],
									"destination" : [ "obj-3", 14 ],
									"disabled" : 0,
									"hidden" : 0,
									"source" : [ "obj-34", 14 ]
								}

							}
, 							{
								"patchline" : 								{
									"color" : [ 0.0, 0.0, 0.0, 1.0 ],
									"destination" : [ "obj-3", 13 ],
									"disabled" : 0,
									"hidden" : 0,
									"source" : [ "obj-34", 13 ]
								}

							}
, 							{
								"patchline" : 								{
									"color" : [ 1.0, 1.0, 1.0, 1.0 ],
									"destination" : [ "obj-3", 12 ],
									"disabled" : 0,
									"hidden" : 0,
									"source" : [ "obj-34", 12 ]
								}

							}
, 							{
								"patchline" : 								{
									"color" : [ 0.0, 0.0, 0.0, 1.0 ],
									"destination" : [ "obj-3", 11 ],
									"disabled" : 0,
									"hidden" : 0,
									"source" : [ "obj-34", 11 ]
								}

							}
, 							{
								"patchline" : 								{
									"color" : [ 1.0, 1.0, 1.0, 1.0 ],
									"destination" : [ "obj-3", 10 ],
									"disabled" : 0,
									"hidden" : 0,
									"source" : [ "obj-34", 10 ]
								}

							}
, 							{
								"patchline" : 								{
									"color" : [ 0.0, 0.0, 0.0, 1.0 ],
									"destination" : [ "obj-3", 9 ],
									"disabled" : 0,
									"hidden" : 0,
									"source" : [ "obj-34", 9 ]
								}

							}
, 							{
								"patchline" : 								{
									"color" : [ 1.0, 1.0, 1.0, 1.0 ],
									"destination" : [ "obj-3", 8 ],
									"disabled" : 0,
									"hidden" : 0,
									"source" : [ "obj-34", 8 ]
								}

							}
, 							{
								"patchline" : 								{
									"color" : [ 0.0, 0.0, 0.0, 1.0 ],
									"destination" : [ "obj-3", 7 ],
									"disabled" : 0,
									"hidden" : 0,
									"source" : [ "obj-34", 7 ]
								}

							}
, 							{
								"patchline" : 								{
									"color" : [ 1.0, 1.0, 1.0, 1.0 ],
									"destination" : [ "obj-3", 6 ],
									"disabled" : 0,
									"hidden" : 0,
									"source" : [ "obj-34", 6 ]
								}

							}
, 							{
								"patchline" : 								{
									"color" : [ 0.0, 0.0, 0.0, 1.0 ],
									"destination" : [ "obj-3", 5 ],
									"disabled" : 0,
									"hidden" : 0,
									"source" : [ "obj-34", 5 ]
								}

							}
, 							{
								"patchline" : 								{
									"color" : [ 1.0, 1.0, 1.0, 1.0 ],
									"destination" : [ "obj-3", 4 ],
									"disabled" : 0,
									"hidden" : 0,
									"source" : [ "obj-34", 4 ]
								}

							}
, 							{
								"patchline" : 								{
									"color" : [ 0.0, 0.0, 0.0, 1.0 ],
									"destination" : [ "obj-3", 3 ],
									"disabled" : 0,
									"hidden" : 0,
									"source" : [ "obj-34", 3 ]
								}

							}
, 							{
								"patchline" : 								{
									"color" : [ 1.0, 1.0, 1.0, 1.0 ],
									"destination" : [ "obj-3", 2 ],
									"disabled" : 0,
									"hidden" : 0,
									"source" : [ "obj-34", 2 ]
								}

							}
, 							{
								"patchline" : 								{
									"color" : [ 0.0, 0.0, 0.0, 1.0 ],
									"destination" : [ "obj-3", 1 ],
									"disabled" : 0,
									"hidden" : 0,
									"source" : [ "obj-34", 1 ]
								}

							}
, 							{
								"patchline" : 								{
									"color" : [ 1.0, 1.0, 1.0, 1.0 ],
									"destination" : [ "obj-3", 0 ],
									"disabled" : 0,
									"hidden" : 0,
									"source" : [ "obj-34", 0 ]
								}

							}
, 							{
								"patchline" : 								{
									"destination" : [ "obj-21", 15 ],
									"disabled" : 0,
									"hidden" : 0,
									"source" : [ "obj-4", 0 ]
								}

							}
, 							{
								"patchline" : 								{
									"destination" : [ "obj-21", 15 ],
									"disabled" : 0,
									"hidden" : 0,
									"midpoints" : [ 509.5, 402.0, 282.700256, 402.0 ],
									"source" : [ "obj-5", 0 ]
								}

							}
, 							{
								"patchline" : 								{
									"destination" : [ "obj-3", 15 ],
									"disabled" : 0,
									"hidden" : 0,
									"midpoints" : [ 509.5, 345.0, 267.053574, 345.0 ],
									"source" : [ "obj-5", 0 ]
								}

							}
, 							{
								"patchline" : 								{
									"destination" : [ "obj-34", 1 ],
									"disabled" : 0,
									"hidden" : 0,
									"midpoints" : [ 509.5, 270.0, 237.250004, 270.0 ],
									"source" : [ "obj-5", 0 ]
								}

							}
, 							{
								"patchline" : 								{
									"destination" : [ "obj-8", 0 ],
									"disabled" : 0,
									"hidden" : 0,
									"midpoints" : [ 509.5, 465.0, 48.0, 465.0 ],
									"source" : [ "obj-5", 0 ]
								}

							}
, 							{
								"patchline" : 								{
									"destination" : [ "obj-34", 0 ],
									"disabled" : 0,
									"hidden" : 0,
									"source" : [ "obj-55", 0 ]
								}

							}
, 							{
								"patchline" : 								{
									"destination" : [ "obj-40", 15 ],
									"disabled" : 0,
									"hidden" : 0,
									"midpoints" : [ 337.0, 597.0, 282.700256, 597.0 ],
									"source" : [ "obj-7", 0 ]
								}

							}
, 							{
								"patchline" : 								{
									"color" : [ 1.0, 1.0, 1.0, 1.0 ],
									"destination" : [ "obj-12", 14 ],
									"disabled" : 0,
									"hidden" : 0,
									"source" : [ "obj-8", 14 ]
								}

							}
, 							{
								"patchline" : 								{
									"color" : [ 0.0, 0.0, 0.0, 1.0 ],
									"destination" : [ "obj-12", 13 ],
									"disabled" : 0,
									"hidden" : 0,
									"source" : [ "obj-8", 13 ]
								}

							}
, 							{
								"patchline" : 								{
									"color" : [ 1.0, 1.0, 1.0, 1.0 ],
									"destination" : [ "obj-12", 12 ],
									"disabled" : 0,
									"hidden" : 0,
									"source" : [ "obj-8", 12 ]
								}

							}
, 							{
								"patchline" : 								{
									"color" : [ 0.0, 0.0, 0.0, 1.0 ],
									"destination" : [ "obj-12", 11 ],
									"disabled" : 0,
									"hidden" : 0,
									"source" : [ "obj-8", 11 ]
								}

							}
, 							{
								"patchline" : 								{
									"color" : [ 1.0, 1.0, 1.0, 1.0 ],
									"destination" : [ "obj-12", 10 ],
									"disabled" : 0,
									"hidden" : 0,
									"source" : [ "obj-8", 10 ]
								}

							}
, 							{
								"patchline" : 								{
									"color" : [ 0.0, 0.0, 0.0, 1.0 ],
									"destination" : [ "obj-12", 9 ],
									"disabled" : 0,
									"hidden" : 0,
									"source" : [ "obj-8", 9 ]
								}

							}
, 							{
								"patchline" : 								{
									"color" : [ 1.0, 1.0, 1.0, 1.0 ],
									"destination" : [ "obj-12", 8 ],
									"disabled" : 0,
									"hidden" : 0,
									"source" : [ "obj-8", 8 ]
								}

							}
, 							{
								"patchline" : 								{
									"color" : [ 0.0, 0.0, 0.0, 1.0 ],
									"destination" : [ "obj-12", 7 ],
									"disabled" : 0,
									"hidden" : 0,
									"source" : [ "obj-8", 7 ]
								}

							}
, 							{
								"patchline" : 								{
									"color" : [ 1.0, 1.0, 1.0, 1.0 ],
									"destination" : [ "obj-12", 6 ],
									"disabled" : 0,
									"hidden" : 0,
									"source" : [ "obj-8", 6 ]
								}

							}
, 							{
								"patchline" : 								{
									"color" : [ 0.0, 0.0, 0.0, 1.0 ],
									"destination" : [ "obj-12", 5 ],
									"disabled" : 0,
									"hidden" : 0,
									"source" : [ "obj-8", 5 ]
								}

							}
, 							{
								"patchline" : 								{
									"color" : [ 1.0, 1.0, 1.0, 1.0 ],
									"destination" : [ "obj-12", 4 ],
									"disabled" : 0,
									"hidden" : 0,
									"source" : [ "obj-8", 4 ]
								}

							}
, 							{
								"patchline" : 								{
									"color" : [ 0.0, 0.0, 0.0, 1.0 ],
									"destination" : [ "obj-12", 3 ],
									"disabled" : 0,
									"hidden" : 0,
									"source" : [ "obj-8", 3 ]
								}

							}
, 							{
								"patchline" : 								{
									"color" : [ 1.0, 1.0, 1.0, 1.0 ],
									"destination" : [ "obj-12", 2 ],
									"disabled" : 0,
									"hidden" : 0,
									"source" : [ "obj-8", 2 ]
								}

							}
, 							{
								"patchline" : 								{
									"color" : [ 0.0, 0.0, 0.0, 1.0 ],
									"destination" : [ "obj-12", 1 ],
									"disabled" : 0,
									"hidden" : 0,
									"source" : [ "obj-8", 1 ]
								}

							}
, 							{
								"patchline" : 								{
									"color" : [ 1.0, 1.0, 1.0, 1.0 ],
									"destination" : [ "obj-12", 0 ],
									"disabled" : 0,
									"hidden" : 0,
									"source" : [ "obj-8", 0 ]
								}

							}
 ]
					}
,
					"patching_rect" : [ 22.0, 27.0, 51.0, 20.0 ],
					"saved_object_attributes" : 					{
						"default_fontface" : 0,
						"default_fontname" : "Arial",
						"default_fontsize" : 11.595187,
						"description" : "",
						"digest" : "",
						"fontface" : 0,
						"fontname" : "Arial",
						"fontsize" : 11.595187,
						"globalpatchername" : "",
						"tags" : ""
					}
,
					"text" : "p basic",
					"textcolor" : [ 0.209184, 0.209184, 0.209184, 1.0 ]
				}

			}
, 			{
				"box" : 				{
					"color" : [ 0.734694, 0.734694, 0.734694, 1.0 ],
					"fontname" : "Arial",
					"fontsize" : 12.0,
					"hidden" : 1,
					"id" : "obj-24",
					"maxclass" : "newobj",
					"numinlets" : 0,
					"numoutlets" : 0,
					"patcher" : 					{
						"fileversion" : 1,
						"appversion" : 						{
							"major" : 6,
							"minor" : 1,
							"revision" : 3,
							"architecture" : "x64"
						}
,
						"rect" : [ 0.0, 26.0, 772.0, 695.0 ],
						"bglocked" : 0,
						"openinpresentation" : 0,
						"default_fontsize" : 13.0,
						"default_fontface" : 0,
						"default_fontname" : "Arial",
						"gridonopen" : 0,
						"gridsize" : [ 5.0, 5.0 ],
						"gridsnaponopen" : 0,
						"statusbarvisible" : 2,
						"toolbarvisible" : 1,
						"boxanimatetime" : 200,
						"imprint" : 0,
						"enablehscroll" : 1,
						"enablevscroll" : 1,
						"devicewidth" : 0.0,
						"description" : "",
						"digest" : "",
						"tags" : "",
						"showontab" : 1,
						"boxes" : [  ],
						"lines" : [  ]
					}
,
					"patching_rect" : [ 73.0, 27.0, 50.0, 20.0 ],
					"saved_object_attributes" : 					{
						"default_fontface" : 0,
						"default_fontname" : "Arial",
						"default_fontsize" : 13.0,
						"description" : "",
						"digest" : "",
						"fontface" : 0,
						"fontname" : "Arial",
						"fontsize" : 13.0,
						"globalpatchername" : "",
						"tags" : ""
					}
,
					"text" : "p ?",
					"textcolor" : [ 0.209184, 0.209184, 0.209184, 1.0 ],
					"varname" : "q_tab"
				}

			}
 ],
		"lines" : [  ],
		"dependency_cache" : [ 			{
				"name" : "hoa.helpaudio.maxpat",
				"bootpath" : "/Users/Pierre/SourceTree/HoaLibrary/_prerelease/max-package/misc/others",
				"patcherrelativepath" : "../../_prerelease/max-package/misc/others",
				"type" : "JSON",
				"implicit" : 1
			}
, 			{
				"name" : "hoa.helpheader.maxpat",
				"bootpath" : "/Users/Pierre/SourceTree/HoaLibrary/_prerelease/max-package/misc/others",
				"patcherrelativepath" : "../../_prerelease/max-package/misc/others",
				"type" : "JSON",
				"implicit" : 1
			}
, 			{
				"name" : "hoa.helpcredit.maxpat",
				"bootpath" : "/Users/Pierre/SourceTree/HoaLibrary/_prerelease/max-package/misc/others",
				"patcherrelativepath" : "../../_prerelease/max-package/misc/others",
				"type" : "JSON",
				"implicit" : 1
			}
, 			{
				"name" : "hoa.decoder~.mxo",
				"type" : "iLaX"
			}
, 			{
				"name" : "hoa.encoder~.mxo",
				"type" : "iLaX"
			}
, 			{
				"name" : "hoa.wider~.mxo",
				"type" : "iLaX"
			}
, 			{
				"name" : "hoa.rotate~.mxo",
				"type" : "iLaX"
			}
, 			{
				"name" : "hoa.scope~.mxo",
				"type" : "iLaX"
			}
, 			{
				"name" : "hoa.pi~.mxo",
				"type" : "iLaX"
			}
, 			{
				"name" : "hoa.optim~.mxo",
				"type" : "iLaX"
			}
 ]
	}

}
