{
	"patcher" : 	{
		"fileversion" : 1,
		"appversion" : 		{
			"major" : 5,
			"minor" : 1,
			"revision" : 9
		}
,
		"rect" : [ 320.0, 90.0, 540.0, 563.0 ],
		"bgcolor" : [ 0.93, 0.93, 0.92, 1.0 ],
		"bglocked" : 0,
		"defrect" : [ 320.0, 90.0, 540.0, 563.0 ],
		"openrect" : [ 0.0, 0.0, 0.0, 0.0 ],
		"openinpresentation" : 0,
		"default_fontsize" : 11.595187,
		"default_fontface" : 0,
		"default_fontname" : "Arial",
		"gridonopen" : 0,
		"gridsize" : [ 15.0, 15.0 ],
		"gridsnaponopen" : 0,
		"toolbarvisible" : 1,
		"boxanimatetime" : 200,
		"imprint" : 0,
		"enablehscroll" : 1,
		"enablevscroll" : 1,
		"devicewidth" : 0.0,
		"boxes" : [ 			{
				"box" : 				{
					"maxclass" : "newobj",
					"text" : "p color",
					"patching_rect" : [ 449.0, 314.531921, 68.0, 29.0 ],
					"id" : "obj-24",
					"fontname" : "Arial",
					"textcolor" : [ 0.209184, 0.209184, 0.209184, 1.0 ],
					"color" : [ 0.54902, 0.72549, 0.839216, 1.0 ],
					"fontsize" : 19.174643,
					"numinlets" : 0,
					"numoutlets" : 0,
					"patcher" : 					{
						"fileversion" : 1,
						"appversion" : 						{
							"major" : 5,
							"minor" : 1,
							"revision" : 9
						}
,
						"rect" : [ 320.0, 116.0, 540.0, 537.0 ],
						"bgcolor" : [ 0.93, 0.93, 0.92, 1.0 ],
						"bglocked" : 0,
						"defrect" : [ 320.0, 116.0, 540.0, 537.0 ],
						"openrect" : [ 0.0, 0.0, 0.0, 0.0 ],
						"openinpresentation" : 0,
						"default_fontsize" : 14.0,
						"default_fontface" : 0,
						"default_fontname" : "Arial",
						"gridonopen" : 0,
						"gridsize" : [ 15.0, 15.0 ],
						"gridsnaponopen" : 0,
						"toolbarvisible" : 1,
						"boxanimatetime" : 200,
						"imprint" : 0,
						"enablehscroll" : 1,
						"enablevscroll" : 1,
						"devicewidth" : 0.0,
						"boxes" : [ 							{
								"box" : 								{
									"maxclass" : "comment",
									"varname" : "autohelp_top_description[5]",
									"text" : "plane wave signal",
									"frgb" : [ 0.30292, 0.30292, 0.30292, 1.0 ],
									"patching_rect" : [ 379.888397, 420.0, 106.0, 20.0 ],
									"id" : "obj-42",
									"fontname" : "Arial",
									"textcolor" : [ 0.30292, 0.30292, 0.30292, 1.0 ],
									"fontsize" : 12.0,
									"numinlets" : 1,
									"numoutlets" : 0
								}

							}
, 							{
								"box" : 								{
									"maxclass" : "live.line",
									"patching_rect" : [ 320.558044, 340.5, 64.330353, 85.0 ],
									"border" : 2.0,
									"id" : "obj-41",
									"numinlets" : 1,
									"numoutlets" : 0,
									"justification" : 3,
									"linecolor" : [ 0.298039, 0.298039, 0.298039, 1.0 ]
								}

							}
, 							{
								"box" : 								{
									"maxclass" : "comment",
									"varname" : "autohelp_top_description[4]",
									"text" : "signal",
									"frgb" : [ 0.30292, 0.30292, 0.30292, 1.0 ],
									"patching_rect" : [ 320.558044, 457.5, 42.0, 20.0 ],
									"id" : "obj-39",
									"fontname" : "Arial",
									"textcolor" : [ 0.30292, 0.30292, 0.30292, 1.0 ],
									"fontsize" : 12.0,
									"numinlets" : 1,
									"numoutlets" : 0
								}

							}
, 							{
								"box" : 								{
									"maxclass" : "live.line",
									"patching_rect" : [ 246.888397, 451.5, 73.669647, 32.0 ],
									"border" : 2.0,
									"id" : "obj-40",
									"numinlets" : 1,
									"numoutlets" : 0,
									"justification" : 1,
									"linecolor" : [ 0.298039, 0.298039, 0.298039, 1.0 ]
								}

							}
, 							{
								"box" : 								{
									"maxclass" : "comment",
									"varname" : "autohelp_top_description[3]",
									"text" : "positiv harmonics color",
									"frgb" : [ 0.30292, 0.30292, 0.30292, 1.0 ],
									"patching_rect" : [ 291.15625, 219.0, 137.0, 20.0 ],
									"id" : "obj-37",
									"fontname" : "Arial",
									"textcolor" : [ 0.30292, 0.30292, 0.30292, 1.0 ],
									"fontsize" : 12.0,
									"numinlets" : 1,
									"numoutlets" : 0
								}

							}
, 							{
								"box" : 								{
									"maxclass" : "comment",
									"varname" : "autohelp_top_description[2]",
									"text" : "negativ harmonics color",
									"frgb" : [ 0.30292, 0.30292, 0.30292, 1.0 ],
									"patching_rect" : [ 275.15625, 200.0, 137.0, 20.0 ],
									"id" : "obj-36",
									"fontname" : "Arial",
									"textcolor" : [ 0.30292, 0.30292, 0.30292, 1.0 ],
									"fontsize" : 12.0,
									"numinlets" : 1,
									"numoutlets" : 0
								}

							}
, 							{
								"box" : 								{
									"maxclass" : "newobj",
									"text" : "hoa.recomposer~ 7 16",
									"outlettype" : [ "signal", "signal", "signal", "signal", "signal", "signal", "signal", "signal", "signal", "signal", "signal", "signal", "signal", "signal", "signal" ],
									"patching_rect" : [ 255.0, 366.0, 254.0, 20.0 ],
									"id" : "obj-27",
									"fontname" : "Arial",
									"fontsize" : 11.595187,
									"numinlets" : 17,
									"numoutlets" : 15
								}

							}
, 							{
								"box" : 								{
									"maxclass" : "newobj",
									"text" : "sig~ 1",
									"outlettype" : [ "signal" ],
									"patching_rect" : [ 490.0, 270.0, 42.0, 20.0 ],
									"id" : "obj-6",
									"fontname" : "Arial",
									"fontsize" : 11.595187,
									"numinlets" : 1,
									"numoutlets" : 1
								}

							}
, 							{
								"box" : 								{
									"maxclass" : "newobj",
									"text" : "hoa.projector~ 7 16",
									"outlettype" : [ "signal", "signal", "signal", "signal", "signal", "signal", "signal", "signal", "signal", "signal", "signal", "signal", "signal", "signal", "signal", "signal" ],
									"patching_rect" : [ 255.0, 307.0, 239.3125, 20.0 ],
									"id" : "obj-1",
									"fontname" : "Arial",
									"fontsize" : 11.595187,
									"numinlets" : 15,
									"numoutlets" : 16
								}

							}
, 							{
								"box" : 								{
									"maxclass" : "comment",
									"text" : "planecolor",
									"patching_rect" : [ 282.294647, 106.69841, 69.0, 21.0 ],
									"id" : "obj-24",
									"fontname" : "Arial",
									"fontsize" : 12.757152,
									"numinlets" : 1,
									"numoutlets" : 0
								}

							}
, 							{
								"box" : 								{
									"maxclass" : "comment",
									"text" : "negcolor",
									"patching_rect" : [ 147.294647, 106.69841, 59.0, 21.0 ],
									"id" : "obj-23",
									"fontname" : "Arial",
									"fontsize" : 12.757152,
									"numinlets" : 1,
									"numoutlets" : 0
								}

							}
, 							{
								"box" : 								{
									"maxclass" : "comment",
									"text" : "poscolor",
									"patching_rect" : [ 12.294642, 106.69841, 59.0, 21.0 ],
									"id" : "obj-21",
									"fontname" : "Arial",
									"fontsize" : 12.757152,
									"numinlets" : 1,
									"numoutlets" : 0
								}

							}
, 							{
								"box" : 								{
									"maxclass" : "newobj",
									"text" : "p change patchlines colors",
									"outlettype" : [ "" ],
									"patching_rect" : [ 12.294642, 169.0, 289.0, 20.0 ],
									"id" : "obj-19",
									"fontname" : "Arial",
									"fontsize" : 11.71119,
									"numinlets" : 3,
									"numoutlets" : 1,
									"patcher" : 									{
										"fileversion" : 1,
										"appversion" : 										{
											"major" : 5,
											"minor" : 1,
											"revision" : 9
										}
,
										"rect" : [ 0.0, 0.0, 640.0, 480.0 ],
										"bglocked" : 0,
										"defrect" : [ 0.0, 0.0, 640.0, 480.0 ],
										"openrect" : [ 0.0, 0.0, 0.0, 0.0 ],
										"openinpresentation" : 0,
										"default_fontsize" : 14.0,
										"default_fontface" : 0,
										"default_fontname" : "Arial",
										"gridonopen" : 0,
										"gridsize" : [ 15.0, 15.0 ],
										"gridsnaponopen" : 0,
										"toolbarvisible" : 1,
										"boxanimatetime" : 200,
										"imprint" : 0,
										"enablehscroll" : 1,
										"enablevscroll" : 1,
										"devicewidth" : 0.0,
										"boxes" : [ 											{
												"box" : 												{
													"maxclass" : "newobj",
													"text" : "prepend planecolor",
													"outlettype" : [ "" ],
													"patching_rect" : [ 333.5, 135.0, 110.0, 20.0 ],
													"id" : "obj-10",
													"fontname" : "Arial",
													"fontsize" : 11.595187,
													"numinlets" : 1,
													"numoutlets" : 1
												}

											}
, 											{
												"box" : 												{
													"maxclass" : "newobj",
													"text" : "t b l",
													"outlettype" : [ "bang", "" ],
													"patching_rect" : [ 320.0, 100.0, 32.5, 20.0 ],
													"id" : "obj-11",
													"fontname" : "Arial",
													"fontsize" : 11.595187,
													"numinlets" : 1,
													"numoutlets" : 2
												}

											}
, 											{
												"box" : 												{
													"maxclass" : "newobj",
													"text" : "prepend negcolor",
													"outlettype" : [ "" ],
													"patching_rect" : [ 198.5, 135.0, 101.0, 20.0 ],
													"id" : "obj-1",
													"fontname" : "Arial",
													"fontsize" : 11.595187,
													"numinlets" : 1,
													"numoutlets" : 1
												}

											}
, 											{
												"box" : 												{
													"maxclass" : "newobj",
													"text" : "t b l",
													"outlettype" : [ "bang", "" ],
													"patching_rect" : [ 185.0, 100.0, 32.5, 20.0 ],
													"id" : "obj-2",
													"fontname" : "Arial",
													"fontsize" : 11.595187,
													"numinlets" : 1,
													"numoutlets" : 2
												}

											}
, 											{
												"box" : 												{
													"maxclass" : "newobj",
													"text" : "prepend poscolor",
													"outlettype" : [ "" ],
													"patching_rect" : [ 63.5, 135.0, 100.0, 20.0 ],
													"id" : "obj-33",
													"fontname" : "Arial",
													"fontsize" : 11.595187,
													"numinlets" : 1,
													"numoutlets" : 1
												}

											}
, 											{
												"box" : 												{
													"maxclass" : "newobj",
													"text" : "t b l",
													"outlettype" : [ "bang", "" ],
													"patching_rect" : [ 50.0, 100.0, 32.5, 20.0 ],
													"id" : "obj-32",
													"fontname" : "Arial",
													"fontsize" : 11.595187,
													"numinlets" : 1,
													"numoutlets" : 2
												}

											}
, 											{
												"box" : 												{
													"maxclass" : "inlet",
													"outlettype" : [ "" ],
													"patching_rect" : [ 50.0, 40.0, 25.0, 25.0 ],
													"id" : "obj-14",
													"numinlets" : 0,
													"numoutlets" : 1,
													"comment" : ""
												}

											}
, 											{
												"box" : 												{
													"maxclass" : "inlet",
													"outlettype" : [ "" ],
													"patching_rect" : [ 185.0, 40.0, 25.0, 25.0 ],
													"id" : "obj-15",
													"numinlets" : 0,
													"numoutlets" : 1,
													"comment" : ""
												}

											}
, 											{
												"box" : 												{
													"maxclass" : "inlet",
													"outlettype" : [ "" ],
													"patching_rect" : [ 320.0, 40.0, 25.0, 25.0 ],
													"id" : "obj-17",
													"numinlets" : 0,
													"numoutlets" : 1,
													"comment" : ""
												}

											}
, 											{
												"box" : 												{
													"maxclass" : "outlet",
													"patching_rect" : [ 186.75, 214.0, 25.0, 25.0 ],
													"id" : "obj-18",
													"numinlets" : 1,
													"numoutlets" : 0,
													"comment" : ""
												}

											}
 ],
										"lines" : [ 											{
												"patchline" : 												{
													"source" : [ "obj-1", 0 ],
													"destination" : [ "obj-18", 0 ],
													"hidden" : 0,
													"midpoints" : [  ]
												}

											}
, 											{
												"patchline" : 												{
													"source" : [ "obj-10", 0 ],
													"destination" : [ "obj-18", 0 ],
													"hidden" : 0,
													"midpoints" : [  ]
												}

											}
, 											{
												"patchline" : 												{
													"source" : [ "obj-11", 1 ],
													"destination" : [ "obj-10", 0 ],
													"hidden" : 0,
													"midpoints" : [  ]
												}

											}
, 											{
												"patchline" : 												{
													"source" : [ "obj-11", 0 ],
													"destination" : [ "obj-18", 0 ],
													"hidden" : 0,
													"midpoints" : [  ]
												}

											}
, 											{
												"patchline" : 												{
													"source" : [ "obj-14", 0 ],
													"destination" : [ "obj-32", 0 ],
													"hidden" : 0,
													"midpoints" : [  ]
												}

											}
, 											{
												"patchline" : 												{
													"source" : [ "obj-15", 0 ],
													"destination" : [ "obj-2", 0 ],
													"hidden" : 0,
													"midpoints" : [  ]
												}

											}
, 											{
												"patchline" : 												{
													"source" : [ "obj-17", 0 ],
													"destination" : [ "obj-11", 0 ],
													"hidden" : 0,
													"midpoints" : [  ]
												}

											}
, 											{
												"patchline" : 												{
													"source" : [ "obj-2", 1 ],
													"destination" : [ "obj-1", 0 ],
													"hidden" : 0,
													"midpoints" : [  ]
												}

											}
, 											{
												"patchline" : 												{
													"source" : [ "obj-2", 0 ],
													"destination" : [ "obj-18", 0 ],
													"hidden" : 0,
													"midpoints" : [  ]
												}

											}
, 											{
												"patchline" : 												{
													"source" : [ "obj-32", 0 ],
													"destination" : [ "obj-18", 0 ],
													"hidden" : 0,
													"midpoints" : [  ]
												}

											}
, 											{
												"patchline" : 												{
													"source" : [ "obj-32", 1 ],
													"destination" : [ "obj-33", 0 ],
													"hidden" : 0,
													"midpoints" : [  ]
												}

											}
, 											{
												"patchline" : 												{
													"source" : [ "obj-33", 0 ],
													"destination" : [ "obj-18", 0 ],
													"hidden" : 0,
													"midpoints" : [  ]
												}

											}
 ]
									}
,
									"saved_object_attributes" : 									{
										"default_fontsize" : 14.0,
										"fontname" : "Arial",
										"globalpatchername" : "",
										"fontface" : 0,
										"default_fontface" : 0,
										"fontsize" : 14.0,
										"default_fontname" : "Arial"
									}

								}

							}
, 							{
								"box" : 								{
									"maxclass" : "swatch",
									"outlettype" : [ "", "float" ],
									"patching_rect" : [ 282.294647, 128.0, 128.0, 32.0 ],
									"id" : "obj-13",
									"numinlets" : 3,
									"numoutlets" : 2
								}

							}
, 							{
								"box" : 								{
									"maxclass" : "swatch",
									"outlettype" : [ "", "float" ],
									"patching_rect" : [ 147.294647, 128.0, 128.0, 32.0 ],
									"id" : "obj-5",
									"numinlets" : 3,
									"numoutlets" : 2
								}

							}
, 							{
								"box" : 								{
									"maxclass" : "comment",
									"varname" : "autohelp_top_description[1]",
									"text" : "You can change the defaults colors for each patchlines (positives harmonics, negatives harmonics, and plane wave signal",
									"linecount" : 2,
									"frgb" : [ 0.30292, 0.30292, 0.30292, 1.0 ],
									"patching_rect" : [ 4.4375, 64.5, 519.5625, 34.0 ],
									"id" : "obj-30",
									"fontname" : "Arial",
									"textcolor" : [ 0.30292, 0.30292, 0.30292, 1.0 ],
									"fontsize" : 12.0,
									"numinlets" : 1,
									"numoutlets" : 0
								}

							}
, 							{
								"box" : 								{
									"maxclass" : "panel",
									"patching_rect" : [ 4.4375, 64.5, 519.5625, 33.0 ],
									"id" : "obj-31",
									"rounded" : 15,
									"shadow" : -1,
									"bordercolor" : [ 0.235294, 0.235294, 0.235294, 0.2 ],
									"numinlets" : 1,
									"numoutlets" : 0,
									"bgcolor" : [ 0.94324, 0.954082, 0.954082, 1.0 ]
								}

							}
, 							{
								"box" : 								{
									"maxclass" : "bpatcher",
									"patching_rect" : [ 4.4375, 3.0, 519.5625, 56.0 ],
									"id" : "obj-3",
									"name" : "hoa.helpheader.maxpat",
									"numinlets" : 1,
									"args" : [ "@obj-name", "hoa.connect", "@obj-desc", "Help", "to", "connect", "the", "hoa", "objects", "together", "@width", 518 ],
									"numoutlets" : 0
								}

							}
, 							{
								"box" : 								{
									"maxclass" : "newobj",
									"text" : "bgcolor 0.93 0.93 0.92 1.",
									"linecount" : 2,
									"patching_rect" : [ 418.4375, 19.5, 52.0, 23.0 ],
									"id" : "obj-7",
									"fontname" : "Arial",
									"fontsize" : 7.180877,
									"numinlets" : 4,
									"numoutlets" : 0,
									"hidden" : 1
								}

							}
, 							{
								"box" : 								{
									"maxclass" : "comment",
									"text" : "hoalibrary | Julien Colafrancesco, Pierre Guillot & Eliott Paris © 2012 CICM / Universite Paris 8",
									"frgb" : [ 0.317518, 0.317518, 0.317518, 1.0 ],
									"patching_rect" : [ 13.0, 498.0, 496.0, 20.0 ],
									"id" : "obj-28",
									"fontname" : "Arial",
									"textcolor" : [ 0.317518, 0.317518, 0.317518, 1.0 ],
									"fontsize" : 11.595187,
									"numinlets" : 1,
									"numoutlets" : 0
								}

							}
, 							{
								"box" : 								{
									"maxclass" : "panel",
									"patching_rect" : [ 13.0, 498.0, 496.0, 19.0 ],
									"id" : "obj-29",
									"rounded" : 6,
									"shadow" : -1,
									"bordercolor" : [ 0.235294, 0.235294, 0.235294, 0.2 ],
									"numinlets" : 1,
									"numoutlets" : 0,
									"bgcolor" : [ 0.0, 0.0, 0.0, 0.05 ]
								}

							}
, 							{
								"box" : 								{
									"maxclass" : "newobj",
									"text" : "hoa.plug~ 7 hoa.all post",
									"outlettype" : [ "", "", "", "", "", "", "", "", "", "", "", "", "", "", "" ],
									"patching_rect" : [ 12.294642, 336.0, 235.0, 20.0 ],
									"id" : "obj-22",
									"fontname" : "Arial",
									"fontsize" : 11.595187,
									"numinlets" : 15,
									"numoutlets" : 15
								}

							}
, 							{
								"box" : 								{
									"maxclass" : "newobj",
									"text" : "hoa.decoder~ 7 16",
									"outlettype" : [ "signal", "signal", "signal", "signal", "signal", "signal", "signal", "signal", "signal", "signal", "signal", "signal", "signal", "signal", "signal", "signal" ],
									"patching_rect" : [ 12.294642, 421.0, 235.0, 20.0 ],
									"id" : "obj-4",
									"fontname" : "Arial",
									"fontsize" : 11.595187,
									"numinlets" : 15,
									"numoutlets" : 16
								}

							}
, 							{
								"box" : 								{
									"maxclass" : "newobj",
									"text" : "dac~ 1 2 3 4 5 6 7 8 9 10 11 12 13 14 15 16",
									"patching_rect" : [ 12.294642, 471.0, 235.0, 20.0 ],
									"id" : "obj-12",
									"fontname" : "Arial",
									"fontsize" : 11.595187,
									"numinlets" : 16,
									"numoutlets" : 0
								}

							}
, 							{
								"box" : 								{
									"maxclass" : "newobj",
									"text" : "hoa.encoder~ 7",
									"outlettype" : [ "signal", "signal", "signal", "signal", "signal", "signal", "signal", "signal", "signal", "signal", "signal", "signal", "signal", "signal", "signal" ],
									"patching_rect" : [ 12.294642, 257.0, 235.0, 20.0 ],
									"id" : "obj-16",
									"fontname" : "Arial",
									"fontsize" : 11.595187,
									"numinlets" : 2,
									"numoutlets" : 15
								}

							}
, 							{
								"box" : 								{
									"maxclass" : "newobj",
									"text" : "hoa.connect 7 16",
									"patching_rect" : [ 12.294642, 195.0, 99.0, 20.0 ],
									"id" : "obj-34",
									"fontname" : "Arial",
									"fontsize" : 11.595187,
									"numinlets" : 1,
									"numoutlets" : 0,
									"saved_object_attributes" : 									{
										"poscolor" : [ 1.0, 0.5, 0.5, 1.0 ]
									}

								}

							}
, 							{
								"box" : 								{
									"maxclass" : "swatch",
									"outlettype" : [ "", "float" ],
									"patching_rect" : [ 12.294642, 128.0, 128.0, 32.0 ],
									"id" : "obj-25",
									"numinlets" : 3,
									"numoutlets" : 2
								}

							}
, 							{
								"box" : 								{
									"maxclass" : "live.line",
									"patching_rect" : [ 220.625, 233.5, 75.375, 102.0 ],
									"border" : 2.0,
									"id" : "obj-38",
									"numinlets" : 1,
									"numoutlets" : 0,
									"justification" : 4,
									"linecolor" : [ 0.298039, 0.298039, 0.298039, 1.0 ]
								}

							}
, 							{
								"box" : 								{
									"maxclass" : "live.line",
									"patching_rect" : [ 204.625, 214.5, 75.375, 102.0 ],
									"border" : 2.0,
									"id" : "obj-35",
									"numinlets" : 1,
									"numoutlets" : 0,
									"justification" : 4,
									"linecolor" : [ 0.298039, 0.298039, 0.298039, 1.0 ]
								}

							}
 ],
						"lines" : [ 							{
								"patchline" : 								{
									"source" : [ "obj-1", 15 ],
									"destination" : [ "obj-27", 15 ],
									"hidden" : 0,
									"color" : [ 1.0, 1.0, 1.0, 1.0 ],
									"midpoints" : [  ]
								}

							}
, 							{
								"patchline" : 								{
									"source" : [ "obj-1", 14 ],
									"destination" : [ "obj-27", 14 ],
									"hidden" : 0,
									"color" : [ 1.0, 1.0, 1.0, 1.0 ],
									"midpoints" : [  ]
								}

							}
, 							{
								"patchline" : 								{
									"source" : [ "obj-1", 13 ],
									"destination" : [ "obj-27", 13 ],
									"hidden" : 0,
									"color" : [ 1.0, 1.0, 1.0, 1.0 ],
									"midpoints" : [  ]
								}

							}
, 							{
								"patchline" : 								{
									"source" : [ "obj-1", 12 ],
									"destination" : [ "obj-27", 12 ],
									"hidden" : 0,
									"color" : [ 1.0, 1.0, 1.0, 1.0 ],
									"midpoints" : [  ]
								}

							}
, 							{
								"patchline" : 								{
									"source" : [ "obj-1", 11 ],
									"destination" : [ "obj-27", 11 ],
									"hidden" : 0,
									"color" : [ 1.0, 1.0, 1.0, 1.0 ],
									"midpoints" : [  ]
								}

							}
, 							{
								"patchline" : 								{
									"source" : [ "obj-1", 10 ],
									"destination" : [ "obj-27", 10 ],
									"hidden" : 0,
									"color" : [ 1.0, 1.0, 1.0, 1.0 ],
									"midpoints" : [  ]
								}

							}
, 							{
								"patchline" : 								{
									"source" : [ "obj-1", 9 ],
									"destination" : [ "obj-27", 9 ],
									"hidden" : 0,
									"color" : [ 1.0, 1.0, 1.0, 1.0 ],
									"midpoints" : [  ]
								}

							}
, 							{
								"patchline" : 								{
									"source" : [ "obj-1", 8 ],
									"destination" : [ "obj-27", 8 ],
									"hidden" : 0,
									"color" : [ 1.0, 1.0, 1.0, 1.0 ],
									"midpoints" : [  ]
								}

							}
, 							{
								"patchline" : 								{
									"source" : [ "obj-1", 7 ],
									"destination" : [ "obj-27", 7 ],
									"hidden" : 0,
									"color" : [ 1.0, 1.0, 1.0, 1.0 ],
									"midpoints" : [  ]
								}

							}
, 							{
								"patchline" : 								{
									"source" : [ "obj-1", 6 ],
									"destination" : [ "obj-27", 6 ],
									"hidden" : 0,
									"color" : [ 1.0, 1.0, 1.0, 1.0 ],
									"midpoints" : [  ]
								}

							}
, 							{
								"patchline" : 								{
									"source" : [ "obj-1", 5 ],
									"destination" : [ "obj-27", 5 ],
									"hidden" : 0,
									"color" : [ 1.0, 1.0, 1.0, 1.0 ],
									"midpoints" : [  ]
								}

							}
, 							{
								"patchline" : 								{
									"source" : [ "obj-1", 4 ],
									"destination" : [ "obj-27", 4 ],
									"hidden" : 0,
									"color" : [ 1.0, 1.0, 1.0, 1.0 ],
									"midpoints" : [  ]
								}

							}
, 							{
								"patchline" : 								{
									"source" : [ "obj-1", 3 ],
									"destination" : [ "obj-27", 3 ],
									"hidden" : 0,
									"color" : [ 1.0, 1.0, 1.0, 1.0 ],
									"midpoints" : [  ]
								}

							}
, 							{
								"patchline" : 								{
									"source" : [ "obj-1", 2 ],
									"destination" : [ "obj-27", 2 ],
									"hidden" : 0,
									"color" : [ 1.0, 1.0, 1.0, 1.0 ],
									"midpoints" : [  ]
								}

							}
, 							{
								"patchline" : 								{
									"source" : [ "obj-1", 1 ],
									"destination" : [ "obj-27", 1 ],
									"hidden" : 0,
									"color" : [ 1.0, 1.0, 1.0, 1.0 ],
									"midpoints" : [  ]
								}

							}
, 							{
								"patchline" : 								{
									"source" : [ "obj-1", 0 ],
									"destination" : [ "obj-27", 0 ],
									"hidden" : 0,
									"color" : [ 1.0, 1.0, 1.0, 1.0 ],
									"midpoints" : [  ]
								}

							}
, 							{
								"patchline" : 								{
									"source" : [ "obj-13", 0 ],
									"destination" : [ "obj-19", 2 ],
									"hidden" : 0,
									"midpoints" : [  ]
								}

							}
, 							{
								"patchline" : 								{
									"source" : [ "obj-16", 14 ],
									"destination" : [ "obj-1", 14 ],
									"hidden" : 0,
									"color" : [ 0.0, 0.0, 1.0, 1.0 ],
									"midpoints" : [  ]
								}

							}
, 							{
								"patchline" : 								{
									"source" : [ "obj-16", 13 ],
									"destination" : [ "obj-1", 13 ],
									"hidden" : 0,
									"color" : [ 1.0, 0.5, 0.5, 1.0 ],
									"midpoints" : [  ]
								}

							}
, 							{
								"patchline" : 								{
									"source" : [ "obj-16", 12 ],
									"destination" : [ "obj-1", 12 ],
									"hidden" : 0,
									"color" : [ 0.0, 0.0, 1.0, 1.0 ],
									"midpoints" : [  ]
								}

							}
, 							{
								"patchline" : 								{
									"source" : [ "obj-16", 11 ],
									"destination" : [ "obj-1", 11 ],
									"hidden" : 0,
									"color" : [ 1.0, 0.5, 0.5, 1.0 ],
									"midpoints" : [  ]
								}

							}
, 							{
								"patchline" : 								{
									"source" : [ "obj-16", 10 ],
									"destination" : [ "obj-1", 10 ],
									"hidden" : 0,
									"color" : [ 0.0, 0.0, 1.0, 1.0 ],
									"midpoints" : [  ]
								}

							}
, 							{
								"patchline" : 								{
									"source" : [ "obj-16", 9 ],
									"destination" : [ "obj-1", 9 ],
									"hidden" : 0,
									"color" : [ 1.0, 0.5, 0.5, 1.0 ],
									"midpoints" : [  ]
								}

							}
, 							{
								"patchline" : 								{
									"source" : [ "obj-16", 8 ],
									"destination" : [ "obj-1", 8 ],
									"hidden" : 0,
									"color" : [ 0.0, 0.0, 1.0, 1.0 ],
									"midpoints" : [  ]
								}

							}
, 							{
								"patchline" : 								{
									"source" : [ "obj-16", 7 ],
									"destination" : [ "obj-1", 7 ],
									"hidden" : 0,
									"color" : [ 1.0, 0.5, 0.5, 1.0 ],
									"midpoints" : [  ]
								}

							}
, 							{
								"patchline" : 								{
									"source" : [ "obj-16", 6 ],
									"destination" : [ "obj-1", 6 ],
									"hidden" : 0,
									"color" : [ 0.0, 0.0, 1.0, 1.0 ],
									"midpoints" : [  ]
								}

							}
, 							{
								"patchline" : 								{
									"source" : [ "obj-16", 5 ],
									"destination" : [ "obj-1", 5 ],
									"hidden" : 0,
									"color" : [ 1.0, 0.5, 0.5, 1.0 ],
									"midpoints" : [  ]
								}

							}
, 							{
								"patchline" : 								{
									"source" : [ "obj-16", 4 ],
									"destination" : [ "obj-1", 4 ],
									"hidden" : 0,
									"color" : [ 0.0, 0.0, 1.0, 1.0 ],
									"midpoints" : [  ]
								}

							}
, 							{
								"patchline" : 								{
									"source" : [ "obj-16", 3 ],
									"destination" : [ "obj-1", 3 ],
									"hidden" : 0,
									"color" : [ 1.0, 0.5, 0.5, 1.0 ],
									"midpoints" : [  ]
								}

							}
, 							{
								"patchline" : 								{
									"source" : [ "obj-16", 2 ],
									"destination" : [ "obj-1", 2 ],
									"hidden" : 0,
									"color" : [ 0.0, 0.0, 1.0, 1.0 ],
									"midpoints" : [  ]
								}

							}
, 							{
								"patchline" : 								{
									"source" : [ "obj-16", 1 ],
									"destination" : [ "obj-1", 1 ],
									"hidden" : 0,
									"color" : [ 1.0, 0.5, 0.5, 1.0 ],
									"midpoints" : [  ]
								}

							}
, 							{
								"patchline" : 								{
									"source" : [ "obj-16", 0 ],
									"destination" : [ "obj-1", 0 ],
									"hidden" : 0,
									"color" : [ 0.0, 0.0, 1.0, 1.0 ],
									"midpoints" : [  ]
								}

							}
, 							{
								"patchline" : 								{
									"source" : [ "obj-16", 14 ],
									"destination" : [ "obj-22", 14 ],
									"hidden" : 0,
									"color" : [ 0.0, 0.0, 1.0, 1.0 ],
									"midpoints" : [  ]
								}

							}
, 							{
								"patchline" : 								{
									"source" : [ "obj-16", 13 ],
									"destination" : [ "obj-22", 13 ],
									"hidden" : 0,
									"color" : [ 1.0, 0.5, 0.5, 1.0 ],
									"midpoints" : [  ]
								}

							}
, 							{
								"patchline" : 								{
									"source" : [ "obj-16", 12 ],
									"destination" : [ "obj-22", 12 ],
									"hidden" : 0,
									"color" : [ 0.0, 0.0, 1.0, 1.0 ],
									"midpoints" : [  ]
								}

							}
, 							{
								"patchline" : 								{
									"source" : [ "obj-16", 11 ],
									"destination" : [ "obj-22", 11 ],
									"hidden" : 0,
									"color" : [ 1.0, 0.5, 0.5, 1.0 ],
									"midpoints" : [  ]
								}

							}
, 							{
								"patchline" : 								{
									"source" : [ "obj-16", 10 ],
									"destination" : [ "obj-22", 10 ],
									"hidden" : 0,
									"color" : [ 0.0, 0.0, 1.0, 1.0 ],
									"midpoints" : [  ]
								}

							}
, 							{
								"patchline" : 								{
									"source" : [ "obj-16", 9 ],
									"destination" : [ "obj-22", 9 ],
									"hidden" : 0,
									"color" : [ 1.0, 0.5, 0.5, 1.0 ],
									"midpoints" : [  ]
								}

							}
, 							{
								"patchline" : 								{
									"source" : [ "obj-16", 8 ],
									"destination" : [ "obj-22", 8 ],
									"hidden" : 0,
									"color" : [ 0.0, 0.0, 1.0, 1.0 ],
									"midpoints" : [  ]
								}

							}
, 							{
								"patchline" : 								{
									"source" : [ "obj-16", 7 ],
									"destination" : [ "obj-22", 7 ],
									"hidden" : 0,
									"color" : [ 1.0, 0.5, 0.5, 1.0 ],
									"midpoints" : [  ]
								}

							}
, 							{
								"patchline" : 								{
									"source" : [ "obj-16", 6 ],
									"destination" : [ "obj-22", 6 ],
									"hidden" : 0,
									"color" : [ 0.0, 0.0, 1.0, 1.0 ],
									"midpoints" : [  ]
								}

							}
, 							{
								"patchline" : 								{
									"source" : [ "obj-16", 5 ],
									"destination" : [ "obj-22", 5 ],
									"hidden" : 0,
									"color" : [ 1.0, 0.5, 0.5, 1.0 ],
									"midpoints" : [  ]
								}

							}
, 							{
								"patchline" : 								{
									"source" : [ "obj-16", 4 ],
									"destination" : [ "obj-22", 4 ],
									"hidden" : 0,
									"color" : [ 0.0, 0.0, 1.0, 1.0 ],
									"midpoints" : [  ]
								}

							}
, 							{
								"patchline" : 								{
									"source" : [ "obj-16", 3 ],
									"destination" : [ "obj-22", 3 ],
									"hidden" : 0,
									"color" : [ 1.0, 0.5, 0.5, 1.0 ],
									"midpoints" : [  ]
								}

							}
, 							{
								"patchline" : 								{
									"source" : [ "obj-16", 2 ],
									"destination" : [ "obj-22", 2 ],
									"hidden" : 0,
									"color" : [ 0.0, 0.0, 1.0, 1.0 ],
									"midpoints" : [  ]
								}

							}
, 							{
								"patchline" : 								{
									"source" : [ "obj-16", 1 ],
									"destination" : [ "obj-22", 1 ],
									"hidden" : 0,
									"color" : [ 1.0, 0.5, 0.5, 1.0 ],
									"midpoints" : [  ]
								}

							}
, 							{
								"patchline" : 								{
									"source" : [ "obj-16", 0 ],
									"destination" : [ "obj-22", 0 ],
									"hidden" : 0,
									"color" : [ 0.0, 0.0, 1.0, 1.0 ],
									"midpoints" : [  ]
								}

							}
, 							{
								"patchline" : 								{
									"source" : [ "obj-19", 0 ],
									"destination" : [ "obj-34", 0 ],
									"hidden" : 0,
									"midpoints" : [  ]
								}

							}
, 							{
								"patchline" : 								{
									"source" : [ "obj-22", 14 ],
									"destination" : [ "obj-4", 14 ],
									"hidden" : 0,
									"color" : [ 0.0, 0.0, 1.0, 1.0 ],
									"midpoints" : [  ]
								}

							}
, 							{
								"patchline" : 								{
									"source" : [ "obj-22", 13 ],
									"destination" : [ "obj-4", 13 ],
									"hidden" : 0,
									"color" : [ 1.0, 0.5, 0.5, 1.0 ],
									"midpoints" : [  ]
								}

							}
, 							{
								"patchline" : 								{
									"source" : [ "obj-22", 12 ],
									"destination" : [ "obj-4", 12 ],
									"hidden" : 0,
									"color" : [ 0.0, 0.0, 1.0, 1.0 ],
									"midpoints" : [  ]
								}

							}
, 							{
								"patchline" : 								{
									"source" : [ "obj-22", 11 ],
									"destination" : [ "obj-4", 11 ],
									"hidden" : 0,
									"color" : [ 1.0, 0.5, 0.5, 1.0 ],
									"midpoints" : [  ]
								}

							}
, 							{
								"patchline" : 								{
									"source" : [ "obj-22", 10 ],
									"destination" : [ "obj-4", 10 ],
									"hidden" : 0,
									"color" : [ 0.0, 0.0, 1.0, 1.0 ],
									"midpoints" : [  ]
								}

							}
, 							{
								"patchline" : 								{
									"source" : [ "obj-22", 9 ],
									"destination" : [ "obj-4", 9 ],
									"hidden" : 0,
									"color" : [ 1.0, 0.5, 0.5, 1.0 ],
									"midpoints" : [  ]
								}

							}
, 							{
								"patchline" : 								{
									"source" : [ "obj-22", 8 ],
									"destination" : [ "obj-4", 8 ],
									"hidden" : 0,
									"color" : [ 0.0, 0.0, 1.0, 1.0 ],
									"midpoints" : [  ]
								}

							}
, 							{
								"patchline" : 								{
									"source" : [ "obj-22", 7 ],
									"destination" : [ "obj-4", 7 ],
									"hidden" : 0,
									"color" : [ 1.0, 0.5, 0.5, 1.0 ],
									"midpoints" : [  ]
								}

							}
, 							{
								"patchline" : 								{
									"source" : [ "obj-22", 6 ],
									"destination" : [ "obj-4", 6 ],
									"hidden" : 0,
									"color" : [ 0.0, 0.0, 1.0, 1.0 ],
									"midpoints" : [  ]
								}

							}
, 							{
								"patchline" : 								{
									"source" : [ "obj-22", 5 ],
									"destination" : [ "obj-4", 5 ],
									"hidden" : 0,
									"color" : [ 1.0, 0.5, 0.5, 1.0 ],
									"midpoints" : [  ]
								}

							}
, 							{
								"patchline" : 								{
									"source" : [ "obj-22", 4 ],
									"destination" : [ "obj-4", 4 ],
									"hidden" : 0,
									"color" : [ 0.0, 0.0, 1.0, 1.0 ],
									"midpoints" : [  ]
								}

							}
, 							{
								"patchline" : 								{
									"source" : [ "obj-22", 3 ],
									"destination" : [ "obj-4", 3 ],
									"hidden" : 0,
									"color" : [ 1.0, 0.5, 0.5, 1.0 ],
									"midpoints" : [  ]
								}

							}
, 							{
								"patchline" : 								{
									"source" : [ "obj-22", 2 ],
									"destination" : [ "obj-4", 2 ],
									"hidden" : 0,
									"color" : [ 0.0, 0.0, 1.0, 1.0 ],
									"midpoints" : [  ]
								}

							}
, 							{
								"patchline" : 								{
									"source" : [ "obj-22", 1 ],
									"destination" : [ "obj-4", 1 ],
									"hidden" : 0,
									"color" : [ 1.0, 0.5, 0.5, 1.0 ],
									"midpoints" : [  ]
								}

							}
, 							{
								"patchline" : 								{
									"source" : [ "obj-22", 0 ],
									"destination" : [ "obj-4", 0 ],
									"hidden" : 0,
									"color" : [ 0.0, 0.0, 1.0, 1.0 ],
									"midpoints" : [  ]
								}

							}
, 							{
								"patchline" : 								{
									"source" : [ "obj-25", 0 ],
									"destination" : [ "obj-19", 0 ],
									"hidden" : 0,
									"midpoints" : [  ]
								}

							}
, 							{
								"patchline" : 								{
									"source" : [ "obj-27", 14 ],
									"destination" : [ "obj-4", 14 ],
									"hidden" : 0,
									"color" : [ 0.0, 0.0, 1.0, 1.0 ],
									"midpoints" : [  ]
								}

							}
, 							{
								"patchline" : 								{
									"source" : [ "obj-27", 13 ],
									"destination" : [ "obj-4", 13 ],
									"hidden" : 0,
									"color" : [ 1.0, 0.5, 0.5, 1.0 ],
									"midpoints" : [  ]
								}

							}
, 							{
								"patchline" : 								{
									"source" : [ "obj-27", 12 ],
									"destination" : [ "obj-4", 12 ],
									"hidden" : 0,
									"color" : [ 0.0, 0.0, 1.0, 1.0 ],
									"midpoints" : [  ]
								}

							}
, 							{
								"patchline" : 								{
									"source" : [ "obj-27", 11 ],
									"destination" : [ "obj-4", 11 ],
									"hidden" : 0,
									"color" : [ 1.0, 0.5, 0.5, 1.0 ],
									"midpoints" : [  ]
								}

							}
, 							{
								"patchline" : 								{
									"source" : [ "obj-27", 10 ],
									"destination" : [ "obj-4", 10 ],
									"hidden" : 0,
									"color" : [ 0.0, 0.0, 1.0, 1.0 ],
									"midpoints" : [  ]
								}

							}
, 							{
								"patchline" : 								{
									"source" : [ "obj-27", 9 ],
									"destination" : [ "obj-4", 9 ],
									"hidden" : 0,
									"color" : [ 1.0, 0.5, 0.5, 1.0 ],
									"midpoints" : [  ]
								}

							}
, 							{
								"patchline" : 								{
									"source" : [ "obj-27", 8 ],
									"destination" : [ "obj-4", 8 ],
									"hidden" : 0,
									"color" : [ 0.0, 0.0, 1.0, 1.0 ],
									"midpoints" : [  ]
								}

							}
, 							{
								"patchline" : 								{
									"source" : [ "obj-27", 7 ],
									"destination" : [ "obj-4", 7 ],
									"hidden" : 0,
									"color" : [ 1.0, 0.5, 0.5, 1.0 ],
									"midpoints" : [  ]
								}

							}
, 							{
								"patchline" : 								{
									"source" : [ "obj-27", 6 ],
									"destination" : [ "obj-4", 6 ],
									"hidden" : 0,
									"color" : [ 0.0, 0.0, 1.0, 1.0 ],
									"midpoints" : [  ]
								}

							}
, 							{
								"patchline" : 								{
									"source" : [ "obj-27", 5 ],
									"destination" : [ "obj-4", 5 ],
									"hidden" : 0,
									"color" : [ 1.0, 0.5, 0.5, 1.0 ],
									"midpoints" : [  ]
								}

							}
, 							{
								"patchline" : 								{
									"source" : [ "obj-27", 4 ],
									"destination" : [ "obj-4", 4 ],
									"hidden" : 0,
									"color" : [ 0.0, 0.0, 1.0, 1.0 ],
									"midpoints" : [  ]
								}

							}
, 							{
								"patchline" : 								{
									"source" : [ "obj-27", 3 ],
									"destination" : [ "obj-4", 3 ],
									"hidden" : 0,
									"color" : [ 1.0, 0.5, 0.5, 1.0 ],
									"midpoints" : [  ]
								}

							}
, 							{
								"patchline" : 								{
									"source" : [ "obj-27", 2 ],
									"destination" : [ "obj-4", 2 ],
									"hidden" : 0,
									"color" : [ 0.0, 0.0, 1.0, 1.0 ],
									"midpoints" : [  ]
								}

							}
, 							{
								"patchline" : 								{
									"source" : [ "obj-27", 1 ],
									"destination" : [ "obj-4", 1 ],
									"hidden" : 0,
									"color" : [ 1.0, 0.5, 0.5, 1.0 ],
									"midpoints" : [  ]
								}

							}
, 							{
								"patchline" : 								{
									"source" : [ "obj-27", 0 ],
									"destination" : [ "obj-4", 0 ],
									"hidden" : 0,
									"color" : [ 0.0, 0.0, 1.0, 1.0 ],
									"midpoints" : [  ]
								}

							}
, 							{
								"patchline" : 								{
									"source" : [ "obj-4", 15 ],
									"destination" : [ "obj-12", 15 ],
									"hidden" : 0,
									"midpoints" : [  ]
								}

							}
, 							{
								"patchline" : 								{
									"source" : [ "obj-4", 14 ],
									"destination" : [ "obj-12", 14 ],
									"hidden" : 0,
									"midpoints" : [  ]
								}

							}
, 							{
								"patchline" : 								{
									"source" : [ "obj-4", 13 ],
									"destination" : [ "obj-12", 13 ],
									"hidden" : 0,
									"midpoints" : [  ]
								}

							}
, 							{
								"patchline" : 								{
									"source" : [ "obj-4", 12 ],
									"destination" : [ "obj-12", 12 ],
									"hidden" : 0,
									"midpoints" : [  ]
								}

							}
, 							{
								"patchline" : 								{
									"source" : [ "obj-4", 11 ],
									"destination" : [ "obj-12", 11 ],
									"hidden" : 0,
									"midpoints" : [  ]
								}

							}
, 							{
								"patchline" : 								{
									"source" : [ "obj-4", 10 ],
									"destination" : [ "obj-12", 10 ],
									"hidden" : 0,
									"midpoints" : [  ]
								}

							}
, 							{
								"patchline" : 								{
									"source" : [ "obj-4", 9 ],
									"destination" : [ "obj-12", 9 ],
									"hidden" : 0,
									"midpoints" : [  ]
								}

							}
, 							{
								"patchline" : 								{
									"source" : [ "obj-4", 8 ],
									"destination" : [ "obj-12", 8 ],
									"hidden" : 0,
									"midpoints" : [  ]
								}

							}
, 							{
								"patchline" : 								{
									"source" : [ "obj-4", 7 ],
									"destination" : [ "obj-12", 7 ],
									"hidden" : 0,
									"midpoints" : [  ]
								}

							}
, 							{
								"patchline" : 								{
									"source" : [ "obj-4", 6 ],
									"destination" : [ "obj-12", 6 ],
									"hidden" : 0,
									"midpoints" : [  ]
								}

							}
, 							{
								"patchline" : 								{
									"source" : [ "obj-4", 5 ],
									"destination" : [ "obj-12", 5 ],
									"hidden" : 0,
									"midpoints" : [  ]
								}

							}
, 							{
								"patchline" : 								{
									"source" : [ "obj-4", 4 ],
									"destination" : [ "obj-12", 4 ],
									"hidden" : 0,
									"midpoints" : [  ]
								}

							}
, 							{
								"patchline" : 								{
									"source" : [ "obj-4", 3 ],
									"destination" : [ "obj-12", 3 ],
									"hidden" : 0,
									"midpoints" : [  ]
								}

							}
, 							{
								"patchline" : 								{
									"source" : [ "obj-4", 2 ],
									"destination" : [ "obj-12", 2 ],
									"hidden" : 0,
									"midpoints" : [  ]
								}

							}
, 							{
								"patchline" : 								{
									"source" : [ "obj-4", 1 ],
									"destination" : [ "obj-12", 1 ],
									"hidden" : 0,
									"midpoints" : [  ]
								}

							}
, 							{
								"patchline" : 								{
									"source" : [ "obj-4", 0 ],
									"destination" : [ "obj-12", 0 ],
									"hidden" : 0,
									"midpoints" : [  ]
								}

							}
, 							{
								"patchline" : 								{
									"source" : [ "obj-5", 0 ],
									"destination" : [ "obj-19", 1 ],
									"hidden" : 0,
									"midpoints" : [  ]
								}

							}
, 							{
								"patchline" : 								{
									"source" : [ "obj-6", 0 ],
									"destination" : [ "obj-27", 16 ],
									"hidden" : 0,
									"midpoints" : [  ]
								}

							}
 ]
					}
,
					"saved_object_attributes" : 					{
						"default_fontsize" : 14.0,
						"fontname" : "Arial",
						"globalpatchername" : "",
						"fontface" : 0,
						"default_fontface" : 0,
						"fontsize" : 14.0,
						"default_fontname" : "Arial"
					}

				}

			}
, 			{
				"box" : 				{
					"maxclass" : "comment",
					"varname" : "autohelp_top_description[2]",
					"text" : "Tip : to delete a group of patchline use alt + drag-select then backspace.",
					"linecount" : 2,
					"frgb" : [ 0.30292, 0.30292, 0.30292, 1.0 ],
					"patching_rect" : [ 314.125, 212.5, 210.4375, 34.0 ],
					"id" : "obj-5",
					"fontname" : "Arial",
					"textcolor" : [ 0.30292, 0.30292, 0.30292, 1.0 ],
					"fontsize" : 12.0,
					"numinlets" : 1,
					"numoutlets" : 0
				}

			}
, 			{
				"box" : 				{
					"maxclass" : "panel",
					"patching_rect" : [ 314.125, 212.5, 210.4375, 33.0 ],
					"id" : "obj-9",
					"rounded" : 15,
					"shadow" : -1,
					"bordercolor" : [ 0.235294, 0.235294, 0.235294, 0.2 ],
					"numinlets" : 1,
					"numoutlets" : 0,
					"bgcolor" : [ 0.94324, 0.954082, 0.954082, 1.0 ]
				}

			}
, 			{
				"box" : 				{
					"maxclass" : "comment",
					"varname" : "autohelp_top_description[1]",
					"text" : "hoa.connect helps to connect the hoa externals together. You must \"drag-select\" or \"click-select\" the objects in order then bang the hoa.connect to connect the objects together. 1st argument is the ambisonic order and the 2nd is the number of decoder outputs and dac inlets. ",
					"linecount" : 3,
					"frgb" : [ 0.30292, 0.30292, 0.30292, 1.0 ],
					"patching_rect" : [ 5.0, 65.5, 522.0, 48.0 ],
					"id" : "obj-30",
					"fontname" : "Arial",
					"textcolor" : [ 0.30292, 0.30292, 0.30292, 1.0 ],
					"fontsize" : 12.0,
					"numinlets" : 1,
					"numoutlets" : 0
				}

			}
, 			{
				"box" : 				{
					"maxclass" : "panel",
					"patching_rect" : [ 5.0, 65.5, 519.5625, 47.0 ],
					"id" : "obj-31",
					"rounded" : 15,
					"shadow" : -1,
					"bordercolor" : [ 0.235294, 0.235294, 0.235294, 0.2 ],
					"numinlets" : 1,
					"numoutlets" : 0,
					"bgcolor" : [ 0.94324, 0.954082, 0.954082, 1.0 ]
				}

			}
, 			{
				"box" : 				{
					"maxclass" : "bpatcher",
					"patching_rect" : [ 5.0, 4.0, 519.5625, 56.0 ],
					"id" : "obj-3",
					"name" : "hoa.helpheader.maxpat",
					"numinlets" : 1,
					"args" : [ "@obj-name", "hoa.connect", "@obj-desc", "Help", "to", "connect", "the", "hoa", "objects", "together", "@width", 518 ],
					"numoutlets" : 0
				}

			}
, 			{
				"box" : 				{
					"maxclass" : "newobj",
					"text" : "bgcolor 0.93 0.93 0.92 1.",
					"linecount" : 2,
					"patching_rect" : [ 419.0, 20.5, 52.0, 23.0 ],
					"id" : "obj-7",
					"fontname" : "Arial",
					"fontsize" : 7.180877,
					"numinlets" : 4,
					"numoutlets" : 0,
					"hidden" : 1
				}

			}
, 			{
				"box" : 				{
					"maxclass" : "comment",
					"text" : "hoalibrary | Julien Colafrancesco, Pierre Guillot & Eliott Paris © 2012 CICM / Universite Paris 8",
					"frgb" : [ 0.317518, 0.317518, 0.317518, 1.0 ],
					"patching_rect" : [ 13.5625, 499.0, 496.0, 20.0 ],
					"id" : "obj-28",
					"fontname" : "Arial",
					"textcolor" : [ 0.317518, 0.317518, 0.317518, 1.0 ],
					"fontsize" : 11.595187,
					"numinlets" : 1,
					"numoutlets" : 0
				}

			}
, 			{
				"box" : 				{
					"maxclass" : "panel",
					"patching_rect" : [ 13.5625, 499.0, 496.0, 19.0 ],
					"id" : "obj-29",
					"rounded" : 6,
					"shadow" : -1,
					"bordercolor" : [ 0.235294, 0.235294, 0.235294, 0.2 ],
					"numinlets" : 1,
					"numoutlets" : 0,
					"bgcolor" : [ 0.0, 0.0, 0.0, 0.05 ]
				}

			}
, 			{
				"box" : 				{
					"maxclass" : "newobj",
					"text" : "hoa.plug~ 7 hoa.all post",
					"outlettype" : [ "", "", "", "", "", "", "", "", "", "", "", "", "", "", "" ],
					"patching_rect" : [ 121.5625, 345.0, 208.0, 20.0 ],
					"id" : "obj-22",
					"fontname" : "Arial",
					"fontsize" : 11.595187,
					"numinlets" : 15,
					"numoutlets" : 15
				}

			}
, 			{
				"box" : 				{
					"maxclass" : "newobj",
					"text" : "hoa.decoder~ 7 16",
					"outlettype" : [ "signal", "signal", "signal", "signal", "signal", "signal", "signal", "signal", "signal", "signal", "signal", "signal", "signal", "signal", "signal", "signal" ],
					"patching_rect" : [ 169.5625, 406.0, 221.5, 20.0 ],
					"id" : "obj-4",
					"fontname" : "Arial",
					"fontsize" : 11.595187,
					"numinlets" : 15,
					"numoutlets" : 16
				}

			}
, 			{
				"box" : 				{
					"maxclass" : "newobj",
					"text" : "loadmess 0",
					"outlettype" : [ "" ],
					"patching_rect" : [ 405.0, 143.0, 70.0, 20.0 ],
					"id" : "obj-19",
					"fontname" : "Arial",
					"fontsize" : 11.595187,
					"numinlets" : 1,
					"numoutlets" : 1,
					"hidden" : 1
				}

			}
, 			{
				"box" : 				{
					"maxclass" : "newobj",
					"text" : "js lock",
					"outlettype" : [ "" ],
					"patching_rect" : [ 405.0, 169.0, 43.0, 20.0 ],
					"id" : "obj-18",
					"fontname" : "Arial",
					"fontsize" : 11.595187,
					"numinlets" : 1,
					"numoutlets" : 1,
					"hidden" : 1
				}

			}
, 			{
				"box" : 				{
					"maxclass" : "newobj",
					"text" : "*~",
					"outlettype" : [ "signal" ],
					"patching_rect" : [ 301.5625, 375.0, 32.5, 20.0 ],
					"id" : "obj-13",
					"fontname" : "Arial",
					"fontsize" : 11.595187,
					"numinlets" : 2,
					"numoutlets" : 1
				}

			}
, 			{
				"box" : 				{
					"maxclass" : "newobj",
					"text" : "+~",
					"outlettype" : [ "signal" ],
					"patching_rect" : [ 176.3125, 312.0, 32.5, 20.0 ],
					"id" : "obj-11",
					"fontname" : "Arial",
					"fontsize" : 11.595187,
					"numinlets" : 2,
					"numoutlets" : 1
				}

			}
, 			{
				"box" : 				{
					"maxclass" : "button",
					"outlettype" : [ "bang" ],
					"patching_rect" : [ 13.5625, 194.0, 20.0, 20.0 ],
					"id" : "obj-14",
					"numinlets" : 1,
					"numoutlets" : 1
				}

			}
, 			{
				"box" : 				{
					"maxclass" : "newobj",
					"text" : "sel 32",
					"outlettype" : [ "bang", "" ],
					"patching_rect" : [ 13.5625, 164.0, 41.0, 20.0 ],
					"id" : "obj-23",
					"fontname" : "Arial",
					"fontsize" : 11.595187,
					"numinlets" : 2,
					"numoutlets" : 2
				}

			}
, 			{
				"box" : 				{
					"maxclass" : "newobj",
					"text" : "key",
					"outlettype" : [ "int", "int", "int", "int" ],
					"patching_rect" : [ 13.5625, 134.0, 59.5, 20.0 ],
					"id" : "obj-17",
					"fontname" : "Arial",
					"fontsize" : 11.595187,
					"numinlets" : 0,
					"numoutlets" : 4
				}

			}
, 			{
				"box" : 				{
					"maxclass" : "newobj",
					"text" : "hoa.connect 7 16",
					"patching_rect" : [ 13.5625, 224.0, 99.0, 20.0 ],
					"id" : "obj-10",
					"fontname" : "Arial",
					"fontsize" : 11.595187,
					"numinlets" : 1,
					"numoutlets" : 0,
					"saved_object_attributes" : 					{
						"poscolor" : [ 1.0, 0.0, 0.0, 1.0 ]
					}

				}

			}
, 			{
				"box" : 				{
					"maxclass" : "newobj",
					"text" : "dac~ 1 2 3 4 5 6 7 8 9 10 11 12 13 14 15 16",
					"patching_rect" : [ 236.0, 451.0, 235.0, 20.0 ],
					"id" : "obj-12",
					"fontname" : "Arial",
					"fontsize" : 11.595187,
					"numinlets" : 16,
					"numoutlets" : 0
				}

			}
, 			{
				"box" : 				{
					"maxclass" : "newobj",
					"text" : "hoa.encoder~ 7",
					"outlettype" : [ "signal", "signal", "signal", "signal", "signal", "signal", "signal", "signal", "signal", "signal", "signal", "signal", "signal", "signal", "signal" ],
					"patching_rect" : [ 29.5, 275.0, 208.0, 20.0 ],
					"id" : "obj-16",
					"fontname" : "Arial",
					"fontsize" : 11.595187,
					"numinlets" : 2,
					"numoutlets" : 15
				}

			}
, 			{
				"box" : 				{
					"maxclass" : "comment",
					"text" : "I'm not a hoa but I'm a friend.",
					"patching_rect" : [ 48.5, 446.0, 183.0, 20.0 ],
					"id" : "obj-20",
					"fontname" : "Arial",
					"background" : 1,
					"fontsize" : 11.595187,
					"numinlets" : 1,
					"numoutlets" : 0
				}

			}
, 			{
				"box" : 				{
					"maxclass" : "comment",
					"text" : "Me neither...",
					"patching_rect" : [ 343.5625, 370.0, 97.0, 20.0 ],
					"id" : "obj-15",
					"fontname" : "Arial",
					"background" : 1,
					"fontsize" : 11.595187,
					"numinlets" : 1,
					"numoutlets" : 0
				}

			}
, 			{
				"box" : 				{
					"maxclass" : "comment",
					"text" : "Damned I'm not a hoa !",
					"patching_rect" : [ 223.5625, 307.0, 157.0, 20.0 ],
					"id" : "obj-8",
					"fontname" : "Arial",
					"background" : 1,
					"fontsize" : 11.595187,
					"numinlets" : 1,
					"numoutlets" : 0
				}

			}
, 			{
				"box" : 				{
					"maxclass" : "comment",
					"text" : "Select the objects then send me a bang.",
					"linecount" : 2,
					"patching_rect" : [ 121.5625, 212.5, 157.0, 33.0 ],
					"id" : "obj-1",
					"fontname" : "Arial",
					"background" : 1,
					"fontsize" : 11.595187,
					"numinlets" : 1,
					"numoutlets" : 0
				}

			}
, 			{
				"box" : 				{
					"maxclass" : "comment",
					"text" : "Spacebar to bang the hoas.",
					"patching_rect" : [ 56.5625, 159.0, 199.0, 20.0 ],
					"id" : "obj-21",
					"fontname" : "Arial",
					"background" : 1,
					"fontsize" : 11.595187,
					"numinlets" : 1,
					"numoutlets" : 0
				}

			}
 ],
		"lines" : [ 			{
				"patchline" : 				{
					"source" : [ "obj-23", 0 ],
					"destination" : [ "obj-14", 0 ],
					"hidden" : 0,
					"midpoints" : [  ]
				}

			}
, 			{
				"patchline" : 				{
					"source" : [ "obj-19", 0 ],
					"destination" : [ "obj-18", 0 ],
					"hidden" : 1,
					"midpoints" : [  ]
				}

			}
, 			{
				"patchline" : 				{
					"source" : [ "obj-17", 0 ],
					"destination" : [ "obj-23", 0 ],
					"hidden" : 0,
					"midpoints" : [  ]
				}

			}
, 			{
				"patchline" : 				{
					"source" : [ "obj-14", 0 ],
					"destination" : [ "obj-10", 0 ],
					"hidden" : 0,
					"midpoints" : [  ]
				}

			}
 ]
	}

}
