{
	"patcher" : 	{
		"fileversion" : 1,
		"appversion" : 		{
			"major" : 5,
			"minor" : 1,
			"revision" : 9
		}
,
		"rect" : [ 176.0, 81.0, 970.0, 644.0 ],
		"bgcolor" : [ 0.93, 0.93, 0.92, 1.0 ],
		"bglocked" : 0,
		"defrect" : [ 176.0, 81.0, 970.0, 644.0 ],
		"openrect" : [ 0.0, 0.0, 0.0, 0.0 ],
		"openinpresentation" : 0,
		"default_fontsize" : 11.595187,
		"default_fontface" : 0,
		"default_fontname" : "Arial",
		"gridonopen" : 0,
		"gridsize" : [ 15.0, 15.0 ],
		"gridsnaponopen" : 0,
		"toolbarvisible" : 1,
		"boxanimatetime" : 200,
		"imprint" : 0,
		"enablehscroll" : 1,
		"enablevscroll" : 1,
		"devicewidth" : 0.0,
		"boxes" : [ 			{
				"box" : 				{
					"maxclass" : "newobj",
					"text" : "p controler",
					"patching_rect" : [ 782.0, 152.153839, 80.0, 24.0 ],
					"id" : "obj-16",
					"fontname" : "Arial",
					"color" : [ 0.8, 0.839216, 0.709804, 1.0 ],
					"fontsize" : 15.072887,
					"numinlets" : 0,
					"numoutlets" : 0,
					"patcher" : 					{
						"fileversion" : 1,
						"appversion" : 						{
							"major" : 5,
							"minor" : 1,
							"revision" : 9
						}
,
						"rect" : [ 0.0, 26.0, 899.0, 622.0 ],
						"bgcolor" : [ 0.93, 0.93, 0.92, 1.0 ],
						"bglocked" : 0,
						"defrect" : [ 0.0, 26.0, 899.0, 622.0 ],
						"openrect" : [ 0.0, 0.0, 0.0, 0.0 ],
						"openinpresentation" : 0,
						"default_fontsize" : 11.595187,
						"default_fontface" : 0,
						"default_fontname" : "Arial",
						"gridonopen" : 0,
						"gridsize" : [ 15.0, 15.0 ],
						"gridsnaponopen" : 0,
						"toolbarvisible" : 1,
						"boxanimatetime" : 200,
						"imprint" : 0,
						"enablehscroll" : 1,
						"enablevscroll" : 1,
						"devicewidth" : 0.0,
						"boxes" : [ 							{
								"box" : 								{
									"maxclass" : "comment",
									"varname" : "autohelp_top_description[9]",
									"text" : "Change the interaction mode :",
									"linecount" : 2,
									"frgb" : [ 0.30292, 0.30292, 0.30292, 1.0 ],
									"patching_rect" : [ 420.0, 28.5, 105.5, 34.0 ],
									"id" : "obj-66",
									"fontname" : "Arial",
									"textcolor" : [ 0.30292, 0.30292, 0.30292, 1.0 ],
									"fontsize" : 12.0,
									"numinlets" : 1,
									"numoutlets" : 0
								}

							}
, 							{
								"box" : 								{
									"maxclass" : "panel",
									"patching_rect" : [ 420.0, 28.5, 105.5, 33.0 ],
									"id" : "obj-67",
									"rounded" : 6,
									"shadow" : -1,
									"bordercolor" : [ 0.235294, 0.235294, 0.235294, 0.2 ],
									"numinlets" : 1,
									"numoutlets" : 0,
									"bgcolor" : [ 0.0, 0.0, 0.0, 0.05 ]
								}

							}
, 							{
								"box" : 								{
									"maxclass" : "comment",
									"varname" : "autohelp_top_description[8]",
									"text" : "Change the optimization :",
									"linecount" : 2,
									"frgb" : [ 0.30292, 0.30292, 0.30292, 1.0 ],
									"patching_rect" : [ 300.0, 28.5, 80.0, 34.0 ],
									"id" : "obj-64",
									"fontname" : "Arial",
									"textcolor" : [ 0.30292, 0.30292, 0.30292, 1.0 ],
									"fontsize" : 12.0,
									"numinlets" : 1,
									"numoutlets" : 0
								}

							}
, 							{
								"box" : 								{
									"maxclass" : "panel",
									"patching_rect" : [ 300.0, 28.5, 80.0, 34.0 ],
									"id" : "obj-65",
									"rounded" : 6,
									"shadow" : -1,
									"bordercolor" : [ 0.235294, 0.235294, 0.235294, 0.2 ],
									"numinlets" : 1,
									"numoutlets" : 0,
									"bgcolor" : [ 0.0, 0.0, 0.0, 0.05 ]
								}

							}
, 							{
								"box" : 								{
									"maxclass" : "comment",
									"varname" : "autohelp_top_description[7]",
									"text" : "Change the widen value :",
									"linecount" : 2,
									"frgb" : [ 0.30292, 0.30292, 0.30292, 1.0 ],
									"patching_rect" : [ 210.0, 28.5, 80.0, 34.0 ],
									"id" : "obj-49",
									"fontname" : "Arial",
									"textcolor" : [ 0.30292, 0.30292, 0.30292, 1.0 ],
									"fontsize" : 12.0,
									"numinlets" : 1,
									"numoutlets" : 0
								}

							}
, 							{
								"box" : 								{
									"maxclass" : "panel",
									"patching_rect" : [ 210.0, 28.5, 80.0, 34.0 ],
									"id" : "obj-63",
									"rounded" : 6,
									"shadow" : -1,
									"bordercolor" : [ 0.235294, 0.235294, 0.235294, 0.2 ],
									"numinlets" : 1,
									"numoutlets" : 0,
									"bgcolor" : [ 0.0, 0.0, 0.0, 0.05 ]
								}

							}
, 							{
								"box" : 								{
									"maxclass" : "comment",
									"varname" : "autohelp_top_description[6]",
									"text" : "Change the azimuth :",
									"linecount" : 2,
									"frgb" : [ 0.30292, 0.30292, 0.30292, 1.0 ],
									"patching_rect" : [ 105.0, 28.5, 80.0, 34.0 ],
									"id" : "obj-46",
									"fontname" : "Arial",
									"textcolor" : [ 0.30292, 0.30292, 0.30292, 1.0 ],
									"fontsize" : 12.0,
									"numinlets" : 1,
									"numoutlets" : 0
								}

							}
, 							{
								"box" : 								{
									"maxclass" : "comment",
									"varname" : "autohelp_top_description[1]",
									"text" : "Change the \norder :",
									"linecount" : 2,
									"frgb" : [ 0.30292, 0.30292, 0.30292, 1.0 ],
									"patching_rect" : [ 15.0, 28.5, 80.0, 34.0 ],
									"id" : "obj-43",
									"fontname" : "Arial",
									"textcolor" : [ 0.30292, 0.30292, 0.30292, 1.0 ],
									"fontsize" : 12.0,
									"numinlets" : 1,
									"numoutlets" : 0
								}

							}
, 							{
								"box" : 								{
									"maxclass" : "panel",
									"patching_rect" : [ 15.0, 28.5, 80.0, 34.0 ],
									"id" : "obj-44",
									"rounded" : 6,
									"shadow" : -1,
									"bordercolor" : [ 0.235294, 0.235294, 0.235294, 0.2 ],
									"numinlets" : 1,
									"numoutlets" : 0,
									"bgcolor" : [ 0.0, 0.0, 0.0, 0.05 ]
								}

							}
, 							{
								"box" : 								{
									"maxclass" : "newobj",
									"text" : "bgcolor 0.93 0.93 0.92 1.",
									"linecount" : 2,
									"patching_rect" : [ 817.0, 574.0, 52.0, 23.0 ],
									"id" : "obj-19",
									"fontname" : "Arial",
									"fontsize" : 7.180877,
									"numinlets" : 4,
									"numoutlets" : 0,
									"hidden" : 1
								}

							}
, 							{
								"box" : 								{
									"maxclass" : "comment",
									"varname" : "autohelp_top_description[2]",
									"text" : "Super encoder",
									"frgb" : [ 0.30292, 0.30292, 0.30292, 1.0 ],
									"patching_rect" : [ 569.5, 310.5, 89.0, 20.0 ],
									"id" : "obj-6",
									"fontname" : "Arial",
									"textcolor" : [ 0.30292, 0.30292, 0.30292, 1.0 ],
									"fontsize" : 12.0,
									"numinlets" : 1,
									"numoutlets" : 0
								}

							}
, 							{
								"box" : 								{
									"maxclass" : "panel",
									"patching_rect" : [ 569.5, 310.5, 89.0, 20.0 ],
									"id" : "obj-10",
									"rounded" : 6,
									"shadow" : -1,
									"bordercolor" : [ 0.235294, 0.235294, 0.235294, 0.2 ],
									"numinlets" : 1,
									"numoutlets" : 0,
									"bgcolor" : [ 0.0, 0.0, 0.0, 0.05 ]
								}

							}
, 							{
								"box" : 								{
									"maxclass" : "panel",
									"patching_rect" : [ 311.5, 554.5, 84.0, 20.0 ],
									"id" : "obj-57",
									"rounded" : 6,
									"shadow" : -1,
									"bordercolor" : [ 0.235294, 0.235294, 0.235294, 0.2 ],
									"numinlets" : 1,
									"numoutlets" : 0,
									"bgcolor" : [ 0.0, 0.0, 0.0, 0.05 ]
								}

							}
, 							{
								"box" : 								{
									"maxclass" : "panel",
									"patching_rect" : [ 163.25, 554.5, 38.0, 20.0 ],
									"id" : "obj-56",
									"rounded" : 6,
									"shadow" : -1,
									"bordercolor" : [ 0.235294, 0.235294, 0.235294, 0.2 ],
									"numinlets" : 1,
									"numoutlets" : 0,
									"bgcolor" : [ 0.0, 0.0, 0.0, 0.05 ]
								}

							}
, 							{
								"box" : 								{
									"maxclass" : "panel",
									"patching_rect" : [ 72.0, 554.5, 54.0, 20.0 ],
									"id" : "obj-55",
									"rounded" : 6,
									"shadow" : -1,
									"bordercolor" : [ 0.235294, 0.235294, 0.235294, 0.2 ],
									"numinlets" : 1,
									"numoutlets" : 0,
									"bgcolor" : [ 0.0, 0.0, 0.0, 0.05 ]
								}

							}
, 							{
								"box" : 								{
									"maxclass" : "newobj",
									"text" : "s ctrl.optim",
									"patching_rect" : [ 401.5, 578.0, 67.0, 20.0 ],
									"id" : "obj-50",
									"fontname" : "Arial",
									"fontsize" : 11.595187,
									"numinlets" : 1,
									"numoutlets" : 0
								}

							}
, 							{
								"box" : 								{
									"maxclass" : "newobj",
									"text" : "s ctrl.wide",
									"patching_rect" : [ 208.25, 578.5, 62.0, 20.0 ],
									"id" : "obj-51",
									"fontname" : "Arial",
									"fontsize" : 11.595187,
									"numinlets" : 1,
									"numoutlets" : 0
								}

							}
, 							{
								"box" : 								{
									"maxclass" : "newobj",
									"text" : "s ctrl.azimuth",
									"patching_rect" : [ 15.0, 578.5, 79.0, 20.0 ],
									"id" : "obj-52",
									"fontname" : "Arial",
									"fontsize" : 11.595187,
									"numinlets" : 1,
									"numoutlets" : 0
								}

							}
, 							{
								"box" : 								{
									"maxclass" : "textedit",
									"varname" : "textedit[2]",
									"text" : "optim maxRe",
									"outlettype" : [ "", "int", "", "" ],
									"keymode" : 1,
									"patching_rect" : [ 401.5, 554.5, 87.5, 20.0 ],
									"id" : "obj-53",
									"fontname" : "Arial",
									"bangmode" : 1,
									"fontsize" : 11.595187,
									"numinlets" : 1,
									"numoutlets" : 4
								}

							}
, 							{
								"box" : 								{
									"maxclass" : "flonum",
									"outlettype" : [ "float", "bang" ],
									"patching_rect" : [ 208.25, 554.5, 50.0, 20.0 ],
									"id" : "obj-54",
									"fontname" : "Arial",
									"fontsize" : 11.595187,
									"numinlets" : 1,
									"numoutlets" : 2
								}

							}
, 							{
								"box" : 								{
									"maxclass" : "flonum",
									"outlettype" : [ "float", "bang" ],
									"patching_rect" : [ 15.0, 554.5, 50.0, 20.0 ],
									"id" : "obj-58",
									"fontname" : "Arial",
									"fontsize" : 11.595187,
									"numinlets" : 1,
									"numoutlets" : 2
								}

							}
, 							{
								"box" : 								{
									"maxclass" : "comment",
									"varname" : "autohelp_top_description[5]",
									"text" : "Optimization :",
									"frgb" : [ 0.30292, 0.30292, 0.30292, 1.0 ],
									"patching_rect" : [ 311.5, 554.5, 84.0, 20.0 ],
									"id" : "obj-59",
									"fontname" : "Arial",
									"textcolor" : [ 0.30292, 0.30292, 0.30292, 1.0 ],
									"fontsize" : 12.0,
									"numinlets" : 1,
									"numoutlets" : 0
								}

							}
, 							{
								"box" : 								{
									"maxclass" : "comment",
									"varname" : "autohelp_top_description[4]",
									"text" : "Wide",
									"frgb" : [ 0.30292, 0.30292, 0.30292, 1.0 ],
									"patching_rect" : [ 163.25, 554.5, 38.0, 20.0 ],
									"id" : "obj-60",
									"fontname" : "Arial",
									"textcolor" : [ 0.30292, 0.30292, 0.30292, 1.0 ],
									"fontsize" : 12.0,
									"numinlets" : 1,
									"numoutlets" : 0
								}

							}
, 							{
								"box" : 								{
									"maxclass" : "comment",
									"varname" : "autohelp_top_description[3]",
									"text" : "Azimuth",
									"frgb" : [ 0.30292, 0.30292, 0.30292, 1.0 ],
									"patching_rect" : [ 72.0, 554.5, 54.0, 20.0 ],
									"id" : "obj-61",
									"fontname" : "Arial",
									"textcolor" : [ 0.30292, 0.30292, 0.30292, 1.0 ],
									"fontsize" : 12.0,
									"numinlets" : 1,
									"numoutlets" : 0
								}

							}
, 							{
								"box" : 								{
									"maxclass" : "newobj",
									"text" : "prepend set",
									"outlettype" : [ "" ],
									"patching_rect" : [ 402.5, 554.5, 72.0, 20.0 ],
									"id" : "obj-62",
									"fontname" : "Arial",
									"fontsize" : 11.595187,
									"numinlets" : 1,
									"numoutlets" : 1
								}

							}
, 							{
								"box" : 								{
									"maxclass" : "flonum",
									"outlettype" : [ "float", "bang" ],
									"patching_rect" : [ 817.0, 368.0, 50.0, 20.0 ],
									"id" : "obj-40",
									"fontname" : "Arial",
									"fontsize" : 11.595187,
									"numinlets" : 1,
									"numoutlets" : 2
								}

							}
, 							{
								"box" : 								{
									"maxclass" : "newobj",
									"text" : "prepend set",
									"outlettype" : [ "" ],
									"patching_rect" : [ 772.5, 271.5, 72.0, 20.0 ],
									"id" : "obj-36",
									"fontname" : "Arial",
									"fontsize" : 11.595187,
									"numinlets" : 1,
									"numoutlets" : 1
								}

							}
, 							{
								"box" : 								{
									"maxclass" : "textedit",
									"varname" : "textedit[1]",
									"text" : "optim maxRe",
									"outlettype" : [ "", "int", "", "" ],
									"keymode" : 1,
									"patching_rect" : [ 772.5, 301.0, 94.5, 21.0 ],
									"id" : "obj-37",
									"fontname" : "Arial",
									"bangmode" : 1,
									"fontsize" : 11.595187,
									"numinlets" : 1,
									"numoutlets" : 4
								}

							}
, 							{
								"box" : 								{
									"maxclass" : "flonum",
									"outlettype" : [ "float", "bang" ],
									"patching_rect" : [ 699.0, 263.0, 50.0, 20.0 ],
									"id" : "obj-35",
									"fontname" : "Arial",
									"fontsize" : 11.595187,
									"numinlets" : 1,
									"numoutlets" : 2
								}

							}
, 							{
								"box" : 								{
									"maxclass" : "newobj",
									"text" : "r ctrl.optim",
									"outlettype" : [ "" ],
									"patching_rect" : [ 772.5, 242.5, 65.0, 20.0 ],
									"id" : "obj-21",
									"fontname" : "Arial",
									"fontsize" : 11.595187,
									"numinlets" : 0,
									"numoutlets" : 1
								}

							}
, 							{
								"box" : 								{
									"maxclass" : "newobj",
									"text" : "r ctrl.wide",
									"outlettype" : [ "" ],
									"patching_rect" : [ 817.0, 336.5, 60.0, 20.0 ],
									"id" : "obj-26",
									"fontname" : "Arial",
									"fontsize" : 11.595187,
									"numinlets" : 0,
									"numoutlets" : 1
								}

							}
, 							{
								"box" : 								{
									"maxclass" : "newobj",
									"text" : "r ctrl.azimuth",
									"outlettype" : [ "" ],
									"patching_rect" : [ 699.0, 228.0, 77.0, 20.0 ],
									"id" : "obj-27",
									"fontname" : "Arial",
									"fontsize" : 11.595187,
									"numinlets" : 0,
									"numoutlets" : 1
								}

							}
, 							{
								"box" : 								{
									"maxclass" : "newobj",
									"text" : "hoa.optim~ 7 basic",
									"outlettype" : [ "signal", "signal", "signal", "signal", "signal", "signal", "signal", "signal", "signal", "signal", "signal", "signal", "signal", "signal", "signal" ],
									"patching_rect" : [ 510.0, 391.0, 208.0, 20.0 ],
									"id" : "obj-28",
									"fontname" : "Arial",
									"fontsize" : 11.595187,
									"numinlets" : 15,
									"numoutlets" : 15
								}

							}
, 							{
								"box" : 								{
									"maxclass" : "bpatcher",
									"outlettype" : [ "signal" ],
									"patching_rect" : [ 510.0, 135.0, 218.0, 87.0 ],
									"border" : 1,
									"id" : "obj-30",
									"name" : "hoa.helpaudio.maxpat",
									"numinlets" : 0,
									"args" : [ "@module", 3, "@noise", 1, "@vol", 80 ],
									"numoutlets" : 1
								}

							}
, 							{
								"box" : 								{
									"maxclass" : "newobj",
									"text" : "hoa.wider~ 7",
									"outlettype" : [ "signal", "signal", "signal", "signal", "signal", "signal", "signal", "signal", "signal", "signal", "signal", "signal", "signal", "signal", "signal" ],
									"patching_rect" : [ 510.0, 435.0, 221.5, 20.0 ],
									"id" : "obj-29",
									"fontname" : "Arial",
									"fontsize" : 11.595187,
									"numinlets" : 16,
									"numoutlets" : 15
								}

							}
, 							{
								"box" : 								{
									"maxclass" : "newobj",
									"text" : "hoa.dac~ 1:16",
									"patching_rect" : [ 510.0, 578.0, 221.5, 20.0 ],
									"id" : "obj-69",
									"fontname" : "Arial",
									"fontsize" : 11.595187,
									"numinlets" : 16,
									"numoutlets" : 0
								}

							}
, 							{
								"box" : 								{
									"maxclass" : "newobj",
									"text" : "hoa.decoder~ 7 16",
									"outlettype" : [ "signal", "signal", "signal", "signal", "signal", "signal", "signal", "signal", "signal", "signal", "signal", "signal", "signal", "signal", "signal", "signal" ],
									"patching_rect" : [ 510.0, 495.0, 221.5, 20.0 ],
									"id" : "obj-74",
									"fontname" : "Arial",
									"fontsize" : 11.595187,
									"numinlets" : 15,
									"numoutlets" : 16
								}

							}
, 							{
								"box" : 								{
									"maxclass" : "message",
									"text" : "stop",
									"outlettype" : [ "" ],
									"patching_rect" : [ 834.5, 496.0, 32.5, 18.0 ],
									"id" : "obj-73",
									"fontname" : "Arial",
									"fontsize" : 11.595187,
									"numinlets" : 2,
									"numoutlets" : 1
								}

							}
, 							{
								"box" : 								{
									"maxclass" : "message",
									"text" : "startwindow",
									"outlettype" : [ "" ],
									"patching_rect" : [ 795.0, 466.0, 72.0, 18.0 ],
									"id" : "obj-71",
									"fontname" : "Arial",
									"fontsize" : 11.595187,
									"numinlets" : 2,
									"numoutlets" : 1
								}

							}
, 							{
								"box" : 								{
									"maxclass" : "newobj",
									"text" : "hoa.encoder~ 7",
									"outlettype" : [ "signal", "signal", "signal", "signal", "signal", "signal", "signal", "signal", "signal", "signal", "signal", "signal", "signal", "signal", "signal" ],
									"patching_rect" : [ 510.0, 345.0, 208.0, 20.0 ],
									"id" : "obj-31",
									"fontname" : "Arial",
									"fontsize" : 11.595187,
									"numinlets" : 2,
									"numoutlets" : 15
								}

							}
, 							{
								"box" : 								{
									"maxclass" : "newobj",
									"text" : "loadmess 1",
									"outlettype" : [ "" ],
									"patching_rect" : [ 420.0, 37.0, 70.0, 20.0 ],
									"id" : "obj-3",
									"fontname" : "Arial",
									"fontsize" : 11.595187,
									"numinlets" : 1,
									"numoutlets" : 1,
									"hidden" : 1
								}

							}
, 							{
								"box" : 								{
									"maxclass" : "newobj",
									"text" : "prepend mode",
									"outlettype" : [ "" ],
									"patching_rect" : [ 420.0, 97.0, 85.0, 20.0 ],
									"id" : "obj-22",
									"fontname" : "Arial",
									"fontsize" : 11.595187,
									"numinlets" : 1,
									"numoutlets" : 1
								}

							}
, 							{
								"box" : 								{
									"maxclass" : "umenu",
									"outlettype" : [ "int", "", "" ],
									"types" : [  ],
									"patching_rect" : [ 420.0, 67.0, 100.0, 20.0 ],
									"id" : "obj-23",
									"fontname" : "Arial",
									"fontsize" : 11.595187,
									"numinlets" : 1,
									"items" : [ "absolute", ",", "relative" ],
									"numoutlets" : 3
								}

							}
, 							{
								"box" : 								{
									"maxclass" : "newobj",
									"text" : "loadmess 1",
									"outlettype" : [ "" ],
									"patching_rect" : [ 300.0, 37.0, 70.0, 20.0 ],
									"id" : "obj-32",
									"fontname" : "Arial",
									"fontsize" : 11.595187,
									"numinlets" : 1,
									"numoutlets" : 1,
									"hidden" : 1
								}

							}
, 							{
								"box" : 								{
									"maxclass" : "newobj",
									"text" : "prepend optim",
									"outlettype" : [ "" ],
									"patching_rect" : [ 300.0, 97.0, 85.0, 20.0 ],
									"id" : "obj-33",
									"fontname" : "Arial",
									"fontsize" : 11.595187,
									"numinlets" : 1,
									"numoutlets" : 1
								}

							}
, 							{
								"box" : 								{
									"maxclass" : "umenu",
									"outlettype" : [ "int", "", "" ],
									"types" : [  ],
									"patching_rect" : [ 300.0, 67.0, 100.0, 20.0 ],
									"id" : "obj-34",
									"fontname" : "Arial",
									"fontsize" : 11.595187,
									"numinlets" : 1,
									"items" : [ "basic", ",", "maxRe", ",", "inPhase" ],
									"numoutlets" : 3
								}

							}
, 							{
								"box" : 								{
									"maxclass" : "flonum",
									"outlettype" : [ "float", "bang" ],
									"patching_rect" : [ 210.0, 67.0, 50.0, 20.0 ],
									"id" : "obj-20",
									"fontname" : "Arial",
									"minimum" : 0.0,
									"fontsize" : 11.595187,
									"numinlets" : 1,
									"maximum" : 1.0,
									"numoutlets" : 2
								}

							}
, 							{
								"box" : 								{
									"maxclass" : "flonum",
									"outlettype" : [ "float", "bang" ],
									"patching_rect" : [ 105.0, 67.0, 50.0, 20.0 ],
									"id" : "obj-18",
									"fontname" : "Arial",
									"fontsize" : 11.595187,
									"numinlets" : 1,
									"numoutlets" : 2
								}

							}
, 							{
								"box" : 								{
									"maxclass" : "newobj",
									"text" : "loadmess 0.5",
									"outlettype" : [ "" ],
									"patching_rect" : [ 210.0, 35.0, 79.0, 20.0 ],
									"id" : "obj-13",
									"fontname" : "Arial",
									"fontsize" : 11.595187,
									"numinlets" : 1,
									"numoutlets" : 1,
									"hidden" : 1
								}

							}
, 							{
								"box" : 								{
									"maxclass" : "newobj",
									"text" : "prepend wide",
									"outlettype" : [ "" ],
									"patching_rect" : [ 210.0, 97.0, 80.0, 20.0 ],
									"id" : "obj-16",
									"fontname" : "Arial",
									"fontsize" : 11.595187,
									"numinlets" : 1,
									"numoutlets" : 1
								}

							}
, 							{
								"box" : 								{
									"maxclass" : "newobj",
									"text" : "hoa.pi",
									"outlettype" : [ "float" ],
									"patching_rect" : [ 105.0, 35.0, 42.0, 20.0 ],
									"id" : "obj-9",
									"fontname" : "Arial",
									"fontsize" : 11.595187,
									"numinlets" : 1,
									"numoutlets" : 1,
									"hidden" : 1
								}

							}
, 							{
								"box" : 								{
									"maxclass" : "newobj",
									"text" : "prepend azimuth",
									"outlettype" : [ "" ],
									"patching_rect" : [ 105.0, 97.0, 97.0, 20.0 ],
									"id" : "obj-12",
									"fontname" : "Arial",
									"fontsize" : 11.595187,
									"numinlets" : 1,
									"numoutlets" : 1
								}

							}
, 							{
								"box" : 								{
									"maxclass" : "newobj",
									"text" : "loadmess 12",
									"outlettype" : [ "" ],
									"patching_rect" : [ 15.0, 35.0, 76.0, 20.0 ],
									"id" : "obj-8",
									"fontname" : "Arial",
									"fontsize" : 11.595187,
									"numinlets" : 1,
									"numoutlets" : 1,
									"hidden" : 1
								}

							}
, 							{
								"box" : 								{
									"maxclass" : "number",
									"outlettype" : [ "int", "bang" ],
									"patching_rect" : [ 15.0, 67.0, 50.0, 20.0 ],
									"id" : "obj-7",
									"fontname" : "Arial",
									"minimum" : 1,
									"fontsize" : 11.595187,
									"numinlets" : 1,
									"numoutlets" : 2
								}

							}
, 							{
								"box" : 								{
									"maxclass" : "newobj",
									"text" : "prepend order",
									"outlettype" : [ "" ],
									"patching_rect" : [ 15.0, 97.0, 83.0, 20.0 ],
									"id" : "obj-2",
									"fontname" : "Arial",
									"fontsize" : 11.595187,
									"numinlets" : 1,
									"numoutlets" : 1
								}

							}
, 							{
								"box" : 								{
									"maxclass" : "comment",
									"varname" : "autohelp_top_description",
									"text" : "Controler messages and modes :",
									"linecount" : 3,
									"frgb" : [ 0.30292, 0.30292, 0.30292, 1.0 ],
									"patching_rect" : [ 725.0, 33.5, 88.0, 55.0 ],
									"id" : "obj-4",
									"fontname" : "Arial",
									"textcolor" : [ 0.30292, 0.30292, 0.30292, 1.0 ],
									"fontsize" : 14.0,
									"numinlets" : 1,
									"numoutlets" : 0
								}

							}
, 							{
								"box" : 								{
									"maxclass" : "hoa.control",
									"outlettype" : [ "float", "float", "" ],
									"mode" : 1,
									"patching_rect" : [ 15.0, 141.0, 405.5, 405.5 ],
									"id" : "obj-1",
									"optim" : 1,
									"azimuth" : 3.141593,
									"color" : [ 1.0, 1.0, 1.0, 1.0 ],
									"order" : 12,
									"wide" : 0.5,
									"numinlets" : 1,
									"numoutlets" : 3
								}

							}
, 							{
								"box" : 								{
									"maxclass" : "panel",
									"patching_rect" : [ 105.0, 28.5, 80.0, 34.0 ],
									"id" : "obj-39",
									"rounded" : 6,
									"shadow" : -1,
									"bordercolor" : [ 0.235294, 0.235294, 0.235294, 0.2 ],
									"numinlets" : 1,
									"numoutlets" : 0,
									"bgcolor" : [ 0.0, 0.0, 0.0, 0.05 ]
								}

							}
, 							{
								"box" : 								{
									"maxclass" : "panel",
									"patching_rect" : [ 706.5, 14.5, 125.0, 92.0 ],
									"id" : "obj-45",
									"rounded" : 15,
									"shadow" : -1,
									"bordercolor" : [ 0.235294, 0.235294, 0.235294, 0.2 ],
									"numinlets" : 1,
									"numoutlets" : 0,
									"bgcolor" : [ 0.94324, 0.954082, 0.954082, 1.0 ]
								}

							}
, 							{
								"box" : 								{
									"maxclass" : "panel",
									"patching_rect" : [ 485.0, 301.0, 264.0, 174.0 ],
									"id" : "obj-17",
									"rounded" : 15,
									"shadow" : -1,
									"bordercolor" : [ 0.235294, 0.235294, 0.235294, 0.2 ],
									"background" : 1,
									"numinlets" : 1,
									"numoutlets" : 0,
									"bgcolor" : [ 0.94324, 0.954082, 0.954082, 1.0 ]
								}

							}
 ],
						"lines" : [ 							{
								"patchline" : 								{
									"source" : [ "obj-9", 0 ],
									"destination" : [ "obj-18", 0 ],
									"hidden" : 1,
									"midpoints" : [  ]
								}

							}
, 							{
								"patchline" : 								{
									"source" : [ "obj-8", 0 ],
									"destination" : [ "obj-7", 0 ],
									"hidden" : 1,
									"midpoints" : [  ]
								}

							}
, 							{
								"patchline" : 								{
									"source" : [ "obj-74", 0 ],
									"destination" : [ "obj-69", 0 ],
									"hidden" : 0,
									"midpoints" : [  ]
								}

							}
, 							{
								"patchline" : 								{
									"source" : [ "obj-74", 1 ],
									"destination" : [ "obj-69", 1 ],
									"hidden" : 0,
									"midpoints" : [  ]
								}

							}
, 							{
								"patchline" : 								{
									"source" : [ "obj-74", 2 ],
									"destination" : [ "obj-69", 2 ],
									"hidden" : 0,
									"midpoints" : [  ]
								}

							}
, 							{
								"patchline" : 								{
									"source" : [ "obj-74", 3 ],
									"destination" : [ "obj-69", 3 ],
									"hidden" : 0,
									"midpoints" : [  ]
								}

							}
, 							{
								"patchline" : 								{
									"source" : [ "obj-74", 4 ],
									"destination" : [ "obj-69", 4 ],
									"hidden" : 0,
									"midpoints" : [  ]
								}

							}
, 							{
								"patchline" : 								{
									"source" : [ "obj-74", 5 ],
									"destination" : [ "obj-69", 5 ],
									"hidden" : 0,
									"midpoints" : [  ]
								}

							}
, 							{
								"patchline" : 								{
									"source" : [ "obj-74", 6 ],
									"destination" : [ "obj-69", 6 ],
									"hidden" : 0,
									"midpoints" : [  ]
								}

							}
, 							{
								"patchline" : 								{
									"source" : [ "obj-74", 7 ],
									"destination" : [ "obj-69", 7 ],
									"hidden" : 0,
									"midpoints" : [  ]
								}

							}
, 							{
								"patchline" : 								{
									"source" : [ "obj-74", 8 ],
									"destination" : [ "obj-69", 8 ],
									"hidden" : 0,
									"midpoints" : [  ]
								}

							}
, 							{
								"patchline" : 								{
									"source" : [ "obj-74", 9 ],
									"destination" : [ "obj-69", 9 ],
									"hidden" : 0,
									"midpoints" : [  ]
								}

							}
, 							{
								"patchline" : 								{
									"source" : [ "obj-74", 10 ],
									"destination" : [ "obj-69", 10 ],
									"hidden" : 0,
									"midpoints" : [  ]
								}

							}
, 							{
								"patchline" : 								{
									"source" : [ "obj-74", 11 ],
									"destination" : [ "obj-69", 11 ],
									"hidden" : 0,
									"midpoints" : [  ]
								}

							}
, 							{
								"patchline" : 								{
									"source" : [ "obj-74", 12 ],
									"destination" : [ "obj-69", 12 ],
									"hidden" : 0,
									"midpoints" : [  ]
								}

							}
, 							{
								"patchline" : 								{
									"source" : [ "obj-74", 13 ],
									"destination" : [ "obj-69", 13 ],
									"hidden" : 0,
									"midpoints" : [  ]
								}

							}
, 							{
								"patchline" : 								{
									"source" : [ "obj-74", 14 ],
									"destination" : [ "obj-69", 14 ],
									"hidden" : 0,
									"midpoints" : [  ]
								}

							}
, 							{
								"patchline" : 								{
									"source" : [ "obj-74", 15 ],
									"destination" : [ "obj-69", 15 ],
									"hidden" : 0,
									"midpoints" : [  ]
								}

							}
, 							{
								"patchline" : 								{
									"source" : [ "obj-73", 0 ],
									"destination" : [ "obj-69", 15 ],
									"hidden" : 0,
									"midpoints" : [ 844.0, 526.0, 722.0, 526.0 ]
								}

							}
, 							{
								"patchline" : 								{
									"source" : [ "obj-71", 0 ],
									"destination" : [ "obj-69", 15 ],
									"hidden" : 0,
									"midpoints" : [ 804.5, 526.0, 722.0, 526.0 ]
								}

							}
, 							{
								"patchline" : 								{
									"source" : [ "obj-7", 0 ],
									"destination" : [ "obj-2", 0 ],
									"hidden" : 0,
									"midpoints" : [  ]
								}

							}
, 							{
								"patchline" : 								{
									"source" : [ "obj-62", 0 ],
									"destination" : [ "obj-53", 0 ],
									"hidden" : 0,
									"midpoints" : [  ]
								}

							}
, 							{
								"patchline" : 								{
									"source" : [ "obj-58", 0 ],
									"destination" : [ "obj-52", 0 ],
									"hidden" : 0,
									"midpoints" : [  ]
								}

							}
, 							{
								"patchline" : 								{
									"source" : [ "obj-54", 0 ],
									"destination" : [ "obj-51", 0 ],
									"hidden" : 0,
									"midpoints" : [  ]
								}

							}
, 							{
								"patchline" : 								{
									"source" : [ "obj-40", 0 ],
									"destination" : [ "obj-29", 15 ],
									"hidden" : 0,
									"midpoints" : [ 826.5, 421.0, 722.0, 421.0 ]
								}

							}
, 							{
								"patchline" : 								{
									"source" : [ "obj-36", 0 ],
									"destination" : [ "obj-37", 0 ],
									"hidden" : 0,
									"midpoints" : [  ]
								}

							}
, 							{
								"patchline" : 								{
									"source" : [ "obj-35", 0 ],
									"destination" : [ "obj-31", 1 ],
									"hidden" : 0,
									"midpoints" : [  ]
								}

							}
, 							{
								"patchline" : 								{
									"source" : [ "obj-34", 0 ],
									"destination" : [ "obj-33", 0 ],
									"hidden" : 0,
									"midpoints" : [  ]
								}

							}
, 							{
								"patchline" : 								{
									"source" : [ "obj-33", 0 ],
									"destination" : [ "obj-1", 0 ],
									"hidden" : 0,
									"midpoints" : [ 309.5, 135.0, 24.5, 135.0 ]
								}

							}
, 							{
								"patchline" : 								{
									"source" : [ "obj-32", 0 ],
									"destination" : [ "obj-34", 0 ],
									"hidden" : 1,
									"midpoints" : [  ]
								}

							}
, 							{
								"patchline" : 								{
									"source" : [ "obj-31", 0 ],
									"destination" : [ "obj-28", 0 ],
									"hidden" : 0,
									"color" : [ 0.0, 0.0, 1.0, 1.0 ],
									"midpoints" : [  ]
								}

							}
, 							{
								"patchline" : 								{
									"source" : [ "obj-31", 1 ],
									"destination" : [ "obj-28", 1 ],
									"hidden" : 0,
									"color" : [ 1.0, 0.0, 0.0, 1.0 ],
									"midpoints" : [  ]
								}

							}
, 							{
								"patchline" : 								{
									"source" : [ "obj-31", 2 ],
									"destination" : [ "obj-28", 2 ],
									"hidden" : 0,
									"color" : [ 0.0, 0.0, 1.0, 1.0 ],
									"midpoints" : [  ]
								}

							}
, 							{
								"patchline" : 								{
									"source" : [ "obj-31", 3 ],
									"destination" : [ "obj-28", 3 ],
									"hidden" : 0,
									"color" : [ 1.0, 0.0, 0.0, 1.0 ],
									"midpoints" : [  ]
								}

							}
, 							{
								"patchline" : 								{
									"source" : [ "obj-31", 4 ],
									"destination" : [ "obj-28", 4 ],
									"hidden" : 0,
									"color" : [ 0.0, 0.0, 1.0, 1.0 ],
									"midpoints" : [  ]
								}

							}
, 							{
								"patchline" : 								{
									"source" : [ "obj-31", 5 ],
									"destination" : [ "obj-28", 5 ],
									"hidden" : 0,
									"color" : [ 1.0, 0.0, 0.0, 1.0 ],
									"midpoints" : [  ]
								}

							}
, 							{
								"patchline" : 								{
									"source" : [ "obj-31", 6 ],
									"destination" : [ "obj-28", 6 ],
									"hidden" : 0,
									"color" : [ 0.0, 0.0, 1.0, 1.0 ],
									"midpoints" : [  ]
								}

							}
, 							{
								"patchline" : 								{
									"source" : [ "obj-31", 7 ],
									"destination" : [ "obj-28", 7 ],
									"hidden" : 0,
									"color" : [ 1.0, 0.0, 0.0, 1.0 ],
									"midpoints" : [  ]
								}

							}
, 							{
								"patchline" : 								{
									"source" : [ "obj-31", 8 ],
									"destination" : [ "obj-28", 8 ],
									"hidden" : 0,
									"color" : [ 0.0, 0.0, 1.0, 1.0 ],
									"midpoints" : [  ]
								}

							}
, 							{
								"patchline" : 								{
									"source" : [ "obj-31", 9 ],
									"destination" : [ "obj-28", 9 ],
									"hidden" : 0,
									"color" : [ 1.0, 0.0, 0.0, 1.0 ],
									"midpoints" : [  ]
								}

							}
, 							{
								"patchline" : 								{
									"source" : [ "obj-31", 10 ],
									"destination" : [ "obj-28", 10 ],
									"hidden" : 0,
									"color" : [ 0.0, 0.0, 1.0, 1.0 ],
									"midpoints" : [  ]
								}

							}
, 							{
								"patchline" : 								{
									"source" : [ "obj-31", 11 ],
									"destination" : [ "obj-28", 11 ],
									"hidden" : 0,
									"color" : [ 1.0, 0.0, 0.0, 1.0 ],
									"midpoints" : [  ]
								}

							}
, 							{
								"patchline" : 								{
									"source" : [ "obj-31", 12 ],
									"destination" : [ "obj-28", 12 ],
									"hidden" : 0,
									"color" : [ 0.0, 0.0, 1.0, 1.0 ],
									"midpoints" : [  ]
								}

							}
, 							{
								"patchline" : 								{
									"source" : [ "obj-31", 13 ],
									"destination" : [ "obj-28", 13 ],
									"hidden" : 0,
									"color" : [ 1.0, 0.0, 0.0, 1.0 ],
									"midpoints" : [  ]
								}

							}
, 							{
								"patchline" : 								{
									"source" : [ "obj-31", 14 ],
									"destination" : [ "obj-28", 14 ],
									"hidden" : 0,
									"color" : [ 0.0, 0.0, 1.0, 1.0 ],
									"midpoints" : [  ]
								}

							}
, 							{
								"patchline" : 								{
									"source" : [ "obj-30", 0 ],
									"destination" : [ "obj-31", 0 ],
									"hidden" : 0,
									"midpoints" : [  ]
								}

							}
, 							{
								"patchline" : 								{
									"source" : [ "obj-3", 0 ],
									"destination" : [ "obj-23", 0 ],
									"hidden" : 1,
									"midpoints" : [  ]
								}

							}
, 							{
								"patchline" : 								{
									"source" : [ "obj-29", 0 ],
									"destination" : [ "obj-74", 0 ],
									"hidden" : 0,
									"midpoints" : [  ]
								}

							}
, 							{
								"patchline" : 								{
									"source" : [ "obj-29", 1 ],
									"destination" : [ "obj-74", 1 ],
									"hidden" : 0,
									"midpoints" : [  ]
								}

							}
, 							{
								"patchline" : 								{
									"source" : [ "obj-29", 2 ],
									"destination" : [ "obj-74", 2 ],
									"hidden" : 0,
									"midpoints" : [  ]
								}

							}
, 							{
								"patchline" : 								{
									"source" : [ "obj-29", 3 ],
									"destination" : [ "obj-74", 3 ],
									"hidden" : 0,
									"midpoints" : [  ]
								}

							}
, 							{
								"patchline" : 								{
									"source" : [ "obj-29", 4 ],
									"destination" : [ "obj-74", 4 ],
									"hidden" : 0,
									"midpoints" : [  ]
								}

							}
, 							{
								"patchline" : 								{
									"source" : [ "obj-29", 5 ],
									"destination" : [ "obj-74", 5 ],
									"hidden" : 0,
									"midpoints" : [  ]
								}

							}
, 							{
								"patchline" : 								{
									"source" : [ "obj-29", 6 ],
									"destination" : [ "obj-74", 6 ],
									"hidden" : 0,
									"midpoints" : [  ]
								}

							}
, 							{
								"patchline" : 								{
									"source" : [ "obj-29", 7 ],
									"destination" : [ "obj-74", 7 ],
									"hidden" : 0,
									"midpoints" : [  ]
								}

							}
, 							{
								"patchline" : 								{
									"source" : [ "obj-29", 8 ],
									"destination" : [ "obj-74", 8 ],
									"hidden" : 0,
									"midpoints" : [  ]
								}

							}
, 							{
								"patchline" : 								{
									"source" : [ "obj-29", 9 ],
									"destination" : [ "obj-74", 9 ],
									"hidden" : 0,
									"midpoints" : [  ]
								}

							}
, 							{
								"patchline" : 								{
									"source" : [ "obj-29", 10 ],
									"destination" : [ "obj-74", 10 ],
									"hidden" : 0,
									"midpoints" : [  ]
								}

							}
, 							{
								"patchline" : 								{
									"source" : [ "obj-29", 11 ],
									"destination" : [ "obj-74", 11 ],
									"hidden" : 0,
									"midpoints" : [  ]
								}

							}
, 							{
								"patchline" : 								{
									"source" : [ "obj-29", 12 ],
									"destination" : [ "obj-74", 12 ],
									"hidden" : 0,
									"midpoints" : [  ]
								}

							}
, 							{
								"patchline" : 								{
									"source" : [ "obj-29", 13 ],
									"destination" : [ "obj-74", 13 ],
									"hidden" : 0,
									"midpoints" : [  ]
								}

							}
, 							{
								"patchline" : 								{
									"source" : [ "obj-29", 14 ],
									"destination" : [ "obj-74", 14 ],
									"hidden" : 0,
									"midpoints" : [  ]
								}

							}
, 							{
								"patchline" : 								{
									"source" : [ "obj-28", 0 ],
									"destination" : [ "obj-29", 0 ],
									"hidden" : 0,
									"midpoints" : [  ]
								}

							}
, 							{
								"patchline" : 								{
									"source" : [ "obj-28", 1 ],
									"destination" : [ "obj-29", 1 ],
									"hidden" : 0,
									"midpoints" : [  ]
								}

							}
, 							{
								"patchline" : 								{
									"source" : [ "obj-28", 2 ],
									"destination" : [ "obj-29", 2 ],
									"hidden" : 0,
									"midpoints" : [  ]
								}

							}
, 							{
								"patchline" : 								{
									"source" : [ "obj-28", 3 ],
									"destination" : [ "obj-29", 3 ],
									"hidden" : 0,
									"midpoints" : [  ]
								}

							}
, 							{
								"patchline" : 								{
									"source" : [ "obj-28", 4 ],
									"destination" : [ "obj-29", 4 ],
									"hidden" : 0,
									"midpoints" : [  ]
								}

							}
, 							{
								"patchline" : 								{
									"source" : [ "obj-28", 5 ],
									"destination" : [ "obj-29", 5 ],
									"hidden" : 0,
									"midpoints" : [  ]
								}

							}
, 							{
								"patchline" : 								{
									"source" : [ "obj-28", 6 ],
									"destination" : [ "obj-29", 6 ],
									"hidden" : 0,
									"midpoints" : [  ]
								}

							}
, 							{
								"patchline" : 								{
									"source" : [ "obj-28", 7 ],
									"destination" : [ "obj-29", 7 ],
									"hidden" : 0,
									"midpoints" : [  ]
								}

							}
, 							{
								"patchline" : 								{
									"source" : [ "obj-28", 8 ],
									"destination" : [ "obj-29", 8 ],
									"hidden" : 0,
									"midpoints" : [  ]
								}

							}
, 							{
								"patchline" : 								{
									"source" : [ "obj-28", 9 ],
									"destination" : [ "obj-29", 9 ],
									"hidden" : 0,
									"midpoints" : [  ]
								}

							}
, 							{
								"patchline" : 								{
									"source" : [ "obj-28", 10 ],
									"destination" : [ "obj-29", 10 ],
									"hidden" : 0,
									"midpoints" : [  ]
								}

							}
, 							{
								"patchline" : 								{
									"source" : [ "obj-28", 11 ],
									"destination" : [ "obj-29", 11 ],
									"hidden" : 0,
									"midpoints" : [  ]
								}

							}
, 							{
								"patchline" : 								{
									"source" : [ "obj-28", 12 ],
									"destination" : [ "obj-29", 12 ],
									"hidden" : 0,
									"midpoints" : [  ]
								}

							}
, 							{
								"patchline" : 								{
									"source" : [ "obj-28", 13 ],
									"destination" : [ "obj-29", 13 ],
									"hidden" : 0,
									"midpoints" : [  ]
								}

							}
, 							{
								"patchline" : 								{
									"source" : [ "obj-28", 14 ],
									"destination" : [ "obj-29", 14 ],
									"hidden" : 0,
									"midpoints" : [  ]
								}

							}
, 							{
								"patchline" : 								{
									"source" : [ "obj-27", 0 ],
									"destination" : [ "obj-35", 0 ],
									"hidden" : 0,
									"midpoints" : [  ]
								}

							}
, 							{
								"patchline" : 								{
									"source" : [ "obj-26", 0 ],
									"destination" : [ "obj-40", 0 ],
									"hidden" : 0,
									"midpoints" : [  ]
								}

							}
, 							{
								"patchline" : 								{
									"source" : [ "obj-23", 0 ],
									"destination" : [ "obj-22", 0 ],
									"hidden" : 0,
									"midpoints" : [  ]
								}

							}
, 							{
								"patchline" : 								{
									"source" : [ "obj-22", 0 ],
									"destination" : [ "obj-1", 0 ],
									"hidden" : 0,
									"midpoints" : [ 429.5, 135.0, 24.5, 135.0 ]
								}

							}
, 							{
								"patchline" : 								{
									"source" : [ "obj-21", 0 ],
									"destination" : [ "obj-36", 0 ],
									"hidden" : 0,
									"midpoints" : [  ]
								}

							}
, 							{
								"patchline" : 								{
									"source" : [ "obj-21", 0 ],
									"destination" : [ "obj-28", 14 ],
									"hidden" : 0,
									"midpoints" : [ 782.0, 376.0, 708.5, 376.0 ]
								}

							}
, 							{
								"patchline" : 								{
									"source" : [ "obj-20", 0 ],
									"destination" : [ "obj-16", 0 ],
									"hidden" : 0,
									"midpoints" : [  ]
								}

							}
, 							{
								"patchline" : 								{
									"source" : [ "obj-2", 0 ],
									"destination" : [ "obj-1", 0 ],
									"hidden" : 0,
									"midpoints" : [ 24.5, 117.0, 24.5, 117.0 ]
								}

							}
, 							{
								"patchline" : 								{
									"source" : [ "obj-18", 0 ],
									"destination" : [ "obj-12", 0 ],
									"hidden" : 0,
									"midpoints" : [  ]
								}

							}
, 							{
								"patchline" : 								{
									"source" : [ "obj-16", 0 ],
									"destination" : [ "obj-1", 0 ],
									"hidden" : 0,
									"midpoints" : [ 219.5, 135.0, 24.5, 135.0 ]
								}

							}
, 							{
								"patchline" : 								{
									"source" : [ "obj-13", 0 ],
									"destination" : [ "obj-20", 0 ],
									"hidden" : 1,
									"midpoints" : [  ]
								}

							}
, 							{
								"patchline" : 								{
									"source" : [ "obj-12", 0 ],
									"destination" : [ "obj-1", 0 ],
									"hidden" : 0,
									"midpoints" : [ 114.5, 135.0, 24.5, 135.0 ]
								}

							}
, 							{
								"patchline" : 								{
									"source" : [ "obj-1", 2 ],
									"destination" : [ "obj-62", 0 ],
									"hidden" : 0,
									"midpoints" : [  ]
								}

							}
, 							{
								"patchline" : 								{
									"source" : [ "obj-1", 0 ],
									"destination" : [ "obj-58", 0 ],
									"hidden" : 0,
									"midpoints" : [  ]
								}

							}
, 							{
								"patchline" : 								{
									"source" : [ "obj-1", 1 ],
									"destination" : [ "obj-54", 0 ],
									"hidden" : 0,
									"midpoints" : [  ]
								}

							}
, 							{
								"patchline" : 								{
									"source" : [ "obj-1", 2 ],
									"destination" : [ "obj-50", 0 ],
									"hidden" : 0,
									"midpoints" : [  ]
								}

							}
 ]
					}
,
					"saved_object_attributes" : 					{
						"default_fontsize" : 11.595187,
						"fontname" : "Arial",
						"globalpatchername" : "",
						"fontface" : 0,
						"default_fontface" : 0,
						"fontsize" : 11.595187,
						"default_fontname" : "Arial"
					}

				}

			}
, 			{
				"box" : 				{
					"maxclass" : "newobj",
					"text" : "p color",
					"patching_rect" : [ 783.0, 177.333328, 57.0, 25.0 ],
					"id" : "obj-25",
					"fontname" : "Arial",
					"color" : [ 0.8, 0.839216, 0.709804, 1.0 ],
					"fontsize" : 16.192255,
					"numinlets" : 0,
					"numoutlets" : 0,
					"patcher" : 					{
						"fileversion" : 1,
						"appversion" : 						{
							"major" : 5,
							"minor" : 1,
							"revision" : 9
						}
,
						"rect" : [ 0.0, 26.0, 899.0, 622.0 ],
						"bgcolor" : [ 0.93, 0.93, 0.92, 1.0 ],
						"bglocked" : 0,
						"defrect" : [ 0.0, 26.0, 899.0, 622.0 ],
						"openrect" : [ 0.0, 0.0, 0.0, 0.0 ],
						"openinpresentation" : 0,
						"default_fontsize" : 11.595187,
						"default_fontface" : 0,
						"default_fontname" : "Arial",
						"gridonopen" : 0,
						"gridsize" : [ 15.0, 15.0 ],
						"gridsnaponopen" : 0,
						"toolbarvisible" : 1,
						"boxanimatetime" : 200,
						"imprint" : 0,
						"enablehscroll" : 1,
						"enablevscroll" : 1,
						"devicewidth" : 0.0,
						"boxes" : [ 							{
								"box" : 								{
									"maxclass" : "comment",
									"varname" : "autohelp_top_description[7]",
									"text" : "circle inner color :",
									"frgb" : [ 0.30292, 0.30292, 0.30292, 1.0 ],
									"patching_rect" : [ 751.0, 160.0, 112.0, 20.0 ],
									"id" : "obj-2",
									"fontname" : "Arial",
									"textcolor" : [ 0.30292, 0.30292, 0.30292, 1.0 ],
									"fontsize" : 12.0,
									"numinlets" : 1,
									"numoutlets" : 0
								}

							}
, 							{
								"box" : 								{
									"maxclass" : "panel",
									"patching_rect" : [ 751.0, 160.0, 112.0, 20.0 ],
									"id" : "obj-3",
									"rounded" : 6,
									"shadow" : -1,
									"bordercolor" : [ 0.235294, 0.235294, 0.235294, 0.2 ],
									"numinlets" : 1,
									"numoutlets" : 0,
									"bgcolor" : [ 0.0, 0.0, 0.0, 0.05 ]
								}

							}
, 							{
								"box" : 								{
									"maxclass" : "newobj",
									"text" : "loadmess 1. 0. 0. 0.",
									"outlettype" : [ "" ],
									"patching_rect" : [ 751.0, 139.0, 112.0, 20.0 ],
									"id" : "obj-4",
									"fontname" : "Arial",
									"fontsize" : 11.595187,
									"numinlets" : 1,
									"numoutlets" : 1,
									"hidden" : 1
								}

							}
, 							{
								"box" : 								{
									"maxclass" : "newobj",
									"text" : "prepend cicolorin",
									"outlettype" : [ "" ],
									"patching_rect" : [ 751.0, 219.0, 99.0, 20.0 ],
									"id" : "obj-5",
									"fontname" : "Arial",
									"fontsize" : 11.595187,
									"numinlets" : 1,
									"numoutlets" : 1
								}

							}
, 							{
								"box" : 								{
									"maxclass" : "swatch",
									"outlettype" : [ "", "float" ],
									"patching_rect" : [ 751.0, 181.0, 128.0, 32.0 ],
									"presentation" : 1,
									"id" : "obj-6",
									"numinlets" : 3,
									"presentation_rect" : [ 550.0, 231.0, 128.0, 32.0 ],
									"numoutlets" : 2
								}

							}
, 							{
								"box" : 								{
									"maxclass" : "comment",
									"varname" : "autohelp_top_description[6]",
									"text" : "Shadow",
									"frgb" : [ 0.30292, 0.30292, 0.30292, 1.0 ],
									"patching_rect" : [ 499.0, 143.0, 54.0, 20.0 ],
									"id" : "obj-56",
									"fontname" : "Arial",
									"textcolor" : [ 0.30292, 0.30292, 0.30292, 1.0 ],
									"fontsize" : 12.0,
									"numinlets" : 1,
									"numoutlets" : 0
								}

							}
, 							{
								"box" : 								{
									"maxclass" : "panel",
									"patching_rect" : [ 499.0, 143.0, 54.0, 20.0 ],
									"id" : "obj-57",
									"rounded" : 6,
									"shadow" : -1,
									"bordercolor" : [ 0.235294, 0.235294, 0.235294, 0.2 ],
									"numinlets" : 1,
									"numoutlets" : 0,
									"bgcolor" : [ 0.0, 0.0, 0.0, 0.05 ]
								}

							}
, 							{
								"box" : 								{
									"maxclass" : "comment",
									"varname" : "autohelp_top_description[5]",
									"text" : "Background color :",
									"frgb" : [ 0.30292, 0.30292, 0.30292, 1.0 ],
									"patching_rect" : [ 15.0, 36.0, 116.0, 20.0 ],
									"id" : "obj-54",
									"fontname" : "Arial",
									"textcolor" : [ 0.30292, 0.30292, 0.30292, 1.0 ],
									"fontsize" : 12.0,
									"numinlets" : 1,
									"numoutlets" : 0
								}

							}
, 							{
								"box" : 								{
									"maxclass" : "panel",
									"patching_rect" : [ 15.0, 36.0, 112.0, 20.0 ],
									"id" : "obj-55",
									"rounded" : 6,
									"shadow" : -1,
									"bordercolor" : [ 0.235294, 0.235294, 0.235294, 0.2 ],
									"numinlets" : 1,
									"numoutlets" : 0,
									"bgcolor" : [ 0.0, 0.0, 0.0, 0.05 ]
								}

							}
, 							{
								"box" : 								{
									"maxclass" : "comment",
									"varname" : "autohelp_top_description[4]",
									"text" : "Circle color :",
									"frgb" : [ 0.30292, 0.30292, 0.30292, 1.0 ],
									"patching_rect" : [ 150.0, 36.0, 82.0, 20.0 ],
									"id" : "obj-52",
									"fontname" : "Arial",
									"textcolor" : [ 0.30292, 0.30292, 0.30292, 1.0 ],
									"fontsize" : 12.0,
									"numinlets" : 1,
									"numoutlets" : 0
								}

							}
, 							{
								"box" : 								{
									"maxclass" : "panel",
									"patching_rect" : [ 150.0, 36.0, 78.0, 20.0 ],
									"id" : "obj-53",
									"rounded" : 6,
									"shadow" : -1,
									"bordercolor" : [ 0.235294, 0.235294, 0.235294, 0.2 ],
									"numinlets" : 1,
									"numoutlets" : 0,
									"bgcolor" : [ 0.0, 0.0, 0.0, 0.05 ]
								}

							}
, 							{
								"box" : 								{
									"maxclass" : "comment",
									"varname" : "autohelp_top_description[3]",
									"text" : "Biggest contribution color :",
									"frgb" : [ 0.30292, 0.30292, 0.30292, 1.0 ],
									"patching_rect" : [ 286.0, 36.0, 152.0, 20.0 ],
									"id" : "obj-50",
									"fontname" : "Arial",
									"textcolor" : [ 0.30292, 0.30292, 0.30292, 1.0 ],
									"fontsize" : 12.0,
									"numinlets" : 1,
									"numoutlets" : 0
								}

							}
, 							{
								"box" : 								{
									"maxclass" : "panel",
									"patching_rect" : [ 286.0, 36.0, 152.0, 20.0 ],
									"id" : "obj-51",
									"rounded" : 6,
									"shadow" : -1,
									"bordercolor" : [ 0.235294, 0.235294, 0.235294, 0.2 ],
									"numinlets" : 1,
									"numoutlets" : 0,
									"bgcolor" : [ 0.0, 0.0, 0.0, 0.05 ]
								}

							}
, 							{
								"box" : 								{
									"maxclass" : "comment",
									"varname" : "autohelp_top_description[2]",
									"text" : "Positive harmonics color :",
									"frgb" : [ 0.30292, 0.30292, 0.30292, 1.0 ],
									"patching_rect" : [ 446.0, 36.0, 146.0, 20.0 ],
									"id" : "obj-48",
									"fontname" : "Arial",
									"textcolor" : [ 0.30292, 0.30292, 0.30292, 1.0 ],
									"fontsize" : 12.0,
									"numinlets" : 1,
									"numoutlets" : 0
								}

							}
, 							{
								"box" : 								{
									"maxclass" : "panel",
									"patching_rect" : [ 446.0, 36.0, 146.0, 20.0 ],
									"id" : "obj-49",
									"rounded" : 6,
									"shadow" : -1,
									"bordercolor" : [ 0.235294, 0.235294, 0.235294, 0.2 ],
									"numinlets" : 1,
									"numoutlets" : 0,
									"bgcolor" : [ 0.0, 0.0, 0.0, 0.05 ]
								}

							}
, 							{
								"box" : 								{
									"maxclass" : "comment",
									"varname" : "autohelp_top_description[1]",
									"text" : "Negative harmonics color :",
									"frgb" : [ 0.30292, 0.30292, 0.30292, 1.0 ],
									"patching_rect" : [ 595.0, 36.0, 151.5, 20.0 ],
									"id" : "obj-43",
									"fontname" : "Arial",
									"textcolor" : [ 0.30292, 0.30292, 0.30292, 1.0 ],
									"fontsize" : 12.0,
									"numinlets" : 1,
									"numoutlets" : 0
								}

							}
, 							{
								"box" : 								{
									"maxclass" : "panel",
									"patching_rect" : [ 595.0, 36.0, 151.5, 20.0 ],
									"id" : "obj-44",
									"rounded" : 6,
									"shadow" : -1,
									"bordercolor" : [ 0.235294, 0.235294, 0.235294, 0.2 ],
									"numinlets" : 1,
									"numoutlets" : 0,
									"bgcolor" : [ 0.0, 0.0, 0.0, 0.05 ]
								}

							}
, 							{
								"box" : 								{
									"maxclass" : "comment",
									"varname" : "autohelp_top_description[9]",
									"text" : "circle shadow color :",
									"frgb" : [ 0.30292, 0.30292, 0.30292, 1.0 ],
									"patching_rect" : [ 751.0, 36.0, 137.0, 20.0 ],
									"id" : "obj-66",
									"fontname" : "Arial",
									"textcolor" : [ 0.30292, 0.30292, 0.30292, 1.0 ],
									"fontsize" : 12.0,
									"numinlets" : 1,
									"numoutlets" : 0
								}

							}
, 							{
								"box" : 								{
									"maxclass" : "panel",
									"patching_rect" : [ 751.0, 36.0, 137.0, 20.0 ],
									"id" : "obj-67",
									"rounded" : 6,
									"shadow" : -1,
									"bordercolor" : [ 0.235294, 0.235294, 0.235294, 0.2 ],
									"numinlets" : 1,
									"numoutlets" : 0,
									"bgcolor" : [ 0.0, 0.0, 0.0, 0.05 ]
								}

							}
, 							{
								"box" : 								{
									"maxclass" : "comment",
									"varname" : "autohelp_top_description",
									"text" : "Custom colors.",
									"frgb" : [ 0.30292, 0.30292, 0.30292, 1.0 ],
									"patching_rect" : [ 578.0, 295.5, 122.0, 23.0 ],
									"id" : "obj-38",
									"fontname" : "Arial",
									"textcolor" : [ 0.30292, 0.30292, 0.30292, 1.0 ],
									"fontsize" : 14.0,
									"numinlets" : 1,
									"numoutlets" : 0
								}

							}
, 							{
								"box" : 								{
									"maxclass" : "panel",
									"patching_rect" : [ 570.0, 283.5, 140.0, 43.0 ],
									"id" : "obj-45",
									"rounded" : 15,
									"shadow" : -1,
									"bordercolor" : [ 0.235294, 0.235294, 0.235294, 0.2 ],
									"numinlets" : 1,
									"numoutlets" : 0,
									"bgcolor" : [ 0.94324, 0.954082, 0.954082, 1.0 ]
								}

							}
, 							{
								"box" : 								{
									"maxclass" : "newobj",
									"text" : "bgcolor 0.93 0.93 0.92 1.",
									"linecount" : 2,
									"patching_rect" : [ 456.0, 517.0, 52.0, 23.0 ],
									"id" : "obj-37",
									"fontname" : "Arial",
									"fontsize" : 7.180877,
									"numinlets" : 4,
									"numoutlets" : 0,
									"hidden" : 1
								}

							}
, 							{
								"box" : 								{
									"maxclass" : "toggle",
									"outlettype" : [ "int" ],
									"patching_rect" : [ 472.0, 143.0, 20.0, 20.0 ],
									"id" : "obj-36",
									"numinlets" : 1,
									"numoutlets" : 1
								}

							}
, 							{
								"box" : 								{
									"maxclass" : "message",
									"text" : "shadow $1",
									"outlettype" : [ "" ],
									"patching_rect" : [ 472.0, 172.0, 66.0, 18.0 ],
									"id" : "obj-32",
									"fontname" : "Arial",
									"fontsize" : 11.595187,
									"numinlets" : 2,
									"numoutlets" : 1
								}

							}
, 							{
								"box" : 								{
									"maxclass" : "newobj",
									"text" : "loadmess 1. 0. 0. 0.",
									"outlettype" : [ "" ],
									"patching_rect" : [ 751.0, 15.0, 112.0, 20.0 ],
									"id" : "obj-10",
									"fontname" : "Arial",
									"fontsize" : 11.595187,
									"numinlets" : 1,
									"numoutlets" : 1,
									"hidden" : 1
								}

							}
, 							{
								"box" : 								{
									"maxclass" : "newobj",
									"text" : "prepend cishadcolor",
									"outlettype" : [ "" ],
									"patching_rect" : [ 751.0, 95.0, 115.0, 20.0 ],
									"id" : "obj-29",
									"fontname" : "Arial",
									"fontsize" : 11.595187,
									"numinlets" : 1,
									"numoutlets" : 1
								}

							}
, 							{
								"box" : 								{
									"maxclass" : "swatch",
									"outlettype" : [ "", "float" ],
									"patching_rect" : [ 751.0, 57.0, 128.0, 32.0 ],
									"presentation" : 1,
									"id" : "obj-31",
									"numinlets" : 3,
									"presentation_rect" : [ 535.0, 216.0, 128.0, 32.0 ],
									"numoutlets" : 2
								}

							}
, 							{
								"box" : 								{
									"maxclass" : "newobj",
									"text" : "loadmess 1. 1. 0.99 1.",
									"outlettype" : [ "" ],
									"patching_rect" : [ 15.0, 15.0, 125.0, 20.0 ],
									"id" : "obj-30",
									"fontname" : "Arial",
									"fontsize" : 11.595187,
									"numinlets" : 1,
									"numoutlets" : 1,
									"hidden" : 1
								}

							}
, 							{
								"box" : 								{
									"maxclass" : "newobj",
									"text" : "loadmess 0. 0. 0.01 1.",
									"outlettype" : [ "" ],
									"patching_rect" : [ 150.0, 15.0, 125.0, 20.0 ],
									"id" : "obj-28",
									"fontname" : "Arial",
									"fontsize" : 11.595187,
									"numinlets" : 1,
									"numoutlets" : 1,
									"hidden" : 1
								}

							}
, 							{
								"box" : 								{
									"maxclass" : "newobj",
									"text" : "loadmess 0. 1. 0. 0.",
									"outlettype" : [ "" ],
									"patching_rect" : [ 286.0, 15.0, 112.0, 20.0 ],
									"id" : "obj-27",
									"fontname" : "Arial",
									"fontsize" : 11.595187,
									"numinlets" : 1,
									"numoutlets" : 1,
									"hidden" : 1
								}

							}
, 							{
								"box" : 								{
									"maxclass" : "newobj",
									"text" : "loadmess 1. 0. 0. 0.",
									"outlettype" : [ "" ],
									"patching_rect" : [ 595.0, 15.0, 112.0, 20.0 ],
									"id" : "obj-26",
									"fontname" : "Arial",
									"fontsize" : 11.595187,
									"numinlets" : 1,
									"numoutlets" : 1,
									"hidden" : 1
								}

							}
, 							{
								"box" : 								{
									"maxclass" : "newobj",
									"text" : "loadmess 0. 0. 1. 0.",
									"outlettype" : [ "" ],
									"patching_rect" : [ 446.0, 15.0, 112.0, 20.0 ],
									"id" : "obj-25",
									"fontname" : "Arial",
									"fontsize" : 11.595187,
									"numinlets" : 1,
									"numoutlets" : 1,
									"hidden" : 1
								}

							}
, 							{
								"box" : 								{
									"maxclass" : "newobj",
									"text" : "prepend cocolor",
									"outlettype" : [ "" ],
									"patching_rect" : [ 286.0, 93.0, 94.0, 20.0 ],
									"id" : "obj-23",
									"fontname" : "Arial",
									"fontsize" : 11.595187,
									"numinlets" : 1,
									"numoutlets" : 1
								}

							}
, 							{
								"box" : 								{
									"maxclass" : "swatch",
									"outlettype" : [ "", "float" ],
									"patching_rect" : [ 286.0, 57.0, 128.0, 32.0 ],
									"presentation" : 1,
									"id" : "obj-24",
									"numinlets" : 3,
									"presentation_rect" : [ 505.0, 186.0, 128.0, 32.0 ],
									"numoutlets" : 2
								}

							}
, 							{
								"box" : 								{
									"maxclass" : "newobj",
									"text" : "prepend nhcolor",
									"outlettype" : [ "" ],
									"patching_rect" : [ 595.0, 95.0, 94.0, 20.0 ],
									"id" : "obj-20",
									"fontname" : "Arial",
									"fontsize" : 11.595187,
									"numinlets" : 1,
									"numoutlets" : 1
								}

							}
, 							{
								"box" : 								{
									"maxclass" : "swatch",
									"outlettype" : [ "", "float" ],
									"patching_rect" : [ 595.0, 57.0, 128.0, 32.0 ],
									"presentation" : 1,
									"id" : "obj-21",
									"numinlets" : 3,
									"presentation_rect" : [ 520.0, 201.0, 128.0, 32.0 ],
									"numoutlets" : 2
								}

							}
, 							{
								"box" : 								{
									"maxclass" : "newobj",
									"text" : "prepend phcolor",
									"outlettype" : [ "" ],
									"patching_rect" : [ 446.0, 95.0, 94.0, 20.0 ],
									"id" : "obj-15",
									"fontname" : "Arial",
									"fontsize" : 11.595187,
									"numinlets" : 1,
									"numoutlets" : 1
								}

							}
, 							{
								"box" : 								{
									"maxclass" : "swatch",
									"outlettype" : [ "", "float" ],
									"patching_rect" : [ 446.0, 57.0, 128.0, 32.0 ],
									"presentation" : 1,
									"id" : "obj-16",
									"numinlets" : 3,
									"presentation_rect" : [ 505.0, 186.0, 128.0, 32.0 ],
									"numoutlets" : 2
								}

							}
, 							{
								"box" : 								{
									"maxclass" : "newobj",
									"text" : "prepend cicolor",
									"outlettype" : [ "" ],
									"patching_rect" : [ 150.0, 93.0, 90.0, 20.0 ],
									"id" : "obj-17",
									"fontname" : "Arial",
									"fontsize" : 11.595187,
									"numinlets" : 1,
									"numoutlets" : 1
								}

							}
, 							{
								"box" : 								{
									"maxclass" : "swatch",
									"outlettype" : [ "", "float" ],
									"patching_rect" : [ 150.0, 57.0, 128.0, 32.0 ],
									"presentation" : 1,
									"id" : "obj-18",
									"numinlets" : 3,
									"presentation_rect" : [ 490.0, 171.0, 128.0, 32.0 ],
									"numoutlets" : 2
								}

							}
, 							{
								"box" : 								{
									"maxclass" : "hoa.control",
									"cocolor" : [ 0.0, 1.0, 0.0, 1.0 ],
									"outlettype" : [ "float", "float", "" ],
									"patching_rect" : [ 15.0, 135.0, 405.0, 405.0 ],
									"id" : "obj-1",
									"phcolor" : [ 0.0, 0.0, 1.0, 1.0 ],
									"color" : [ 1.0, 1.0, 1.0, 1.0 ],
									"numinlets" : 1,
									"cicolor" : [ 0.0, 0.0, 0.01, 1.0 ],
									"nhcolor" : [ 1.0, 0.0, 0.0, 1.0 ],
									"cicolorin" : [ 1.0, 0.0, 0.0, 1.0 ],
									"numoutlets" : 3,
									"cishadcolor" : [ 1.0, 0.0, 0.0, 1.0 ],
									"bgcolor" : [ 1.0, 1.0, 0.99, 1.0 ]
								}

							}
, 							{
								"box" : 								{
									"maxclass" : "newobj",
									"text" : "prepend bgcolor",
									"outlettype" : [ "" ],
									"patching_rect" : [ 15.0, 93.0, 94.0, 20.0 ],
									"id" : "obj-33",
									"fontname" : "Arial",
									"fontsize" : 11.595187,
									"numinlets" : 1,
									"numoutlets" : 1
								}

							}
, 							{
								"box" : 								{
									"maxclass" : "swatch",
									"outlettype" : [ "", "float" ],
									"patching_rect" : [ 15.0, 57.0, 128.0, 32.0 ],
									"presentation" : 1,
									"id" : "obj-34",
									"numinlets" : 3,
									"presentation_rect" : [ 475.0, 156.0, 128.0, 32.0 ],
									"numoutlets" : 2
								}

							}
 ],
						"lines" : [ 							{
								"patchline" : 								{
									"source" : [ "obj-6", 0 ],
									"destination" : [ "obj-5", 0 ],
									"hidden" : 0,
									"midpoints" : [  ]
								}

							}
, 							{
								"patchline" : 								{
									"source" : [ "obj-5", 0 ],
									"destination" : [ "obj-1", 0 ],
									"hidden" : 0,
									"midpoints" : [ 760.5, 247.0, 733.5, 247.0, 733.5, 123.0, 24.5, 123.0 ]
								}

							}
, 							{
								"patchline" : 								{
									"source" : [ "obj-4", 0 ],
									"destination" : [ "obj-6", 0 ],
									"hidden" : 1,
									"midpoints" : [  ]
								}

							}
, 							{
								"patchline" : 								{
									"source" : [ "obj-36", 0 ],
									"destination" : [ "obj-32", 0 ],
									"hidden" : 0,
									"midpoints" : [  ]
								}

							}
, 							{
								"patchline" : 								{
									"source" : [ "obj-34", 0 ],
									"destination" : [ "obj-33", 0 ],
									"hidden" : 0,
									"midpoints" : [  ]
								}

							}
, 							{
								"patchline" : 								{
									"source" : [ "obj-33", 0 ],
									"destination" : [ "obj-1", 0 ],
									"hidden" : 0,
									"midpoints" : [ 24.5, 123.0, 24.5, 123.0 ]
								}

							}
, 							{
								"patchline" : 								{
									"source" : [ "obj-32", 0 ],
									"destination" : [ "obj-1", 0 ],
									"hidden" : 0,
									"midpoints" : [ 481.5, 198.0, 446.0, 198.0, 446.0, 123.0, 24.5, 123.0 ]
								}

							}
, 							{
								"patchline" : 								{
									"source" : [ "obj-31", 0 ],
									"destination" : [ "obj-29", 0 ],
									"hidden" : 0,
									"midpoints" : [  ]
								}

							}
, 							{
								"patchline" : 								{
									"source" : [ "obj-30", 0 ],
									"destination" : [ "obj-34", 0 ],
									"hidden" : 1,
									"midpoints" : [  ]
								}

							}
, 							{
								"patchline" : 								{
									"source" : [ "obj-29", 0 ],
									"destination" : [ "obj-1", 0 ],
									"hidden" : 0,
									"midpoints" : [ 760.5, 123.0, 24.5, 123.0 ]
								}

							}
, 							{
								"patchline" : 								{
									"source" : [ "obj-28", 0 ],
									"destination" : [ "obj-18", 0 ],
									"hidden" : 1,
									"midpoints" : [  ]
								}

							}
, 							{
								"patchline" : 								{
									"source" : [ "obj-27", 0 ],
									"destination" : [ "obj-24", 0 ],
									"hidden" : 1,
									"midpoints" : [  ]
								}

							}
, 							{
								"patchline" : 								{
									"source" : [ "obj-26", 0 ],
									"destination" : [ "obj-21", 0 ],
									"hidden" : 1,
									"midpoints" : [  ]
								}

							}
, 							{
								"patchline" : 								{
									"source" : [ "obj-25", 0 ],
									"destination" : [ "obj-16", 0 ],
									"hidden" : 1,
									"midpoints" : [  ]
								}

							}
, 							{
								"patchline" : 								{
									"source" : [ "obj-24", 0 ],
									"destination" : [ "obj-23", 0 ],
									"hidden" : 0,
									"midpoints" : [  ]
								}

							}
, 							{
								"patchline" : 								{
									"source" : [ "obj-23", 0 ],
									"destination" : [ "obj-1", 0 ],
									"hidden" : 0,
									"midpoints" : [ 295.5, 123.0, 24.5, 123.0 ]
								}

							}
, 							{
								"patchline" : 								{
									"source" : [ "obj-21", 0 ],
									"destination" : [ "obj-20", 0 ],
									"hidden" : 0,
									"midpoints" : [  ]
								}

							}
, 							{
								"patchline" : 								{
									"source" : [ "obj-20", 0 ],
									"destination" : [ "obj-1", 0 ],
									"hidden" : 0,
									"midpoints" : [ 604.5, 124.0, 24.5, 124.0 ]
								}

							}
, 							{
								"patchline" : 								{
									"source" : [ "obj-18", 0 ],
									"destination" : [ "obj-17", 0 ],
									"hidden" : 0,
									"midpoints" : [  ]
								}

							}
, 							{
								"patchline" : 								{
									"source" : [ "obj-17", 0 ],
									"destination" : [ "obj-1", 0 ],
									"hidden" : 0,
									"midpoints" : [ 159.5, 123.0, 24.5, 123.0 ]
								}

							}
, 							{
								"patchline" : 								{
									"source" : [ "obj-16", 0 ],
									"destination" : [ "obj-15", 0 ],
									"hidden" : 0,
									"midpoints" : [  ]
								}

							}
, 							{
								"patchline" : 								{
									"source" : [ "obj-15", 0 ],
									"destination" : [ "obj-1", 0 ],
									"hidden" : 0,
									"midpoints" : [ 455.5, 124.0, 24.5, 124.0 ]
								}

							}
, 							{
								"patchline" : 								{
									"source" : [ "obj-10", 0 ],
									"destination" : [ "obj-31", 0 ],
									"hidden" : 1,
									"midpoints" : [  ]
								}

							}
 ]
					}
,
					"saved_object_attributes" : 					{
						"default_fontsize" : 11.595187,
						"fontname" : "Arial",
						"globalpatchername" : "",
						"fontface" : 0,
						"default_fontface" : 0,
						"fontsize" : 11.595187,
						"default_fontname" : "Arial"
					}

				}

			}
, 			{
				"box" : 				{
					"maxclass" : "panel",
					"patching_rect" : [ 300.5, 543.5, 84.0, 20.0 ],
					"id" : "obj-57",
					"rounded" : 6,
					"shadow" : -1,
					"bordercolor" : [ 0.235294, 0.235294, 0.235294, 0.2 ],
					"numinlets" : 1,
					"numoutlets" : 0,
					"bgcolor" : [ 0.0, 0.0, 0.0, 0.05 ]
				}

			}
, 			{
				"box" : 				{
					"maxclass" : "panel",
					"patching_rect" : [ 167.5, 543.5, 38.0, 20.0 ],
					"id" : "obj-56",
					"rounded" : 6,
					"shadow" : -1,
					"bordercolor" : [ 0.235294, 0.235294, 0.235294, 0.2 ],
					"numinlets" : 1,
					"numoutlets" : 0,
					"bgcolor" : [ 0.0, 0.0, 0.0, 0.05 ]
				}

			}
, 			{
				"box" : 				{
					"maxclass" : "panel",
					"patching_rect" : [ 78.5, 543.5, 54.0, 20.0 ],
					"id" : "obj-55",
					"rounded" : 6,
					"shadow" : -1,
					"bordercolor" : [ 0.235294, 0.235294, 0.235294, 0.2 ],
					"numinlets" : 1,
					"numoutlets" : 0,
					"bgcolor" : [ 0.0, 0.0, 0.0, 0.05 ]
				}

			}
, 			{
				"box" : 				{
					"maxclass" : "comment",
					"text" : "hoalibrary | Julien Colafrancesco, Pierre Guillot & Eliott Paris  2012 CICM / Universite Paris 8",
					"linecount" : 2,
					"frgb" : [ 0.317518, 0.317518, 0.317518, 1.0 ],
					"patching_rect" : [ 545.5, 15.0, 257.0, 33.0 ],
					"id" : "obj-52",
					"fontname" : "Arial",
					"textcolor" : [ 0.317518, 0.317518, 0.317518, 1.0 ],
					"fontsize" : 11.595187,
					"numinlets" : 1,
					"numoutlets" : 0
				}

			}
, 			{
				"box" : 				{
					"maxclass" : "panel",
					"patching_rect" : [ 545.5, 15.0, 257.0, 32.0 ],
					"id" : "obj-53",
					"rounded" : 6,
					"shadow" : -1,
					"bordercolor" : [ 0.235294, 0.235294, 0.235294, 0.2 ],
					"numinlets" : 1,
					"numoutlets" : 0,
					"bgcolor" : [ 0.0, 0.0, 0.0, 0.05 ]
				}

			}
, 			{
				"box" : 				{
					"maxclass" : "bpatcher",
					"patching_rect" : [ 2.0, 3.0, 483.0, 56.0 ],
					"id" : "obj-21",
					"name" : "hoa.helpheader.maxpat",
					"numinlets" : 1,
					"args" : [ "@obj-name", "hoa.control", "@obj-desc", "A", "didactic", "Graphic", "User", "Interface", "and", "an", "ambisonics", "controler" ],
					"numoutlets" : 0
				}

			}
, 			{
				"box" : 				{
					"maxclass" : "newobj",
					"text" : "bgcolor 0.93 0.93 0.92 1.",
					"linecount" : 2,
					"patching_rect" : [ 416.0, 19.5, 52.0, 23.0 ],
					"id" : "obj-31",
					"fontname" : "Arial",
					"fontsize" : 7.180877,
					"numinlets" : 4,
					"numoutlets" : 0,
					"hidden" : 1
				}

			}
, 			{
				"box" : 				{
					"maxclass" : "comment",
					"varname" : "autohelp_top_description[1]",
					"text" : "hoa.control~ displays the representation of the harmonics of an encoded ponctual sound for a given order, optimization, azimuth value and wide value. Click and drag to move the azimuth of the dirac and hold shift to widen the dirac. The absolute and relative mode are explain in the \"controler\" subpatcher. It can be used to understand the behavior of the encoding, the optimization and fractionnal order effect (wider) or to control the \"super encoder\" set.",
					"linecount" : 4,
					"frgb" : [ 0.30292, 0.30292, 0.30292, 1.0 ],
					"patching_rect" : [ 2.0, 66.0, 677.0, 62.0 ],
					"id" : "obj-43",
					"fontname" : "Arial",
					"textcolor" : [ 0.30292, 0.30292, 0.30292, 1.0 ],
					"fontsize" : 12.0,
					"numinlets" : 1,
					"numoutlets" : 0
				}

			}
, 			{
				"box" : 				{
					"maxclass" : "panel",
					"patching_rect" : [ 2.0, 66.0, 677.0, 60.0 ],
					"id" : "obj-44",
					"rounded" : 15,
					"shadow" : -1,
					"bordercolor" : [ 0.235294, 0.235294, 0.235294, 0.2 ],
					"numinlets" : 1,
					"numoutlets" : 0,
					"bgcolor" : [ 0.94324, 0.954082, 0.954082, 1.0 ]
				}

			}
, 			{
				"box" : 				{
					"maxclass" : "comment",
					"varname" : "autohelp_top_description[2]",
					"text" : "Super encoder",
					"frgb" : [ 0.30292, 0.30292, 0.30292, 1.0 ],
					"patching_rect" : [ 566.0, 307.5, 89.0, 20.0 ],
					"id" : "obj-15",
					"fontname" : "Arial",
					"textcolor" : [ 0.30292, 0.30292, 0.30292, 1.0 ],
					"fontsize" : 12.0,
					"numinlets" : 1,
					"numoutlets" : 0
				}

			}
, 			{
				"box" : 				{
					"maxclass" : "flonum",
					"outlettype" : [ "float", "bang" ],
					"patching_rect" : [ 813.5, 365.0, 50.0, 20.0 ],
					"id" : "obj-40",
					"fontname" : "Arial",
					"fontsize" : 11.595187,
					"numinlets" : 1,
					"numoutlets" : 2
				}

			}
, 			{
				"box" : 				{
					"maxclass" : "newobj",
					"text" : "prepend set",
					"outlettype" : [ "" ],
					"patching_rect" : [ 784.0, 268.5, 72.0, 20.0 ],
					"id" : "obj-36",
					"fontname" : "Arial",
					"fontsize" : 11.595187,
					"numinlets" : 1,
					"numoutlets" : 1
				}

			}
, 			{
				"box" : 				{
					"maxclass" : "textedit",
					"varname" : "textedit[1]",
					"text" : "optim maxRe",
					"outlettype" : [ "", "int", "", "" ],
					"keymode" : 1,
					"patching_rect" : [ 784.0, 298.0, 94.5, 21.0 ],
					"id" : "obj-37",
					"fontname" : "Arial",
					"bangmode" : 1,
					"fontsize" : 11.595187,
					"numinlets" : 1,
					"numoutlets" : 4
				}

			}
, 			{
				"box" : 				{
					"maxclass" : "flonum",
					"outlettype" : [ "float", "bang" ],
					"patching_rect" : [ 695.5, 275.0, 50.0, 20.0 ],
					"id" : "obj-35",
					"fontname" : "Arial",
					"fontsize" : 11.595187,
					"numinlets" : 1,
					"numoutlets" : 2
				}

			}
, 			{
				"box" : 				{
					"maxclass" : "newobj",
					"text" : "r basic.optim",
					"outlettype" : [ "" ],
					"patching_rect" : [ 784.0, 239.5, 76.0, 20.0 ],
					"id" : "obj-32",
					"fontname" : "Arial",
					"fontsize" : 11.595187,
					"numinlets" : 0,
					"numoutlets" : 1
				}

			}
, 			{
				"box" : 				{
					"maxclass" : "newobj",
					"text" : "r basic.wide",
					"outlettype" : [ "" ],
					"patching_rect" : [ 813.5, 333.5, 72.0, 20.0 ],
					"id" : "obj-33",
					"fontname" : "Arial",
					"fontsize" : 11.595187,
					"numinlets" : 0,
					"numoutlets" : 1
				}

			}
, 			{
				"box" : 				{
					"maxclass" : "newobj",
					"text" : "r basic.azimuth",
					"outlettype" : [ "" ],
					"patching_rect" : [ 695.5, 239.5, 88.0, 20.0 ],
					"id" : "obj-34",
					"fontname" : "Arial",
					"fontsize" : 11.595187,
					"numinlets" : 0,
					"numoutlets" : 1
				}

			}
, 			{
				"box" : 				{
					"maxclass" : "newobj",
					"text" : "s basic.optim",
					"patching_rect" : [ 386.5, 567.5, 78.0, 20.0 ],
					"id" : "obj-28",
					"fontname" : "Arial",
					"fontsize" : 11.595187,
					"numinlets" : 1,
					"numoutlets" : 0
				}

			}
, 			{
				"box" : 				{
					"maxclass" : "newobj",
					"text" : "s basic.wide",
					"patching_rect" : [ 206.5, 567.5, 74.0, 20.0 ],
					"id" : "obj-12",
					"fontname" : "Arial",
					"fontsize" : 11.595187,
					"numinlets" : 1,
					"numoutlets" : 0
				}

			}
, 			{
				"box" : 				{
					"maxclass" : "newobj",
					"text" : "s basic.azimuth",
					"patching_rect" : [ 26.5, 567.5, 90.0, 20.0 ],
					"id" : "obj-14",
					"fontname" : "Arial",
					"fontsize" : 11.595187,
					"numinlets" : 1,
					"numoutlets" : 0
				}

			}
, 			{
				"box" : 				{
					"maxclass" : "textedit",
					"varname" : "textedit",
					"text" : "optim basic",
					"outlettype" : [ "", "int", "", "" ],
					"keymode" : 1,
					"patching_rect" : [ 386.5, 543.5, 87.5, 20.0 ],
					"id" : "obj-19",
					"fontname" : "Arial",
					"bangmode" : 1,
					"fontsize" : 11.595187,
					"numinlets" : 1,
					"numoutlets" : 4
				}

			}
, 			{
				"box" : 				{
					"maxclass" : "flonum",
					"outlettype" : [ "float", "bang" ],
					"patching_rect" : [ 206.5, 543.5, 50.0, 20.0 ],
					"id" : "obj-17",
					"fontname" : "Arial",
					"fontsize" : 11.595187,
					"numinlets" : 1,
					"numoutlets" : 2
				}

			}
, 			{
				"box" : 				{
					"maxclass" : "flonum",
					"outlettype" : [ "float", "bang" ],
					"patching_rect" : [ 26.5, 543.5, 50.0, 20.0 ],
					"id" : "obj-8",
					"fontname" : "Arial",
					"fontsize" : 11.595187,
					"numinlets" : 1,
					"numoutlets" : 2
				}

			}
, 			{
				"box" : 				{
					"maxclass" : "comment",
					"varname" : "autohelp_top_description[5]",
					"text" : "Optimization :",
					"frgb" : [ 0.30292, 0.30292, 0.30292, 1.0 ],
					"patching_rect" : [ 300.5, 543.5, 84.0, 20.0 ],
					"id" : "obj-3",
					"fontname" : "Arial",
					"textcolor" : [ 0.30292, 0.30292, 0.30292, 1.0 ],
					"fontsize" : 12.0,
					"numinlets" : 1,
					"numoutlets" : 0
				}

			}
, 			{
				"box" : 				{
					"maxclass" : "hoa.control",
					"outlettype" : [ "float", "float", "" ],
					"patching_rect" : [ 26.5, 147.0, 379.0, 379.0 ],
					"id" : "obj-4",
					"color" : [ 1.0, 1.0, 1.0, 1.0 ],
					"order" : 7,
					"numinlets" : 1,
					"numoutlets" : 3
				}

			}
, 			{
				"box" : 				{
					"maxclass" : "newobj",
					"text" : "hoa.optim~ 7 basic",
					"outlettype" : [ "signal", "signal", "signal", "signal", "signal", "signal", "signal", "signal", "signal", "signal", "signal", "signal", "signal", "signal", "signal" ],
					"patching_rect" : [ 506.5, 388.0, 208.0, 20.0 ],
					"id" : "obj-5",
					"fontname" : "Arial",
					"fontsize" : 11.595187,
					"numinlets" : 15,
					"numoutlets" : 15
				}

			}
, 			{
				"box" : 				{
					"maxclass" : "comment",
					"varname" : "autohelp_top_description[4]",
					"text" : "Wide",
					"frgb" : [ 0.30292, 0.30292, 0.30292, 1.0 ],
					"patching_rect" : [ 167.5, 543.5, 38.0, 20.0 ],
					"id" : "obj-18",
					"fontname" : "Arial",
					"textcolor" : [ 0.30292, 0.30292, 0.30292, 1.0 ],
					"fontsize" : 12.0,
					"numinlets" : 1,
					"numoutlets" : 0
				}

			}
, 			{
				"box" : 				{
					"maxclass" : "comment",
					"varname" : "autohelp_top_description[3]",
					"text" : "Azimuth",
					"frgb" : [ 0.30292, 0.30292, 0.30292, 1.0 ],
					"patching_rect" : [ 78.5, 543.5, 54.0, 20.0 ],
					"id" : "obj-9",
					"fontname" : "Arial",
					"textcolor" : [ 0.30292, 0.30292, 0.30292, 1.0 ],
					"fontsize" : 12.0,
					"numinlets" : 1,
					"numoutlets" : 0
				}

			}
, 			{
				"box" : 				{
					"maxclass" : "newobj",
					"text" : "hoa.wider~ 7",
					"outlettype" : [ "signal", "signal", "signal", "signal", "signal", "signal", "signal", "signal", "signal", "signal", "signal", "signal", "signal", "signal", "signal" ],
					"patching_rect" : [ 506.5, 432.0, 221.5, 20.0 ],
					"id" : "obj-1",
					"fontname" : "Arial",
					"fontsize" : 11.595187,
					"numinlets" : 16,
					"numoutlets" : 15
				}

			}
, 			{
				"box" : 				{
					"maxclass" : "newobj",
					"text" : "hoa.dac~ 1:16",
					"patching_rect" : [ 506.5, 575.0, 221.5, 20.0 ],
					"id" : "obj-69",
					"fontname" : "Arial",
					"fontsize" : 11.595187,
					"numinlets" : 16,
					"numoutlets" : 0
				}

			}
, 			{
				"box" : 				{
					"maxclass" : "newobj",
					"text" : "hoa.decoder~ 7 16",
					"outlettype" : [ "signal", "signal", "signal", "signal", "signal", "signal", "signal", "signal", "signal", "signal", "signal", "signal", "signal", "signal", "signal", "signal" ],
					"patching_rect" : [ 506.5, 492.0, 221.5, 20.0 ],
					"id" : "obj-74",
					"fontname" : "Arial",
					"fontsize" : 11.595187,
					"numinlets" : 15,
					"numoutlets" : 16
				}

			}
, 			{
				"box" : 				{
					"maxclass" : "message",
					"text" : "stop",
					"outlettype" : [ "" ],
					"patching_rect" : [ 831.0, 493.0, 32.5, 18.0 ],
					"id" : "obj-73",
					"fontname" : "Arial",
					"fontsize" : 11.595187,
					"numinlets" : 2,
					"numoutlets" : 1
				}

			}
, 			{
				"box" : 				{
					"maxclass" : "message",
					"text" : "startwindow",
					"outlettype" : [ "" ],
					"patching_rect" : [ 791.5, 463.0, 72.0, 18.0 ],
					"id" : "obj-71",
					"fontname" : "Arial",
					"fontsize" : 11.595187,
					"numinlets" : 2,
					"numoutlets" : 1
				}

			}
, 			{
				"box" : 				{
					"maxclass" : "newobj",
					"text" : "hoa.encoder~ 7",
					"outlettype" : [ "signal", "signal", "signal", "signal", "signal", "signal", "signal", "signal", "signal", "signal", "signal", "signal", "signal", "signal", "signal" ],
					"patching_rect" : [ 506.5, 342.0, 208.0, 20.0 ],
					"id" : "obj-20",
					"fontname" : "Arial",
					"fontsize" : 11.595187,
					"numinlets" : 2,
					"numoutlets" : 15
				}

			}
, 			{
				"box" : 				{
					"maxclass" : "newobj",
					"text" : "p key32",
					"outlettype" : [ "bang" ],
					"patching_rect" : [ 759.5, 50.0, 51.0, 20.0 ],
					"id" : "obj-46",
					"fontname" : "Arial",
					"fontsize" : 11.595187,
					"numinlets" : 0,
					"numoutlets" : 1,
					"hidden" : 1,
					"patcher" : 					{
						"fileversion" : 1,
						"appversion" : 						{
							"major" : 5,
							"minor" : 1,
							"revision" : 9
						}
,
						"rect" : [ 0.0, 0.0, 640.0, 480.0 ],
						"bglocked" : 0,
						"defrect" : [ 0.0, 0.0, 640.0, 480.0 ],
						"openrect" : [ 0.0, 0.0, 0.0, 0.0 ],
						"openinpresentation" : 0,
						"default_fontsize" : 12.0,
						"default_fontface" : 0,
						"default_fontname" : "Arial",
						"gridonopen" : 0,
						"gridsize" : [ 15.0, 15.0 ],
						"gridsnaponopen" : 0,
						"toolbarvisible" : 1,
						"boxanimatetime" : 200,
						"imprint" : 0,
						"enablehscroll" : 1,
						"enablevscroll" : 1,
						"devicewidth" : 0.0,
						"boxes" : [ 							{
								"box" : 								{
									"maxclass" : "button",
									"outlettype" : [ "bang" ],
									"patching_rect" : [ 50.0, 160.0, 20.0, 20.0 ],
									"id" : "obj-10",
									"numinlets" : 1,
									"numoutlets" : 1
								}

							}
, 							{
								"box" : 								{
									"maxclass" : "newobj",
									"text" : "sel 32",
									"outlettype" : [ "bang", "" ],
									"patching_rect" : [ 50.0, 130.0, 41.0, 20.0 ],
									"id" : "obj-23",
									"fontname" : "Arial",
									"fontsize" : 11.595187,
									"numinlets" : 2,
									"numoutlets" : 2
								}

							}
, 							{
								"box" : 								{
									"maxclass" : "newobj",
									"text" : "key",
									"outlettype" : [ "int", "int", "int", "int" ],
									"patching_rect" : [ 50.0, 100.0, 59.5, 20.0 ],
									"id" : "obj-17",
									"fontname" : "Arial",
									"fontsize" : 11.595187,
									"numinlets" : 0,
									"numoutlets" : 4
								}

							}
, 							{
								"box" : 								{
									"maxclass" : "outlet",
									"patching_rect" : [ 50.0, 240.0, 25.0, 25.0 ],
									"id" : "obj-45",
									"numinlets" : 1,
									"numoutlets" : 0,
									"comment" : ""
								}

							}
 ],
						"lines" : [ 							{
								"patchline" : 								{
									"source" : [ "obj-10", 0 ],
									"destination" : [ "obj-45", 0 ],
									"hidden" : 0,
									"midpoints" : [  ]
								}

							}
, 							{
								"patchline" : 								{
									"source" : [ "obj-17", 0 ],
									"destination" : [ "obj-23", 0 ],
									"hidden" : 0,
									"midpoints" : [ 59.5, 121.0, 59.5, 121.0 ]
								}

							}
, 							{
								"patchline" : 								{
									"source" : [ "obj-23", 0 ],
									"destination" : [ "obj-10", 0 ],
									"hidden" : 0,
									"midpoints" : [ 59.5, 151.0, 59.5, 151.0 ]
								}

							}
 ]
					}
,
					"saved_object_attributes" : 					{
						"default_fontsize" : 12.0,
						"fontname" : "Arial",
						"globalpatchername" : "",
						"fontface" : 0,
						"default_fontface" : 0,
						"fontsize" : 12.0,
						"default_fontname" : "Arial"
					}

				}

			}
, 			{
				"box" : 				{
					"maxclass" : "newobj",
					"text" : "hoa.connect 7 16",
					"patching_rect" : [ 759.5, 72.0, 99.0, 20.0 ],
					"id" : "obj-10",
					"fontname" : "Arial",
					"fontsize" : 11.595187,
					"numinlets" : 1,
					"numoutlets" : 0,
					"hidden" : 1,
					"saved_object_attributes" : 					{
						"poscolor" : [ 1.0, 0.0, 0.0, 1.0 ]
					}

				}

			}
, 			{
				"box" : 				{
					"maxclass" : "panel",
					"patching_rect" : [ 566.0, 307.5, 89.0, 20.0 ],
					"id" : "obj-54",
					"rounded" : 6,
					"shadow" : -1,
					"bordercolor" : [ 0.235294, 0.235294, 0.235294, 0.2 ],
					"numinlets" : 1,
					"numoutlets" : 0,
					"bgcolor" : [ 0.0, 0.0, 0.0, 0.05 ]
				}

			}
, 			{
				"box" : 				{
					"maxclass" : "newobj",
					"text" : "prepend set",
					"outlettype" : [ "" ],
					"patching_rect" : [ 386.5, 543.5, 72.0, 20.0 ],
					"id" : "obj-22",
					"fontname" : "Arial",
					"fontsize" : 11.595187,
					"numinlets" : 1,
					"numoutlets" : 1
				}

			}
, 			{
				"box" : 				{
					"maxclass" : "bpatcher",
					"outlettype" : [ "signal" ],
					"patching_rect" : [ 506.5, 147.0, 218.0, 87.0 ],
					"border" : 1,
					"id" : "obj-30",
					"name" : "hoa.helpaudio.maxpat",
					"numinlets" : 0,
					"args" : [ "@module", 3, "@noise", 1, "@vol", 80 ],
					"numoutlets" : 1
				}

			}
, 			{
				"box" : 				{
					"maxclass" : "panel",
					"patching_rect" : [ 481.5, 298.0, 264.0, 174.0 ],
					"id" : "obj-50",
					"rounded" : 15,
					"shadow" : -1,
					"bordercolor" : [ 0.235294, 0.235294, 0.235294, 0.2 ],
					"background" : 1,
					"numinlets" : 1,
					"numoutlets" : 0,
					"bgcolor" : [ 0.94324, 0.954082, 0.954082, 1.0 ]
				}

			}
 ],
		"lines" : [ 			{
				"patchline" : 				{
					"source" : [ "obj-1", 14 ],
					"destination" : [ "obj-74", 14 ],
					"hidden" : 0,
					"midpoints" : [  ]
				}

			}
, 			{
				"patchline" : 				{
					"source" : [ "obj-1", 13 ],
					"destination" : [ "obj-74", 13 ],
					"hidden" : 0,
					"midpoints" : [  ]
				}

			}
, 			{
				"patchline" : 				{
					"source" : [ "obj-1", 12 ],
					"destination" : [ "obj-74", 12 ],
					"hidden" : 0,
					"midpoints" : [  ]
				}

			}
, 			{
				"patchline" : 				{
					"source" : [ "obj-1", 11 ],
					"destination" : [ "obj-74", 11 ],
					"hidden" : 0,
					"midpoints" : [  ]
				}

			}
, 			{
				"patchline" : 				{
					"source" : [ "obj-1", 10 ],
					"destination" : [ "obj-74", 10 ],
					"hidden" : 0,
					"midpoints" : [  ]
				}

			}
, 			{
				"patchline" : 				{
					"source" : [ "obj-1", 9 ],
					"destination" : [ "obj-74", 9 ],
					"hidden" : 0,
					"midpoints" : [  ]
				}

			}
, 			{
				"patchline" : 				{
					"source" : [ "obj-1", 8 ],
					"destination" : [ "obj-74", 8 ],
					"hidden" : 0,
					"midpoints" : [  ]
				}

			}
, 			{
				"patchline" : 				{
					"source" : [ "obj-1", 7 ],
					"destination" : [ "obj-74", 7 ],
					"hidden" : 0,
					"midpoints" : [  ]
				}

			}
, 			{
				"patchline" : 				{
					"source" : [ "obj-1", 6 ],
					"destination" : [ "obj-74", 6 ],
					"hidden" : 0,
					"midpoints" : [  ]
				}

			}
, 			{
				"patchline" : 				{
					"source" : [ "obj-1", 5 ],
					"destination" : [ "obj-74", 5 ],
					"hidden" : 0,
					"midpoints" : [  ]
				}

			}
, 			{
				"patchline" : 				{
					"source" : [ "obj-1", 4 ],
					"destination" : [ "obj-74", 4 ],
					"hidden" : 0,
					"midpoints" : [  ]
				}

			}
, 			{
				"patchline" : 				{
					"source" : [ "obj-1", 3 ],
					"destination" : [ "obj-74", 3 ],
					"hidden" : 0,
					"midpoints" : [  ]
				}

			}
, 			{
				"patchline" : 				{
					"source" : [ "obj-1", 2 ],
					"destination" : [ "obj-74", 2 ],
					"hidden" : 0,
					"midpoints" : [  ]
				}

			}
, 			{
				"patchline" : 				{
					"source" : [ "obj-1", 1 ],
					"destination" : [ "obj-74", 1 ],
					"hidden" : 0,
					"midpoints" : [  ]
				}

			}
, 			{
				"patchline" : 				{
					"source" : [ "obj-1", 0 ],
					"destination" : [ "obj-74", 0 ],
					"hidden" : 0,
					"midpoints" : [  ]
				}

			}
, 			{
				"patchline" : 				{
					"source" : [ "obj-17", 0 ],
					"destination" : [ "obj-12", 0 ],
					"hidden" : 0,
					"midpoints" : [  ]
				}

			}
, 			{
				"patchline" : 				{
					"source" : [ "obj-20", 14 ],
					"destination" : [ "obj-5", 14 ],
					"hidden" : 0,
					"color" : [ 0.0, 0.0, 1.0, 1.0 ],
					"midpoints" : [  ]
				}

			}
, 			{
				"patchline" : 				{
					"source" : [ "obj-20", 13 ],
					"destination" : [ "obj-5", 13 ],
					"hidden" : 0,
					"color" : [ 1.0, 0.0, 0.0, 1.0 ],
					"midpoints" : [  ]
				}

			}
, 			{
				"patchline" : 				{
					"source" : [ "obj-20", 12 ],
					"destination" : [ "obj-5", 12 ],
					"hidden" : 0,
					"color" : [ 0.0, 0.0, 1.0, 1.0 ],
					"midpoints" : [  ]
				}

			}
, 			{
				"patchline" : 				{
					"source" : [ "obj-20", 11 ],
					"destination" : [ "obj-5", 11 ],
					"hidden" : 0,
					"color" : [ 1.0, 0.0, 0.0, 1.0 ],
					"midpoints" : [  ]
				}

			}
, 			{
				"patchline" : 				{
					"source" : [ "obj-20", 10 ],
					"destination" : [ "obj-5", 10 ],
					"hidden" : 0,
					"color" : [ 0.0, 0.0, 1.0, 1.0 ],
					"midpoints" : [  ]
				}

			}
, 			{
				"patchline" : 				{
					"source" : [ "obj-20", 9 ],
					"destination" : [ "obj-5", 9 ],
					"hidden" : 0,
					"color" : [ 1.0, 0.0, 0.0, 1.0 ],
					"midpoints" : [  ]
				}

			}
, 			{
				"patchline" : 				{
					"source" : [ "obj-20", 8 ],
					"destination" : [ "obj-5", 8 ],
					"hidden" : 0,
					"color" : [ 0.0, 0.0, 1.0, 1.0 ],
					"midpoints" : [  ]
				}

			}
, 			{
				"patchline" : 				{
					"source" : [ "obj-20", 7 ],
					"destination" : [ "obj-5", 7 ],
					"hidden" : 0,
					"color" : [ 1.0, 0.0, 0.0, 1.0 ],
					"midpoints" : [  ]
				}

			}
, 			{
				"patchline" : 				{
					"source" : [ "obj-20", 6 ],
					"destination" : [ "obj-5", 6 ],
					"hidden" : 0,
					"color" : [ 0.0, 0.0, 1.0, 1.0 ],
					"midpoints" : [  ]
				}

			}
, 			{
				"patchline" : 				{
					"source" : [ "obj-20", 5 ],
					"destination" : [ "obj-5", 5 ],
					"hidden" : 0,
					"color" : [ 1.0, 0.0, 0.0, 1.0 ],
					"midpoints" : [  ]
				}

			}
, 			{
				"patchline" : 				{
					"source" : [ "obj-20", 4 ],
					"destination" : [ "obj-5", 4 ],
					"hidden" : 0,
					"color" : [ 0.0, 0.0, 1.0, 1.0 ],
					"midpoints" : [  ]
				}

			}
, 			{
				"patchline" : 				{
					"source" : [ "obj-20", 3 ],
					"destination" : [ "obj-5", 3 ],
					"hidden" : 0,
					"color" : [ 1.0, 0.0, 0.0, 1.0 ],
					"midpoints" : [  ]
				}

			}
, 			{
				"patchline" : 				{
					"source" : [ "obj-20", 2 ],
					"destination" : [ "obj-5", 2 ],
					"hidden" : 0,
					"color" : [ 0.0, 0.0, 1.0, 1.0 ],
					"midpoints" : [  ]
				}

			}
, 			{
				"patchline" : 				{
					"source" : [ "obj-20", 1 ],
					"destination" : [ "obj-5", 1 ],
					"hidden" : 0,
					"color" : [ 1.0, 0.0, 0.0, 1.0 ],
					"midpoints" : [  ]
				}

			}
, 			{
				"patchline" : 				{
					"source" : [ "obj-20", 0 ],
					"destination" : [ "obj-5", 0 ],
					"hidden" : 0,
					"color" : [ 0.0, 0.0, 1.0, 1.0 ],
					"midpoints" : [  ]
				}

			}
, 			{
				"patchline" : 				{
					"source" : [ "obj-22", 0 ],
					"destination" : [ "obj-19", 0 ],
					"hidden" : 0,
					"midpoints" : [  ]
				}

			}
, 			{
				"patchline" : 				{
					"source" : [ "obj-30", 0 ],
					"destination" : [ "obj-20", 0 ],
					"hidden" : 0,
					"midpoints" : [  ]
				}

			}
, 			{
				"patchline" : 				{
					"source" : [ "obj-32", 0 ],
					"destination" : [ "obj-36", 0 ],
					"hidden" : 0,
					"midpoints" : [  ]
				}

			}
, 			{
				"patchline" : 				{
					"source" : [ "obj-32", 0 ],
					"destination" : [ "obj-5", 14 ],
					"hidden" : 0,
					"midpoints" : [ 793.5, 373.0, 705.0, 373.0 ]
				}

			}
, 			{
				"patchline" : 				{
					"source" : [ "obj-33", 0 ],
					"destination" : [ "obj-40", 0 ],
					"hidden" : 0,
					"midpoints" : [  ]
				}

			}
, 			{
				"patchline" : 				{
					"source" : [ "obj-34", 0 ],
					"destination" : [ "obj-35", 0 ],
					"hidden" : 0,
					"midpoints" : [  ]
				}

			}
, 			{
				"patchline" : 				{
					"source" : [ "obj-35", 0 ],
					"destination" : [ "obj-20", 1 ],
					"hidden" : 0,
					"midpoints" : [  ]
				}

			}
, 			{
				"patchline" : 				{
					"source" : [ "obj-36", 0 ],
					"destination" : [ "obj-37", 0 ],
					"hidden" : 0,
					"midpoints" : [  ]
				}

			}
, 			{
				"patchline" : 				{
					"source" : [ "obj-4", 1 ],
					"destination" : [ "obj-17", 0 ],
					"hidden" : 0,
					"midpoints" : [  ]
				}

			}
, 			{
				"patchline" : 				{
					"source" : [ "obj-4", 2 ],
					"destination" : [ "obj-22", 0 ],
					"hidden" : 0,
					"midpoints" : [  ]
				}

			}
, 			{
				"patchline" : 				{
					"source" : [ "obj-4", 2 ],
					"destination" : [ "obj-28", 0 ],
					"hidden" : 0,
					"midpoints" : [  ]
				}

			}
, 			{
				"patchline" : 				{
					"source" : [ "obj-4", 0 ],
					"destination" : [ "obj-8", 0 ],
					"hidden" : 0,
					"midpoints" : [  ]
				}

			}
, 			{
				"patchline" : 				{
					"source" : [ "obj-40", 0 ],
					"destination" : [ "obj-1", 15 ],
					"hidden" : 0,
					"midpoints" : [ 823.0, 418.0, 718.5, 418.0 ]
				}

			}
, 			{
				"patchline" : 				{
					"source" : [ "obj-46", 0 ],
					"destination" : [ "obj-10", 0 ],
					"hidden" : 1,
					"midpoints" : [ 769.0, 63.0, 769.0, 63.0 ]
				}

			}
, 			{
				"patchline" : 				{
					"source" : [ "obj-5", 14 ],
					"destination" : [ "obj-1", 14 ],
					"hidden" : 0,
					"color" : [ 0.0, 0.0, 1.0, 1.0 ],
					"midpoints" : [  ]
				}

			}
, 			{
				"patchline" : 				{
					"source" : [ "obj-5", 13 ],
					"destination" : [ "obj-1", 13 ],
					"hidden" : 0,
					"color" : [ 1.0, 0.0, 0.0, 1.0 ],
					"midpoints" : [  ]
				}

			}
, 			{
				"patchline" : 				{
					"source" : [ "obj-5", 12 ],
					"destination" : [ "obj-1", 12 ],
					"hidden" : 0,
					"color" : [ 0.0, 0.0, 1.0, 1.0 ],
					"midpoints" : [  ]
				}

			}
, 			{
				"patchline" : 				{
					"source" : [ "obj-5", 11 ],
					"destination" : [ "obj-1", 11 ],
					"hidden" : 0,
					"color" : [ 1.0, 0.0, 0.0, 1.0 ],
					"midpoints" : [  ]
				}

			}
, 			{
				"patchline" : 				{
					"source" : [ "obj-5", 10 ],
					"destination" : [ "obj-1", 10 ],
					"hidden" : 0,
					"color" : [ 0.0, 0.0, 1.0, 1.0 ],
					"midpoints" : [  ]
				}

			}
, 			{
				"patchline" : 				{
					"source" : [ "obj-5", 9 ],
					"destination" : [ "obj-1", 9 ],
					"hidden" : 0,
					"color" : [ 1.0, 0.0, 0.0, 1.0 ],
					"midpoints" : [  ]
				}

			}
, 			{
				"patchline" : 				{
					"source" : [ "obj-5", 8 ],
					"destination" : [ "obj-1", 8 ],
					"hidden" : 0,
					"color" : [ 0.0, 0.0, 1.0, 1.0 ],
					"midpoints" : [  ]
				}

			}
, 			{
				"patchline" : 				{
					"source" : [ "obj-5", 7 ],
					"destination" : [ "obj-1", 7 ],
					"hidden" : 0,
					"color" : [ 1.0, 0.0, 0.0, 1.0 ],
					"midpoints" : [  ]
				}

			}
, 			{
				"patchline" : 				{
					"source" : [ "obj-5", 6 ],
					"destination" : [ "obj-1", 6 ],
					"hidden" : 0,
					"color" : [ 0.0, 0.0, 1.0, 1.0 ],
					"midpoints" : [  ]
				}

			}
, 			{
				"patchline" : 				{
					"source" : [ "obj-5", 5 ],
					"destination" : [ "obj-1", 5 ],
					"hidden" : 0,
					"color" : [ 1.0, 0.0, 0.0, 1.0 ],
					"midpoints" : [  ]
				}

			}
, 			{
				"patchline" : 				{
					"source" : [ "obj-5", 4 ],
					"destination" : [ "obj-1", 4 ],
					"hidden" : 0,
					"color" : [ 0.0, 0.0, 1.0, 1.0 ],
					"midpoints" : [  ]
				}

			}
, 			{
				"patchline" : 				{
					"source" : [ "obj-5", 3 ],
					"destination" : [ "obj-1", 3 ],
					"hidden" : 0,
					"color" : [ 1.0, 0.0, 0.0, 1.0 ],
					"midpoints" : [  ]
				}

			}
, 			{
				"patchline" : 				{
					"source" : [ "obj-5", 2 ],
					"destination" : [ "obj-1", 2 ],
					"hidden" : 0,
					"color" : [ 0.0, 0.0, 1.0, 1.0 ],
					"midpoints" : [  ]
				}

			}
, 			{
				"patchline" : 				{
					"source" : [ "obj-5", 1 ],
					"destination" : [ "obj-1", 1 ],
					"hidden" : 0,
					"color" : [ 1.0, 0.0, 0.0, 1.0 ],
					"midpoints" : [  ]
				}

			}
, 			{
				"patchline" : 				{
					"source" : [ "obj-5", 0 ],
					"destination" : [ "obj-1", 0 ],
					"hidden" : 0,
					"color" : [ 0.0, 0.0, 1.0, 1.0 ],
					"midpoints" : [  ]
				}

			}
, 			{
				"patchline" : 				{
					"source" : [ "obj-71", 0 ],
					"destination" : [ "obj-69", 15 ],
					"hidden" : 0,
					"midpoints" : [ 801.0, 523.0, 718.5, 523.0 ]
				}

			}
, 			{
				"patchline" : 				{
					"source" : [ "obj-73", 0 ],
					"destination" : [ "obj-69", 15 ],
					"hidden" : 0,
					"midpoints" : [ 840.5, 523.0, 718.5, 523.0 ]
				}

			}
, 			{
				"patchline" : 				{
					"source" : [ "obj-74", 15 ],
					"destination" : [ "obj-69", 15 ],
					"hidden" : 0,
					"midpoints" : [  ]
				}

			}
, 			{
				"patchline" : 				{
					"source" : [ "obj-74", 14 ],
					"destination" : [ "obj-69", 14 ],
					"hidden" : 0,
					"midpoints" : [  ]
				}

			}
, 			{
				"patchline" : 				{
					"source" : [ "obj-74", 13 ],
					"destination" : [ "obj-69", 13 ],
					"hidden" : 0,
					"midpoints" : [  ]
				}

			}
, 			{
				"patchline" : 				{
					"source" : [ "obj-74", 12 ],
					"destination" : [ "obj-69", 12 ],
					"hidden" : 0,
					"midpoints" : [  ]
				}

			}
, 			{
				"patchline" : 				{
					"source" : [ "obj-74", 11 ],
					"destination" : [ "obj-69", 11 ],
					"hidden" : 0,
					"midpoints" : [  ]
				}

			}
, 			{
				"patchline" : 				{
					"source" : [ "obj-74", 10 ],
					"destination" : [ "obj-69", 10 ],
					"hidden" : 0,
					"midpoints" : [  ]
				}

			}
, 			{
				"patchline" : 				{
					"source" : [ "obj-74", 9 ],
					"destination" : [ "obj-69", 9 ],
					"hidden" : 0,
					"midpoints" : [  ]
				}

			}
, 			{
				"patchline" : 				{
					"source" : [ "obj-74", 8 ],
					"destination" : [ "obj-69", 8 ],
					"hidden" : 0,
					"midpoints" : [  ]
				}

			}
, 			{
				"patchline" : 				{
					"source" : [ "obj-74", 7 ],
					"destination" : [ "obj-69", 7 ],
					"hidden" : 0,
					"midpoints" : [  ]
				}

			}
, 			{
				"patchline" : 				{
					"source" : [ "obj-74", 6 ],
					"destination" : [ "obj-69", 6 ],
					"hidden" : 0,
					"midpoints" : [  ]
				}

			}
, 			{
				"patchline" : 				{
					"source" : [ "obj-74", 5 ],
					"destination" : [ "obj-69", 5 ],
					"hidden" : 0,
					"midpoints" : [  ]
				}

			}
, 			{
				"patchline" : 				{
					"source" : [ "obj-74", 4 ],
					"destination" : [ "obj-69", 4 ],
					"hidden" : 0,
					"midpoints" : [  ]
				}

			}
, 			{
				"patchline" : 				{
					"source" : [ "obj-74", 3 ],
					"destination" : [ "obj-69", 3 ],
					"hidden" : 0,
					"midpoints" : [  ]
				}

			}
, 			{
				"patchline" : 				{
					"source" : [ "obj-74", 2 ],
					"destination" : [ "obj-69", 2 ],
					"hidden" : 0,
					"midpoints" : [  ]
				}

			}
, 			{
				"patchline" : 				{
					"source" : [ "obj-74", 1 ],
					"destination" : [ "obj-69", 1 ],
					"hidden" : 0,
					"midpoints" : [  ]
				}

			}
, 			{
				"patchline" : 				{
					"source" : [ "obj-74", 0 ],
					"destination" : [ "obj-69", 0 ],
					"hidden" : 0,
					"midpoints" : [  ]
				}

			}
, 			{
				"patchline" : 				{
					"source" : [ "obj-8", 0 ],
					"destination" : [ "obj-14", 0 ],
					"hidden" : 0,
					"midpoints" : [  ]
				}

			}
 ]
	}

}
