{
	"patcher" : 	{
		"fileversion" : 1,
		"appversion" : 		{
			"major" : 5,
			"minor" : 1,
			"revision" : 9
		}
,
		"rect" : [ 92.0, 47.0, 616.0, 721.0 ],
		"bgcolor" : [ 0.93, 0.93, 0.92, 1.0 ],
		"bglocked" : 0,
		"defrect" : [ 92.0, 47.0, 616.0, 721.0 ],
		"openrect" : [ 0.0, 0.0, 0.0, 0.0 ],
		"openinpresentation" : 0,
		"default_fontsize" : 11.595187,
		"default_fontface" : 0,
		"default_fontname" : "Arial",
		"gridonopen" : 0,
		"gridsize" : [ 15.0, 15.0 ],
		"gridsnaponopen" : 0,
		"toolbarvisible" : 1,
		"boxanimatetime" : 200,
		"imprint" : 0,
		"enablehscroll" : 1,
		"enablevscroll" : 1,
		"devicewidth" : 0.0,
		"boxes" : [ 			{
				"box" : 				{
					"maxclass" : "newobj",
					"text" : "p split-mode",
					"patching_rect" : [ 467.0, 233.0, 91.0, 24.0 ],
					"id" : "obj-25",
					"fontname" : "Arial",
					"color" : [ 0.267659, 0.594304, 0.839216, 1.0 ],
					"fontsize" : 14.84361,
					"numinlets" : 0,
					"numoutlets" : 0,
					"patcher" : 					{
						"fileversion" : 1,
						"appversion" : 						{
							"major" : 5,
							"minor" : 1,
							"revision" : 9
						}
,
						"rect" : [ 92.0, 73.0, 616.0, 695.0 ],
						"bgcolor" : [ 0.93, 0.93, 0.92, 1.0 ],
						"bglocked" : 0,
						"defrect" : [ 92.0, 73.0, 616.0, 695.0 ],
						"openrect" : [ 0.0, 0.0, 0.0, 0.0 ],
						"openinpresentation" : 0,
						"default_fontsize" : 14.0,
						"default_fontface" : 0,
						"default_fontname" : "Arial",
						"gridonopen" : 0,
						"gridsize" : [ 15.0, 15.0 ],
						"gridsnaponopen" : 0,
						"toolbarvisible" : 1,
						"boxanimatetime" : 200,
						"imprint" : 0,
						"enablehscroll" : 1,
						"enablevscroll" : 1,
						"devicewidth" : 0.0,
						"boxes" : [ 							{
								"box" : 								{
									"maxclass" : "newobj",
									"text" : "hoa.pi",
									"outlettype" : [ "float" ],
									"patching_rect" : [ 242.5, 257.0, 42.0, 20.0 ],
									"id" : "obj-10",
									"fontname" : "Arial",
									"fontsize" : 11.595187,
									"numinlets" : 1,
									"numoutlets" : 1
								}

							}
, 							{
								"box" : 								{
									"maxclass" : "newobj",
									"text" : "hoa.plug~ 7 hoa.amp~ post 10.",
									"outlettype" : [ "signal", "signal", "signal", "signal", "signal", "signal", "signal", "signal", "signal", "signal", "signal", "signal", "signal", "signal", "signal" ],
									"patching_rect" : [ 306.0, 309.0, 208.0, 20.0 ],
									"id" : "obj-1",
									"fontname" : "Arial",
									"fontsize" : 12.0,
									"numinlets" : 15,
									"numoutlets" : 15,
									"hidden" : 1
								}

							}
, 							{
								"box" : 								{
									"maxclass" : "hoa.scope~",
									"patching_rect" : [ 297.5, 321.0, 225.0, 225.0 ],
									"id" : "obj-20",
									"fontname" : "Arial",
									"textcolor" : [  ],
									"color" : [ 1.0, 1.0, 1.0, 1.0 ],
									"order" : 7,
									"fontsize" : 11.595187,
									"numinlets" : 15,
									"numoutlets" : 0
								}

							}
, 							{
								"box" : 								{
									"maxclass" : "bpatcher",
									"patching_rect" : [ 7.0, 6.0, 483.0, 56.0 ],
									"id" : "obj-56",
									"name" : "hoa.helpheader.maxpat",
									"numinlets" : 1,
									"args" : [ "@obj-name", "hoa.encoder~", "@obj-desc", "An", "ambisonic", "encoder." ],
									"numoutlets" : 0
								}

							}
, 							{
								"box" : 								{
									"maxclass" : "newobj",
									"text" : "bgcolor 0.93 0.93 0.92 1.",
									"linecount" : 2,
									"patching_rect" : [ 419.0, 22.5, 52.0, 23.0 ],
									"id" : "obj-57",
									"fontname" : "Arial",
									"fontsize" : 7.180877,
									"numinlets" : 4,
									"numoutlets" : 0,
									"hidden" : 1
								}

							}
, 							{
								"box" : 								{
									"maxclass" : "comment",
									"varname" : "autohelp_top_description[3]",
									"text" : "widen value :",
									"linecount" : 2,
									"frgb" : [ 0.30292, 0.30292, 0.30292, 1.0 ],
									"patching_rect" : [ 272.5, 150.5, 50.0, 34.0 ],
									"id" : "obj-4",
									"fontname" : "Arial",
									"textcolor" : [ 0.30292, 0.30292, 0.30292, 1.0 ],
									"fontsize" : 12.0,
									"numinlets" : 1,
									"numoutlets" : 0
								}

							}
, 							{
								"box" : 								{
									"maxclass" : "panel",
									"patching_rect" : [ 272.5, 150.5, 44.75, 33.0 ],
									"id" : "obj-5",
									"rounded" : 15,
									"shadow" : -1,
									"bordercolor" : [ 0.235294, 0.235294, 0.235294, 0.2 ],
									"numinlets" : 1,
									"numoutlets" : 0,
									"bgcolor" : [ 0.94324, 0.954082, 0.954082, 1.0 ]
								}

							}
, 							{
								"box" : 								{
									"maxclass" : "comment",
									"varname" : "autohelp_top_description[2]",
									"text" : "hoa.encoder~ works also with float or int for the azimuth position. (0 -  2*pi)",
									"linecount" : 2,
									"frgb" : [ 0.30292, 0.30292, 0.30292, 1.0 ],
									"patching_rect" : [ 299.5, 243.0, 216.0, 34.0 ],
									"id" : "obj-3",
									"fontname" : "Arial",
									"textcolor" : [ 0.30292, 0.30292, 0.30292, 1.0 ],
									"fontsize" : 12.0,
									"numinlets" : 1,
									"numoutlets" : 0
								}

							}
, 							{
								"box" : 								{
									"maxclass" : "panel",
									"patching_rect" : [ 299.5, 243.0, 216.0, 33.0 ],
									"id" : "obj-2",
									"rounded" : 15,
									"shadow" : -1,
									"bordercolor" : [ 0.235294, 0.235294, 0.235294, 0.2 ],
									"numinlets" : 1,
									"numoutlets" : 0,
									"bgcolor" : [ 0.94324, 0.954082, 0.954082, 1.0 ]
								}

							}
, 							{
								"box" : 								{
									"maxclass" : "comment",
									"varname" : "autohelp_top_description[1]",
									"text" : "With split mode, the input are splited by the given order. It could be useful to optimize some process on the order dependant signals.",
									"linecount" : 2,
									"frgb" : [ 0.30292, 0.30292, 0.30292, 1.0 ],
									"patching_rect" : [ 7.0, 62.0, 483.0, 34.0 ],
									"id" : "obj-60",
									"fontname" : "Arial",
									"textcolor" : [ 0.30292, 0.30292, 0.30292, 1.0 ],
									"fontsize" : 12.0,
									"numinlets" : 1,
									"numoutlets" : 0
								}

							}
, 							{
								"box" : 								{
									"maxclass" : "comment",
									"text" : "hoalibrary | Julien Colafrancesco, Pierre Guillot & Eliott Paris © 2012 CICM / Universite Paris 8",
									"frgb" : [ 0.317518, 0.317518, 0.317518, 1.0 ],
									"patching_rect" : [ 7.0, 647.5, 497.0, 20.0 ],
									"id" : "obj-58",
									"fontname" : "Arial",
									"textcolor" : [ 0.317518, 0.317518, 0.317518, 1.0 ],
									"fontsize" : 11.595187,
									"numinlets" : 1,
									"numoutlets" : 0
								}

							}
, 							{
								"box" : 								{
									"maxclass" : "panel",
									"patching_rect" : [ 7.0, 647.5, 497.0, 19.0 ],
									"id" : "obj-28",
									"rounded" : 6,
									"shadow" : -1,
									"bordercolor" : [ 0.235294, 0.235294, 0.235294, 0.2 ],
									"numinlets" : 1,
									"numoutlets" : 0,
									"bgcolor" : [ 0.0, 0.0, 0.0, 0.05 ]
								}

							}
, 							{
								"box" : 								{
									"maxclass" : "bpatcher",
									"outlettype" : [ "signal" ],
									"patching_rect" : [ 39.75, 106.0, 218.0, 87.0 ],
									"border" : 1,
									"id" : "obj-17",
									"name" : "hoa.helpaudio.maxpat",
									"numinlets" : 0,
									"args" : [ "@module", 3, "@noise", 1, "@vol", 80 ],
									"numoutlets" : 1
								}

							}
, 							{
								"box" : 								{
									"maxclass" : "newobj",
									"text" : "p key32",
									"outlettype" : [ "bang" ],
									"patching_rect" : [ 495.75, 23.5, 51.0, 20.0 ],
									"id" : "obj-46",
									"fontname" : "Arial",
									"fontsize" : 11.595187,
									"numinlets" : 0,
									"numoutlets" : 1,
									"hidden" : 1,
									"patcher" : 									{
										"fileversion" : 1,
										"appversion" : 										{
											"major" : 5,
											"minor" : 1,
											"revision" : 9
										}
,
										"rect" : [ 0.0, 0.0, 640.0, 480.0 ],
										"bglocked" : 0,
										"defrect" : [ 0.0, 0.0, 640.0, 480.0 ],
										"openrect" : [ 0.0, 0.0, 0.0, 0.0 ],
										"openinpresentation" : 0,
										"default_fontsize" : 12.0,
										"default_fontface" : 0,
										"default_fontname" : "Arial",
										"gridonopen" : 0,
										"gridsize" : [ 15.0, 15.0 ],
										"gridsnaponopen" : 0,
										"toolbarvisible" : 1,
										"boxanimatetime" : 200,
										"imprint" : 0,
										"enablehscroll" : 1,
										"enablevscroll" : 1,
										"devicewidth" : 0.0,
										"boxes" : [ 											{
												"box" : 												{
													"maxclass" : "button",
													"outlettype" : [ "bang" ],
													"patching_rect" : [ 50.0, 160.0, 20.0, 20.0 ],
													"id" : "obj-10",
													"numinlets" : 1,
													"numoutlets" : 1
												}

											}
, 											{
												"box" : 												{
													"maxclass" : "newobj",
													"text" : "sel 32",
													"outlettype" : [ "bang", "" ],
													"patching_rect" : [ 50.0, 130.0, 41.0, 20.0 ],
													"id" : "obj-23",
													"fontname" : "Arial",
													"fontsize" : 11.595187,
													"numinlets" : 2,
													"numoutlets" : 2
												}

											}
, 											{
												"box" : 												{
													"maxclass" : "newobj",
													"text" : "key",
													"outlettype" : [ "int", "int", "int", "int" ],
													"patching_rect" : [ 50.0, 100.0, 59.5, 20.0 ],
													"id" : "obj-17",
													"fontname" : "Arial",
													"fontsize" : 11.595187,
													"numinlets" : 0,
													"numoutlets" : 4
												}

											}
, 											{
												"box" : 												{
													"maxclass" : "outlet",
													"patching_rect" : [ 50.0, 240.0, 25.0, 25.0 ],
													"id" : "obj-45",
													"numinlets" : 1,
													"numoutlets" : 0,
													"comment" : ""
												}

											}
 ],
										"lines" : [ 											{
												"patchline" : 												{
													"source" : [ "obj-23", 0 ],
													"destination" : [ "obj-10", 0 ],
													"hidden" : 0,
													"midpoints" : [ 59.5, 151.0, 59.5, 151.0 ]
												}

											}
, 											{
												"patchline" : 												{
													"source" : [ "obj-17", 0 ],
													"destination" : [ "obj-23", 0 ],
													"hidden" : 0,
													"midpoints" : [ 59.5, 121.0, 59.5, 121.0 ]
												}

											}
, 											{
												"patchline" : 												{
													"source" : [ "obj-10", 0 ],
													"destination" : [ "obj-45", 0 ],
													"hidden" : 0,
													"midpoints" : [  ]
												}

											}
 ]
									}
,
									"saved_object_attributes" : 									{
										"default_fontsize" : 12.0,
										"fontname" : "Arial",
										"globalpatchername" : "",
										"fontface" : 0,
										"default_fontface" : 0,
										"fontsize" : 12.0,
										"default_fontname" : "Arial"
									}

								}

							}
, 							{
								"box" : 								{
									"maxclass" : "newobj",
									"text" : "hoa.connect 7 16",
									"patching_rect" : [ 495.75, 53.5, 99.0, 20.0 ],
									"id" : "obj-39",
									"fontname" : "Arial",
									"fontsize" : 11.595187,
									"numinlets" : 1,
									"numoutlets" : 0,
									"hidden" : 1,
									"saved_object_attributes" : 									{
										"poscolor" : [ 1.0, 0.0, 0.0, 1.0 ]
									}

								}

							}
, 							{
								"box" : 								{
									"maxclass" : "newobj",
									"text" : "loadmess 1.",
									"outlettype" : [ "" ],
									"patching_rect" : [ 272.5, 160.0, 73.0, 20.0 ],
									"id" : "obj-16",
									"fontname" : "Arial",
									"fontsize" : 11.595187,
									"numinlets" : 1,
									"numoutlets" : 1,
									"hidden" : 1
								}

							}
, 							{
								"box" : 								{
									"maxclass" : "flonum",
									"outlettype" : [ "float", "bang" ],
									"patching_rect" : [ 272.5, 190.0, 50.0, 20.0 ],
									"id" : "obj-6",
									"fontname" : "Arial",
									"minimum" : 0.0,
									"fontsize" : 11.595187,
									"numinlets" : 1,
									"maximum" : 1.0,
									"numoutlets" : 2
								}

							}
, 							{
								"box" : 								{
									"maxclass" : "message",
									"text" : "stop",
									"outlettype" : [ "" ],
									"patching_rect" : [ 368.75, 567.0, 32.5, 18.0 ],
									"id" : "obj-13",
									"fontname" : "Arial",
									"fontsize" : 11.595187,
									"numinlets" : 2,
									"numoutlets" : 1
								}

							}
, 							{
								"box" : 								{
									"maxclass" : "message",
									"text" : "startwindow",
									"outlettype" : [ "" ],
									"patching_rect" : [ 291.0, 567.0, 72.0, 18.0 ],
									"id" : "obj-7",
									"fontname" : "Arial",
									"fontsize" : 11.595187,
									"numinlets" : 2,
									"numoutlets" : 1
								}

							}
, 							{
								"box" : 								{
									"maxclass" : "newobj",
									"text" : "hoa.dac~ 1:16",
									"patching_rect" : [ 40.0, 612.0, 221.5, 20.0 ],
									"id" : "obj-40",
									"fontname" : "Arial",
									"fontsize" : 11.595187,
									"numinlets" : 16,
									"numoutlets" : 0
								}

							}
, 							{
								"box" : 								{
									"maxclass" : "flonum",
									"outlettype" : [ "float", "bang" ],
									"patching_rect" : [ 242.5, 237.0, 50.0, 20.0 ],
									"id" : "obj-38",
									"fontname" : "Arial",
									"fontsize" : 11.595187,
									"numinlets" : 1,
									"numoutlets" : 2
								}

							}
, 							{
								"box" : 								{
									"maxclass" : "newobj",
									"text" : "hoa.plug~ 7 hoa.pwider~ pre",
									"outlettype" : [ "signal", "signal", "signal", "signal", "signal", "signal", "signal", "signal" ],
									"patching_rect" : [ 39.75, 237.0, 196.40625, 20.0 ],
									"id" : "obj-36",
									"fontname" : "Arial",
									"fontsize" : 11.595187,
									"numinlets" : 1,
									"numoutlets" : 8
								}

							}
, 							{
								"box" : 								{
									"maxclass" : "newobj",
									"text" : "hoa.encoder~ 7 split",
									"outlettype" : [ "signal", "signal", "signal", "signal", "signal", "signal", "signal", "signal", "signal", "signal", "signal", "signal", "signal", "signal", "signal" ],
									"patching_rect" : [ 39.75, 285.0, 221.75, 20.0 ],
									"id" : "obj-34",
									"fontname" : "Arial",
									"fontsize" : 11.595187,
									"numinlets" : 9,
									"numoutlets" : 15
								}

							}
, 							{
								"box" : 								{
									"maxclass" : "newobj",
									"text" : "hoa.decoder~ 7 16",
									"outlettype" : [ "signal", "signal", "signal", "signal", "signal", "signal", "signal", "signal", "signal", "signal", "signal", "signal", "signal", "signal", "signal", "signal" ],
									"patching_rect" : [ 40.0, 522.0, 221.5, 20.0 ],
									"id" : "obj-12",
									"fontname" : "Arial",
									"fontsize" : 12.0,
									"numinlets" : 15,
									"numoutlets" : 16
								}

							}
, 							{
								"box" : 								{
									"maxclass" : "panel",
									"patching_rect" : [ 7.0, 62.0, 483.0, 33.0 ],
									"id" : "obj-9",
									"rounded" : 15,
									"shadow" : -1,
									"bordercolor" : [ 0.235294, 0.235294, 0.235294, 0.2 ],
									"numinlets" : 1,
									"numoutlets" : 0,
									"bgcolor" : [ 0.94324, 0.954082, 0.954082, 1.0 ]
								}

							}
 ],
						"lines" : [ 							{
								"patchline" : 								{
									"source" : [ "obj-7", 0 ],
									"destination" : [ "obj-40", 15 ],
									"hidden" : 0,
									"midpoints" : [ 300.5, 597.0, 252.0, 597.0 ]
								}

							}
, 							{
								"patchline" : 								{
									"source" : [ "obj-6", 0 ],
									"destination" : [ "obj-36", 0 ],
									"hidden" : 0,
									"midpoints" : [ 282.0, 228.0, 49.25, 228.0 ]
								}

							}
, 							{
								"patchline" : 								{
									"source" : [ "obj-46", 0 ],
									"destination" : [ "obj-39", 0 ],
									"hidden" : 1,
									"midpoints" : [ 505.25, 44.5, 505.25, 44.5 ]
								}

							}
, 							{
								"patchline" : 								{
									"source" : [ "obj-38", 0 ],
									"destination" : [ "obj-10", 0 ],
									"hidden" : 0,
									"midpoints" : [  ]
								}

							}
, 							{
								"patchline" : 								{
									"source" : [ "obj-36", 0 ],
									"destination" : [ "obj-34", 0 ],
									"hidden" : 0,
									"color" : [ 0.0, 0.0, 1.0, 1.0 ],
									"midpoints" : [  ]
								}

							}
, 							{
								"patchline" : 								{
									"source" : [ "obj-36", 1 ],
									"destination" : [ "obj-34", 1 ],
									"hidden" : 0,
									"color" : [ 1.0, 0.0, 0.0, 1.0 ],
									"midpoints" : [  ]
								}

							}
, 							{
								"patchline" : 								{
									"source" : [ "obj-36", 2 ],
									"destination" : [ "obj-34", 2 ],
									"hidden" : 0,
									"color" : [ 0.0, 0.0, 1.0, 1.0 ],
									"midpoints" : [  ]
								}

							}
, 							{
								"patchline" : 								{
									"source" : [ "obj-36", 3 ],
									"destination" : [ "obj-34", 3 ],
									"hidden" : 0,
									"color" : [ 1.0, 0.0, 0.0, 1.0 ],
									"midpoints" : [  ]
								}

							}
, 							{
								"patchline" : 								{
									"source" : [ "obj-36", 4 ],
									"destination" : [ "obj-34", 4 ],
									"hidden" : 0,
									"color" : [ 0.0, 0.0, 1.0, 1.0 ],
									"midpoints" : [  ]
								}

							}
, 							{
								"patchline" : 								{
									"source" : [ "obj-36", 5 ],
									"destination" : [ "obj-34", 5 ],
									"hidden" : 0,
									"color" : [ 1.0, 0.0, 0.0, 1.0 ],
									"midpoints" : [  ]
								}

							}
, 							{
								"patchline" : 								{
									"source" : [ "obj-36", 6 ],
									"destination" : [ "obj-34", 6 ],
									"hidden" : 0,
									"color" : [ 0.0, 0.0, 1.0, 1.0 ],
									"midpoints" : [  ]
								}

							}
, 							{
								"patchline" : 								{
									"source" : [ "obj-36", 7 ],
									"destination" : [ "obj-34", 7 ],
									"hidden" : 0,
									"color" : [ 1.0, 0.0, 0.0, 1.0 ],
									"midpoints" : [  ]
								}

							}
, 							{
								"patchline" : 								{
									"source" : [ "obj-34", 0 ],
									"destination" : [ "obj-12", 0 ],
									"hidden" : 0,
									"color" : [ 0.0, 0.0, 1.0, 1.0 ],
									"midpoints" : [  ]
								}

							}
, 							{
								"patchline" : 								{
									"source" : [ "obj-34", 1 ],
									"destination" : [ "obj-12", 1 ],
									"hidden" : 0,
									"color" : [ 1.0, 0.0, 0.0, 1.0 ],
									"midpoints" : [  ]
								}

							}
, 							{
								"patchline" : 								{
									"source" : [ "obj-34", 2 ],
									"destination" : [ "obj-12", 2 ],
									"hidden" : 0,
									"color" : [ 0.0, 0.0, 1.0, 1.0 ],
									"midpoints" : [  ]
								}

							}
, 							{
								"patchline" : 								{
									"source" : [ "obj-34", 3 ],
									"destination" : [ "obj-12", 3 ],
									"hidden" : 0,
									"color" : [ 1.0, 0.0, 0.0, 1.0 ],
									"midpoints" : [  ]
								}

							}
, 							{
								"patchline" : 								{
									"source" : [ "obj-34", 4 ],
									"destination" : [ "obj-12", 4 ],
									"hidden" : 0,
									"color" : [ 0.0, 0.0, 1.0, 1.0 ],
									"midpoints" : [  ]
								}

							}
, 							{
								"patchline" : 								{
									"source" : [ "obj-34", 5 ],
									"destination" : [ "obj-12", 5 ],
									"hidden" : 0,
									"color" : [ 1.0, 0.0, 0.0, 1.0 ],
									"midpoints" : [  ]
								}

							}
, 							{
								"patchline" : 								{
									"source" : [ "obj-34", 6 ],
									"destination" : [ "obj-12", 6 ],
									"hidden" : 0,
									"color" : [ 0.0, 0.0, 1.0, 1.0 ],
									"midpoints" : [  ]
								}

							}
, 							{
								"patchline" : 								{
									"source" : [ "obj-34", 7 ],
									"destination" : [ "obj-12", 7 ],
									"hidden" : 0,
									"color" : [ 1.0, 0.0, 0.0, 1.0 ],
									"midpoints" : [  ]
								}

							}
, 							{
								"patchline" : 								{
									"source" : [ "obj-34", 8 ],
									"destination" : [ "obj-12", 8 ],
									"hidden" : 0,
									"color" : [ 0.0, 0.0, 1.0, 1.0 ],
									"midpoints" : [  ]
								}

							}
, 							{
								"patchline" : 								{
									"source" : [ "obj-34", 9 ],
									"destination" : [ "obj-12", 9 ],
									"hidden" : 0,
									"color" : [ 1.0, 0.0, 0.0, 1.0 ],
									"midpoints" : [  ]
								}

							}
, 							{
								"patchline" : 								{
									"source" : [ "obj-34", 10 ],
									"destination" : [ "obj-12", 10 ],
									"hidden" : 0,
									"color" : [ 0.0, 0.0, 1.0, 1.0 ],
									"midpoints" : [  ]
								}

							}
, 							{
								"patchline" : 								{
									"source" : [ "obj-34", 11 ],
									"destination" : [ "obj-12", 11 ],
									"hidden" : 0,
									"color" : [ 1.0, 0.0, 0.0, 1.0 ],
									"midpoints" : [  ]
								}

							}
, 							{
								"patchline" : 								{
									"source" : [ "obj-34", 12 ],
									"destination" : [ "obj-12", 12 ],
									"hidden" : 0,
									"color" : [ 0.0, 0.0, 1.0, 1.0 ],
									"midpoints" : [  ]
								}

							}
, 							{
								"patchline" : 								{
									"source" : [ "obj-34", 13 ],
									"destination" : [ "obj-12", 13 ],
									"hidden" : 0,
									"color" : [ 1.0, 0.0, 0.0, 1.0 ],
									"midpoints" : [  ]
								}

							}
, 							{
								"patchline" : 								{
									"source" : [ "obj-34", 14 ],
									"destination" : [ "obj-12", 14 ],
									"hidden" : 0,
									"color" : [ 0.0, 0.0, 1.0, 1.0 ],
									"midpoints" : [  ]
								}

							}
, 							{
								"patchline" : 								{
									"source" : [ "obj-34", 0 ],
									"destination" : [ "obj-1", 0 ],
									"hidden" : 0,
									"color" : [ 0.0, 0.0, 1.0, 1.0 ],
									"midpoints" : [  ]
								}

							}
, 							{
								"patchline" : 								{
									"source" : [ "obj-34", 1 ],
									"destination" : [ "obj-1", 1 ],
									"hidden" : 0,
									"color" : [ 1.0, 0.0, 0.0, 1.0 ],
									"midpoints" : [  ]
								}

							}
, 							{
								"patchline" : 								{
									"source" : [ "obj-34", 2 ],
									"destination" : [ "obj-1", 2 ],
									"hidden" : 0,
									"color" : [ 0.0, 0.0, 1.0, 1.0 ],
									"midpoints" : [  ]
								}

							}
, 							{
								"patchline" : 								{
									"source" : [ "obj-34", 3 ],
									"destination" : [ "obj-1", 3 ],
									"hidden" : 0,
									"color" : [ 1.0, 0.0, 0.0, 1.0 ],
									"midpoints" : [  ]
								}

							}
, 							{
								"patchline" : 								{
									"source" : [ "obj-34", 4 ],
									"destination" : [ "obj-1", 4 ],
									"hidden" : 0,
									"color" : [ 0.0, 0.0, 1.0, 1.0 ],
									"midpoints" : [  ]
								}

							}
, 							{
								"patchline" : 								{
									"source" : [ "obj-34", 5 ],
									"destination" : [ "obj-1", 5 ],
									"hidden" : 0,
									"color" : [ 1.0, 0.0, 0.0, 1.0 ],
									"midpoints" : [  ]
								}

							}
, 							{
								"patchline" : 								{
									"source" : [ "obj-34", 6 ],
									"destination" : [ "obj-1", 6 ],
									"hidden" : 0,
									"color" : [ 0.0, 0.0, 1.0, 1.0 ],
									"midpoints" : [  ]
								}

							}
, 							{
								"patchline" : 								{
									"source" : [ "obj-34", 7 ],
									"destination" : [ "obj-1", 7 ],
									"hidden" : 0,
									"color" : [ 1.0, 0.0, 0.0, 1.0 ],
									"midpoints" : [  ]
								}

							}
, 							{
								"patchline" : 								{
									"source" : [ "obj-34", 8 ],
									"destination" : [ "obj-1", 8 ],
									"hidden" : 0,
									"color" : [ 0.0, 0.0, 1.0, 1.0 ],
									"midpoints" : [  ]
								}

							}
, 							{
								"patchline" : 								{
									"source" : [ "obj-34", 9 ],
									"destination" : [ "obj-1", 9 ],
									"hidden" : 0,
									"color" : [ 1.0, 0.0, 0.0, 1.0 ],
									"midpoints" : [  ]
								}

							}
, 							{
								"patchline" : 								{
									"source" : [ "obj-34", 10 ],
									"destination" : [ "obj-1", 10 ],
									"hidden" : 0,
									"color" : [ 0.0, 0.0, 1.0, 1.0 ],
									"midpoints" : [  ]
								}

							}
, 							{
								"patchline" : 								{
									"source" : [ "obj-34", 11 ],
									"destination" : [ "obj-1", 11 ],
									"hidden" : 0,
									"color" : [ 1.0, 0.0, 0.0, 1.0 ],
									"midpoints" : [  ]
								}

							}
, 							{
								"patchline" : 								{
									"source" : [ "obj-34", 12 ],
									"destination" : [ "obj-1", 12 ],
									"hidden" : 0,
									"color" : [ 0.0, 0.0, 1.0, 1.0 ],
									"midpoints" : [  ]
								}

							}
, 							{
								"patchline" : 								{
									"source" : [ "obj-34", 13 ],
									"destination" : [ "obj-1", 13 ],
									"hidden" : 0,
									"color" : [ 1.0, 0.0, 0.0, 1.0 ],
									"midpoints" : [  ]
								}

							}
, 							{
								"patchline" : 								{
									"source" : [ "obj-34", 14 ],
									"destination" : [ "obj-1", 14 ],
									"hidden" : 0,
									"color" : [ 0.0, 0.0, 1.0, 1.0 ],
									"midpoints" : [  ]
								}

							}
, 							{
								"patchline" : 								{
									"source" : [ "obj-17", 0 ],
									"destination" : [ "obj-36", 0 ],
									"hidden" : 0,
									"midpoints" : [  ]
								}

							}
, 							{
								"patchline" : 								{
									"source" : [ "obj-16", 0 ],
									"destination" : [ "obj-6", 0 ],
									"hidden" : 1,
									"midpoints" : [  ]
								}

							}
, 							{
								"patchline" : 								{
									"source" : [ "obj-13", 0 ],
									"destination" : [ "obj-40", 15 ],
									"hidden" : 0,
									"midpoints" : [ 378.25, 597.0, 252.0, 597.0 ]
								}

							}
, 							{
								"patchline" : 								{
									"source" : [ "obj-12", 0 ],
									"destination" : [ "obj-40", 0 ],
									"hidden" : 0,
									"midpoints" : [  ]
								}

							}
, 							{
								"patchline" : 								{
									"source" : [ "obj-12", 1 ],
									"destination" : [ "obj-40", 1 ],
									"hidden" : 0,
									"midpoints" : [  ]
								}

							}
, 							{
								"patchline" : 								{
									"source" : [ "obj-12", 2 ],
									"destination" : [ "obj-40", 2 ],
									"hidden" : 0,
									"midpoints" : [  ]
								}

							}
, 							{
								"patchline" : 								{
									"source" : [ "obj-12", 3 ],
									"destination" : [ "obj-40", 3 ],
									"hidden" : 0,
									"midpoints" : [  ]
								}

							}
, 							{
								"patchline" : 								{
									"source" : [ "obj-12", 4 ],
									"destination" : [ "obj-40", 4 ],
									"hidden" : 0,
									"midpoints" : [  ]
								}

							}
, 							{
								"patchline" : 								{
									"source" : [ "obj-12", 5 ],
									"destination" : [ "obj-40", 5 ],
									"hidden" : 0,
									"midpoints" : [  ]
								}

							}
, 							{
								"patchline" : 								{
									"source" : [ "obj-12", 6 ],
									"destination" : [ "obj-40", 6 ],
									"hidden" : 0,
									"midpoints" : [  ]
								}

							}
, 							{
								"patchline" : 								{
									"source" : [ "obj-12", 7 ],
									"destination" : [ "obj-40", 7 ],
									"hidden" : 0,
									"midpoints" : [  ]
								}

							}
, 							{
								"patchline" : 								{
									"source" : [ "obj-12", 8 ],
									"destination" : [ "obj-40", 8 ],
									"hidden" : 0,
									"midpoints" : [  ]
								}

							}
, 							{
								"patchline" : 								{
									"source" : [ "obj-12", 9 ],
									"destination" : [ "obj-40", 9 ],
									"hidden" : 0,
									"midpoints" : [  ]
								}

							}
, 							{
								"patchline" : 								{
									"source" : [ "obj-12", 10 ],
									"destination" : [ "obj-40", 10 ],
									"hidden" : 0,
									"midpoints" : [  ]
								}

							}
, 							{
								"patchline" : 								{
									"source" : [ "obj-12", 11 ],
									"destination" : [ "obj-40", 11 ],
									"hidden" : 0,
									"midpoints" : [  ]
								}

							}
, 							{
								"patchline" : 								{
									"source" : [ "obj-12", 12 ],
									"destination" : [ "obj-40", 12 ],
									"hidden" : 0,
									"midpoints" : [  ]
								}

							}
, 							{
								"patchline" : 								{
									"source" : [ "obj-12", 13 ],
									"destination" : [ "obj-40", 13 ],
									"hidden" : 0,
									"midpoints" : [  ]
								}

							}
, 							{
								"patchline" : 								{
									"source" : [ "obj-12", 14 ],
									"destination" : [ "obj-40", 14 ],
									"hidden" : 0,
									"midpoints" : [  ]
								}

							}
, 							{
								"patchline" : 								{
									"source" : [ "obj-12", 15 ],
									"destination" : [ "obj-40", 15 ],
									"hidden" : 0,
									"midpoints" : [  ]
								}

							}
, 							{
								"patchline" : 								{
									"source" : [ "obj-10", 0 ],
									"destination" : [ "obj-34", 8 ],
									"hidden" : 0,
									"midpoints" : [  ]
								}

							}
, 							{
								"patchline" : 								{
									"source" : [ "obj-1", 0 ],
									"destination" : [ "obj-20", 0 ],
									"hidden" : 1,
									"color" : [ 0.0, 0.0, 1.0, 1.0 ],
									"midpoints" : [  ]
								}

							}
, 							{
								"patchline" : 								{
									"source" : [ "obj-1", 1 ],
									"destination" : [ "obj-20", 1 ],
									"hidden" : 1,
									"color" : [ 1.0, 0.0, 0.0, 1.0 ],
									"midpoints" : [  ]
								}

							}
, 							{
								"patchline" : 								{
									"source" : [ "obj-1", 2 ],
									"destination" : [ "obj-20", 2 ],
									"hidden" : 1,
									"color" : [ 0.0, 0.0, 1.0, 1.0 ],
									"midpoints" : [  ]
								}

							}
, 							{
								"patchline" : 								{
									"source" : [ "obj-1", 3 ],
									"destination" : [ "obj-20", 3 ],
									"hidden" : 1,
									"color" : [ 1.0, 0.0, 0.0, 1.0 ],
									"midpoints" : [  ]
								}

							}
, 							{
								"patchline" : 								{
									"source" : [ "obj-1", 4 ],
									"destination" : [ "obj-20", 4 ],
									"hidden" : 1,
									"color" : [ 0.0, 0.0, 1.0, 1.0 ],
									"midpoints" : [  ]
								}

							}
, 							{
								"patchline" : 								{
									"source" : [ "obj-1", 5 ],
									"destination" : [ "obj-20", 5 ],
									"hidden" : 1,
									"color" : [ 1.0, 0.0, 0.0, 1.0 ],
									"midpoints" : [  ]
								}

							}
, 							{
								"patchline" : 								{
									"source" : [ "obj-1", 6 ],
									"destination" : [ "obj-20", 6 ],
									"hidden" : 1,
									"color" : [ 0.0, 0.0, 1.0, 1.0 ],
									"midpoints" : [  ]
								}

							}
, 							{
								"patchline" : 								{
									"source" : [ "obj-1", 7 ],
									"destination" : [ "obj-20", 7 ],
									"hidden" : 1,
									"color" : [ 1.0, 0.0, 0.0, 1.0 ],
									"midpoints" : [  ]
								}

							}
, 							{
								"patchline" : 								{
									"source" : [ "obj-1", 8 ],
									"destination" : [ "obj-20", 8 ],
									"hidden" : 1,
									"color" : [ 0.0, 0.0, 1.0, 1.0 ],
									"midpoints" : [  ]
								}

							}
, 							{
								"patchline" : 								{
									"source" : [ "obj-1", 9 ],
									"destination" : [ "obj-20", 9 ],
									"hidden" : 1,
									"color" : [ 1.0, 0.0, 0.0, 1.0 ],
									"midpoints" : [  ]
								}

							}
, 							{
								"patchline" : 								{
									"source" : [ "obj-1", 10 ],
									"destination" : [ "obj-20", 10 ],
									"hidden" : 1,
									"color" : [ 0.0, 0.0, 1.0, 1.0 ],
									"midpoints" : [  ]
								}

							}
, 							{
								"patchline" : 								{
									"source" : [ "obj-1", 11 ],
									"destination" : [ "obj-20", 11 ],
									"hidden" : 1,
									"color" : [ 1.0, 0.0, 0.0, 1.0 ],
									"midpoints" : [  ]
								}

							}
, 							{
								"patchline" : 								{
									"source" : [ "obj-1", 12 ],
									"destination" : [ "obj-20", 12 ],
									"hidden" : 1,
									"color" : [ 0.0, 0.0, 1.0, 1.0 ],
									"midpoints" : [  ]
								}

							}
, 							{
								"patchline" : 								{
									"source" : [ "obj-1", 13 ],
									"destination" : [ "obj-20", 13 ],
									"hidden" : 1,
									"color" : [ 1.0, 0.0, 0.0, 1.0 ],
									"midpoints" : [  ]
								}

							}
, 							{
								"patchline" : 								{
									"source" : [ "obj-1", 14 ],
									"destination" : [ "obj-20", 14 ],
									"hidden" : 1,
									"color" : [ 0.0, 0.0, 1.0, 1.0 ],
									"midpoints" : [  ]
								}

							}
 ]
					}
,
					"saved_object_attributes" : 					{
						"default_fontsize" : 14.0,
						"fontname" : "Arial",
						"globalpatchername" : "",
						"fontface" : 0,
						"default_fontface" : 0,
						"fontsize" : 14.0,
						"default_fontname" : "Arial"
					}

				}

			}
, 			{
				"box" : 				{
					"maxclass" : "newobj",
					"text" : "hoa.plug~ 7 hoa.amp~ post 10.",
					"outlettype" : [ "signal", "signal", "signal", "signal", "signal", "signal", "signal", "signal", "signal", "signal", "signal", "signal", "signal", "signal", "signal" ],
					"patching_rect" : [ 289.0, 292.0, 208.0, 20.0 ],
					"id" : "obj-3",
					"fontname" : "Arial",
					"fontsize" : 12.0,
					"numinlets" : 15,
					"numoutlets" : 15,
					"hidden" : 1
				}

			}
, 			{
				"box" : 				{
					"maxclass" : "comment",
					"varname" : "autohelp_top_description[2]",
					"text" : "The azimuth position. (0 -  2*pi) can be set with signal or float values",
					"linecount" : 2,
					"frgb" : [ 0.30292, 0.30292, 0.30292, 1.0 ],
					"patching_rect" : [ 57.949997, 229.0, 202.0, 34.0 ],
					"id" : "obj-61",
					"fontname" : "Arial",
					"textcolor" : [ 0.30292, 0.30292, 0.30292, 1.0 ],
					"fontsize" : 12.0,
					"numinlets" : 1,
					"numoutlets" : 0
				}

			}
, 			{
				"box" : 				{
					"maxclass" : "panel",
					"patching_rect" : [ 57.949997, 229.0, 202.0, 33.0 ],
					"id" : "obj-9",
					"rounded" : 15,
					"shadow" : -1,
					"bordercolor" : [ 0.235294, 0.235294, 0.235294, 0.2 ],
					"numinlets" : 1,
					"numoutlets" : 0,
					"bgcolor" : [ 0.94324, 0.954082, 0.954082, 1.0 ]
				}

			}
, 			{
				"box" : 				{
					"maxclass" : "bpatcher",
					"patching_rect" : [ 5.0, 4.0, 483.0, 56.0 ],
					"id" : "obj-56",
					"name" : "hoa.helpheader.maxpat",
					"numinlets" : 1,
					"args" : [ "@obj-name", "hoa.encoder~", "@obj-desc", "An", "ambisonic", "encoder." ],
					"numoutlets" : 0
				}

			}
, 			{
				"box" : 				{
					"maxclass" : "newobj",
					"text" : "bgcolor 0.93 0.93 0.92 1.",
					"linecount" : 2,
					"patching_rect" : [ 417.0, 20.5, 52.0, 23.0 ],
					"id" : "obj-57",
					"fontname" : "Arial",
					"fontsize" : 7.180877,
					"numinlets" : 4,
					"numoutlets" : 0,
					"hidden" : 1
				}

			}
, 			{
				"box" : 				{
					"maxclass" : "comment",
					"text" : "hoalibrary | Julien Colafrancesco, Pierre Guillot & Eliott Paris © 2012 CICM / Universite Paris 8",
					"frgb" : [ 0.317518, 0.317518, 0.317518, 1.0 ],
					"patching_rect" : [ 5.0, 645.5, 497.0, 20.0 ],
					"id" : "obj-58",
					"fontname" : "Arial",
					"textcolor" : [ 0.317518, 0.317518, 0.317518, 1.0 ],
					"fontsize" : 11.595187,
					"numinlets" : 1,
					"numoutlets" : 0
				}

			}
, 			{
				"box" : 				{
					"maxclass" : "panel",
					"patching_rect" : [ 5.0, 645.5, 497.0, 19.0 ],
					"id" : "obj-28",
					"rounded" : 6,
					"shadow" : -1,
					"bordercolor" : [ 0.235294, 0.235294, 0.235294, 0.2 ],
					"numinlets" : 1,
					"numoutlets" : 0,
					"bgcolor" : [ 0.0, 0.0, 0.0, 0.05 ]
				}

			}
, 			{
				"box" : 				{
					"maxclass" : "comment",
					"varname" : "autohelp_top_description[1]",
					"text" : "hoa.encoder~ creates the circular harmonics of a signal depending of a given order (arg 1) and a position on a circle (last inlet).",
					"linecount" : 2,
					"frgb" : [ 0.30292, 0.30292, 0.30292, 1.0 ],
					"patching_rect" : [ 5.0, 60.0, 483.0, 34.0 ],
					"id" : "obj-60",
					"fontname" : "Arial",
					"textcolor" : [ 0.30292, 0.30292, 0.30292, 1.0 ],
					"fontsize" : 12.0,
					"numinlets" : 1,
					"numoutlets" : 0
				}

			}
, 			{
				"box" : 				{
					"maxclass" : "panel",
					"patching_rect" : [ 5.0, 60.0, 483.0, 33.0 ],
					"id" : "obj-31",
					"rounded" : 15,
					"shadow" : -1,
					"bordercolor" : [ 0.235294, 0.235294, 0.235294, 0.2 ],
					"numinlets" : 1,
					"numoutlets" : 0,
					"bgcolor" : [ 0.94324, 0.954082, 0.954082, 1.0 ]
				}

			}
, 			{
				"box" : 				{
					"maxclass" : "bpatcher",
					"outlettype" : [ "signal" ],
					"patching_rect" : [ 37.75, 104.0, 218.0, 87.0 ],
					"border" : 1,
					"id" : "obj-55",
					"name" : "hoa.helpaudio.maxpat",
					"numinlets" : 0,
					"args" : [ "@module", 3, "@noise", 1, "@vol", 80 ],
					"numoutlets" : 1
				}

			}
, 			{
				"box" : 				{
					"maxclass" : "hoa.scope~",
					"patching_rect" : [ 280.5, 304.0, 225.0, 225.0 ],
					"id" : "obj-20",
					"fontname" : "Arial",
					"textcolor" : [  ],
					"color" : [ 1.0, 1.0, 1.0, 1.0 ],
					"order" : 7,
					"fontsize" : 11.595187,
					"numinlets" : 15,
					"numoutlets" : 0
				}

			}
, 			{
				"box" : 				{
					"maxclass" : "message",
					"text" : "stop",
					"outlettype" : [ "" ],
					"patching_rect" : [ 366.75, 565.0, 32.5, 18.0 ],
					"id" : "obj-13",
					"fontname" : "Arial",
					"fontsize" : 11.595187,
					"numinlets" : 2,
					"numoutlets" : 1
				}

			}
, 			{
				"box" : 				{
					"maxclass" : "message",
					"text" : "startwindow",
					"outlettype" : [ "" ],
					"patching_rect" : [ 289.0, 565.0, 72.0, 18.0 ],
					"id" : "obj-7",
					"fontname" : "Arial",
					"fontsize" : 11.595187,
					"numinlets" : 2,
					"numoutlets" : 1
				}

			}
, 			{
				"box" : 				{
					"maxclass" : "newobj",
					"text" : "hoa.dac~ 1:16",
					"patching_rect" : [ 38.0, 610.0, 221.5, 20.0 ],
					"id" : "obj-40",
					"fontname" : "Arial",
					"fontsize" : 11.595187,
					"numinlets" : 16,
					"numoutlets" : 0
				}

			}
, 			{
				"box" : 				{
					"maxclass" : "newobj",
					"text" : "hoa.encoder~ 7",
					"outlettype" : [ "signal", "signal", "signal", "signal", "signal", "signal", "signal", "signal", "signal", "signal", "signal", "signal", "signal", "signal", "signal" ],
					"patching_rect" : [ 37.75, 283.0, 222.199997, 20.0 ],
					"id" : "obj-34",
					"fontname" : "Arial",
					"fontsize" : 11.595187,
					"numinlets" : 2,
					"numoutlets" : 15
				}

			}
, 			{
				"box" : 				{
					"maxclass" : "newobj",
					"text" : "hoa.decoder~ 7 16",
					"outlettype" : [ "signal", "signal", "signal", "signal", "signal", "signal", "signal", "signal", "signal", "signal", "signal", "signal", "signal", "signal", "signal", "signal" ],
					"patching_rect" : [ 38.0, 520.0, 221.5, 20.0 ],
					"id" : "obj-12",
					"fontname" : "Arial",
					"fontsize" : 12.0,
					"numinlets" : 15,
					"numoutlets" : 16
				}

			}
, 			{
				"box" : 				{
					"maxclass" : "newobj",
					"text" : "hoa.pi 2.",
					"outlettype" : [ "float" ],
					"patching_rect" : [ 399.5, 183.0, 55.0, 20.0 ],
					"id" : "obj-1",
					"fontname" : "Arial",
					"fontsize" : 11.595187,
					"numinlets" : 1,
					"numoutlets" : 1
				}

			}
, 			{
				"box" : 				{
					"maxclass" : "newobj",
					"text" : "loadmess 0.1",
					"outlettype" : [ "" ],
					"patching_rect" : [ 325.5, 123.0, 79.0, 20.0 ],
					"id" : "obj-8",
					"fontname" : "Arial",
					"fontsize" : 11.595187,
					"numinlets" : 1,
					"numoutlets" : 1,
					"hidden" : 1
				}

			}
, 			{
				"box" : 				{
					"maxclass" : "newobj",
					"text" : "loadmess 0.",
					"outlettype" : [ "" ],
					"patching_rect" : [ 270.5, 153.0, 73.0, 20.0 ],
					"id" : "obj-4",
					"fontname" : "Arial",
					"fontsize" : 11.595187,
					"numinlets" : 1,
					"numoutlets" : 1,
					"hidden" : 1
				}

			}
, 			{
				"box" : 				{
					"maxclass" : "newobj",
					"text" : "p key32",
					"outlettype" : [ "bang" ],
					"patching_rect" : [ 417.0, 123.0, 51.0, 20.0 ],
					"id" : "obj-46",
					"fontname" : "Arial",
					"fontsize" : 11.595187,
					"numinlets" : 0,
					"numoutlets" : 1,
					"hidden" : 1,
					"patcher" : 					{
						"fileversion" : 1,
						"appversion" : 						{
							"major" : 5,
							"minor" : 1,
							"revision" : 9
						}
,
						"rect" : [ 0.0, 0.0, 640.0, 480.0 ],
						"bglocked" : 0,
						"defrect" : [ 0.0, 0.0, 640.0, 480.0 ],
						"openrect" : [ 0.0, 0.0, 0.0, 0.0 ],
						"openinpresentation" : 0,
						"default_fontsize" : 12.0,
						"default_fontface" : 0,
						"default_fontname" : "Arial",
						"gridonopen" : 0,
						"gridsize" : [ 15.0, 15.0 ],
						"gridsnaponopen" : 0,
						"toolbarvisible" : 1,
						"boxanimatetime" : 200,
						"imprint" : 0,
						"enablehscroll" : 1,
						"enablevscroll" : 1,
						"devicewidth" : 0.0,
						"boxes" : [ 							{
								"box" : 								{
									"maxclass" : "button",
									"outlettype" : [ "bang" ],
									"patching_rect" : [ 50.0, 160.0, 20.0, 20.0 ],
									"id" : "obj-10",
									"numinlets" : 1,
									"numoutlets" : 1
								}

							}
, 							{
								"box" : 								{
									"maxclass" : "newobj",
									"text" : "sel 32",
									"outlettype" : [ "bang", "" ],
									"patching_rect" : [ 50.0, 130.0, 41.0, 20.0 ],
									"id" : "obj-23",
									"fontname" : "Arial",
									"fontsize" : 11.595187,
									"numinlets" : 2,
									"numoutlets" : 2
								}

							}
, 							{
								"box" : 								{
									"maxclass" : "newobj",
									"text" : "key",
									"outlettype" : [ "int", "int", "int", "int" ],
									"patching_rect" : [ 50.0, 100.0, 59.5, 20.0 ],
									"id" : "obj-17",
									"fontname" : "Arial",
									"fontsize" : 11.595187,
									"numinlets" : 0,
									"numoutlets" : 4
								}

							}
, 							{
								"box" : 								{
									"maxclass" : "outlet",
									"patching_rect" : [ 50.0, 240.0, 25.0, 25.0 ],
									"id" : "obj-45",
									"numinlets" : 1,
									"numoutlets" : 0,
									"comment" : ""
								}

							}
 ],
						"lines" : [ 							{
								"patchline" : 								{
									"source" : [ "obj-10", 0 ],
									"destination" : [ "obj-45", 0 ],
									"hidden" : 0,
									"midpoints" : [  ]
								}

							}
, 							{
								"patchline" : 								{
									"source" : [ "obj-17", 0 ],
									"destination" : [ "obj-23", 0 ],
									"hidden" : 0,
									"midpoints" : [ 59.5, 121.0, 59.5, 121.0 ]
								}

							}
, 							{
								"patchline" : 								{
									"source" : [ "obj-23", 0 ],
									"destination" : [ "obj-10", 0 ],
									"hidden" : 0,
									"midpoints" : [ 59.5, 151.0, 59.5, 151.0 ]
								}

							}
 ]
					}
,
					"saved_object_attributes" : 					{
						"default_fontsize" : 12.0,
						"fontname" : "Arial",
						"globalpatchername" : "",
						"fontface" : 0,
						"default_fontface" : 0,
						"fontsize" : 12.0,
						"default_fontname" : "Arial"
					}

				}

			}
, 			{
				"box" : 				{
					"maxclass" : "newobj",
					"text" : "hoa.connect 7 16",
					"patching_rect" : [ 417.0, 153.0, 99.0, 20.0 ],
					"id" : "obj-39",
					"fontname" : "Arial",
					"fontsize" : 11.595187,
					"numinlets" : 1,
					"numoutlets" : 0,
					"hidden" : 1,
					"saved_object_attributes" : 					{
						"poscolor" : [ 1.0, 0.0, 0.0, 1.0 ]
					}

				}

			}
, 			{
				"box" : 				{
					"maxclass" : "flonum",
					"outlettype" : [ "float", "bang" ],
					"patching_rect" : [ 270.5, 183.0, 50.0, 20.0 ],
					"id" : "obj-10",
					"fontname" : "Arial",
					"fontsize" : 11.595187,
					"numinlets" : 1,
					"numoutlets" : 2
				}

			}
, 			{
				"box" : 				{
					"maxclass" : "newobj",
					"text" : "+~",
					"outlettype" : [ "signal" ],
					"patching_rect" : [ 270.5, 243.0, 74.0, 20.0 ],
					"id" : "obj-14",
					"fontname" : "Arial",
					"fontsize" : 11.595187,
					"numinlets" : 2,
					"numoutlets" : 1
				}

			}
, 			{
				"box" : 				{
					"maxclass" : "newobj",
					"text" : "sig~",
					"outlettype" : [ "signal" ],
					"patching_rect" : [ 270.5, 213.0, 32.0, 20.0 ],
					"id" : "obj-15",
					"fontname" : "Arial",
					"fontsize" : 11.595187,
					"numinlets" : 1,
					"numoutlets" : 1
				}

			}
, 			{
				"box" : 				{
					"maxclass" : "flonum",
					"outlettype" : [ "float", "bang" ],
					"patching_rect" : [ 325.5, 153.0, 50.0, 20.0 ],
					"id" : "obj-19",
					"fontname" : "Arial",
					"fontsize" : 11.595187,
					"numinlets" : 1,
					"numoutlets" : 2
				}

			}
, 			{
				"box" : 				{
					"maxclass" : "newobj",
					"text" : "*~",
					"outlettype" : [ "signal" ],
					"patching_rect" : [ 325.5, 213.0, 93.0, 20.0 ],
					"id" : "obj-17",
					"fontname" : "Arial",
					"fontsize" : 11.595187,
					"numinlets" : 2,
					"numoutlets" : 1
				}

			}
, 			{
				"box" : 				{
					"maxclass" : "newobj",
					"text" : "phasor~ 0.1",
					"outlettype" : [ "signal" ],
					"patching_rect" : [ 325.5, 183.0, 72.0, 20.0 ],
					"id" : "obj-27",
					"fontname" : "Arial",
					"fontsize" : 11.595187,
					"numinlets" : 2,
					"numoutlets" : 1
				}

			}
 ],
		"lines" : [ 			{
				"patchline" : 				{
					"source" : [ "obj-1", 0 ],
					"destination" : [ "obj-17", 1 ],
					"hidden" : 0,
					"midpoints" : [  ]
				}

			}
, 			{
				"patchline" : 				{
					"source" : [ "obj-10", 0 ],
					"destination" : [ "obj-15", 0 ],
					"hidden" : 0,
					"midpoints" : [  ]
				}

			}
, 			{
				"patchline" : 				{
					"source" : [ "obj-12", 15 ],
					"destination" : [ "obj-40", 15 ],
					"hidden" : 0,
					"midpoints" : [  ]
				}

			}
, 			{
				"patchline" : 				{
					"source" : [ "obj-12", 14 ],
					"destination" : [ "obj-40", 14 ],
					"hidden" : 0,
					"midpoints" : [  ]
				}

			}
, 			{
				"patchline" : 				{
					"source" : [ "obj-12", 13 ],
					"destination" : [ "obj-40", 13 ],
					"hidden" : 0,
					"midpoints" : [  ]
				}

			}
, 			{
				"patchline" : 				{
					"source" : [ "obj-12", 12 ],
					"destination" : [ "obj-40", 12 ],
					"hidden" : 0,
					"midpoints" : [  ]
				}

			}
, 			{
				"patchline" : 				{
					"source" : [ "obj-12", 11 ],
					"destination" : [ "obj-40", 11 ],
					"hidden" : 0,
					"midpoints" : [  ]
				}

			}
, 			{
				"patchline" : 				{
					"source" : [ "obj-12", 10 ],
					"destination" : [ "obj-40", 10 ],
					"hidden" : 0,
					"midpoints" : [  ]
				}

			}
, 			{
				"patchline" : 				{
					"source" : [ "obj-12", 9 ],
					"destination" : [ "obj-40", 9 ],
					"hidden" : 0,
					"midpoints" : [  ]
				}

			}
, 			{
				"patchline" : 				{
					"source" : [ "obj-12", 8 ],
					"destination" : [ "obj-40", 8 ],
					"hidden" : 0,
					"midpoints" : [  ]
				}

			}
, 			{
				"patchline" : 				{
					"source" : [ "obj-12", 7 ],
					"destination" : [ "obj-40", 7 ],
					"hidden" : 0,
					"midpoints" : [  ]
				}

			}
, 			{
				"patchline" : 				{
					"source" : [ "obj-12", 6 ],
					"destination" : [ "obj-40", 6 ],
					"hidden" : 0,
					"midpoints" : [  ]
				}

			}
, 			{
				"patchline" : 				{
					"source" : [ "obj-12", 5 ],
					"destination" : [ "obj-40", 5 ],
					"hidden" : 0,
					"midpoints" : [  ]
				}

			}
, 			{
				"patchline" : 				{
					"source" : [ "obj-12", 4 ],
					"destination" : [ "obj-40", 4 ],
					"hidden" : 0,
					"midpoints" : [  ]
				}

			}
, 			{
				"patchline" : 				{
					"source" : [ "obj-12", 3 ],
					"destination" : [ "obj-40", 3 ],
					"hidden" : 0,
					"midpoints" : [  ]
				}

			}
, 			{
				"patchline" : 				{
					"source" : [ "obj-12", 2 ],
					"destination" : [ "obj-40", 2 ],
					"hidden" : 0,
					"midpoints" : [  ]
				}

			}
, 			{
				"patchline" : 				{
					"source" : [ "obj-12", 1 ],
					"destination" : [ "obj-40", 1 ],
					"hidden" : 0,
					"midpoints" : [  ]
				}

			}
, 			{
				"patchline" : 				{
					"source" : [ "obj-12", 0 ],
					"destination" : [ "obj-40", 0 ],
					"hidden" : 0,
					"midpoints" : [  ]
				}

			}
, 			{
				"patchline" : 				{
					"source" : [ "obj-13", 0 ],
					"destination" : [ "obj-40", 15 ],
					"hidden" : 0,
					"midpoints" : [ 376.25, 595.0, 250.0, 595.0 ]
				}

			}
, 			{
				"patchline" : 				{
					"source" : [ "obj-14", 0 ],
					"destination" : [ "obj-34", 1 ],
					"hidden" : 0,
					"midpoints" : [ 280.0, 272.0, 250.449997, 272.0 ]
				}

			}
, 			{
				"patchline" : 				{
					"source" : [ "obj-15", 0 ],
					"destination" : [ "obj-14", 0 ],
					"hidden" : 0,
					"midpoints" : [  ]
				}

			}
, 			{
				"patchline" : 				{
					"source" : [ "obj-17", 0 ],
					"destination" : [ "obj-14", 1 ],
					"hidden" : 0,
					"midpoints" : [  ]
				}

			}
, 			{
				"patchline" : 				{
					"source" : [ "obj-19", 0 ],
					"destination" : [ "obj-27", 0 ],
					"hidden" : 0,
					"midpoints" : [ 335.0, 174.0, 335.0, 174.0 ]
				}

			}
, 			{
				"patchline" : 				{
					"source" : [ "obj-27", 0 ],
					"destination" : [ "obj-17", 0 ],
					"hidden" : 0,
					"midpoints" : [  ]
				}

			}
, 			{
				"patchline" : 				{
					"source" : [ "obj-3", 14 ],
					"destination" : [ "obj-20", 14 ],
					"hidden" : 1,
					"color" : [ 0.0, 0.0, 1.0, 1.0 ],
					"midpoints" : [  ]
				}

			}
, 			{
				"patchline" : 				{
					"source" : [ "obj-3", 13 ],
					"destination" : [ "obj-20", 13 ],
					"hidden" : 1,
					"color" : [ 1.0, 0.0, 0.0, 1.0 ],
					"midpoints" : [  ]
				}

			}
, 			{
				"patchline" : 				{
					"source" : [ "obj-3", 12 ],
					"destination" : [ "obj-20", 12 ],
					"hidden" : 1,
					"color" : [ 0.0, 0.0, 1.0, 1.0 ],
					"midpoints" : [  ]
				}

			}
, 			{
				"patchline" : 				{
					"source" : [ "obj-3", 11 ],
					"destination" : [ "obj-20", 11 ],
					"hidden" : 1,
					"color" : [ 1.0, 0.0, 0.0, 1.0 ],
					"midpoints" : [  ]
				}

			}
, 			{
				"patchline" : 				{
					"source" : [ "obj-3", 10 ],
					"destination" : [ "obj-20", 10 ],
					"hidden" : 1,
					"color" : [ 0.0, 0.0, 1.0, 1.0 ],
					"midpoints" : [  ]
				}

			}
, 			{
				"patchline" : 				{
					"source" : [ "obj-3", 9 ],
					"destination" : [ "obj-20", 9 ],
					"hidden" : 1,
					"color" : [ 1.0, 0.0, 0.0, 1.0 ],
					"midpoints" : [  ]
				}

			}
, 			{
				"patchline" : 				{
					"source" : [ "obj-3", 8 ],
					"destination" : [ "obj-20", 8 ],
					"hidden" : 1,
					"color" : [ 0.0, 0.0, 1.0, 1.0 ],
					"midpoints" : [  ]
				}

			}
, 			{
				"patchline" : 				{
					"source" : [ "obj-3", 7 ],
					"destination" : [ "obj-20", 7 ],
					"hidden" : 1,
					"color" : [ 1.0, 0.0, 0.0, 1.0 ],
					"midpoints" : [  ]
				}

			}
, 			{
				"patchline" : 				{
					"source" : [ "obj-3", 6 ],
					"destination" : [ "obj-20", 6 ],
					"hidden" : 1,
					"color" : [ 0.0, 0.0, 1.0, 1.0 ],
					"midpoints" : [  ]
				}

			}
, 			{
				"patchline" : 				{
					"source" : [ "obj-3", 5 ],
					"destination" : [ "obj-20", 5 ],
					"hidden" : 1,
					"color" : [ 1.0, 0.0, 0.0, 1.0 ],
					"midpoints" : [  ]
				}

			}
, 			{
				"patchline" : 				{
					"source" : [ "obj-3", 4 ],
					"destination" : [ "obj-20", 4 ],
					"hidden" : 1,
					"color" : [ 0.0, 0.0, 1.0, 1.0 ],
					"midpoints" : [  ]
				}

			}
, 			{
				"patchline" : 				{
					"source" : [ "obj-3", 3 ],
					"destination" : [ "obj-20", 3 ],
					"hidden" : 1,
					"color" : [ 1.0, 0.0, 0.0, 1.0 ],
					"midpoints" : [  ]
				}

			}
, 			{
				"patchline" : 				{
					"source" : [ "obj-3", 2 ],
					"destination" : [ "obj-20", 2 ],
					"hidden" : 1,
					"color" : [ 0.0, 0.0, 1.0, 1.0 ],
					"midpoints" : [  ]
				}

			}
, 			{
				"patchline" : 				{
					"source" : [ "obj-3", 1 ],
					"destination" : [ "obj-20", 1 ],
					"hidden" : 1,
					"color" : [ 1.0, 0.0, 0.0, 1.0 ],
					"midpoints" : [  ]
				}

			}
, 			{
				"patchline" : 				{
					"source" : [ "obj-3", 0 ],
					"destination" : [ "obj-20", 0 ],
					"hidden" : 1,
					"color" : [ 0.0, 0.0, 1.0, 1.0 ],
					"midpoints" : [  ]
				}

			}
, 			{
				"patchline" : 				{
					"source" : [ "obj-34", 14 ],
					"destination" : [ "obj-12", 14 ],
					"hidden" : 0,
					"color" : [ 0.0, 0.0, 1.0, 1.0 ],
					"midpoints" : [  ]
				}

			}
, 			{
				"patchline" : 				{
					"source" : [ "obj-34", 13 ],
					"destination" : [ "obj-12", 13 ],
					"hidden" : 0,
					"color" : [ 1.0, 0.0, 0.0, 1.0 ],
					"midpoints" : [  ]
				}

			}
, 			{
				"patchline" : 				{
					"source" : [ "obj-34", 12 ],
					"destination" : [ "obj-12", 12 ],
					"hidden" : 0,
					"color" : [ 0.0, 0.0, 1.0, 1.0 ],
					"midpoints" : [  ]
				}

			}
, 			{
				"patchline" : 				{
					"source" : [ "obj-34", 11 ],
					"destination" : [ "obj-12", 11 ],
					"hidden" : 0,
					"color" : [ 1.0, 0.0, 0.0, 1.0 ],
					"midpoints" : [  ]
				}

			}
, 			{
				"patchline" : 				{
					"source" : [ "obj-34", 10 ],
					"destination" : [ "obj-12", 10 ],
					"hidden" : 0,
					"color" : [ 0.0, 0.0, 1.0, 1.0 ],
					"midpoints" : [  ]
				}

			}
, 			{
				"patchline" : 				{
					"source" : [ "obj-34", 9 ],
					"destination" : [ "obj-12", 9 ],
					"hidden" : 0,
					"color" : [ 1.0, 0.0, 0.0, 1.0 ],
					"midpoints" : [  ]
				}

			}
, 			{
				"patchline" : 				{
					"source" : [ "obj-34", 8 ],
					"destination" : [ "obj-12", 8 ],
					"hidden" : 0,
					"color" : [ 0.0, 0.0, 1.0, 1.0 ],
					"midpoints" : [  ]
				}

			}
, 			{
				"patchline" : 				{
					"source" : [ "obj-34", 7 ],
					"destination" : [ "obj-12", 7 ],
					"hidden" : 0,
					"color" : [ 1.0, 0.0, 0.0, 1.0 ],
					"midpoints" : [  ]
				}

			}
, 			{
				"patchline" : 				{
					"source" : [ "obj-34", 6 ],
					"destination" : [ "obj-12", 6 ],
					"hidden" : 0,
					"color" : [ 0.0, 0.0, 1.0, 1.0 ],
					"midpoints" : [  ]
				}

			}
, 			{
				"patchline" : 				{
					"source" : [ "obj-34", 5 ],
					"destination" : [ "obj-12", 5 ],
					"hidden" : 0,
					"color" : [ 1.0, 0.0, 0.0, 1.0 ],
					"midpoints" : [  ]
				}

			}
, 			{
				"patchline" : 				{
					"source" : [ "obj-34", 4 ],
					"destination" : [ "obj-12", 4 ],
					"hidden" : 0,
					"color" : [ 0.0, 0.0, 1.0, 1.0 ],
					"midpoints" : [  ]
				}

			}
, 			{
				"patchline" : 				{
					"source" : [ "obj-34", 3 ],
					"destination" : [ "obj-12", 3 ],
					"hidden" : 0,
					"color" : [ 1.0, 0.0, 0.0, 1.0 ],
					"midpoints" : [  ]
				}

			}
, 			{
				"patchline" : 				{
					"source" : [ "obj-34", 2 ],
					"destination" : [ "obj-12", 2 ],
					"hidden" : 0,
					"color" : [ 0.0, 0.0, 1.0, 1.0 ],
					"midpoints" : [  ]
				}

			}
, 			{
				"patchline" : 				{
					"source" : [ "obj-34", 1 ],
					"destination" : [ "obj-12", 1 ],
					"hidden" : 0,
					"color" : [ 1.0, 0.0, 0.0, 1.0 ],
					"midpoints" : [  ]
				}

			}
, 			{
				"patchline" : 				{
					"source" : [ "obj-34", 0 ],
					"destination" : [ "obj-12", 0 ],
					"hidden" : 0,
					"color" : [ 0.0, 0.0, 1.0, 1.0 ],
					"midpoints" : [  ]
				}

			}
, 			{
				"patchline" : 				{
					"source" : [ "obj-34", 14 ],
					"destination" : [ "obj-3", 14 ],
					"hidden" : 1,
					"color" : [ 0.0, 0.0, 1.0, 1.0 ],
					"midpoints" : [ 250.449997, 314.5, 487.5, 314.5 ]
				}

			}
, 			{
				"patchline" : 				{
					"source" : [ "obj-34", 13 ],
					"destination" : [ "obj-3", 13 ],
					"hidden" : 1,
					"color" : [ 1.0, 0.0, 0.0, 1.0 ],
					"midpoints" : [ 235.935715, 314.5, 474.0, 314.5 ]
				}

			}
, 			{
				"patchline" : 				{
					"source" : [ "obj-34", 12 ],
					"destination" : [ "obj-3", 12 ],
					"hidden" : 1,
					"color" : [ 0.0, 0.0, 1.0, 1.0 ],
					"midpoints" : [ 221.421432, 314.5, 460.5, 314.5 ]
				}

			}
, 			{
				"patchline" : 				{
					"source" : [ "obj-34", 11 ],
					"destination" : [ "obj-3", 11 ],
					"hidden" : 1,
					"color" : [ 1.0, 0.0, 0.0, 1.0 ],
					"midpoints" : [ 206.907135, 314.5, 447.0, 314.5 ]
				}

			}
, 			{
				"patchline" : 				{
					"source" : [ "obj-34", 10 ],
					"destination" : [ "obj-3", 10 ],
					"hidden" : 1,
					"color" : [ 0.0, 0.0, 1.0, 1.0 ],
					"midpoints" : [ 192.392853, 314.5, 433.5, 314.5 ]
				}

			}
, 			{
				"patchline" : 				{
					"source" : [ "obj-34", 9 ],
					"destination" : [ "obj-3", 9 ],
					"hidden" : 1,
					"color" : [ 1.0, 0.0, 0.0, 1.0 ],
					"midpoints" : [ 177.878571, 314.5, 420.0, 314.5 ]
				}

			}
, 			{
				"patchline" : 				{
					"source" : [ "obj-34", 8 ],
					"destination" : [ "obj-3", 8 ],
					"hidden" : 1,
					"color" : [ 0.0, 0.0, 1.0, 1.0 ],
					"midpoints" : [ 163.364288, 314.5, 406.5, 314.5 ]
				}

			}
, 			{
				"patchline" : 				{
					"source" : [ "obj-34", 7 ],
					"destination" : [ "obj-3", 7 ],
					"hidden" : 1,
					"color" : [ 1.0, 0.0, 0.0, 1.0 ],
					"midpoints" : [ 148.850006, 314.5, 393.0, 314.5 ]
				}

			}
, 			{
				"patchline" : 				{
					"source" : [ "obj-34", 6 ],
					"destination" : [ "obj-3", 6 ],
					"hidden" : 1,
					"color" : [ 0.0, 0.0, 1.0, 1.0 ],
					"midpoints" : [ 134.335709, 314.5, 379.5, 314.5 ]
				}

			}
, 			{
				"patchline" : 				{
					"source" : [ "obj-34", 5 ],
					"destination" : [ "obj-3", 5 ],
					"hidden" : 1,
					"color" : [ 1.0, 0.0, 0.0, 1.0 ],
					"midpoints" : [ 119.821426, 314.5, 366.0, 314.5 ]
				}

			}
, 			{
				"patchline" : 				{
					"source" : [ "obj-34", 4 ],
					"destination" : [ "obj-3", 4 ],
					"hidden" : 1,
					"color" : [ 0.0, 0.0, 1.0, 1.0 ],
					"midpoints" : [ 105.307144, 314.5, 352.5, 314.5 ]
				}

			}
, 			{
				"patchline" : 				{
					"source" : [ "obj-34", 3 ],
					"destination" : [ "obj-3", 3 ],
					"hidden" : 1,
					"color" : [ 1.0, 0.0, 0.0, 1.0 ],
					"midpoints" : [ 90.792854, 314.5, 339.0, 314.5 ]
				}

			}
, 			{
				"patchline" : 				{
					"source" : [ "obj-34", 2 ],
					"destination" : [ "obj-3", 2 ],
					"hidden" : 1,
					"color" : [ 0.0, 0.0, 1.0, 1.0 ],
					"midpoints" : [ 76.278572, 314.5, 325.5, 314.5 ]
				}

			}
, 			{
				"patchline" : 				{
					"source" : [ "obj-34", 1 ],
					"destination" : [ "obj-3", 1 ],
					"hidden" : 1,
					"color" : [ 1.0, 0.0, 0.0, 1.0 ],
					"midpoints" : [ 61.764286, 314.5, 312.0, 314.5 ]
				}

			}
, 			{
				"patchline" : 				{
					"source" : [ "obj-34", 0 ],
					"destination" : [ "obj-3", 0 ],
					"hidden" : 1,
					"color" : [ 0.0, 0.0, 1.0, 1.0 ],
					"midpoints" : [ 47.25, 314.5, 298.5, 314.5 ]
				}

			}
, 			{
				"patchline" : 				{
					"source" : [ "obj-4", 0 ],
					"destination" : [ "obj-10", 0 ],
					"hidden" : 1,
					"midpoints" : [  ]
				}

			}
, 			{
				"patchline" : 				{
					"source" : [ "obj-46", 0 ],
					"destination" : [ "obj-39", 0 ],
					"hidden" : 1,
					"midpoints" : [ 426.5, 144.0, 426.5, 144.0 ]
				}

			}
, 			{
				"patchline" : 				{
					"source" : [ "obj-55", 0 ],
					"destination" : [ "obj-34", 0 ],
					"hidden" : 0,
					"midpoints" : [  ]
				}

			}
, 			{
				"patchline" : 				{
					"source" : [ "obj-7", 0 ],
					"destination" : [ "obj-40", 15 ],
					"hidden" : 0,
					"midpoints" : [ 298.5, 595.0, 250.0, 595.0 ]
				}

			}
, 			{
				"patchline" : 				{
					"source" : [ "obj-8", 0 ],
					"destination" : [ "obj-19", 0 ],
					"hidden" : 1,
					"midpoints" : [  ]
				}

			}
 ]
	}

}
