#N canvas 294 367 621 573 10;
#X obj 100 151 hoa.scope~ @patching_rect [ 100 151 300 300 ] @size
[ 300 300 ] @fontname [ helvetica ] @fontweight [ normal ] @fontslant
[ regular ] @fontsize [ 11 ] @order [ 7 ] @gain [ 1 ] @interval [ 100
] @drawcircle [ 1 ] @drawangles [ 1 ] @drawcontrib [ 1 ] @bgcolor [
0.76 0.76 0.76 1 ] @bdcolor [ 0.7 0.7 0.7 1 ] @txcolor [ 0 0 0 7 ]
@phcolor [ 1 0 0 1 ] @nhcolor [ 0 0 1 1 ];
#X obj 100 30 sig~ 1;
#X msg 22 252 \; pd dsp 1;
#X msg 22 286 \; pd dsp 0;
#X obj 100 105 matrix~ 15 15 0 *************************************
;
#X obj 100 69 hoa.encoder~ 7 **************************************
;
#X obj 35 54 nbx 5 14 0 7 0 0 empty empty empty 0 -8 0 10 -262144 -1
-1 7 256;
#N canvas 731 226 450 300 (subpatch) 0;
#X obj 215 -46 keyname;
#X obj 301 39 route Up Down;
#X msg 328 -15 set \$1;
#X msg 301 11 BackSpace;
#X obj 301 -38 t b s;
#X obj 181 86 nbx 5 14 0 7 0 0 empty empty empty 0 -8 0 10 -262144
-1 -1 7 256;
#X msg 251 111 set \$1;
#X obj 100 101 bng 15 250 50 0 empty empty empty 17 7 0 10 -262144
-1 -1;
#X obj 291 135 nbx 5 14 0 7 0 0 empty empty empty 0 -8 0 10 -262144
-1 -1 7 256;
#X obj 100 117 bng 15 250 50 0 empty empty empty 17 7 0 10 -262144
-1 -1;
#X obj 298 161 expr $f1 + 1;
#X obj 322 188 nbx 5 14 0 7 0 0 empty empty empty 0 -8 0 10 -262144
-1 -1 7 256;
#X obj 322 215 expr $f1 - 1;
#X obj 237 -4 gate;
#X obj 167 39 inlet;
#X obj 110 162 outlet;
#X obj 110 6 loadbang;
#X msg 108 36 7;
#X connect 0 0 13 0;
#X connect 0 1 13 1;
#X connect 2 0 3 0;
#X connect 3 0 1 0;
#X connect 4 0 3 0;
#X connect 4 1 2 0;
#X connect 5 0 6 0;
#X connect 5 0 15 0;
#X connect 6 0 8 0;
#X connect 6 0 11 0;
#X connect 7 0 8 0;
#X connect 8 0 10 0;
#X connect 9 0 11 0;
#X connect 10 0 5 0;
#X connect 11 0 12 0;
#X connect 12 0 5 0;
#X connect 13 0 4 0;
#X connect 14 0 6 0;
#X connect 16 0 17 0;
#X connect 17 0 5 0;
#X coords 0 -1 1 1 16 32 2 100 100;
#X restore 13 45 pd;
#N canvas 618 315 450 300 cal 0;
#X obj 59 64 * 2;
#X msg 79 162 clear;
#X obj 40 39 t b i b;
#X obj 40 113 uzi;
#X obj 40 192 pack i i 1;
#X obj 40 155 t i i;
#X obj 59 85 nbx 5 14 1 1e+37 0 0 empty empty empty 0 -8 0 10 -262144
-1 -1 16 256;
#X obj 40 12 inlet;
#X obj 74 244 outlet;
#X obj 41 133 - 1;
#X obj 151 66 + 1;
#X connect 0 0 6 0;
#X connect 1 0 8 0;
#X connect 2 0 3 0;
#X connect 2 1 0 0;
#X connect 2 2 1 0;
#X connect 3 2 9 0;
#X connect 4 0 8 0;
#X connect 5 0 4 0;
#X connect 5 1 4 1;
#X connect 6 0 3 1;
#X connect 7 0 10 0;
#X connect 9 0 5 0;
#X connect 10 0 2 0;
#X restore 35 74 pd cal;
#X text 3 44 +;
#X text 3 61 -;
#X text 3 43 +;
#X text 3 62 -;
#X text 36 16 Ambisonic;
#X text 35 32 Order :;
#X connect 1 0 5 0;
#X connect 4 0 0 0;
#X connect 4 1 0 1;
#X connect 4 2 0 2;
#X connect 4 3 0 3;
#X connect 4 4 0 4;
#X connect 4 5 0 5;
#X connect 4 6 0 6;
#X connect 4 7 0 7;
#X connect 4 8 0 8;
#X connect 4 9 0 9;
#X connect 4 10 0 10;
#X connect 4 11 0 11;
#X connect 4 12 0 12;
#X connect 4 13 0 13;
#X connect 4 14 0 14;
#X connect 5 0 4 0;
#X connect 5 1 4 1;
#X connect 5 2 4 2;
#X connect 5 3 4 3;
#X connect 5 4 4 4;
#X connect 5 5 4 5;
#X connect 5 6 4 6;
#X connect 5 7 4 7;
#X connect 5 8 4 8;
#X connect 5 9 4 9;
#X connect 5 10 4 10;
#X connect 5 11 4 11;
#X connect 5 12 4 12;
#X connect 5 13 4 13;
#X connect 5 14 4 14;
#X connect 6 0 7 0;
#X connect 6 0 8 0;
#X connect 7 0 6 0;
#X connect 8 0 4 0;
