#N canvas 225 138 886 341 10;
#X obj -245 -424 cnv 15 552 40 empty \$0-pddp.cnv.header HoaTutorial-1
3 12 0 18 -204280 -1 0;
#X text 311 -407 Eliott Paris © 2012-2013 CICM / Universite Paris
8;
#X text 311 -423 hoalibrary | Julien Colafrancesco \, Pierre Guillot
;
#X text -242 -402 Basics;
#N canvas 429 76 914 750 Introduction 1;
#X obj -235 -414 cnv 15 552 40 empty \$0-pddp.cnv.header HoaTutorial-1
3 12 0 18 -204280 -1 0;
#X text 321 -397 Eliott Paris © 2012-2013 CICM / Universite Paris
8;
#X text 321 -413 hoalibrary | Julien Colafrancesco \, Pierre Guillot
;
#X text -232 -392 Introduction;
#X text -231 -367 Ambisonics is a set of techniques for recording \,
synthesis \, transformation and restitution of sound field based on
a physical representation of the sound field in the spherical or circular
harmonics field. This representation is based on a decomposition of
the sound field in a weighted sum of spatial functions that allows
a wide range of sound and space processing., f 91;
#X text -230 -254 In this example \, a sound source is encoded in a
two-dimensional space at an incident angle. The synthesized sound field
comprises the sound source and its spatial information as signals dependent
circular harmonics. Thereafter \, the sound field is decoded to a set
of loudspeakers.;
#X obj 263 -140 hoa.encoder~ 7 ---------------;
#X obj 263 -109 hoa.scope~ @size [ 183 183 ] @fontname [ helvetica
] @fontweight [ normal ] @fontslant [ regular ] @fontsize [ 11 ] @order
[ 7 ] @gain [ 1 ] @interval [ 100 ] @bgcolor [ 0.7 0.7 0.7 1 ] @bdcolor
[ 0.5 0.5 0.5 1 ] @phcolor [ 1 0 0 1 ] @nhcolor [ 0 0 1 1 ];
#X obj 455 -182 hoa.pi 2;
#X obj 440 -162 *~;
#X obj 440 -223 phasor~ 0.1;
#X obj 263 -206 sig~ 1;
#X msg -222 -141 \; pd dsp 1;
#X msg -223 -104 \; pd dsp 0;
#X obj 455 -203 loadbang;
#X obj 264 145 hoa.meter~ @size [ 183 183 ] @fontname [ helvetica ]
@fontweight [ normal ] @fontslant [ regular ] @fontsize [ 11 ] @vectors
[ 1 ] @loudspeakers [ 16 ] @angles [ 0 22.5 45 67.5 90 112.5 135 157.5
180 202.5 225 247.5 270 292.5 315 337.5 0 0 0 0 0 0 0 0 0 0 0 0 0 0
0 0 0 0 0 0 0 0 0 0 0 0 0 0 0 0 0 0 0 0 0 0 0 0 0 0 0 0 0 0 0 0 0 0
] @offset [ 0 ] @rotation [ 0 ] @interval [ 50 ] @bgcolor [ 0.7 0.7
0.7 1 ] @bdcolor [ 0.5 0.5 0.5 1 ] @coldcolor [ 0 0.6 0 0.8 ] @tepidcolor
[ 0.6 0.73 0 0.8 ] @warmcolor [ 0.85 0.85 0 0.8 ] @hotcolor [ 1 0.6
0 0.8 ] @overcolor [ 1 0 0 0.8 ] @energycolor [ 0 0 1 0.8 ] @velocitycolor
[ 1 0 0 0.8 ];
#X obj 264 90 hoa.decoder~ 7 0 16 ----------;
#X obj 477 -84 nbx 5 14 -1e+37 1e+37 0 0 empty empty empty 0 -8 0 10
-262144 -1 -1 2.62191 256;
#X obj 477 -138 metro 20;
#X text 234 -222 Source synthesis;
#X obj 477 -111 snapshot~;
#X text 475 -65 Encoding angle in Radian;
#X text -16 -139 1 - Encoding in the circular harmonics domain;
#X text -29 -31 Circular harmonics representation over a plane.;
#X text 25 90 2 - Decoding for a set of loudspeakers;
#X text -65 215 representation of the contribution of 16 loudspeakers
regularly placed over a circle.;
#X connect 6 0 7 0;
#X connect 6 0 16 0;
#X connect 6 1 7 1;
#X connect 6 1 16 1;
#X connect 6 2 7 2;
#X connect 6 2 16 2;
#X connect 6 3 7 3;
#X connect 6 3 16 3;
#X connect 6 4 7 4;
#X connect 6 4 16 4;
#X connect 6 5 7 5;
#X connect 6 5 16 5;
#X connect 6 6 7 6;
#X connect 6 6 16 6;
#X connect 6 7 7 7;
#X connect 6 7 16 7;
#X connect 6 8 7 8;
#X connect 6 8 16 8;
#X connect 6 9 7 9;
#X connect 6 9 16 9;
#X connect 6 10 7 10;
#X connect 6 10 16 10;
#X connect 6 11 7 11;
#X connect 6 11 16 11;
#X connect 6 12 7 12;
#X connect 6 12 16 12;
#X connect 6 13 7 13;
#X connect 6 13 16 13;
#X connect 6 14 7 14;
#X connect 6 14 16 14;
#X connect 8 0 9 1;
#X connect 9 0 6 1;
#X connect 9 0 20 0;
#X connect 10 0 9 0;
#X connect 11 0 6 0;
#X connect 14 0 8 0;
#X connect 14 0 18 0;
#X connect 16 0 15 0;
#X connect 16 1 15 1;
#X connect 16 2 15 2;
#X connect 16 3 15 3;
#X connect 16 4 15 4;
#X connect 16 5 15 5;
#X connect 16 6 15 6;
#X connect 16 7 15 7;
#X connect 16 8 15 8;
#X connect 16 9 15 9;
#X connect 16 10 15 10;
#X connect 16 11 15 11;
#X connect 16 12 15 12;
#X connect 16 13 15 13;
#X connect 16 14 15 14;
#X connect 16 15 15 15;
#X connect 18 0 20 0;
#X connect 20 0 17 0;
#X restore -233 -367 pd Introduction;
