#N canvas 136 124 613 395 10;
#X declare -lib HoaLibrary/hoa.library;
#X declare -lib hoa.library;
#X obj -325 -567 cnv 15 552 40 empty \$0-pddp.cnv.header hoa.dac~ 3
12 0 18 -228856 -1 0;
#X text -244 -212 hoalibrary | Julien Colafrancesco \, Pierre Guillot
& Eliott Paris © 2012-2013 CICM / Universite Paris 8;
#X text -322 -545 A custom dac~ with matlab syntax;
#X text -324 -524 hoa.dac~ facilitates the routing of large array of
loudspeakers.;
#X text -320 -422 Channels 1 to 8 :;
#X text -320 -362 Channels 16 to 1 :;
#X obj -321 -272 hoa.dac~ 9:16 10 22 6:1 ------------------;
#X text -320 -302 Channels 9 to 16 \, 10 \, 22 and 6 to 1 :;
#X text -320 -482 Channels 1 2 :;
#X obj -321 -332 hoa.dac~ 16:1 ----------------------------;
#X obj -321 -392 hoa.dac~ 1:8 -----------------------------;
#X obj -321 -452 hoa.dac~ 1 2 -----------------------------;
#X obj 42 -495 declare -lib HoaLibrary/hoa.library;
#X obj 42 -516 declare -lib hoa.library;
#X coords 0 395 1 394 100 60 0;
