#N canvas 0 22 1348 710 10;
#X obj -584 -328 hoa.2d.map @size 225 225 @fontname Helvetica @fontweight
normal @fontslant roman @fontsize 11 @receive map_slot @send (null)
@bgcolor 0.76 0.76 0.76 1 @bdcolor 0.7 0.7 0.7 1 @outputmode polar
@zoom 0.35 @sources_parameters source 0 1.21482 -0.410584 0 0.2 0.2
0.2 1 (null) source 1 3.98307 2.1799 0 0.2 0.2 0.2 1 (null) source
2 1.3926 2.00212 0 0.2 0.2 0.2 1 (null) @groups_parameters group 0
3 0 1 2 0 0.2 0.2 0.2 1 (null);
#X msg -188 -366 slot store \$1;
#X msg -74 -361 slot storeagain;
#X obj -188 -190 send map_slot;
#X msg -60 -309 slot storenext;
#X msg -48 -271 slot storeend;
#X text -65 -289 Store at new end slot;
#X msg -25 -216 slot storeempty;
#X obj 164 -278 send map_slot;
#X text 150 -430 Copy a slot in another;
#X msg 164 -332 slot copy \$1 \$1;
#X obj 164 -353 pack 0 0;
#X msg 354 -365 slot insert \$1;
#X msg 332 -307 slot renumber;
#X text 270 -235 Remove a slot;
#X msg 173 -174 slot delete \$1;
#X msg 284 -175 slot remove \$1;
#X text 382 -202 Remove all slots;
#X obj 173 -128 send map_slot;
#X obj 173 95 send map_slot;
#X obj 173 20 pack 0 0;
#X msg 173 41 slot storesource \$1 \$1;
#X text 180 -29 Slot;
#X obj 352 20 pack 0 0;
#X text 354 -29 Slot;
#X msg 352 41 slot storesource \$1 \$1;
#X msg -241 -63 slot \$1;
#X text -253 -139 Recall a slot and interpolate;
#X text -253 -124 between two consecutives slots;
#X obj -241 -43 send map_slot;
#X text -61 -124 between two consecutives slots;
#X obj -42 -41 send map_slot;
#X msg -42 -61 slot recall 0 2 \$1;
#X obj -580 85 send map_slot;
#X text -583 -1 Save presets in text file;
#X text -61 -139 Recall a slot and interpolate;
#X obj -206 87 send map_slot;
#X text -209 27 hoa.2d.map needs an absolute path. Here is an example.
;
#X msg 395 -175 slot clear;
#X obj -188 -394 c.number @size 53 17 @fontname Helvetica @fontweight
normal @fontslant roman @fontsize 11 @receive (null) @send (null) @presetname
(null) @min 0 @max (null) @minmax 0 (null) @decimal 0 @bgcolor 0.75
0.75 0.75 1 @bdcolor 0.5 0.5 0.5 1 @textcolor 0 0 0 1;
#X text -52 -249 Store the first empty slot;
#X text -67 -234 (store at new end slot if need);
#X text -92 -398 Store again the last;
#X text -92 -381 slot stored (overwrite);
#X text -71 -327 (overwrite if need);
#X text -71 -341 Store the next slot;
#X obj -241 -97 c.number @size 53 17 @fontname Helvetica @fontweight
normal @fontslant roman @fontsize 11 @receive (null) @send (null) @presetname
(null) @min 0 @max (null) @minmax 0 (null) @decimal 6 @bgcolor 0.75
0.75 0.75 1 @bdcolor 0.5 0.5 0.5 1 @textcolor 0 0 0 1;
#X obj -171 -97 c.number @size 53 17 @fontname Helvetica @fontweight
normal @fontslant roman @fontsize 11 @receive (null) @send (null) @presetname
(null) @min 0 @max (null) @minmax 0 (null) @decimal 0 @bgcolor 0.75
0.75 0.75 1 @bdcolor 0.5 0.5 0.5 1 @textcolor 0 0 0 1;
#X obj -42 -97 c.number @size 53 17 @fontname Helvetica @fontweight
normal @fontslant roman @fontsize 11 @receive (null) @send (null) @presetname
(null) @min 0 @max 1 @minmax 0 1 @decimal 6 @bgcolor 0.75 0.75 0.75
1 @bdcolor 0.5 0.5 0.5 1 @textcolor 0 0 0 1;
#X obj 164 -377 c.number @size 53 17 @fontname Helvetica @fontweight
normal @fontslant roman @fontsize 11 @receive (null) @send (null) @presetname
(null) @min 0 @max (null) @minmax 0 (null) @decimal 0 @bgcolor 0.75
0.75 0.75 1 @bdcolor 0.5 0.5 0.5 1 @textcolor 0 0 0 1;
#X obj 209 -407 c.number @size 53 17 @fontname Helvetica @fontweight
normal @fontslant roman @fontsize 11 @receive (null) @send (null) @presetname
(null) @min 0 @max (null) @minmax 0 (null) @decimal 0 @bgcolor 0.75
0.75 0.75 1 @bdcolor 0.5 0.5 0.5 1 @textcolor 0 0 0 1;
#X obj 354 -392 c.number @size 53 17 @fontname Helvetica @fontweight
normal @fontslant roman @fontsize 11 @receive (null) @send (null) @presetname
(null) @min 0 @max (null) @minmax 0 (null) @decimal 0 @bgcolor 0.75
0.75 0.75 1 @bdcolor 0.5 0.5 0.5 1 @textcolor 0 0 0 1;
#X text 322 -435 Insert a slot at index;
#X text 325 -418 and increase nexts;
#X text -211 -433 Store a preset at;
#X text -205 -416 a defined slot;
#X text 334 -325 0 \, 1 \, 2 \, 3...;
#X text 331 -341 Renumber slots;
#X obj 173 -207 c.number @size 53 17 @fontname Helvetica @fontweight
normal @fontslant roman @fontsize 11 @receive (null) @send (null) @presetname
(null) @min 0 @max (null) @minmax 0 (null) @decimal 0 @bgcolor 0.75
0.75 0.75 1 @bdcolor 0.5 0.5 0.5 1 @textcolor 0 0 0 1;
#X text 149 -247 Remove a slot and;
#X text 157 -230 decrease nexts;
#X obj 284 -207 c.number @size 53 17 @fontname Helvetica @fontweight
normal @fontslant roman @fontsize 11 @receive (null) @send (null) @presetname
(null) @min 0 @max (null) @minmax 0 (null) @decimal 0 @bgcolor 0.75
0.75 0.75 1 @bdcolor 0.5 0.5 0.5 1 @textcolor 0 0 0 1;
#X obj 173 -7 c.number @size 53 17 @fontname Helvetica @fontweight
normal @fontslant roman @fontsize 11 @receive (null) @send (null) @presetname
(null) @min 0 @max 1 @minmax 0 1 @decimal 6 @bgcolor 0.75 0.75 0.75
1 @bdcolor 0.5 0.5 0.5 1 @textcolor 0 0 0 1;
#X obj 216 -37 c.number @size 53 17 @fontname Helvetica @fontweight
normal @fontslant roman @fontsize 11 @receive (null) @send (null) @presetname
(null) @min 0 @max 1 @minmax 0 1 @decimal 6 @bgcolor 0.75 0.75 0.75
1 @bdcolor 0.5 0.5 0.5 1 @textcolor 0 0 0 1;
#X text 164 -94 Store a source at;
#X text 175 -78 a defined slot;
#X text 217 -57 Source;
#X text 324 -94 Store a source at;
#X text 335 -78 a defined slot;
#X obj 352 -7 c.number @size 53 17 @fontname Helvetica @fontweight
normal @fontslant roman @fontsize 11 @receive (null) @send (null) @presetname
(null) @min 0 @max 1 @minmax 0 1 @decimal 6 @bgcolor 0.75 0.75 0.75
1 @bdcolor 0.5 0.5 0.5 1 @textcolor 0 0 0 1;
#X obj 396 -37 c.number @size 53 17 @fontname Helvetica @fontweight
normal @fontslant roman @fontsize 11 @receive (null) @send (null) @presetname
(null) @min 0 @max 1 @minmax 0 1 @decimal 6 @bgcolor 0.75 0.75 0.75
1 @bdcolor 0.5 0.5 0.5 1 @textcolor 0 0 0 1;
#X text 400 -58 Group;
#X text -209 11 Read presets from a text file;
#X msg -206 58 slot read /Users/Pierre/Desktop/2001_A_Space_Odyssey.pd
;
#X msg -580 55 slot write /Users/Pierre/Desktop/2001_A_Space_Odyssey.pd
;
#X text -583 14 hoa.2d.map needs an absolute path. Here is an example
but this is my name therefore it won't work...;
#X text -600 -412 Important \, Pure Data can't manage very large data
while copying \, cutting and saving of object. Therefore \, the presets
are no more saved with the patcher to avoid crashes.;
#X obj -610 -490 cnv 15 552 40 empty \$0-pddp.cnv.header hoa.2d.map
3 12 0 18 -204280 -1 0;
#X text -605 -469 A GUI to spatialize sources on a map.;
#X text -32 -470 Eliott Paris © 2012-2013 CICM / Universite Paris
8;
#X text -32 -486 hoalibrary | Julien Colafrancesco \, Pierre Guillot
;
#X text -608 -447 Record and manage presets with the slot message.
;
#X msg -324 -310 slot read;
#X msg -323 -242 slot write;
#X msg -324 -280 slot write test1.pd;
#X msg -324 -350 slot read test1.pd;
#X connect 1 0 3 0;
#X connect 2 0 3 0;
#X connect 4 0 3 0;
#X connect 5 0 3 0;
#X connect 7 0 3 0;
#X connect 10 0 8 0;
#X connect 11 0 10 0;
#X connect 12 0 8 0;
#X connect 13 0 8 0;
#X connect 15 0 18 0;
#X connect 16 0 18 0;
#X connect 20 0 21 0;
#X connect 21 0 19 0;
#X connect 23 0 25 0;
#X connect 25 0 19 0;
#X connect 26 0 29 0;
#X connect 32 0 31 0;
#X connect 38 0 18 0;
#X connect 39 0 1 0;
#X connect 46 0 26 0;
#X connect 47 0 26 0;
#X connect 48 0 32 0;
#X connect 49 0 11 0;
#X connect 50 0 11 1;
#X connect 51 0 12 0;
#X connect 58 0 15 0;
#X connect 61 0 16 0;
#X connect 62 0 20 0;
#X connect 63 0 20 1;
#X connect 69 0 23 0;
#X connect 70 0 23 1;
#X connect 73 0 36 0;
#X connect 74 0 33 0;
#X connect 82 0 0 0;
#X connect 83 0 0 0;
#X connect 84 0 0 0;
#X connect 85 0 0 0;
