#N canvas 347 41 585 251 10;
#X declare -lib HoaLibrary/hoa.library;
#X declare -lib hoa.library;
#X obj 1 -1 cnv 15 552 40 empty \$0-pddp.cnv.header hoa.pi~  3 12
0 18 -228856 -1 0;
#X text 19 200 hoalibrary | Julien Colafrancesco \, Pierre Guillot
& Eliott Paris © 2012-2013 CICM / Universite Paris 8;
#X obj 145 105 c.number @size 53 17 @fontname Helvetica @fontweight
normal @fontslant roman @fontsize 11 @receive (null) @send (null) @presetname
(null) @min (null) @max (null) @minmax (null) (null) @decimal 6 @bgcolor
0.75 0.75 0.75 1 @bdcolor 0.5 0.5 0.5 1 @textcolor 0 0 0 1;
#X obj 360 66 declare -lib HoaLibrary/hoa.library;
#X obj 360 45 declare -lib hoa.library;
#X obj 41 135 hoa.pi~ 0.25;
#X obj 41 173 c.number~ @size 53 17 @fontname Helvetica @fontweight
normal @fontslant roman @fontsize 11 @receive (null) @send (null) @interval
50 @decimal 6 @bgcolor 0.75 0.75 0.75 1 @bdcolor 0.5 0.5 0.5 1 @textcolor
0 0 0 1;
#X msg 456 126 \; pd dsp 1;
#X msg 456 161 \; pd dsp 0;
#X obj 145 134 hoa.pi~ 0.5;
#X obj 145 173 c.number~ @size 53 17 @fontname Helvetica @fontweight
normal @fontslant roman @fontsize 11 @receive (null) @send (null) @interval
50 @decimal 6 @bgcolor 0.75 0.75 0.75 1 @bdcolor 0.5 0.5 0.5 1 @textcolor
0 0 0 1;
#X obj 231 173 c.number~ @size 53 17 @fontname Helvetica @fontweight
normal @fontslant roman @fontsize 11 @receive (null) @send (null) @interval
50 @decimal 6 @bgcolor 0.75 0.75 0.75 1 @bdcolor 0.5 0.5 0.5 1 @textcolor
0 0 0 1;
#X obj 231 135 hoa.pi~ 2;
#X obj 282 103 phasor~ 0.1;
#X text 4 21 A good pi number for signal;
#X text 1 44 hoa.pi~ is for people that never remember more than 4
decimals or want to initialize a good Pi number.;
#X text 367 103 Right inlet;
#X text 367 113 control the;
#X text 367 123 phase.;
#X connect 2 0 9 0;
#X connect 5 0 6 0;
#X connect 9 0 10 0;
#X connect 12 0 11 0;
#X connect 13 0 12 1;
#X coords 0 251 1 250 100 60 0;
