max v2;#N vpatcher 621 44 1274 686;#N vpreset 5;#X append 1 1 58 79 433 multiSlider list 6.2831 0. 0. 0. 0. 0. 0. 0. 0. 0. 0. 0. 0. 0. 0. 0. \;;#X append 2 1 58 79 433 multiSlider list 6.2831 0. 0. 4.025111 0. 0. 0. 0. 0. 1.865295 0. 0. 0. 0. 0. 0.589041 \;;#X append 3 1 58 79 433 multiSlider list 2.061642 0.589041 1.963469 0.687214 1.865295 0.883561 1.865295 1.472602 1.276255 1.963469 0.981734 2.356163 1.079908 2.650683 0.687214 2.552509 \;;#X append 4 1 58 79 433 multiSlider list 2.650683 0.490867 0.490867 2.84703 0.392694 0.490867 2.945203 0.589041 0.589041 3.14155 0.785388 0.589041 3.337897 0.490867 0.490867 2.748856 \;;#P preset 433 56 45 17;#P window setfont "Sans Serif" 9.;#P newex 433 148 75 196617 prepend gain 0;#P user multiSlider 433 79 170 66 0. 6.2831 16 2937 47 0 0 2 0 0 0;#M frgb 71 7 125;#M brgb 255 255 255;#M rgb2 127 127 127;#M rgb3 0 0 0;#M rgb4 37 52 91;#M rgb5 74 105 182;#M rgb6 112 158 18;#M rgb7 149 211 110;#M rgb8 187 9 201;#M rgb9 224 62 37;#M rgb10 7 114 128;#P newex 433 171 50 196617 send fffb;#P newex 233 157 64 196617 receive fffb;#P hidden newex 249 271 48 196617 loadbang;#P toggle 230 272 15 0;#P number 284 342 35 9 0 0 0 3 0 0 0 221 221 221 222 222 222 0 0 0;#P newex 230 294 52 196617 metro 25;#N counter 1 360;#X flags 0 0;#P newobj 230 319 74 196617 counter 1 360;#P message 230 342 53 196617 rotate \$1;#P toggle 196 575 15 0;#P user meter~ 149 519 162 592 50 0 168 0 103 103 103 255 153 0 255 0 0 217 217 0 153 186 0 12 3 3 3 3;#P user meter~ 131 519 144 592 50 0 168 0 103 103 103 255 153 0 255 0 0 217 217 0 153 186 0 12 3 3 3 3;#P user meter~ 113 519 126 592 50 0 168 0 103 103 103 255 153 0 255 0 0 217 217 0 153 186 0 12 3 3 3 3;#P user meter~ 95 519 108 592 50 0 168 0 103 103 103 255 153 0 255 0 0 217 217 0 153 186 0 12 3 3 3 3;#P user meter~ 78 519 91 592 50 0 168 0 103 103 103 255 153 0 255 0 0 217 217 0 153 186 0 12 3 3 3 3;#P user meter~ 60 519 73 592 50 0 168 0 103 103 103 255 153 0 255 0 0 217 217 0 153 186 0 12 3 3 3 3;#P user meter~ 42 519 55 592 50 0 168 0 103 103 103 255 153 0 255 0 0 217 217 0 153 186 0 12 3 3 3 3;#P user meter~ 24 519 37 592 50 0 168 0 103 103 103 255 153 0 255 0 0 217 217 0 153 186 0 12 3 3 3 3;#P newex 15 599 140 196617 dac~ 1 2 3 4 5 6 7 8;#P newex 15 489 138 196617 ambi.decode~ 2d 3rd 8;#P comment 215 575 100 196617 DSP on/off;#P window setfont "Sans Serif" 12.;#P comment 16 95 320 196620 An example of 3rd order encoding and in 2-D;#P window setfont "Sans Serif" 9.;#P comment 16 62 300 196617 www.grahamwakefield.net;#P comment 16 50 300 196617 Graham Wakefield \, 2006;#P window setfont "Sans Serif" 20.;#P comment 16 21 301 196628 Ambisonics at 3rd order;#P window setfont "Sans Serif" 9.;#P hidden newex 499 357 75 196617 loadmess 0.75;#P hidden newex 434 357 60 196617 loadmess 1;#P flonum 485 381 35 9 0. 1. 3 3 0 0 0 221 221 221 222 222 222 0 0 0;#P flonum 434 381 35 9 0. 0 1 3 0 0 0 221 221 221 222 222 222 0 0 0;#P message 485 403 50 196617 width \$1;#P message 434 404 43 196617 gain \$1;#N vpreset 5;#X append 1 1 24 224 434 multiSlider list 0. 0. 0. 0. 0. 0. 0. 0. 0. 0. 0. 0. 0. 0. 0. 0. \;;#X append 2 1 24 224 434 multiSlider list 0. 0. 0. 0. 1.472602 1.472602 1.472602 1.472602 3.043377 3.043377 3.043377 3.043377 5.105019 5.105019 5.105019 5.105019 \;;#X append 3 1 24 224 434 multiSlider list 0.29452 0.883561 1.276255 1.963469 2.552509 2.84703 3.239723 3.534244 3.730591 4.025111 4.221458 4.515978 4.908672 5.4 5.792233 6.086753 \;;#X append 4 1 24 224 434 multiSlider list 2.84703 0.687214 3.632417 1.079908 4.417805 0.981734 4.810499 1.374428 4.810499 1.767122 4.221458 2.552509 3.632417 5.006845 2.945203 6.086753 \;;#X append 5 2 24 224 434 multiSlider list 6.2831 6.2831 5.890407 5.497713 3.632417 2.454336 1.668948 1.276255 0.981734 0.883561 0.589041 0.490867 0.29452 0.196347 0.098173 0.196347 \;;#P preset 434 201 45 17;#P newex 233 187 82 196617 receive encoder;#P newex 434 293 88 196617 prepend azimuths;#P user multiSlider 434 224 170 66 0. 6.2831 16 2937 47 0 0 2 0 0 0;#M frgb 219 133 13;#M brgb 255 255 255;#M rgb2 127 127 127;#M rgb3 0 0 0;#M rgb4 37 52 91;#M rgb5 74 105 182;#M rgb6 112 158 18;#M rgb7 149 211 110;#M rgb8 187 9 201;#M rgb9 224 62 37;#M rgb10 7 114 128;#P newex 434 316 68 196617 send encoder;#P newex 15 136 39 196617 noise~;#P newex 15 187 137 196617 fffb~ 16 400 1.25 450;#P newex 434 437 68 196617 send decoder;#P newex 232 460 82 196617 receive decoder;#P user meter~ 149 240 162 313 50 0 168 0 103 103 103 255 153 0 255 0 0 217 217 0 153 186 0 12 3 3 3 3;#P user meter~ 129 240 142 313 50 0 168 0 103 103 103 255 153 0 255 0 0 217 217 0 153 186 0 12 3 3 3 3;#P user meter~ 108 240 121 313 50 0 168 0 103 103 103 255 153 0 255 0 0 217 217 0 153 186 0 12 3 3 3 3;#P user meter~ 87 240 100 313 50 0 168 0 103 103 103 255 153 0 255 0 0 217 217 0 153 186 0 12 3 3 3 3;#P user meter~ 67 240 80 313 50 0 168 0 103 103 103 255 153 0 255 0 0 217 217 0 153 186 0 12 3 3 3 3;#P user meter~ 45 240 58 313 50 0 168 0 103 103 103 255 153 0 255 0 0 217 217 0 153 186 0 12 3 3 3 3;#P user meter~ 24 240 37 313 50 0 168 0 103 103 103 255 153 0 255 0 0 217 217 0 153 186 0 12 3 3 3 3;#P user meter~ 149 402 162 475 50 0 168 0 103 103 103 255 153 0 255 0 0 217 217 0 153 186 0 12 3 3 3 3;#P user meter~ 129 402 142 475 50 0 168 0 103 103 103 255 153 0 255 0 0 217 217 0 153 186 0 12 3 3 3 3;#P user meter~ 108 402 121 475 50 0 168 0 103 103 103 255 153 0 255 0 0 217 217 0 153 186 0 12 3 3 3 3;#P user meter~ 87 402 100 475 50 0 168 0 103 103 103 255 153 0 255 0 0 217 217 0 153 186 0 12 3 3 3 3;#P user meter~ 67 402 80 475 50 0 168 0 103 103 103 255 153 0 255 0 0 217 217 0 153 186 0 12 3 3 3 3;#P user meter~ 45 402 58 475 50 0 168 0 103 103 103 255 153 0 255 0 0 217 217 0 153 186 0 12 3 3 3 3;#P user meter~ 24 402 37 475 50 0 168 0 103 103 103 255 153 0 255 0 0 217 217 0 153 186 0 12 3 3 3 3;#P newex 15 373 136 196617 ambi.rotate~ 2d 3rd degrees;#P newex 15 216 138 196617 ambi.encoden~ 2d 3rd 16;#P window linecount 2;#P comment 58 126 246 196617 A simple synthesis patch to generate 16 harmonic band-filtered noise sources to be spatialized;#P window setfont "Sans Serif" 18.;#P window linecount 1;#P comment 21 316 135 196626 W X Y U V P Q;#P user panel 13 236 154 245;#X brgb 208 228 254;#X frgb 84 172 230;#X border 2;#X rounded 0;#X shadow 0;#X done;#P background;#P connect 22 0 21 0;#P fasten 56 0 21 0 238 180 20 180;#P connect 21 0 3 0;#P fasten 26 0 3 0 238 211 20 211;#P connect 3 0 4 0;#P fasten 50 0 4 0 235 366 20 366;#P connect 4 0 39 0;#P fasten 19 0 39 0 237 485 20 485;#P connect 39 0 40 0;#P fasten 49 0 40 0 201 595 20 595;#P connect 21 1 3 1;#P connect 3 0 12 0;#P connect 4 0 5 0;#P connect 39 0 41 0;#P connect 21 2 3 2;#P connect 39 1 40 1;#P connect 3 1 4 1;#P connect 4 1 39 1;#P connect 21 3 3 3;#P connect 39 1 42 0;#P connect 3 1 13 0;#P connect 4 1 6 0;#P connect 21 4 3 4;#P connect 39 2 40 2;#P connect 21 5 3 5;#P connect 3 2 4 2;#P connect 4 2 39 2;#P connect 39 2 43 0;#P connect 21 6 3 6;#P connect 3 2 14 0;#P connect 4 2 7 0;#P connect 39 3 40 3;#P connect 21 7 3 7;#P connect 3 3 4 3;#P connect 4 3 39 3;#P connect 39 3 44 0;#P connect 21 8 3 8;#P connect 21 9 3 9;#P connect 4 3 8 0;#P connect 39 4 40 4;#P connect 21 10 3 10;#P connect 39 4 45 0;#P connect 3 4 4 4;#P connect 4 4 39 4;#P connect 21 11 3 11;#P connect 39 5 40 5;#P connect 4 4 9 0;#P connect 21 12 3 12;#P connect 39 5 46 0;#P connect 21 13 3 13;#P connect 3 5 4 5;#P connect 4 5 39 5;#P connect 39 6 40 6;#P connect 21 14 3 14;#P connect 4 5 10 0;#P connect 39 6 47 0;#P connect 21 15 3 15;#P connect 3 6 4 6;#P connect 4 6 39 6;#P connect 39 7 40 7;#P connect 4 6 11 0;#P connect 39 7 48 0;#P hidden connect 55 0 54 0;#P connect 54 0 52 0;#P connect 52 0 51 0;#P connect 51 0 50 0;#P fasten 51 0 53 0 235 339 289 339;#P connect 60 0 58 0;#P connect 58 0 59 0;#P fasten 59 0 57 0 438 167 438 167;#P connect 27 0 24 0;#P connect 24 0 25 0;#P fasten 25 0 23 0 439 312 439 312;#P hidden connect 32 0 30 0;#P connect 30 0 28 0;#P fasten 29 0 20 0 490 428 439 428;#P fasten 28 0 20 0 439 428 439 428;#P hidden connect 33 0 31 0;#P connect 31 0 29 0;#P pop;