max v2;#N vpatcher 500 44 1206 796;#P origin 0 -8;#P user panel 14 545 117 21;#X brgb 208 228 254;#X frgb 84 172 230;#X border 2;#X rounded 0;#X shadow 0;#X done;#P window setfont "Sans Serif" 9.;#P window linecount 1;#P hidden newex 481 424 69 196617 loadmess 0.5;#P window linecount 3;#P comment 488 457 58 196617 mono/spatial width:;#P flonum 489 501 35 9 0. 0 1 3 0 0 0 221 221 221 222 222 222 0 0 0;#P window linecount 1;#P message 489 524 43 196617 gain \$1;#P hidden newex 411 424 69 196617 loadmess 0.5;#P window linecount 2;#P comment 419 469 58 196617 global gain control:;#P flonum 419 501 35 9 0. 0 1 3 0 0 0 221 221 221 222 222 222 0 0 0;#P window linecount 1;#P message 419 524 43 196617 gain \$1;#P comment 252 496 86 196617 play/stop;#P toggle 234 496 15 0;#P window setfont "Sans Serif" 12.;#P comment 234 455 141 196620 2. play!;#P window linecount 2;#P comment 17 455 141 196620 1. open a file for playback;#P window setfont "Sans Serif" 9.;#P window linecount 1;#P message 17 497 30 196617 open;#P comment 89 400 86 196617 ms recorded;#P user number~ 19 398 86 413 9 3 3 2 0. 0. 0 0. 250 0. 0 0 0 221 221 221 222 222 222 0 0 0;#P message 50 497 137 196617 open testBformat.aif \, loop 1;#P comment 161 658 89 196617 ¥ start audio;#P message 230 673 27 196617 stop;#P message 157 673 65 196617 startwindow;#P user panel 148 652 123 43;#X brgb 255 255 255;#X frgb 100 202 30;#X border 2;#X rounded 0;#X shadow 0;#X done;#N sfplay~  4 120960 0 ;#P newobj 17 525 145 196617 sfplay~ 4;#P window setfont "Sans Serif" 12.;#P comment 15 427 388 196620 An example of playing back an Ambisonic recording from disk:;#P window setfont "Sans Serif" 14.;#P comment 147 599 253 196622 <- Front-L \, Front-R \, Rear-R \, Rear-L;#P window setfont "Sans Serif" 9.;#P newex 17 711 111 196617 dac~ 1 2 3 4;#P user meter~ 128 598 141 694 50 0 168 0 103 103 103 255 153 0 255 0 0 217 217 0 153 186 0 12 3 3 3 3;#P user meter~ 95 598 108 694 50 0 168 0 103 103 103 255 153 0 255 0 0 217 217 0 153 186 0 12 3 3 3 3;#P user meter~ 62 598 75 694 50 0 168 0 103 103 103 255 153 0 255 0 0 217 217 0 153 186 0 12 3 3 3 3;#P user meter~ 29 598 42 694 50 0 168 0 103 103 103 255 153 0 255 0 0 217 217 0 153 186 0 12 3 3 3 3;#P newex 17 569 111 196617 ambi.decode~ 3d 1st 4;#N vpatcher 10 59 610 459;#P window setfont "Sans Serif" 9.;#P window linecount 1;#P newex 107 208 66 196617 pack 0. 0. 0.;#P newex 261 178 41 196617 * 360.;#P newex 184 180 41 196617 * 360.;#P newex 107 181 41 196617 * 360.;#P newex 261 156 40 196617 / 500.;#P newex 184 156 40 196617 / 400.;#P newex 107 156 40 196617 / 300.;#N counter 0 500;#X flags 0 0;#P newobj 261 133 74 196617 counter 0 500;#N counter 0 400;#X flags 0 0;#P newobj 184 133 74 196617 counter 0 400;#N counter 0 300;#X flags 0 0;#P newobj 107 133 74 196617 counter 0 300;#P toggle 107 73 15 0;#P newex 107 54 48 196617 loadbang;#P window linecount 0;#P newex 107 90 52 196617 metro 10;#P outlet 107 242 15 0;#P connect 2 0 3 0;#P connect 3 0 1 0;#P connect 1 0 4 0;#P connect 4 0 7 0;#P connect 7 0 10 0;#P connect 10 0 13 0;#P connect 13 0 0 0;#P connect 11 0 13 1;#P connect 12 0 13 2;#P connect 1 0 5 0;#P connect 5 0 8 0;#P connect 8 0 11 0;#P connect 1 0 6 0;#P connect 6 0 9 0;#P connect 9 0 12 0;#P pop;#P newobj 237 96 67 196617 p autopanner;#P window setfont "Sans Serif" 12.;#P comment 398 289 141 196620 2. record some sound;#P window linecount 2;#P comment 249 288 141 196620 1. open a file for recording;#P window setfont "Sans Serif" 9.;#P window linecount 1;#P message 249 327 122 196617 open testBformat.aif aiff;#P comment 416 328 86 196617 record/stop;#P toggle 398 328 15 0;#P comment 497 346 94 196617 record 10 seconds;#P message 416 346 73 196617 record 10000;#P window setfont "Sans Serif" 12.;#P window linecount 3;#P comment 15 92 153 196620 An example of recording an Ambisonic sound field to disk:;#P window setfont "Sans Serif" 9.;#P window linecount 1;#P comment 9 62 300 196617 www.grahamwakefield.net;#P comment 9 50 300 196617 Graham Wakefield \, March 2006;#P newex 556 65 108 196617 ambi.conventions.help;#P message 237 173 80 196617 azimuths \$1 \$2;#P user multiSlider 237 119 67 49 0. 360. 3 2681 47 0 0 2 0 0 0;#M frgb 0 0 0;#M brgb 255 255 255;#M rgb2 127 127 127;#M rgb3 0 0 0;#M rgb4 37 52 91;#M rgb5 74 105 182;#M rgb6 112 158 18;#M rgb7 149 211 110;#M rgb8 187 9 201;#M rgb9 224 62 37;#M rgb10 7 114 128;#P newex 19 376 111 196617 sfrecord~ 4;#P user meter~ 130 256 143 352 50 0 168 0 103 103 103 255 153 0 255 0 0 217 217 0 153 186 0 12 3 3 3 3;#P user meter~ 97 256 110 352 50 0 168 0 103 103 103 255 153 0 255 0 0 217 217 0 153 186 0 12 3 3 3 3;#P user meter~ 64 256 77 352 50 0 168 0 103 103 103 255 153 0 255 0 0 217 217 0 153 186 0 12 3 3 3 3;#P user meter~ 31 256 44 352 50 0 168 0 103 103 103 255 153 0 255 0 0 217 217 0 153 186 0 12 3 3 3 3;#P window linecount 2;#P newex 19 205 110 196617 ambi.encoden~ 3d degrees 3;#P window setfont "Sans Serif" 14.;#P window linecount 1;#P comment 153 254 114 196622 <- W X Y Z;#P window setfont "Sans Serif" 20.;#P comment 9 21 301 196628 Ambisonic Recordings;#P window setfont "Sans Serif" 9.;#P window linecount 4;#P comment 376 23 300 196617 Inspired by work on a C++ implementation by Jorge Castellanos \, Florian Hollerweger and Graham Wakefield \, using the CSL framework developed at MAT/CREATE \, UCSB (www.create.ucsb.edu/CSL);#P window linecount 1;#P comment 135 222 182 196617 3-D \, 1st order \, 3 inputs \, use degrees;#N vpatcher 10 59 610 459;#P window setfont "Sans Serif" 9.;#P newex 150 141 41 196617 *~ 0.2;#P newex 100 141 41 196617 *~ 0.2;#P newex 50 141 41 196617 *~ 0.2;#P newex 379 76 60 196617 phasor~ -5;#P newex 314 76 60 196617 phasor~ -4;#P newex 250 76 60 196617 phasor~ -3;#P newex 150 73 56 196617 rect~ 600;#P newex 100 50 56 196617 rect~ 400;#P newex 50 73 56 196617 rect~ 300;#P newex 150 96 41 196617 *~ 0.2;#P newex 100 96 41 196617 *~ 0.2;#P newex 50 96 41 196617 *~ 0.2;#P outlet 100 236 15 0;#P outlet 50 236 15 0;#P outlet 150 236 15 0;#P connect 6 0 3 0;#P connect 3 0 12 0;#P connect 12 0 1 0;#P fasten 9 0 12 1 255 117 86 117;#P connect 7 0 4 0;#P connect 4 0 13 0;#P connect 13 0 2 0;#P fasten 10 0 13 1 319 117 136 117;#P connect 8 0 5 0;#P connect 5 0 14 0;#P connect 14 0 0 0;#P fasten 11 0 14 1 384 117 186 117;#P pop;#P newobj 19 169 110 196617 p three_sources;#P user panel 17 240 133 133;#X brgb 208 228 254;#X frgb 84 172 230;#X border 2;#X rounded 0;#X shadow 0;#X done;#P window linecount 3;#P comment 344 652 315 196617 To find existing Ambisonic recordings \, you might want to start at http://www.ambisonicbootlegs.net/ \, a repository for surround sound recordings and compositions;#P fasten 46 0 35 0 239 518 22 518;#P connect 43 0 35 0;#P fasten 40 0 35 0 55 518 22 518;#P fasten 52 0 27 0 494 553 22 553;#P connect 35 0 27 0;#P fasten 48 0 27 0 424 553 22 553;#P connect 27 0 32 0;#P fasten 38 0 32 0 235 703 22 703;#P fasten 37 0 32 0 162 703 22 703;#P fasten 14 0 7 0 242 198 24 198;#P connect 2 0 7 0;#P connect 7 0 12 0;#P fasten 23 0 12 0 254 369 24 369;#P fasten 21 0 12 0 403 369 24 369;#P fasten 19 0 12 0 421 369 24 369;#P connect 12 0 41 0;#P fasten 27 0 28 0 22 592 34 592;#P fasten 7 0 8 0 24 250 36 250;#P connect 35 1 27 1;#P connect 27 1 32 1;#P connect 7 1 12 1;#P fasten 27 1 29 0 55 592 67 592;#P fasten 7 1 9 0 57 250 69 250;#P connect 2 1 7 1;#P connect 35 2 27 2;#P connect 27 2 32 2;#P connect 7 2 12 2;#P fasten 27 2 30 0 88 592 100 592;#P fasten 7 2 10 0 90 250 102 250;#P connect 35 3 27 3;#P connect 27 3 32 3;#P connect 7 3 12 3;#P connect 2 2 7 2;#P fasten 27 3 31 0 121 592 133 592;#P fasten 7 3 11 0 123 247 135 247;#P connect 26 0 13 0;#P connect 13 0 14 0;#P hidden fasten 51 0 49 0 416 497 424 497;#P connect 49 0 48 0;#P hidden fasten 55 0 53 0 486 497 494 497;#P connect 53 0 52 0;#P pop;