max v2;#N vpatcher 789 80 1389 480;#P window setfont "Sans Serif" 9.;#P newex 56 78 200 196617 loadmess azimuths 26. 100. 0. -26. -100.;#P window linecount 5;#P comment 378 137 150 196617 NOTE: not all 5.1 soundfiles observe the same channel ordering scheme \; this example assumes FL \, BL \, FC \, FR \, BR \, LFE.;#P window linecount 1;#P comment 235 155 24 196617 BR;#P comment 200 155 23 196617 FR;#P comment 270 155 23 196617 LFE;#P comment 162 155 23 196617 FC;#P comment 125 155 23 196617 BL;#P newex 80 272 158 196617 dac~ 1 2 3 4 5 6 7 8;#P flonum 285 180 35 9 0 0 0 3 0 0 0 221 221 221 222 222 222 0 0 0;#P message 80 114 43 196617 open \, 1;#P newex 260 198 35 196617 *~ 1.;#N sfplay~  6 120960 0 ;#P newobj 80 135 231 196617 sfplay~ 6;#P newex 80 243 157 196617 ambi.decode~ 2d 3rd 8;#P newex 80 199 155 196617 ambi.encoden~ 2d 3rd degrees 5;#P window linecount 2;#P comment 298 201 22 196617 LFE mix;#P window linecount 3;#P comment 242 248 79 196617 8-channel horizontal ring of loudspeakers;#P window linecount 1;#P comment 126 115 146 196617 play a 5.1 AIFF soundfile;#P comment 89 155 23 196617 FL;#P connect 8 0 6 0;#P connect 6 0 4 0;#P fasten 17 0 4 0 61 193 85 193;#P connect 4 0 5 0;#P fasten 7 0 5 0 265 224 85 231;#P lcolor 12;#P connect 5 0 10 0;#P connect 5 1 10 1;#P connect 4 1 5 1;#P connect 6 1 4 1;#P connect 5 2 10 2;#P connect 4 2 5 2;#P connect 5 3 10 3;#P connect 6 2 4 2;#P connect 4 3 5 3;#P connect 5 4 10 4;#P connect 4 4 5 4;#P connect 5 5 10 5;#P connect 6 3 4 3;#P connect 4 5 5 5;#P connect 5 6 10 6;#P connect 6 4 4 4;#P connect 4 6 5 6;#P connect 5 7 10 7;#P connect 6 5 7 0;#P lcolor 12;#P connect 9 0 7 1;#P pop;