#N canvas 525 296 450 300 10;
#X msg -242 -105 \; pd dsp 1;
#X msg -242 -70 \; pd dsp 0;
#X obj -399 43 hoa.process~ 3 hoa.freeverb~ planewaves;
#X obj -308 -25 sig~ 1;
#X obj -258 -25 sig~ 2;
#X obj -178 -25 sig~ 0.1;
#X obj -399 120 *~;
#X obj -279 120 *~;
#X obj -189 120 *~;
#X connect 2 0 6 0;
#X connect 2 1 7 0;
#X connect 2 2 8 0;
#X connect 3 0 2 0;
#X connect 4 0 2 1;
#X connect 5 0 2 2;
