#N canvas 298 518 1036 297 10;
#X obj -381 -127 loadbang;
#X obj -381 -44 print test loaded;
#X obj 9 -105 hoa.in~;
#X obj 5 61 hoa.out~;
#X obj 123 -4 c.number~ @size 53 17 @fontname Helvetica @fontweight
normal @fontslant roman @fontsize 11 @receive (null) @send (null) @interval
50 @decimal 6 @bgcolor 0.75 0.75 0.75 1 @bdcolor 0.5 0.5 0.5 1 @textcolor
0 0 0 1;
#X obj 43 -4 c.number~ @size 53 17 @fontname Helvetica @fontweight
normal @fontslant roman @fontsize 11 @receive (null) @send (null) @interval
50 @decimal 6 @bgcolor 0.75 0.75 0.75 1 @bdcolor 0.5 0.5 0.5 1 @textcolor
0 0 0 1;
#X obj 216 -103 hoa.in~ extra 1;
#X obj 326 -103 hoa.in~ extra 2;
#X obj 324 -4 c.number~ @size 53 17 @fontname Helvetica @fontweight
normal @fontslant roman @fontsize 11 @receive (null) @send (null) @interval
50 @decimal 6 @bgcolor 0.75 0.75 0.75 1 @bdcolor 0.5 0.5 0.5 1 @textcolor
0 0 0 1;
#X obj 244 -4 c.number~ @size 53 17 @fontname Helvetica @fontweight
normal @fontslant roman @fontsize 11 @receive (null) @send (null) @interval
50 @decimal 6 @bgcolor 0.75 0.75 0.75 1 @bdcolor 0.5 0.5 0.5 1 @textcolor
0 0 0 1;
#X obj 149 -105 hoa.in~;
#X obj 194 16 c.number~ @size 53 17 @fontname Helvetica @fontweight
normal @fontslant roman @fontsize 11 @receive (null) @send (null) @interval
50 @decimal 6 @bgcolor 0.75 0.75 0.75 1 @bdcolor 0.5 0.5 0.5 1 @textcolor
0 0 0 1;
#X obj 98 37 osc~ 1;
#X connect 0 0 1 0;
#X connect 2 0 3 0;
#X connect 2 0 5 0;
#X connect 6 0 9 0;
#X connect 7 0 8 0;
#X connect 10 0 11 0;
#X connect 12 0 4 0;
