#N canvas 197 454 1036 297 10;
#X obj -74 -44 print inlet1;
#X obj -1 -42 print inlet2;
#X obj 219 -60 print extra1;
#X obj -84 -2 nbx 5 14 -1e+37 1e+37 0 0 empty empty empty 0 -8 0 10
-262144 -1 -1 0 256;
#X obj -13 -2 nbx 5 14 -1e+37 1e+37 0 0 empty empty empty 0 -8 0 10
-262144 -1 -1 0 256;
#X obj 227 2 nbx 5 14 -1e+37 1e+37 0 0 empty empty empty 0 -8 0 10
-262144 -1 -1 0 256;
#X msg -260 39 test_io.pd 0;
#X obj -260 -132 c.loadmess;
#X obj -260 66 print test_inlet;
#X obj -221 -80 c.patcherinfos;
#X msg -221 -51 set \$1;
#X obj -241 -9 c.prepend;
#X obj -241 11 c.prepend set;
#X obj -260 -109 t b b b;
#X obj 358 2 nbx 5 14 -1e+37 1e+37 0 0 empty empty empty 0 -8 0 10
-262144 -1 -1 38 256;
#X obj 374 -45 print extra3;
#X obj -180 96 print attributes;
#X obj -84 -121 hoa.in;
#X obj -14 -121 hoa.in;
#X obj 219 -117 hoa.in extra 1;
#X obj 350 -117 hoa.in extra 3;
#X obj -84 69 hoa.out;
#X obj -13 69 hoa.out;
#X obj -1 -80 c.prepend;
#X obj -71 -80 c.prepend;
#X obj 305 -80 c.prepend;
#X obj 235 -80 c.prepend;
#X obj 72 -125 hoa.in~;
#X obj 166 -122 hoa.in~;
#X obj 72 69 hoa.out~;
#X obj 166 69 hoa.out~;
#X obj 527 69 hoa.out~ extra 2;
#X obj 470 -116 hoa.in~ extra 2;
#X obj 89 -41 c.number~ @size 53 17 @fontname Helvetica @fontweight
normal @fontslant roman @fontsize 11 @receive (null) @send (null) @interval
50 @decimal 6 @bgcolor 0.75 0.75 0.75 1 @bdcolor 0.5 0.5 0.5 1 @textcolor
0 0 0 1;
#X obj 149 -54 c.number~ @size 53 17 @fontname Helvetica @fontweight
normal @fontslant roman @fontsize 11 @receive (null) @send (null) @interval
50 @decimal 6 @bgcolor 0.75 0.75 0.75 1 @bdcolor 0.5 0.5 0.5 1 @textcolor
0 0 0 1;
#X obj 510 -36 c.number~ @size 53 17 @fontname Helvetica @fontweight
normal @fontslant roman @fontsize 11 @receive (null) @send (null) @interval
50 @decimal 6 @bgcolor 0.75 0.75 0.75 1 @bdcolor 0.5 0.5 0.5 1 @textcolor
0 0 0 1;
#X obj -241 -30 c.patcherargs @maison zaza;
#X obj 247 74 hoa.out extra 1;
#X obj 367 74 hoa.out extra 2;
#X connect 3 0 21 0;
#X connect 4 0 22 0;
#X connect 5 0 37 0;
#X connect 6 0 8 0;
#X connect 7 0 13 0;
#X connect 9 0 10 0;
#X connect 10 0 11 0;
#X connect 11 0 12 0;
#X connect 12 0 6 0;
#X connect 12 0 24 0;
#X connect 12 0 23 0;
#X connect 12 0 26 0;
#X connect 12 0 25 0;
#X connect 13 0 6 0;
#X connect 13 1 36 0;
#X connect 13 2 9 0;
#X connect 14 0 38 0;
#X connect 17 0 3 0;
#X connect 17 0 24 0;
#X connect 18 0 4 0;
#X connect 18 0 23 0;
#X connect 19 0 5 0;
#X connect 19 0 26 0;
#X connect 20 0 14 0;
#X connect 20 0 25 0;
#X connect 23 0 1 0;
#X connect 24 0 0 0;
#X connect 25 0 15 0;
#X connect 26 0 2 0;
#X connect 27 0 29 0;
#X connect 27 0 33 0;
#X connect 28 0 30 0;
#X connect 28 0 34 0;
#X connect 32 0 31 0;
#X connect 32 0 35 0;
#X connect 36 0 11 0;
#X connect 36 1 16 0;
