{
	"patcher" : 	{
		"fileversion" : 1,
		"appversion" : 		{
			"major" : 5,
			"minor" : 1,
			"revision" : 9
		}
,
		"rect" : [ 63.0, 68.0, 719.0, 699.0 ],
		"bgcolor" : [ 1.0, 1.0, 1.0, 0.0 ],
		"bglocked" : 0,
		"defrect" : [ 63.0, 68.0, 719.0, 699.0 ],
		"openrect" : [ 0.0, 0.0, 0.0, 0.0 ],
		"openinpresentation" : 1,
		"default_fontsize" : 12.0,
		"default_fontface" : 0,
		"default_fontname" : "Arial",
		"gridonopen" : 0,
		"gridsize" : [ 15.0, 15.0 ],
		"gridsnaponopen" : 0,
		"toolbarvisible" : 1,
		"boxanimatetime" : 200,
		"imprint" : 0,
		"enablehscroll" : 1,
		"enablevscroll" : 1,
		"devicewidth" : 0.0,
		"boxes" : [ 			{
				"box" : 				{
					"maxclass" : "newobj",
					"text" : "hoa.in 1",
					"patching_rect" : [ 105.0, 15.0, 53.0, 20.0 ],
					"id" : "obj-13",
					"fontname" : "Arial",
					"numinlets" : 1,
					"fontsize" : 12.0,
					"numoutlets" : 1,
					"outlettype" : [ "" ]
				}

			}
, 			{
				"box" : 				{
					"maxclass" : "newobj",
					"text" : "hoa.in~ 1",
					"patching_rect" : [ 165.0, 45.0, 60.0, 20.0 ],
					"id" : "obj-3",
					"fontname" : "Arial",
					"numinlets" : 1,
					"fontsize" : 12.0,
					"numoutlets" : 1,
					"outlettype" : [ "signal" ]
				}

			}
, 			{
				"box" : 				{
					"maxclass" : "newobj",
					"text" : "r hoaleveltotodskdsds",
					"patching_rect" : [ 375.0, 315.0, 127.0, 20.0 ],
					"id" : "obj-4",
					"fontname" : "Arial",
					"numinlets" : 0,
					"fontsize" : 12.0,
					"numoutlets" : 1,
					"outlettype" : [ "" ]
				}

			}
, 			{
				"box" : 				{
					"maxclass" : "newobj",
					"text" : "r hoaleveltotodskds",
					"patching_rect" : [ 240.0, 315.0, 114.0, 20.0 ],
					"id" : "obj-5",
					"fontname" : "Arial",
					"numinlets" : 0,
					"fontsize" : 12.0,
					"numoutlets" : 1,
					"outlettype" : [ "" ]
				}

			}
, 			{
				"box" : 				{
					"maxclass" : "newobj",
					"text" : "*~ 1",
					"patching_rect" : [ 165.0, 480.0, 32.5, 20.0 ],
					"id" : "obj-12",
					"fontname" : "Arial",
					"numinlets" : 2,
					"fontsize" : 12.0,
					"numoutlets" : 1,
					"outlettype" : [ "signal" ]
				}

			}
, 			{
				"box" : 				{
					"maxclass" : "newobj",
					"text" : "/ 127.",
					"patching_rect" : [ 90.0, 480.0, 41.0, 20.0 ],
					"id" : "obj-7",
					"fontname" : "Arial",
					"numinlets" : 2,
					"fontsize" : 12.0,
					"numoutlets" : 1,
					"outlettype" : [ "float" ]
				}

			}
, 			{
				"box" : 				{
					"maxclass" : "newobj",
					"text" : "+ 0.",
					"patching_rect" : [ 316.75, 180.0, 32.5, 20.0 ],
					"id" : "obj-36",
					"fontname" : "Arial",
					"numinlets" : 2,
					"fontsize" : 12.0,
					"numoutlets" : 1,
					"outlettype" : [ "float" ]
				}

			}
, 			{
				"box" : 				{
					"maxclass" : "newobj",
					"text" : "* 7.",
					"patching_rect" : [ 212.5, 165.0, 32.5, 20.0 ],
					"id" : "obj-35",
					"fontname" : "Arial",
					"numinlets" : 2,
					"fontsize" : 12.0,
					"numoutlets" : 1,
					"outlettype" : [ "float" ]
				}

			}
, 			{
				"box" : 				{
					"maxclass" : "newobj",
					"text" : "r numOrder",
					"patching_rect" : [ 199.0, 17.5, 72.0, 20.0 ],
					"id" : "obj-1",
					"fontname" : "Arial",
					"numinlets" : 0,
					"fontsize" : 12.0,
					"numoutlets" : 1,
					"outlettype" : [ "" ]
				}

			}
, 			{
				"box" : 				{
					"maxclass" : "newobj",
					"text" : "+ 1.",
					"patching_rect" : [ 212.5, 195.0, 32.5, 20.0 ],
					"id" : "obj-34",
					"fontname" : "Arial",
					"numinlets" : 2,
					"fontsize" : 12.0,
					"numoutlets" : 1,
					"outlettype" : [ "float" ]
				}

			}
, 			{
				"box" : 				{
					"maxclass" : "newobj",
					"text" : "zmap 2. 3. 0. 1.",
					"patching_rect" : [ 249.75, 210.0, 93.0, 20.0 ],
					"id" : "obj-29",
					"fontname" : "Arial",
					"numinlets" : 5,
					"fontsize" : 12.0,
					"numoutlets" : 1,
					"outlettype" : [ "" ]
				}

			}
, 			{
				"box" : 				{
					"maxclass" : "newobj",
					"text" : "- 1",
					"patching_rect" : [ 226.75, 120.0, 32.5, 20.0 ],
					"id" : "obj-23",
					"fontname" : "Arial",
					"numinlets" : 2,
					"fontsize" : 12.0,
					"numoutlets" : 1,
					"outlettype" : [ "int" ]
				}

			}
, 			{
				"box" : 				{
					"maxclass" : "newobj",
					"text" : "- 1",
					"patching_rect" : [ 450.0, 105.0, 32.5, 20.0 ],
					"id" : "obj-10",
					"fontname" : "Arial",
					"numinlets" : 2,
					"fontsize" : 12.0,
					"numoutlets" : 1,
					"outlettype" : [ "int" ]
				}

			}
, 			{
				"box" : 				{
					"maxclass" : "newobj",
					"varname" : "inleto1",
					"text" : "/~ 1",
					"patching_rect" : [ 165.0, 285.0, 32.5, 20.0 ],
					"id" : "obj-8",
					"fontname" : "Arial",
					"numinlets" : 2,
					"fontsize" : 12.0,
					"numoutlets" : 1,
					"outlettype" : [ "signal" ]
				}

			}
, 			{
				"box" : 				{
					"maxclass" : "newobj",
					"text" : "loadmess 1",
					"patching_rect" : [ 225.0, 360.0, 72.0, 20.0 ],
					"id" : "obj-2",
					"fontname" : "Arial",
					"numinlets" : 1,
					"fontsize" : 12.0,
					"numoutlets" : 1,
					"outlettype" : [ "" ]
				}

			}
, 			{
				"box" : 				{
					"maxclass" : "newobj",
					"text" : "* 127.",
					"patching_rect" : [ 226.75, 260.0, 42.0, 20.0 ],
					"id" : "obj-21",
					"fontname" : "Arial",
					"numinlets" : 2,
					"fontsize" : 12.0,
					"numoutlets" : 1,
					"outlettype" : [ "float" ]
				}

			}
, 			{
				"box" : 				{
					"maxclass" : "newobj",
					"text" : "loadmess 127",
					"patching_rect" : [ 43.0, 285.0, 85.0, 20.0 ],
					"id" : "obj-19",
					"fontname" : "Arial",
					"numinlets" : 1,
					"fontsize" : 12.0,
					"numoutlets" : 1,
					"outlettype" : [ "" ]
				}

			}
, 			{
				"box" : 				{
					"maxclass" : "newobj",
					"text" : "- 1.",
					"patching_rect" : [ 280.0, 180.0, 32.5, 20.0 ],
					"id" : "obj-17",
					"fontname" : "Arial",
					"numinlets" : 2,
					"fontsize" : 12.0,
					"numoutlets" : 1,
					"outlettype" : [ "float" ]
				}

			}
, 			{
				"box" : 				{
					"maxclass" : "gain~",
					"varname" : "gain~",
					"stripecolor" : [ 0.360784, 0.360784, 0.360784, 1.0 ],
					"patching_rect" : [ 43.5, 330.0, 22.0, 140.0 ],
					"id" : "obj-18",
					"presentation" : 1,
					"numinlets" : 2,
					"numoutlets" : 2,
					"presentation_rect" : [ 12.5, 30.0, 20.0, 105.0 ],
					"outlettype" : [ "signal", "int" ],
					"interp" : 130.0
				}

			}
, 			{
				"box" : 				{
					"maxclass" : "message",
					"text" : "$1 100",
					"patching_rect" : [ 225.0, 435.0, 47.0, 18.0 ],
					"id" : "obj-15",
					"fontname" : "Arial",
					"numinlets" : 2,
					"fontsize" : 12.0,
					"numoutlets" : 1,
					"outlettype" : [ "" ]
				}

			}
, 			{
				"box" : 				{
					"maxclass" : "newobj",
					"text" : "line~ 1",
					"patching_rect" : [ 225.0, 463.0, 46.0, 20.0 ],
					"id" : "obj-11",
					"fontname" : "Arial",
					"numinlets" : 2,
					"fontsize" : 12.0,
					"numoutlets" : 2,
					"outlettype" : [ "signal", "bang" ]
				}

			}
, 			{
				"box" : 				{
					"maxclass" : "toggle",
					"patching_rect" : [ 225.0, 403.0, 20.0, 20.0 ],
					"id" : "obj-9",
					"presentation" : 1,
					"numinlets" : 1,
					"numoutlets" : 1,
					"presentation_rect" : [ 12.5, 150.0, 20.0, 20.0 ],
					"outlettype" : [ "int" ]
				}

			}
, 			{
				"box" : 				{
					"maxclass" : "newobj",
					"text" : "*~ 1",
					"patching_rect" : [ 165.0, 511.0, 32.5, 20.0 ],
					"id" : "obj-6",
					"fontname" : "Arial",
					"numinlets" : 2,
					"fontsize" : 12.0,
					"numoutlets" : 1,
					"outlettype" : [ "signal" ]
				}

			}
, 			{
				"box" : 				{
					"maxclass" : "newobj",
					"text" : "sprintf set Order %ld",
					"patching_rect" : [ 450.0, 135.0, 120.0, 20.0 ],
					"id" : "obj-42",
					"fontname" : "Arial",
					"numinlets" : 1,
					"fontsize" : 12.0,
					"numoutlets" : 1,
					"outlettype" : [ "" ]
				}

			}
, 			{
				"box" : 				{
					"maxclass" : "newobj",
					"text" : "loadbang",
					"patching_rect" : [ 296.0, 30.0, 60.0, 20.0 ],
					"id" : "obj-41",
					"fontname" : "Arial",
					"numinlets" : 1,
					"fontsize" : 12.0,
					"numoutlets" : 1,
					"outlettype" : [ "bang" ]
				}

			}
, 			{
				"box" : 				{
					"maxclass" : "newobj",
					"text" : "patcherargs",
					"patching_rect" : [ 296.0, 55.0, 74.0, 20.0 ],
					"id" : "obj-40",
					"fontname" : "Arial",
					"numinlets" : 1,
					"fontsize" : 12.0,
					"numoutlets" : 2,
					"outlettype" : [ "", "" ]
				}

			}
, 			{
				"box" : 				{
					"maxclass" : "comment",
					"text" : "Order 0",
					"patching_rect" : [ 450.0, 165.0, 150.0, 20.0 ],
					"id" : "obj-39",
					"fontname" : "Arial",
					"presentation" : 1,
					"numinlets" : 1,
					"fontsize" : 12.0,
					"numoutlets" : 0,
					"presentation_rect" : [ 0.0, 0.0, 90.0, 20.0 ]
				}

			}
, 			{
				"box" : 				{
					"maxclass" : "newobj",
					"text" : "route 0 -1",
					"patching_rect" : [ 105.0, 165.0, 62.0, 20.0 ],
					"id" : "obj-27",
					"fontname" : "Arial",
					"numinlets" : 1,
					"fontsize" : 12.0,
					"numoutlets" : 3,
					"outlettype" : [ "", "", "" ]
				}

			}
, 			{
				"box" : 				{
					"maxclass" : "newobj",
					"text" : "route voices float",
					"patching_rect" : [ 105.0, 75.0, 101.0, 20.0 ],
					"id" : "obj-20",
					"fontname" : "Arial",
					"numinlets" : 1,
					"fontsize" : 12.0,
					"numoutlets" : 3,
					"outlettype" : [ "", "", "" ]
				}

			}
, 			{
				"box" : 				{
					"maxclass" : "outlet",
					"patching_rect" : [ 165.0, 555.0, 25.0, 25.0 ],
					"id" : "obj-14",
					"numinlets" : 1,
					"numoutlets" : 0,
					"comment" : ""
				}

			}
, 			{
				"box" : 				{
					"maxclass" : "panel",
					"patching_rect" : [ 405.0, 403.0, 128.0, 128.0 ],
					"border" : 2,
					"id" : "obj-45",
					"presentation" : 1,
					"numinlets" : 1,
					"numoutlets" : 0,
					"presentation_rect" : [ -12.5, 0.0, 87.5, 180.0 ]
				}

			}
 ],
		"lines" : [ 			{
				"patchline" : 				{
					"source" : [ "obj-13", 0 ],
					"destination" : [ "obj-20", 0 ],
					"hidden" : 0,
					"midpoints" : [  ]
				}

			}
, 			{
				"patchline" : 				{
					"source" : [ "obj-3", 0 ],
					"destination" : [ "obj-8", 0 ],
					"hidden" : 0,
					"midpoints" : [  ]
				}

			}
, 			{
				"patchline" : 				{
					"source" : [ "obj-9", 0 ],
					"destination" : [ "obj-15", 0 ],
					"hidden" : 0,
					"midpoints" : [  ]
				}

			}
, 			{
				"patchline" : 				{
					"source" : [ "obj-8", 0 ],
					"destination" : [ "obj-12", 0 ],
					"hidden" : 0,
					"midpoints" : [  ]
				}

			}
, 			{
				"patchline" : 				{
					"source" : [ "obj-7", 0 ],
					"destination" : [ "obj-12", 1 ],
					"hidden" : 0,
					"midpoints" : [  ]
				}

			}
, 			{
				"patchline" : 				{
					"source" : [ "obj-6", 0 ],
					"destination" : [ "obj-14", 0 ],
					"hidden" : 0,
					"midpoints" : [  ]
				}

			}
, 			{
				"patchline" : 				{
					"source" : [ "obj-5", 0 ],
					"destination" : [ "obj-18", 0 ],
					"hidden" : 0,
					"midpoints" : [  ]
				}

			}
, 			{
				"patchline" : 				{
					"source" : [ "obj-42", 0 ],
					"destination" : [ "obj-39", 0 ],
					"hidden" : 0,
					"midpoints" : [  ]
				}

			}
, 			{
				"patchline" : 				{
					"source" : [ "obj-41", 0 ],
					"destination" : [ "obj-40", 0 ],
					"hidden" : 0,
					"midpoints" : [  ]
				}

			}
, 			{
				"patchline" : 				{
					"source" : [ "obj-40", 0 ],
					"destination" : [ "obj-36", 0 ],
					"hidden" : 0,
					"midpoints" : [  ]
				}

			}
, 			{
				"patchline" : 				{
					"source" : [ "obj-40", 0 ],
					"destination" : [ "obj-23", 0 ],
					"hidden" : 0,
					"midpoints" : [  ]
				}

			}
, 			{
				"patchline" : 				{
					"source" : [ "obj-40", 0 ],
					"destination" : [ "obj-17", 0 ],
					"hidden" : 0,
					"midpoints" : [ 305.5, 147.0, 289.5, 147.0 ]
				}

			}
, 			{
				"patchline" : 				{
					"source" : [ "obj-40", 0 ],
					"destination" : [ "obj-10", 0 ],
					"hidden" : 0,
					"midpoints" : [  ]
				}

			}
, 			{
				"patchline" : 				{
					"source" : [ "obj-4", 0 ],
					"destination" : [ "obj-9", 0 ],
					"hidden" : 0,
					"midpoints" : [  ]
				}

			}
, 			{
				"patchline" : 				{
					"source" : [ "obj-36", 0 ],
					"destination" : [ "obj-29", 2 ],
					"hidden" : 0,
					"midpoints" : [  ]
				}

			}
, 			{
				"patchline" : 				{
					"source" : [ "obj-35", 0 ],
					"destination" : [ "obj-34", 0 ],
					"hidden" : 0,
					"midpoints" : [  ]
				}

			}
, 			{
				"patchline" : 				{
					"source" : [ "obj-34", 0 ],
					"destination" : [ "obj-8", 1 ],
					"hidden" : 0,
					"midpoints" : [  ]
				}

			}
, 			{
				"patchline" : 				{
					"source" : [ "obj-34", 0 ],
					"destination" : [ "obj-29", 0 ],
					"hidden" : 0,
					"midpoints" : [  ]
				}

			}
, 			{
				"patchline" : 				{
					"source" : [ "obj-29", 0 ],
					"destination" : [ "obj-21", 0 ],
					"hidden" : 0,
					"midpoints" : [  ]
				}

			}
, 			{
				"patchline" : 				{
					"source" : [ "obj-27", 0 ],
					"destination" : [ "obj-21", 0 ],
					"hidden" : 0,
					"midpoints" : [ 114.5, 252.0, 236.25, 252.0 ]
				}

			}
, 			{
				"patchline" : 				{
					"source" : [ "obj-27", 1 ],
					"destination" : [ "obj-21", 0 ],
					"hidden" : 0,
					"midpoints" : [ 136.0, 252.0, 236.25, 252.0 ]
				}

			}
, 			{
				"patchline" : 				{
					"source" : [ "obj-21", 0 ],
					"destination" : [ "obj-18", 0 ],
					"hidden" : 0,
					"midpoints" : [  ]
				}

			}
, 			{
				"patchline" : 				{
					"source" : [ "obj-20", 2 ],
					"destination" : [ "obj-8", 0 ],
					"hidden" : 0,
					"midpoints" : [ 196.5, 270.0, 174.5, 270.0 ]
				}

			}
, 			{
				"patchline" : 				{
					"source" : [ "obj-20", 1 ],
					"destination" : [ "obj-35", 0 ],
					"hidden" : 0,
					"midpoints" : [  ]
				}

			}
, 			{
				"patchline" : 				{
					"source" : [ "obj-20", 0 ],
					"destination" : [ "obj-27", 0 ],
					"hidden" : 0,
					"midpoints" : [  ]
				}

			}
, 			{
				"patchline" : 				{
					"source" : [ "obj-2", 0 ],
					"destination" : [ "obj-9", 0 ],
					"hidden" : 0,
					"midpoints" : [  ]
				}

			}
, 			{
				"patchline" : 				{
					"source" : [ "obj-19", 0 ],
					"destination" : [ "obj-18", 0 ],
					"hidden" : 0,
					"midpoints" : [  ]
				}

			}
, 			{
				"patchline" : 				{
					"source" : [ "obj-18", 1 ],
					"destination" : [ "obj-7", 0 ],
					"hidden" : 0,
					"midpoints" : [  ]
				}

			}
, 			{
				"patchline" : 				{
					"source" : [ "obj-17", 0 ],
					"destination" : [ "obj-29", 1 ],
					"hidden" : 0,
					"midpoints" : [  ]
				}

			}
, 			{
				"patchline" : 				{
					"source" : [ "obj-15", 0 ],
					"destination" : [ "obj-11", 0 ],
					"hidden" : 0,
					"midpoints" : [  ]
				}

			}
, 			{
				"patchline" : 				{
					"source" : [ "obj-12", 0 ],
					"destination" : [ "obj-6", 0 ],
					"hidden" : 0,
					"midpoints" : [  ]
				}

			}
, 			{
				"patchline" : 				{
					"source" : [ "obj-11", 0 ],
					"destination" : [ "obj-6", 1 ],
					"hidden" : 0,
					"midpoints" : [  ]
				}

			}
, 			{
				"patchline" : 				{
					"source" : [ "obj-10", 0 ],
					"destination" : [ "obj-42", 0 ],
					"hidden" : 0,
					"midpoints" : [  ]
				}

			}
, 			{
				"patchline" : 				{
					"source" : [ "obj-1", 0 ],
					"destination" : [ "obj-35", 1 ],
					"hidden" : 0,
					"midpoints" : [  ]
				}

			}
 ]
	}

}
