{
	"patcher" : 	{
		"fileversion" : 1,
		"appversion" : 		{
			"major" : 5,
			"minor" : 1,
			"revision" : 9
		}
,
		"rect" : [ 52.0, 97.0, 1388.0, 694.0 ],
		"bglocked" : 0,
		"defrect" : [ 52.0, 97.0, 1388.0, 694.0 ],
		"openrect" : [ 0.0, 0.0, 0.0, 0.0 ],
		"openinpresentation" : 0,
		"default_fontsize" : 11.595187,
		"default_fontface" : 0,
		"default_fontname" : "Arial",
		"gridonopen" : 0,
		"gridsize" : [ 15.0, 15.0 ],
		"gridsnaponopen" : 0,
		"toolbarvisible" : 1,
		"boxanimatetime" : 200,
		"imprint" : 0,
		"enablehscroll" : 1,
		"enablevscroll" : 1,
		"devicewidth" : 0.0,
		"boxes" : [ 			{
				"box" : 				{
					"maxclass" : "newobj",
					"text" : "sig~",
					"id" : "obj-64",
					"outlettype" : [ "signal" ],
					"fontname" : "Arial",
					"numinlets" : 1,
					"numoutlets" : 1,
					"patching_rect" : [ 282.0, 300.0, 32.0, 20.0 ],
					"fontsize" : 11.595187
				}

			}
, 			{
				"box" : 				{
					"maxclass" : "message",
					"text" : "open",
					"id" : "obj-63",
					"outlettype" : [ "" ],
					"fontname" : "Arial",
					"numinlets" : 2,
					"numoutlets" : 1,
					"patching_rect" : [ 660.0, 135.0, 36.0, 18.0 ],
					"fontsize" : 11.595187
				}

			}
, 			{
				"box" : 				{
					"maxclass" : "number~",
					"id" : "obj-54",
					"mode" : 2,
					"outlettype" : [ "signal", "float" ],
					"fontname" : "Arial",
					"sig" : 0.0,
					"numinlets" : 2,
					"numoutlets" : 2,
					"patching_rect" : [ 285.0, 495.0, 56.0, 20.0 ],
					"fontsize" : 11.595187
				}

			}
, 			{
				"box" : 				{
					"maxclass" : "number~",
					"id" : "obj-55",
					"mode" : 2,
					"outlettype" : [ "signal", "float" ],
					"fontname" : "Arial",
					"sig" : 0.0,
					"numinlets" : 2,
					"numoutlets" : 2,
					"patching_rect" : [ 270.0, 465.0, 56.0, 20.0 ],
					"fontsize" : 11.595187
				}

			}
, 			{
				"box" : 				{
					"maxclass" : "number~",
					"id" : "obj-56",
					"mode" : 2,
					"outlettype" : [ "signal", "float" ],
					"fontname" : "Arial",
					"sig" : 0.0,
					"numinlets" : 2,
					"numoutlets" : 2,
					"patching_rect" : [ 255.0, 435.0, 56.0, 20.0 ],
					"fontsize" : 11.595187
				}

			}
, 			{
				"box" : 				{
					"maxclass" : "number~",
					"id" : "obj-57",
					"mode" : 2,
					"outlettype" : [ "signal", "float" ],
					"fontname" : "Arial",
					"sig" : 0.0,
					"numinlets" : 2,
					"numoutlets" : 2,
					"patching_rect" : [ 240.0, 525.0, 56.0, 20.0 ],
					"fontsize" : 11.595187
				}

			}
, 			{
				"box" : 				{
					"maxclass" : "number~",
					"id" : "obj-58",
					"mode" : 2,
					"outlettype" : [ "signal", "float" ],
					"fontname" : "Arial",
					"sig" : 0.0,
					"numinlets" : 2,
					"numoutlets" : 2,
					"patching_rect" : [ 225.0, 495.0, 56.0, 20.0 ],
					"fontsize" : 11.595187
				}

			}
, 			{
				"box" : 				{
					"maxclass" : "number~",
					"id" : "obj-60",
					"mode" : 2,
					"outlettype" : [ "signal", "float" ],
					"fontname" : "Arial",
					"sig" : 0.0,
					"numinlets" : 2,
					"numoutlets" : 2,
					"patching_rect" : [ 210.0, 465.0, 56.0, 20.0 ],
					"fontsize" : 11.595187
				}

			}
, 			{
				"box" : 				{
					"maxclass" : "number~",
					"id" : "obj-61",
					"mode" : 2,
					"outlettype" : [ "signal", "float" ],
					"fontname" : "Arial",
					"sig" : 0.0,
					"numinlets" : 2,
					"numoutlets" : 2,
					"patching_rect" : [ 195.0, 435.0, 56.0, 20.0 ],
					"fontsize" : 11.595187
				}

			}
, 			{
				"box" : 				{
					"maxclass" : "number~",
					"id" : "obj-38",
					"mode" : 2,
					"outlettype" : [ "signal", "float" ],
					"fontname" : "Arial",
					"sig" : 0.0,
					"numinlets" : 2,
					"numoutlets" : 2,
					"patching_rect" : [ 180.0, 525.0, 56.0, 20.0 ],
					"fontsize" : 11.595187
				}

			}
, 			{
				"box" : 				{
					"maxclass" : "number~",
					"id" : "obj-40",
					"mode" : 2,
					"outlettype" : [ "signal", "float" ],
					"fontname" : "Arial",
					"sig" : 0.0,
					"numinlets" : 2,
					"numoutlets" : 2,
					"patching_rect" : [ 165.0, 495.0, 56.0, 20.0 ],
					"fontsize" : 11.595187
				}

			}
, 			{
				"box" : 				{
					"maxclass" : "number~",
					"id" : "obj-48",
					"mode" : 2,
					"outlettype" : [ "signal", "float" ],
					"fontname" : "Arial",
					"sig" : 0.0,
					"numinlets" : 2,
					"numoutlets" : 2,
					"patching_rect" : [ 150.0, 465.0, 56.0, 20.0 ],
					"fontsize" : 11.595187
				}

			}
, 			{
				"box" : 				{
					"maxclass" : "number~",
					"id" : "obj-50",
					"mode" : 2,
					"outlettype" : [ "signal", "float" ],
					"fontname" : "Arial",
					"sig" : 0.0,
					"numinlets" : 2,
					"numoutlets" : 2,
					"patching_rect" : [ 135.0, 435.0, 56.0, 20.0 ],
					"fontsize" : 11.595187
				}

			}
, 			{
				"box" : 				{
					"maxclass" : "number~",
					"id" : "obj-25",
					"mode" : 2,
					"outlettype" : [ "signal", "float" ],
					"fontname" : "Arial",
					"sig" : 0.0,
					"numinlets" : 2,
					"numoutlets" : 2,
					"patching_rect" : [ 120.0, 525.0, 56.0, 20.0 ],
					"fontsize" : 11.595187
				}

			}
, 			{
				"box" : 				{
					"maxclass" : "number~",
					"id" : "obj-29",
					"mode" : 2,
					"outlettype" : [ "signal", "float" ],
					"fontname" : "Arial",
					"sig" : 0.0,
					"numinlets" : 2,
					"numoutlets" : 2,
					"patching_rect" : [ 105.0, 495.0, 56.0, 20.0 ],
					"fontsize" : 11.595187
				}

			}
, 			{
				"box" : 				{
					"maxclass" : "flonum",
					"id" : "obj-22",
					"outlettype" : [ "float", "bang" ],
					"fontname" : "Arial",
					"numinlets" : 1,
					"numoutlets" : 2,
					"patching_rect" : [ 312.0, 255.0, 50.0, 20.0 ],
					"fontsize" : 11.595187
				}

			}
, 			{
				"box" : 				{
					"maxclass" : "number~",
					"id" : "obj-16",
					"mode" : 2,
					"outlettype" : [ "signal", "float" ],
					"fontname" : "Arial",
					"sig" : 0.0,
					"numinlets" : 2,
					"numoutlets" : 2,
					"patching_rect" : [ 90.0, 465.0, 56.0, 20.0 ],
					"fontsize" : 11.595187
				}

			}
, 			{
				"box" : 				{
					"maxclass" : "number~",
					"id" : "obj-8",
					"mode" : 2,
					"outlettype" : [ "signal", "float" ],
					"fontname" : "Arial",
					"sig" : 0.0,
					"numinlets" : 2,
					"numoutlets" : 2,
					"patching_rect" : [ 75.0, 435.0, 56.0, 20.0 ],
					"fontsize" : 11.595187
				}

			}
, 			{
				"box" : 				{
					"maxclass" : "comment",
					"text" : "Arg2 : Shape of the loudspeakers array (default 0 - Linear)",
					"linecount" : 3,
					"id" : "obj-36",
					"fontname" : "Arial",
					"numinlets" : 1,
					"numoutlets" : 0,
					"patching_rect" : [ 600.0, 300.0, 127.0, 46.0 ],
					"fontsize" : 11.595187
				}

			}
, 			{
				"box" : 				{
					"maxclass" : "newobj",
					"text" : "loadmess 2",
					"id" : "obj-13",
					"outlettype" : [ "" ],
					"fontname" : "Arial",
					"numinlets" : 1,
					"numoutlets" : 1,
					"hidden" : 1,
					"patching_rect" : [ 450.0, 513.0, 70.0, 20.0 ],
					"fontsize" : 11.595187
				}

			}
, 			{
				"box" : 				{
					"maxclass" : "newobj",
					"text" : "loadmess 0",
					"id" : "obj-6",
					"outlettype" : [ "" ],
					"fontname" : "Arial",
					"numinlets" : 1,
					"numoutlets" : 1,
					"hidden" : 1,
					"patching_rect" : [ 450.0, 240.0, 70.0, 20.0 ],
					"fontsize" : 11.595187
				}

			}
, 			{
				"box" : 				{
					"maxclass" : "comment",
					"text" : "Arg5 : Delay interpolation (default 2 - Lagrange)",
					"linecount" : 2,
					"id" : "obj-49",
					"fontname" : "Arial",
					"numinlets" : 1,
					"numoutlets" : 0,
					"patching_rect" : [ 600.0, 450.0, 142.0, 33.0 ],
					"fontsize" : 11.595187
				}

			}
, 			{
				"box" : 				{
					"maxclass" : "comment",
					"text" : "Arg4 : Distance between the speaker array and the listener in meter (default 1.5)",
					"linecount" : 4,
					"id" : "obj-44",
					"fontname" : "Arial",
					"numinlets" : 1,
					"numoutlets" : 0,
					"patching_rect" : [ 600.0, 390.0, 126.0, 60.0 ],
					"fontsize" : 11.595187
				}

			}
, 			{
				"box" : 				{
					"maxclass" : "comment",
					"text" : "Arg3 : Distance between speakers in meter (default 0.2)",
					"linecount" : 3,
					"id" : "obj-43",
					"fontname" : "Arial",
					"numinlets" : 1,
					"numoutlets" : 0,
					"patching_rect" : [ 600.0, 345.0, 127.0, 46.0 ],
					"fontsize" : 11.595187
				}

			}
, 			{
				"box" : 				{
					"maxclass" : "comment",
					"text" : "Arg1 : Number of speakers (default 16)",
					"linecount" : 2,
					"id" : "obj-42",
					"fontname" : "Arial",
					"numinlets" : 1,
					"numoutlets" : 0,
					"patching_rect" : [ 600.0, 270.0, 125.0, 33.0 ],
					"fontsize" : 11.595187
				}

			}
, 			{
				"box" : 				{
					"maxclass" : "panel",
					"id" : "obj-24",
					"border" : 2,
					"bgcolor" : [ 0.858824, 0.858824, 0.858824, 1.0 ],
					"numinlets" : 1,
					"numoutlets" : 0,
					"patching_rect" : [ 585.0, 255.0, 159.25, 264.0 ]
				}

			}
, 			{
				"box" : 				{
					"maxclass" : "comment",
					"text" : "Zoom :",
					"id" : "obj-26",
					"fontname" : "Arial",
					"numinlets" : 1,
					"numoutlets" : 0,
					"patching_rect" : [ 765.0, 150.0, 47.0, 20.0 ],
					"fontsize" : 11.595187
				}

			}
, 			{
				"box" : 				{
					"maxclass" : "flonum",
					"minimum" : 0.01,
					"id" : "obj-19",
					"outlettype" : [ "float", "bang" ],
					"maximum" : 1.0,
					"fontname" : "Arial",
					"numinlets" : 1,
					"numoutlets" : 2,
					"patching_rect" : [ 829.0, 150.0, 50.0, 20.0 ],
					"fontsize" : 11.595187
				}

			}
, 			{
				"box" : 				{
					"maxclass" : "incdec",
					"id" : "obj-7",
					"outlettype" : [ "float" ],
					"numinlets" : 1,
					"increment" : 0.05,
					"numoutlets" : 1,
					"patching_rect" : [ 810.0, 150.0, 20.0, 20.0 ]
				}

			}
, 			{
				"box" : 				{
					"maxclass" : "umenu",
					"id" : "obj-52",
					"outlettype" : [ "int", "", "" ],
					"fontname" : "Arial",
					"items" : [ "Linear", ",", "Circular" ],
					"numinlets" : 1,
					"numoutlets" : 3,
					"types" : [  ],
					"patching_rect" : [ 450.0, 270.0, 100.0, 20.0 ],
					"fontsize" : 11.595187
				}

			}
, 			{
				"box" : 				{
					"maxclass" : "newobj",
					"text" : "loadmess 1.5",
					"id" : "obj-51",
					"outlettype" : [ "" ],
					"fontname" : "Arial",
					"numinlets" : 1,
					"numoutlets" : 1,
					"hidden" : 1,
					"patching_rect" : [ 450.0, 421.0, 79.0, 20.0 ],
					"fontsize" : 11.595187
				}

			}
, 			{
				"box" : 				{
					"maxclass" : "newobj",
					"text" : "loadmess 0.2",
					"id" : "obj-47",
					"outlettype" : [ "" ],
					"fontname" : "Arial",
					"numinlets" : 1,
					"numoutlets" : 1,
					"hidden" : 1,
					"patching_rect" : [ 450.0, 330.0, 79.0, 20.0 ],
					"fontsize" : 11.595187
				}

			}
, 			{
				"box" : 				{
					"maxclass" : "message",
					"text" : "shape $1",
					"id" : "obj-27",
					"outlettype" : [ "" ],
					"fontname" : "Arial",
					"numinlets" : 2,
					"numoutlets" : 1,
					"patching_rect" : [ 450.0, 300.0, 58.0, 18.0 ],
					"fontsize" : 11.595187
				}

			}
, 			{
				"box" : 				{
					"maxclass" : "newobj",
					"text" : "s huygens",
					"id" : "obj-28",
					"fontname" : "Arial",
					"numinlets" : 1,
					"numoutlets" : 0,
					"hidden" : 1,
					"patching_rect" : [ 450.0, 330.0, 63.0, 20.0 ],
					"fontsize" : 11.595187
				}

			}
, 			{
				"box" : 				{
					"maxclass" : "umenu",
					"id" : "obj-17",
					"outlettype" : [ "int", "", "" ],
					"fontname" : "Arial",
					"items" : [ "Linear", ",", "Quadratic", ",", "Lagrange" ],
					"numinlets" : 1,
					"numoutlets" : 3,
					"types" : [  ],
					"patching_rect" : [ 450.0, 540.0, 100.0, 20.0 ],
					"fontsize" : 11.595187
				}

			}
, 			{
				"box" : 				{
					"maxclass" : "newobj",
					"text" : "s yPos",
					"id" : "obj-41",
					"fontname" : "Arial",
					"numinlets" : 1,
					"numoutlets" : 0,
					"hidden" : 1,
					"patching_rect" : [ 1155.0, 585.0, 47.0, 20.0 ],
					"fontsize" : 12.0
				}

			}
, 			{
				"box" : 				{
					"maxclass" : "newobj",
					"text" : "s xPos",
					"id" : "obj-14",
					"fontname" : "Arial",
					"numinlets" : 1,
					"numoutlets" : 0,
					"hidden" : 1,
					"patching_rect" : [ 780.0, 585.0, 47.0, 20.0 ],
					"fontsize" : 12.0
				}

			}
, 			{
				"box" : 				{
					"maxclass" : "comment",
					"text" : "User Interface",
					"presentation" : 1,
					"id" : "obj-23",
					"fontname" : "Arial",
					"presentation_rect" : [ 674.0, 124.0, 245.0, 29.0 ],
					"numinlets" : 1,
					"numoutlets" : 0,
					"patching_rect" : [ 890.0, 149.0, 138.0, 29.0 ],
					"fontsize" : 20.0
				}

			}
, 			{
				"box" : 				{
					"maxclass" : "jsui",
					"presentation" : 1,
					"id" : "obj-68",
					"outlettype" : [ "" ],
					"filename" : "wfsUserInter.js",
					"presentation_rect" : [ 103.999969, 126.0, 510.0, 510.0 ],
					"numinlets" : 1,
					"numoutlets" : 1,
					"patching_rect" : [ 780.0, 180.0, 394.0, 394.0 ],
					"jsarguments" : [  ]
				}

			}
, 			{
				"box" : 				{
					"maxclass" : "flonum",
					"id" : "obj-39",
					"outlettype" : [ "float", "bang" ],
					"fontname" : "Arial",
					"numinlets" : 1,
					"numoutlets" : 2,
					"patching_rect" : [ 450.0, 450.0, 50.0, 20.0 ],
					"fontsize" : 11.595187
				}

			}
, 			{
				"box" : 				{
					"maxclass" : "flonum",
					"id" : "obj-37",
					"outlettype" : [ "float", "bang" ],
					"fontname" : "Arial",
					"numinlets" : 1,
					"numoutlets" : 2,
					"patching_rect" : [ 450.0, 360.0, 50.0, 20.0 ],
					"fontsize" : 11.595187
				}

			}
, 			{
				"box" : 				{
					"maxclass" : "message",
					"text" : "delta $1",
					"id" : "obj-30",
					"outlettype" : [ "" ],
					"fontname" : "Arial",
					"numinlets" : 2,
					"numoutlets" : 1,
					"patching_rect" : [ 450.0, 390.0, 52.0, 18.0 ],
					"fontsize" : 11.595187
				}

			}
, 			{
				"box" : 				{
					"maxclass" : "newobj",
					"text" : "s huygens",
					"id" : "obj-31",
					"fontname" : "Arial",
					"numinlets" : 1,
					"numoutlets" : 0,
					"hidden" : 1,
					"patching_rect" : [ 450.0, 420.0, 63.0, 20.0 ],
					"fontsize" : 11.595187
				}

			}
, 			{
				"box" : 				{
					"maxclass" : "message",
					"text" : "distance $1",
					"id" : "obj-20",
					"outlettype" : [ "" ],
					"fontname" : "Arial",
					"numinlets" : 2,
					"numoutlets" : 1,
					"patching_rect" : [ 450.0, 480.0, 70.0, 18.0 ],
					"fontsize" : 11.595187
				}

			}
, 			{
				"box" : 				{
					"maxclass" : "newobj",
					"text" : "s huygens",
					"id" : "obj-21",
					"fontname" : "Arial",
					"numinlets" : 1,
					"numoutlets" : 0,
					"hidden" : 1,
					"patching_rect" : [ 450.0, 510.0, 63.0, 20.0 ],
					"fontsize" : 11.595187
				}

			}
, 			{
				"box" : 				{
					"maxclass" : "message",
					"text" : "interpolation $1",
					"id" : "obj-15",
					"outlettype" : [ "" ],
					"fontname" : "Arial",
					"numinlets" : 2,
					"numoutlets" : 1,
					"patching_rect" : [ 450.0, 570.0, 90.0, 18.0 ],
					"fontsize" : 11.595187
				}

			}
, 			{
				"box" : 				{
					"maxclass" : "newobj",
					"text" : "s huygens",
					"id" : "obj-11",
					"fontname" : "Arial",
					"numinlets" : 1,
					"numoutlets" : 0,
					"hidden" : 1,
					"patching_rect" : [ 450.0, 600.0, 63.0, 20.0 ],
					"fontsize" : 11.595187
				}

			}
, 			{
				"box" : 				{
					"maxclass" : "panel",
					"id" : "obj-10",
					"border" : 2,
					"bgcolor" : [ 0.858824, 0.858824, 0.858824, 1.0 ],
					"numinlets" : 1,
					"numoutlets" : 0,
					"patching_rect" : [ 435.0, 255.0, 136.25, 380.0 ]
				}

			}
, 			{
				"box" : 				{
					"maxclass" : "newobj",
					"text" : "hoa.encoder~ 7",
					"id" : "obj-12",
					"outlettype" : [ "signal", "signal", "signal", "signal", "signal", "signal", "signal", "signal", "signal", "signal", "signal", "signal", "signal", "signal", "signal" ],
					"fontname" : "Arial",
					"numinlets" : 2,
					"numoutlets" : 15,
					"patching_rect" : [ 75.0, 379.0, 227.0, 20.0 ],
					"fontsize" : 12.0
				}

			}
, 			{
				"box" : 				{
					"maxclass" : "bpatcher",
					"id" : "obj-74",
					"outlettype" : [ "signal" ],
					"name" : "AudioInput",
					"args" : [  ],
					"numinlets" : 0,
					"numoutlets" : 1,
					"embed" : 1,
					"patching_rect" : [ 75.0, 120.0, 345.0, 122.0 ],
					"patcher" : 					{
						"fileversion" : 1,
						"appversion" : 						{
							"major" : 5,
							"minor" : 1,
							"revision" : 9
						}
,
						"rect" : [ 75.0, 120.0, 345.0, 122.0 ],
						"bgcolor" : [ 1.0, 1.0, 1.0, 0.0 ],
						"bglocked" : 0,
						"defrect" : [ 75.0, 120.0, 345.0, 122.0 ],
						"openrect" : [ 0.0, 0.0, 0.0, 0.0 ],
						"openinpresentation" : 1,
						"default_fontsize" : 12.0,
						"default_fontface" : 0,
						"default_fontname" : "Arial",
						"gridonopen" : 0,
						"gridsize" : [ 15.0, 15.0 ],
						"gridsnaponopen" : 0,
						"toolbarvisible" : 1,
						"boxanimatetime" : 200,
						"imprint" : 0,
						"enablehscroll" : 1,
						"enablevscroll" : 1,
						"devicewidth" : 0.0,
						"boxes" : [ 							{
								"box" : 								{
									"maxclass" : "bpatcher",
									"varname" : "noiso",
									"presentation" : 1,
									"id" : "obj-6",
									"outlettype" : [ "signal" ],
									"name" : "Noise",
									"args" : [  ],
									"presentation_rect" : [ 105.0, 0.0, 240.0, 120.0 ],
									"numinlets" : 1,
									"numoutlets" : 1,
									"embed" : 1,
									"patching_rect" : [ 270.0, 0.0, 240.0, 120.0 ],
									"patcher" : 									{
										"fileversion" : 1,
										"appversion" : 										{
											"major" : 5,
											"minor" : 1,
											"revision" : 9
										}
,
										"rect" : [ 105.0, 0.0, 240.0, 120.0 ],
										"bgcolor" : [ 1.0, 1.0, 1.0, 0.0 ],
										"bglocked" : 0,
										"defrect" : [ 105.0, 0.0, 240.0, 120.0 ],
										"openrect" : [ 0.0, 0.0, 0.0, 0.0 ],
										"openinpresentation" : 0,
										"default_fontsize" : 12.0,
										"default_fontface" : 0,
										"default_fontname" : "Arial",
										"gridonopen" : 0,
										"gridsize" : [ 15.0, 15.0 ],
										"gridsnaponopen" : 0,
										"toolbarvisible" : 1,
										"boxanimatetime" : 200,
										"imprint" : 0,
										"enablehscroll" : 1,
										"enablevscroll" : 1,
										"devicewidth" : 0.0,
										"boxes" : [ 											{
												"box" : 												{
													"maxclass" : "inlet",
													"id" : "obj-19",
													"outlettype" : [ "" ],
													"numinlets" : 0,
													"numoutlets" : 1,
													"patching_rect" : [ 330.0, 90.0, 25.0, 25.0 ],
													"comment" : ""
												}

											}
, 											{
												"box" : 												{
													"maxclass" : "outlet",
													"id" : "obj-1",
													"numinlets" : 1,
													"numoutlets" : 0,
													"patching_rect" : [ 75.0, 195.0, 25.0, 25.0 ],
													"comment" : ""
												}

											}
, 											{
												"box" : 												{
													"maxclass" : "newobj",
													"text" : "p noisy",
													"id" : "obj-24",
													"outlettype" : [ "signal" ],
													"fontname" : "Arial",
													"numinlets" : 1,
													"numoutlets" : 1,
													"patching_rect" : [ 75.0, 135.0, 47.0, 20.0 ],
													"fontsize" : 11.595187,
													"patcher" : 													{
														"fileversion" : 1,
														"appversion" : 														{
															"major" : 5,
															"minor" : 1,
															"revision" : 9
														}
,
														"rect" : [ 29.0, 67.0, 640.0, 480.0 ],
														"bglocked" : 0,
														"defrect" : [ 29.0, 67.0, 640.0, 480.0 ],
														"openrect" : [ 0.0, 0.0, 0.0, 0.0 ],
														"openinpresentation" : 0,
														"default_fontsize" : 12.0,
														"default_fontface" : 0,
														"default_fontname" : "Arial",
														"gridonopen" : 0,
														"gridsize" : [ 15.0, 15.0 ],
														"gridsnaponopen" : 0,
														"toolbarvisible" : 1,
														"boxanimatetime" : 200,
														"imprint" : 0,
														"enablehscroll" : 1,
														"enablevscroll" : 1,
														"devicewidth" : 0.0,
														"boxes" : [ 															{
																"box" : 																{
																	"maxclass" : "newobj",
																	"text" : "noise~",
																	"id" : "obj-68",
																	"outlettype" : [ "signal" ],
																	"fontname" : "Arial",
																	"numinlets" : 1,
																	"numoutlets" : 1,
																	"patching_rect" : [ 50.0, 100.0, 43.0, 20.0 ],
																	"fontsize" : 11.595187
																}

															}
, 															{
																"box" : 																{
																	"maxclass" : "newobj",
																	"text" : "biquad~",
																	"id" : "obj-69",
																	"outlettype" : [ "signal" ],
																	"fontname" : "Arial",
																	"numinlets" : 6,
																	"numoutlets" : 1,
																	"patching_rect" : [ 215.0, 130.0, 79.0, 20.0 ],
																	"fontsize" : 11.595187
																}

															}
, 															{
																"box" : 																{
																	"maxclass" : "inlet",
																	"id" : "obj-16",
																	"outlettype" : [ "list" ],
																	"numinlets" : 0,
																	"numoutlets" : 1,
																	"patching_rect" : [ 227.0, 40.0, 25.0, 25.0 ],
																	"comment" : ""
																}

															}
, 															{
																"box" : 																{
																	"maxclass" : "outlet",
																	"id" : "obj-20",
																	"numinlets" : 1,
																	"numoutlets" : 0,
																	"patching_rect" : [ 215.0, 210.0, 25.0, 25.0 ],
																	"comment" : ""
																}

															}
 ],
														"lines" : [ 															{
																"patchline" : 																{
																	"source" : [ "obj-69", 0 ],
																	"destination" : [ "obj-20", 0 ],
																	"hidden" : 0,
																	"midpoints" : [  ]
																}

															}
, 															{
																"patchline" : 																{
																	"source" : [ "obj-68", 0 ],
																	"destination" : [ "obj-69", 0 ],
																	"hidden" : 0,
																	"midpoints" : [  ]
																}

															}
, 															{
																"patchline" : 																{
																	"source" : [ "obj-16", 0 ],
																	"destination" : [ "obj-69", 1 ],
																	"hidden" : 0,
																	"midpoints" : [  ]
																}

															}
 ]
													}
,
													"saved_object_attributes" : 													{
														"default_fontface" : 0,
														"globalpatchername" : "",
														"default_fontname" : "Arial",
														"fontname" : "Arial",
														"default_fontsize" : 12.0,
														"fontface" : 0,
														"fontsize" : 12.0
													}

												}

											}
, 											{
												"box" : 												{
													"maxclass" : "umenu",
													"id" : "obj-47",
													"outlettype" : [ "int", "", "" ],
													"fontname" : "Arial",
													"items" : [ "display", ",", "lowpass", ",", "highpass", ",", "bandpass", ",", "bandstop", ",", "peaknotch", ",", "lowshelf", ",", "highshelf", ",", "resonant", ",", "allpass" ],
													"numinlets" : 1,
													"numoutlets" : 3,
													"types" : [  ],
													"patching_rect" : [ 12.0, 7.5, 88.0, 20.0 ],
													"fontsize" : 11.595187
												}

											}
, 											{
												"box" : 												{
													"maxclass" : "filtergraph~",
													"id" : "obj-81",
													"outlettype" : [ "list", "float", "float", "float", "float", "list", "int" ],
													"hcurvecolor" : [ 1.0, 0.086275, 0.086275, 1.0 ],
													"bwidthcolor" : [ 0.462745, 0.47451, 0.65098, 1.0 ],
													"autoout" : 1,
													"hbwidthcolor" : [ 0.823529, 0.290196, 0.211765, 1.0 ],
													"logfreq" : 0,
													"markercolor" : [ 0.509804, 0.509804, 0.509804, 1.0 ],
													"bgcolor" : [ 0.913725, 0.913725, 1.0, 1.0 ],
													"fgcolor" : [ 0.756863, 0.756863, 1.0, 1.0 ],
													"numinlets" : 8,
													"numoutlets" : 7,
													"patching_rect" : [ 12.0, 27.5, 198.0, 77.5 ],
													"fontsize" : 8.998901,
													"domain" : [ 0.0, 22050.0 ],
													"nfilters" : 1,
													"setfilter" : [ 0, 1, 0, 0, 0, 9020.454102, 1.0, 0.5, 0.0001, 22050.0, 0.0001, 16.0, 0.5, 25.0 ]
												}

											}
, 											{
												"box" : 												{
													"maxclass" : "panel",
													"id" : "obj-31",
													"border" : 2,
													"bgcolor" : [ 0.858824, 0.858824, 0.858824, 1.0 ],
													"numinlets" : 1,
													"numoutlets" : 0,
													"patching_rect" : [ 0.0, 0.0, 240.0, 120.0 ]
												}

											}
, 											{
												"box" : 												{
													"maxclass" : "comment",
													"text" : "Play with noise",
													"id" : "obj-41",
													"fontname" : "Arial",
													"numinlets" : 1,
													"numoutlets" : 0,
													"patching_rect" : [ 105.0, 15.0, 138.0, 20.0 ],
													"fontsize" : 11.595187
												}

											}
 ],
										"lines" : [ 											{
												"patchline" : 												{
													"source" : [ "obj-81", 0 ],
													"destination" : [ "obj-24", 0 ],
													"hidden" : 0,
													"midpoints" : [  ]
												}

											}
, 											{
												"patchline" : 												{
													"source" : [ "obj-47", 1 ],
													"destination" : [ "obj-81", 0 ],
													"hidden" : 0,
													"midpoints" : [  ]
												}

											}
, 											{
												"patchline" : 												{
													"source" : [ "obj-24", 0 ],
													"destination" : [ "obj-1", 0 ],
													"hidden" : 0,
													"midpoints" : [  ]
												}

											}
 ]
									}

								}

							}
, 							{
								"box" : 								{
									"maxclass" : "bpatcher",
									"varname" : "Soundofile",
									"presentation" : 1,
									"id" : "obj-4",
									"outlettype" : [ "signal" ],
									"name" : "SoundFile",
									"args" : [  ],
									"presentation_rect" : [ 105.0, 0.0, 240.0, 120.0 ],
									"numinlets" : 1,
									"numoutlets" : 1,
									"embed" : 1,
									"patching_rect" : [ 195.0, 0.0, 240.0, 120.0 ],
									"patcher" : 									{
										"fileversion" : 1,
										"appversion" : 										{
											"major" : 5,
											"minor" : 1,
											"revision" : 9
										}
,
										"rect" : [ 105.0, 0.0, 240.0, 120.0 ],
										"bgcolor" : [ 1.0, 1.0, 1.0, 0.0 ],
										"bglocked" : 0,
										"defrect" : [ 105.0, 0.0, 240.0, 120.0 ],
										"openrect" : [ 0.0, 0.0, 0.0, 0.0 ],
										"openinpresentation" : 0,
										"default_fontsize" : 12.0,
										"default_fontface" : 0,
										"default_fontname" : "Arial",
										"gridonopen" : 0,
										"gridsize" : [ 15.0, 15.0 ],
										"gridsnaponopen" : 0,
										"toolbarvisible" : 1,
										"boxanimatetime" : 200,
										"imprint" : 0,
										"enablehscroll" : 1,
										"enablevscroll" : 1,
										"devicewidth" : 0.0,
										"boxes" : [ 											{
												"box" : 												{
													"maxclass" : "inlet",
													"id" : "obj-19",
													"outlettype" : [ "" ],
													"numinlets" : 0,
													"numoutlets" : 1,
													"patching_rect" : [ 345.0, 105.0, 25.0, 25.0 ],
													"comment" : ""
												}

											}
, 											{
												"box" : 												{
													"maxclass" : "outlet",
													"id" : "obj-1",
													"numinlets" : 1,
													"numoutlets" : 0,
													"patching_rect" : [ 45.0, 240.0, 25.0, 25.0 ],
													"comment" : ""
												}

											}
, 											{
												"box" : 												{
													"maxclass" : "newobj",
													"text" : "sfplay~ 2",
													"id" : "obj-6",
													"outlettype" : [ "signal", "signal", "bang" ],
													"fontname" : "Arial",
													"numinlets" : 2,
													"numoutlets" : 3,
													"patching_rect" : [ 16.0, 90.0, 59.0, 20.0 ],
													"fontsize" : 12.0,
													"save" : [ "#N", "sfplay~", "", 2, 120960, 0, "", ";" ]
												}

											}
, 											{
												"box" : 												{
													"maxclass" : "playbar",
													"id" : "obj-3",
													"outlettype" : [ "", "int" ],
													"numinlets" : 1,
													"numoutlets" : 2,
													"patching_rect" : [ 16.0, 54.5, 180.0, 15.0 ]
												}

											}
, 											{
												"box" : 												{
													"maxclass" : "message",
													"text" : "open",
													"id" : "obj-10",
													"outlettype" : [ "" ],
													"fontname" : "Arial",
													"numinlets" : 2,
													"numoutlets" : 1,
													"patching_rect" : [ 16.0, 14.0, 37.0, 18.0 ],
													"fontsize" : 12.0
												}

											}
, 											{
												"box" : 												{
													"maxclass" : "panel",
													"id" : "obj-36",
													"border" : 2,
													"bgcolor" : [ 0.858824, 0.858824, 0.858824, 1.0 ],
													"numinlets" : 1,
													"numoutlets" : 0,
													"patching_rect" : [ 0.0, 0.0, 240.0, 120.0 ]
												}

											}
 ],
										"lines" : [ 											{
												"patchline" : 												{
													"source" : [ "obj-6", 0 ],
													"destination" : [ "obj-1", 0 ],
													"hidden" : 0,
													"midpoints" : [  ]
												}

											}
, 											{
												"patchline" : 												{
													"source" : [ "obj-6", 1 ],
													"destination" : [ "obj-1", 0 ],
													"hidden" : 0,
													"midpoints" : [  ]
												}

											}
, 											{
												"patchline" : 												{
													"source" : [ "obj-3", 0 ],
													"destination" : [ "obj-6", 0 ],
													"hidden" : 0,
													"midpoints" : [  ]
												}

											}
, 											{
												"patchline" : 												{
													"source" : [ "obj-10", 0 ],
													"destination" : [ "obj-6", 0 ],
													"hidden" : 0,
													"midpoints" : [  ]
												}

											}
 ]
									}

								}

							}
, 							{
								"box" : 								{
									"maxclass" : "bpatcher",
									"varname" : "cyclophaso",
									"presentation" : 1,
									"id" : "obj-7",
									"outlettype" : [ "signal" ],
									"name" : "cyclephasor",
									"args" : [  ],
									"presentation_rect" : [ 105.0, 0.0, 240.0, 120.0 ],
									"numinlets" : 1,
									"numoutlets" : 1,
									"embed" : 1,
									"patching_rect" : [ 585.0, 0.0, 240.0, 120.0 ],
									"patcher" : 									{
										"fileversion" : 1,
										"appversion" : 										{
											"major" : 5,
											"minor" : 1,
											"revision" : 9
										}
,
										"rect" : [ 105.0, 0.0, 240.0, 120.0 ],
										"bgcolor" : [ 1.0, 1.0, 1.0, 0.0 ],
										"bglocked" : 0,
										"defrect" : [ 105.0, 0.0, 240.0, 120.0 ],
										"openrect" : [ 0.0, 0.0, 0.0, 0.0 ],
										"openinpresentation" : 0,
										"default_fontsize" : 12.0,
										"default_fontface" : 0,
										"default_fontname" : "Arial",
										"gridonopen" : 0,
										"gridsize" : [ 15.0, 15.0 ],
										"gridsnaponopen" : 0,
										"toolbarvisible" : 1,
										"boxanimatetime" : 200,
										"imprint" : 0,
										"enablehscroll" : 1,
										"enablevscroll" : 1,
										"devicewidth" : 0.0,
										"boxes" : [ 											{
												"box" : 												{
													"maxclass" : "inlet",
													"id" : "obj-19",
													"outlettype" : [ "" ],
													"numinlets" : 0,
													"numoutlets" : 1,
													"patching_rect" : [ 315.0, 75.0, 25.0, 25.0 ],
													"comment" : ""
												}

											}
, 											{
												"box" : 												{
													"maxclass" : "outlet",
													"id" : "obj-15",
													"numinlets" : 1,
													"numoutlets" : 0,
													"patching_rect" : [ 75.0, 195.0, 25.0, 25.0 ],
													"comment" : ""
												}

											}
, 											{
												"box" : 												{
													"maxclass" : "newobj",
													"text" : "loadmess 128",
													"id" : "obj-14",
													"outlettype" : [ "" ],
													"fontname" : "Arial",
													"numinlets" : 1,
													"numoutlets" : 1,
													"hidden" : 1,
													"patching_rect" : [ 15.0, 0.0, 83.0, 20.0 ],
													"fontsize" : 11.595187
												}

											}
, 											{
												"box" : 												{
													"maxclass" : "gain~",
													"id" : "obj-13",
													"outlettype" : [ "signal", "int" ],
													"numinlets" : 2,
													"numoutlets" : 2,
													"patching_rect" : [ 135.0, 90.0, 89.0, 17.0 ]
												}

											}
, 											{
												"box" : 												{
													"maxclass" : "gain~",
													"id" : "obj-12",
													"outlettype" : [ "signal", "int" ],
													"numinlets" : 2,
													"numoutlets" : 2,
													"patching_rect" : [ 15.0, 90.0, 89.0, 17.0 ]
												}

											}
, 											{
												"box" : 												{
													"maxclass" : "flonum",
													"id" : "obj-7",
													"outlettype" : [ "float", "bang" ],
													"fontname" : "Arial",
													"numinlets" : 1,
													"numoutlets" : 2,
													"patching_rect" : [ 135.0, 30.0, 58.0, 20.0 ],
													"fontsize" : 11.595187
												}

											}
, 											{
												"box" : 												{
													"maxclass" : "newobj",
													"text" : "phasor~ 440",
													"id" : "obj-6",
													"outlettype" : [ "signal" ],
													"fontname" : "Arial",
													"numinlets" : 2,
													"numoutlets" : 1,
													"patching_rect" : [ 135.0, 60.0, 75.0, 20.0 ],
													"fontsize" : 11.595187
												}

											}
, 											{
												"box" : 												{
													"maxclass" : "newobj",
													"text" : "loadmess 440",
													"id" : "obj-84",
													"outlettype" : [ "" ],
													"fontname" : "Arial",
													"numinlets" : 1,
													"numoutlets" : 1,
													"hidden" : 1,
													"patching_rect" : [ 90.0, 0.0, 83.0, 20.0 ],
													"fontsize" : 11.595187
												}

											}
, 											{
												"box" : 												{
													"maxclass" : "comment",
													"text" : "Set frequency",
													"id" : "obj-80",
													"fontname" : "Arial",
													"numinlets" : 1,
													"numoutlets" : 0,
													"patching_rect" : [ 75.0, 0.0, 83.0, 20.0 ],
													"fontsize" : 11.595187
												}

											}
, 											{
												"box" : 												{
													"maxclass" : "flonum",
													"id" : "obj-75",
													"outlettype" : [ "float", "bang" ],
													"fontname" : "Arial",
													"numinlets" : 1,
													"numoutlets" : 2,
													"patching_rect" : [ 15.0, 30.0, 58.0, 20.0 ],
													"fontsize" : 11.595187
												}

											}
, 											{
												"box" : 												{
													"maxclass" : "newobj",
													"text" : "cycle~ 440",
													"id" : "obj-70",
													"outlettype" : [ "signal" ],
													"fontname" : "Arial",
													"numinlets" : 2,
													"numoutlets" : 1,
													"patching_rect" : [ 15.0, 60.0, 66.0, 20.0 ],
													"fontsize" : 11.595187
												}

											}
, 											{
												"box" : 												{
													"maxclass" : "panel",
													"id" : "obj-74",
													"border" : 2,
													"bgcolor" : [ 0.858824, 0.858824, 0.858824, 1.0 ],
													"numinlets" : 1,
													"numoutlets" : 0,
													"patching_rect" : [ 0.0, 0.0, 240.0, 120.0 ]
												}

											}
 ],
										"lines" : [ 											{
												"patchline" : 												{
													"source" : [ "obj-84", 0 ],
													"destination" : [ "obj-75", 0 ],
													"hidden" : 0,
													"midpoints" : [  ]
												}

											}
, 											{
												"patchline" : 												{
													"source" : [ "obj-84", 0 ],
													"destination" : [ "obj-7", 0 ],
													"hidden" : 0,
													"midpoints" : [  ]
												}

											}
, 											{
												"patchline" : 												{
													"source" : [ "obj-75", 0 ],
													"destination" : [ "obj-70", 0 ],
													"hidden" : 0,
													"midpoints" : [  ]
												}

											}
, 											{
												"patchline" : 												{
													"source" : [ "obj-70", 0 ],
													"destination" : [ "obj-12", 0 ],
													"hidden" : 0,
													"midpoints" : [  ]
												}

											}
, 											{
												"patchline" : 												{
													"source" : [ "obj-7", 0 ],
													"destination" : [ "obj-6", 0 ],
													"hidden" : 0,
													"midpoints" : [  ]
												}

											}
, 											{
												"patchline" : 												{
													"source" : [ "obj-6", 0 ],
													"destination" : [ "obj-13", 0 ],
													"hidden" : 0,
													"midpoints" : [  ]
												}

											}
, 											{
												"patchline" : 												{
													"source" : [ "obj-14", 0 ],
													"destination" : [ "obj-12", 0 ],
													"hidden" : 0,
													"midpoints" : [  ]
												}

											}
, 											{
												"patchline" : 												{
													"source" : [ "obj-13", 0 ],
													"destination" : [ "obj-15", 0 ],
													"hidden" : 0,
													"midpoints" : [  ]
												}

											}
, 											{
												"patchline" : 												{
													"source" : [ "obj-12", 0 ],
													"destination" : [ "obj-15", 0 ],
													"hidden" : 0,
													"midpoints" : [  ]
												}

											}
 ]
									}

								}

							}
, 							{
								"box" : 								{
									"maxclass" : "bpatcher",
									"varname" : "dacodac",
									"presentation" : 1,
									"id" : "obj-8",
									"outlettype" : [ "signal" ],
									"name" : "Dacodac",
									"args" : [  ],
									"presentation_rect" : [ 105.0, 0.0, 240.0, 120.0 ],
									"numinlets" : 1,
									"numoutlets" : 1,
									"embed" : 1,
									"patching_rect" : [ 570.0, 145.0, 240.0, 120.0 ],
									"patcher" : 									{
										"fileversion" : 1,
										"appversion" : 										{
											"major" : 5,
											"minor" : 1,
											"revision" : 9
										}
,
										"rect" : [ 105.0, 0.0, 240.0, 120.0 ],
										"bgcolor" : [ 1.0, 1.0, 1.0, 0.0 ],
										"bglocked" : 0,
										"defrect" : [ 105.0, 0.0, 240.0, 120.0 ],
										"openrect" : [ 0.0, 0.0, 0.0, 0.0 ],
										"openinpresentation" : 0,
										"default_fontsize" : 12.0,
										"default_fontface" : 0,
										"default_fontname" : "Arial",
										"gridonopen" : 0,
										"gridsize" : [ 15.0, 15.0 ],
										"gridsnaponopen" : 0,
										"toolbarvisible" : 1,
										"boxanimatetime" : 200,
										"imprint" : 0,
										"enablehscroll" : 1,
										"enablevscroll" : 1,
										"devicewidth" : 0.0,
										"boxes" : [ 											{
												"box" : 												{
													"maxclass" : "inlet",
													"id" : "obj-19",
													"outlettype" : [ "" ],
													"numinlets" : 0,
													"numoutlets" : 1,
													"patching_rect" : [ 300.0, 60.0, 25.0, 25.0 ],
													"comment" : ""
												}

											}
, 											{
												"box" : 												{
													"maxclass" : "tab",
													"id" : "obj-7",
													"outlettype" : [ "int", "", "" ],
													"border" : 1,
													"fontname" : "Arial",
													"tabs" : [ "one", "two", "three", "four" ],
													"numinlets" : 1,
													"numoutlets" : 3,
													"patching_rect" : [ 20.0, 30.0, 200.0, 20.0 ],
													"fontsize" : 12.0
												}

											}
, 											{
												"box" : 												{
													"maxclass" : "comment",
													"text" : "Select channel",
													"id" : "obj-4",
													"fontname" : "Arial",
													"numinlets" : 1,
													"numoutlets" : 0,
													"patching_rect" : [ 75.0, 0.0, 90.0, 20.0 ],
													"fontsize" : 12.0
												}

											}
, 											{
												"box" : 												{
													"maxclass" : "outlet",
													"id" : "obj-2",
													"numinlets" : 1,
													"numoutlets" : 0,
													"patching_rect" : [ 96.5, 150.0, 25.0, 25.0 ],
													"comment" : ""
												}

											}
, 											{
												"box" : 												{
													"maxclass" : "newobj",
													"text" : "adc~ 1",
													"id" : "obj-1",
													"outlettype" : [ "signal" ],
													"fontname" : "Arial",
													"numinlets" : 1,
													"numoutlets" : 1,
													"patching_rect" : [ 96.5, 75.0, 47.0, 20.0 ],
													"fontsize" : 12.0
												}

											}
, 											{
												"box" : 												{
													"maxclass" : "panel",
													"id" : "obj-74",
													"border" : 2,
													"bgcolor" : [ 0.858824, 0.858824, 0.858824, 1.0 ],
													"numinlets" : 1,
													"numoutlets" : 0,
													"patching_rect" : [ 0.0, 0.0, 240.0, 120.0 ]
												}

											}
, 											{
												"box" : 												{
													"maxclass" : "message",
													"text" : "set $1",
													"id" : "obj-17",
													"outlettype" : [ "" ],
													"fontname" : "Arial",
													"numinlets" : 2,
													"numoutlets" : 1,
													"patching_rect" : [ 20.0, 90.0, 43.0, 18.0 ],
													"fontsize" : 12.0
												}

											}
, 											{
												"box" : 												{
													"maxclass" : "newobj",
													"text" : "+ 1",
													"id" : "obj-12",
													"outlettype" : [ "int" ],
													"fontname" : "Arial",
													"numinlets" : 2,
													"numoutlets" : 1,
													"patching_rect" : [ 20.0, 50.0, 32.5, 20.0 ],
													"fontsize" : 12.0
												}

											}
 ],
										"lines" : [ 											{
												"patchline" : 												{
													"source" : [ "obj-7", 0 ],
													"destination" : [ "obj-12", 0 ],
													"hidden" : 0,
													"midpoints" : [  ]
												}

											}
, 											{
												"patchline" : 												{
													"source" : [ "obj-17", 0 ],
													"destination" : [ "obj-1", 0 ],
													"hidden" : 0,
													"midpoints" : [  ]
												}

											}
, 											{
												"patchline" : 												{
													"source" : [ "obj-12", 0 ],
													"destination" : [ "obj-17", 0 ],
													"hidden" : 0,
													"midpoints" : [  ]
												}

											}
, 											{
												"patchline" : 												{
													"source" : [ "obj-1", 0 ],
													"destination" : [ "obj-2", 0 ],
													"hidden" : 0,
													"midpoints" : [  ]
												}

											}
 ]
									}

								}

							}
, 							{
								"box" : 								{
									"maxclass" : "message",
									"text" : "script bringtofront cyclophaso",
									"id" : "obj-20",
									"outlettype" : [ "" ],
									"fontname" : "Arial",
									"numinlets" : 2,
									"numoutlets" : 1,
									"patching_rect" : [ 426.0, 328.5, 161.0, 18.0 ],
									"fontsize" : 11.595187
								}

							}
, 							{
								"box" : 								{
									"maxclass" : "message",
									"text" : "script bringtofront Soundofile",
									"id" : "obj-19",
									"outlettype" : [ "" ],
									"fontname" : "Arial",
									"numinlets" : 2,
									"numoutlets" : 1,
									"patching_rect" : [ 270.0, 340.0, 158.0, 18.0 ],
									"fontsize" : 11.595187
								}

							}
, 							{
								"box" : 								{
									"maxclass" : "message",
									"text" : "script bringtofront dacodac",
									"id" : "obj-18",
									"outlettype" : [ "" ],
									"fontname" : "Arial",
									"numinlets" : 2,
									"numoutlets" : 1,
									"patching_rect" : [ 330.0, 285.0, 147.0, 18.0 ],
									"fontsize" : 11.595187
								}

							}
, 							{
								"box" : 								{
									"maxclass" : "message",
									"text" : "script bringtofront noiso",
									"id" : "obj-17",
									"outlettype" : [ "" ],
									"fontname" : "Arial",
									"numinlets" : 2,
									"numoutlets" : 1,
									"patching_rect" : [ 180.0, 297.0, 131.0, 18.0 ],
									"fontsize" : 11.595187
								}

							}
, 							{
								"box" : 								{
									"maxclass" : "newobj",
									"text" : "sel 1 2 3 4",
									"id" : "obj-10",
									"outlettype" : [ "bang", "bang", "bang", "bang", "" ],
									"fontname" : "Arial",
									"numinlets" : 1,
									"numoutlets" : 5,
									"patching_rect" : [ 180.0, 255.0, 73.0, 20.0 ],
									"fontsize" : 12.0
								}

							}
, 							{
								"box" : 								{
									"maxclass" : "newobj",
									"text" : "thispatcher",
									"id" : "obj-9",
									"outlettype" : [ "", "" ],
									"fontname" : "Arial",
									"numinlets" : 1,
									"numoutlets" : 2,
									"patching_rect" : [ 195.0, 390.0, 69.0, 20.0 ],
									"fontsize" : 12.0,
									"save" : [ "#N", "thispatcher", ";", "#Q", "end", ";" ]
								}

							}
, 							{
								"box" : 								{
									"maxclass" : "gain~",
									"presentation" : 1,
									"id" : "obj-78",
									"outlettype" : [ "signal", "int" ],
									"presentation_rect" : [ 7.5, 77.0, 88.0, 18.0 ],
									"numinlets" : 2,
									"numoutlets" : 2,
									"patching_rect" : [ 7.5, 77.0, 88.0, 18.0 ]
								}

							}
, 							{
								"box" : 								{
									"maxclass" : "outlet",
									"id" : "obj-2",
									"numinlets" : 1,
									"numoutlets" : 0,
									"patching_rect" : [ 30.0, 240.0, 25.0, 25.0 ],
									"comment" : ""
								}

							}
, 							{
								"box" : 								{
									"maxclass" : "newobj",
									"text" : "loadmess 2",
									"presentation" : 1,
									"id" : "obj-100",
									"outlettype" : [ "" ],
									"fontname" : "Arial",
									"presentation_rect" : [ 7.5, 0.0, 70.0, 20.0 ],
									"numinlets" : 1,
									"numoutlets" : 1,
									"hidden" : 1,
									"patching_rect" : [ 7.5, 0.0, 70.0, 20.0 ],
									"fontsize" : 11.595187
								}

							}
, 							{
								"box" : 								{
									"maxclass" : "comment",
									"text" : "Select source",
									"presentation" : 1,
									"id" : "obj-42",
									"fontname" : "Arial",
									"presentation_rect" : [ 7.5, 15.0, 88.0, 20.0 ],
									"numinlets" : 1,
									"numoutlets" : 0,
									"patching_rect" : [ 7.5, 15.0, 88.0, 20.0 ],
									"fontsize" : 11.595187
								}

							}
, 							{
								"box" : 								{
									"maxclass" : "umenu",
									"presentation" : 1,
									"id" : "obj-37",
									"outlettype" : [ "int", "", "" ],
									"fontname" : "Arial",
									"presentation_rect" : [ 7.5, 44.0, 88.0, 20.0 ],
									"items" : [ "None", ",", "Audio", "file", ",", "Noise", ",", "Cycle~", ",", "Adc~" ],
									"numinlets" : 1,
									"numoutlets" : 3,
									"types" : [  ],
									"patching_rect" : [ 7.5, 44.0, 88.0, 20.0 ],
									"fontsize" : 11.595187
								}

							}
, 							{
								"box" : 								{
									"maxclass" : "newobj",
									"text" : "selector~ 4",
									"id" : "obj-29",
									"outlettype" : [ "signal" ],
									"fontname" : "Arial",
									"numinlets" : 5,
									"numoutlets" : 1,
									"patching_rect" : [ 150.0, 195.0, 73.0, 20.0 ],
									"fontsize" : 11.595187
								}

							}
, 							{
								"box" : 								{
									"maxclass" : "panel",
									"presentation" : 1,
									"id" : "obj-38",
									"border" : 2,
									"bgcolor" : [ 0.858824, 0.858824, 0.858824, 1.0 ],
									"presentation_rect" : [ 0.0, 0.0, 316.0, 120.0 ],
									"numinlets" : 1,
									"numoutlets" : 0,
									"patching_rect" : [ 0.0, 0.0, 120.0, 120.0 ]
								}

							}
 ],
						"lines" : [ 							{
								"patchline" : 								{
									"source" : [ "obj-78", 0 ],
									"destination" : [ "obj-2", 0 ],
									"hidden" : 0,
									"midpoints" : [  ]
								}

							}
, 							{
								"patchline" : 								{
									"source" : [ "obj-8", 0 ],
									"destination" : [ "obj-29", 4 ],
									"hidden" : 0,
									"midpoints" : [  ]
								}

							}
, 							{
								"patchline" : 								{
									"source" : [ "obj-7", 0 ],
									"destination" : [ "obj-29", 3 ],
									"hidden" : 0,
									"midpoints" : [  ]
								}

							}
, 							{
								"patchline" : 								{
									"source" : [ "obj-6", 0 ],
									"destination" : [ "obj-29", 2 ],
									"hidden" : 0,
									"midpoints" : [  ]
								}

							}
, 							{
								"patchline" : 								{
									"source" : [ "obj-4", 0 ],
									"destination" : [ "obj-29", 1 ],
									"hidden" : 0,
									"midpoints" : [  ]
								}

							}
, 							{
								"patchline" : 								{
									"source" : [ "obj-37", 0 ],
									"destination" : [ "obj-29", 0 ],
									"hidden" : 0,
									"midpoints" : [  ]
								}

							}
, 							{
								"patchline" : 								{
									"source" : [ "obj-37", 0 ],
									"destination" : [ "obj-10", 0 ],
									"hidden" : 0,
									"midpoints" : [  ]
								}

							}
, 							{
								"patchline" : 								{
									"source" : [ "obj-29", 0 ],
									"destination" : [ "obj-78", 0 ],
									"hidden" : 0,
									"midpoints" : [  ]
								}

							}
, 							{
								"patchline" : 								{
									"source" : [ "obj-20", 0 ],
									"destination" : [ "obj-9", 0 ],
									"hidden" : 0,
									"midpoints" : [  ]
								}

							}
, 							{
								"patchline" : 								{
									"source" : [ "obj-19", 0 ],
									"destination" : [ "obj-9", 0 ],
									"hidden" : 0,
									"midpoints" : [  ]
								}

							}
, 							{
								"patchline" : 								{
									"source" : [ "obj-18", 0 ],
									"destination" : [ "obj-9", 0 ],
									"hidden" : 0,
									"midpoints" : [  ]
								}

							}
, 							{
								"patchline" : 								{
									"source" : [ "obj-17", 0 ],
									"destination" : [ "obj-9", 0 ],
									"hidden" : 0,
									"midpoints" : [  ]
								}

							}
, 							{
								"patchline" : 								{
									"source" : [ "obj-100", 0 ],
									"destination" : [ "obj-37", 0 ],
									"hidden" : 0,
									"midpoints" : [  ]
								}

							}
, 							{
								"patchline" : 								{
									"source" : [ "obj-10", 2 ],
									"destination" : [ "obj-20", 0 ],
									"hidden" : 0,
									"midpoints" : [  ]
								}

							}
, 							{
								"patchline" : 								{
									"source" : [ "obj-10", 0 ],
									"destination" : [ "obj-19", 0 ],
									"hidden" : 0,
									"midpoints" : [  ]
								}

							}
, 							{
								"patchline" : 								{
									"source" : [ "obj-10", 3 ],
									"destination" : [ "obj-18", 0 ],
									"hidden" : 0,
									"midpoints" : [  ]
								}

							}
, 							{
								"patchline" : 								{
									"source" : [ "obj-10", 1 ],
									"destination" : [ "obj-17", 0 ],
									"hidden" : 0,
									"midpoints" : [  ]
								}

							}
 ]
					}

				}

			}
, 			{
				"box" : 				{
					"maxclass" : "ezdac~",
					"id" : "obj-32",
					"local" : 1,
					"numinlets" : 2,
					"numoutlets" : 0,
					"patching_rect" : [ 490.0, 167.0, 45.0, 45.0 ]
				}

			}
, 			{
				"box" : 				{
					"maxclass" : "comment",
					"text" : "Audio On/Off : spacebar",
					"id" : "obj-33",
					"fontname" : "Arial",
					"numinlets" : 1,
					"numoutlets" : 0,
					"patching_rect" : [ 448.375, 127.5, 150.0, 20.0 ],
					"fontsize" : 12.0
				}

			}
, 			{
				"box" : 				{
					"maxclass" : "newobj",
					"text" : "p audioPanic 32",
					"id" : "obj-34",
					"fontname" : "Arial",
					"numinlets" : 1,
					"numoutlets" : 0,
					"patching_rect" : [ 464.0, 147.5, 97.0, 20.0 ],
					"fontsize" : 12.0,
					"patcher" : 					{
						"fileversion" : 1,
						"appversion" : 						{
							"major" : 5,
							"minor" : 1,
							"revision" : 9
						}
,
						"rect" : [ 363.0, 100.0, 640.0, 480.0 ],
						"bglocked" : 0,
						"defrect" : [ 363.0, 100.0, 640.0, 480.0 ],
						"openrect" : [ 0.0, 0.0, 0.0, 0.0 ],
						"openinpresentation" : 0,
						"default_fontsize" : 12.0,
						"default_fontface" : 0,
						"default_fontname" : "Arial",
						"gridonopen" : 0,
						"gridsize" : [ 15.0, 15.0 ],
						"gridsnaponopen" : 0,
						"toolbarvisible" : 1,
						"boxanimatetime" : 200,
						"imprint" : 0,
						"enablehscroll" : 1,
						"enablevscroll" : 1,
						"devicewidth" : 0.0,
						"boxes" : [ 							{
								"box" : 								{
									"maxclass" : "button",
									"id" : "obj-32",
									"outlettype" : [ "bang" ],
									"numinlets" : 1,
									"numoutlets" : 1,
									"patching_rect" : [ 120.0, 270.0, 20.0, 20.0 ]
								}

							}
, 							{
								"box" : 								{
									"maxclass" : "newobj",
									"text" : "togedge",
									"id" : "obj-26",
									"outlettype" : [ "bang", "bang" ],
									"fontname" : "Arial",
									"numinlets" : 1,
									"numoutlets" : 2,
									"patching_rect" : [ 120.0, 240.0, 54.0, 20.0 ],
									"fontsize" : 12.0
								}

							}
, 							{
								"box" : 								{
									"maxclass" : "newobj",
									"text" : "!=",
									"id" : "obj-25",
									"outlettype" : [ "int" ],
									"fontname" : "Arial",
									"numinlets" : 2,
									"numoutlets" : 1,
									"patching_rect" : [ 120.0, 210.0, 33.5, 20.0 ],
									"fontsize" : 12.0
								}

							}
, 							{
								"box" : 								{
									"maxclass" : "newobj",
									"text" : "dac~",
									"id" : "obj-22",
									"fontname" : "Arial",
									"numinlets" : 2,
									"numoutlets" : 0,
									"patching_rect" : [ 45.0, 315.0, 37.0, 20.0 ],
									"fontsize" : 12.0
								}

							}
, 							{
								"box" : 								{
									"maxclass" : "newobj",
									"text" : "dspstate~",
									"id" : "obj-3",
									"outlettype" : [ "int", "float", "int", "int" ],
									"fontname" : "Arial",
									"numinlets" : 1,
									"numoutlets" : 4,
									"patching_rect" : [ 120.0, 150.0, 63.0, 20.0 ],
									"fontsize" : 12.0
								}

							}
, 							{
								"box" : 								{
									"maxclass" : "inlet",
									"id" : "obj-2",
									"outlettype" : [ "" ],
									"numinlets" : 0,
									"numoutlets" : 1,
									"patching_rect" : [ 120.0, 60.0, 25.0, 25.0 ],
									"comment" : "ASCII Code of key pressed"
								}

							}
, 							{
								"box" : 								{
									"maxclass" : "newobj",
									"text" : "zl slice 1",
									"id" : "obj-1",
									"outlettype" : [ "", "" ],
									"fontname" : "Arial",
									"numinlets" : 2,
									"numoutlets" : 2,
									"patching_rect" : [ 150.0, 90.0, 57.0, 20.0 ],
									"fontsize" : 12.0
								}

							}
, 							{
								"box" : 								{
									"maxclass" : "newobj",
									"text" : "patcherargs",
									"id" : "obj-8",
									"outlettype" : [ "", "" ],
									"fontname" : "Arial",
									"numinlets" : 1,
									"numoutlets" : 2,
									"patching_rect" : [ 150.0, 60.0, 74.0, 20.0 ],
									"fontsize" : 12.0
								}

							}
, 							{
								"box" : 								{
									"maxclass" : "newobj",
									"text" : "sel 32",
									"id" : "obj-29",
									"outlettype" : [ "bang", "" ],
									"fontname" : "Arial",
									"numinlets" : 2,
									"numoutlets" : 2,
									"patching_rect" : [ 45.0, 120.0, 43.0, 20.0 ],
									"fontsize" : 12.0
								}

							}
, 							{
								"box" : 								{
									"maxclass" : "newobj",
									"text" : "key",
									"id" : "obj-28",
									"outlettype" : [ "int", "int", "int", "int" ],
									"fontname" : "Arial",
									"numinlets" : 0,
									"numoutlets" : 4,
									"patching_rect" : [ 45.0, 60.0, 59.5, 20.0 ],
									"fontsize" : 12.0
								}

							}
, 							{
								"box" : 								{
									"maxclass" : "toggle",
									"id" : "obj-4",
									"outlettype" : [ "int" ],
									"numinlets" : 1,
									"numoutlets" : 1,
									"patching_rect" : [ 45.0, 165.0, 20.0, 20.0 ]
								}

							}
 ],
						"lines" : [ 							{
								"patchline" : 								{
									"source" : [ "obj-8", 0 ],
									"destination" : [ "obj-1", 0 ],
									"hidden" : 0,
									"midpoints" : [  ]
								}

							}
, 							{
								"patchline" : 								{
									"source" : [ "obj-4", 0 ],
									"destination" : [ "obj-25", 1 ],
									"hidden" : 0,
									"midpoints" : [ 54.5, 195.0, 144.0, 195.0 ]
								}

							}
, 							{
								"patchline" : 								{
									"source" : [ "obj-4", 0 ],
									"destination" : [ "obj-22", 0 ],
									"hidden" : 0,
									"midpoints" : [  ]
								}

							}
, 							{
								"patchline" : 								{
									"source" : [ "obj-32", 0 ],
									"destination" : [ "obj-4", 0 ],
									"hidden" : 0,
									"midpoints" : [ 129.5, 291.0, 75.0, 291.0, 75.0, 162.0, 54.5, 162.0 ]
								}

							}
, 							{
								"patchline" : 								{
									"source" : [ "obj-3", 0 ],
									"destination" : [ "obj-25", 0 ],
									"hidden" : 0,
									"midpoints" : [  ]
								}

							}
, 							{
								"patchline" : 								{
									"source" : [ "obj-29", 0 ],
									"destination" : [ "obj-4", 0 ],
									"hidden" : 0,
									"midpoints" : [  ]
								}

							}
, 							{
								"patchline" : 								{
									"source" : [ "obj-28", 0 ],
									"destination" : [ "obj-29", 0 ],
									"hidden" : 0,
									"midpoints" : [  ]
								}

							}
, 							{
								"patchline" : 								{
									"source" : [ "obj-26", 0 ],
									"destination" : [ "obj-32", 0 ],
									"hidden" : 0,
									"midpoints" : [  ]
								}

							}
, 							{
								"patchline" : 								{
									"source" : [ "obj-25", 0 ],
									"destination" : [ "obj-26", 0 ],
									"hidden" : 0,
									"midpoints" : [  ]
								}

							}
, 							{
								"patchline" : 								{
									"source" : [ "obj-2", 0 ],
									"destination" : [ "obj-29", 1 ],
									"hidden" : 0,
									"midpoints" : [ 129.5, 105.0, 78.5, 105.0 ]
								}

							}
, 							{
								"patchline" : 								{
									"source" : [ "obj-1", 1 ],
									"destination" : [ "obj-29", 1 ],
									"hidden" : 0,
									"midpoints" : [ 197.5, 119.0, 78.5, 119.0 ]
								}

							}
 ]
					}
,
					"saved_object_attributes" : 					{
						"default_fontface" : 0,
						"globalpatchername" : "",
						"default_fontname" : "Arial",
						"fontname" : "Arial",
						"default_fontsize" : 12.0,
						"fontface" : 0,
						"fontsize" : 12.0
					}

				}

			}
, 			{
				"box" : 				{
					"maxclass" : "panel",
					"id" : "obj-35",
					"border" : 2,
					"bgcolor" : [ 0.858824, 0.858824, 0.858824, 1.0 ],
					"numinlets" : 1,
					"numoutlets" : 0,
					"patching_rect" : [ 435.0, 120.0, 177.25, 122.0 ]
				}

			}
, 			{
				"box" : 				{
					"maxclass" : "comment",
					"text" : "hoa.encoder~ by Julien Colafrancesco & Pierre Guillot\n 2012 CICM / Universite Paris 8",
					"linecount" : 2,
					"id" : "obj-59",
					"fontname" : "Arial",
					"numinlets" : 1,
					"numoutlets" : 0,
					"patching_rect" : [ 497.75, 6.0, 293.0, 33.0 ],
					"fontsize" : 11.595187
				}

			}
, 			{
				"box" : 				{
					"maxclass" : "comment",
					"varname" : "autohelp_top_title",
					"text" : "hoa.encoder~",
					"frgb" : [ 0.93, 0.93, 0.97, 1.0 ],
					"id" : "obj-2",
					"textcolor" : [ 0.93, 0.93, 0.97, 1.0 ],
					"fontname" : "Arial",
					"numinlets" : 1,
					"numoutlets" : 0,
					"fontface" : 3,
					"patching_rect" : [ 7.0, 6.0, 485.0, 30.0 ],
					"fontsize" : 20.871338
				}

			}
, 			{
				"box" : 				{
					"maxclass" : "comment",
					"varname" : "autohelp_top_digest",
					"text" : "A high order ambisonic encoder.",
					"frgb" : [ 0.93, 0.93, 0.97, 1.0 ],
					"id" : "obj-3",
					"textcolor" : [ 0.93, 0.93, 0.97, 1.0 ],
					"fontname" : "Arial",
					"numinlets" : 1,
					"numoutlets" : 0,
					"patching_rect" : [ 7.0, 35.0, 503.0, 21.0 ],
					"fontsize" : 12.754705
				}

			}
, 			{
				"box" : 				{
					"maxclass" : "comment",
					"varname" : "autohelp_top_description",
					"text" : "hoa.encoder~ is a sound spatializer that uses ambisonic algorithm.",
					"id" : "obj-5",
					"fontname" : "Arial",
					"numinlets" : 1,
					"numoutlets" : 0,
					"patching_rect" : [ 7.0, 56.0, 510.0, 20.0 ],
					"fontsize" : 11.595187
				}

			}
, 			{
				"box" : 				{
					"maxclass" : "newobj",
					"text" : "r huygens",
					"id" : "obj-46",
					"outlettype" : [ "" ],
					"fontname" : "Arial",
					"numinlets" : 0,
					"numoutlets" : 1,
					"patching_rect" : [ 795.0, 225.0, 61.0, 20.0 ],
					"fontsize" : 11.595187
				}

			}
, 			{
				"box" : 				{
					"maxclass" : "newobj",
					"text" : "route delta shape distance",
					"id" : "obj-45",
					"outlettype" : [ "", "", "", "" ],
					"fontname" : "Arial",
					"numinlets" : 1,
					"numoutlets" : 4,
					"patching_rect" : [ 855.0, 195.0, 147.0, 20.0 ],
					"fontsize" : 11.595187
				}

			}
, 			{
				"box" : 				{
					"maxclass" : "panel",
					"id" : "obj-1",
					"border" : 2,
					"bgcolor" : [ 0.858824, 0.858824, 0.858824, 1.0 ],
					"numinlets" : 1,
					"numoutlets" : 0,
					"patching_rect" : [ 750.0, 135.0, 453.25, 481.0 ]
				}

			}
, 			{
				"box" : 				{
					"maxclass" : "panel",
					"varname" : "autohelp_top_panel",
					"id" : "obj-9",
					"mode" : 1,
					"grad1" : [ 0.27, 0.35, 0.47, 1.0 ],
					"background" : 1,
					"grad2" : [ 0.85, 0.85, 0.85, 1.0 ],
					"numinlets" : 1,
					"numoutlets" : 0,
					"patching_rect" : [ 2.0, 4.0, 495.0, 52.0 ]
				}

			}
 ],
		"lines" : [ 			{
				"patchline" : 				{
					"source" : [ "obj-64", 0 ],
					"destination" : [ "obj-12", 1 ],
					"hidden" : 0,
					"midpoints" : [  ]
				}

			}
, 			{
				"patchline" : 				{
					"source" : [ "obj-74", 0 ],
					"destination" : [ "obj-12", 0 ],
					"hidden" : 0,
					"midpoints" : [  ]
				}

			}
, 			{
				"patchline" : 				{
					"source" : [ "obj-12", 0 ],
					"destination" : [ "obj-8", 0 ],
					"hidden" : 0,
					"midpoints" : [  ]
				}

			}
, 			{
				"patchline" : 				{
					"source" : [ "obj-12", 1 ],
					"destination" : [ "obj-16", 0 ],
					"hidden" : 0,
					"midpoints" : [  ]
				}

			}
, 			{
				"patchline" : 				{
					"source" : [ "obj-12", 2 ],
					"destination" : [ "obj-29", 0 ],
					"hidden" : 0,
					"midpoints" : [  ]
				}

			}
, 			{
				"patchline" : 				{
					"source" : [ "obj-12", 3 ],
					"destination" : [ "obj-25", 0 ],
					"hidden" : 0,
					"midpoints" : [  ]
				}

			}
, 			{
				"patchline" : 				{
					"source" : [ "obj-12", 4 ],
					"destination" : [ "obj-50", 0 ],
					"hidden" : 0,
					"midpoints" : [  ]
				}

			}
, 			{
				"patchline" : 				{
					"source" : [ "obj-12", 5 ],
					"destination" : [ "obj-48", 0 ],
					"hidden" : 0,
					"midpoints" : [  ]
				}

			}
, 			{
				"patchline" : 				{
					"source" : [ "obj-12", 6 ],
					"destination" : [ "obj-40", 0 ],
					"hidden" : 0,
					"midpoints" : [  ]
				}

			}
, 			{
				"patchline" : 				{
					"source" : [ "obj-12", 7 ],
					"destination" : [ "obj-38", 0 ],
					"hidden" : 0,
					"midpoints" : [  ]
				}

			}
, 			{
				"patchline" : 				{
					"source" : [ "obj-12", 8 ],
					"destination" : [ "obj-61", 0 ],
					"hidden" : 0,
					"midpoints" : [  ]
				}

			}
, 			{
				"patchline" : 				{
					"source" : [ "obj-12", 9 ],
					"destination" : [ "obj-60", 0 ],
					"hidden" : 0,
					"midpoints" : [  ]
				}

			}
, 			{
				"patchline" : 				{
					"source" : [ "obj-12", 10 ],
					"destination" : [ "obj-58", 0 ],
					"hidden" : 0,
					"midpoints" : [  ]
				}

			}
, 			{
				"patchline" : 				{
					"source" : [ "obj-12", 11 ],
					"destination" : [ "obj-57", 0 ],
					"hidden" : 0,
					"midpoints" : [  ]
				}

			}
, 			{
				"patchline" : 				{
					"source" : [ "obj-12", 12 ],
					"destination" : [ "obj-56", 0 ],
					"hidden" : 0,
					"midpoints" : [  ]
				}

			}
, 			{
				"patchline" : 				{
					"source" : [ "obj-12", 13 ],
					"destination" : [ "obj-55", 0 ],
					"hidden" : 0,
					"midpoints" : [  ]
				}

			}
, 			{
				"patchline" : 				{
					"source" : [ "obj-12", 14 ],
					"destination" : [ "obj-54", 0 ],
					"hidden" : 0,
					"midpoints" : [  ]
				}

			}
, 			{
				"patchline" : 				{
					"source" : [ "obj-22", 0 ],
					"destination" : [ "obj-64", 0 ],
					"hidden" : 0,
					"midpoints" : [  ]
				}

			}
, 			{
				"patchline" : 				{
					"source" : [ "obj-63", 0 ],
					"destination" : [ "obj-32", 0 ],
					"hidden" : 0,
					"midpoints" : [  ]
				}

			}
, 			{
				"patchline" : 				{
					"source" : [ "obj-19", 0 ],
					"destination" : [ "obj-68", 0 ],
					"hidden" : 0,
					"color" : [ 0.0, 0.0, 0.0, 0.0 ],
					"midpoints" : [  ]
				}

			}
, 			{
				"patchline" : 				{
					"source" : [ "obj-19", 0 ],
					"destination" : [ "obj-7", 0 ],
					"hidden" : 0,
					"color" : [ 0.0, 0.0, 0.0, 0.0 ],
					"midpoints" : [  ]
				}

			}
, 			{
				"patchline" : 				{
					"source" : [ "obj-7", 0 ],
					"destination" : [ "obj-19", 0 ],
					"hidden" : 0,
					"color" : [ 0.0, 0.0, 0.0, 0.0 ],
					"midpoints" : [  ]
				}

			}
, 			{
				"patchline" : 				{
					"source" : [ "obj-17", 0 ],
					"destination" : [ "obj-15", 0 ],
					"hidden" : 0,
					"midpoints" : [  ]
				}

			}
, 			{
				"patchline" : 				{
					"source" : [ "obj-68", 0 ],
					"destination" : [ "obj-14", 0 ],
					"hidden" : 1,
					"midpoints" : [  ]
				}

			}
, 			{
				"patchline" : 				{
					"source" : [ "obj-39", 0 ],
					"destination" : [ "obj-20", 0 ],
					"hidden" : 0,
					"midpoints" : [  ]
				}

			}
, 			{
				"patchline" : 				{
					"source" : [ "obj-37", 0 ],
					"destination" : [ "obj-30", 0 ],
					"hidden" : 0,
					"midpoints" : [  ]
				}

			}
, 			{
				"patchline" : 				{
					"source" : [ "obj-30", 0 ],
					"destination" : [ "obj-31", 0 ],
					"hidden" : 0,
					"midpoints" : [  ]
				}

			}
, 			{
				"patchline" : 				{
					"source" : [ "obj-20", 0 ],
					"destination" : [ "obj-21", 0 ],
					"hidden" : 0,
					"midpoints" : [  ]
				}

			}
, 			{
				"patchline" : 				{
					"source" : [ "obj-15", 0 ],
					"destination" : [ "obj-11", 0 ],
					"hidden" : 0,
					"midpoints" : [  ]
				}

			}
, 			{
				"patchline" : 				{
					"source" : [ "obj-27", 0 ],
					"destination" : [ "obj-28", 0 ],
					"hidden" : 0,
					"midpoints" : [  ]
				}

			}
, 			{
				"patchline" : 				{
					"source" : [ "obj-47", 0 ],
					"destination" : [ "obj-37", 0 ],
					"hidden" : 0,
					"midpoints" : [  ]
				}

			}
, 			{
				"patchline" : 				{
					"source" : [ "obj-51", 0 ],
					"destination" : [ "obj-39", 0 ],
					"hidden" : 0,
					"midpoints" : [  ]
				}

			}
, 			{
				"patchline" : 				{
					"source" : [ "obj-52", 0 ],
					"destination" : [ "obj-27", 0 ],
					"hidden" : 0,
					"midpoints" : [  ]
				}

			}
, 			{
				"patchline" : 				{
					"source" : [ "obj-6", 0 ],
					"destination" : [ "obj-52", 0 ],
					"hidden" : 0,
					"midpoints" : [  ]
				}

			}
, 			{
				"patchline" : 				{
					"source" : [ "obj-13", 0 ],
					"destination" : [ "obj-17", 0 ],
					"hidden" : 0,
					"midpoints" : [  ]
				}

			}
, 			{
				"patchline" : 				{
					"source" : [ "obj-46", 0 ],
					"destination" : [ "obj-45", 0 ],
					"hidden" : 0,
					"midpoints" : [  ]
				}

			}
 ]
	}

}
