{
	"patcher" : 	{
		"fileversion" : 1,
		"rect" : [ 111.0, 68.0, 1131.0, 684.0 ],
		"bglocked" : 0,
		"defrect" : [ 111.0, 68.0, 1131.0, 684.0 ],
		"openrect" : [ 0.0, 0.0, 0.0, 0.0 ],
		"openinpresentation" : 0,
		"default_fontsize" : 11.595187,
		"default_fontface" : 0,
		"default_fontname" : "Arial",
		"gridonopen" : 0,
		"gridsize" : [ 15.0, 15.0 ],
		"gridsnaponopen" : 0,
		"toolbarvisible" : 1,
		"boxanimatetime" : 200,
		"imprint" : 0,
		"boxes" : [ 			{
				"box" : 				{
					"maxclass" : "newobj",
					"text" : "sel 32",
					"id" : "obj-21",
					"numoutlets" : 2,
					"outlettype" : [ "bang", "" ],
					"fontname" : "Arial",
					"numinlets" : 2,
					"patching_rect" : [ 690.0, 375.0, 41.0, 20.0 ],
					"fontsize" : 11.595187
				}

			}
, 			{
				"box" : 				{
					"maxclass" : "newobj",
					"text" : "key",
					"id" : "obj-20",
					"numoutlets" : 4,
					"outlettype" : [ "int", "int", "int", "int" ],
					"fontname" : "Arial",
					"numinlets" : 0,
					"patching_rect" : [ 690.0, 345.0, 59.5, 20.0 ],
					"fontsize" : 11.595187
				}

			}
, 			{
				"box" : 				{
					"maxclass" : "newobj",
					"text" : "hoa.dac~ 1:16",
					"id" : "obj-14",
					"numoutlets" : 0,
					"fontname" : "Arial",
					"numinlets" : 16,
					"patching_rect" : [ 398.0, 518.0, 221.5, 20.0 ],
					"fontsize" : 11.595187
				}

			}
, 			{
				"box" : 				{
					"maxclass" : "message",
					"text" : "decoderOptim basic",
					"id" : "obj-10",
					"numoutlets" : 1,
					"outlettype" : [ "" ],
					"fontname" : "Arial",
					"numinlets" : 2,
					"patching_rect" : [ 482.0, 361.0, 114.0, 18.0 ],
					"fontsize" : 11.595187
				}

			}
, 			{
				"box" : 				{
					"maxclass" : "message",
					"text" : "decoderOptim inPhase",
					"id" : "obj-17",
					"numoutlets" : 1,
					"outlettype" : [ "" ],
					"fontname" : "Arial",
					"numinlets" : 2,
					"patching_rect" : [ 494.0, 407.0, 128.0, 18.0 ],
					"fontsize" : 11.595187
				}

			}
, 			{
				"box" : 				{
					"maxclass" : "message",
					"text" : "decoderOptim maxRe",
					"id" : "obj-15",
					"numoutlets" : 1,
					"outlettype" : [ "" ],
					"fontname" : "Arial",
					"numinlets" : 2,
					"patching_rect" : [ 479.0, 392.0, 123.0, 18.0 ],
					"fontsize" : 11.595187
				}

			}
, 			{
				"box" : 				{
					"maxclass" : "flonum",
					"id" : "obj-13",
					"numoutlets" : 2,
					"outlettype" : [ "float", "bang" ],
					"fontname" : "Arial",
					"numinlets" : 1,
					"patching_rect" : [ 323.0, 283.0, 50.0, 20.0 ],
					"fontsize" : 11.595187
				}

			}
, 			{
				"box" : 				{
					"maxclass" : "newobj",
					"text" : "*~ 3.141593",
					"id" : "obj-7",
					"numoutlets" : 1,
					"outlettype" : [ "signal" ],
					"fontname" : "Arial",
					"numinlets" : 2,
					"patching_rect" : [ 312.0, 369.0, 73.0, 20.0 ],
					"fontsize" : 11.595187
				}

			}
, 			{
				"box" : 				{
					"maxclass" : "newobj",
					"text" : "*~ 2",
					"id" : "obj-6",
					"numoutlets" : 1,
					"outlettype" : [ "signal" ],
					"fontname" : "Arial",
					"numinlets" : 2,
					"patching_rect" : [ 313.0, 341.0, 32.5, 20.0 ],
					"fontsize" : 11.595187
				}

			}
, 			{
				"box" : 				{
					"maxclass" : "newobj",
					"text" : "phasor~ 0.2",
					"id" : "obj-1",
					"numoutlets" : 1,
					"outlettype" : [ "signal" ],
					"fontname" : "Arial",
					"numinlets" : 2,
					"patching_rect" : [ 313.0, 310.0, 72.0, 20.0 ],
					"fontsize" : 11.595187
				}

			}
, 			{
				"box" : 				{
					"maxclass" : "number~",
					"id" : "obj-78",
					"numoutlets" : 2,
					"outlettype" : [ "signal", "float" ],
					"mode" : 2,
					"fontname" : "Arial",
					"numinlets" : 2,
					"sig" : 0.0,
					"patching_rect" : [ 255.0, 825.0, 32.799999, 20.0 ],
					"fontsize" : 11.595187
				}

			}
, 			{
				"box" : 				{
					"maxclass" : "button",
					"id" : "obj-11",
					"numoutlets" : 1,
					"outlettype" : [ "bang" ],
					"numinlets" : 1,
					"patching_rect" : [ 690.0, 405.0, 20.0, 20.0 ]
				}

			}
, 			{
				"box" : 				{
					"maxclass" : "newobj",
					"text" : "hoa.connect 7 16",
					"id" : "obj-8",
					"numoutlets" : 0,
					"fontname" : "Arial",
					"numinlets" : 1,
					"patching_rect" : [ 690.0, 435.0, 99.0, 20.0 ],
					"fontsize" : 11.595187
				}

			}
, 			{
				"box" : 				{
					"maxclass" : "meter~",
					"id" : "obj-66",
					"numoutlets" : 1,
					"outlettype" : [ "float" ],
					"numinlets" : 1,
					"patching_rect" : [ 298.0, 515.0, 12.0, 89.0 ]
				}

			}
, 			{
				"box" : 				{
					"maxclass" : "meter~",
					"id" : "obj-65",
					"numoutlets" : 1,
					"outlettype" : [ "float" ],
					"numinlets" : 1,
					"patching_rect" : [ 283.0, 515.0, 12.0, 89.0 ]
				}

			}
, 			{
				"box" : 				{
					"maxclass" : "meter~",
					"id" : "obj-62",
					"numoutlets" : 1,
					"outlettype" : [ "float" ],
					"numinlets" : 1,
					"patching_rect" : [ 268.0, 515.0, 12.0, 89.0 ]
				}

			}
, 			{
				"box" : 				{
					"maxclass" : "meter~",
					"id" : "obj-61",
					"numoutlets" : 1,
					"outlettype" : [ "float" ],
					"numinlets" : 1,
					"patching_rect" : [ 253.0, 515.0, 12.0, 89.0 ]
				}

			}
, 			{
				"box" : 				{
					"maxclass" : "meter~",
					"id" : "obj-60",
					"numoutlets" : 1,
					"outlettype" : [ "float" ],
					"numinlets" : 1,
					"patching_rect" : [ 238.0, 515.0, 12.0, 89.0 ]
				}

			}
, 			{
				"box" : 				{
					"maxclass" : "meter~",
					"id" : "obj-58",
					"numoutlets" : 1,
					"outlettype" : [ "float" ],
					"numinlets" : 1,
					"patching_rect" : [ 223.0, 515.0, 12.0, 89.0 ]
				}

			}
, 			{
				"box" : 				{
					"maxclass" : "meter~",
					"id" : "obj-57",
					"numoutlets" : 1,
					"outlettype" : [ "float" ],
					"numinlets" : 1,
					"patching_rect" : [ 208.0, 515.0, 12.0, 89.0 ]
				}

			}
, 			{
				"box" : 				{
					"maxclass" : "meter~",
					"id" : "obj-56",
					"numoutlets" : 1,
					"outlettype" : [ "float" ],
					"numinlets" : 1,
					"patching_rect" : [ 193.0, 515.0, 12.0, 89.0 ]
				}

			}
, 			{
				"box" : 				{
					"maxclass" : "meter~",
					"id" : "obj-55",
					"numoutlets" : 1,
					"outlettype" : [ "float" ],
					"numinlets" : 1,
					"patching_rect" : [ 178.0, 515.0, 12.0, 89.0 ]
				}

			}
, 			{
				"box" : 				{
					"maxclass" : "meter~",
					"id" : "obj-54",
					"numoutlets" : 1,
					"outlettype" : [ "float" ],
					"numinlets" : 1,
					"patching_rect" : [ 163.0, 515.0, 12.0, 89.0 ]
				}

			}
, 			{
				"box" : 				{
					"maxclass" : "meter~",
					"id" : "obj-50",
					"numoutlets" : 1,
					"outlettype" : [ "float" ],
					"numinlets" : 1,
					"patching_rect" : [ 148.0, 515.0, 12.0, 89.0 ]
				}

			}
, 			{
				"box" : 				{
					"maxclass" : "meter~",
					"id" : "obj-48",
					"numoutlets" : 1,
					"outlettype" : [ "float" ],
					"numinlets" : 1,
					"patching_rect" : [ 133.0, 515.0, 12.0, 89.0 ]
				}

			}
, 			{
				"box" : 				{
					"maxclass" : "meter~",
					"id" : "obj-40",
					"numoutlets" : 1,
					"outlettype" : [ "float" ],
					"numinlets" : 1,
					"patching_rect" : [ 118.0, 515.0, 12.0, 89.0 ]
				}

			}
, 			{
				"box" : 				{
					"maxclass" : "meter~",
					"id" : "obj-25",
					"numoutlets" : 1,
					"outlettype" : [ "float" ],
					"numinlets" : 1,
					"patching_rect" : [ 103.0, 515.0, 12.0, 89.0 ]
				}

			}
, 			{
				"box" : 				{
					"maxclass" : "meter~",
					"id" : "obj-18",
					"numoutlets" : 1,
					"outlettype" : [ "float" ],
					"numinlets" : 1,
					"patching_rect" : [ 88.0, 515.0, 12.0, 89.0 ]
				}

			}
, 			{
				"box" : 				{
					"maxclass" : "meter~",
					"id" : "obj-16",
					"numoutlets" : 1,
					"outlettype" : [ "float" ],
					"numinlets" : 1,
					"patching_rect" : [ 73.0, 515.0, 12.0, 89.0 ]
				}

			}
, 			{
				"box" : 				{
					"maxclass" : "newobj",
					"text" : "hoa.encoder~ 7",
					"id" : "obj-22",
					"numoutlets" : 15,
					"outlettype" : [ "signal", "signal", "signal", "signal", "signal", "signal", "signal", "signal", "signal", "signal", "signal", "signal", "signal", "signal", "signal" ],
					"fontname" : "Arial",
					"numinlets" : 2,
					"patching_rect" : [ 75.0, 405.0, 208.0, 20.0 ],
					"fontsize" : 11.595187
				}

			}
, 			{
				"box" : 				{
					"maxclass" : "message",
					"text" : "open",
					"id" : "obj-63",
					"numoutlets" : 1,
					"outlettype" : [ "" ],
					"fontname" : "Arial",
					"numinlets" : 2,
					"patching_rect" : [ 569.0, 149.0, 36.0, 18.0 ],
					"fontsize" : 11.595187
				}

			}
, 			{
				"box" : 				{
					"maxclass" : "newobj",
					"text" : "hoa.decoder~ 7 16",
					"id" : "obj-12",
					"numoutlets" : 16,
					"outlettype" : [ "signal", "signal", "signal", "signal", "signal", "signal", "signal", "signal", "signal", "signal", "signal", "signal", "signal", "signal", "signal", "signal" ],
					"fontname" : "Arial",
					"numinlets" : 15,
					"patching_rect" : [ 75.0, 435.0, 221.5, 20.0 ],
					"fontsize" : 12.0
				}

			}
, 			{
				"box" : 				{
					"maxclass" : "bpatcher",
					"id" : "obj-74",
					"numoutlets" : 1,
					"embed" : 1,
					"outlettype" : [ "signal" ],
					"name" : "AudioInput",
					"args" : [  ],
					"numinlets" : 0,
					"patching_rect" : [ 63.0, 124.0, 345.0, 122.0 ],
					"patcher" : 					{
						"fileversion" : 1,
						"rect" : [ 63.0, 124.0, 345.0, 122.0 ],
						"bgcolor" : [ 1.0, 1.0, 1.0, 0.0 ],
						"bglocked" : 0,
						"defrect" : [ 63.0, 124.0, 345.0, 122.0 ],
						"openrect" : [ 0.0, 0.0, 0.0, 0.0 ],
						"openinpresentation" : 1,
						"default_fontsize" : 12.0,
						"default_fontface" : 0,
						"default_fontname" : "Arial",
						"gridonopen" : 0,
						"gridsize" : [ 15.0, 15.0 ],
						"gridsnaponopen" : 0,
						"toolbarvisible" : 1,
						"boxanimatetime" : 200,
						"imprint" : 0,
						"boxes" : [ 							{
								"box" : 								{
									"maxclass" : "bpatcher",
									"varname" : "noiso",
									"id" : "obj-6",
									"numoutlets" : 1,
									"embed" : 1,
									"outlettype" : [ "signal" ],
									"name" : "Noise",
									"presentation_rect" : [ 105.0, 0.0, 240.0, 120.0 ],
									"args" : [  ],
									"numinlets" : 1,
									"patching_rect" : [ 270.0, 0.0, 240.0, 120.0 ],
									"presentation" : 1,
									"patcher" : 									{
										"fileversion" : 1,
										"rect" : [ 105.0, 0.0, 240.0, 120.0 ],
										"bgcolor" : [ 1.0, 1.0, 1.0, 0.0 ],
										"bglocked" : 0,
										"defrect" : [ 105.0, 0.0, 240.0, 120.0 ],
										"openrect" : [ 0.0, 0.0, 0.0, 0.0 ],
										"openinpresentation" : 0,
										"default_fontsize" : 12.0,
										"default_fontface" : 0,
										"default_fontname" : "Arial",
										"gridonopen" : 0,
										"gridsize" : [ 15.0, 15.0 ],
										"gridsnaponopen" : 0,
										"toolbarvisible" : 1,
										"boxanimatetime" : 200,
										"imprint" : 0,
										"boxes" : [ 											{
												"box" : 												{
													"maxclass" : "inlet",
													"id" : "obj-19",
													"numoutlets" : 1,
													"outlettype" : [ "" ],
													"numinlets" : 0,
													"patching_rect" : [ 330.0, 90.0, 25.0, 25.0 ],
													"comment" : ""
												}

											}
, 											{
												"box" : 												{
													"maxclass" : "outlet",
													"id" : "obj-1",
													"numoutlets" : 0,
													"numinlets" : 1,
													"patching_rect" : [ 75.0, 195.0, 25.0, 25.0 ],
													"comment" : ""
												}

											}
, 											{
												"box" : 												{
													"maxclass" : "newobj",
													"text" : "p noisy",
													"id" : "obj-24",
													"numoutlets" : 1,
													"outlettype" : [ "signal" ],
													"fontname" : "Arial",
													"numinlets" : 1,
													"patching_rect" : [ 75.0, 135.0, 47.0, 20.0 ],
													"fontsize" : 11.595187,
													"patcher" : 													{
														"fileversion" : 1,
														"rect" : [ 29.0, 67.0, 640.0, 480.0 ],
														"bglocked" : 0,
														"defrect" : [ 29.0, 67.0, 640.0, 480.0 ],
														"openrect" : [ 0.0, 0.0, 0.0, 0.0 ],
														"openinpresentation" : 0,
														"default_fontsize" : 12.0,
														"default_fontface" : 0,
														"default_fontname" : "Arial",
														"gridonopen" : 0,
														"gridsize" : [ 15.0, 15.0 ],
														"gridsnaponopen" : 0,
														"toolbarvisible" : 1,
														"boxanimatetime" : 200,
														"imprint" : 0,
														"boxes" : [ 															{
																"box" : 																{
																	"maxclass" : "newobj",
																	"text" : "noise~",
																	"id" : "obj-68",
																	"numoutlets" : 1,
																	"outlettype" : [ "signal" ],
																	"fontname" : "Arial",
																	"numinlets" : 1,
																	"patching_rect" : [ 50.0, 100.0, 43.0, 20.0 ],
																	"fontsize" : 11.595187
																}

															}
, 															{
																"box" : 																{
																	"maxclass" : "newobj",
																	"text" : "biquad~",
																	"id" : "obj-69",
																	"numoutlets" : 1,
																	"outlettype" : [ "signal" ],
																	"fontname" : "Arial",
																	"numinlets" : 6,
																	"patching_rect" : [ 215.0, 130.0, 79.0, 20.0 ],
																	"fontsize" : 11.595187
																}

															}
, 															{
																"box" : 																{
																	"maxclass" : "inlet",
																	"id" : "obj-16",
																	"numoutlets" : 1,
																	"outlettype" : [ "list" ],
																	"numinlets" : 0,
																	"patching_rect" : [ 227.0, 40.0, 25.0, 25.0 ],
																	"comment" : ""
																}

															}
, 															{
																"box" : 																{
																	"maxclass" : "outlet",
																	"id" : "obj-20",
																	"numoutlets" : 0,
																	"numinlets" : 1,
																	"patching_rect" : [ 215.0, 210.0, 25.0, 25.0 ],
																	"comment" : ""
																}

															}
 ],
														"lines" : [ 															{
																"patchline" : 																{
																	"source" : [ "obj-16", 0 ],
																	"destination" : [ "obj-69", 1 ],
																	"hidden" : 0,
																	"midpoints" : [  ]
																}

															}
, 															{
																"patchline" : 																{
																	"source" : [ "obj-68", 0 ],
																	"destination" : [ "obj-69", 0 ],
																	"hidden" : 0,
																	"midpoints" : [  ]
																}

															}
, 															{
																"patchline" : 																{
																	"source" : [ "obj-69", 0 ],
																	"destination" : [ "obj-20", 0 ],
																	"hidden" : 0,
																	"midpoints" : [  ]
																}

															}
 ]
													}
,
													"saved_object_attributes" : 													{
														"default_fontname" : "Arial",
														"default_fontsize" : 12.0,
														"globalpatchername" : "",
														"fontname" : "Arial",
														"default_fontface" : 0,
														"fontface" : 0,
														"fontsize" : 12.0
													}

												}

											}
, 											{
												"box" : 												{
													"maxclass" : "umenu",
													"id" : "obj-47",
													"numoutlets" : 3,
													"outlettype" : [ "int", "", "" ],
													"types" : [  ],
													"fontname" : "Arial",
													"items" : [ "display", ",", "lowpass", ",", "highpass", ",", "bandpass", ",", "bandstop", ",", "peaknotch", ",", "lowshelf", ",", "highshelf", ",", "resonant", ",", "allpass" ],
													"numinlets" : 1,
													"patching_rect" : [ 12.0, 7.5, 88.0, 20.0 ],
													"fontsize" : 11.595187
												}

											}
, 											{
												"box" : 												{
													"maxclass" : "filtergraph~",
													"id" : "obj-81",
													"bgcolor" : [ 0.913725, 0.913725, 1.0, 1.0 ],
													"numoutlets" : 7,
													"hcurvecolor" : [ 1.0, 0.086275, 0.086275, 1.0 ],
													"logfreq" : 0,
													"outlettype" : [ "list", "float", "float", "float", "float", "list", "int" ],
													"autoout" : 1,
													"markercolor" : [ 0.509804, 0.509804, 0.509804, 1.0 ],
													"fgcolor" : [ 0.756863, 0.756863, 1.0, 1.0 ],
													"domain" : [ 0.0, 22050.0 ],
													"hbwidthcolor" : [ 0.823529, 0.290196, 0.211765, 1.0 ],
													"numinlets" : 8,
													"bwidthcolor" : [ 0.462745, 0.47451, 0.65098, 1.0 ],
													"patching_rect" : [ 12.0, 27.5, 198.0, 77.5 ],
													"fontsize" : 8.998901,
													"nfilters" : 1,
													"setfilter" : [ 0, 1, 0, 0, 0, 1225.0, 1.0, 0.5, 0.0001, 22050.0, 0.0001, 16.0, 0.5, 25.0 ]
												}

											}
, 											{
												"box" : 												{
													"maxclass" : "panel",
													"id" : "obj-31",
													"bgcolor" : [ 0.858824, 0.858824, 0.858824, 1.0 ],
													"numoutlets" : 0,
													"border" : 2,
													"numinlets" : 1,
													"patching_rect" : [ 0.0, 0.0, 240.0, 120.0 ]
												}

											}
, 											{
												"box" : 												{
													"maxclass" : "comment",
													"text" : "Play with noise",
													"id" : "obj-41",
													"numoutlets" : 0,
													"fontname" : "Arial",
													"numinlets" : 1,
													"patching_rect" : [ 105.0, 15.0, 138.0, 20.0 ],
													"fontsize" : 11.595187
												}

											}
 ],
										"lines" : [ 											{
												"patchline" : 												{
													"source" : [ "obj-24", 0 ],
													"destination" : [ "obj-1", 0 ],
													"hidden" : 0,
													"midpoints" : [  ]
												}

											}
, 											{
												"patchline" : 												{
													"source" : [ "obj-47", 1 ],
													"destination" : [ "obj-81", 0 ],
													"hidden" : 0,
													"midpoints" : [  ]
												}

											}
, 											{
												"patchline" : 												{
													"source" : [ "obj-81", 0 ],
													"destination" : [ "obj-24", 0 ],
													"hidden" : 0,
													"midpoints" : [  ]
												}

											}
 ]
									}

								}

							}
, 							{
								"box" : 								{
									"maxclass" : "bpatcher",
									"varname" : "Soundofile",
									"id" : "obj-4",
									"numoutlets" : 1,
									"embed" : 1,
									"outlettype" : [ "signal" ],
									"name" : "SoundFile",
									"presentation_rect" : [ 105.0, 0.0, 240.0, 120.0 ],
									"args" : [  ],
									"numinlets" : 1,
									"patching_rect" : [ 195.0, 0.0, 240.0, 120.0 ],
									"presentation" : 1,
									"patcher" : 									{
										"fileversion" : 1,
										"rect" : [ 105.0, 0.0, 240.0, 120.0 ],
										"bgcolor" : [ 1.0, 1.0, 1.0, 0.0 ],
										"bglocked" : 0,
										"defrect" : [ 105.0, 0.0, 240.0, 120.0 ],
										"openrect" : [ 0.0, 0.0, 0.0, 0.0 ],
										"openinpresentation" : 0,
										"default_fontsize" : 12.0,
										"default_fontface" : 0,
										"default_fontname" : "Arial",
										"gridonopen" : 0,
										"gridsize" : [ 15.0, 15.0 ],
										"gridsnaponopen" : 0,
										"toolbarvisible" : 1,
										"boxanimatetime" : 200,
										"imprint" : 0,
										"boxes" : [ 											{
												"box" : 												{
													"maxclass" : "inlet",
													"id" : "obj-19",
													"numoutlets" : 1,
													"outlettype" : [ "" ],
													"numinlets" : 0,
													"patching_rect" : [ 345.0, 105.0, 25.0, 25.0 ],
													"comment" : ""
												}

											}
, 											{
												"box" : 												{
													"maxclass" : "outlet",
													"id" : "obj-1",
													"numoutlets" : 0,
													"numinlets" : 1,
													"patching_rect" : [ 45.0, 240.0, 25.0, 25.0 ],
													"comment" : ""
												}

											}
, 											{
												"box" : 												{
													"maxclass" : "newobj",
													"text" : "sfplay~ 2",
													"id" : "obj-6",
													"numoutlets" : 3,
													"outlettype" : [ "signal", "signal", "bang" ],
													"fontname" : "Arial",
													"numinlets" : 2,
													"patching_rect" : [ 16.0, 90.0, 59.0, 20.0 ],
													"fontsize" : 12.0,
													"save" : [ "#N", "sfplay~", "", 2, 120960, 0, "", ";" ]
												}

											}
, 											{
												"box" : 												{
													"maxclass" : "playbar",
													"id" : "obj-3",
													"numoutlets" : 2,
													"outlettype" : [ "", "int" ],
													"numinlets" : 1,
													"patching_rect" : [ 16.0, 54.5, 180.0, 15.0 ]
												}

											}
, 											{
												"box" : 												{
													"maxclass" : "message",
													"text" : "open",
													"id" : "obj-10",
													"numoutlets" : 1,
													"outlettype" : [ "" ],
													"fontname" : "Arial",
													"numinlets" : 2,
													"patching_rect" : [ 16.0, 14.0, 37.0, 18.0 ],
													"fontsize" : 12.0
												}

											}
, 											{
												"box" : 												{
													"maxclass" : "panel",
													"id" : "obj-36",
													"bgcolor" : [ 0.858824, 0.858824, 0.858824, 1.0 ],
													"numoutlets" : 0,
													"border" : 2,
													"numinlets" : 1,
													"patching_rect" : [ 0.0, 0.0, 240.0, 120.0 ]
												}

											}
 ],
										"lines" : [ 											{
												"patchline" : 												{
													"source" : [ "obj-10", 0 ],
													"destination" : [ "obj-6", 0 ],
													"hidden" : 0,
													"midpoints" : [  ]
												}

											}
, 											{
												"patchline" : 												{
													"source" : [ "obj-3", 0 ],
													"destination" : [ "obj-6", 0 ],
													"hidden" : 0,
													"midpoints" : [  ]
												}

											}
, 											{
												"patchline" : 												{
													"source" : [ "obj-6", 1 ],
													"destination" : [ "obj-1", 0 ],
													"hidden" : 0,
													"midpoints" : [  ]
												}

											}
, 											{
												"patchline" : 												{
													"source" : [ "obj-6", 0 ],
													"destination" : [ "obj-1", 0 ],
													"hidden" : 0,
													"midpoints" : [  ]
												}

											}
 ]
									}

								}

							}
, 							{
								"box" : 								{
									"maxclass" : "bpatcher",
									"varname" : "cyclophaso",
									"id" : "obj-7",
									"numoutlets" : 1,
									"embed" : 1,
									"outlettype" : [ "signal" ],
									"name" : "cyclephasor",
									"presentation_rect" : [ 105.0, 0.0, 240.0, 120.0 ],
									"args" : [  ],
									"numinlets" : 1,
									"patching_rect" : [ 585.0, 0.0, 240.0, 120.0 ],
									"presentation" : 1,
									"patcher" : 									{
										"fileversion" : 1,
										"rect" : [ 105.0, 0.0, 240.0, 120.0 ],
										"bgcolor" : [ 1.0, 1.0, 1.0, 0.0 ],
										"bglocked" : 0,
										"defrect" : [ 105.0, 0.0, 240.0, 120.0 ],
										"openrect" : [ 0.0, 0.0, 0.0, 0.0 ],
										"openinpresentation" : 0,
										"default_fontsize" : 12.0,
										"default_fontface" : 0,
										"default_fontname" : "Arial",
										"gridonopen" : 0,
										"gridsize" : [ 15.0, 15.0 ],
										"gridsnaponopen" : 0,
										"toolbarvisible" : 1,
										"boxanimatetime" : 200,
										"imprint" : 0,
										"boxes" : [ 											{
												"box" : 												{
													"maxclass" : "inlet",
													"id" : "obj-19",
													"numoutlets" : 1,
													"outlettype" : [ "" ],
													"numinlets" : 0,
													"patching_rect" : [ 315.0, 75.0, 25.0, 25.0 ],
													"comment" : ""
												}

											}
, 											{
												"box" : 												{
													"maxclass" : "outlet",
													"id" : "obj-15",
													"numoutlets" : 0,
													"numinlets" : 1,
													"patching_rect" : [ 75.0, 195.0, 25.0, 25.0 ],
													"comment" : ""
												}

											}
, 											{
												"box" : 												{
													"maxclass" : "newobj",
													"text" : "loadmess 128",
													"id" : "obj-14",
													"numoutlets" : 1,
													"hidden" : 1,
													"outlettype" : [ "" ],
													"fontname" : "Arial",
													"numinlets" : 1,
													"patching_rect" : [ 15.0, 0.0, 83.0, 20.0 ],
													"fontsize" : 11.595187
												}

											}
, 											{
												"box" : 												{
													"maxclass" : "gain~",
													"id" : "obj-13",
													"numoutlets" : 2,
													"outlettype" : [ "signal", "int" ],
													"numinlets" : 2,
													"patching_rect" : [ 135.0, 90.0, 89.0, 17.0 ]
												}

											}
, 											{
												"box" : 												{
													"maxclass" : "gain~",
													"id" : "obj-12",
													"numoutlets" : 2,
													"outlettype" : [ "signal", "int" ],
													"numinlets" : 2,
													"patching_rect" : [ 15.0, 90.0, 89.0, 17.0 ]
												}

											}
, 											{
												"box" : 												{
													"maxclass" : "flonum",
													"id" : "obj-7",
													"numoutlets" : 2,
													"outlettype" : [ "float", "bang" ],
													"fontname" : "Arial",
													"numinlets" : 1,
													"patching_rect" : [ 135.0, 30.0, 58.0, 20.0 ],
													"fontsize" : 11.595187
												}

											}
, 											{
												"box" : 												{
													"maxclass" : "newobj",
													"text" : "phasor~ 440",
													"id" : "obj-6",
													"numoutlets" : 1,
													"outlettype" : [ "signal" ],
													"fontname" : "Arial",
													"numinlets" : 2,
													"patching_rect" : [ 135.0, 60.0, 75.0, 20.0 ],
													"fontsize" : 11.595187
												}

											}
, 											{
												"box" : 												{
													"maxclass" : "newobj",
													"text" : "loadmess 440",
													"id" : "obj-84",
													"numoutlets" : 1,
													"hidden" : 1,
													"outlettype" : [ "" ],
													"fontname" : "Arial",
													"numinlets" : 1,
													"patching_rect" : [ 90.0, 0.0, 83.0, 20.0 ],
													"fontsize" : 11.595187
												}

											}
, 											{
												"box" : 												{
													"maxclass" : "comment",
													"text" : "Set frequency",
													"id" : "obj-80",
													"numoutlets" : 0,
													"fontname" : "Arial",
													"numinlets" : 1,
													"patching_rect" : [ 75.0, 0.0, 83.0, 20.0 ],
													"fontsize" : 11.595187
												}

											}
, 											{
												"box" : 												{
													"maxclass" : "flonum",
													"id" : "obj-75",
													"numoutlets" : 2,
													"outlettype" : [ "float", "bang" ],
													"fontname" : "Arial",
													"numinlets" : 1,
													"patching_rect" : [ 15.0, 30.0, 58.0, 20.0 ],
													"fontsize" : 11.595187
												}

											}
, 											{
												"box" : 												{
													"maxclass" : "newobj",
													"text" : "cycle~ 440",
													"id" : "obj-70",
													"numoutlets" : 1,
													"outlettype" : [ "signal" ],
													"fontname" : "Arial",
													"numinlets" : 2,
													"patching_rect" : [ 15.0, 60.0, 66.0, 20.0 ],
													"fontsize" : 11.595187
												}

											}
, 											{
												"box" : 												{
													"maxclass" : "panel",
													"id" : "obj-74",
													"bgcolor" : [ 0.858824, 0.858824, 0.858824, 1.0 ],
													"numoutlets" : 0,
													"border" : 2,
													"numinlets" : 1,
													"patching_rect" : [ 0.0, 0.0, 240.0, 120.0 ]
												}

											}
 ],
										"lines" : [ 											{
												"patchline" : 												{
													"source" : [ "obj-12", 0 ],
													"destination" : [ "obj-15", 0 ],
													"hidden" : 0,
													"midpoints" : [  ]
												}

											}
, 											{
												"patchline" : 												{
													"source" : [ "obj-13", 0 ],
													"destination" : [ "obj-15", 0 ],
													"hidden" : 0,
													"midpoints" : [  ]
												}

											}
, 											{
												"patchline" : 												{
													"source" : [ "obj-14", 0 ],
													"destination" : [ "obj-12", 0 ],
													"hidden" : 0,
													"midpoints" : [  ]
												}

											}
, 											{
												"patchline" : 												{
													"source" : [ "obj-6", 0 ],
													"destination" : [ "obj-13", 0 ],
													"hidden" : 0,
													"midpoints" : [  ]
												}

											}
, 											{
												"patchline" : 												{
													"source" : [ "obj-7", 0 ],
													"destination" : [ "obj-6", 0 ],
													"hidden" : 0,
													"midpoints" : [  ]
												}

											}
, 											{
												"patchline" : 												{
													"source" : [ "obj-70", 0 ],
													"destination" : [ "obj-12", 0 ],
													"hidden" : 0,
													"midpoints" : [  ]
												}

											}
, 											{
												"patchline" : 												{
													"source" : [ "obj-75", 0 ],
													"destination" : [ "obj-70", 0 ],
													"hidden" : 0,
													"midpoints" : [  ]
												}

											}
, 											{
												"patchline" : 												{
													"source" : [ "obj-84", 0 ],
													"destination" : [ "obj-7", 0 ],
													"hidden" : 0,
													"midpoints" : [  ]
												}

											}
, 											{
												"patchline" : 												{
													"source" : [ "obj-84", 0 ],
													"destination" : [ "obj-75", 0 ],
													"hidden" : 0,
													"midpoints" : [  ]
												}

											}
 ]
									}

								}

							}
, 							{
								"box" : 								{
									"maxclass" : "bpatcher",
									"varname" : "dacodac",
									"id" : "obj-8",
									"numoutlets" : 1,
									"embed" : 1,
									"outlettype" : [ "signal" ],
									"name" : "Dacodac",
									"presentation_rect" : [ 105.0, 0.0, 240.0, 120.0 ],
									"args" : [  ],
									"numinlets" : 1,
									"patching_rect" : [ 570.0, 145.0, 240.0, 120.0 ],
									"presentation" : 1,
									"patcher" : 									{
										"fileversion" : 1,
										"rect" : [ 105.0, 0.0, 240.0, 120.0 ],
										"bgcolor" : [ 1.0, 1.0, 1.0, 0.0 ],
										"bglocked" : 0,
										"defrect" : [ 105.0, 0.0, 240.0, 120.0 ],
										"openrect" : [ 0.0, 0.0, 0.0, 0.0 ],
										"openinpresentation" : 0,
										"default_fontsize" : 12.0,
										"default_fontface" : 0,
										"default_fontname" : "Arial",
										"gridonopen" : 0,
										"gridsize" : [ 15.0, 15.0 ],
										"gridsnaponopen" : 0,
										"toolbarvisible" : 1,
										"boxanimatetime" : 200,
										"imprint" : 0,
										"boxes" : [ 											{
												"box" : 												{
													"maxclass" : "inlet",
													"id" : "obj-19",
													"numoutlets" : 1,
													"outlettype" : [ "" ],
													"numinlets" : 0,
													"patching_rect" : [ 300.0, 60.0, 25.0, 25.0 ],
													"comment" : ""
												}

											}
, 											{
												"box" : 												{
													"maxclass" : "tab",
													"id" : "obj-7",
													"numoutlets" : 3,
													"outlettype" : [ "int", "", "" ],
													"tabs" : [ "one", "two", "three", "four" ],
													"border" : 1,
													"fontname" : "Arial",
													"numinlets" : 1,
													"patching_rect" : [ 20.0, 30.0, 200.0, 20.0 ],
													"fontsize" : 12.0
												}

											}
, 											{
												"box" : 												{
													"maxclass" : "comment",
													"text" : "Select channel",
													"id" : "obj-4",
													"numoutlets" : 0,
													"fontname" : "Arial",
													"numinlets" : 1,
													"patching_rect" : [ 75.0, 0.0, 90.0, 20.0 ],
													"fontsize" : 12.0
												}

											}
, 											{
												"box" : 												{
													"maxclass" : "outlet",
													"id" : "obj-2",
													"numoutlets" : 0,
													"numinlets" : 1,
													"patching_rect" : [ 96.5, 150.0, 25.0, 25.0 ],
													"comment" : ""
												}

											}
, 											{
												"box" : 												{
													"maxclass" : "newobj",
													"text" : "adc~ 1",
													"id" : "obj-1",
													"numoutlets" : 1,
													"outlettype" : [ "signal" ],
													"fontname" : "Arial",
													"numinlets" : 1,
													"patching_rect" : [ 96.5, 75.0, 47.0, 20.0 ],
													"fontsize" : 12.0
												}

											}
, 											{
												"box" : 												{
													"maxclass" : "panel",
													"id" : "obj-74",
													"bgcolor" : [ 0.858824, 0.858824, 0.858824, 1.0 ],
													"numoutlets" : 0,
													"border" : 2,
													"numinlets" : 1,
													"patching_rect" : [ 0.0, 0.0, 240.0, 120.0 ]
												}

											}
, 											{
												"box" : 												{
													"maxclass" : "message",
													"text" : "set $1",
													"id" : "obj-17",
													"numoutlets" : 1,
													"outlettype" : [ "" ],
													"fontname" : "Arial",
													"numinlets" : 2,
													"patching_rect" : [ 20.0, 90.0, 43.0, 18.0 ],
													"fontsize" : 12.0
												}

											}
, 											{
												"box" : 												{
													"maxclass" : "newobj",
													"text" : "+ 1",
													"id" : "obj-12",
													"numoutlets" : 1,
													"outlettype" : [ "int" ],
													"fontname" : "Arial",
													"numinlets" : 2,
													"patching_rect" : [ 20.0, 50.0, 32.5, 20.0 ],
													"fontsize" : 12.0
												}

											}
 ],
										"lines" : [ 											{
												"patchline" : 												{
													"source" : [ "obj-1", 0 ],
													"destination" : [ "obj-2", 0 ],
													"hidden" : 0,
													"midpoints" : [  ]
												}

											}
, 											{
												"patchline" : 												{
													"source" : [ "obj-12", 0 ],
													"destination" : [ "obj-17", 0 ],
													"hidden" : 0,
													"midpoints" : [  ]
												}

											}
, 											{
												"patchline" : 												{
													"source" : [ "obj-17", 0 ],
													"destination" : [ "obj-1", 0 ],
													"hidden" : 0,
													"midpoints" : [  ]
												}

											}
, 											{
												"patchline" : 												{
													"source" : [ "obj-7", 0 ],
													"destination" : [ "obj-12", 0 ],
													"hidden" : 0,
													"midpoints" : [  ]
												}

											}
 ]
									}

								}

							}
, 							{
								"box" : 								{
									"maxclass" : "message",
									"text" : "script bringtofront cyclophaso",
									"id" : "obj-20",
									"numoutlets" : 1,
									"outlettype" : [ "" ],
									"fontname" : "Arial",
									"numinlets" : 2,
									"patching_rect" : [ 426.0, 328.5, 161.0, 18.0 ],
									"fontsize" : 11.595187
								}

							}
, 							{
								"box" : 								{
									"maxclass" : "message",
									"text" : "script bringtofront Soundofile",
									"id" : "obj-19",
									"numoutlets" : 1,
									"outlettype" : [ "" ],
									"fontname" : "Arial",
									"numinlets" : 2,
									"patching_rect" : [ 270.0, 340.0, 158.0, 18.0 ],
									"fontsize" : 11.595187
								}

							}
, 							{
								"box" : 								{
									"maxclass" : "message",
									"text" : "script bringtofront dacodac",
									"id" : "obj-18",
									"numoutlets" : 1,
									"outlettype" : [ "" ],
									"fontname" : "Arial",
									"numinlets" : 2,
									"patching_rect" : [ 330.0, 285.0, 147.0, 18.0 ],
									"fontsize" : 11.595187
								}

							}
, 							{
								"box" : 								{
									"maxclass" : "message",
									"text" : "script bringtofront noiso",
									"id" : "obj-17",
									"numoutlets" : 1,
									"outlettype" : [ "" ],
									"fontname" : "Arial",
									"numinlets" : 2,
									"patching_rect" : [ 180.0, 297.0, 131.0, 18.0 ],
									"fontsize" : 11.595187
								}

							}
, 							{
								"box" : 								{
									"maxclass" : "newobj",
									"text" : "sel 1 2 3 4",
									"id" : "obj-10",
									"numoutlets" : 5,
									"outlettype" : [ "bang", "bang", "bang", "bang", "" ],
									"fontname" : "Arial",
									"numinlets" : 1,
									"patching_rect" : [ 180.0, 255.0, 73.0, 20.0 ],
									"fontsize" : 12.0
								}

							}
, 							{
								"box" : 								{
									"maxclass" : "newobj",
									"text" : "thispatcher",
									"id" : "obj-9",
									"numoutlets" : 2,
									"outlettype" : [ "", "" ],
									"fontname" : "Arial",
									"numinlets" : 1,
									"patching_rect" : [ 195.0, 390.0, 69.0, 20.0 ],
									"fontsize" : 12.0,
									"save" : [ "#N", "thispatcher", ";", "#Q", "end", ";" ]
								}

							}
, 							{
								"box" : 								{
									"maxclass" : "gain~",
									"id" : "obj-78",
									"numoutlets" : 2,
									"outlettype" : [ "signal", "int" ],
									"presentation_rect" : [ 7.5, 77.0, 88.0, 18.0 ],
									"numinlets" : 2,
									"patching_rect" : [ 7.5, 77.0, 88.0, 18.0 ],
									"presentation" : 1
								}

							}
, 							{
								"box" : 								{
									"maxclass" : "outlet",
									"id" : "obj-2",
									"numoutlets" : 0,
									"numinlets" : 1,
									"patching_rect" : [ 30.0, 240.0, 25.0, 25.0 ],
									"comment" : ""
								}

							}
, 							{
								"box" : 								{
									"maxclass" : "newobj",
									"text" : "loadmess 2",
									"id" : "obj-100",
									"numoutlets" : 1,
									"hidden" : 1,
									"outlettype" : [ "" ],
									"fontname" : "Arial",
									"presentation_rect" : [ 7.5, 0.0, 70.0, 20.0 ],
									"numinlets" : 1,
									"patching_rect" : [ 7.5, 0.0, 70.0, 20.0 ],
									"fontsize" : 11.595187,
									"presentation" : 1
								}

							}
, 							{
								"box" : 								{
									"maxclass" : "comment",
									"text" : "Select source",
									"id" : "obj-42",
									"numoutlets" : 0,
									"fontname" : "Arial",
									"presentation_rect" : [ 7.5, 15.0, 88.0, 20.0 ],
									"numinlets" : 1,
									"patching_rect" : [ 7.5, 15.0, 88.0, 20.0 ],
									"fontsize" : 11.595187,
									"presentation" : 1
								}

							}
, 							{
								"box" : 								{
									"maxclass" : "umenu",
									"id" : "obj-37",
									"numoutlets" : 3,
									"outlettype" : [ "int", "", "" ],
									"types" : [  ],
									"fontname" : "Arial",
									"presentation_rect" : [ 7.5, 44.0, 88.0, 20.0 ],
									"items" : [ "None", ",", "Audio", "file", ",", "Noise", ",", "Cycle~", ",", "Adc~" ],
									"numinlets" : 1,
									"patching_rect" : [ 7.5, 44.0, 88.0, 20.0 ],
									"fontsize" : 11.595187,
									"presentation" : 1
								}

							}
, 							{
								"box" : 								{
									"maxclass" : "newobj",
									"text" : "selector~ 4",
									"id" : "obj-29",
									"numoutlets" : 1,
									"outlettype" : [ "signal" ],
									"fontname" : "Arial",
									"numinlets" : 5,
									"patching_rect" : [ 150.0, 195.0, 73.0, 20.0 ],
									"fontsize" : 11.595187
								}

							}
, 							{
								"box" : 								{
									"maxclass" : "panel",
									"id" : "obj-38",
									"bgcolor" : [ 0.858824, 0.858824, 0.858824, 1.0 ],
									"numoutlets" : 0,
									"border" : 2,
									"presentation_rect" : [ 0.0, 0.0, 316.0, 120.0 ],
									"numinlets" : 1,
									"patching_rect" : [ 0.0, 0.0, 120.0, 120.0 ],
									"presentation" : 1
								}

							}
 ],
						"lines" : [ 							{
								"patchline" : 								{
									"source" : [ "obj-10", 1 ],
									"destination" : [ "obj-17", 0 ],
									"hidden" : 0,
									"midpoints" : [  ]
								}

							}
, 							{
								"patchline" : 								{
									"source" : [ "obj-10", 3 ],
									"destination" : [ "obj-18", 0 ],
									"hidden" : 0,
									"midpoints" : [  ]
								}

							}
, 							{
								"patchline" : 								{
									"source" : [ "obj-10", 0 ],
									"destination" : [ "obj-19", 0 ],
									"hidden" : 0,
									"midpoints" : [  ]
								}

							}
, 							{
								"patchline" : 								{
									"source" : [ "obj-10", 2 ],
									"destination" : [ "obj-20", 0 ],
									"hidden" : 0,
									"midpoints" : [  ]
								}

							}
, 							{
								"patchline" : 								{
									"source" : [ "obj-100", 0 ],
									"destination" : [ "obj-37", 0 ],
									"hidden" : 0,
									"midpoints" : [  ]
								}

							}
, 							{
								"patchline" : 								{
									"source" : [ "obj-17", 0 ],
									"destination" : [ "obj-9", 0 ],
									"hidden" : 0,
									"midpoints" : [  ]
								}

							}
, 							{
								"patchline" : 								{
									"source" : [ "obj-18", 0 ],
									"destination" : [ "obj-9", 0 ],
									"hidden" : 0,
									"midpoints" : [  ]
								}

							}
, 							{
								"patchline" : 								{
									"source" : [ "obj-19", 0 ],
									"destination" : [ "obj-9", 0 ],
									"hidden" : 0,
									"midpoints" : [  ]
								}

							}
, 							{
								"patchline" : 								{
									"source" : [ "obj-20", 0 ],
									"destination" : [ "obj-9", 0 ],
									"hidden" : 0,
									"midpoints" : [  ]
								}

							}
, 							{
								"patchline" : 								{
									"source" : [ "obj-29", 0 ],
									"destination" : [ "obj-78", 0 ],
									"hidden" : 0,
									"midpoints" : [  ]
								}

							}
, 							{
								"patchline" : 								{
									"source" : [ "obj-37", 0 ],
									"destination" : [ "obj-10", 0 ],
									"hidden" : 0,
									"midpoints" : [  ]
								}

							}
, 							{
								"patchline" : 								{
									"source" : [ "obj-37", 0 ],
									"destination" : [ "obj-29", 0 ],
									"hidden" : 0,
									"midpoints" : [  ]
								}

							}
, 							{
								"patchline" : 								{
									"source" : [ "obj-4", 0 ],
									"destination" : [ "obj-29", 1 ],
									"hidden" : 0,
									"midpoints" : [  ]
								}

							}
, 							{
								"patchline" : 								{
									"source" : [ "obj-6", 0 ],
									"destination" : [ "obj-29", 2 ],
									"hidden" : 0,
									"midpoints" : [  ]
								}

							}
, 							{
								"patchline" : 								{
									"source" : [ "obj-7", 0 ],
									"destination" : [ "obj-29", 3 ],
									"hidden" : 0,
									"midpoints" : [  ]
								}

							}
, 							{
								"patchline" : 								{
									"source" : [ "obj-8", 0 ],
									"destination" : [ "obj-29", 4 ],
									"hidden" : 0,
									"midpoints" : [  ]
								}

							}
, 							{
								"patchline" : 								{
									"source" : [ "obj-78", 0 ],
									"destination" : [ "obj-2", 0 ],
									"hidden" : 0,
									"midpoints" : [  ]
								}

							}
 ]
					}

				}

			}
, 			{
				"box" : 				{
					"maxclass" : "ezdac~",
					"id" : "obj-32",
					"numoutlets" : 0,
					"local" : 1,
					"numinlets" : 2,
					"patching_rect" : [ 490.0, 184.0, 45.0, 45.0 ]
				}

			}
, 			{
				"box" : 				{
					"maxclass" : "comment",
					"text" : "Audio On/Off : spacebar",
					"id" : "obj-33",
					"numoutlets" : 0,
					"fontname" : "Arial",
					"numinlets" : 1,
					"patching_rect" : [ 448.375, 123.5, 150.0, 20.0 ],
					"fontsize" : 12.0
				}

			}
, 			{
				"box" : 				{
					"maxclass" : "newobj",
					"text" : "p audioPanic 32",
					"id" : "obj-34",
					"numoutlets" : 0,
					"fontname" : "Arial",
					"numinlets" : 1,
					"patching_rect" : [ 464.0, 143.5, 97.0, 20.0 ],
					"fontsize" : 12.0,
					"patcher" : 					{
						"fileversion" : 1,
						"rect" : [ 363.0, 100.0, 640.0, 480.0 ],
						"bglocked" : 0,
						"defrect" : [ 363.0, 100.0, 640.0, 480.0 ],
						"openrect" : [ 0.0, 0.0, 0.0, 0.0 ],
						"openinpresentation" : 0,
						"default_fontsize" : 12.0,
						"default_fontface" : 0,
						"default_fontname" : "Arial",
						"gridonopen" : 0,
						"gridsize" : [ 15.0, 15.0 ],
						"gridsnaponopen" : 0,
						"toolbarvisible" : 1,
						"boxanimatetime" : 200,
						"imprint" : 0,
						"boxes" : [ 							{
								"box" : 								{
									"maxclass" : "button",
									"id" : "obj-32",
									"numoutlets" : 1,
									"outlettype" : [ "bang" ],
									"numinlets" : 1,
									"patching_rect" : [ 120.0, 270.0, 20.0, 20.0 ]
								}

							}
, 							{
								"box" : 								{
									"maxclass" : "newobj",
									"text" : "togedge",
									"id" : "obj-26",
									"numoutlets" : 2,
									"outlettype" : [ "bang", "bang" ],
									"fontname" : "Arial",
									"numinlets" : 1,
									"patching_rect" : [ 120.0, 240.0, 54.0, 20.0 ],
									"fontsize" : 12.0
								}

							}
, 							{
								"box" : 								{
									"maxclass" : "newobj",
									"text" : "!=",
									"id" : "obj-25",
									"numoutlets" : 1,
									"outlettype" : [ "int" ],
									"fontname" : "Arial",
									"numinlets" : 2,
									"patching_rect" : [ 120.0, 210.0, 33.5, 20.0 ],
									"fontsize" : 12.0
								}

							}
, 							{
								"box" : 								{
									"maxclass" : "newobj",
									"text" : "dac~",
									"id" : "obj-22",
									"numoutlets" : 0,
									"fontname" : "Arial",
									"numinlets" : 2,
									"patching_rect" : [ 45.0, 315.0, 37.0, 20.0 ],
									"fontsize" : 12.0
								}

							}
, 							{
								"box" : 								{
									"maxclass" : "newobj",
									"text" : "dspstate~",
									"id" : "obj-3",
									"numoutlets" : 4,
									"outlettype" : [ "int", "float", "int", "int" ],
									"fontname" : "Arial",
									"numinlets" : 1,
									"patching_rect" : [ 120.0, 150.0, 63.0, 20.0 ],
									"fontsize" : 12.0
								}

							}
, 							{
								"box" : 								{
									"maxclass" : "inlet",
									"id" : "obj-2",
									"numoutlets" : 1,
									"outlettype" : [ "" ],
									"numinlets" : 0,
									"patching_rect" : [ 120.0, 60.0, 25.0, 25.0 ],
									"comment" : "ASCII Code of key pressed"
								}

							}
, 							{
								"box" : 								{
									"maxclass" : "newobj",
									"text" : "zl slice 1",
									"id" : "obj-1",
									"numoutlets" : 2,
									"outlettype" : [ "", "" ],
									"fontname" : "Arial",
									"numinlets" : 2,
									"patching_rect" : [ 150.0, 90.0, 57.0, 20.0 ],
									"fontsize" : 12.0
								}

							}
, 							{
								"box" : 								{
									"maxclass" : "newobj",
									"text" : "patcherargs",
									"id" : "obj-8",
									"numoutlets" : 2,
									"outlettype" : [ "", "" ],
									"fontname" : "Arial",
									"numinlets" : 1,
									"patching_rect" : [ 150.0, 60.0, 74.0, 20.0 ],
									"fontsize" : 12.0
								}

							}
, 							{
								"box" : 								{
									"maxclass" : "newobj",
									"text" : "sel 32",
									"id" : "obj-29",
									"numoutlets" : 2,
									"outlettype" : [ "bang", "" ],
									"fontname" : "Arial",
									"numinlets" : 2,
									"patching_rect" : [ 45.0, 120.0, 43.0, 20.0 ],
									"fontsize" : 12.0
								}

							}
, 							{
								"box" : 								{
									"maxclass" : "newobj",
									"text" : "key",
									"id" : "obj-28",
									"numoutlets" : 4,
									"outlettype" : [ "int", "int", "int", "int" ],
									"fontname" : "Arial",
									"numinlets" : 0,
									"patching_rect" : [ 45.0, 60.0, 59.5, 20.0 ],
									"fontsize" : 12.0
								}

							}
, 							{
								"box" : 								{
									"maxclass" : "toggle",
									"id" : "obj-4",
									"numoutlets" : 1,
									"outlettype" : [ "int" ],
									"numinlets" : 1,
									"patching_rect" : [ 45.0, 165.0, 20.0, 20.0 ]
								}

							}
 ],
						"lines" : [ 							{
								"patchline" : 								{
									"source" : [ "obj-8", 0 ],
									"destination" : [ "obj-1", 0 ],
									"hidden" : 0,
									"midpoints" : [  ]
								}

							}
, 							{
								"patchline" : 								{
									"source" : [ "obj-4", 0 ],
									"destination" : [ "obj-25", 1 ],
									"hidden" : 0,
									"midpoints" : [ 54.5, 195.0, 144.0, 195.0 ]
								}

							}
, 							{
								"patchline" : 								{
									"source" : [ "obj-4", 0 ],
									"destination" : [ "obj-22", 0 ],
									"hidden" : 0,
									"midpoints" : [  ]
								}

							}
, 							{
								"patchline" : 								{
									"source" : [ "obj-32", 0 ],
									"destination" : [ "obj-4", 0 ],
									"hidden" : 0,
									"midpoints" : [ 129.5, 291.0, 75.0, 291.0, 75.0, 162.0, 54.5, 162.0 ]
								}

							}
, 							{
								"patchline" : 								{
									"source" : [ "obj-3", 0 ],
									"destination" : [ "obj-25", 0 ],
									"hidden" : 0,
									"midpoints" : [  ]
								}

							}
, 							{
								"patchline" : 								{
									"source" : [ "obj-29", 0 ],
									"destination" : [ "obj-4", 0 ],
									"hidden" : 0,
									"midpoints" : [  ]
								}

							}
, 							{
								"patchline" : 								{
									"source" : [ "obj-28", 0 ],
									"destination" : [ "obj-29", 0 ],
									"hidden" : 0,
									"midpoints" : [  ]
								}

							}
, 							{
								"patchline" : 								{
									"source" : [ "obj-26", 0 ],
									"destination" : [ "obj-32", 0 ],
									"hidden" : 0,
									"midpoints" : [  ]
								}

							}
, 							{
								"patchline" : 								{
									"source" : [ "obj-25", 0 ],
									"destination" : [ "obj-26", 0 ],
									"hidden" : 0,
									"midpoints" : [  ]
								}

							}
, 							{
								"patchline" : 								{
									"source" : [ "obj-2", 0 ],
									"destination" : [ "obj-29", 1 ],
									"hidden" : 0,
									"midpoints" : [ 129.5, 105.0, 78.5, 105.0 ]
								}

							}
, 							{
								"patchline" : 								{
									"source" : [ "obj-1", 1 ],
									"destination" : [ "obj-29", 1 ],
									"hidden" : 0,
									"midpoints" : [ 197.5, 119.0, 78.5, 119.0 ]
								}

							}
 ]
					}
,
					"saved_object_attributes" : 					{
						"default_fontname" : "Arial",
						"default_fontsize" : 12.0,
						"globalpatchername" : "",
						"fontname" : "Arial",
						"default_fontface" : 0,
						"fontface" : 0,
						"fontsize" : 12.0
					}

				}

			}
, 			{
				"box" : 				{
					"maxclass" : "panel",
					"id" : "obj-35",
					"bgcolor" : [ 0.858824, 0.858824, 0.858824, 1.0 ],
					"numoutlets" : 0,
					"border" : 2,
					"numinlets" : 1,
					"patching_rect" : [ 435.0, 120.0, 177.25, 122.0 ]
				}

			}
, 			{
				"box" : 				{
					"maxclass" : "comment",
					"text" : "huygens~ by Julien Colafrancesco & Pierre Guillot\n 2012 CICM / Universite Paris 8",
					"linecount" : 2,
					"id" : "obj-59",
					"numoutlets" : 0,
					"fontname" : "Arial",
					"numinlets" : 1,
					"patching_rect" : [ 497.75, 6.0, 288.0, 33.0 ],
					"fontsize" : 11.595187
				}

			}
, 			{
				"box" : 				{
					"maxclass" : "newobj",
					"text" : "r huygens",
					"id" : "obj-4",
					"numoutlets" : 1,
					"outlettype" : [ "" ],
					"fontname" : "Arial",
					"numinlets" : 0,
					"patching_rect" : [ 13.0, 395.0, 61.0, 20.0 ],
					"fontsize" : 11.595187
				}

			}
, 			{
				"box" : 				{
					"maxclass" : "comment",
					"varname" : "autohelp_top_title",
					"text" : "huygens~",
					"id" : "obj-2",
					"numoutlets" : 0,
					"frgb" : [ 0.93, 0.93, 0.97, 1.0 ],
					"fontname" : "Arial",
					"textcolor" : [ 0.93, 0.93, 0.97, 1.0 ],
					"numinlets" : 1,
					"fontface" : 3,
					"patching_rect" : [ 7.0, 6.0, 485.0, 30.0 ],
					"fontsize" : 20.871338
				}

			}
, 			{
				"box" : 				{
					"maxclass" : "comment",
					"varname" : "autohelp_top_digest",
					"text" : "A Wave Field Synthesis external.",
					"id" : "obj-3",
					"numoutlets" : 0,
					"frgb" : [ 0.93, 0.93, 0.97, 1.0 ],
					"fontname" : "Arial",
					"textcolor" : [ 0.93, 0.93, 0.97, 1.0 ],
					"numinlets" : 1,
					"patching_rect" : [ 7.0, 35.0, 503.0, 21.0 ],
					"fontsize" : 12.754705
				}

			}
, 			{
				"box" : 				{
					"maxclass" : "comment",
					"varname" : "autohelp_top_description",
					"text" : "huygens~ is a sound spatializer that uses wave filed synthesis algorithm for a linear or a circular array of loudness speakers.",
					"linecount" : 2,
					"id" : "obj-5",
					"numoutlets" : 0,
					"fontname" : "Arial",
					"numinlets" : 1,
					"patching_rect" : [ 7.0, 56.0, 491.0, 33.0 ],
					"fontsize" : 11.595187
				}

			}
, 			{
				"box" : 				{
					"maxclass" : "panel",
					"varname" : "autohelp_top_panel",
					"id" : "obj-9",
					"numoutlets" : 0,
					"grad1" : [ 0.27, 0.35, 0.47, 1.0 ],
					"grad2" : [ 0.85, 0.85, 0.85, 1.0 ],
					"mode" : 1,
					"background" : 1,
					"numinlets" : 1,
					"patching_rect" : [ 2.0, 4.0, 495.0, 52.0 ]
				}

			}
 ],
		"lines" : [ 			{
				"patchline" : 				{
					"source" : [ "obj-12", 15 ],
					"destination" : [ "obj-14", 15 ],
					"hidden" : 0,
					"midpoints" : [  ]
				}

			}
, 			{
				"patchline" : 				{
					"source" : [ "obj-12", 14 ],
					"destination" : [ "obj-14", 14 ],
					"hidden" : 0,
					"midpoints" : [  ]
				}

			}
, 			{
				"patchline" : 				{
					"source" : [ "obj-12", 13 ],
					"destination" : [ "obj-14", 13 ],
					"hidden" : 0,
					"midpoints" : [  ]
				}

			}
, 			{
				"patchline" : 				{
					"source" : [ "obj-12", 12 ],
					"destination" : [ "obj-14", 12 ],
					"hidden" : 0,
					"midpoints" : [  ]
				}

			}
, 			{
				"patchline" : 				{
					"source" : [ "obj-12", 11 ],
					"destination" : [ "obj-14", 11 ],
					"hidden" : 0,
					"midpoints" : [  ]
				}

			}
, 			{
				"patchline" : 				{
					"source" : [ "obj-12", 10 ],
					"destination" : [ "obj-14", 10 ],
					"hidden" : 0,
					"midpoints" : [  ]
				}

			}
, 			{
				"patchline" : 				{
					"source" : [ "obj-12", 9 ],
					"destination" : [ "obj-14", 9 ],
					"hidden" : 0,
					"midpoints" : [  ]
				}

			}
, 			{
				"patchline" : 				{
					"source" : [ "obj-12", 8 ],
					"destination" : [ "obj-14", 8 ],
					"hidden" : 0,
					"midpoints" : [  ]
				}

			}
, 			{
				"patchline" : 				{
					"source" : [ "obj-12", 7 ],
					"destination" : [ "obj-14", 7 ],
					"hidden" : 0,
					"midpoints" : [  ]
				}

			}
, 			{
				"patchline" : 				{
					"source" : [ "obj-12", 6 ],
					"destination" : [ "obj-14", 6 ],
					"hidden" : 0,
					"midpoints" : [  ]
				}

			}
, 			{
				"patchline" : 				{
					"source" : [ "obj-12", 5 ],
					"destination" : [ "obj-14", 5 ],
					"hidden" : 0,
					"midpoints" : [  ]
				}

			}
, 			{
				"patchline" : 				{
					"source" : [ "obj-12", 4 ],
					"destination" : [ "obj-14", 4 ],
					"hidden" : 0,
					"midpoints" : [  ]
				}

			}
, 			{
				"patchline" : 				{
					"source" : [ "obj-12", 3 ],
					"destination" : [ "obj-14", 3 ],
					"hidden" : 0,
					"midpoints" : [  ]
				}

			}
, 			{
				"patchline" : 				{
					"source" : [ "obj-12", 2 ],
					"destination" : [ "obj-14", 2 ],
					"hidden" : 0,
					"midpoints" : [  ]
				}

			}
, 			{
				"patchline" : 				{
					"source" : [ "obj-12", 1 ],
					"destination" : [ "obj-14", 1 ],
					"hidden" : 0,
					"midpoints" : [  ]
				}

			}
, 			{
				"patchline" : 				{
					"source" : [ "obj-12", 0 ],
					"destination" : [ "obj-14", 0 ],
					"hidden" : 0,
					"midpoints" : [  ]
				}

			}
, 			{
				"patchline" : 				{
					"source" : [ "obj-4", 0 ],
					"destination" : [ "obj-12", 0 ],
					"hidden" : 0,
					"midpoints" : [ 22.5, 445.0, 84.5, 445.0 ]
				}

			}
, 			{
				"patchline" : 				{
					"source" : [ "obj-12", 0 ],
					"destination" : [ "obj-16", 0 ],
					"hidden" : 0,
					"midpoints" : [  ]
				}

			}
, 			{
				"patchline" : 				{
					"source" : [ "obj-12", 1 ],
					"destination" : [ "obj-18", 0 ],
					"hidden" : 0,
					"midpoints" : [  ]
				}

			}
, 			{
				"patchline" : 				{
					"source" : [ "obj-12", 2 ],
					"destination" : [ "obj-25", 0 ],
					"hidden" : 0,
					"midpoints" : [  ]
				}

			}
, 			{
				"patchline" : 				{
					"source" : [ "obj-12", 3 ],
					"destination" : [ "obj-40", 0 ],
					"hidden" : 0,
					"midpoints" : [  ]
				}

			}
, 			{
				"patchline" : 				{
					"source" : [ "obj-12", 4 ],
					"destination" : [ "obj-48", 0 ],
					"hidden" : 0,
					"midpoints" : [  ]
				}

			}
, 			{
				"patchline" : 				{
					"source" : [ "obj-12", 5 ],
					"destination" : [ "obj-50", 0 ],
					"hidden" : 0,
					"midpoints" : [  ]
				}

			}
, 			{
				"patchline" : 				{
					"source" : [ "obj-12", 6 ],
					"destination" : [ "obj-54", 0 ],
					"hidden" : 0,
					"midpoints" : [  ]
				}

			}
, 			{
				"patchline" : 				{
					"source" : [ "obj-12", 7 ],
					"destination" : [ "obj-55", 0 ],
					"hidden" : 0,
					"midpoints" : [  ]
				}

			}
, 			{
				"patchline" : 				{
					"source" : [ "obj-12", 8 ],
					"destination" : [ "obj-56", 0 ],
					"hidden" : 0,
					"midpoints" : [  ]
				}

			}
, 			{
				"patchline" : 				{
					"source" : [ "obj-12", 9 ],
					"destination" : [ "obj-57", 0 ],
					"hidden" : 0,
					"midpoints" : [  ]
				}

			}
, 			{
				"patchline" : 				{
					"source" : [ "obj-12", 10 ],
					"destination" : [ "obj-58", 0 ],
					"hidden" : 0,
					"midpoints" : [  ]
				}

			}
, 			{
				"patchline" : 				{
					"source" : [ "obj-12", 11 ],
					"destination" : [ "obj-60", 0 ],
					"hidden" : 0,
					"midpoints" : [  ]
				}

			}
, 			{
				"patchline" : 				{
					"source" : [ "obj-12", 12 ],
					"destination" : [ "obj-61", 0 ],
					"hidden" : 0,
					"midpoints" : [  ]
				}

			}
, 			{
				"patchline" : 				{
					"source" : [ "obj-12", 13 ],
					"destination" : [ "obj-62", 0 ],
					"hidden" : 0,
					"midpoints" : [  ]
				}

			}
, 			{
				"patchline" : 				{
					"source" : [ "obj-12", 14 ],
					"destination" : [ "obj-65", 0 ],
					"hidden" : 0,
					"midpoints" : [  ]
				}

			}
, 			{
				"patchline" : 				{
					"source" : [ "obj-12", 15 ],
					"destination" : [ "obj-66", 0 ],
					"hidden" : 0,
					"midpoints" : [  ]
				}

			}
, 			{
				"patchline" : 				{
					"source" : [ "obj-17", 0 ],
					"destination" : [ "obj-12", 0 ],
					"hidden" : 0,
					"midpoints" : [  ]
				}

			}
, 			{
				"patchline" : 				{
					"source" : [ "obj-15", 0 ],
					"destination" : [ "obj-12", 0 ],
					"hidden" : 0,
					"midpoints" : [  ]
				}

			}
, 			{
				"patchline" : 				{
					"source" : [ "obj-10", 0 ],
					"destination" : [ "obj-12", 0 ],
					"hidden" : 0,
					"midpoints" : [  ]
				}

			}
, 			{
				"patchline" : 				{
					"source" : [ "obj-22", 14 ],
					"destination" : [ "obj-12", 14 ],
					"hidden" : 0,
					"color" : [ 1.0, 0.0, 0.0, 1.0 ],
					"midpoints" : [  ]
				}

			}
, 			{
				"patchline" : 				{
					"source" : [ "obj-22", 13 ],
					"destination" : [ "obj-12", 13 ],
					"hidden" : 0,
					"color" : [ 0.0, 0.0, 1.0, 1.0 ],
					"midpoints" : [  ]
				}

			}
, 			{
				"patchline" : 				{
					"source" : [ "obj-22", 0 ],
					"destination" : [ "obj-12", 0 ],
					"hidden" : 0,
					"color" : [ 0.0, 0.0, 1.0, 1.0 ],
					"midpoints" : [  ]
				}

			}
, 			{
				"patchline" : 				{
					"source" : [ "obj-22", 1 ],
					"destination" : [ "obj-12", 1 ],
					"hidden" : 0,
					"color" : [ 0.0, 0.0, 1.0, 1.0 ],
					"midpoints" : [  ]
				}

			}
, 			{
				"patchline" : 				{
					"source" : [ "obj-22", 2 ],
					"destination" : [ "obj-12", 2 ],
					"hidden" : 0,
					"color" : [ 1.0, 0.0, 0.0, 1.0 ],
					"midpoints" : [  ]
				}

			}
, 			{
				"patchline" : 				{
					"source" : [ "obj-22", 3 ],
					"destination" : [ "obj-12", 3 ],
					"hidden" : 0,
					"color" : [ 0.0, 0.0, 1.0, 1.0 ],
					"midpoints" : [  ]
				}

			}
, 			{
				"patchline" : 				{
					"source" : [ "obj-22", 4 ],
					"destination" : [ "obj-12", 4 ],
					"hidden" : 0,
					"color" : [ 1.0, 0.0, 0.0, 1.0 ],
					"midpoints" : [  ]
				}

			}
, 			{
				"patchline" : 				{
					"source" : [ "obj-22", 5 ],
					"destination" : [ "obj-12", 5 ],
					"hidden" : 0,
					"color" : [ 0.0, 0.0, 1.0, 1.0 ],
					"midpoints" : [  ]
				}

			}
, 			{
				"patchline" : 				{
					"source" : [ "obj-22", 6 ],
					"destination" : [ "obj-12", 6 ],
					"hidden" : 0,
					"color" : [ 1.0, 0.0, 0.0, 1.0 ],
					"midpoints" : [  ]
				}

			}
, 			{
				"patchline" : 				{
					"source" : [ "obj-22", 7 ],
					"destination" : [ "obj-12", 7 ],
					"hidden" : 0,
					"color" : [ 0.0, 0.0, 1.0, 1.0 ],
					"midpoints" : [  ]
				}

			}
, 			{
				"patchline" : 				{
					"source" : [ "obj-22", 8 ],
					"destination" : [ "obj-12", 8 ],
					"hidden" : 0,
					"color" : [ 1.0, 0.0, 0.0, 1.0 ],
					"midpoints" : [  ]
				}

			}
, 			{
				"patchline" : 				{
					"source" : [ "obj-22", 9 ],
					"destination" : [ "obj-12", 9 ],
					"hidden" : 0,
					"color" : [ 0.0, 0.0, 1.0, 1.0 ],
					"midpoints" : [  ]
				}

			}
, 			{
				"patchline" : 				{
					"source" : [ "obj-22", 10 ],
					"destination" : [ "obj-12", 10 ],
					"hidden" : 0,
					"color" : [ 1.0, 0.0, 0.0, 1.0 ],
					"midpoints" : [  ]
				}

			}
, 			{
				"patchline" : 				{
					"source" : [ "obj-22", 11 ],
					"destination" : [ "obj-12", 11 ],
					"hidden" : 0,
					"color" : [ 0.0, 0.0, 1.0, 1.0 ],
					"midpoints" : [  ]
				}

			}
, 			{
				"patchline" : 				{
					"source" : [ "obj-22", 12 ],
					"destination" : [ "obj-12", 12 ],
					"hidden" : 0,
					"color" : [ 1.0, 0.0, 0.0, 1.0 ],
					"midpoints" : [  ]
				}

			}
, 			{
				"patchline" : 				{
					"source" : [ "obj-74", 0 ],
					"destination" : [ "obj-22", 0 ],
					"hidden" : 0,
					"midpoints" : [  ]
				}

			}
, 			{
				"patchline" : 				{
					"source" : [ "obj-7", 0 ],
					"destination" : [ "obj-22", 1 ],
					"hidden" : 0,
					"midpoints" : [  ]
				}

			}
, 			{
				"patchline" : 				{
					"source" : [ "obj-63", 0 ],
					"destination" : [ "obj-32", 0 ],
					"hidden" : 0,
					"midpoints" : [ 578.5, 171.5, 499.5, 171.5 ]
				}

			}
, 			{
				"patchline" : 				{
					"source" : [ "obj-11", 0 ],
					"destination" : [ "obj-8", 0 ],
					"hidden" : 0,
					"midpoints" : [  ]
				}

			}
, 			{
				"patchline" : 				{
					"source" : [ "obj-6", 0 ],
					"destination" : [ "obj-7", 0 ],
					"hidden" : 0,
					"midpoints" : [  ]
				}

			}
, 			{
				"patchline" : 				{
					"source" : [ "obj-20", 0 ],
					"destination" : [ "obj-21", 0 ],
					"hidden" : 0,
					"midpoints" : [  ]
				}

			}
, 			{
				"patchline" : 				{
					"source" : [ "obj-21", 0 ],
					"destination" : [ "obj-11", 0 ],
					"hidden" : 0,
					"midpoints" : [  ]
				}

			}
, 			{
				"patchline" : 				{
					"source" : [ "obj-13", 0 ],
					"destination" : [ "obj-1", 0 ],
					"hidden" : 0,
					"midpoints" : [  ]
				}

			}
, 			{
				"patchline" : 				{
					"source" : [ "obj-1", 0 ],
					"destination" : [ "obj-6", 0 ],
					"hidden" : 0,
					"midpoints" : [  ]
				}

			}
 ]
	}

}
