{
	"patcher" : 	{
		"fileversion" : 1,
		"rect" : [ 142.0, 44.0, 1059.0, 617.0 ],
		"bglocked" : 0,
		"defrect" : [ 142.0, 44.0, 1059.0, 617.0 ],
		"openrect" : [ 0.0, 0.0, 0.0, 0.0 ],
		"openinpresentation" : 0,
		"default_fontsize" : 12.0,
		"default_fontface" : 0,
		"default_fontname" : "Arial",
		"gridonopen" : 0,
		"gridsize" : [ 15.0, 15.0 ],
		"gridsnaponopen" : 0,
		"toolbarvisible" : 1,
		"boxanimatetime" : 200,
		"imprint" : 0,
		"boxes" : [ 			{
				"box" : 				{
					"maxclass" : "newobj",
					"text" : "r cmds",
					"fontname" : "Arial",
					"numoutlets" : 1,
					"id" : "obj-23",
					"patching_rect" : [ 233.0, 259.0, 45.0, 20.0 ],
					"outlettype" : [ "" ],
					"fontsize" : 11.595187,
					"numinlets" : 0
				}

			}
, 			{
				"box" : 				{
					"maxclass" : "newobj",
					"text" : "dac~ 1 2 3 4 5 6 7 8 9 10 11 12 13 14 15 16",
					"fontname" : "Arial",
					"numoutlets" : 0,
					"id" : "obj-30",
					"patching_rect" : [ 263.0, 449.0, 254.0, 20.0 ],
					"fontsize" : 12.0,
					"numinlets" : 16
				}

			}
, 			{
				"box" : 				{
					"maxclass" : "newobj",
					"text" : "hoa.decoder~ 7 16",
					"fontname" : "Arial",
					"numoutlets" : 16,
					"id" : "obj-20",
					"patching_rect" : [ 260.0, 405.0, 221.5, 20.0 ],
					"outlettype" : [ "signal", "signal", "signal", "signal", "signal", "signal", "signal", "signal", "signal", "signal", "signal", "signal", "signal", "signal", "signal", "signal" ],
					"fontsize" : 12.0,
					"numinlets" : 15
				}

			}
, 			{
				"box" : 				{
					"maxclass" : "newobj",
					"text" : "hoa.rotate~ 7",
					"fontname" : "Arial",
					"numoutlets" : 15,
					"id" : "obj-2",
					"patching_rect" : [ 260.0, 360.0, 221.5, 20.0 ],
					"outlettype" : [ "signal", "signal", "signal", "signal", "signal", "signal", "signal", "signal", "signal", "signal", "signal", "signal", "signal", "signal", "signal" ],
					"fontsize" : 12.0,
					"numinlets" : 16
				}

			}
, 			{
				"box" : 				{
					"maxclass" : "bpatcher",
					"numoutlets" : 1,
					"id" : "obj-74",
					"embed" : 1,
					"patching_rect" : [ 568.0, 73.0, 345.0, 122.0 ],
					"outlettype" : [ "signal" ],
					"args" : [  ],
					"name" : "AudioInput",
					"numinlets" : 0,
					"patcher" : 					{
						"fileversion" : 1,
						"rect" : [ 568.0, 73.0, 345.0, 122.0 ],
						"bgcolor" : [ 1.0, 1.0, 1.0, 0.0 ],
						"bglocked" : 0,
						"defrect" : [ 568.0, 73.0, 345.0, 122.0 ],
						"openrect" : [ 0.0, 0.0, 0.0, 0.0 ],
						"openinpresentation" : 1,
						"default_fontsize" : 12.0,
						"default_fontface" : 0,
						"default_fontname" : "Arial",
						"gridonopen" : 0,
						"gridsize" : [ 15.0, 15.0 ],
						"gridsnaponopen" : 0,
						"toolbarvisible" : 1,
						"boxanimatetime" : 200,
						"imprint" : 0,
						"boxes" : [ 							{
								"box" : 								{
									"maxclass" : "bpatcher",
									"varname" : "Soundofile",
									"numoutlets" : 1,
									"id" : "obj-4",
									"embed" : 1,
									"patching_rect" : [ 195.0, 0.0, 240.0, 120.0 ],
									"outlettype" : [ "signal" ],
									"presentation" : 1,
									"args" : [  ],
									"name" : "SoundFile",
									"numinlets" : 1,
									"presentation_rect" : [ 105.0, 0.0, 240.0, 120.0 ],
									"patcher" : 									{
										"fileversion" : 1,
										"rect" : [ 105.0, 0.0, 240.0, 120.0 ],
										"bgcolor" : [ 1.0, 1.0, 1.0, 0.0 ],
										"bglocked" : 0,
										"defrect" : [ 105.0, 0.0, 240.0, 120.0 ],
										"openrect" : [ 0.0, 0.0, 0.0, 0.0 ],
										"openinpresentation" : 0,
										"default_fontsize" : 12.0,
										"default_fontface" : 0,
										"default_fontname" : "Arial",
										"gridonopen" : 0,
										"gridsize" : [ 15.0, 15.0 ],
										"gridsnaponopen" : 0,
										"toolbarvisible" : 1,
										"boxanimatetime" : 200,
										"imprint" : 0,
										"boxes" : [ 											{
												"box" : 												{
													"maxclass" : "inlet",
													"numoutlets" : 1,
													"id" : "obj-19",
													"patching_rect" : [ 345.0, 105.0, 25.0, 25.0 ],
													"outlettype" : [ "" ],
													"numinlets" : 0,
													"comment" : ""
												}

											}
, 											{
												"box" : 												{
													"maxclass" : "outlet",
													"numoutlets" : 0,
													"id" : "obj-1",
													"patching_rect" : [ 45.0, 240.0, 25.0, 25.0 ],
													"numinlets" : 1,
													"comment" : ""
												}

											}
, 											{
												"box" : 												{
													"maxclass" : "newobj",
													"text" : "sfplay~ 2",
													"fontname" : "Arial",
													"numoutlets" : 3,
													"id" : "obj-6",
													"patching_rect" : [ 16.0, 90.0, 59.0, 20.0 ],
													"outlettype" : [ "signal", "signal", "bang" ],
													"fontsize" : 12.0,
													"numinlets" : 2,
													"save" : [ "#N", "sfplay~", "", 2, 120960, 0, "", ";" ]
												}

											}
, 											{
												"box" : 												{
													"maxclass" : "playbar",
													"numoutlets" : 2,
													"id" : "obj-3",
													"patching_rect" : [ 16.0, 54.5, 180.0, 15.0 ],
													"outlettype" : [ "", "int" ],
													"numinlets" : 1
												}

											}
, 											{
												"box" : 												{
													"maxclass" : "message",
													"text" : "open",
													"fontname" : "Arial",
													"numoutlets" : 1,
													"id" : "obj-10",
													"patching_rect" : [ 16.0, 14.0, 37.0, 18.0 ],
													"outlettype" : [ "" ],
													"fontsize" : 12.0,
													"numinlets" : 2
												}

											}
, 											{
												"box" : 												{
													"maxclass" : "panel",
													"numoutlets" : 0,
													"id" : "obj-36",
													"patching_rect" : [ 0.0, 0.0, 240.0, 120.0 ],
													"border" : 2,
													"bgcolor" : [ 0.858824, 0.858824, 0.858824, 1.0 ],
													"numinlets" : 1
												}

											}
 ],
										"lines" : [ 											{
												"patchline" : 												{
													"source" : [ "obj-6", 0 ],
													"destination" : [ "obj-1", 0 ],
													"hidden" : 0,
													"midpoints" : [  ]
												}

											}
, 											{
												"patchline" : 												{
													"source" : [ "obj-6", 1 ],
													"destination" : [ "obj-1", 0 ],
													"hidden" : 0,
													"midpoints" : [  ]
												}

											}
, 											{
												"patchline" : 												{
													"source" : [ "obj-3", 0 ],
													"destination" : [ "obj-6", 0 ],
													"hidden" : 0,
													"midpoints" : [  ]
												}

											}
, 											{
												"patchline" : 												{
													"source" : [ "obj-10", 0 ],
													"destination" : [ "obj-6", 0 ],
													"hidden" : 0,
													"midpoints" : [  ]
												}

											}
 ]
									}

								}

							}
, 							{
								"box" : 								{
									"maxclass" : "bpatcher",
									"varname" : "noiso",
									"numoutlets" : 1,
									"id" : "obj-6",
									"embed" : 1,
									"patching_rect" : [ 270.0, 0.0, 240.0, 120.0 ],
									"outlettype" : [ "signal" ],
									"presentation" : 1,
									"args" : [  ],
									"name" : "Noise",
									"numinlets" : 1,
									"presentation_rect" : [ 105.0, 0.0, 240.0, 120.0 ],
									"patcher" : 									{
										"fileversion" : 1,
										"rect" : [ 105.0, 0.0, 240.0, 120.0 ],
										"bgcolor" : [ 1.0, 1.0, 1.0, 0.0 ],
										"bglocked" : 0,
										"defrect" : [ 105.0, 0.0, 240.0, 120.0 ],
										"openrect" : [ 0.0, 0.0, 0.0, 0.0 ],
										"openinpresentation" : 0,
										"default_fontsize" : 12.0,
										"default_fontface" : 0,
										"default_fontname" : "Arial",
										"gridonopen" : 0,
										"gridsize" : [ 15.0, 15.0 ],
										"gridsnaponopen" : 0,
										"toolbarvisible" : 1,
										"boxanimatetime" : 200,
										"imprint" : 0,
										"boxes" : [ 											{
												"box" : 												{
													"maxclass" : "inlet",
													"numoutlets" : 1,
													"id" : "obj-19",
													"patching_rect" : [ 330.0, 90.0, 25.0, 25.0 ],
													"outlettype" : [ "" ],
													"numinlets" : 0,
													"comment" : ""
												}

											}
, 											{
												"box" : 												{
													"maxclass" : "outlet",
													"numoutlets" : 0,
													"id" : "obj-1",
													"patching_rect" : [ 75.0, 195.0, 25.0, 25.0 ],
													"numinlets" : 1,
													"comment" : ""
												}

											}
, 											{
												"box" : 												{
													"maxclass" : "newobj",
													"text" : "p noisy",
													"fontname" : "Arial",
													"numoutlets" : 1,
													"id" : "obj-24",
													"patching_rect" : [ 75.0, 135.0, 47.0, 20.0 ],
													"outlettype" : [ "signal" ],
													"fontsize" : 11.595187,
													"numinlets" : 1,
													"patcher" : 													{
														"fileversion" : 1,
														"rect" : [ 29.0, 67.0, 640.0, 480.0 ],
														"bglocked" : 0,
														"defrect" : [ 29.0, 67.0, 640.0, 480.0 ],
														"openrect" : [ 0.0, 0.0, 0.0, 0.0 ],
														"openinpresentation" : 0,
														"default_fontsize" : 12.0,
														"default_fontface" : 0,
														"default_fontname" : "Arial",
														"gridonopen" : 0,
														"gridsize" : [ 15.0, 15.0 ],
														"gridsnaponopen" : 0,
														"toolbarvisible" : 1,
														"boxanimatetime" : 200,
														"imprint" : 0,
														"boxes" : [ 															{
																"box" : 																{
																	"maxclass" : "newobj",
																	"text" : "noise~",
																	"fontname" : "Arial",
																	"numoutlets" : 1,
																	"id" : "obj-68",
																	"patching_rect" : [ 50.0, 100.0, 43.0, 20.0 ],
																	"outlettype" : [ "signal" ],
																	"fontsize" : 11.595187,
																	"numinlets" : 1
																}

															}
, 															{
																"box" : 																{
																	"maxclass" : "newobj",
																	"text" : "biquad~",
																	"fontname" : "Arial",
																	"numoutlets" : 1,
																	"id" : "obj-69",
																	"patching_rect" : [ 215.0, 130.0, 79.0, 20.0 ],
																	"outlettype" : [ "signal" ],
																	"fontsize" : 11.595187,
																	"numinlets" : 6
																}

															}
, 															{
																"box" : 																{
																	"maxclass" : "inlet",
																	"numoutlets" : 1,
																	"id" : "obj-16",
																	"patching_rect" : [ 227.0, 40.0, 25.0, 25.0 ],
																	"outlettype" : [ "list" ],
																	"numinlets" : 0,
																	"comment" : ""
																}

															}
, 															{
																"box" : 																{
																	"maxclass" : "outlet",
																	"numoutlets" : 0,
																	"id" : "obj-20",
																	"patching_rect" : [ 215.0, 210.0, 25.0, 25.0 ],
																	"numinlets" : 1,
																	"comment" : ""
																}

															}
 ],
														"lines" : [ 															{
																"patchline" : 																{
																	"source" : [ "obj-69", 0 ],
																	"destination" : [ "obj-20", 0 ],
																	"hidden" : 0,
																	"midpoints" : [  ]
																}

															}
, 															{
																"patchline" : 																{
																	"source" : [ "obj-68", 0 ],
																	"destination" : [ "obj-69", 0 ],
																	"hidden" : 0,
																	"midpoints" : [  ]
																}

															}
, 															{
																"patchline" : 																{
																	"source" : [ "obj-16", 0 ],
																	"destination" : [ "obj-69", 1 ],
																	"hidden" : 0,
																	"midpoints" : [  ]
																}

															}
 ]
													}
,
													"saved_object_attributes" : 													{
														"fontname" : "Arial",
														"globalpatchername" : "",
														"default_fontface" : 0,
														"fontface" : 0,
														"fontsize" : 12.0,
														"default_fontname" : "Arial",
														"default_fontsize" : 12.0
													}

												}

											}
, 											{
												"box" : 												{
													"maxclass" : "umenu",
													"fontname" : "Arial",
													"numoutlets" : 3,
													"id" : "obj-47",
													"types" : [  ],
													"patching_rect" : [ 12.0, 7.5, 88.0, 20.0 ],
													"outlettype" : [ "int", "", "" ],
													"fontsize" : 11.595187,
													"items" : [ "display", ",", "lowpass", ",", "highpass", ",", "bandpass", ",", "bandstop", ",", "peaknotch", ",", "lowshelf", ",", "highshelf", ",", "resonant", ",", "allpass" ],
													"numinlets" : 1
												}

											}
, 											{
												"box" : 												{
													"maxclass" : "filtergraph~",
													"numoutlets" : 7,
													"hcurvecolor" : [ 1.0, 0.086275, 0.086275, 1.0 ],
													"id" : "obj-81",
													"markercolor" : [ 0.509804, 0.509804, 0.509804, 1.0 ],
													"fgcolor" : [ 0.756863, 0.756863, 1.0, 1.0 ],
													"domain" : [ 0.0, 22050.0 ],
													"patching_rect" : [ 12.0, 27.5, 198.0, 77.5 ],
													"outlettype" : [ "list", "float", "float", "float", "float", "list", "int" ],
													"bwidthcolor" : [ 0.462745, 0.47451, 0.65098, 1.0 ],
													"fontsize" : 8.998901,
													"logfreq" : 0,
													"bgcolor" : [ 0.913725, 0.913725, 1.0, 1.0 ],
													"hbwidthcolor" : [ 0.823529, 0.290196, 0.211765, 1.0 ],
													"numinlets" : 8,
													"autoout" : 1,
													"nfilters" : 1,
													"setfilter" : [ 0, 1, 0, 0, 0, 20490.908203, 1.0, 0.5, 0.0001, 22050.0, 0.0001, 16.0, 0.5, 25.0 ]
												}

											}
, 											{
												"box" : 												{
													"maxclass" : "panel",
													"numoutlets" : 0,
													"id" : "obj-31",
													"patching_rect" : [ 0.0, 0.0, 240.0, 120.0 ],
													"border" : 2,
													"bgcolor" : [ 0.858824, 0.858824, 0.858824, 1.0 ],
													"numinlets" : 1
												}

											}
, 											{
												"box" : 												{
													"maxclass" : "comment",
													"text" : "Play with noise",
													"fontname" : "Arial",
													"numoutlets" : 0,
													"id" : "obj-41",
													"patching_rect" : [ 105.0, 15.0, 138.0, 20.0 ],
													"fontsize" : 11.595187,
													"numinlets" : 1
												}

											}
 ],
										"lines" : [ 											{
												"patchline" : 												{
													"source" : [ "obj-81", 0 ],
													"destination" : [ "obj-24", 0 ],
													"hidden" : 0,
													"midpoints" : [  ]
												}

											}
, 											{
												"patchline" : 												{
													"source" : [ "obj-47", 1 ],
													"destination" : [ "obj-81", 0 ],
													"hidden" : 0,
													"midpoints" : [  ]
												}

											}
, 											{
												"patchline" : 												{
													"source" : [ "obj-24", 0 ],
													"destination" : [ "obj-1", 0 ],
													"hidden" : 0,
													"midpoints" : [  ]
												}

											}
 ]
									}

								}

							}
, 							{
								"box" : 								{
									"maxclass" : "bpatcher",
									"varname" : "cyclophaso",
									"numoutlets" : 1,
									"id" : "obj-7",
									"embed" : 1,
									"patching_rect" : [ 585.0, 0.0, 240.0, 120.0 ],
									"outlettype" : [ "signal" ],
									"presentation" : 1,
									"args" : [  ],
									"name" : "cyclephasor",
									"numinlets" : 1,
									"presentation_rect" : [ 105.0, 0.0, 240.0, 120.0 ],
									"patcher" : 									{
										"fileversion" : 1,
										"rect" : [ 105.0, 0.0, 240.0, 120.0 ],
										"bgcolor" : [ 1.0, 1.0, 1.0, 0.0 ],
										"bglocked" : 0,
										"defrect" : [ 105.0, 0.0, 240.0, 120.0 ],
										"openrect" : [ 0.0, 0.0, 0.0, 0.0 ],
										"openinpresentation" : 0,
										"default_fontsize" : 12.0,
										"default_fontface" : 0,
										"default_fontname" : "Arial",
										"gridonopen" : 0,
										"gridsize" : [ 15.0, 15.0 ],
										"gridsnaponopen" : 0,
										"toolbarvisible" : 1,
										"boxanimatetime" : 200,
										"imprint" : 0,
										"boxes" : [ 											{
												"box" : 												{
													"maxclass" : "inlet",
													"numoutlets" : 1,
													"id" : "obj-19",
													"patching_rect" : [ 315.0, 75.0, 25.0, 25.0 ],
													"outlettype" : [ "" ],
													"numinlets" : 0,
													"comment" : ""
												}

											}
, 											{
												"box" : 												{
													"maxclass" : "outlet",
													"numoutlets" : 0,
													"id" : "obj-15",
													"patching_rect" : [ 75.0, 195.0, 25.0, 25.0 ],
													"numinlets" : 1,
													"comment" : ""
												}

											}
, 											{
												"box" : 												{
													"maxclass" : "newobj",
													"text" : "loadmess 128",
													"fontname" : "Arial",
													"numoutlets" : 1,
													"id" : "obj-14",
													"hidden" : 1,
													"patching_rect" : [ 15.0, 0.0, 83.0, 20.0 ],
													"outlettype" : [ "" ],
													"fontsize" : 11.595187,
													"numinlets" : 1
												}

											}
, 											{
												"box" : 												{
													"maxclass" : "gain~",
													"numoutlets" : 2,
													"id" : "obj-13",
													"patching_rect" : [ 135.0, 90.0, 89.0, 17.0 ],
													"outlettype" : [ "signal", "int" ],
													"numinlets" : 2
												}

											}
, 											{
												"box" : 												{
													"maxclass" : "gain~",
													"numoutlets" : 2,
													"id" : "obj-12",
													"patching_rect" : [ 15.0, 90.0, 89.0, 17.0 ],
													"outlettype" : [ "signal", "int" ],
													"numinlets" : 2
												}

											}
, 											{
												"box" : 												{
													"maxclass" : "flonum",
													"fontname" : "Arial",
													"numoutlets" : 2,
													"id" : "obj-7",
													"patching_rect" : [ 135.0, 30.0, 58.0, 20.0 ],
													"outlettype" : [ "float", "bang" ],
													"fontsize" : 11.595187,
													"numinlets" : 1
												}

											}
, 											{
												"box" : 												{
													"maxclass" : "newobj",
													"text" : "phasor~ 440",
													"fontname" : "Arial",
													"numoutlets" : 1,
													"id" : "obj-6",
													"patching_rect" : [ 135.0, 60.0, 75.0, 20.0 ],
													"outlettype" : [ "signal" ],
													"fontsize" : 11.595187,
													"numinlets" : 2
												}

											}
, 											{
												"box" : 												{
													"maxclass" : "newobj",
													"text" : "loadmess 440",
													"fontname" : "Arial",
													"numoutlets" : 1,
													"id" : "obj-84",
													"hidden" : 1,
													"patching_rect" : [ 90.0, 0.0, 83.0, 20.0 ],
													"outlettype" : [ "" ],
													"fontsize" : 11.595187,
													"numinlets" : 1
												}

											}
, 											{
												"box" : 												{
													"maxclass" : "comment",
													"text" : "Set frequency",
													"fontname" : "Arial",
													"numoutlets" : 0,
													"id" : "obj-80",
													"patching_rect" : [ 75.0, 0.0, 83.0, 20.0 ],
													"fontsize" : 11.595187,
													"numinlets" : 1
												}

											}
, 											{
												"box" : 												{
													"maxclass" : "flonum",
													"fontname" : "Arial",
													"numoutlets" : 2,
													"id" : "obj-75",
													"patching_rect" : [ 15.0, 30.0, 58.0, 20.0 ],
													"outlettype" : [ "float", "bang" ],
													"fontsize" : 11.595187,
													"numinlets" : 1
												}

											}
, 											{
												"box" : 												{
													"maxclass" : "newobj",
													"text" : "cycle~ 440",
													"fontname" : "Arial",
													"numoutlets" : 1,
													"id" : "obj-70",
													"patching_rect" : [ 15.0, 60.0, 66.0, 20.0 ],
													"outlettype" : [ "signal" ],
													"fontsize" : 11.595187,
													"numinlets" : 2
												}

											}
, 											{
												"box" : 												{
													"maxclass" : "panel",
													"numoutlets" : 0,
													"id" : "obj-74",
													"patching_rect" : [ 0.0, 0.0, 240.0, 120.0 ],
													"border" : 2,
													"bgcolor" : [ 0.858824, 0.858824, 0.858824, 1.0 ],
													"numinlets" : 1
												}

											}
 ],
										"lines" : [ 											{
												"patchline" : 												{
													"source" : [ "obj-84", 0 ],
													"destination" : [ "obj-75", 0 ],
													"hidden" : 0,
													"midpoints" : [  ]
												}

											}
, 											{
												"patchline" : 												{
													"source" : [ "obj-84", 0 ],
													"destination" : [ "obj-7", 0 ],
													"hidden" : 0,
													"midpoints" : [  ]
												}

											}
, 											{
												"patchline" : 												{
													"source" : [ "obj-75", 0 ],
													"destination" : [ "obj-70", 0 ],
													"hidden" : 0,
													"midpoints" : [  ]
												}

											}
, 											{
												"patchline" : 												{
													"source" : [ "obj-70", 0 ],
													"destination" : [ "obj-12", 0 ],
													"hidden" : 0,
													"midpoints" : [  ]
												}

											}
, 											{
												"patchline" : 												{
													"source" : [ "obj-7", 0 ],
													"destination" : [ "obj-6", 0 ],
													"hidden" : 0,
													"midpoints" : [  ]
												}

											}
, 											{
												"patchline" : 												{
													"source" : [ "obj-6", 0 ],
													"destination" : [ "obj-13", 0 ],
													"hidden" : 0,
													"midpoints" : [  ]
												}

											}
, 											{
												"patchline" : 												{
													"source" : [ "obj-14", 0 ],
													"destination" : [ "obj-12", 0 ],
													"hidden" : 0,
													"midpoints" : [  ]
												}

											}
, 											{
												"patchline" : 												{
													"source" : [ "obj-13", 0 ],
													"destination" : [ "obj-15", 0 ],
													"hidden" : 0,
													"midpoints" : [  ]
												}

											}
, 											{
												"patchline" : 												{
													"source" : [ "obj-12", 0 ],
													"destination" : [ "obj-15", 0 ],
													"hidden" : 0,
													"midpoints" : [  ]
												}

											}
 ]
									}

								}

							}
, 							{
								"box" : 								{
									"maxclass" : "bpatcher",
									"varname" : "dacodac",
									"numoutlets" : 1,
									"id" : "obj-8",
									"embed" : 1,
									"patching_rect" : [ 570.0, 145.0, 240.0, 120.0 ],
									"outlettype" : [ "signal" ],
									"presentation" : 1,
									"args" : [  ],
									"name" : "Dacodac",
									"numinlets" : 1,
									"presentation_rect" : [ 105.0, 0.0, 240.0, 120.0 ],
									"patcher" : 									{
										"fileversion" : 1,
										"rect" : [ 105.0, 0.0, 240.0, 120.0 ],
										"bgcolor" : [ 1.0, 1.0, 1.0, 0.0 ],
										"bglocked" : 0,
										"defrect" : [ 105.0, 0.0, 240.0, 120.0 ],
										"openrect" : [ 0.0, 0.0, 0.0, 0.0 ],
										"openinpresentation" : 0,
										"default_fontsize" : 12.0,
										"default_fontface" : 0,
										"default_fontname" : "Arial",
										"gridonopen" : 0,
										"gridsize" : [ 15.0, 15.0 ],
										"gridsnaponopen" : 0,
										"toolbarvisible" : 1,
										"boxanimatetime" : 200,
										"imprint" : 0,
										"boxes" : [ 											{
												"box" : 												{
													"maxclass" : "inlet",
													"numoutlets" : 1,
													"id" : "obj-19",
													"patching_rect" : [ 300.0, 60.0, 25.0, 25.0 ],
													"outlettype" : [ "" ],
													"numinlets" : 0,
													"comment" : ""
												}

											}
, 											{
												"box" : 												{
													"maxclass" : "tab",
													"fontname" : "Arial",
													"numoutlets" : 3,
													"id" : "obj-7",
													"tabs" : [ "one", "two", "three", "four" ],
													"patching_rect" : [ 20.0, 30.0, 200.0, 20.0 ],
													"outlettype" : [ "int", "", "" ],
													"border" : 1,
													"fontsize" : 12.0,
													"numinlets" : 1
												}

											}
, 											{
												"box" : 												{
													"maxclass" : "comment",
													"text" : "Select channel",
													"fontname" : "Arial",
													"numoutlets" : 0,
													"id" : "obj-4",
													"patching_rect" : [ 75.0, 0.0, 90.0, 20.0 ],
													"fontsize" : 12.0,
													"numinlets" : 1
												}

											}
, 											{
												"box" : 												{
													"maxclass" : "outlet",
													"numoutlets" : 0,
													"id" : "obj-2",
													"patching_rect" : [ 96.5, 150.0, 25.0, 25.0 ],
													"numinlets" : 1,
													"comment" : ""
												}

											}
, 											{
												"box" : 												{
													"maxclass" : "newobj",
													"text" : "adc~ 1",
													"fontname" : "Arial",
													"numoutlets" : 1,
													"id" : "obj-1",
													"patching_rect" : [ 96.5, 75.0, 47.0, 20.0 ],
													"outlettype" : [ "signal" ],
													"fontsize" : 12.0,
													"numinlets" : 1
												}

											}
, 											{
												"box" : 												{
													"maxclass" : "panel",
													"numoutlets" : 0,
													"id" : "obj-74",
													"patching_rect" : [ 0.0, 0.0, 240.0, 120.0 ],
													"border" : 2,
													"bgcolor" : [ 0.858824, 0.858824, 0.858824, 1.0 ],
													"numinlets" : 1
												}

											}
, 											{
												"box" : 												{
													"maxclass" : "message",
													"text" : "set $1",
													"fontname" : "Arial",
													"numoutlets" : 1,
													"id" : "obj-17",
													"patching_rect" : [ 20.0, 90.0, 43.0, 18.0 ],
													"outlettype" : [ "" ],
													"fontsize" : 12.0,
													"numinlets" : 2
												}

											}
, 											{
												"box" : 												{
													"maxclass" : "newobj",
													"text" : "+ 1",
													"fontname" : "Arial",
													"numoutlets" : 1,
													"id" : "obj-12",
													"patching_rect" : [ 20.0, 50.0, 32.5, 20.0 ],
													"outlettype" : [ "int" ],
													"fontsize" : 12.0,
													"numinlets" : 2
												}

											}
 ],
										"lines" : [ 											{
												"patchline" : 												{
													"source" : [ "obj-7", 0 ],
													"destination" : [ "obj-12", 0 ],
													"hidden" : 0,
													"midpoints" : [  ]
												}

											}
, 											{
												"patchline" : 												{
													"source" : [ "obj-17", 0 ],
													"destination" : [ "obj-1", 0 ],
													"hidden" : 0,
													"midpoints" : [  ]
												}

											}
, 											{
												"patchline" : 												{
													"source" : [ "obj-12", 0 ],
													"destination" : [ "obj-17", 0 ],
													"hidden" : 0,
													"midpoints" : [  ]
												}

											}
, 											{
												"patchline" : 												{
													"source" : [ "obj-1", 0 ],
													"destination" : [ "obj-2", 0 ],
													"hidden" : 0,
													"midpoints" : [  ]
												}

											}
 ]
									}

								}

							}
, 							{
								"box" : 								{
									"maxclass" : "message",
									"text" : "script bringtofront cyclophaso",
									"fontname" : "Arial",
									"numoutlets" : 1,
									"id" : "obj-20",
									"patching_rect" : [ 426.0, 328.5, 161.0, 18.0 ],
									"outlettype" : [ "" ],
									"fontsize" : 11.595187,
									"numinlets" : 2
								}

							}
, 							{
								"box" : 								{
									"maxclass" : "message",
									"text" : "script bringtofront Soundofile",
									"fontname" : "Arial",
									"numoutlets" : 1,
									"id" : "obj-19",
									"patching_rect" : [ 270.0, 340.0, 158.0, 18.0 ],
									"outlettype" : [ "" ],
									"fontsize" : 11.595187,
									"numinlets" : 2
								}

							}
, 							{
								"box" : 								{
									"maxclass" : "message",
									"text" : "script bringtofront dacodac",
									"fontname" : "Arial",
									"numoutlets" : 1,
									"id" : "obj-18",
									"patching_rect" : [ 330.0, 285.0, 147.0, 18.0 ],
									"outlettype" : [ "" ],
									"fontsize" : 11.595187,
									"numinlets" : 2
								}

							}
, 							{
								"box" : 								{
									"maxclass" : "message",
									"text" : "script bringtofront noiso",
									"fontname" : "Arial",
									"numoutlets" : 1,
									"id" : "obj-17",
									"patching_rect" : [ 180.0, 297.0, 131.0, 18.0 ],
									"outlettype" : [ "" ],
									"fontsize" : 11.595187,
									"numinlets" : 2
								}

							}
, 							{
								"box" : 								{
									"maxclass" : "newobj",
									"text" : "sel 1 2 3 4",
									"fontname" : "Arial",
									"numoutlets" : 5,
									"id" : "obj-10",
									"patching_rect" : [ 180.0, 255.0, 73.0, 20.0 ],
									"outlettype" : [ "bang", "bang", "bang", "bang", "" ],
									"fontsize" : 12.0,
									"numinlets" : 1
								}

							}
, 							{
								"box" : 								{
									"maxclass" : "newobj",
									"text" : "thispatcher",
									"fontname" : "Arial",
									"numoutlets" : 2,
									"id" : "obj-9",
									"patching_rect" : [ 195.0, 390.0, 69.0, 20.0 ],
									"outlettype" : [ "", "" ],
									"fontsize" : 12.0,
									"numinlets" : 1,
									"save" : [ "#N", "thispatcher", ";", "#Q", "end", ";" ]
								}

							}
, 							{
								"box" : 								{
									"maxclass" : "gain~",
									"numoutlets" : 2,
									"id" : "obj-78",
									"patching_rect" : [ 7.5, 77.0, 88.0, 18.0 ],
									"outlettype" : [ "signal", "int" ],
									"presentation" : 1,
									"numinlets" : 2,
									"presentation_rect" : [ 7.5, 77.0, 88.0, 18.0 ]
								}

							}
, 							{
								"box" : 								{
									"maxclass" : "outlet",
									"numoutlets" : 0,
									"id" : "obj-2",
									"patching_rect" : [ 30.0, 240.0, 25.0, 25.0 ],
									"numinlets" : 1,
									"comment" : ""
								}

							}
, 							{
								"box" : 								{
									"maxclass" : "newobj",
									"text" : "loadmess 2",
									"fontname" : "Arial",
									"numoutlets" : 1,
									"id" : "obj-100",
									"hidden" : 1,
									"patching_rect" : [ 7.5, 0.0, 70.0, 20.0 ],
									"outlettype" : [ "" ],
									"presentation" : 1,
									"fontsize" : 11.595187,
									"numinlets" : 1,
									"presentation_rect" : [ 7.5, 0.0, 70.0, 20.0 ]
								}

							}
, 							{
								"box" : 								{
									"maxclass" : "comment",
									"text" : "Select source",
									"fontname" : "Arial",
									"numoutlets" : 0,
									"id" : "obj-42",
									"patching_rect" : [ 7.5, 15.0, 88.0, 20.0 ],
									"presentation" : 1,
									"fontsize" : 11.595187,
									"numinlets" : 1,
									"presentation_rect" : [ 7.5, 15.0, 88.0, 20.0 ]
								}

							}
, 							{
								"box" : 								{
									"maxclass" : "umenu",
									"fontname" : "Arial",
									"numoutlets" : 3,
									"id" : "obj-37",
									"types" : [  ],
									"patching_rect" : [ 7.5, 44.0, 88.0, 20.0 ],
									"outlettype" : [ "int", "", "" ],
									"presentation" : 1,
									"fontsize" : 11.595187,
									"items" : [ "None", ",", "Audio", "file", ",", "Noise", ",", "Cycle~", ",", "Adc~" ],
									"numinlets" : 1,
									"presentation_rect" : [ 7.5, 44.0, 88.0, 20.0 ]
								}

							}
, 							{
								"box" : 								{
									"maxclass" : "newobj",
									"text" : "selector~ 4",
									"fontname" : "Arial",
									"numoutlets" : 1,
									"id" : "obj-29",
									"patching_rect" : [ 150.0, 195.0, 73.0, 20.0 ],
									"outlettype" : [ "signal" ],
									"fontsize" : 11.595187,
									"numinlets" : 5
								}

							}
, 							{
								"box" : 								{
									"maxclass" : "panel",
									"numoutlets" : 0,
									"id" : "obj-38",
									"patching_rect" : [ 0.0, 0.0, 120.0, 120.0 ],
									"presentation" : 1,
									"border" : 2,
									"bgcolor" : [ 0.858824, 0.858824, 0.858824, 1.0 ],
									"numinlets" : 1,
									"presentation_rect" : [ 0.0, 0.0, 316.0, 120.0 ]
								}

							}
 ],
						"lines" : [ 							{
								"patchline" : 								{
									"source" : [ "obj-78", 0 ],
									"destination" : [ "obj-2", 0 ],
									"hidden" : 0,
									"midpoints" : [  ]
								}

							}
, 							{
								"patchline" : 								{
									"source" : [ "obj-8", 0 ],
									"destination" : [ "obj-29", 4 ],
									"hidden" : 0,
									"midpoints" : [  ]
								}

							}
, 							{
								"patchline" : 								{
									"source" : [ "obj-7", 0 ],
									"destination" : [ "obj-29", 3 ],
									"hidden" : 0,
									"midpoints" : [  ]
								}

							}
, 							{
								"patchline" : 								{
									"source" : [ "obj-6", 0 ],
									"destination" : [ "obj-29", 2 ],
									"hidden" : 0,
									"midpoints" : [  ]
								}

							}
, 							{
								"patchline" : 								{
									"source" : [ "obj-4", 0 ],
									"destination" : [ "obj-29", 1 ],
									"hidden" : 0,
									"midpoints" : [  ]
								}

							}
, 							{
								"patchline" : 								{
									"source" : [ "obj-37", 0 ],
									"destination" : [ "obj-29", 0 ],
									"hidden" : 0,
									"midpoints" : [  ]
								}

							}
, 							{
								"patchline" : 								{
									"source" : [ "obj-37", 0 ],
									"destination" : [ "obj-10", 0 ],
									"hidden" : 0,
									"midpoints" : [  ]
								}

							}
, 							{
								"patchline" : 								{
									"source" : [ "obj-29", 0 ],
									"destination" : [ "obj-78", 0 ],
									"hidden" : 0,
									"midpoints" : [  ]
								}

							}
, 							{
								"patchline" : 								{
									"source" : [ "obj-20", 0 ],
									"destination" : [ "obj-9", 0 ],
									"hidden" : 0,
									"midpoints" : [  ]
								}

							}
, 							{
								"patchline" : 								{
									"source" : [ "obj-19", 0 ],
									"destination" : [ "obj-9", 0 ],
									"hidden" : 0,
									"midpoints" : [  ]
								}

							}
, 							{
								"patchline" : 								{
									"source" : [ "obj-18", 0 ],
									"destination" : [ "obj-9", 0 ],
									"hidden" : 0,
									"midpoints" : [  ]
								}

							}
, 							{
								"patchline" : 								{
									"source" : [ "obj-17", 0 ],
									"destination" : [ "obj-9", 0 ],
									"hidden" : 0,
									"midpoints" : [  ]
								}

							}
, 							{
								"patchline" : 								{
									"source" : [ "obj-100", 0 ],
									"destination" : [ "obj-37", 0 ],
									"hidden" : 0,
									"midpoints" : [  ]
								}

							}
, 							{
								"patchline" : 								{
									"source" : [ "obj-10", 2 ],
									"destination" : [ "obj-20", 0 ],
									"hidden" : 0,
									"midpoints" : [  ]
								}

							}
, 							{
								"patchline" : 								{
									"source" : [ "obj-10", 0 ],
									"destination" : [ "obj-19", 0 ],
									"hidden" : 0,
									"midpoints" : [  ]
								}

							}
, 							{
								"patchline" : 								{
									"source" : [ "obj-10", 3 ],
									"destination" : [ "obj-18", 0 ],
									"hidden" : 0,
									"midpoints" : [  ]
								}

							}
, 							{
								"patchline" : 								{
									"source" : [ "obj-10", 1 ],
									"destination" : [ "obj-17", 0 ],
									"hidden" : 0,
									"midpoints" : [  ]
								}

							}
 ]
					}

				}

			}
, 			{
				"box" : 				{
					"maxclass" : "message",
					"text" : "open 3",
					"fontname" : "Arial",
					"numoutlets" : 1,
					"id" : "obj-6",
					"patching_rect" : [ 647.0, 260.0, 47.0, 18.0 ],
					"outlettype" : [ "" ],
					"fontsize" : 12.0,
					"numinlets" : 2
				}

			}
, 			{
				"box" : 				{
					"maxclass" : "flonum",
					"fontname" : "Arial",
					"numoutlets" : 2,
					"id" : "obj-37",
					"patching_rect" : [ 823.0, 308.0, 50.0, 20.0 ],
					"outlettype" : [ "float", "bang" ],
					"fontsize" : 12.0,
					"numinlets" : 1
				}

			}
, 			{
				"box" : 				{
					"maxclass" : "newobj",
					"text" : "sig~",
					"fontname" : "Arial",
					"numoutlets" : 1,
					"id" : "obj-38",
					"patching_rect" : [ 809.0, 334.0, 33.0, 20.0 ],
					"outlettype" : [ "signal" ],
					"fontsize" : 12.0,
					"numinlets" : 1
				}

			}
, 			{
				"box" : 				{
					"maxclass" : "newobj",
					"text" : "hoa.plug~ 7 convolveSubPatch no",
					"fontname" : "Arial",
					"numoutlets" : 15,
					"id" : "obj-29",
					"patching_rect" : [ 584.0, 334.0, 209.0, 20.0 ],
					"outlettype" : [ "signal", "signal", "signal", "signal", "signal", "signal", "signal", "signal", "signal", "signal", "signal", "signal", "signal", "signal", "signal" ],
					"fontsize" : 12.0,
					"numinlets" : 1
				}

			}
, 			{
				"box" : 				{
					"maxclass" : "newobj",
					"text" : "hoa.decoder~ 7 16",
					"fontname" : "Arial",
					"numoutlets" : 16,
					"id" : "obj-31",
					"patching_rect" : [ 584.0, 424.0, 221.5, 20.0 ],
					"outlettype" : [ "signal", "signal", "signal", "signal", "signal", "signal", "signal", "signal", "signal", "signal", "signal", "signal", "signal", "signal", "signal", "signal" ],
					"fontsize" : 12.0,
					"numinlets" : 15
				}

			}
, 			{
				"box" : 				{
					"maxclass" : "newobj",
					"text" : "hoa.rotate~ 7",
					"fontname" : "Arial",
					"numoutlets" : 15,
					"id" : "obj-35",
					"patching_rect" : [ 584.0, 379.0, 221.5, 20.0 ],
					"outlettype" : [ "signal", "signal", "signal", "signal", "signal", "signal", "signal", "signal", "signal", "signal", "signal", "signal", "signal", "signal", "signal" ],
					"fontsize" : 12.0,
					"numinlets" : 16
				}

			}
, 			{
				"box" : 				{
					"maxclass" : "flonum",
					"fontname" : "Arial",
					"numoutlets" : 2,
					"id" : "obj-24",
					"patching_rect" : [ 494.0, 286.0, 50.0, 20.0 ],
					"outlettype" : [ "float", "bang" ],
					"fontsize" : 12.0,
					"numinlets" : 1
				}

			}
, 			{
				"box" : 				{
					"maxclass" : "newobj",
					"text" : "sig~",
					"fontname" : "Arial",
					"numoutlets" : 1,
					"id" : "obj-22",
					"patching_rect" : [ 493.0, 316.0, 33.0, 20.0 ],
					"outlettype" : [ "signal" ],
					"fontsize" : 12.0,
					"numinlets" : 1
				}

			}
, 			{
				"box" : 				{
					"maxclass" : "ezdac~",
					"numoutlets" : 0,
					"id" : "obj-18",
					"patching_rect" : [ 323.0, 61.0, 45.0, 45.0 ],
					"numinlets" : 2
				}

			}
, 			{
				"box" : 				{
					"maxclass" : "newobj",
					"text" : "fffb~ 16 1000 H 5",
					"fontname" : "Arial",
					"numoutlets" : 16,
					"id" : "obj-7",
					"patching_rect" : [ 260.0, 304.0, 221.5, 20.0 ],
					"outlettype" : [ "signal", "signal", "signal", "signal", "signal", "signal", "signal", "signal", "signal", "signal", "signal", "signal", "signal", "signal", "signal", "signal" ],
					"fontsize" : 12.0,
					"numinlets" : 1
				}

			}
, 			{
				"box" : 				{
					"maxclass" : "button",
					"numoutlets" : 1,
					"id" : "obj-5",
					"patching_rect" : [ 60.0, 105.0, 20.0, 20.0 ],
					"outlettype" : [ "bang" ],
					"numinlets" : 1
				}

			}
, 			{
				"box" : 				{
					"maxclass" : "newobj",
					"text" : "hoa.connect 7 16",
					"fontname" : "Arial",
					"numoutlets" : 0,
					"id" : "obj-3",
					"patching_rect" : [ 60.0, 135.0, 103.0, 20.0 ],
					"fontsize" : 12.0,
					"numinlets" : 1
				}

			}
 ],
		"lines" : [ 			{
				"patchline" : 				{
					"source" : [ "obj-22", 0 ],
					"destination" : [ "obj-2", 15 ],
					"hidden" : 0,
					"midpoints" : [  ]
				}

			}
, 			{
				"patchline" : 				{
					"source" : [ "obj-7", 15 ],
					"destination" : [ "obj-2", 5 ],
					"hidden" : 0,
					"midpoints" : [  ]
				}

			}
, 			{
				"patchline" : 				{
					"source" : [ "obj-7", 14 ],
					"destination" : [ "obj-2", 0 ],
					"hidden" : 0,
					"midpoints" : [  ]
				}

			}
, 			{
				"patchline" : 				{
					"source" : [ "obj-7", 13 ],
					"destination" : [ "obj-2", 1 ],
					"hidden" : 0,
					"midpoints" : [  ]
				}

			}
, 			{
				"patchline" : 				{
					"source" : [ "obj-7", 12 ],
					"destination" : [ "obj-2", 2 ],
					"hidden" : 0,
					"midpoints" : [  ]
				}

			}
, 			{
				"patchline" : 				{
					"source" : [ "obj-7", 11 ],
					"destination" : [ "obj-2", 3 ],
					"hidden" : 0,
					"midpoints" : [  ]
				}

			}
, 			{
				"patchline" : 				{
					"source" : [ "obj-7", 10 ],
					"destination" : [ "obj-2", 4 ],
					"hidden" : 0,
					"midpoints" : [  ]
				}

			}
, 			{
				"patchline" : 				{
					"source" : [ "obj-7", 9 ],
					"destination" : [ "obj-2", 6 ],
					"hidden" : 0,
					"midpoints" : [  ]
				}

			}
, 			{
				"patchline" : 				{
					"source" : [ "obj-7", 8 ],
					"destination" : [ "obj-2", 7 ],
					"hidden" : 0,
					"midpoints" : [  ]
				}

			}
, 			{
				"patchline" : 				{
					"source" : [ "obj-7", 7 ],
					"destination" : [ "obj-2", 8 ],
					"hidden" : 0,
					"midpoints" : [  ]
				}

			}
, 			{
				"patchline" : 				{
					"source" : [ "obj-7", 6 ],
					"destination" : [ "obj-2", 9 ],
					"hidden" : 0,
					"midpoints" : [  ]
				}

			}
, 			{
				"patchline" : 				{
					"source" : [ "obj-7", 5 ],
					"destination" : [ "obj-2", 10 ],
					"hidden" : 0,
					"midpoints" : [  ]
				}

			}
, 			{
				"patchline" : 				{
					"source" : [ "obj-7", 4 ],
					"destination" : [ "obj-2", 11 ],
					"hidden" : 0,
					"midpoints" : [  ]
				}

			}
, 			{
				"patchline" : 				{
					"source" : [ "obj-7", 3 ],
					"destination" : [ "obj-2", 12 ],
					"hidden" : 0,
					"midpoints" : [  ]
				}

			}
, 			{
				"patchline" : 				{
					"source" : [ "obj-7", 2 ],
					"destination" : [ "obj-2", 13 ],
					"hidden" : 0,
					"midpoints" : [  ]
				}

			}
, 			{
				"patchline" : 				{
					"source" : [ "obj-7", 1 ],
					"destination" : [ "obj-2", 14 ],
					"hidden" : 0,
					"midpoints" : [  ]
				}

			}
, 			{
				"patchline" : 				{
					"source" : [ "obj-23", 0 ],
					"destination" : [ "obj-7", 0 ],
					"hidden" : 0,
					"midpoints" : [  ]
				}

			}
, 			{
				"patchline" : 				{
					"source" : [ "obj-74", 0 ],
					"destination" : [ "obj-7", 0 ],
					"hidden" : 0,
					"midpoints" : [  ]
				}

			}
, 			{
				"patchline" : 				{
					"source" : [ "obj-2", 0 ],
					"destination" : [ "obj-20", 0 ],
					"hidden" : 0,
					"color" : [ 0.0, 0.0, 1.0, 1.0 ],
					"midpoints" : [  ]
				}

			}
, 			{
				"patchline" : 				{
					"source" : [ "obj-2", 1 ],
					"destination" : [ "obj-20", 1 ],
					"hidden" : 0,
					"color" : [ 0.0, 0.0, 1.0, 1.0 ],
					"midpoints" : [  ]
				}

			}
, 			{
				"patchline" : 				{
					"source" : [ "obj-2", 2 ],
					"destination" : [ "obj-20", 2 ],
					"hidden" : 0,
					"color" : [ 1.0, 0.0, 0.0, 1.0 ],
					"midpoints" : [  ]
				}

			}
, 			{
				"patchline" : 				{
					"source" : [ "obj-2", 3 ],
					"destination" : [ "obj-20", 3 ],
					"hidden" : 0,
					"color" : [ 0.0, 0.0, 1.0, 1.0 ],
					"midpoints" : [  ]
				}

			}
, 			{
				"patchline" : 				{
					"source" : [ "obj-2", 4 ],
					"destination" : [ "obj-20", 4 ],
					"hidden" : 0,
					"color" : [ 1.0, 0.0, 0.0, 1.0 ],
					"midpoints" : [  ]
				}

			}
, 			{
				"patchline" : 				{
					"source" : [ "obj-2", 5 ],
					"destination" : [ "obj-20", 5 ],
					"hidden" : 0,
					"color" : [ 0.0, 0.0, 1.0, 1.0 ],
					"midpoints" : [  ]
				}

			}
, 			{
				"patchline" : 				{
					"source" : [ "obj-2", 6 ],
					"destination" : [ "obj-20", 6 ],
					"hidden" : 0,
					"color" : [ 1.0, 0.0, 0.0, 1.0 ],
					"midpoints" : [  ]
				}

			}
, 			{
				"patchline" : 				{
					"source" : [ "obj-2", 7 ],
					"destination" : [ "obj-20", 7 ],
					"hidden" : 0,
					"color" : [ 0.0, 0.0, 1.0, 1.0 ],
					"midpoints" : [  ]
				}

			}
, 			{
				"patchline" : 				{
					"source" : [ "obj-2", 8 ],
					"destination" : [ "obj-20", 8 ],
					"hidden" : 0,
					"color" : [ 1.0, 0.0, 0.0, 1.0 ],
					"midpoints" : [  ]
				}

			}
, 			{
				"patchline" : 				{
					"source" : [ "obj-2", 9 ],
					"destination" : [ "obj-20", 9 ],
					"hidden" : 0,
					"color" : [ 0.0, 0.0, 1.0, 1.0 ],
					"midpoints" : [  ]
				}

			}
, 			{
				"patchline" : 				{
					"source" : [ "obj-2", 10 ],
					"destination" : [ "obj-20", 10 ],
					"hidden" : 0,
					"color" : [ 1.0, 0.0, 0.0, 1.0 ],
					"midpoints" : [  ]
				}

			}
, 			{
				"patchline" : 				{
					"source" : [ "obj-2", 11 ],
					"destination" : [ "obj-20", 11 ],
					"hidden" : 0,
					"color" : [ 0.0, 0.0, 1.0, 1.0 ],
					"midpoints" : [  ]
				}

			}
, 			{
				"patchline" : 				{
					"source" : [ "obj-2", 12 ],
					"destination" : [ "obj-20", 12 ],
					"hidden" : 0,
					"color" : [ 1.0, 0.0, 0.0, 1.0 ],
					"midpoints" : [  ]
				}

			}
, 			{
				"patchline" : 				{
					"source" : [ "obj-2", 13 ],
					"destination" : [ "obj-20", 13 ],
					"hidden" : 0,
					"color" : [ 0.0, 0.0, 1.0, 1.0 ],
					"midpoints" : [  ]
				}

			}
, 			{
				"patchline" : 				{
					"source" : [ "obj-2", 14 ],
					"destination" : [ "obj-20", 14 ],
					"hidden" : 0,
					"color" : [ 1.0, 0.0, 0.0, 1.0 ],
					"midpoints" : [  ]
				}

			}
, 			{
				"patchline" : 				{
					"source" : [ "obj-20", 0 ],
					"destination" : [ "obj-30", 0 ],
					"hidden" : 0,
					"midpoints" : [  ]
				}

			}
, 			{
				"patchline" : 				{
					"source" : [ "obj-20", 1 ],
					"destination" : [ "obj-30", 1 ],
					"hidden" : 0,
					"midpoints" : [  ]
				}

			}
, 			{
				"patchline" : 				{
					"source" : [ "obj-20", 2 ],
					"destination" : [ "obj-30", 2 ],
					"hidden" : 0,
					"midpoints" : [  ]
				}

			}
, 			{
				"patchline" : 				{
					"source" : [ "obj-20", 3 ],
					"destination" : [ "obj-30", 3 ],
					"hidden" : 0,
					"midpoints" : [  ]
				}

			}
, 			{
				"patchline" : 				{
					"source" : [ "obj-20", 4 ],
					"destination" : [ "obj-30", 4 ],
					"hidden" : 0,
					"midpoints" : [  ]
				}

			}
, 			{
				"patchline" : 				{
					"source" : [ "obj-20", 5 ],
					"destination" : [ "obj-30", 5 ],
					"hidden" : 0,
					"midpoints" : [  ]
				}

			}
, 			{
				"patchline" : 				{
					"source" : [ "obj-20", 6 ],
					"destination" : [ "obj-30", 6 ],
					"hidden" : 0,
					"midpoints" : [  ]
				}

			}
, 			{
				"patchline" : 				{
					"source" : [ "obj-20", 7 ],
					"destination" : [ "obj-30", 7 ],
					"hidden" : 0,
					"midpoints" : [  ]
				}

			}
, 			{
				"patchline" : 				{
					"source" : [ "obj-20", 8 ],
					"destination" : [ "obj-30", 8 ],
					"hidden" : 0,
					"midpoints" : [  ]
				}

			}
, 			{
				"patchline" : 				{
					"source" : [ "obj-20", 9 ],
					"destination" : [ "obj-30", 9 ],
					"hidden" : 0,
					"midpoints" : [  ]
				}

			}
, 			{
				"patchline" : 				{
					"source" : [ "obj-20", 10 ],
					"destination" : [ "obj-30", 10 ],
					"hidden" : 0,
					"midpoints" : [  ]
				}

			}
, 			{
				"patchline" : 				{
					"source" : [ "obj-20", 11 ],
					"destination" : [ "obj-30", 11 ],
					"hidden" : 0,
					"midpoints" : [  ]
				}

			}
, 			{
				"patchline" : 				{
					"source" : [ "obj-20", 12 ],
					"destination" : [ "obj-30", 12 ],
					"hidden" : 0,
					"midpoints" : [  ]
				}

			}
, 			{
				"patchline" : 				{
					"source" : [ "obj-20", 13 ],
					"destination" : [ "obj-30", 13 ],
					"hidden" : 0,
					"midpoints" : [  ]
				}

			}
, 			{
				"patchline" : 				{
					"source" : [ "obj-20", 14 ],
					"destination" : [ "obj-30", 14 ],
					"hidden" : 0,
					"midpoints" : [  ]
				}

			}
, 			{
				"patchline" : 				{
					"source" : [ "obj-20", 15 ],
					"destination" : [ "obj-30", 15 ],
					"hidden" : 0,
					"midpoints" : [  ]
				}

			}
, 			{
				"patchline" : 				{
					"source" : [ "obj-74", 0 ],
					"destination" : [ "obj-29", 0 ],
					"hidden" : 0,
					"midpoints" : [  ]
				}

			}
, 			{
				"patchline" : 				{
					"source" : [ "obj-38", 0 ],
					"destination" : [ "obj-35", 15 ],
					"hidden" : 0,
					"midpoints" : [  ]
				}

			}
, 			{
				"patchline" : 				{
					"source" : [ "obj-37", 0 ],
					"destination" : [ "obj-38", 0 ],
					"hidden" : 0,
					"midpoints" : [  ]
				}

			}
, 			{
				"patchline" : 				{
					"source" : [ "obj-29", 14 ],
					"destination" : [ "obj-35", 14 ],
					"hidden" : 0,
					"color" : [ 1.0, 0.0, 0.0, 1.0 ],
					"midpoints" : [  ]
				}

			}
, 			{
				"patchline" : 				{
					"source" : [ "obj-29", 13 ],
					"destination" : [ "obj-35", 13 ],
					"hidden" : 0,
					"color" : [ 0.0, 0.0, 1.0, 1.0 ],
					"midpoints" : [  ]
				}

			}
, 			{
				"patchline" : 				{
					"source" : [ "obj-29", 12 ],
					"destination" : [ "obj-35", 12 ],
					"hidden" : 0,
					"color" : [ 1.0, 0.0, 0.0, 1.0 ],
					"midpoints" : [  ]
				}

			}
, 			{
				"patchline" : 				{
					"source" : [ "obj-29", 11 ],
					"destination" : [ "obj-35", 11 ],
					"hidden" : 0,
					"color" : [ 0.0, 0.0, 1.0, 1.0 ],
					"midpoints" : [  ]
				}

			}
, 			{
				"patchline" : 				{
					"source" : [ "obj-29", 10 ],
					"destination" : [ "obj-35", 10 ],
					"hidden" : 0,
					"color" : [ 1.0, 0.0, 0.0, 1.0 ],
					"midpoints" : [  ]
				}

			}
, 			{
				"patchline" : 				{
					"source" : [ "obj-29", 9 ],
					"destination" : [ "obj-35", 9 ],
					"hidden" : 0,
					"color" : [ 0.0, 0.0, 1.0, 1.0 ],
					"midpoints" : [  ]
				}

			}
, 			{
				"patchline" : 				{
					"source" : [ "obj-29", 8 ],
					"destination" : [ "obj-35", 8 ],
					"hidden" : 0,
					"color" : [ 1.0, 0.0, 0.0, 1.0 ],
					"midpoints" : [  ]
				}

			}
, 			{
				"patchline" : 				{
					"source" : [ "obj-29", 7 ],
					"destination" : [ "obj-35", 7 ],
					"hidden" : 0,
					"color" : [ 0.0, 0.0, 1.0, 1.0 ],
					"midpoints" : [  ]
				}

			}
, 			{
				"patchline" : 				{
					"source" : [ "obj-29", 6 ],
					"destination" : [ "obj-35", 6 ],
					"hidden" : 0,
					"color" : [ 1.0, 0.0, 0.0, 1.0 ],
					"midpoints" : [  ]
				}

			}
, 			{
				"patchline" : 				{
					"source" : [ "obj-29", 5 ],
					"destination" : [ "obj-35", 5 ],
					"hidden" : 0,
					"color" : [ 0.0, 0.0, 1.0, 1.0 ],
					"midpoints" : [  ]
				}

			}
, 			{
				"patchline" : 				{
					"source" : [ "obj-29", 4 ],
					"destination" : [ "obj-35", 4 ],
					"hidden" : 0,
					"color" : [ 1.0, 0.0, 0.0, 1.0 ],
					"midpoints" : [  ]
				}

			}
, 			{
				"patchline" : 				{
					"source" : [ "obj-29", 3 ],
					"destination" : [ "obj-35", 3 ],
					"hidden" : 0,
					"color" : [ 0.0, 0.0, 1.0, 1.0 ],
					"midpoints" : [  ]
				}

			}
, 			{
				"patchline" : 				{
					"source" : [ "obj-29", 2 ],
					"destination" : [ "obj-35", 2 ],
					"hidden" : 0,
					"color" : [ 1.0, 0.0, 0.0, 1.0 ],
					"midpoints" : [  ]
				}

			}
, 			{
				"patchline" : 				{
					"source" : [ "obj-29", 1 ],
					"destination" : [ "obj-35", 1 ],
					"hidden" : 0,
					"color" : [ 0.0, 0.0, 1.0, 1.0 ],
					"midpoints" : [  ]
				}

			}
, 			{
				"patchline" : 				{
					"source" : [ "obj-29", 0 ],
					"destination" : [ "obj-35", 0 ],
					"hidden" : 0,
					"color" : [ 0.0, 0.0, 1.0, 1.0 ],
					"midpoints" : [  ]
				}

			}
, 			{
				"patchline" : 				{
					"source" : [ "obj-35", 0 ],
					"destination" : [ "obj-31", 0 ],
					"hidden" : 0,
					"color" : [ 0.0, 0.0, 1.0, 1.0 ],
					"midpoints" : [  ]
				}

			}
, 			{
				"patchline" : 				{
					"source" : [ "obj-35", 1 ],
					"destination" : [ "obj-31", 1 ],
					"hidden" : 0,
					"color" : [ 0.0, 0.0, 1.0, 1.0 ],
					"midpoints" : [  ]
				}

			}
, 			{
				"patchline" : 				{
					"source" : [ "obj-35", 2 ],
					"destination" : [ "obj-31", 2 ],
					"hidden" : 0,
					"color" : [ 1.0, 0.0, 0.0, 1.0 ],
					"midpoints" : [  ]
				}

			}
, 			{
				"patchline" : 				{
					"source" : [ "obj-35", 3 ],
					"destination" : [ "obj-31", 3 ],
					"hidden" : 0,
					"color" : [ 0.0, 0.0, 1.0, 1.0 ],
					"midpoints" : [  ]
				}

			}
, 			{
				"patchline" : 				{
					"source" : [ "obj-35", 4 ],
					"destination" : [ "obj-31", 4 ],
					"hidden" : 0,
					"color" : [ 1.0, 0.0, 0.0, 1.0 ],
					"midpoints" : [  ]
				}

			}
, 			{
				"patchline" : 				{
					"source" : [ "obj-35", 5 ],
					"destination" : [ "obj-31", 5 ],
					"hidden" : 0,
					"color" : [ 0.0, 0.0, 1.0, 1.0 ],
					"midpoints" : [  ]
				}

			}
, 			{
				"patchline" : 				{
					"source" : [ "obj-35", 6 ],
					"destination" : [ "obj-31", 6 ],
					"hidden" : 0,
					"color" : [ 1.0, 0.0, 0.0, 1.0 ],
					"midpoints" : [  ]
				}

			}
, 			{
				"patchline" : 				{
					"source" : [ "obj-35", 7 ],
					"destination" : [ "obj-31", 7 ],
					"hidden" : 0,
					"color" : [ 0.0, 0.0, 1.0, 1.0 ],
					"midpoints" : [  ]
				}

			}
, 			{
				"patchline" : 				{
					"source" : [ "obj-35", 8 ],
					"destination" : [ "obj-31", 8 ],
					"hidden" : 0,
					"color" : [ 1.0, 0.0, 0.0, 1.0 ],
					"midpoints" : [  ]
				}

			}
, 			{
				"patchline" : 				{
					"source" : [ "obj-35", 9 ],
					"destination" : [ "obj-31", 9 ],
					"hidden" : 0,
					"color" : [ 0.0, 0.0, 1.0, 1.0 ],
					"midpoints" : [  ]
				}

			}
, 			{
				"patchline" : 				{
					"source" : [ "obj-35", 10 ],
					"destination" : [ "obj-31", 10 ],
					"hidden" : 0,
					"color" : [ 1.0, 0.0, 0.0, 1.0 ],
					"midpoints" : [  ]
				}

			}
, 			{
				"patchline" : 				{
					"source" : [ "obj-35", 11 ],
					"destination" : [ "obj-31", 11 ],
					"hidden" : 0,
					"color" : [ 0.0, 0.0, 1.0, 1.0 ],
					"midpoints" : [  ]
				}

			}
, 			{
				"patchline" : 				{
					"source" : [ "obj-35", 12 ],
					"destination" : [ "obj-31", 12 ],
					"hidden" : 0,
					"color" : [ 1.0, 0.0, 0.0, 1.0 ],
					"midpoints" : [  ]
				}

			}
, 			{
				"patchline" : 				{
					"source" : [ "obj-35", 13 ],
					"destination" : [ "obj-31", 13 ],
					"hidden" : 0,
					"color" : [ 0.0, 0.0, 1.0, 1.0 ],
					"midpoints" : [  ]
				}

			}
, 			{
				"patchline" : 				{
					"source" : [ "obj-35", 14 ],
					"destination" : [ "obj-31", 14 ],
					"hidden" : 0,
					"color" : [ 1.0, 0.0, 0.0, 1.0 ],
					"midpoints" : [  ]
				}

			}
, 			{
				"patchline" : 				{
					"source" : [ "obj-24", 0 ],
					"destination" : [ "obj-22", 0 ],
					"hidden" : 0,
					"midpoints" : [  ]
				}

			}
, 			{
				"patchline" : 				{
					"source" : [ "obj-5", 0 ],
					"destination" : [ "obj-3", 0 ],
					"hidden" : 0,
					"midpoints" : [  ]
				}

			}
, 			{
				"patchline" : 				{
					"source" : [ "obj-6", 0 ],
					"destination" : [ "obj-29", 0 ],
					"hidden" : 0,
					"midpoints" : [  ]
				}

			}
 ]
	}

}
