#N canvas 0 22 1440 852 10;
#X obj 793 178 hoa.pi 2;
#X obj 793 149 loadbang;
#X obj 742 207 *~;
#X obj 742 120 phasor~ -0.3;
#X obj 743 529 vu 10 80 empty empty -1 -8 0 4 -66577 -1 1 0;
#X obj 500 530 vu 10 80 empty empty -1 -8 0 4 -66577 -1 1 0;
#X obj 601 490 dac~ 1 2;
#X msg 254 173 \; pd dsp 1;
#X msg 254 211 \; pd dsp 0;
#X obj 137 409 hoa.meter~ @patching_rect [ 137 409 230 230 ] @size
[ 230 230 ] @fontname [ helvetica ] @fontweight [ normal ] @fontslant
[ regular ] @fontsize [ 11 ] @vectors [ 1 ] @loudspeakers [ 16 ] @angles
[ 0 22.5 45 67.5 90 112.5 135 157.5 180 202.5 225 247.5 270 292.5 315
337.5 0 0 0 0 0 0 0 0 0 0 0 0 0 0 0 0 0 0 0 0 0 0 0 0 0 0 0 0 0 0 0
0 0 0 0 0 0 0 0 0 0 0 0 0 0 0 0 0 ] @offset [ 0 ] @rotation [ 0 ] @interval
[ 50 ] @bgcolor [ 0.55 0.55 0.55 1 ] @mbgcolor [ 0.4 0.4 0.4 1 ] @bordercolor
[ 0.25 0.25 0.25 1 ] @coldcolor [ 0 0.6 0 0.8 ] @tepidcolor [ 0.6 0.73
0 0.8 ] @warmcolor [ 0.85 0.85 0 0.8 ] @hotcolor [ 1 0.6 0 0.8 ] @overcolor
[ 1 0 0 0.8 ] @energycolor [ 0 0 1 0.8 ] @velocitycolor [ 1 0 0 0.8
];
#X obj 843 413 hoa.meter~ @patching_rect [ 843 413 230 230 ] @size
[ 230 230 ] @fontname [ helvetica ] @fontweight [ normal ] @fontslant
[ regular ] @fontsize [ 11 ] @vectors [ 1 ] @loudspeakers [ 5 ] @angles
[ 0 30 110 250 330 225 270 315 0 0 0 0 0 0 0 0 0 0 0 0 0 0 0 0 0 0
0 0 0 0 0 0 0 0 0 0 0 0 0 0 0 0 0 0 0 0 0 0 0 0 0 0 0 0 0 0 0 0 0 0
0 0 0 0 ] @offset [ 0 ] @rotation [ 0 ] @interval [ 50 ] @bgcolor [
0.55 0.55 0.55 1 ] @mbgcolor [ 0.4 0.4 0.4 1 ] @bordercolor [ 0.25
0.25 0.25 1 ] @coldcolor [ 0 0.6 0 0.8 ] @tepidcolor [ 0.6 0.73 0 0.8
] @warmcolor [ 0.85 0.85 0 0.8 ] @hotcolor [ 1 0.6 0 0.8 ] @overcolor
[ 1 0 0 0.8 ] @energycolor [ 0 0 1 0.8 ] @velocitycolor [ 1 0 0 0.8
];
#X msg 592 513 pinnae small;
#X msg 613 541 pinnae large;
#X obj 937 495 SoundTwo;
#X obj 947 505 SoundTwo;
#X obj 957 515 SoundTwo;
#X obj 967 525 SoundTwo;
#X obj 937 495 SoundTwo;
#X obj 137 335 hoa.decoder~ 7 ambisonics 16 ---------;
#X obj 499 231 hoa.encoder~ 7 --------------------------;
#X msg 843 224 angles 0 30 110 250 330;
#X obj 843 333 hoa.decoder~ 7 irregular 5 -----------;
#X msg 905 253 angles 0 60 110 250 300;
#X obj 592 587 s bino;
#N canvas 595 232 450 300 Sound4 0;
#X obj 111 234 outlet~;
#X obj 111 202 readsf~;
#X obj 111 134 loadbang;
#X msg 111 175 open sound4.wav \, 1;
#X connect 1 0 0 0;
#X connect 1 1 3 0;
#X connect 2 0 3 0;
#X connect 3 0 1 0;
#X restore 499 200 pd Sound4;
#N canvas 552 560 450 300 atodb~ 0;
#X obj 34 60 clip 0.001 1;
#X obj 34 84 log 10;
#X obj 34 31 snapshot~;
#X obj 34 139 outlet;
#X obj 34 -4 inlet~;
#X obj 171 32 tgl 15 0 empty empty empty 17 7 0 10 -262144 -1 -1 0
1;
#X obj 240 15 loadbang;
#X msg 240 42 1;
#X obj 171 65 metro 20;
#X obj 34 108 * 10;
#X connect 0 0 1 0;
#X connect 1 0 9 0;
#X connect 2 0 0 0;
#X connect 4 0 2 0;
#X connect 5 0 8 0;
#X connect 6 0 7 0;
#X connect 7 0 5 0;
#X connect 8 0 2 0;
#X connect 9 0 3 0;
#X restore 499 502 pd atodb~;
#N canvas 552 560 450 300 atodb~ 0;
#X obj 34 60 clip 0.001 1;
#X obj 34 84 log 10;
#X obj 34 31 snapshot~;
#X obj 34 139 outlet;
#X obj 34 -4 inlet~;
#X obj 171 32 tgl 15 0 empty empty empty 17 7 0 10 -262144 -1 -1 1
1;
#X obj 240 15 loadbang;
#X msg 240 42 1;
#X obj 171 65 metro 20;
#X obj 34 108 * 10;
#X connect 0 0 1 0;
#X connect 1 0 9 0;
#X connect 2 0 0 0;
#X connect 4 0 2 0;
#X connect 5 0 8 0;
#X connect 6 0 7 0;
#X connect 7 0 5 0;
#X connect 8 0 2 0;
#X connect 9 0 3 0;
#X restore 742 497 pd atodb~;
#X obj 499 423 hoa.binaural_sp2 ------------------------;
#X connect 0 0 2 1;
#X connect 1 0 0 0;
#X connect 2 0 19 1;
#X connect 3 0 2 0;
#X connect 11 0 23 0;
#X connect 12 0 23 0;
#X connect 18 0 9 0;
#X connect 18 1 9 1;
#X connect 18 2 9 2;
#X connect 18 3 9 3;
#X connect 18 4 9 4;
#X connect 18 5 9 5;
#X connect 18 6 9 6;
#X connect 18 7 9 7;
#X connect 18 8 9 8;
#X connect 18 9 9 9;
#X connect 18 10 9 10;
#X connect 18 11 9 11;
#X connect 18 12 9 12;
#X connect 18 13 9 13;
#X connect 18 14 9 14;
#X connect 18 15 9 15;
#X connect 19 0 18 0;
#X connect 19 0 21 0;
#X connect 19 0 27 0;
#X connect 19 1 18 1;
#X connect 19 1 21 1;
#X connect 19 1 27 1;
#X connect 19 2 18 2;
#X connect 19 2 21 2;
#X connect 19 2 27 2;
#X connect 19 3 18 3;
#X connect 19 3 21 3;
#X connect 19 3 27 3;
#X connect 19 4 18 4;
#X connect 19 4 21 4;
#X connect 19 4 27 4;
#X connect 19 5 18 5;
#X connect 19 5 21 5;
#X connect 19 5 27 5;
#X connect 19 6 18 6;
#X connect 19 6 21 6;
#X connect 19 6 27 6;
#X connect 19 7 18 7;
#X connect 19 7 21 7;
#X connect 19 7 27 7;
#X connect 19 8 18 8;
#X connect 19 8 21 8;
#X connect 19 8 27 8;
#X connect 19 9 18 9;
#X connect 19 9 21 9;
#X connect 19 9 27 9;
#X connect 19 10 18 10;
#X connect 19 10 21 10;
#X connect 19 10 27 10;
#X connect 19 11 18 11;
#X connect 19 11 21 11;
#X connect 19 11 27 11;
#X connect 19 12 18 12;
#X connect 19 12 21 12;
#X connect 19 12 27 12;
#X connect 19 13 18 13;
#X connect 19 13 21 13;
#X connect 19 13 27 13;
#X connect 19 14 18 14;
#X connect 19 14 21 14;
#X connect 19 14 27 14;
#X connect 20 0 21 0;
#X connect 20 0 10 0;
#X connect 21 0 10 0;
#X connect 21 1 10 1;
#X connect 21 2 10 2;
#X connect 21 3 10 3;
#X connect 21 4 10 4;
#X connect 22 0 21 0;
#X connect 22 0 10 0;
#X connect 24 0 19 0;
#X connect 25 0 5 0;
#X connect 26 0 4 0;
#X connect 27 0 6 0;
#X connect 27 0 25 0;
#X connect 27 1 6 1;
#X connect 27 1 26 0;
