#N canvas 0 22 1440 852 10;
#X msg -58 80 \; pd dsp 1;
#X msg -59 135 \; pd dsp 0;
#X obj 27 -21 hoa.map @patching_rect [ 27 -21 286 286 ] @size [ 286
286 ] @fontname [ helvetica ] @fontweight [ normal ] @fontslant [ regular
] @fontsize [ 11 ] @bgcolor [ 0.9 0.9 0.9 1 ] @bgcolor2 [ 0.75 0.75
0.75 1 ] @bdcolor [ 0 0 0 1 ] @selcolor [ 0.36 0.37 0.37 0.5 ] @outputmode
[ 0 ] @zoom [ 0.35 ] sources_parameters [ source 0 -0.41958 1.61838
0 0.2 0.2 0.2 1 s_nosymbol source 1 -1.17882 -0.839161 0 0.2 0.2 0.2
1 s_nosymbol source 2 1.27872 -0.11988 0 0.2 0.2 0.2 1 s_nosymbol ]
;
#X msg 348 97 trajectory \$1;
#X obj 354 476 hoa.meter~ @patching_rect [ 354 476 284 284 ] @size
[ 284 284 ] @fontname [ helvetica ] @fontweight [ normal ] @fontslant
[ regular ] @fontsize [ 11 ] @vectors [ 1 ] @loudspeakers [ 16 ] @angles
[ 0 22.5 45 67.5 90 112.5 135 157.5 180 202.5 225 247.5 270 292.5 315
337.5 0 0 0 0 0 0 0 0 0 0 0 0 0 0 0 0 0 0 0 0 0 0 0 0 0 0 0 0 0 0 0
0 0 0 0 0 0 0 0 0 0 0 0 0 0 0 0 0 ] @offset [ 0 ] @rotation [ 0 ] @interval
[ 50 ] @bgcolor [ 0.55 0.55 0.55 1 ] @mbgcolor [ 0.4 0.4 0.4 1 ] @bordercolor
[ 0.25 0.25 0.25 1 ] @coldcolor [ 0 0.6 0 0.8 ] @tepidcolor [ 0.6 0.73
0 0.8 ] @warmcolor [ 0.85 0.85 0 0.8 ] @hotcolor [ 1 0.6 0 0.8 ] @overcolor
[ 1 0 0 0.8 ] @energycolor [ 0 0 1 0.8 ] @velocitycolor [ 1 0 0 0.8
];
#X obj 684 440 hoa.decoder~ 7 2 2 @angles [ 30 330 ] *********;
#X obj 684 501 dac~ 1 ************************************** 2;
#X obj 354 442 hoa.decoder~ 7 ambisonics 16 ******************;
#X obj 27 -44 r traj;
#X obj 348 185 s traj;
#X obj 38 475 hoa.scope~ @patching_rect [ 38 475 286.01 286.01 ] @size
[ 286.01 286.01 ] @fontname [ helvetica ] @fontweight [ normal ] @fontslant
[ regular ] @fontsize [ 11 ] @order [ 7 ] @gain [ 10 ] @interval [
100 ] @drawcircle [ 1 ] @drawangles [ 1 ] @drawcontrib [ 1 ] @bgcolor
[ 0.76 0.76 0.76 1 ] @bdcolor [ 0.7 0.7 0.7 1 ] @txcolor [ 0 0 0 7
] @phcolor [ 1 0 0 1 ] @nhcolor [ 0 0 1 1 ];
#X obj 348 66 nbx 5 14 -1e+37 1e+37 0 0 empty empty empty 0 -8 0 10
-262144 -1 -1 0 256;
#X obj 451 68 tgl 15 0 empty empty empty 17 7 0 10 -262144 -1 -1 0
1;
#X msg 451 97 trajectory record \$1;
#X obj 354 287 hoa.map~ 7 3 **********************************;
#X obj 354 359 hoa.optim~ 7 @mode [ inPhase ] ****************;
#X msg 460 133 trajectory read /Users/Pierre/Desktop/Traj.pd;
#X msg 455 167 trajectory write /Users/Pierre/Desktop/Traj.pd;
#X msg 143 305 mode inPhase;
#X msg 142 339 mode basic;
#X msg 262 304 mode maxRe;
#N canvas 595 232 450 300 Sound4 0;
#X obj 111 234 outlet~;
#X obj 111 202 readsf~;
#X obj 111 134 loadbang;
#X msg 111 175 open sound4.wav \, 1;
#X connect 1 0 0 0;
#X connect 1 1 3 0;
#X connect 2 0 3 0;
#X connect 3 0 1 0;
#X restore 354 244 pd Sound4;
#N canvas 595 232 450 300 Sound3 0;
#X obj 111 234 outlet~;
#X obj 111 202 readsf~;
#X obj 111 134 loadbang;
#X msg 111 175 open sound3.wav \, 1;
#X connect 1 0 0 0;
#X connect 1 1 3 0;
#X connect 2 0 3 0;
#X connect 3 0 1 0;
#X restore 493 242 pd Sound3;
#N canvas 595 232 450 300 Sound2 0;
#X obj 111 234 outlet~;
#X obj 111 202 readsf~;
#X obj 111 134 loadbang;
#X msg 111 175 open sound4.wav \, 1;
#X connect 1 0 0 0;
#X connect 1 1 3 0;
#X connect 2 0 3 0;
#X connect 3 0 1 0;
#X restore 633 243 pd Sound2;
#X connect 2 0 14 0;
#X connect 3 0 9 0;
#X connect 5 0 6 0;
#X connect 5 1 6 2;
#X connect 7 0 4 0;
#X connect 7 1 4 1;
#X connect 7 2 4 2;
#X connect 7 3 4 3;
#X connect 7 4 4 4;
#X connect 7 5 4 5;
#X connect 7 6 4 6;
#X connect 7 7 4 7;
#X connect 7 8 4 8;
#X connect 7 9 4 9;
#X connect 7 10 4 10;
#X connect 7 11 4 11;
#X connect 7 12 4 12;
#X connect 7 13 4 13;
#X connect 7 14 4 14;
#X connect 7 15 4 15;
#X connect 8 0 2 0;
#X connect 11 0 3 0;
#X connect 12 0 13 0;
#X connect 13 0 9 0;
#X connect 14 0 15 0;
#X connect 14 1 15 1;
#X connect 14 2 15 2;
#X connect 14 3 15 3;
#X connect 14 4 15 4;
#X connect 14 5 15 5;
#X connect 14 6 15 6;
#X connect 14 7 15 7;
#X connect 14 8 15 8;
#X connect 14 9 15 9;
#X connect 14 10 15 10;
#X connect 14 11 15 11;
#X connect 14 12 15 12;
#X connect 14 13 15 13;
#X connect 14 14 15 14;
#X connect 15 0 5 0;
#X connect 15 0 7 0;
#X connect 15 0 10 0;
#X connect 15 1 5 1;
#X connect 15 1 7 1;
#X connect 15 1 10 1;
#X connect 15 2 5 2;
#X connect 15 2 7 2;
#X connect 15 2 10 2;
#X connect 15 3 5 3;
#X connect 15 3 7 3;
#X connect 15 3 10 3;
#X connect 15 4 5 4;
#X connect 15 4 7 4;
#X connect 15 4 10 4;
#X connect 15 5 5 5;
#X connect 15 5 7 5;
#X connect 15 5 10 5;
#X connect 15 6 5 6;
#X connect 15 6 7 6;
#X connect 15 6 10 6;
#X connect 15 7 5 7;
#X connect 15 7 7 7;
#X connect 15 7 10 7;
#X connect 15 8 5 8;
#X connect 15 8 7 8;
#X connect 15 8 10 8;
#X connect 15 9 5 9;
#X connect 15 9 7 9;
#X connect 15 9 10 9;
#X connect 15 10 5 10;
#X connect 15 10 7 10;
#X connect 15 10 10 10;
#X connect 15 11 5 11;
#X connect 15 11 7 11;
#X connect 15 11 10 11;
#X connect 15 12 5 12;
#X connect 15 12 7 12;
#X connect 15 12 10 12;
#X connect 15 13 5 13;
#X connect 15 13 7 13;
#X connect 15 13 10 13;
#X connect 15 14 5 14;
#X connect 15 14 7 14;
#X connect 15 14 10 14;
#X connect 16 0 9 0;
#X connect 17 0 9 0;
#X connect 18 0 15 0;
#X connect 19 0 15 0;
#X connect 20 0 15 0;
#X connect 21 0 14 0;
#X connect 22 0 14 1;
#X connect 23 0 14 2;
