#N canvas 0 22 1440 852 10;
#X msg -58 80 \; pd dsp 1;
#X msg -59 135 \; pd dsp 0;
#X obj 27 -21 hoa.map @patching_rect [ 27 -21 286 286 ] @size [ 286
286 ] @fontname [ helvetica ] @fontweight [ normal ] @fontslant [ regular
] @fontsize [ 11 ] @bgcolor [ 0.9 0.9 0.9 1 ] @bgcolor2 [ 0.75 0.75
0.75 1 ] @bdcolor [ 0 0 0 1 ] @selcolor [ 0.36 0.37 0.37 0.5 ] @outputmode
[ 0 ] @zoom [ 0.35 ] sources_parameters [ source 0 0.919081 0.719281
0 0.2 0.2 0.2 1 s_nosymbol source 1 -0.879121 0.799201 0 0.2 0.2 0.2
1 s_nosymbol source 2 -1.76173e-16 -0.959041 0 0.2 0.2 0.2 1 s_nosymbol
] trajectory_parameters [ slot 0 source 0 0.526141 -1.35864 0 0.2 0.2
0.2 1 s_nosymbol group 0 1 0 0 0.2 0.2 0.2 1 s_nosymbol slot 1 source
0 0.526141 -1.35864 0 0.2 0.2 0.2 1 s_nosymbol group 0 1 0 0 0.2 0.2
0.2 1 s_nosymbol slot 2 source 0 0.399711 -1.37428 0 0.2 0.2 0.2 1
s_nosymbol source 1 -0.706813 0.274604 0 0.2 0.2 0.2 1 s_nosymbol source
2 -1.3191 -1.36974 0 0.2 0.2 0.2 1 s_nosymbol group 0 3 0 1 2 0 0.2
0.2 0.2 1 s_nosymbol slot 3 source 0 -0.133856 -1.34186 0 0.2 0.2 0.2
1 s_nosymbol source 1 -0.492912 0.461993 0 0.2 0.2 0.2 1 s_nosymbol
source 2 -1.65953 -0.744612 0 0.2 0.2 0.2 1 s_nosymbol group 0 3 0
1 2 0 0.2 0.2 0.2 1 s_nosymbol slot 4 source 0 -0.372938 -1.24852 0
0.2 0.2 0.2 1 s_nosymbol source 1 -0.369642 0.510264 0 0.2 0.2 0.2
1 s_nosymbol source 2 -1.72636 -0.40589 0 0.2 0.2 0.2 1 s_nosymbol
group 0 3 0 1 2 0 0.2 0.2 0.2 1 s_nosymbol slot 5 source 0 -0.550672
-1.1298 0 0.2 0.2 0.2 1 s_nosymbol source 1 -0.261143 0.52226 0 0.2
0.2 0.2 1 s_nosymbol source 2 -1.72331 -0.116785 0 0.2 0.2 0.2 1 s_nosymbol
group 0 3 0 1 2 0 0.2 0.2 0.2 1 s_nosymbol slot 6 source 0 -0.829095
-0.860927 0 0.2 0.2 0.2 1 s_nosymbol source 1 -0.0783741 0.516381 0
0.2 0.2 0.2 1 s_nosymbol source 2 -1.61575 0.404623 0 0.2 0.2 0.2 1
s_nosymbol group 0 3 0 1 2 0 0.2 0.2 0.2 1 s_nosymbol slot 7 source
0 -1.06915 -0.394706 0 0.2 0.2 0.2 1 s_nosymbol source 1 0.137907 0.445898
0 0.2 0.2 0.2 1 s_nosymbol source 2 -1.23565 1.03225 0 0.2 0.2 0.2
1 s_nosymbol group 0 3 0 1 2 0 0.2 0.2 0.2 1 s_nosymbol slot 8 source
0 -1.07195 0.0990021 0 0.2 0.2 0.2 1 s_nosymbol source 1 0.273818 0.296469
0 0.2 0.2 0.2 1 s_nosymbol source 2 -0.64359 1.40668 0 0.2 0.2 0.2
1 s_nosymbol group 0 3 0 1 2 0 0.2 0.2 0.2 1 s_nosymbol slot 9 source
0 -0.88125 0.417549 0 0.2 0.2 0.2 1 s_nosymbol source 1 0.268804 0.13814
0 0.2 0.2 0.2 1 s_nosymbol source 2 -0.113659 1.4411 0 0.2 0.2 0.2
1 s_nosymbol group 0 3 0 1 2 0 0.2 0.2 0.2 1 s_nosymbol slot 10 source
0 -0.565284 0.742111 0 0.2 0.2 0.2 1 s_nosymbol source 1 0.259941 -0.000686813
0 0.2 0.2 0.2 1 s_nosymbol source 2 0.544717 1.29326 0 0.2 0.2 0.2
1 s_nosymbol group 0 3 0 1 2 0 0.2 0.2 0.2 1 s_nosymbol slot 11 source
0 -0.423171 0.891359 0 0.2 0.2 0.2 1 s_nosymbol source 1 0.306849 -0.0655187
0 0.2 0.2 0.2 1 s_nosymbol source 2 0.830389 1.19735 0 0.2 0.2 0.2
1 s_nosymbol group 0 3 0 1 2 0 0.2 0.2 0.2 1 s_nosymbol slot 12 source
0 -0.260782 0.993366 0 0.2 0.2 0.2 1 s_nosymbol source 1 0.326562 -0.136867
0 0.2 0.2 0.2 1 s_nosymbol source 2 1.06674 1.0509 0 0.2 0.2 0.2 1
s_nosymbol group 0 3 0 1 2 0 0.2 0.2 0.2 1 s_nosymbol slot 13 source
0 0.234319 1.43961 0 0.2 0.2 0.2 1 s_nosymbol source 1 0.53885 -0.571684
0 0.2 0.2 0.2 1 s_nosymbol source 2 1.80542 0.679229 0 0.2 0.2 0.2
1 s_nosymbol group 0 3 0 1 2 0 0.2 0.2 0.2 1 s_nosymbol slot 14 source
0 0.720342 1.75856 0 0.2 0.2 0.2 1 s_nosymbol source 1 0.618833 -1.06002
0 0.2 0.2 0.2 1 s_nosymbol source 2 2.35003 0.313012 0 0.2 0.2 0.2
1 s_nosymbol group 0 3 0 1 2 0 0.2 0.2 0.2 1 s_nosymbol slot 15 source
0 0.992823 1.75958 0 0.2 0.2 0.2 1 s_nosymbol source 1 0.529025 -1.23921
0 0.2 0.2 0.2 1 s_nosymbol source 2 2.49069 0.0186279 0 0.2 0.2 0.2
1 s_nosymbol group 0 3 0 1 2 0 0.2 0.2 0.2 1 s_nosymbol slot 16 source
0 1.39784 1.63372 0 0.2 0.2 0.2 1 s_nosymbol source 1 0.307128 -1.44489
0 0.2 0.2 0.2 1 s_nosymbol source 2 2.57505 -0.486052 0 0.2 0.2 0.2
1 s_nosymbol group 0 3 0 1 2 0 0.2 0.2 0.2 1 s_nosymbol slot 17 source
0 1.80383 1.349 0 0.2 0.2 0.2 1 s_nosymbol source 1 -0.0181332 -1.57942
0 0.2 0.2 0.2 1 s_nosymbol source 2 2.49992 -1.07908 0 0.2 0.2 0.2
1 s_nosymbol group 0 3 0 1 2 0 0.2 0.2 0.2 1 s_nosymbol slot 18 source
0 2.28807 0.873704 0 0.2 0.2 0.2 1 s_nosymbol source 1 -0.505952 -1.70268
0 0.2 0.2 0.2 1 s_nosymbol source 2 2.26129 -1.84681 0 0.2 0.2 0.2
1 s_nosymbol group 0 3 0 1 2 0 0.2 0.2 0.2 1 s_nosymbol slot 19 source
0 2.5635 0.222998 0 0.2 0.2 0.2 1 s_nosymbol source 1 -1.02036 -1.60305
0 0.2 0.2 0.2 1 s_nosymbol source 2 1.73848 -2.49822 0 0.2 0.2 0.2
1 s_nosymbol group 0 3 0 1 2 0 0.2 0.2 0.2 1 s_nosymbol slot 20 source
0 2.36401 -0.678654 0 0.2 0.2 0.2 1 s_nosymbol source 1 -1.43551 -1.06352
0 0.2 0.2 0.2 1 s_nosymbol source 2 0.701079 -2.84479 0 0.2 0.2 0.2
1 s_nosymbol group 0 3 0 1 2 0 0.2 0.2 0.2 1 s_nosymbol slot 21 source
0 1.93115 -1.25586 0 0.2 0.2 0.2 1 s_nosymbol source 1 -1.53698 -0.54471
0 0.2 0.2 0.2 1 s_nosymbol source 2 -0.153631 -2.76974 0 0.2 0.2 0.2
1 s_nosymbol group 0 3 0 1 2 0 0.2 0.2 0.2 1 s_nosymbol slot 22 source
0 1.24748 -1.62303 0 0.2 0.2 0.2 1 s_nosymbol source 1 -1.37411 -0.00233704
0 0.2 0.2 0.2 1 s_nosymbol source 2 -0.967119 -2.32428 0 0.2 0.2 0.2
1 s_nosymbol group 0 3 0 1 2 0 0.2 0.2 0.2 1 s_nosymbol slot 23 source
0 0.520791 -1.61078 0 0.2 0.2 0.2 1 s_nosymbol source 1 -0.961245 0.340999
0 0.2 0.2 0.2 1 s_nosymbol source 2 -1.45372 -1.60203 0 0.2 0.2 0.2
1 s_nosymbol group 0 3 0 1 2 0 0.2 0.2 0.2 1 s_nosymbol slot 24 source
0 -0.104044 -1.39946 0 0.2 0.2 0.2 1 s_nosymbol source 1 -0.545327
0.48588 0 0.2 0.2 0.2 1 s_nosymbol source 2 -1.68965 -0.809908 0 0.2
0.2 0.2 1 s_nosymbol group 0 3 0 1 2 0 0.2 0.2 0.2 1 s_nosymbol slot
25 source 0 -0.507194 -1.05103 0 0.2 0.2 0.2 1 s_nosymbol source 1
-0.222694 0.441035 0 0.2 0.2 0.2 1 s_nosymbol source 2 -1.63323 -0.117113
0 0.2 0.2 0.2 1 s_nosymbol group 0 3 0 1 2 0 0.2 0.2 0.2 1 s_nosymbol
slot 26 source 0 -0.854693 -0.693585 0 0.2 0.2 0.2 1 s_nosymbol source
1 -0.012023 0.427597 0 0.2 0.2 0.2 1 s_nosymbol source 2 -1.46599 0.565053
0 0.2 0.2 0.2 1 s_nosymbol group 0 3 0 1 2 0 0.2 0.2 0.2 1 s_nosymbol
slot 27 source 0 -1.09195 -0.483417 0 0.2 0.2 0.2 1 s_nosymbol source
1 0.122293 0.506681 0 0.2 0.2 0.2 1 s_nosymbol source 2 -1.34224 0.984488
0 0.2 0.2 0.2 1 s_nosymbol group 0 3 0 1 2 0 0.2 0.2 0.2 1 s_nosymbol
slot 28 source 0 -1.18016 -0.276389 0 0.2 0.2 0.2 1 s_nosymbol source
1 0.221593 0.491507 0 0.2 0.2 0.2 1 s_nosymbol source 2 -1.14838 1.22965
0 0.2 0.2 0.2 1 s_nosymbol group 0 3 0 1 2 0 0.2 0.2 0.2 1 s_nosymbol
slot 29 source 0 -1.20533 0.127819 0 0.2 0.2 0.2 1 s_nosymbol source
1 0.37114 0.391072 0 0.2 0.2 0.2 1 s_nosymbol source 2 -0.679196 1.53932
0 0.2 0.2 0.2 1 s_nosymbol group 0 3 0 1 2 0 0.2 0.2 0.2 1 s_nosymbol
slot 30 source 0 -1.02454 0.647676 0 0.2 0.2 0.2 1 s_nosymbol source
1 0.50582 0.186624 0 0.2 0.2 0.2 1 s_nosymbol source 2 0.0715606 1.68098
0 0.2 0.2 0.2 1 s_nosymbol group 0 3 0 1 2 0 0.2 0.2 0.2 1 s_nosymbol
slot 31 source 0 -0.688719 0.997414 0 0.2 0.2 0.2 1 s_nosymbol source
1 0.538495 -0.0265586 0 0.2 0.2 0.2 1 s_nosymbol source 2 0.724676
1.51844 0 0.2 0.2 0.2 1 s_nosymbol group 0 3 0 1 2 0 0.2 0.2 0.2 1
s_nosymbol slot 32 source 0 -0.410031 1.14063 0 0.2 0.2 0.2 1 s_nosymbol
source 1 0.513694 -0.163709 0 0.2 0.2 0.2 1 s_nosymbol source 2 1.0897
1.28194 0 0.2 0.2 0.2 1 s_nosymbol group 0 3 0 1 2 0 0.2 0.2 0.2 1
s_nosymbol slot 33 source 0 -0.236933 1.18871 0 0.2 0.2 0.2 1 s_nosymbol
source 1 0.483855 -0.237838 0 0.2 0.2 0.2 1 s_nosymbol source 2 1.26721
1.10679 0 0.2 0.2 0.2 1 s_nosymbol group 0 3 0 1 2 0 0.2 0.2 0.2 1
s_nosymbol slot 34 source 0 0.387334 1.5546 0 0.2 0.2 0.2 1 s_nosymbol
source 1 0.821647 0.0164378 0 0.2 0.2 0.2 1 s_nosymbol source 2 1.84796
1.1862 0 0.2 0.2 0.2 1 s_nosymbol group 0 3 0 1 2 0 0.2 0.2 0.2 1 s_nosymbol
slot 35 source 0 0.447274 1.47468 0 0.2 0.2 0.2 1 s_nosymbol source
1 0.881587 -0.0634824 0 0.2 0.2 0.2 1 s_nosymbol source 2 1.9079 1.10628
0 0.2 0.2 0.2 1 s_nosymbol group 0 3 0 1 2 0 0.2 0.2 0.2 1 s_nosymbol
slot 36 source 0 0.447274 1.41474 0 0.2 0.2 0.2 1 s_nosymbol source
1 0.881587 -0.123422 0 0.2 0.2 0.2 1 s_nosymbol source 2 1.9079 1.04634
0 0.2 0.2 0.2 1 s_nosymbol group 0 3 0 1 2 0 0.2 0.2 0.2 1 s_nosymbol
slot 37 source 0 0.507214 1.31484 0 0.2 0.2 0.2 1 s_nosymbol source
1 0.941527 -0.223323 0 0.2 0.2 0.2 1 s_nosymbol source 2 1.96784 0.946444
0 0.2 0.2 0.2 1 s_nosymbol group 0 3 0 1 2 0 0.2 0.2 0.2 1 s_nosymbol
slot 38 source 0 0.627094 1.13502 0 0.2 0.2 0.2 1 s_nosymbol source
1 1.06141 -0.403143 0 0.2 0.2 0.2 1 s_nosymbol source 2 2.08772 0.766624
0 0.2 0.2 0.2 1 s_nosymbol group 0 3 0 1 2 0 0.2 0.2 0.2 1 s_nosymbol
slot 39 source 0 0.806914 0.995161 0 0.2 0.2 0.2 1 s_nosymbol source
1 1.24123 -0.543003 0 0.2 0.2 0.2 1 s_nosymbol source 2 2.26754 0.626763
0 0.2 0.2 0.2 1 s_nosymbol group 0 3 0 1 2 0 0.2 0.2 0.2 1 s_nosymbol
slot 40 source 0 0.946774 0.8553 0 0.2 0.2 0.2 1 s_nosymbol source
1 1.38109 -0.682863 0 0.2 0.2 0.2 1 s_nosymbol source 2 2.4074 0.486903
0 0.2 0.2 0.2 1 s_nosymbol group 0 3 0 1 2 0 0.2 0.2 0.2 1 s_nosymbol
slot 41 source 0 1.04667 0.63552 0 0.2 0.2 0.2 1 s_nosymbol source
1 1.48099 -0.902643 0 0.2 0.2 0.2 1 s_nosymbol source 2 2.5073 0.267123
0 0.2 0.2 0.2 1 s_nosymbol group 0 3 0 1 2 0 0.2 0.2 0.2 1 s_nosymbol
slot 42 source 0 1.06665 0.37578 0 0.2 0.2 0.2 1 s_nosymbol source
1 1.50097 -1.16238 0 0.2 0.2 0.2 1 s_nosymbol source 2 2.52728 0.00738266
0 0.2 0.2 0.2 1 s_nosymbol group 0 3 0 1 2 0 0.2 0.2 0.2 1 s_nosymbol
slot 43 source 0 0.926794 -0.323521 0 0.2 0.2 0.2 1 s_nosymbol source
1 1.36111 -1.86168 0 0.2 0.2 0.2 1 s_nosymbol source 2 2.38742 -0.691918
0 0.2 0.2 0.2 1 s_nosymbol group 0 3 0 1 2 0 0.2 0.2 0.2 1 s_nosymbol
slot 44 source 0 0.786934 -0.623221 0 0.2 0.2 0.2 1 s_nosymbol source
1 1.22125 -2.16138 0 0.2 0.2 0.2 1 s_nosymbol source 2 2.24756 -0.991618
0 0.2 0.2 0.2 1 s_nosymbol group 0 3 0 1 2 0 0.2 0.2 0.2 1 s_nosymbol
slot 45 source 0 0.327394 -0.862981 0 0.2 0.2 0.2 1 s_nosymbol source
1 0.761707 -2.40114 0 0.2 0.2 0.2 1 s_nosymbol source 2 1.78802 -1.23138
0 0.2 0.2 0.2 1 s_nosymbol group 0 3 0 1 2 0 0.2 0.2 0.2 1 s_nosymbol
slot 46 source 0 -0.431847 -0.922921 0 0.2 0.2 0.2 1 s_nosymbol source
1 0.00246607 -2.46108 0 0.2 0.2 0.2 1 s_nosymbol source 2 1.02878 -1.29132
0 0.2 0.2 0.2 1 s_nosymbol group 0 3 0 1 2 0 0.2 0.2 0.2 1 s_nosymbol
slot 47 source 0 -1.37091 -0.683161 0 0.2 0.2 0.2 1 s_nosymbol source
1 -0.936595 -2.22132 0 0.2 0.2 0.2 1 s_nosymbol source 2 0.0897208
-1.05156 0 0.2 0.2 0.2 1 s_nosymbol group 0 3 0 1 2 0 0.2 0.2 0.2 1
s_nosymbol slot 48 source 0 -1.79049 -0.343501 0 0.2 0.2 0.2 1 s_nosymbol
source 1 -1.35618 -1.88166 0 0.2 0.2 0.2 1 s_nosymbol source 2 -0.32986
-0.711898 0 0.2 0.2 0.2 1 s_nosymbol group 0 3 0 1 2 0 0.2 0.2 0.2
1 s_nosymbol slot 49 source 0 -2.03025 0.23592 0 0.2 0.2 0.2 1 s_nosymbol
source 1 -1.59594 -1.30224 0 0.2 0.2 0.2 1 s_nosymbol source 2 -0.56962
-0.132477 0 0.2 0.2 0.2 1 s_nosymbol group 0 3 0 1 2 0 0.2 0.2 0.2
1 s_nosymbol slot 50 source 0 -2.03025 0.61554 0 0.2 0.2 0.2 1 s_nosymbol
source 1 -1.59594 -0.922623 0 0.2 0.2 0.2 1 s_nosymbol source 2 -0.56962
0.247143 0 0.2 0.2 0.2 1 s_nosymbol group 0 3 0 1 2 0 0.2 0.2 0.2 1
s_nosymbol slot 51 source 0 -1.95033 1.07508 0 0.2 0.2 0.2 1 s_nosymbol
source 1 -1.51602 -0.463083 0 0.2 0.2 0.2 1 s_nosymbol source 2 -0.4897
0.706683 0 0.2 0.2 0.2 1 s_nosymbol group 0 3 0 1 2 0 0.2 0.2 0.2 1
s_nosymbol slot 52 source 0 -1.67061 1.37478 0 0.2 0.2 0.2 1 s_nosymbol
source 1 -1.2363 -0.163382 0 0.2 0.2 0.2 1 s_nosymbol source 2 -0.20998
1.00638 0 0.2 0.2 0.2 1 s_nosymbol group 0 3 0 1 2 0 0.2 0.2 0.2 1
s_nosymbol slot 53 source 0 -1.33095 1.69446 0 0.2 0.2 0.2 1 s_nosymbol
source 1 -0.896635 0.156298 0 0.2 0.2 0.2 1 s_nosymbol source 2 0.129681
1.32606 0 0.2 0.2 0.2 1 s_nosymbol group 0 3 0 1 2 0 0.2 0.2 0.2 1
s_nosymbol slot 54 source 0 -1.03125 1.89426 0 0.2 0.2 0.2 1 s_nosymbol
source 1 -0.596935 0.356098 0 0.2 0.2 0.2 1 s_nosymbol source 2 0.429381
1.52586 0 0.2 0.2 0.2 1 s_nosymbol group 0 3 0 1 2 0 0.2 0.2 0.2 1
s_nosymbol slot 55 source 0 -0.791488 1.99416 0 0.2 0.2 0.2 1 s_nosymbol
source 1 -0.357174 0.455998 0 0.2 0.2 0.2 1 s_nosymbol source 2 0.669141
1.62576 0 0.2 0.2 0.2 1 s_nosymbol group 0 3 0 1 2 0 0.2 0.2 0.2 1
s_nosymbol slot 56 source 0 -0.471807 2.07408 0 0.2 0.2 0.2 1 s_nosymbol
source 1 -0.0374939 0.535918 0 0.2 0.2 0.2 1 s_nosymbol source 2 0.988822
1.70568 0 0.2 0.2 0.2 1 s_nosymbol group 0 3 0 1 2 0 0.2 0.2 0.2 1
s_nosymbol slot 57 source 0 -0.311967 2.09406 0 0.2 0.2 0.2 1 s_nosymbol
source 1 0.122346 0.555898 0 0.2 0.2 0.2 1 s_nosymbol source 2 1.14866
1.72566 0 0.2 0.2 0.2 1 s_nosymbol group 0 3 0 1 2 0 0.2 0.2 0.2 1
s_nosymbol slot 58 source 0 -0.152127 2.01414 0 0.2 0.2 0.2 1 s_nosymbol
source 1 0.282186 0.475978 0 0.2 0.2 0.2 1 s_nosymbol source 2 1.3085
1.64574 0 0.2 0.2 0.2 1 s_nosymbol group 0 3 0 1 2 0 0.2 0.2 0.2 1
s_nosymbol slot 59 source 0 0.167553 1.83432 0 0.2 0.2 0.2 1 s_nosymbol
source 1 0.601867 0.296158 0 0.2 0.2 0.2 1 s_nosymbol source 2 1.62818
1.46592 0 0.2 0.2 0.2 1 s_nosymbol group 0 3 0 1 2 0 0.2 0.2 0.2 1
s_nosymbol slot 60 source 0 0.447274 1.57458 0 0.2 0.2 0.2 1 s_nosymbol
source 1 0.881587 0.0364178 0 0.2 0.2 0.2 1 s_nosymbol source 2 1.9079
1.20618 0 0.2 0.2 0.2 1 s_nosymbol group 0 3 0 1 2 0 0.2 0.2 0.2 1
s_nosymbol slot 61 source 0 0.507214 1.4547 0 0.2 0.2 0.2 1 s_nosymbol
source 1 0.941527 -0.0834623 0 0.2 0.2 0.2 1 s_nosymbol source 2 1.96784
1.0863 0 0.2 0.2 0.2 1 s_nosymbol group 0 3 0 1 2 0 0.2 0.2 0.2 1 s_nosymbol
slot 62 source 0 0.524182 1.42861 0 0.2 0.2 0.2 1 s_nosymbol source
1 0.940235 -0.114594 0 0.2 0.2 0.2 1 s_nosymbol source 2 1.98034 1.04293
0 0.2 0.2 0.2 1 s_nosymbol group 0 3 0 1 2 0 0.2 0.2 0.2 1 s_nosymbol
slot 63 source 0 0.541355 1.42219 0 0.2 0.2 0.2 1 s_nosymbol source
1 0.938786 -0.125913 0 0.2 0.2 0.2 1 s_nosymbol source 2 1.99276 1.01899
0 0.2 0.2 0.2 1 s_nosymbol group 0 3 0 1 2 0 0.2 0.2 0.2 1 s_nosymbol
slot 64 source 0 0.611991 1.39325 0 0.2 0.2 0.2 1 s_nosymbol source
1 0.931291 -0.172831 0 0.2 0.2 0.2 1 s_nosymbol source 2 2.04135 0.917781
0 0.2 0.2 0.2 1 s_nosymbol group 0 3 0 1 2 0 0.2 0.2 0.2 1 s_nosymbol
slot 65 source 0 0.702774 1.15313 0 0.2 0.2 0.2 1 s_nosymbol source
1 0.737219 -0.241814 0 0.2 0.2 0.2 1 s_nosymbol source 2 1.9811 0.58916
0 0.2 0.2 0.2 1 s_nosymbol group 0 3 0 1 2 0 0.2 0.2 0.2 1 s_nosymbol
slot 66 source 0 0.81524 0.984916 0 0.2 0.2 0.2 1 s_nosymbol source
1 0.630495 -0.31319 0 0.2 0.2 0.2 1 s_nosymbol source 2 1.97406 0.288216
0 0.2 0.2 0.2 1 s_nosymbol group 0 3 0 1 2 0 0.2 0.2 0.2 1 s_nosymbol
slot 67 source 0 0.974219 0.748229 0 0.2 0.2 0.2 1 s_nosymbol source
1 0.506157 -0.413908 0 0.2 0.2 0.2 1 s_nosymbol source 2 1.9387 -0.15437
0 0.2 0.2 0.2 1 s_nosymbol group 0 3 0 1 2 0 0.2 0.2 0.2 1 s_nosymbol
slot 68 source 0 1.08553 0.508462 0 0.2 0.2 0.2 1 s_nosymbol source
1 0.386831 -0.489838 0 0.2 0.2 0.2 1 s_nosymbol source 2 1.83167 -0.559282
0 0.2 0.2 0.2 1 s_nosymbol group 0 3 0 1 2 0 0.2 0.2 0.2 1 s_nosymbol
slot 69 source 0 1.05134 0.190897 0 0.2 0.2 0.2 1 s_nosymbol source
1 0.196909 -0.453043 0 0.2 0.2 0.2 1 s_nosymbol source 2 1.51726 -0.940248
0 0.2 0.2 0.2 1 s_nosymbol group 0 3 0 1 2 0 0.2 0.2 0.2 1 s_nosymbol
slot 70 source 0 0.911961 -0.56231 0 0.2 0.2 0.2 1 s_nosymbol source
1 -0.1573 -0.47128 0 0.2 0.2 0.2 1 s_nosymbol source 2 0.500713 -1.71628
0 0.2 0.2 0.2 1 s_nosymbol group 0 3 0 1 2 0 0.2 0.2 0.2 1 s_nosymbol
slot 71 source 0 0.587256 -0.912909 0 0.2 0.2 0.2 1 s_nosymbol source
1 -0.35523 -0.367242 0 0.2 0.2 0.2 1 s_nosymbol source 2 -0.291992
-1.77811 0 0.2 0.2 0.2 1 s_nosymbol group 0 3 0 1 2 0 0.2 0.2 0.2 1
s_nosymbol slot 72 source 0 0.0171076 -0.740691 0 0.2 0.2 0.2 1 s_nosymbol
source 1 -0.161027 -0.0417142 0 0.2 0.2 0.2 1 s_nosymbol source 2 -0.95138
-1.10394 0 0.2 0.2 0.2 1 s_nosymbol group 0 3 0 1 2 0 0.2 0.2 0.2 1
s_nosymbol slot 73 source 0 -0.256201 -0.342827 0 0.2 0.2 0.2 1 s_nosymbol
source 1 -0 0 0 0.2 0.2 0.2 1 s_nosymbol source 2 -1.12282 -0.221318
0 0.2 0.2 0.2 1 s_nosymbol group 0 3 0 1 2 0 0.2 0.2 0.2 1 s_nosymbol
slot 74 source 0 -0.178439 -0.136982 0 0.2 0.2 0.2 1 s_nosymbol source
1 -0 0 0 0.2 0.2 0.2 1 s_nosymbol source 2 -0.938409 0.0749347 0 0.2
0.2 0.2 1 s_nosymbol group 0 3 0 1 2 0 0.2 0.2 0.2 1 s_nosymbol slot
75 source 0 -0.00930231 -0.00821047 0 0.2 0.2 0.2 1 s_nosymbol source
1 -0 0 0 0.2 0.2 0.2 1 s_nosymbol source 2 -0.728802 0.00821047 0 0.2
0.2 0.2 1 s_nosymbol group 0 3 0 1 2 0 0.2 0.2 0.2 1 s_nosymbol slot
76 source 0 -0.100272 0.262772 0 0.2 0.2 0.2 1 s_nosymbol source 1
0.232931 0.157628 0 0.2 0.2 0.2 1 s_nosymbol source 2 0.325672 0.840009
0 0.2 0.2 0.2 1 s_nosymbol group 0 3 0 1 2 0 0.2 0.2 0.2 1 s_nosymbol
slot 77 source 0 0.0766199 1.08177 0 0.2 0.2 0.2 1 s_nosymbol source
1 1.07068 0.172431 0 0.2 0.2 0.2 1 s_nosymbol source 2 1.22854 1.18104
0 0.2 0.2 0.2 1 s_nosymbol group 0 3 0 1 2 0 0.2 0.2 0.2 1 s_nosymbol
slot 78 source 0 0.14011 1.32915 0 0.2 0.2 0.2 1 s_nosymbol source
1 1.32602 0.167108 0 0.2 0.2 0.2 1 s_nosymbol source 2 1.45591 1.30652
0 0.2 0.2 0.2 1 s_nosymbol group 0 3 0 1 2 0 0.2 0.2 0.2 1 s_nosymbol
slot 79 source 0 0.261887 1.85923 0 0.2 0.2 0.2 1 s_nosymbol source
1 1.86991 0.169596 0 0.2 0.2 0.2 1 s_nosymbol source 2 1.9157 1.60201
0 0.2 0.2 0.2 1 s_nosymbol group 0 3 0 1 2 0 0.2 0.2 0.2 1 s_nosymbol
slot 80 source 0 0.318627 2.4542 0 0.2 0.2 0.2 1 s_nosymbol source
1 2.46211 0.250217 0 0.2 0.2 0.2 1 s_nosymbol source 2 2.35219 2.01072
0 0.2 0.2 0.2 1 s_nosymbol group 0 3 0 1 2 0 0.2 0.2 0.2 1 s_nosymbol
slot 81 source 0 0.381447 2.96248 0 0.2 0.2 0.2 1 s_nosymbol source
1 2.97131 0.305125 0 0.2 0.2 0.2 1 s_nosymbol source 2 2.73901 2.34638
0 0.2 0.2 0.2 1 s_nosymbol group 0 3 0 1 2 0 0.2 0.2 0.2 1 s_nosymbol
slot 82 source 0 0.39176 3.06962 0 0.2 0.2 0.2 1 s_nosymbol source
1 3.07797 0.31955 0 0.2 0.2 0.2 1 s_nosymbol source 2 2.81801 2.41951
0 0.2 0.2 0.2 1 s_nosymbol group 0 3 0 1 2 0 0.2 0.2 0.2 1 s_nosymbol
slot 83 source 0 0.425046 3.09767 0 0.2 0.2 0.2 1 s_nosymbol source
1 3.11289 0.29355 0 0.2 0.2 0.2 1 s_nosymbol source 2 2.8653 2.41358
0 0.2 0.2 0.2 1 s_nosymbol group 0 3 0 1 2 0 0.2 0.2 0.2 1 s_nosymbol
slot 84 source 0 0.504645 2.79299 0 0.2 0.2 0.2 1 s_nosymbol source
1 2.83443 0.146479 0 0.2 0.2 0.2 1 s_nosymbol source 2 2.7367 2.11365
0 0.2 0.2 0.2 1 s_nosymbol group 0 3 0 1 2 0 0.2 0.2 0.2 1 s_nosymbol
slot 85 source 0 0.32377 2.33488 0 0.2 0.2 0.2 1 s_nosymbol source
1 2.34713 0.217964 0 0.2 0.2 0.2 1 s_nosymbol source 2 2.27952 1.91461
0 0.2 0.2 0.2 1 s_nosymbol group 0 3 0 1 2 0 0.2 0.2 0.2 1 s_nosymbol
slot 86 source 0 0.0645068 1.44513 0 0.2 0.2 0.2 1 s_nosymbol source
1 1.42168 0.2672 0 0.2 0.2 0.2 1 s_nosymbol source 2 1.45169 1.47037
0 0.2 0.2 0.2 1 s_nosymbol group 0 3 0 1 2 0 0.2 0.2 0.2 1 s_nosymbol
slot 87 source 0 -0.0453984 0.100684 0 0.2 0.2 0.2 1 s_nosymbol source
1 0.087657 0.0671905 0 0.2 0.2 0.2 1 s_nosymbol source 2 0.223285 0.695144
0 0.2 0.2 0.2 1 s_nosymbol group 0 3 0 1 2 0 0.2 0.2 0.2 1 s_nosymbol
slot 88 source 0 -0.124303 -0.553515 0 0.2 0.2 0.2 1 s_nosymbol source
1 -0.567275 -0.0053782 0 0.2 0.2 0.2 1 s_nosymbol source 2 -0.937824
-0.663159 0 0.2 0.2 0.2 1 s_nosymbol group 0 3 0 1 2 0 0.2 0.2 0.2
1 s_nosymbol slot 89 source 0 -0.105287 -1.09514 0 0.2 0.2 0.2 1 s_nosymbol
source 1 -1.09024 -0.147573 0 0.2 0.2 0.2 1 s_nosymbol source 2 -1.2411
-1.13449 0 0.2 0.2 0.2 1 s_nosymbol group 0 3 0 1 2 0 0.2 0.2 0.2 1
s_nosymbol slot 90 source 0 0.277596 -1.66022 0 0.2 0.2 0.2 1 s_nosymbol
source 1 -1.55297 -0.649379 0 0.2 0.2 0.2 1 s_nosymbol source 2 -1.21961
-1.9081 0 0.2 0.2 0.2 1 s_nosymbol group 0 3 0 1 2 0 0.2 0.2 0.2 1
s_nosymbol slot 91 source 0 0.64716 -2.0127 0 0.2 0.2 0.2 1 s_nosymbol
source 1 -1.81173 -1.08967 0 0.2 0.2 0.2 1 s_nosymbol source 2 -1.10723
-2.45758 0 0.2 0.2 0.2 1 s_nosymbol group 0 3 0 1 2 0 0.2 0.2 0.2 1
s_nosymbol slot 92 source 0 0.972064 -1.94554 0 0.2 0.2 0.2 1 s_nosymbol
source 1 -1.67216 -1.39065 0 0.2 0.2 0.2 1 s_nosymbol source 2 -0.737922
-2.65555 0 0.2 0.2 0.2 1 s_nosymbol group 0 3 0 1 2 0 0.2 0.2 0.2 1
s_nosymbol slot 93 source 0 1.45213 -1.59635 0 0.2 0.2 0.2 1 s_nosymbol
source 1 -1.22257 -1.7783 0 0.2 0.2 0.2 1 s_nosymbol source 2 0.0102054
-2.7393 0 0.2 0.2 0.2 1 s_nosymbol group 0 3 0 1 2 0 0.2 0.2 0.2 1
s_nosymbol slot 94 source 0 1.9629 -0.952327 0 0.2 0.2 0.2 1 s_nosymbol
source 1 -0.478929 -2.12851 0 0.2 0.2 0.2 1 s_nosymbol source 2 1.03689
-2.56109 0 0.2 0.2 0.2 1 s_nosymbol group 0 3 0 1 2 0 0.2 0.2 0.2 1
s_nosymbol slot 95 source 0 2.12681 -0.199283 0 0.2 0.2 0.2 1 s_nosymbol
source 1 0.291647 -2.11612 0 0.2 0.2 0.2 1 s_nosymbol source 2 1.83828
-2.00128 0 0.2 0.2 0.2 1 s_nosymbol group 0 3 0 1 2 0 0.2 0.2 0.2 1
s_nosymbol slot 96 source 0 1.92816 0.49189 0 0.2 0.2 0.2 1 s_nosymbol
source 1 0.919197 -1.76489 0 0.2 0.2 0.2 1 s_nosymbol source 2 2.27515
-1.19786 0 0.2 0.2 0.2 1 s_nosymbol group 0 3 0 1 2 0 0.2 0.2 0.2 1
s_nosymbol slot 97 source 0 1.50512 1.02191 0 0.2 0.2 0.2 1 s_nosymbol
source 1 1.33861 -1.232 0 0.2 0.2 0.2 1 s_nosymbol source 2 2.37776
-0.330073 0 0.2 0.2 0.2 1 s_nosymbol group 0 3 0 1 2 0 0.2 0.2 0.2
1 s_nosymbol slot 98 source 0 0.664799 1.58728 0 0.2 0.2 0.2 1 s_nosymbol
source 1 1.69715 -0.284772 0 0.2 0.2 0.2 1 s_nosymbol source 2 2.08313
0.980102 0 0.2 0.2 0.2 1 s_nosymbol group 0 3 0 1 2 0 0.2 0.2 0.2 1
s_nosymbol slot 99 source 0 -0.159674 1.73222 0 0.2 0.2 0.2 1 s_nosymbol
source 1 1.64999 0.551014 0 0.2 0.2 0.2 1 s_nosymbol source 2 1.39062
1.85812 0 0.2 0.2 0.2 1 s_nosymbol group 0 3 0 1 2 0 0.2 0.2 0.2 1
s_nosymbol slot 100 source 0 -0.467531 1.50959 0 0.2 0.2 0.2 1 s_nosymbol
source 1 1.36295 0.799899 0 0.2 0.2 0.2 1 s_nosymbol source 2 0.909096
1.96118 0 0.2 0.2 0.2 1 s_nosymbol group 0 3 0 1 2 0 0.2 0.2 0.2 1
s_nosymbol slot 101 source 0 -0.978746 0.758916 0 0.2 0.2 0.2 1 s_nosymbol
source 1 0.515364 1.12619 0 0.2 0.2 0.2 1 s_nosymbol source 2 -0.320141
1.79143 0 0.2 0.2 0.2 1 s_nosymbol group 0 3 0 1 2 0 0.2 0.2 0.2 1
s_nosymbol slot 102 source 0 -1.04213 -0.0496701 0 0.2 0.2 0.2 1 s_nosymbol
source 1 -0.286332 1.00325 0 0.2 0.2 0.2 1 s_nosymbol source 2 -1.25631
1.03008 0 0.2 0.2 0.2 1 s_nosymbol group 0 3 0 1 2 0 0.2 0.2 0.2 1
s_nosymbol slot 103 source 0 -0.986335 -0.553149 0 0.2 0.2 0.2 1 s_nosymbol
source 1 -0.763767 0.83396 0 0.2 0.2 0.2 1 s_nosymbol source 2 -1.66965
0.379142 0 0.2 0.2 0.2 1 s_nosymbol group 0 3 0 1 2 0 0.2 0.2 0.2 1
s_nosymbol slot 104 source 0 -0.62893 -1.12657 0 0.2 0.2 0.2 1 s_nosymbol
source 1 -1.24042 0.355057 0 0.2 0.2 0.2 1 s_nosymbol source 2 -1.77223
-0.601545 0 0.2 0.2 0.2 1 s_nosymbol group 0 3 0 1 2 0 0.2 0.2 0.2
1 s_nosymbol slot 105 source 0 -0.402174 -1.36698 0 0.2 0.2 0.2 1 s_nosymbol
source 1 -1.4227 0.079394 0 0.2 0.2 0.2 1 s_nosymbol source 2 -1.71007
-1.04907 0 0.2 0.2 0.2 1 s_nosymbol group 0 3 0 1 2 0 0.2 0.2 0.2 1
s_nosymbol slot 106 source 0 0.0464211 -1.29068 0 0.2 0.2 0.2 1 s_nosymbol
source 1 -1.24597 -0.339925 0 0.2 0.2 0.2 1 s_nosymbol source 2 -1.20428
-1.43428 0 0.2 0.2 0.2 1 s_nosymbol group 0 3 0 1 2 0 0.2 0.2 0.2 1
s_nosymbol slot 107 source 0 0.412264 -0.932478 0 0.2 0.2 0.2 1 s_nosymbol
source 1 -0.813698 -0.614306 0 0.2 0.2 0.2 1 s_nosymbol source 2 -0.500717
-1.52053 0 0.2 0.2 0.2 1 s_nosymbol group 0 3 0 1 2 0 0.2 0.2 0.2 1
s_nosymbol slot 108 source 0 0.616175 -0.419824 0 0.2 0.2 0.2 1 s_nosymbol
source 1 -0.268026 -0.695763 0 0.2 0.2 0.2 1 s_nosymbol source 2 0.313225
-1.28941 0 0.2 0.2 0.2 1 s_nosymbol group 0 3 0 1 2 0 0.2 0.2 0.2 1
s_nosymbol slot 109 source 0 0.645544 0.0953901 0 0.2 0.2 0.2 1 s_nosymbol
source 1 0.240282 -0.606705 0 0.2 0.2 0.2 1 s_nosymbol source 2 1.02684
-0.684104 0 0.2 0.2 0.2 1 s_nosymbol group 0 3 0 1 2 0 0.2 0.2 0.2
1 s_nosymbol slot 110 source 0 0.530288 0.42825 0 0.2 0.2 0.2 1 s_nosymbol
source 1 0.538028 -0.418484 0 0.2 0.2 0.2 1 s_nosymbol source 2 1.26101
-0.0694924 0 0.2 0.2 0.2 1 s_nosymbol group 0 3 0 1 2 0 0.2 0.2 0.2
1 s_nosymbol slot 111 source 0 0.394585 0.716964 0 0.2 0.2 0.2 1 s_nosymbol
source 1 0.788126 -0.220437 0 0.2 0.2 0.2 1 s_nosymbol source 2 1.32266
0.4579 0 0.2 0.2 0.2 1 s_nosymbol group 0 3 0 1 2 0 0.2 0.2 0.2 1 s_nosymbol
slot 112 source 0 0.239216 0.944918 0 0.2 0.2 0.2 1 s_nosymbol source
1 0.974578 -0.0171196 0 0.2 0.2 0.2 1 s_nosymbol source 2 1.29431 0.863707
0 0.2 0.2 0.2 1 s_nosymbol group 0 3 0 1 2 0 0.2 0.2 0.2 1 s_nosymbol
slot 113 source 0 0.157533 1.06689 0 0.2 0.2 0.2 1 s_nosymbol source
1 1.07468 0.0902585 0 0.2 0.2 0.2 1 s_nosymbol source 2 1.2803 1.05625
0 0.2 0.2 0.2 1 s_nosymbol group 0 3 0 1 2 0 0.2 0.2 0.2 1 s_nosymbol
slot 114 source 0 -0.24333 1.26868 0 0.2 0.2 0.2 1 s_nosymbol source
1 1.17959 0.526608 0 0.2 0.2 0.2 1 s_nosymbol source 2 0.970896 1.60184
0 0.2 0.2 0.2 1 s_nosymbol group 0 3 0 1 2 0 0.2 0.2 0.2 1 s_nosymbol
slot 115 source 0 -0.627849 1.43995 0 0.2 0.2 0.2 1 s_nosymbol source
1 1.25853 0.940077 0 0.2 0.2 0.2 1 s_nosymbol source 2 0.683597 2.04073
0 0.2 0.2 0.2 1 s_nosymbol group 0 3 0 1 2 0 0.2 0.2 0.2 1 s_nosymbol
slot 116 source 0 -0.821416 1.4866 0 0.2 0.2 0.2 1 s_nosymbol source
1 1.25975 1.13918 0 0.2 0.2 0.2 1 s_nosymbol source 2 0.518846 2.21992
0 0.2 0.2 0.2 1 s_nosymbol group 0 3 0 1 2 0 0.2 0.2 0.2 1 s_nosymbol
slot 117 source 0 -0.916659 1.5179 0 0.2 0.2 0.2 1 s_nosymbol source
1 1.17339 1.22872 0 0.2 0.2 0.2 1 s_nosymbol source 2 0.40261 2.28835
0 0.2 0.2 0.2 1 s_nosymbol group 0 3 0 1 2 0 0.2 0.2 0.2 1 s_nosymbol
slot 118 source 0 -1.05652 1.47794 0 0.2 0.2 0.2 1 s_nosymbol source
1 1.03353 1.18876 0 0.2 0.2 0.2 1 s_nosymbol source 2 0.26275 2.24839
0 0.2 0.2 0.2 1 s_nosymbol group 0 3 0 1 2 0 0.2 0.2 0.2 1 s_nosymbol
slot 119 source 0 -1.31626 1.23818 0 0.2 0.2 0.2 1 s_nosymbol source
1 0.773789 0.948997 0 0.2 0.2 0.2 1 s_nosymbol source 2 0.00300968
2.00863 0 0.2 0.2 0.2 1 s_nosymbol group 0 3 0 1 2 0 0.2 0.2 0.2 1
s_nosymbol slot 120 source 0 -1.63594 0.97844 0 0.2 0.2 0.2 1 s_nosymbol
source 1 0.454109 0.689256 0 0.2 0.2 0.2 1 s_nosymbol source 2 -0.316671
1.74889 0 0.2 0.2 0.2 1 s_nosymbol group 0 3 0 1 2 0 0.2 0.2 0.2 1
s_nosymbol slot 121 source 0 -1.7758 0.75866 0 0.2 0.2 0.2 1 s_nosymbol
source 1 0.314249 0.469476 0 0.2 0.2 0.2 1 s_nosymbol source 2 -0.456531
1.52911 0 0.2 0.2 0.2 1 s_nosymbol group 0 3 0 1 2 0 0.2 0.2 0.2 1
s_nosymbol slot 122 source 0 -1.81576 0.399019 0 0.2 0.2 0.2 1 s_nosymbol
source 1 0.274289 0.109836 0 0.2 0.2 0.2 1 s_nosymbol source 2 -0.496491
1.16947 0 0.2 0.2 0.2 1 s_nosymbol group 0 3 0 1 2 0 0.2 0.2 0.2 1
s_nosymbol slot 123 source 0 -1.83574 -0.0805012 0 0.2 0.2 0.2 1 s_nosymbol
source 1 0.254309 -0.369685 0 0.2 0.2 0.2 1 s_nosymbol source 2 -0.516471
0.689946 0 0.2 0.2 0.2 1 s_nosymbol group 0 3 0 1 2 0 0.2 0.2 0.2 1
s_nosymbol slot 124 source 0 -1.79578 -0.420162 0 0.2 0.2 0.2 1 s_nosymbol
source 1 0.294269 -0.709345 0 0.2 0.2 0.2 1 s_nosymbol source 2 -0.476511
0.350286 0 0.2 0.2 0.2 1 s_nosymbol group 0 3 0 1 2 0 0.2 0.2 0.2 1
s_nosymbol slot 125 source 0 -1.61596 -0.639942 0 0.2 0.2 0.2 1 s_nosymbol
source 1 0.474089 -0.929125 0 0.2 0.2 0.2 1 s_nosymbol source 2 -0.296691
0.130506 0 0.2 0.2 0.2 1 s_nosymbol group 0 3 0 1 2 0 0.2 0.2 0.2 1
s_nosymbol slot 126 source 0 -1.45612 -0.939642 0 0.2 0.2 0.2 1 s_nosymbol
source 1 0.633929 -1.22883 0 0.2 0.2 0.2 1 s_nosymbol source 2 -0.13685
-0.169195 0 0.2 0.2 0.2 1 s_nosymbol group 0 3 0 1 2 0 0.2 0.2 0.2
1 s_nosymbol slot 127 source 0 -1.3762 -1.15942 0 0.2 0.2 0.2 1 s_nosymbol
source 1 0.713849 -1.44861 0 0.2 0.2 0.2 1 s_nosymbol source 2 -0.0569303
-0.388975 0 0.2 0.2 0.2 1 s_nosymbol group 0 3 0 1 2 0 0.2 0.2 0.2
1 s_nosymbol slot 128 source 0 -1.31626 -1.29928 0 0.2 0.2 0.2 1 s_nosymbol
source 1 0.773789 -1.58847 0 0.2 0.2 0.2 1 s_nosymbol source 2 0.00300968
-0.528835 0 0.2 0.2 0.2 1 s_nosymbol group 0 3 0 1 2 0 0.2 0.2 0.2
1 s_nosymbol slot 129 source 0 -1.2763 -1.51906 0 0.2 0.2 0.2 1 s_nosymbol
source 1 0.813749 -1.80825 0 0.2 0.2 0.2 1 s_nosymbol source 2 0.0429698
-0.748615 0 0.2 0.2 0.2 1 s_nosymbol group 0 3 0 1 2 0 0.2 0.2 0.2
1 s_nosymbol slot 130 source 0 -1.23634 -1.7788 0 0.2 0.2 0.2 1 s_nosymbol
source 1 0.853709 -2.06799 0 0.2 0.2 0.2 1 s_nosymbol source 2 0.0829298
-1.00836 0 0.2 0.2 0.2 1 s_nosymbol group 0 3 0 1 2 0 0.2 0.2 0.2 1
s_nosymbol slot 131 source 0 -1.1764 -1.8787 0 0.2 0.2 0.2 1 s_nosymbol
source 1 0.913649 -2.16789 0 0.2 0.2 0.2 1 s_nosymbol source 2 0.14287
-1.10826 0 0.2 0.2 0.2 1 s_nosymbol group 0 3 0 1 2 0 0.2 0.2 0.2 1
s_nosymbol slot 132 source 0 -1.05652 -1.93864 0 0.2 0.2 0.2 1 s_nosymbol
source 1 1.03353 -2.22783 0 0.2 0.2 0.2 1 s_nosymbol source 2 0.26275
-1.1682 0 0.2 0.2 0.2 1 s_nosymbol group 0 3 0 1 2 0 0.2 0.2 0.2 1
s_nosymbol slot 133 source 0 -0.716859 -1.93864 0 0.2 0.2 0.2 1 s_nosymbol
source 1 1.37319 -2.22783 0 0.2 0.2 0.2 1 s_nosymbol source 2 0.60241
-1.1682 0 0.2 0.2 0.2 1 s_nosymbol group 0 3 0 1 2 0 0.2 0.2 0.2 1
s_nosymbol slot 134 source 0 -0.197378 -1.85872 0 0.2 0.2 0.2 1 s_nosymbol
source 1 1.89267 -2.14791 0 0.2 0.2 0.2 1 s_nosymbol source 2 1.12189
-1.08828 0 0.2 0.2 0.2 1 s_nosymbol group 0 3 0 1 2 0 0.2 0.2 0.2 1
s_nosymbol slot 135 source 0 0.162262 -1.579 0 0.2 0.2 0.2 1 s_nosymbol
source 1 2.25231 -1.86819 0 0.2 0.2 0.2 1 s_nosymbol source 2 1.48153
-0.808555 0 0.2 0.2 0.2 1 s_nosymbol group 0 3 0 1 2 0 0.2 0.2 0.2
1 s_nosymbol slot 136 source 0 0.461963 -1.09948 0 0.2 0.2 0.2 1 s_nosymbol
source 1 2.55201 -1.38867 0 0.2 0.2 0.2 1 s_nosymbol source 2 1.78123
-0.329035 0 0.2 0.2 0.2 1 s_nosymbol group 0 3 0 1 2 0 0.2 0.2 0.2
1 s_nosymbol slot 137 source 0 0.661762 -0.580002 0 0.2 0.2 0.2 1 s_nosymbol
source 1 2.75181 -0.869185 0 0.2 0.2 0.2 1 s_nosymbol source 2 1.98103
0.190446 0 0.2 0.2 0.2 1 s_nosymbol group 0 3 0 1 2 0 0.2 0.2 0.2 1
s_nosymbol slot 138 source 0 0.721703 0.159259 0 0.2 0.2 0.2 1 s_nosymbol
source 1 2.81175 -0.129924 0 0.2 0.2 0.2 1 s_nosymbol source 2 2.04097
0.929706 0 0.2 0.2 0.2 1 s_nosymbol group 0 3 0 1 2 0 0.2 0.2 0.2 1
s_nosymbol slot 139 source 0 0.621802 0.7187 0 0.2 0.2 0.2 1 s_nosymbol
source 1 2.71185 0.429516 0 0.2 0.2 0.2 1 s_nosymbol source 2 1.94107
1.48915 0 0.2 0.2 0.2 1 s_nosymbol group 0 3 0 1 2 0 0.2 0.2 0.2 1
s_nosymbol slot 140 source 0 0.202222 1.418 0 0.2 0.2 0.2 1 s_nosymbol
source 1 2.29227 1.12882 0 0.2 0.2 0.2 1 s_nosymbol source 2 1.52149
2.18845 0 0.2 0.2 0.2 1 s_nosymbol group 0 3 0 1 2 0 0.2 0.2 0.2 1
s_nosymbol slot 141 source 0 -0.197378 1.63778 0 0.2 0.2 0.2 1 s_nosymbol
source 1 1.89267 1.3486 0 0.2 0.2 0.2 1 s_nosymbol source 2 1.12189
2.40823 0 0.2 0.2 0.2 1 s_nosymbol group 0 3 0 1 2 0 0.2 0.2 0.2 1
s_nosymbol slot 142 source 0 -0.836739 1.65776 0 0.2 0.2 0.2 1 s_nosymbol
source 1 1.25331 1.36858 0 0.2 0.2 0.2 1 s_nosymbol source 2 0.48253
2.42821 0 0.2 0.2 0.2 1 s_nosymbol group 0 3 0 1 2 0 0.2 0.2 0.2 1
s_nosymbol slot 143 source 0 -1.65592 1.49792 0 0.2 0.2 0.2 1 s_nosymbol
source 1 0.434129 1.20874 0 0.2 0.2 0.2 1 s_nosymbol source 2 -0.336651
2.26837 0 0.2 0.2 0.2 1 s_nosymbol group 0 3 0 1 2 0 0.2 0.2 0.2 1
s_nosymbol slot 144 source 0 -2.2753 0.93848 0 0.2 0.2 0.2 1 s_nosymbol
source 1 -0.185252 0.649296 0 0.2 0.2 0.2 1 s_nosymbol source 2 -0.956031
1.70893 0 0.2 0.2 0.2 1 s_nosymbol group 0 3 0 1 2 0 0.2 0.2 0.2 1
s_nosymbol slot 145 source 0 -2.55502 0.53888 0 0.2 0.2 0.2 1 s_nosymbol
source 1 -0.464972 0.249696 0 0.2 0.2 0.2 1 s_nosymbol source 2 -1.23575
1.30933 0 0.2 0.2 0.2 1 s_nosymbol group 0 3 0 1 2 0 0.2 0.2 0.2 1
s_nosymbol slot 146 source 0 -2.6749 -0.140441 0 0.2 0.2 0.2 1 s_nosymbol
source 1 -0.584852 -0.429625 0 0.2 0.2 0.2 1 s_nosymbol source 2 -1.35563
0.630006 0 0.2 0.2 0.2 1 s_nosymbol group 0 3 0 1 2 0 0.2 0.2 0.2 1
s_nosymbol slot 147 source 0 -2.65492 -0.599982 0 0.2 0.2 0.2 1 s_nosymbol
source 1 -0.564872 -0.889165 0 0.2 0.2 0.2 1 s_nosymbol source 2 -1.33565
0.170466 0 0.2 0.2 0.2 1 s_nosymbol group 0 3 0 1 2 0 0.2 0.2 0.2 1
s_nosymbol slot 148 source 0 -2.13544 -0.939642 0 0.2 0.2 0.2 1 s_nosymbol
source 1 -0.0453916 -1.22883 0 0.2 0.2 0.2 1 s_nosymbol source 2 -0.816171
-0.169195 0 0.2 0.2 0.2 1 s_nosymbol group 0 3 0 1 2 0 0.2 0.2 0.2
1 s_nosymbol slot 149 source 0 -1.55602 -1.01956 0 0.2 0.2 0.2 1 s_nosymbol
source 1 0.534029 -1.30875 0 0.2 0.2 0.2 1 s_nosymbol source 2 -0.236751
-0.249115 0 0.2 0.2 0.2 1 s_nosymbol group 0 3 0 1 2 0 0.2 0.2 0.2
1 s_nosymbol slot 150 source 0 -0.776799 -0.979602 0 0.2 0.2 0.2 1
s_nosymbol source 1 1.31325 -1.26879 0 0.2 0.2 0.2 1 s_nosymbol source
2 0.54247 -0.209155 0 0.2 0.2 0.2 1 s_nosymbol group 0 3 0 1 2 0 0.2
0.2 0.2 1 s_nosymbol slot 151 source 0 -0.077498 -0.939642 0 0.2 0.2
0.2 1 s_nosymbol source 1 2.01255 -1.22883 0 0.2 0.2 0.2 1 s_nosymbol
source 2 1.24177 -0.169195 0 0.2 0.2 0.2 1 s_nosymbol group 0 3 0 1
2 0 0.2 0.2 0.2 1 s_nosymbol slot 152 source 0 0.362062 -0.859722 0
0.2 0.2 0.2 1 s_nosymbol source 1 2.45211 -1.14891 0 0.2 0.2 0.2 1
s_nosymbol source 2 1.68133 -0.0892748 0 0.2 0.2 0.2 1 s_nosymbol group
0 3 0 1 2 0 0.2 0.2 0.2 1 s_nosymbol slot 153 source 0 0.641783 -0.699882
0 0.2 0.2 0.2 1 s_nosymbol source 1 2.73183 -0.989065 0 0.2 0.2 0.2
1 s_nosymbol source 2 1.96105 0.0705655 0 0.2 0.2 0.2 1 s_nosymbol
group 0 3 0 1 2 0 0.2 0.2 0.2 1 s_nosymbol slot 154 source 0 0.741683
-0.400181 0 0.2 0.2 0.2 1 s_nosymbol source 1 2.83173 -0.689365 0 0.2
0.2 0.2 1 s_nosymbol source 2 2.06095 0.370266 0 0.2 0.2 0.2 1 s_nosymbol
group 0 3 0 1 2 0 0.2 0.2 0.2 1 s_nosymbol slot 155 source 0 0.761663
0.0393789 0 0.2 0.2 0.2 1 s_nosymbol source 1 2.85171 -0.249805 0 0.2
0.2 0.2 1 s_nosymbol source 2 2.08093 0.809826 0 0.2 0.2 0.2 1 s_nosymbol
group 0 3 0 1 2 0 0.2 0.2 0.2 1 s_nosymbol slot 156 source 0 0.741683
0.518899 0 0.2 0.2 0.2 1 s_nosymbol source 1 2.83173 0.229716 0 0.2
0.2 0.2 1 s_nosymbol source 2 2.06095 1.28935 0 0.2 0.2 0.2 1 s_nosymbol
group 0 3 0 1 2 0 0.2 0.2 0.2 1 s_nosymbol slot 157 source 0 0.601823
0.9185 0 0.2 0.2 0.2 1 s_nosymbol source 1 2.69187 0.629316 0 0.2 0.2
0.2 1 s_nosymbol source 2 1.92109 1.68895 0 0.2 0.2 0.2 1 s_nosymbol
group 0 3 0 1 2 0 0.2 0.2 0.2 1 s_nosymbol slot 158 source 0 0.262162
1.3181 0 0.2 0.2 0.2 1 s_nosymbol source 1 2.35221 1.02892 0 0.2 0.2
0.2 1 s_nosymbol source 2 1.58143 2.08855 0 0.2 0.2 0.2 1 s_nosymbol
group 0 3 0 1 2 0 0.2 0.2 0.2 1 s_nosymbol slot 159 source 0 -0.0575181
1.49792 0 0.2 0.2 0.2 1 s_nosymbol source 1 2.03253 1.20874 0 0.2 0.2
0.2 1 s_nosymbol source 2 1.26175 2.26837 0 0.2 0.2 0.2 1 s_nosymbol
group 0 3 0 1 2 0 0.2 0.2 0.2 1 s_nosymbol slot 160 source 0 -0.417159
1.53788 0 0.2 0.2 0.2 1 s_nosymbol source 1 1.67289 1.2487 0 0.2 0.2
0.2 1 s_nosymbol source 2 0.902111 2.30833 0 0.2 0.2 0.2 1 s_nosymbol
group 0 3 0 1 2 0 0.2 0.2 0.2 1 s_nosymbol slot 161 source 0 -0.836739
1.35806 0 0.2 0.2 0.2 1 s_nosymbol source 1 1.25331 1.06888 0 0.2 0.2
0.2 1 s_nosymbol source 2 0.48253 2.12851 0 0.2 0.2 0.2 1 s_nosymbol
group 0 3 0 1 2 0 0.2 0.2 0.2 1 s_nosymbol slot 162 source 0 -1.21636
0.67874 0 0.2 0.2 0.2 1 s_nosymbol source 1 0.873689 0.389556 0 0.2
0.2 0.2 1 s_nosymbol source 2 0.10291 1.44919 0 0.2 0.2 0.2 1 s_nosymbol
group 0 3 0 1 2 0 0.2 0.2 0.2 1 s_nosymbol slot 163 source 0 -1.29628
0.159259 0 0.2 0.2 0.2 1 s_nosymbol source 1 0.793769 -0.129924 0 0.2
0.2 0.2 1 s_nosymbol source 2 0.0229897 0.929706 0 0.2 0.2 0.2 1 s_nosymbol
group 0 3 0 1 2 0 0.2 0.2 0.2 1 s_nosymbol slot 164 source 0 -0.736839
-0.619962 0 0.2 0.2 0.2 1 s_nosymbol source 1 1.35321 -0.909145 0 0.2
0.2 0.2 1 s_nosymbol source 2 0.58243 0.150485 0 0.2 0.2 0.2 1 s_nosymbol
group 0 3 0 1 2 0 0.2 0.2 0.2 1 s_nosymbol slot 165 source 0 0.202222
-1.21936 0 0.2 0.2 0.2 1 s_nosymbol source 1 2.29227 -1.50855 0 0.2
0.2 0.2 1 s_nosymbol source 2 1.52149 -0.448915 0 0.2 0.2 0.2 1 s_nosymbol
group 0 3 0 1 2 0 0.2 0.2 0.2 1 s_nosymbol slot 166 source 0 0.441982
-1.53904 0 0.2 0.2 0.2 1 s_nosymbol source 1 2.53203 -1.82823 0 0.2
0.2 0.2 1 s_nosymbol source 2 1.76125 -0.768595 0 0.2 0.2 0.2 1 s_nosymbol
group 0 3 0 1 2 0 0.2 0.2 0.2 1 s_nosymbol slot 167 source 0 -0.0175582
-2.0785 0 0.2 0.2 0.2 1 s_nosymbol source 1 2.07249 -2.36769 0 0.2
0.2 0.2 1 s_nosymbol source 2 1.30171 -1.30806 0 0.2 0.2 0.2 1 s_nosymbol
group 0 3 0 1 2 0 0.2 0.2 0.2 1 s_nosymbol slot 168 source 0 -1.2763
-1.93864 0 0.2 0.2 0.2 1 s_nosymbol source 1 0.813749 -2.22783 0 0.2
0.2 0.2 1 s_nosymbol source 2 0.0429698 -1.1682 0 0.2 0.2 0.2 1 s_nosymbol
group 0 3 0 1 2 0 0.2 0.2 0.2 1 s_nosymbol slot 169 source 0 -2.6749
-1.13944 0 0.2 0.2 0.2 1 s_nosymbol source 1 -0.584852 -1.42863 0 0.2
0.2 0.2 1 s_nosymbol source 2 -1.35563 -0.368995 0 0.2 0.2 0.2 1 s_nosymbol
group 0 3 0 1 2 0 0.2 0.2 0.2 1 s_nosymbol slot 170 source 0 -2.81476
-0.759822 0 0.2 0.2 0.2 1 s_nosymbol source 1 -0.724712 -1.04901 0
0.2 0.2 0.2 1 s_nosymbol source 2 -1.49549 0.0106253 0 0.2 0.2 0.2
1 s_nosymbol group 0 3 0 1 2 0 0.2 0.2 0.2 1 s_nosymbol slot 171 source
0 -2.7748 -0.180401 0 0.2 0.2 0.2 1 s_nosymbol source 1 -0.684752 -0.469585
0 0.2 0.2 0.2 1 s_nosymbol source 2 -1.45553 0.590046 0 0.2 0.2 0.2
1 s_nosymbol group 0 3 0 1 2 0 0.2 0.2 0.2 1 s_nosymbol slot 172 source
0 -2.39518 0.0993189 0 0.2 0.2 0.2 1 s_nosymbol source 1 -0.305132
-0.189865 0 0.2 0.2 0.2 1 s_nosymbol source 2 -1.07591 0.869766 0 0.2
0.2 0.2 1 s_nosymbol group 0 3 0 1 2 0 0.2 0.2 0.2 1 s_nosymbol slot
173 source 0 -2.01556 0.199219 0 0.2 0.2 0.2 1 s_nosymbol source 1
0.0744885 -0.0899644 0 0.2 0.2 0.2 1 s_nosymbol source 2 -0.696291
0.969666 0 0.2 0.2 0.2 1 s_nosymbol group 0 3 0 1 2 0 0.2 0.2 0.2 1
s_nosymbol slot 174 source 0 -1.4761 0.199219 0 0.2 0.2 0.2 1 s_nosymbol
source 1 0.613949 -0.0899644 0 0.2 0.2 0.2 1 s_nosymbol source 2 -0.15683
0.969666 0 0.2 0.2 0.2 1 s_nosymbol group 0 3 0 1 2 0 0.2 0.2 0.2 1
s_nosymbol slot 175 source 0 -0.976599 0.0393789 0 0.2 0.2 0.2 1 s_nosymbol
source 1 1.11345 -0.249805 0 0.2 0.2 0.2 1 s_nosymbol source 2 0.34267
0.809826 0 0.2 0.2 0.2 1 s_nosymbol group 0 3 0 1 2 0 0.2 0.2 0.2 1
s_nosymbol slot 176 source 0 -0.557019 -0.0605212 0 0.2 0.2 0.2 1 s_nosymbol
source 1 1.53303 -0.349705 0 0.2 0.2 0.2 1 s_nosymbol source 2 0.76225
0.709926 0 0.2 0.2 0.2 1 s_nosymbol group 0 3 0 1 2 0 0.2 0.2 0.2 1
s_nosymbol slot 177 source 0 -0.257318 0.0393789 0 0.2 0.2 0.2 1 s_nosymbol
source 1 1.83273 -0.249805 0 0.2 0.2 0.2 1 s_nosymbol source 2 1.06195
0.809826 0 0.2 0.2 0.2 1 s_nosymbol group 0 3 0 1 2 0 0.2 0.2 0.2 1
s_nosymbol slot 178 source 0 -0.0974781 0.219199 0 0.2 0.2 0.2 1 s_nosymbol
source 1 1.99257 -0.0699843 0 0.2 0.2 0.2 1 s_nosymbol source 2 1.22179
0.989646 0 0.2 0.2 0.2 1 s_nosymbol group 0 3 0 1 2 0 0.2 0.2 0.2 1
s_nosymbol slot 179 source 0 -0.037538 0.418999 0 0.2 0.2 0.2 1 s_nosymbol
source 1 2.05251 0.129816 0 0.2 0.2 0.2 1 s_nosymbol source 2 1.28173
1.18945 0 0.2 0.2 0.2 1 s_nosymbol group 0 3 0 1 2 0 0.2 0.2 0.2 1
s_nosymbol slot 180 source 0 -0.037538 0.85856 0 0.2 0.2 0.2 1 s_nosymbol
source 1 2.05251 0.569376 0 0.2 0.2 0.2 1 s_nosymbol source 2 1.28173
1.62901 0 0.2 0.2 0.2 1 s_nosymbol group 0 3 0 1 2 0 0.2 0.2 0.2 1
s_nosymbol slot 181 source 0 -0.0974781 1.19822 0 0.2 0.2 0.2 1 s_nosymbol
source 1 1.99257 0.909037 0 0.2 0.2 0.2 1 s_nosymbol source 2 1.22179
1.96867 0 0.2 0.2 0.2 1 s_nosymbol group 0 3 0 1 2 0 0.2 0.2 0.2 1
s_nosymbol slot 182 source 0 -0.417159 1.49792 0 0.2 0.2 0.2 1 s_nosymbol
source 1 1.67289 1.20874 0 0.2 0.2 0.2 1 s_nosymbol source 2 0.902111
2.26837 0 0.2 0.2 0.2 1 s_nosymbol group 0 3 0 1 2 0 0.2 0.2 0.2 1
s_nosymbol slot 183 source 0 -0.696879 1.63778 0 0.2 0.2 0.2 1 s_nosymbol
source 1 1.39317 1.3486 0 0.2 0.2 0.2 1 s_nosymbol source 2 0.62239
2.40823 0 0.2 0.2 0.2 1 s_nosymbol group 0 3 0 1 2 0 0.2 0.2 0.2 1
s_nosymbol slot 184 source 0 -1.11646 1.7177 0 0.2 0.2 0.2 1 s_nosymbol
source 1 0.973589 1.42852 0 0.2 0.2 0.2 1 s_nosymbol source 2 0.20281
2.48815 0 0.2 0.2 0.2 1 s_nosymbol group 0 3 0 1 2 0 0.2 0.2 0.2 1
s_nosymbol slot 185 source 0 -1.4761 1.73768 0 0.2 0.2 0.2 1 s_nosymbol
source 1 0.613949 1.4485 0 0.2 0.2 0.2 1 s_nosymbol source 2 -0.15683
2.50813 0 0.2 0.2 0.2 1 s_nosymbol group 0 3 0 1 2 0 0.2 0.2 0.2 1
s_nosymbol slot 186 source 0 -1.93564 1.59782 0 0.2 0.2 0.2 1 s_nosymbol
source 1 0.154408 1.30864 0 0.2 0.2 0.2 1 s_nosymbol source 2 -0.616371
2.36827 0 0.2 0.2 0.2 1 s_nosymbol group 0 3 0 1 2 0 0.2 0.2 0.2 1
s_nosymbol slot 187 source 0 -2.33524 1.29812 0 0.2 0.2 0.2 1 s_nosymbol
source 1 -0.245192 1.00894 0 0.2 0.2 0.2 1 s_nosymbol source 2 -1.01597
2.06857 0 0.2 0.2 0.2 1 s_nosymbol group 0 3 0 1 2 0 0.2 0.2 0.2 1
s_nosymbol slot 188 source 0 -2.59498 0.93848 0 0.2 0.2 0.2 1 s_nosymbol
source 1 -0.504932 0.649296 0 0.2 0.2 0.2 1 s_nosymbol source 2 -1.27571
1.70893 0 0.2 0.2 0.2 1 s_nosymbol group 0 3 0 1 2 0 0.2 0.2 0.2 1
s_nosymbol slot 189 source 0 -2.7748 0.279139 0 0.2 0.2 0.2 1 s_nosymbol
source 1 -0.684752 -0.0100443 0 0.2 0.2 0.2 1 s_nosymbol source 2 -1.45553
1.04959 0 0.2 0.2 0.2 1 s_nosymbol group 0 3 0 1 2 0 0.2 0.2 0.2 1
s_nosymbol slot 190 source 0 -2.7748 -0.460122 0 0.2 0.2 0.2 1 s_nosymbol
source 1 -0.684752 -0.749305 0 0.2 0.2 0.2 1 s_nosymbol source 2 -1.45553
0.310326 0 0.2 0.2 0.2 1 s_nosymbol group 0 3 0 1 2 0 0.2 0.2 0.2 1
s_nosymbol slot 191 source 0 -1.9756 -1.31926 0 0.2 0.2 0.2 1 s_nosymbol
source 1 0.114448 -1.60845 0 0.2 0.2 0.2 1 s_nosymbol source 2 -0.656331
-0.548815 0 0.2 0.2 0.2 1 s_nosymbol group 0 3 0 1 2 0 0.2 0.2 0.2
1 s_nosymbol slot 192 source 0 -0.776799 -1.73884 0 0.2 0.2 0.2 1 s_nosymbol
source 1 1.31325 -2.02803 0 0.2 0.2 0.2 1 s_nosymbol source 2 0.54247
-0.968396 0 0.2 0.2 0.2 1 s_nosymbol group 0 3 0 1 2 0 0.2 0.2 0.2
1 s_nosymbol slot 193 source 0 -0.257318 -1.89868 0 0.2 0.2 0.2 1 s_nosymbol
source 1 1.83273 -2.18787 0 0.2 0.2 0.2 1 s_nosymbol source 2 1.06195
-1.12824 0 0.2 0.2 0.2 1 s_nosymbol group 0 3 0 1 2 0 0.2 0.2 0.2 1
s_nosymbol slot 194 source 0 -0.257318 -1.89868 0 0.2 0.2 0.2 1 s_nosymbol
source 1 1.83273 -2.18787 0 0.2 0.2 0.2 1 s_nosymbol source 2 1.06195
-1.12824 0 0.2 0.2 0.2 1 s_nosymbol group 0 3 0 1 2 0 0.2 0.2 0.2 1
s_nosymbol slot 195 source 0 -0.257318 -1.89868 0 0.2 0.2 0.2 1 s_nosymbol
source 1 1.83273 -2.18787 0 0.2 0.2 0.2 1 s_nosymbol source 2 1.06195
-1.12824 0 0.2 0.2 0.2 1 s_nosymbol group 0 3 0 1 2 0 0.2 0.2 0.2 1
s_nosymbol slot 196 source 0 -0.257318 -1.89868 0 0.2 0.2 0.2 1 s_nosymbol
source 1 1.83273 -2.18787 0 0.2 0.2 0.2 1 s_nosymbol source 2 1.06195
-1.12824 0 0.2 0.2 0.2 1 s_nosymbol group 0 3 0 1 2 0 0.2 0.2 0.2 1
s_nosymbol slot 197 source 0 -0.257318 -1.89868 0 0.2 0.2 0.2 1 s_nosymbol
source 1 1.83273 -2.18787 0 0.2 0.2 0.2 1 s_nosymbol source 2 1.06195
-1.12824 0 0.2 0.2 0.2 1 s_nosymbol group 0 3 0 1 2 0 0.2 0.2 0.2 1
s_nosymbol ];
#X obj 354 476 hoa.meter~ @patching_rect [ 354 476 284 284 ] @size
[ 284 284 ] @fontname [ helvetica ] @fontweight [ normal ] @fontslant
[ regular ] @fontsize [ 11 ] @vectors [ 1 ] @loudspeakers [ 16 ] @angles
[ 0 22.5 45 67.5 90 112.5 135 157.5 180 202.5 225 247.5 270 292.5 315
337.5 0 0 0 0 0 0 0 0 0 0 0 0 0 0 0 0 0 0 0 0 0 0 0 0 0 0 0 0 0 0 0
0 0 0 0 0 0 0 0 0 0 0 0 0 0 0 0 0 ] @offset [ 0 ] @rotation [ 0 ] @interval
[ 50 ] @bgcolor [ 0.55 0.55 0.55 1 ] @mbgcolor [ 0.4 0.4 0.4 1 ] @bordercolor
[ 0.25 0.25 0.25 1 ] @coldcolor [ 0 0.6 0 0.8 ] @tepidcolor [ 0.6 0.73
0 0.8 ] @warmcolor [ 0.85 0.85 0 0.8 ] @hotcolor [ 1 0.6 0 0.8 ] @overcolor
[ 1 0 0 0.8 ] @energycolor [ 0 0 1 0.8 ] @velocitycolor [ 1 0 0 0.8
];
#X obj 354 379 hoa.delay~ 7 post *****************************;
#X obj 684 440 hoa.decoder~ 7 2 2 @angles [ 30 330 ] *********;
#X obj 684 501 dac~ 1 ************************************** 2;
#X obj 354 442 hoa.decoder~ 7 ambisonics 16 ******************;
#X obj 38 475 hoa.scope~ @patching_rect [ 38 475 286.01 286.01 ] @size
[ 286.01 286.01 ] @fontname [ helvetica ] @fontweight [ normal ] @fontslant
[ regular ] @fontsize [ 11 ] @order [ 7 ] @gain [ 10 ] @interval [
100 ] @drawcircle [ 1 ] @drawangles [ 1 ] @drawcontrib [ 1 ] @bgcolor
[ 0.76 0.76 0.76 1 ] @bdcolor [ 0.7 0.7 0.7 1 ] @txcolor [ 0 0 0 7
] @phcolor [ 1 0 0 1 ] @nhcolor [ 0 0 1 1 ];
#X obj 354 287 hoa.map~ 7 3 **********************************;
#X obj 27 -42 loadbang;
#X obj 729 426 s del;
#X obj 291 354 r del;
#X obj 710 306 nbx 5 14 1 10000 0 0 empty empty empty 0 -8 0 10 -262144
-1 -1 1000 256;
#X msg 710 341 ms \$1;
#X obj 773 291 nbx 5 14 0 1 0 0 empty empty empty 0 -8 0 10 -262144
-1 -1 0 256;
#X msg 773 323 diff \$1;
#X obj 773 229 loadbang;
#X msg 773 257 0;
#X msg 710 268 1000;
#X obj 354 344 hoa.optim~ 7 @mode [ inPhase ] ****************;
#N canvas 595 232 450 300 Sound4 0;
#X obj 111 234 outlet~;
#X obj 111 202 readsf~;
#X obj 111 134 loadbang;
#X msg 111 175 open sound4.wav \, 1;
#X connect 1 0 0 0;
#X connect 1 1 3 0;
#X connect 2 0 3 0;
#X connect 3 0 1 0;
#X restore 354 244 pd Sound4;
#N canvas 595 232 450 300 Sound3 0;
#X obj 111 234 outlet~;
#X obj 111 202 readsf~;
#X obj 111 134 loadbang;
#X msg 111 175 open sound3.wav \, 1;
#X connect 1 0 0 0;
#X connect 1 1 3 0;
#X connect 2 0 3 0;
#X connect 3 0 1 0;
#X restore 493 242 pd Sound3;
#N canvas 595 232 450 300 Sound2 0;
#X obj 111 234 outlet~;
#X obj 111 202 readsf~;
#X obj 111 134 loadbang;
#X msg 111 175 open sound4.wav \, 1;
#X connect 1 0 0 0;
#X connect 1 1 3 0;
#X connect 2 0 3 0;
#X connect 3 0 1 0;
#X restore 633 243 pd Sound2;
#X msg 291 310 mode basic;
#X connect 2 0 9 0;
#X connect 4 0 5 0;
#X connect 4 0 7 0;
#X connect 4 0 8 0;
#X connect 4 1 5 1;
#X connect 4 1 7 1;
#X connect 4 1 8 1;
#X connect 4 2 5 2;
#X connect 4 2 7 2;
#X connect 4 2 8 2;
#X connect 4 3 5 3;
#X connect 4 3 7 3;
#X connect 4 3 8 3;
#X connect 4 4 5 4;
#X connect 4 4 7 4;
#X connect 4 4 8 4;
#X connect 4 5 5 5;
#X connect 4 5 7 5;
#X connect 4 5 8 5;
#X connect 4 6 5 6;
#X connect 4 6 7 6;
#X connect 4 6 8 6;
#X connect 4 7 5 7;
#X connect 4 7 7 7;
#X connect 4 7 8 7;
#X connect 4 8 5 8;
#X connect 4 8 7 8;
#X connect 4 8 8 8;
#X connect 4 9 5 9;
#X connect 4 9 7 9;
#X connect 4 9 8 9;
#X connect 4 10 5 10;
#X connect 4 10 7 10;
#X connect 4 10 8 10;
#X connect 4 11 5 11;
#X connect 4 11 7 11;
#X connect 4 11 8 11;
#X connect 4 12 5 12;
#X connect 4 12 7 12;
#X connect 4 12 8 12;
#X connect 4 13 5 13;
#X connect 4 13 7 13;
#X connect 4 13 8 13;
#X connect 4 14 5 14;
#X connect 4 14 7 14;
#X connect 4 14 8 14;
#X connect 5 0 6 0;
#X connect 5 1 6 2;
#X connect 7 0 3 0;
#X connect 7 1 3 1;
#X connect 7 2 3 2;
#X connect 7 3 3 3;
#X connect 7 4 3 4;
#X connect 7 5 3 5;
#X connect 7 6 3 6;
#X connect 7 7 3 7;
#X connect 7 8 3 8;
#X connect 7 9 3 9;
#X connect 7 10 3 10;
#X connect 7 11 3 11;
#X connect 7 12 3 12;
#X connect 7 13 3 13;
#X connect 7 14 3 14;
#X connect 7 15 3 15;
#X connect 9 0 20 0;
#X connect 9 1 20 1;
#X connect 9 2 20 2;
#X connect 9 3 20 3;
#X connect 9 4 20 4;
#X connect 9 5 20 5;
#X connect 9 6 20 6;
#X connect 9 7 20 7;
#X connect 9 8 20 8;
#X connect 9 9 20 9;
#X connect 9 10 20 10;
#X connect 9 11 20 11;
#X connect 9 12 20 12;
#X connect 9 13 20 13;
#X connect 9 14 20 14;
#X connect 10 0 2 0;
#X connect 12 0 4 0;
#X connect 13 0 14 0;
#X connect 14 0 11 0;
#X connect 15 0 16 0;
#X connect 16 0 11 0;
#X connect 17 0 18 0;
#X connect 17 0 19 0;
#X connect 18 0 15 0;
#X connect 19 0 13 0;
#X connect 20 0 4 0;
#X connect 20 1 4 1;
#X connect 20 2 4 2;
#X connect 20 3 4 3;
#X connect 20 4 4 4;
#X connect 20 5 4 5;
#X connect 20 6 4 6;
#X connect 20 7 4 7;
#X connect 20 8 4 8;
#X connect 20 9 4 9;
#X connect 20 10 4 10;
#X connect 20 11 4 11;
#X connect 20 12 4 12;
#X connect 20 13 4 13;
#X connect 20 14 4 14;
#X connect 21 0 9 0;
#X connect 22 0 9 1;
#X connect 23 0 9 2;
#X connect 24 0 20 0;
