#N canvas 0 22 1440 852 10;
#X msg -58 109 \; pd dsp 1;
#X msg -59 164 \; pd dsp 0;
#X obj 684 469 hoa.decoder~ 7 2 2 @angles [ 30 330 ] *********;
#X obj 684 530 dac~ 1 ************************************** 2;
#X obj 993 362 hoa.recomposer~ 7 16 fisheye ******************;
#X obj 993 316 hoa.space~ 16 ******************************;
#X obj 993 268 hoa.projector~ 7 16 ************************;
#X obj 993 232 hoa.grain~ 7 no ****************************;
#X obj 683 79 hoa.space @patching_rect [ 683 79 286 286 ] @size [ 286
286 ] @fontname [ helvetica ] @fontweight [ normal ] @fontslant [ regular
] @fontsize [ 11 ] @channels [ 16 ] @coeffs [ 1 0 0 0 0.00507478 0
1 0 0 0 1 0 0 0 0 0 0 0 0 0 0 0 0 0 0 0 0 0 0 0 0 0 0 0 0 0 0 0 0 0
0 0 0 0 0 0 0 0 0 0 0 0 0 0 0 0 0 0 0 0 0 0 0 0 0 0 0 0 0 0 0 0 0 0
0 0 0 0 0 0 0 0 0 0 0 0 0 0 0 0 0 0 0 0 0 0 0 0 0 0 0 0 0 0 0 0 0 0
0 0 0 0 0 0 0 0 0 0 0 0 0 0 0 0 0 0 0 0 0 0 0 0 0 0 0 0 0 0 0 0 0 0
0 0 0 0 0 0 0 0 0 0 0 0 0 0 0 0 0 0 0 0 0 0 0 0 0 0 0 0 0 0 0 0 0 0
0 0 0 0 0 0 0 0 0 0 0 0 0 0 0 0 0 0 0 0 0 0 0 0 0 0 0 0 0 0 0 0 0 0
0 0 0 0 0 0 0 0 0 0 0 0 0 0 0 0 0 0 0 0 0 0 0 0 0 0 0 0 0 0 0 0 0 0
0 0 0 0 0 0 ] @bgcolor [ 0.7 0.7 0.7 1 ] @bordercolor [ 0.5 0.5 0.5
1 ] @harmocolor [ 0 0.4 0.6 1 ] @miccolor [ 0 0 0 1 ] @circolor [ 0.7
0.7 0.7 1 ];
#X obj 1091 153 nbx 5 14 -1e+37 1e+37 0 0 empty empty empty 0 -8 0
10 -262144 -1 -1 0 256;
#X obj 1090 78 nbx 5 14 -1e+37 1e+37 0 0 empty empty empty 0 -8 0 10
-262144 -1 -1 0 256;
#X msg 1090 112 size \$1;
#X msg 1091 185 delay \$1;
#X obj 1191 79 nbx 5 14 0 1 0 0 empty empty empty 0 -8 0 10 -262144
-1 -1 0 256;
#X obj 1193 152 nbx 5 14 0 1 0 0 empty empty empty 0 -8 0 10 -262144
-1 -1 0 256;
#X msg 1191 114 feedback \$1;
#X msg 1193 184 rarefaction \$1;
#X msg 1193 207 set grain_env;
#X obj 993 504 hoa.scope~ @patching_rect [ 993 504 286.01 286.01 ]
@size [ 286.01 286.01 ] @fontname [ helvetica ] @fontweight [ normal
] @fontslant [ regular ] @fontsize [ 11 ] @order [ 7 ] @gain [ 10 ]
@interval [ 100 ] @drawcircle [ 1 ] @drawangles [ 1 ] @drawcontrib
[ 1 ] @bgcolor [ 0.76 0.76 0.76 1 ] @bdcolor [ 0.7 0.7 0.7 1 ] @txcolor
[ 0 0 0 7 ] @phcolor [ 1 0 0 1 ] @nhcolor [ 0 0 1 1 ];
#X obj 1272 318 nbx 5 14 0 1 0 0 empty empty empty 0 -8 0 10 -262144
-1 -1 0 256;
#N canvas 1101 147 450 300 Sound1 0;
#X obj 111 264 outlet~;
#X obj 111 202 readsf~;
#X obj 111 134 loadbang;
#X msg 111 175 open sound1.wav \, 1;
#X obj 112 241 *~ 1.3;
#X connect 1 0 4 0;
#X connect 1 1 3 0;
#X connect 2 0 3 0;
#X connect 3 0 1 0;
#X connect 4 0 0 0;
#X restore 993 177 pd Sound1;
#X connect 2 0 3 0;
#X connect 2 1 3 2;
#X connect 4 0 2 0;
#X connect 4 0 18 0;
#X connect 4 1 2 1;
#X connect 4 1 18 1;
#X connect 4 2 2 2;
#X connect 4 2 18 2;
#X connect 4 3 2 3;
#X connect 4 3 18 3;
#X connect 4 4 2 4;
#X connect 4 4 18 4;
#X connect 4 5 2 5;
#X connect 4 5 18 5;
#X connect 4 6 2 6;
#X connect 4 6 18 6;
#X connect 4 7 2 7;
#X connect 4 7 18 7;
#X connect 4 8 2 8;
#X connect 4 8 18 8;
#X connect 4 9 2 9;
#X connect 4 9 18 9;
#X connect 4 10 2 10;
#X connect 4 10 18 10;
#X connect 4 11 2 11;
#X connect 4 11 18 11;
#X connect 4 12 2 12;
#X connect 4 12 18 12;
#X connect 4 13 2 13;
#X connect 4 13 18 13;
#X connect 4 14 2 14;
#X connect 4 14 18 14;
#X connect 5 0 4 0;
#X connect 5 1 4 1;
#X connect 5 2 4 2;
#X connect 5 3 4 3;
#X connect 5 4 4 4;
#X connect 5 5 4 5;
#X connect 5 6 4 6;
#X connect 5 7 4 7;
#X connect 5 8 4 8;
#X connect 5 9 4 9;
#X connect 5 10 4 10;
#X connect 5 11 4 11;
#X connect 5 12 4 12;
#X connect 5 13 4 13;
#X connect 5 14 4 14;
#X connect 5 15 4 15;
#X connect 6 0 5 0;
#X connect 6 1 5 1;
#X connect 6 2 5 2;
#X connect 6 3 5 3;
#X connect 6 4 5 4;
#X connect 6 5 5 5;
#X connect 6 6 5 6;
#X connect 6 7 5 7;
#X connect 6 8 5 8;
#X connect 6 9 5 9;
#X connect 6 10 5 10;
#X connect 6 11 5 11;
#X connect 6 12 5 12;
#X connect 6 13 5 13;
#X connect 6 14 5 14;
#X connect 6 15 5 15;
#X connect 7 0 6 0;
#X connect 7 1 6 1;
#X connect 7 2 6 2;
#X connect 7 3 6 3;
#X connect 7 4 6 4;
#X connect 7 5 6 5;
#X connect 7 6 6 6;
#X connect 7 7 6 7;
#X connect 7 8 6 8;
#X connect 7 9 6 9;
#X connect 7 10 6 10;
#X connect 7 11 6 11;
#X connect 7 12 6 12;
#X connect 7 13 6 13;
#X connect 7 14 6 14;
#X connect 8 0 5 0;
#X connect 9 0 12 0;
#X connect 10 0 11 0;
#X connect 11 0 7 0;
#X connect 12 0 7 0;
#X connect 13 0 15 0;
#X connect 14 0 16 0;
#X connect 15 0 7 0;
#X connect 16 0 7 0;
#X connect 17 0 7 0;
#X connect 19 0 4 16;
#X connect 20 0 7 0;
