#N canvas 522 236 686 480 10;
#X obj 268 161 hoa.scope~ @patching_rect [ 268 161 181 181 ] @size
[ 181 181 ] @fontname [ helvetica ] @fontweight [ normal ] @fontslant
[ regular ] @fontsize [ 11 ] @order [ 3 ] @gain [ 1 ] @interval [ 100
] @drawcircle [ 1 ] @drawangles [ 1 ] @drawcontrib [ 1 ] @bgcolor [
0.76 0.76 0.76 1 ] @bdcolor [ 0.7 0.7 0.7 1 ] @txcolor [ 0 0 0 7 ]
@phcolor [ 1 0 0 1 ] @nhcolor [ 0 0 1 1 ];
#X obj 38 243 dac~ 1 16;
#X msg 288 40 \; pd dsp 1;
#X msg 290 95 \; pd dsp 0;
#X obj 166 33 hoa.pi 2;
#X obj 181 55 phasor~ 0.2;
#X obj 166 77 *~;
#X obj -11 108 hoa.encoder~ 3 ***************;
#X obj -11 54 noise~;
#X obj 166 10 loadbang;
#X obj -11 83 *~ 0.01;
#X obj -10 146 hoa.decoder~ 3 1 small ----------;
#X connect 4 0 6 0;
#X connect 5 0 6 1;
#X connect 6 0 7 1;
#X connect 7 0 11 0;
#X connect 7 1 11 1;
#X connect 7 2 11 2;
#X connect 7 3 11 3;
#X connect 7 4 11 4;
#X connect 7 5 11 5;
#X connect 8 0 10 0;
#X connect 9 0 4 0;
#X connect 10 0 7 0;
#X connect 11 0 1 0;
#X connect 11 1 1 1;
