#N canvas 123 164 456 343 10;
#X obj 89 47 hoa.in extra 1;
#X obj 227 58 hoa.thisprocess~;
#X obj 231 34 c.loadmess;
#X obj 261 197 spigot 0;
#X msg 290 151 1;
#X msg 210 151 1;
#X obj 89 197 spigot 0;
#X obj 258 83 unpack s s;
#X obj 258 103 sel 2d 3d;
#X obj 89 278 hoa.out extra 1;
#X obj 261 241 c.prepend list harmonic \$1 \$1;
#X obj 89 241 c.prepend list harmonic \$1;
#X connect 0 0 3 0;
#X connect 0 0 6 0;
#X connect 1 1 7 0;
#X connect 2 0 1 0;
#X connect 3 0 10 0;
#X connect 4 0 3 1;
#X connect 5 0 6 1;
#X connect 6 0 11 0;
#X connect 7 0 8 0;
#X connect 8 0 5 0;
#X connect 8 1 4 0;
#X connect 10 0 9 0;
#X connect 11 0 9 0;
