#N canvas 514 294 839 493 10;
#X obj 228 -370 *~ 2;
#X obj 228 -302 clip~ 0 1;
#X obj 319 -247 sig~ 1;
#X obj 227 -331 -~ 1;
#X obj 298 -302 clip~ 0 1;
#X obj 364 -275 *~ -1;
#X obj 325 -211 +~;
#X obj 227 -443 inlet;
#X obj 287 -443 inlet;
#X obj 350 -77 outlet~;
#X obj 226 -409 phasor~;
#X obj 388 -169 *~ 1;
#X obj 436 -281 -;
#X obj 452 -329 t b f;
#X obj 345 -142 +~ 0;
#X obj 466 -416 loadbang;
#X obj 342 -433 c.canvasargs 0 @lo 0 @hi 1;
#X obj 465 -385 route lo hi;
#X obj 388 -370 unpack s f;
#X connect 0 0 3 0;
#X connect 0 0 4 0;
#X connect 1 0 11 0;
#X connect 2 0 6 0;
#X connect 3 0 1 0;
#X connect 4 0 5 0;
#X connect 5 0 6 1;
#X connect 6 0 11 0;
#X connect 7 0 10 0;
#X connect 7 0 17 0;
#X connect 8 0 10 1;
#X connect 10 0 0 0;
#X connect 11 0 14 0;
#X connect 12 0 11 1;
#X connect 13 0 12 0;
#X connect 13 1 12 1;
#X connect 14 0 9 0;
#X connect 15 0 16 0;
#X connect 16 0 18 0;
#X connect 16 1 17 0;
#X connect 17 0 13 0;
#X connect 17 0 14 1;
#X connect 17 1 12 0;
#X connect 18 1 10 0;
