#N canvas 491 58 682 309 10;
#X obj 93 41 inlet~;
#X obj 113 41 inlet~;
#X obj 133 41 inlet~;
#X obj 154 41 inlet~;
#X obj 174 41 inlet~;
#X obj 194 41 inlet~;
#X obj 215 41 inlet~;
#X obj 93 227 outlet~;
#X obj 378 224 outlet~;
#X obj -22 78 c.prepend set;
#X obj -22 15 c.patcherargs 256 @pinna small;
#X obj 93 126 hoa.2d.decoder~ 7 binaural @pinna small --------;
#X obj 235 41 inlet~;
#X obj 255 41 inlet~;
#X obj 275 41 inlet~;
#X obj 296 41 inlet~;
#X obj 316 41 inlet~;
#X obj 336 41 inlet~;
#X obj 357 41 inlet~;
#X obj 378 41 inlet~;
#X obj 456 65 inlet;
#X obj -22 128 block~ 256 1 1;
#X obj 456 93 c.prepend pinna;
#X connect 0 0 11 0;
#X connect 1 0 11 1;
#X connect 2 0 11 2;
#X connect 3 0 11 3;
#X connect 4 0 11 4;
#X connect 5 0 11 5;
#X connect 6 0 11 6;
#X connect 9 0 21 0;
#X connect 10 0 9 0;
#X connect 10 1 11 0;
#X connect 11 0 7 0;
#X connect 11 1 8 0;
#X connect 12 0 11 7;
#X connect 13 0 11 8;
#X connect 14 0 11 9;
#X connect 15 0 11 10;
#X connect 16 0 11 11;
#X connect 17 0 11 12;
#X connect 18 0 11 13;
#X connect 19 0 11 14;
#X connect 20 0 22 0;
#X connect 22 0 11 0;
