#N canvas 558 169 450 300 10;
#X obj 85 62 unpack s s;
#X obj 185 90 sel harmonics planewaves;
#X obj 85 90 sel 2d 3d, f 14;
#X obj 125 142 f 1;
#X obj 85 178 +;
#X obj 85 21 inlet;
#X obj 85 248 outlet;
#X text 217 182 Harmonics 2d : mode 0;
#X text 217 202 Harmonics 3d : mode 1;
#X obj 185 142 f 0;
#X obj 255 142 f 2;
#X obj 85 142 f 0;
#X text 217 222 Planewaves 2d : mode 2;
#X text 217 243 Planewaves 3d : mode 3;
#X connect 0 0 2 0;
#X connect 0 1 1 0;
#X connect 1 0 9 0;
#X connect 1 1 10 0;
#X connect 2 0 11 0;
#X connect 2 1 3 0;
#X connect 3 0 4 0;
#X connect 4 0 6 0;
#X connect 5 0 0 0;
#X connect 9 0 4 1;
#X connect 10 0 4 1;
#X connect 11 0 4 0;
