#N canvas 778 213 674 318 10;
#X obj 378 90 inlet;
#X obj 79 90 inlet;
#X text 442 9 Right inlet the process mode;
#X text 80 9 Left inlet the instance arguments;
#X text 443 37 Harmonics 2d : mode 0;
#X text 443 57 Harmonics 3d : mode 1;
#X text 443 77 Planewaves 2d : mode 2;
#X text 443 98 Planewaves 3d : mode 3;
#N canvas 548 249 450 300 pw2d_map 0;
#X obj -32 37 spigot 0;
#X obj 13 -7 inlet;
#X obj -32 13 inlet;
#X obj 25 130 outlet;
#X obj 25 99 - 1;
#X text 82 80 Planewaves 2d or 3d;
#X text 82 100 Decrement the index;
#X text 82 110 by 1;
#X obj 13 13 == 2;
#X obj -32 75 unpack 0 0;
#X obj -32 130 outlet;
#X connect 0 0 9 0;
#X connect 1 0 8 0;
#X connect 2 0 0 0;
#X connect 4 0 3 0;
#X connect 8 0 0 1;
#X connect 9 0 10 0;
#X connect 9 1 4 0;
#X restore 79 193 pd pw2d_map;
#N canvas 1 22 450 300 pw3d_map 0;
#X obj -32 37 spigot 0;
#X obj 13 -7 inlet;
#X obj -32 13 inlet;
#X obj 25 130 outlet;
#X obj 25 99 - 1;
#X text 82 80 Planewaves 2d or 3d;
#X text 82 100 Decrement the index;
#X text 82 110 by 1;
#X obj -32 75 unpack 0 0;
#X obj -32 130 outlet;
#X obj 13 13 == 3;
#X connect 0 0 8 0;
#X connect 1 0 10 0;
#X connect 2 0 0 0;
#X connect 4 0 3 0;
#X connect 8 0 9 0;
#X connect 8 1 4 0;
#X connect 10 0 0 1;
#X restore 155 193 pd pw3d_map;
#N canvas 283 113 450 300 ha2d_map 0;
#X obj 65 67 spigot 0;
#X obj 110 23 inlet;
#X obj 65 23 inlet;
#X obj 110 43 == 0;
#X obj 122 232 outlet;
#X text 198 102 need to be interleaved;
#X obj 65 96 unpack 0 0;
#X text 199 73 Harmonics 2d;
#X obj 149 150 < 0;
#X obj 122 150 * 2;
#X obj 122 171 abs;
#X obj 122 192 - 0;
#X obj 122 122 t f f;
#X text 198 112 depending on their sign.;
#X text 198 132 0 \, -1 \, 1 \, -2 \, 2;
#X text 198 142 become;
#X text 198 152 0 \, 1 \, 2 \, 3 \, 4;
#X text 198 92 The index need;
#X text 198 172 if index < 0;
#X text 208 182 index = 2 * abs(index) - 1;
#X text 198 192 else;
#X text 208 202 index = 2 * abs(index);
#X obj 65 232 outlet;
#X obj 65 150 * 2;
#X obj 65 170 + 1;
#X connect 0 0 6 0;
#X connect 1 0 3 0;
#X connect 2 0 0 0;
#X connect 3 0 0 1;
#X connect 6 0 23 0;
#X connect 6 1 12 0;
#X connect 8 0 11 1;
#X connect 9 0 10 0;
#X connect 10 0 11 0;
#X connect 11 0 4 0;
#X connect 12 0 9 0;
#X connect 12 1 8 0;
#X connect 23 0 24 0;
#X connect 24 0 22 0;
#X restore 235 193 pd ha2d_map;
#X text 28 22 Arguments are mapped from 0 to max following the Hoa
inlet and outlet organization.;
#N canvas 0 22 485 297 ha3d_map 0;
#X obj 65 67 spigot 0;
#X obj 110 23 inlet;
#X obj 65 23 inlet;
#X obj 99 212 outlet;
#X text 248 102 need to be interleaved;
#X text 249 73 Harmonics 2d;
#X text 248 92 The arguments need;
#X text 248 112 depending on their sign.;
#X text 248 142 become;
#X obj 65 96 unpack 0 0 0;
#X text 248 132 0 0 \, 1 0 \, 1 -1 \, 1 1 \, 2 0 \, 2 -1...;
#X text 248 152 0 \, 1 \, 2 \, 3 \, 4 \, 5 \, 6...;
#N canvas 283 113 450 300 ha2d_map 0;
#X obj 122 73 inlet;
#X obj 122 232 outlet;
#X obj 149 150 < 0;
#X obj 122 150 * 2;
#X obj 122 171 abs;
#X obj 122 192 - 0;
#X obj 122 122 t f f;
#X text 198 102 need to be interleaved;
#X text 199 73 Harmonics 2d;
#X text 198 112 depending on their sign.;
#X text 198 132 0 \, -1 \, 1 \, -2 \, 2;
#X text 198 142 become;
#X text 198 152 0 \, 1 \, 2 \, 3 \, 4;
#X text 198 92 The index need;
#X text 198 172 if index < 0;
#X text 208 182 index = 2 * abs(index) - 1;
#X text 198 192 else;
#X text 208 202 index = 2 * abs(index);
#X connect 0 0 6 0;
#X connect 2 0 5 1;
#X connect 3 0 4 0;
#X connect 4 0 5 0;
#X connect 5 0 1 0;
#X connect 6 0 3 0;
#X connect 6 1 2 0;
#X restore 134 122 pd ha2d_map;
#X obj 99 189 +;
#X text 248 172 index is mapped like in 2d;
#X text 248 182 index is increment by (band - 1)^2;
#X obj 99 164 *;
#X obj 99 142 t f f;
#X obj 65 141 + 1;
#X obj 65 184 *;
#X obj 65 162 t f f;
#X obj 65 212 outlet;
#X obj 110 43 == 1;
#X connect 0 0 9 0;
#X connect 1 0 22 0;
#X connect 2 0 0 0;
#X connect 9 0 18 0;
#X connect 9 1 17 0;
#X connect 9 2 12 0;
#X connect 12 0 13 1;
#X connect 13 0 3 0;
#X connect 16 0 13 0;
#X connect 17 0 16 0;
#X connect 17 1 16 1;
#X connect 18 0 20 0;
#X connect 19 0 21 0;
#X connect 20 0 19 0;
#X connect 20 1 19 1;
#X connect 22 0 0 1;
#X restore 315 193 pd ha3d_map;
#X obj 237 298 outlet;
#X obj 237 268 f 0;
#X obj 139 293 outlet;
#X obj 137 268 t b f;
#X connect 0 0 8 1;
#X connect 0 0 10 1;
#X connect 0 0 12 1;
#X connect 0 0 9 1;
#X connect 1 0 8 0;
#X connect 1 0 10 0;
#X connect 1 0 12 0;
#X connect 1 0 9 0;
#X connect 8 0 16 0;
#X connect 8 1 14 0;
#X connect 9 0 16 0;
#X connect 9 1 14 0;
#X connect 10 0 16 0;
#X connect 10 1 14 0;
#X connect 12 0 16 0;
#X connect 12 1 14 0;
#X connect 14 0 13 0;
#X connect 16 0 14 0;
#X connect 16 1 15 0;
