#N canvas 491 58 682 309 10;
#X obj 93 126 hoa.2d.decoder~ 3 binaural @pinna small --------;
#X obj 93 41 inlet~;
#X obj 140 41 inlet~;
#X obj 188 41 inlet~;
#X obj 235 41 inlet~;
#X obj 283 41 inlet~;
#X obj 330 41 inlet~;
#X obj 378 41 inlet~;
#X obj 93 227 outlet~;
#X obj 378 224 outlet~;
#X obj -22 128 block~ 256 1 1;
#X obj -22 78 c.prepend set;
#X obj -22 15 c.patcherargs 256 @pinna small;
#X obj 444 41 inlet;
#X connect 0 0 8 0;
#X connect 0 1 9 0;
#X connect 1 0 0 0;
#X connect 2 0 0 1;
#X connect 3 0 0 2;
#X connect 4 0 0 3;
#X connect 5 0 0 4;
#X connect 6 0 0 5;
#X connect 7 0 0 6;
#X connect 11 0 10 0;
#X connect 12 0 11 0;
#X connect 12 1 0 0;
#X connect 13 0 0 0;
