#N canvas 123 164 456 343 10;
#X obj 25 138 c.prepend set;
#X obj 138 138 c.prepend set;
#X msg 25 165 1 0;
#X obj 286 15 hoa.in extra 1;
#X obj 14 249 c.blackboard @size 295 57 @fontname Helvetica @fontweight
normal @fontslant roman @fontsize 11 @receive (null) @send (null) @chalkmode
1 @bgcolor 0.75 0.75 0.75 1 @bdcolor 0.5 0.5 0.5 1;
#X text 155 116 Hoa mode output;
#X text 30 116 Hoa args output;
#X obj 15 10 c.loadmess;
#X msg 138 165 2d harmonics;
#N canvas 594 70 810 697 hoa_display_mess 0;
#X obj 357 21 inlet;
#N canvas 778 159 450 300 hoa.mode.sel 0;
#X obj 85 62 unpack s s;
#X obj 139 90 sel harmonics planewaves;
#X obj 39 90 sel 2d 3d, f 14;
#X obj 79 142 f 1;
#X obj 39 142 f 0;
#X obj 103 178 +;
#X obj 87 21 inlet;
#X obj 103 248 outlet;
#X text 217 192 Planewaves 2d or 3d : mode 0;
#X text 217 212 Harmonics 2d : mode 1;
#X text 217 232 Harmonics 3d : mode 2;
#X obj 209 142 f 2;
#X obj 139 142 f 0;
#X connect 0 0 2 0;
#X connect 0 1 1 0;
#X connect 1 0 12 0;
#X connect 1 1 11 0;
#X connect 2 0 4 0;
#X connect 2 1 3 0;
#X connect 3 0 5 0;
#X connect 4 0 5 0;
#X connect 5 0 7 0;
#X connect 6 0 0 0;
#X connect 11 0 5 1;
#X connect 12 0 5 1;
#X restore 357 50 pd hoa.mode.sel;
#X obj 391 84 sel 0 1 2;
#X obj -17 20 inlet;
#X obj 293 484 outlet;
#X obj 103 122 spigot 0;
#X msg 442 177 10 10 This patcher is used in the circular harmonics
domain.;
#X msg 443 227 10 10 This patcher is used in the spherical harmonics
domain.;
#X msg 491 297 10 10 This patcher is used in the 2D plane waves domain.
;
#X msg 493 368 10 10 This patcher in the 3D plane waves domain.;
#X obj 148 98 f 1;
#X msg 103 188 10 30 of the harmonic \$2 and the decomposition order
\$1.;
#X msg 344 80 clear;
#X obj 38 166 spigot 0;
#X obj 72 141 f 1;
#X msg 485 125 10 20 The arguments of this patcher instance are the
index;
#X obj -53 176 spigot 0;
#X obj -19 151 f 1;
#X msg 32 228 10 30 of the harmonic \$3 the band of the harmonic \$2
;
#X msg 106 265 10 40 and the decomposition order \$1.;
#X msg -17 299 10 30 of the plane wave channel \$2 and the number of
;
#X msg 106 356 10 40 plane waves channels \$1.;
#X connect 0 0 1 0;
#X connect 1 0 2 0;
#X connect 1 0 12 0;
#X connect 1 0 15 0;
#X connect 2 0 10 0;
#X connect 2 0 6 0;
#X connect 2 1 7 0;
#X connect 2 1 14 0;
#X connect 2 2 8 0;
#X connect 2 2 17 0;
#X connect 2 3 9 0;
#X connect 2 3 17 0;
#X connect 3 0 5 0;
#X connect 3 0 13 0;
#X connect 3 0 16 0;
#X connect 5 0 11 0;
#X connect 6 0 4 0;
#X connect 7 0 4 0;
#X connect 8 0 4 0;
#X connect 9 0 4 0;
#X connect 10 0 5 1;
#X connect 11 0 4 0;
#X connect 13 0 18 0;
#X connect 13 0 19 0;
#X connect 14 0 13 1;
#X connect 15 0 4 0;
#X connect 16 0 21 0;
#X connect 16 0 20 0;
#X connect 17 0 16 1;
#X connect 18 0 4 0;
#X connect 19 0 4 0;
#X connect 20 0 4 0;
#X connect 21 0 4 0;
#X restore 15 194 pd hoa_display_mess;
#X obj 15 225 c.prepend text;
#X obj 15 91 hoa.thisprocess~ ---------------------------------------
;
#X obj 14 42 t b b;
#X msg -1 71 clear;
#X text 94 11 Double click to;
#X text 87 21 show the message !;
#X connect 0 0 2 0;
#X connect 1 0 8 0;
#X connect 7 0 12 0;
#X connect 9 0 10 0;
#X connect 10 0 4 0;
#X connect 11 0 0 0;
#X connect 11 0 9 0;
#X connect 11 1 1 0;
#X connect 11 1 9 1;
#X connect 12 0 11 0;
#X connect 12 1 13 0;
#X connect 13 0 4 0;
