#N canvas 308 229 738 451 10;
#X obj 45 1 cnv 15 354 40 empty \$0-hoa.header hoa.library 3 12 0 18
-212212 -1 0;
#X obj 456 435 s \$0-hoa.header;
#X obj 455 5 inlet;
#X obj 296 78 namecanvas \$0-r;
#X msg 502 58 read hoa.objects.txt;
#X obj 490 386 s \$0-r;
#X msg 456 405 label \$1;
#X obj 422 308 list split 1;
#X obj 456 328 list split 1;
#X obj 3 3 c.blackboard @size 40 37 @fontname Helvetica @fontweight
normal @fontslant roman @fontsize 11 @receive (null) @send (null) @chalkmode
0 @bgcolor 0.802322 0.802322 0.802322 1 @bdcolor 0.802322 0.802322
0.802322 1;
#X msg 25 131 clear \, image 2 1 logo.gif;
#X obj 189 88 metro 10;
#X msg 189 60 1;
#X obj 213 123 + 1;
#X obj 189 123 f 0;
#X obj 188 150 sel 100;
#X msg 188 173 0;
#X obj 490 358 c.prepend text 46 23;
#X obj 502 118 textfile;
#X obj 470 88 until;
#X obj 485 251 f 1;
#X obj 518 250 f 0;
#X obj 422 273 spigot 0;
#X obj 485 197 sel sa;
#X msg 523 88 rewind;
#X obj 455 35 t s b b b s;
#X obj 422 147 list;
#X obj 518 225 bang;
#X obj 422 171 t list symbol;
#X connect 2 0 25 0;
#X connect 4 0 18 0;
#X connect 6 0 1 0;
#X connect 7 1 8 0;
#X connect 7 1 6 0;
#X connect 8 1 17 0;
#X connect 10 0 9 0;
#X connect 11 0 14 0;
#X connect 11 0 10 0;
#X connect 12 0 11 0;
#X connect 13 0 14 1;
#X connect 14 0 13 0;
#X connect 14 0 15 0;
#X connect 15 0 16 0;
#X connect 16 0 11 0;
#X connect 17 0 5 0;
#X connect 18 0 26 0;
#X connect 18 1 19 1;
#X connect 19 0 18 0;
#X connect 20 0 22 1;
#X connect 21 0 22 1;
#X connect 22 0 7 0;
#X connect 23 0 20 0;
#X connect 23 1 27 0;
#X connect 24 0 18 0;
#X connect 25 1 12 0;
#X connect 25 1 19 0;
#X connect 25 2 24 0;
#X connect 25 3 4 0;
#X connect 25 4 23 1;
#X connect 26 0 28 0;
#X connect 27 0 21 0;
#X connect 28 0 22 0;
#X connect 28 1 23 0;
#X coords 0 -1 1 1 400 42 2 0 0;
