#N canvas 352 172 746 467 10;
#X obj 186 325 hoa.in~;
#X obj 186 391 hoa.out~;
#X obj -12 5 c.loadmess;
#X obj 236 112 hoa.in extra 1;
#X obj 201 302 line~;
#X obj 201 238 pack 1 20;
#X obj 186 355 *~;
#N canvas 0 22 450 300 hoa.mode.sel 0;
#X obj 85 62 unpack s s;
#X obj 139 90 sel harmonics planewaves;
#X obj 209 142 f 0;
#X obj 139 142 f 1;
#X obj 39 90 sel 2d 3d, f 14;
#X obj 79 142 f 1;
#X obj 39 142 f 0;
#X obj 103 178 +;
#X obj 87 21 inlet;
#X obj 103 248 outlet;
#X text 217 192 Planewaves 2d or 3d : mode 0;
#X text 217 212 Harmonics 2d : mode 1;
#X text 217 232 Harmonics 3d : mode 2;
#X connect 0 0 4 0;
#X connect 0 1 1 0;
#X connect 1 0 3 0;
#X connect 1 1 2 0;
#X connect 2 0 7 1;
#X connect 3 0 7 1;
#X connect 4 0 6 0;
#X connect 4 1 5 0;
#X connect 5 0 7 0;
#X connect 6 0 7 0;
#X connect 7 0 9 0;
#X connect 8 0 0 0;
#X restore 75 65 pd hoa.mode.sel;
#X text 232 88 Extra 1 retreive the right inlet messages.;
#X text 226 43 Default values;
#X obj 236 156 route float list db ramp;
#X text 239 325 Receive the signal;
#X text 239 393 Output the signal;
#X obj -12 32 hoa.thisprocess~ @ramp 20 @default 1;
#X text 341 291 - ramp set the ramp time in ms.;
#X text 341 261 - db have the same behavior as float or list except
that the variable are convert to rms.;
#X text 341 197 - float set all the instances ampltiudes (except if
the target is used).;
#X obj 201 65 route default ramp;
#X text 293 130 Input messages selector;
#N canvas 578 150 705 502 hoa.arg.map 0;
#X obj 333 90 inlet;
#X obj 80 231 spigot 0;
#X obj 305 230 spigot 0;
#X obj 503 230 spigot 0;
#X obj 80 90 inlet;
#X obj 333 118 sel 0 1 2;
#X obj 125 210 f 1;
#X obj 350 209 f 1;
#X obj 547 209 f 1;
#X obj 305 418 outlet;
#X text 331 32 Planewaves 2d or 3d : mode 0;
#X text 331 42 Harmonics 2d : mode 1;
#X text 331 52 Harmonics 3d : mode 2;
#X text 330 9 Right inlet the process mode;
#X text 80 9 Left inlet the instance arguments;
#X text 81 52 in the incoming list of amplitudes.;
#X text 81 42 the mode to select to right variable;
#X obj 332 277 < 0;
#X obj 305 258 t f f;
#X obj 305 277 * 2;
#X obj 305 298 abs;
#X obj 305 319 - 0;
#X obj 80 118 unpack 0 0 0;
#X obj 574 230 spigot 0;
#X obj 618 209 f 1;
#X obj 530 277 < 0;
#X obj 503 258 t f f;
#X obj 503 277 * 2;
#X obj 503 298 abs;
#X obj 503 319 - 0;
#X obj 503 365 + 0;
#X obj 574 259 * 2;
#X obj 574 287 + 1;
#X text 15 320 channels.;
#X text 15 280 Planewaves mode \,;
#X text 15 290 the arguments are;
#X text 15 300 already sorted;
#X text 15 310 from 0 to number of;
#X text 158 243 the arguments need;
#X text 158 233 Harmonics 2d mode \,;
#X text 359 303 the arguments need;
#X text 359 313 need to be interleaved.;
#X text 359 293 Harmonics 3d mode \,;
#X text 81 32 The arguments are mapped depending on;
#X text 158 263 depending on the;
#X text 158 273 the harmonic argument.;
#X text 158 253 need to be interleaved;
#X text 358 323 depending on the;
#X text 358 344 and the harmonic band.;
#X text 358 333 the harmonic argument;
#X connect 0 0 5 0;
#X connect 1 0 9 0;
#X connect 2 0 18 0;
#X connect 3 0 26 0;
#X connect 4 0 22 0;
#X connect 5 0 6 0;
#X connect 5 1 7 0;
#X connect 5 2 8 0;
#X connect 5 2 24 0;
#X connect 6 0 1 1;
#X connect 7 0 2 1;
#X connect 8 0 3 1;
#X connect 17 0 21 1;
#X connect 18 0 19 0;
#X connect 18 1 17 0;
#X connect 19 0 20 0;
#X connect 20 0 21 0;
#X connect 21 0 9 0;
#X connect 22 0 17 1;
#X connect 22 0 23 0;
#X connect 22 1 1 0;
#X connect 22 1 2 0;
#X connect 22 1 25 1;
#X connect 22 2 3 0;
#X connect 23 0 31 0;
#X connect 24 0 23 1;
#X connect 25 0 29 1;
#X connect 26 0 27 0;
#X connect 26 1 25 0;
#X connect 27 0 28 0;
#X connect 28 0 29 0;
#X connect 29 0 30 0;
#X connect 30 0 9 0;
#X connect 31 0 32 0;
#X connect 32 0 30 1;
#X restore -12 101 pd hoa.arg.map;
#X text -6 157 In the subcanvas \, the mode;
#X text -6 177 are used to split the list;
#X text -6 187 at the right index.;
#X text -6 167 anf the arguments;
#X text 341 229 - list is plit and only the right variable set the
amplitude of this instance (look at the subcanvas).;
#N canvas 0 22 626 405 hoa.route.mess- 0;
#X obj 231 80 list split;
#X obj 259 104 unpack;
#X obj 332 134 dbtorms;
#X obj 395 134 list split;
#X obj 423 158 unpack;
#X obj 131 28 inlet;
#X obj 131 234 outlet;
#X obj 231 28 inlet;
#X text 103 4 float is direct;
#X text 213 4 list is split;
#X text 343 4 db is routed;
#X obj 332 28 inlet;
#X text 392 43 db float is direct;
#X text 395 72 db list is split;
#X obj 332 103 route float list;
#X obj 61 28 inlet;
#X connect 0 1 1 0;
#X connect 1 0 6 0;
#X connect 2 0 6 0;
#X connect 3 1 4 0;
#X connect 4 0 6 0;
#X connect 5 0 6 0;
#X connect 7 0 0 0;
#X connect 11 0 14 0;
#X connect 14 0 2 0;
#X connect 14 1 3 0;
#X connect 15 0 0 1;
#X connect 15 0 3 1;
#X restore 201 178 pd hoa.route.mess-;
#X connect 0 0 6 0;
#X connect 2 0 13 0;
#X connect 3 0 10 0;
#X connect 4 0 6 1;
#X connect 5 0 4 0;
#X connect 6 0 1 0;
#X connect 7 0 19 1;
#X connect 10 0 25 1;
#X connect 10 1 25 2;
#X connect 10 2 25 3;
#X connect 10 3 5 1;
#X connect 13 0 19 0;
#X connect 13 1 7 0;
#X connect 13 3 17 0;
#X connect 17 0 4 0;
#X connect 17 0 5 0;
#X connect 17 1 5 1;
#X connect 19 0 25 0;
#X connect 25 0 5 0;
