{
	"patcher" : 	{
		"fileversion" : 1,
		"appversion" : 		{
			"major" : 6,
			"minor" : 0,
			"revision" : 4
		}
,
		"rect" : [ 31.0, 55.0, 449.0, 339.0 ],
		"bgcolor" : [ 1.0, 1.0, 1.0, 1.0 ],
		"bglocked" : 0,
		"openinpresentation" : 0,
		"default_fontsize" : 10.0,
		"default_fontface" : 0,
		"default_fontname" : "Arial",
		"gridonopen" : 0,
		"gridsize" : [ 15.0, 15.0 ],
		"gridsnaponopen" : 0,
		"statusbarvisible" : 2,
		"toolbarvisible" : 1,
		"boxanimatetime" : 200,
		"imprint" : 1,
		"enablehscroll" : 1,
		"enablevscroll" : 1,
		"devicewidth" : 0.0,
		"description" : "",
		"digest" : "",
		"tags" : "",
		"boxes" : [ 			{
				"box" : 				{
					"background" : 0,
					"bgcolor" : [ 1.0, 1.0, 1.0, 1.0 ],
					"bordercolor" : [ 0.5, 0.5, 0.5, 1.0 ],
					"checkedcolor" : [ 0.0, 0.0, 0.0, 1.0 ],
					"hidden" : 0,
					"id" : "obj-1",
					"ignoreclick" : 0,
					"maxclass" : "toggle",
					"numinlets" : 1,
					"numoutlets" : 1,
					"outlettype" : [ "int" ],
					"parameter_enable" : 0,
					"patching_rect" : [ 11.0, 15.0, 20.0, 20.0 ],
					"presentation" : 0,
					"presentation_rect" : [ 0.0, 0.0, 0.0, 0.0 ]
				}

			}
, 			{
				"box" : 				{
					"background" : 0,
					"bgcolor" : [ 1.0, 1.0, 1.0, 1.0 ],
					"color" : [ 0.8, 0.84, 0.71, 1.0 ],
					"fontface" : 0,
					"fontname" : "Arial",
					"fontsize" : 11.595187,
					"hidden" : 0,
					"id" : "obj-2",
					"ignoreclick" : 0,
					"maxclass" : "newobj",
					"numinlets" : 2,
					"numoutlets" : 1,
					"outlettype" : [ "bang" ],
					"patching_rect" : [ 11.0, 41.0, 48.0, 20.0 ],
					"presentation" : 0,
					"presentation_rect" : [ 0.0, 0.0, 0.0, 0.0 ],
					"text" : "metro 2",
					"textcolor" : [ 0.0, 0.0, 0.0, 1.0 ]
				}

			}
, 			{
				"box" : 				{
					"background" : 0,
					"border" : 0.0,
					"bordercolor" : [ 0.0, 0.0, 0.0, 1.0 ],
					"colormode" : "argb",
					"dstrect" : [ 0, 0, 320, 240 ],
					"hidden" : 0,
					"id" : "obj-3",
					"idlemouse" : 0,
					"ignoreclick" : 0,
					"interp" : 0,
					"maxclass" : "jit.pwindow",
					"numinlets" : 1,
					"numoutlets" : 2,
					"onscreen" : 1,
					"outlettype" : [ "", "" ],
					"patching_rect" : [ 10.0, 159.0, 160.0, 120.0 ],
					"pickray" : 0,
					"planemap" : [ 0, 1, 2, 3 ],
					"presentation" : 0,
					"presentation_rect" : [ 0.0, 0.0, 0.0, 0.0 ],
					"srcrect" : [ 0, 0, 320, 240 ],
					"usedstrect" : 0,
					"usesrcrect" : 0
				}

			}
, 			{
				"box" : 				{
					"background" : 0,
					"bgcolor" : [ 0.867, 0.867, 0.867, 1.0 ],
					"bgcolor2" : [ 0.867, 0.867, 0.867, 1.0 ],
					"fontface" : 0,
					"fontname" : "Arial",
					"fontsize" : 11.595187,
					"gradient" : 0,
					"hidden" : 0,
					"id" : "obj-4",
					"ignoreclick" : 0,
					"maxclass" : "message",
					"numinlets" : 2,
					"numoutlets" : 1,
					"outlettype" : [ "" ],
					"patching_rect" : [ 339.0, 44.0, 74.0, 18.0 ],
					"presentation" : 0,
					"presentation_rect" : [ 0.0, 0.0, 0.0, 0.0 ],
					"text" : "deletefxtrack",
					"textcolor" : [ 0.0, 0.0, 0.0, 1.0 ]
				}

			}
, 			{
				"box" : 				{
					"background" : 0,
					"bgcolor" : [ 0.867, 0.867, 0.867, 1.0 ],
					"bgcolor2" : [ 0.867, 0.867, 0.867, 1.0 ],
					"fontface" : 0,
					"fontname" : "Arial",
					"fontsize" : 11.595187,
					"gradient" : 0,
					"hidden" : 0,
					"id" : "obj-5",
					"ignoreclick" : 0,
					"maxclass" : "message",
					"numinlets" : 2,
					"numoutlets" : 1,
					"outlettype" : [ "" ],
					"patching_rect" : [ 177.0, 44.0, 135.0, 18.0 ],
					"presentation" : 0,
					"presentation_rect" : [ 0.0, 0.0, 0.0, 0.0 ],
					"text" : "addfxtrack dialog 0 0 1 2",
					"textcolor" : [ 0.0, 0.0, 0.0, 1.0 ]
				}

			}
, 			{
				"box" : 				{
					"background" : 0,
					"bgcolor" : [ 1.0, 1.0, 1.0, 1.0 ],
					"color" : [ 0.8, 0.84, 0.71, 1.0 ],
					"fontface" : 0,
					"fontname" : "Arial",
					"fontsize" : 11.595187,
					"hidden" : 0,
					"id" : "obj-6",
					"ignoreclick" : 0,
					"maxclass" : "newobj",
					"numinlets" : 1,
					"numoutlets" : 0,
					"patching_rect" : [ 129.0, 125.0, 31.0, 20.0 ],
					"presentation" : 0,
					"presentation_rect" : [ 0.0, 0.0, 0.0, 0.0 ],
					"text" : "print",
					"textcolor" : [ 0.0, 0.0, 0.0, 1.0 ]
				}

			}
, 			{
				"box" : 				{
					"background" : 0,
					"bgcolor" : [ 0.867, 0.867, 0.867, 1.0 ],
					"bgcolor2" : [ 0.867, 0.867, 0.867, 1.0 ],
					"fontface" : 0,
					"fontname" : "Arial",
					"fontsize" : 11.595187,
					"gradient" : 0,
					"hidden" : 0,
					"id" : "obj-7",
					"ignoreclick" : 0,
					"maxclass" : "message",
					"numinlets" : 2,
					"numoutlets" : 1,
					"outlettype" : [ "" ],
					"patching_rect" : [ 342.0, 73.0, 68.0, 18.0 ],
					"presentation" : 0,
					"presentation_rect" : [ 0.0, 0.0, 0.0, 0.0 ],
					"text" : "gettrackinfo",
					"textcolor" : [ 0.0, 0.0, 0.0, 1.0 ]
				}

			}
, 			{
				"box" : 				{
					"background" : 0,
					"bgcolor" : [ 0.867, 0.867, 0.867, 1.0 ],
					"bgcolor2" : [ 0.867, 0.867, 0.867, 1.0 ],
					"fontface" : 0,
					"fontname" : "Arial",
					"fontsize" : 11.595187,
					"gradient" : 0,
					"hidden" : 0,
					"id" : "obj-8",
					"ignoreclick" : 0,
					"maxclass" : "message",
					"numinlets" : 2,
					"numoutlets" : 1,
					"outlettype" : [ "" ],
					"patching_rect" : [ 138.0, 73.0, 173.0, 18.0 ],
					"presentation" : 0,
					"presentation_rect" : [ 0.0, 0.0, 0.0, 0.0 ],
					"text" : "copy track2.mov track 1 track -1",
					"textcolor" : [ 0.0, 0.0, 0.0, 1.0 ]
				}

			}
, 			{
				"box" : 				{
					"background" : 0,
					"bgcolor" : [ 0.867, 0.867, 0.867, 1.0 ],
					"bgcolor2" : [ 0.867, 0.867, 0.867, 1.0 ],
					"fontface" : 0,
					"fontname" : "Arial",
					"fontsize" : 11.595187,
					"gradient" : 0,
					"hidden" : 0,
					"id" : "obj-9",
					"ignoreclick" : 0,
					"maxclass" : "message",
					"numinlets" : 2,
					"numoutlets" : 1,
					"outlettype" : [ "" ],
					"patching_rect" : [ 35.0, 73.0, 92.0, 18.0 ],
					"presentation" : 0,
					"presentation_rect" : [ 0.0, 0.0, 0.0, 0.0 ],
					"text" : "read track1.mov",
					"textcolor" : [ 0.0, 0.0, 0.0, 1.0 ]
				}

			}
, 			{
				"box" : 				{
					"background" : 0,
					"bgcolor" : [ 1.0, 1.0, 1.0, 1.0 ],
					"color" : [ 0.8, 0.84, 0.71, 1.0 ],
					"fontface" : 0,
					"fontname" : "Arial",
					"fontsize" : 11.595187,
					"hidden" : 0,
					"id" : "obj-10",
					"ignoreclick" : 0,
					"maxclass" : "newobj",
					"numinlets" : 1,
					"numoutlets" : 2,
					"outlettype" : [ "jit_matrix", "" ],
					"patching_rect" : [ 11.0, 100.0, 137.0, 20.0 ],
					"presentation" : 0,
					"presentation_rect" : [ 0.0, 0.0, 0.0, 0.0 ],
					"text" : "jit.qt.movie 320 240",
					"textcolor" : [ 0.0, 0.0, 0.0, 1.0 ]
				}

			}
, 			{
				"box" : 				{
					"angle" : 0.0,
					"arrow_orientation" : 0,
					"background" : 1,
					"bgcolor" : [ 0.25098, 0.752941, 0.752941, 1.0 ],
					"border" : 0,
					"bordercolor" : [ 0.0, 0.0, 0.0, 1.0 ],
					"drag_window" : 0,
					"grad1" : [ 0.75, 0.79, 0.93, 1.0 ],
					"grad2" : [ 0.66, 0.66, 0.72, 1.0 ],
					"hidden" : 0,
					"horizontal_direction" : 0,
					"id" : "obj-11",
					"ignoreclick" : 1,
					"maxclass" : "panel",
					"mode" : 0,
					"numinlets" : 1,
					"numoutlets" : 0,
					"patching_rect" : [ 174.0, 40.0, 251.0, 26.0 ],
					"presentation" : 0,
					"presentation_rect" : [ 0.0, 0.0, 0.0, 0.0 ],
					"rounded" : 0,
					"shadow" : 0,
					"shape" : 0,
					"vertical_direction" : 0
				}

			}
, 			{
				"box" : 				{
					"angle" : 0.0,
					"arrow_orientation" : 0,
					"background" : 1,
					"bgcolor" : [ 0.752941, 0.752941, 0.25098, 1.0 ],
					"border" : 0,
					"bordercolor" : [ 0.0, 0.0, 0.0, 1.0 ],
					"drag_window" : 0,
					"grad1" : [ 0.75, 0.79, 0.93, 1.0 ],
					"grad2" : [ 0.66, 0.66, 0.72, 1.0 ],
					"hidden" : 0,
					"horizontal_direction" : 0,
					"id" : "obj-12",
					"ignoreclick" : 1,
					"maxclass" : "panel",
					"mode" : 0,
					"numinlets" : 1,
					"numoutlets" : 0,
					"patching_rect" : [ 32.0, 69.0, 393.0, 27.0 ],
					"presentation" : 0,
					"presentation_rect" : [ 0.0, 0.0, 0.0, 0.0 ],
					"rounded" : 0,
					"shadow" : 0,
					"shape" : 0,
					"vertical_direction" : 0
				}

			}
 ],
		"lines" : [ 			{
				"patchline" : 				{
					"color" : [ 0.0, 0.0, 0.0, 1.0 ],
					"destination" : [ "obj-2", 0 ],
					"disabled" : 0,
					"hidden" : 0,
					"source" : [ "obj-1", 0 ]
				}

			}
, 			{
				"patchline" : 				{
					"color" : [ 0.0, 0.0, 0.0, 1.0 ],
					"destination" : [ "obj-3", 0 ],
					"disabled" : 0,
					"hidden" : 0,
					"source" : [ "obj-10", 0 ]
				}

			}
, 			{
				"patchline" : 				{
					"color" : [ 0.0, 0.0, 0.0, 1.0 ],
					"destination" : [ "obj-6", 0 ],
					"disabled" : 0,
					"hidden" : 0,
					"source" : [ "obj-10", 1 ]
				}

			}
, 			{
				"patchline" : 				{
					"color" : [ 0.0, 0.0, 0.0, 1.0 ],
					"destination" : [ "obj-10", 0 ],
					"disabled" : 0,
					"hidden" : 0,
					"source" : [ "obj-2", 0 ]
				}

			}
, 			{
				"patchline" : 				{
					"color" : [ 0.0, 0.0, 0.0, 1.0 ],
					"destination" : [ "obj-10", 0 ],
					"disabled" : 0,
					"hidden" : 0,
					"midpoints" : [ 348.5, 63.0, 20.5, 63.0 ],
					"source" : [ "obj-4", 0 ]
				}

			}
, 			{
				"patchline" : 				{
					"color" : [ 0.0, 0.0, 0.0, 1.0 ],
					"destination" : [ "obj-10", 0 ],
					"disabled" : 0,
					"hidden" : 0,
					"midpoints" : [ 186.5, 63.0, 20.5, 63.0 ],
					"source" : [ "obj-5", 0 ]
				}

			}
, 			{
				"patchline" : 				{
					"color" : [ 0.0, 0.0, 0.0, 1.0 ],
					"destination" : [ "obj-10", 0 ],
					"disabled" : 0,
					"hidden" : 0,
					"midpoints" : [ 351.5, 92.0, 20.5, 92.0 ],
					"source" : [ "obj-7", 0 ]
				}

			}
, 			{
				"patchline" : 				{
					"color" : [ 0.0, 0.0, 0.0, 1.0 ],
					"destination" : [ "obj-10", 0 ],
					"disabled" : 0,
					"hidden" : 0,
					"midpoints" : [ 147.5, 92.0, 20.5, 92.0 ],
					"source" : [ "obj-8", 0 ]
				}

			}
, 			{
				"patchline" : 				{
					"color" : [ 0.0, 0.0, 0.0, 1.0 ],
					"destination" : [ "obj-10", 0 ],
					"disabled" : 0,
					"hidden" : 0,
					"midpoints" : [ 44.5, 92.0, 20.5, 92.0 ],
					"source" : [ "obj-9", 0 ]
				}

			}
 ],
		"dependency_cache" : [  ]
	}

}
