{
	"patcher" : 	{
		"rect" : [ 20.0, 74.0, 680.0, 617.0 ],
		"bgcolor" : [ 1.0, 1.0, 1.0, 1.0 ],
		"bglocked" : 1,
		"defrect" : [ 20.0, 74.0, 680.0, 617.0 ],
		"openrect" : [ 0.0, 0.0, 0.0, 0.0 ],
		"openinpresentation" : 0,
		"default_fontsize" : 10.0,
		"default_fontface" : 0,
		"default_fontname" : "Arial",
		"gridonopen" : 0,
		"gridsize" : [ 15.0, 15.0 ],
		"gridsnaponopen" : 0,
		"toolbarvisible" : 1,
		"boxanimatetime" : 200,
		"imprint" : 0,
		"metadata" : [  ],
		"boxes" : [ 			{
				"box" : 				{
					"maxclass" : "comment",
					"text" : "More settings",
					"numoutlets" : 0,
					"fontname" : "Arial",
					"fontsize" : 10.0,
					"id" : "obj-1",
					"numinlets" : 1,
					"patching_rect" : [ 296.0, 229.0, 80.0, 20.0 ]
				}

			}
, 			{
				"box" : 				{
					"maxclass" : "comment",
					"text" : "Settings",
					"numoutlets" : 0,
					"fontname" : "Arial",
					"fontsize" : 10.0,
					"id" : "obj-2",
					"numinlets" : 1,
					"patching_rect" : [ 385.0, 73.0, 52.0, 20.0 ]
				}

			}
, 			{
				"box" : 				{
					"maxclass" : "comment",
					"text" : "z",
					"numoutlets" : 0,
					"fontname" : "Arial",
					"fontsize" : 10.0,
					"id" : "obj-3",
					"numinlets" : 1,
					"patching_rect" : [ 599.0, 98.0, 19.0, 20.0 ]
				}

			}
, 			{
				"box" : 				{
					"maxclass" : "comment",
					"text" : "y",
					"numoutlets" : 0,
					"fontname" : "Arial",
					"fontsize" : 10.0,
					"id" : "obj-4",
					"numinlets" : 1,
					"patching_rect" : [ 558.0, 98.0, 19.0, 20.0 ]
				}

			}
, 			{
				"box" : 				{
					"maxclass" : "comment",
					"text" : "x",
					"numoutlets" : 0,
					"fontname" : "Arial",
					"fontsize" : 10.0,
					"id" : "obj-5",
					"numinlets" : 1,
					"patching_rect" : [ 517.0, 98.0, 19.0, 20.0 ]
				}

			}
, 			{
				"box" : 				{
					"maxclass" : "comment",
					"text" : "z",
					"numoutlets" : 0,
					"fontname" : "Arial",
					"fontsize" : 10.0,
					"id" : "obj-6",
					"numinlets" : 1,
					"patching_rect" : [ 461.0, 98.0, 19.0, 20.0 ]
				}

			}
, 			{
				"box" : 				{
					"maxclass" : "comment",
					"text" : "y",
					"numoutlets" : 0,
					"fontname" : "Arial",
					"fontsize" : 10.0,
					"id" : "obj-7",
					"numinlets" : 1,
					"patching_rect" : [ 424.0, 98.0, 19.0, 20.0 ]
				}

			}
, 			{
				"box" : 				{
					"maxclass" : "comment",
					"text" : "x",
					"numoutlets" : 0,
					"fontname" : "Arial",
					"fontsize" : 10.0,
					"id" : "obj-8",
					"numinlets" : 1,
					"patching_rect" : [ 386.0, 98.0, 19.0, 20.0 ]
				}

			}
, 			{
				"box" : 				{
					"maxclass" : "comment",
					"text" : "z",
					"numoutlets" : 0,
					"fontname" : "Arial",
					"fontsize" : 10.0,
					"id" : "obj-9",
					"numinlets" : 1,
					"patching_rect" : [ 335.0, 98.0, 19.0, 20.0 ]
				}

			}
, 			{
				"box" : 				{
					"maxclass" : "comment",
					"text" : "y",
					"numoutlets" : 0,
					"fontname" : "Arial",
					"fontsize" : 10.0,
					"id" : "obj-10",
					"numinlets" : 1,
					"patching_rect" : [ 298.0, 98.0, 19.0, 20.0 ]
				}

			}
, 			{
				"box" : 				{
					"maxclass" : "comment",
					"text" : "x",
					"numoutlets" : 0,
					"fontname" : "Arial",
					"fontsize" : 10.0,
					"id" : "obj-11",
					"numinlets" : 1,
					"patching_rect" : [ 260.0, 98.0, 19.0, 20.0 ]
				}

			}
, 			{
				"box" : 				{
					"maxclass" : "comment",
					"text" : "scaling",
					"numoutlets" : 0,
					"fontname" : "Arial",
					"fontsize" : 10.0,
					"id" : "obj-12",
					"numinlets" : 1,
					"patching_rect" : [ 197.0, 115.0, 47.0, 20.0 ]
				}

			}
, 			{
				"box" : 				{
					"maxclass" : "comment",
					"text" : "Select basis function",
					"numoutlets" : 0,
					"fontname" : "Arial",
					"fontsize" : 10.0,
					"id" : "obj-13",
					"numinlets" : 1,
					"patching_rect" : [ 66.0, 57.0, 117.0, 20.0 ]
				}

			}
, 			{
				"box" : 				{
					"maxclass" : "umenu",
					"numoutlets" : 3,
					"fontname" : "Arial",
					"outlettype" : [ "int", "", "" ],
					"pattrmode" : 1,
					"fontsize" : 10.0,
					"id" : "obj-14",
					"items" : [ "distance.euclidean", ",", "filter.mitchell", ",", "transfer.saw", ",", "transfer.sine", ",", "noise.cell", ",", "noise.checker", ",", "noise.gradient", ",", "fractal.mono", ",", "fractal.multi" ],
					"numinlets" : 1,
					"patching_rect" : [ 66.0, 73.0, 170.0, 20.0 ],
					"types" : [  ]
				}

			}
, 			{
				"box" : 				{
					"maxclass" : "newobj",
					"text" : "s to_bfg",
					"numoutlets" : 0,
					"fontname" : "Arial",
					"fontsize" : 10.0,
					"id" : "obj-15",
					"numinlets" : 1,
					"patching_rect" : [ 282.0, 496.0, 52.0, 20.0 ]
				}

			}
, 			{
				"box" : 				{
					"maxclass" : "newobj",
					"text" : "r to_bfg",
					"numoutlets" : 1,
					"fontname" : "Arial",
					"outlettype" : [ "" ],
					"fontsize" : 10.0,
					"id" : "obj-16",
					"numinlets" : 0,
					"patching_rect" : [ 92.0, 138.0, 50.0, 20.0 ]
				}

			}
, 			{
				"box" : 				{
					"maxclass" : "flonum",
					"htextcolor" : [ 0.870588, 0.870588, 0.870588, 1.0 ],
					"numoutlets" : 2,
					"fontname" : "Arial",
					"triscale" : 0.9,
					"outlettype" : [ "float", "bang" ],
					"fontsize" : 10.0,
					"id" : "obj-17",
					"bgcolor" : [ 0.866667, 0.866667, 0.866667, 1.0 ],
					"numinlets" : 1,
					"patching_rect" : [ 298.0, 440.0, 36.0, 20.0 ]
				}

			}
, 			{
				"box" : 				{
					"maxclass" : "message",
					"text" : "align $1",
					"numoutlets" : 1,
					"fontname" : "Arial",
					"outlettype" : [ "" ],
					"fontsize" : 10.0,
					"id" : "obj-18",
					"numinlets" : 2,
					"patching_rect" : [ 298.0, 461.0, 51.0, 18.0 ]
				}

			}
, 			{
				"box" : 				{
					"maxclass" : "message",
					"text" : "planecount $1",
					"numoutlets" : 1,
					"fontname" : "Arial",
					"outlettype" : [ "" ],
					"fontsize" : 10.0,
					"id" : "obj-19",
					"numinlets" : 2,
					"patching_rect" : [ 298.0, 416.0, 83.0, 18.0 ]
				}

			}
, 			{
				"box" : 				{
					"maxclass" : "number",
					"htextcolor" : [ 0.870588, 0.870588, 0.870588, 1.0 ],
					"numoutlets" : 2,
					"fontname" : "Arial",
					"triscale" : 0.9,
					"outlettype" : [ "int", "bang" ],
					"fontsize" : 10.0,
					"id" : "obj-20",
					"bgcolor" : [ 0.866667, 0.866667, 0.866667, 1.0 ],
					"numinlets" : 1,
					"patching_rect" : [ 298.0, 395.0, 36.0, 20.0 ]
				}

			}
, 			{
				"box" : 				{
					"maxclass" : "newobj",
					"text" : "prepend precision",
					"numoutlets" : 1,
					"fontname" : "Arial",
					"outlettype" : [ "" ],
					"fontsize" : 10.0,
					"id" : "obj-21",
					"numinlets" : 1,
					"patching_rect" : [ 298.0, 369.0, 103.0, 20.0 ]
				}

			}
, 			{
				"box" : 				{
					"maxclass" : "umenu",
					"numoutlets" : 3,
					"fontname" : "Arial",
					"outlettype" : [ "int", "", "" ],
					"pattrmode" : 1,
					"fontsize" : 10.0,
					"id" : "obj-22",
					"items" : [ "float32", ",", "float64" ],
					"numinlets" : 1,
					"patching_rect" : [ 298.0, 343.0, 100.0, 20.0 ],
					"types" : [  ]
				}

			}
, 			{
				"box" : 				{
					"maxclass" : "message",
					"text" : "dim 128 128 1",
					"numoutlets" : 1,
					"fontname" : "Arial",
					"outlettype" : [ "" ],
					"fontsize" : 10.0,
					"id" : "obj-23",
					"numinlets" : 2,
					"patching_rect" : [ 298.0, 296.0, 84.0, 18.0 ]
				}

			}
, 			{
				"box" : 				{
					"maxclass" : "message",
					"text" : "dim 256 256",
					"numoutlets" : 1,
					"fontname" : "Arial",
					"outlettype" : [ "" ],
					"fontsize" : 10.0,
					"id" : "obj-24",
					"numinlets" : 2,
					"patching_rect" : [ 298.0, 318.0, 74.0, 18.0 ]
				}

			}
, 			{
				"box" : 				{
					"maxclass" : "toggle",
					"numoutlets" : 1,
					"outlettype" : [ "int" ],
					"id" : "obj-25",
					"numinlets" : 1,
					"patching_rect" : [ 298.0, 250.0, 20.0, 20.0 ]
				}

			}
, 			{
				"box" : 				{
					"maxclass" : "message",
					"text" : "autocenter $1",
					"numoutlets" : 1,
					"fontname" : "Arial",
					"outlettype" : [ "" ],
					"fontsize" : 10.0,
					"id" : "obj-26",
					"numinlets" : 2,
					"patching_rect" : [ 298.0, 274.0, 81.0, 18.0 ]
				}

			}
, 			{
				"box" : 				{
					"maxclass" : "flonum",
					"htextcolor" : [ 0.870588, 0.870588, 0.870588, 1.0 ],
					"numoutlets" : 2,
					"fontname" : "Arial",
					"triscale" : 0.9,
					"outlettype" : [ "float", "bang" ],
					"fontsize" : 10.0,
					"id" : "obj-27",
					"bgcolor" : [ 0.866667, 0.866667, 0.866667, 1.0 ],
					"numinlets" : 1,
					"patching_rect" : [ 599.0, 115.0, 36.0, 20.0 ]
				}

			}
, 			{
				"box" : 				{
					"maxclass" : "flonum",
					"htextcolor" : [ 0.870588, 0.870588, 0.870588, 1.0 ],
					"numoutlets" : 2,
					"fontname" : "Arial",
					"triscale" : 0.9,
					"outlettype" : [ "float", "bang" ],
					"fontsize" : 10.0,
					"id" : "obj-28",
					"bgcolor" : [ 0.866667, 0.866667, 0.866667, 1.0 ],
					"numinlets" : 1,
					"patching_rect" : [ 558.0, 115.0, 36.0, 20.0 ]
				}

			}
, 			{
				"box" : 				{
					"maxclass" : "flonum",
					"htextcolor" : [ 0.870588, 0.870588, 0.870588, 1.0 ],
					"numoutlets" : 2,
					"fontname" : "Arial",
					"triscale" : 0.9,
					"outlettype" : [ "float", "bang" ],
					"fontsize" : 10.0,
					"id" : "obj-29",
					"bgcolor" : [ 0.866667, 0.866667, 0.866667, 1.0 ],
					"numinlets" : 1,
					"patching_rect" : [ 517.0, 115.0, 36.0, 20.0 ]
				}

			}
, 			{
				"box" : 				{
					"maxclass" : "newobj",
					"text" : "pak rotation 0. 0. 0.",
					"numoutlets" : 1,
					"fontname" : "Arial",
					"outlettype" : [ "" ],
					"fontsize" : 10.0,
					"id" : "obj-30",
					"numinlets" : 4,
					"patching_rect" : [ 476.0, 138.0, 141.0, 20.0 ]
				}

			}
, 			{
				"box" : 				{
					"maxclass" : "flonum",
					"htextcolor" : [ 0.870588, 0.870588, 0.870588, 1.0 ],
					"numoutlets" : 2,
					"fontname" : "Arial",
					"triscale" : 0.9,
					"outlettype" : [ "float", "bang" ],
					"fontsize" : 10.0,
					"id" : "obj-31",
					"bgcolor" : [ 0.866667, 0.866667, 0.866667, 1.0 ],
					"numinlets" : 1,
					"patching_rect" : [ 461.0, 115.0, 36.0, 20.0 ]
				}

			}
, 			{
				"box" : 				{
					"maxclass" : "flonum",
					"htextcolor" : [ 0.870588, 0.870588, 0.870588, 1.0 ],
					"numoutlets" : 2,
					"fontname" : "Arial",
					"triscale" : 0.9,
					"outlettype" : [ "float", "bang" ],
					"fontsize" : 10.0,
					"id" : "obj-32",
					"bgcolor" : [ 0.866667, 0.866667, 0.866667, 1.0 ],
					"numinlets" : 1,
					"patching_rect" : [ 424.0, 115.0, 36.0, 20.0 ]
				}

			}
, 			{
				"box" : 				{
					"maxclass" : "flonum",
					"htextcolor" : [ 0.870588, 0.870588, 0.870588, 1.0 ],
					"numoutlets" : 2,
					"fontname" : "Arial",
					"triscale" : 0.9,
					"outlettype" : [ "float", "bang" ],
					"fontsize" : 10.0,
					"id" : "obj-33",
					"bgcolor" : [ 0.866667, 0.866667, 0.866667, 1.0 ],
					"numinlets" : 1,
					"patching_rect" : [ 387.0, 115.0, 36.0, 20.0 ]
				}

			}
, 			{
				"box" : 				{
					"maxclass" : "newobj",
					"text" : "pak offset 0. 0. 0.",
					"numoutlets" : 1,
					"fontname" : "Arial",
					"outlettype" : [ "" ],
					"fontsize" : 10.0,
					"id" : "obj-34",
					"numinlets" : 4,
					"patching_rect" : [ 350.0, 138.0, 130.0, 20.0 ]
				}

			}
, 			{
				"box" : 				{
					"maxclass" : "flonum",
					"htextcolor" : [ 0.870588, 0.870588, 0.870588, 1.0 ],
					"numoutlets" : 2,
					"fontname" : "Arial",
					"triscale" : 0.9,
					"outlettype" : [ "float", "bang" ],
					"fontsize" : 10.0,
					"id" : "obj-35",
					"bgcolor" : [ 0.866667, 0.866667, 0.866667, 1.0 ],
					"numinlets" : 1,
					"patching_rect" : [ 335.0, 115.0, 36.0, 20.0 ]
				}

			}
, 			{
				"box" : 				{
					"maxclass" : "flonum",
					"htextcolor" : [ 0.870588, 0.870588, 0.870588, 1.0 ],
					"numoutlets" : 2,
					"fontname" : "Arial",
					"triscale" : 0.9,
					"outlettype" : [ "float", "bang" ],
					"fontsize" : 10.0,
					"id" : "obj-36",
					"bgcolor" : [ 0.866667, 0.866667, 0.866667, 1.0 ],
					"numinlets" : 1,
					"patching_rect" : [ 298.0, 115.0, 36.0, 20.0 ]
				}

			}
, 			{
				"box" : 				{
					"maxclass" : "flonum",
					"htextcolor" : [ 0.870588, 0.870588, 0.870588, 1.0 ],
					"numoutlets" : 2,
					"fontname" : "Arial",
					"triscale" : 0.9,
					"outlettype" : [ "float", "bang" ],
					"fontsize" : 10.0,
					"id" : "obj-37",
					"bgcolor" : [ 0.866667, 0.866667, 0.866667, 1.0 ],
					"numinlets" : 1,
					"patching_rect" : [ 261.0, 115.0, 36.0, 20.0 ]
				}

			}
, 			{
				"box" : 				{
					"maxclass" : "newobj",
					"text" : "pak origin 0. 0. 0.",
					"numoutlets" : 1,
					"fontname" : "Arial",
					"outlettype" : [ "" ],
					"fontsize" : 10.0,
					"id" : "obj-38",
					"numinlets" : 4,
					"patching_rect" : [ 224.0, 138.0, 130.0, 20.0 ]
				}

			}
, 			{
				"box" : 				{
					"maxclass" : "newobj",
					"text" : "jit.normalize",
					"numoutlets" : 2,
					"fontname" : "Arial",
					"outlettype" : [ "jit_matrix", "" ],
					"fontsize" : 10.0,
					"id" : "obj-39",
					"numinlets" : 1,
					"patching_rect" : [ 23.0, 219.0, 72.0, 20.0 ]
				}

			}
, 			{
				"box" : 				{
					"maxclass" : "newobj",
					"text" : "prepend basis",
					"numoutlets" : 1,
					"fontname" : "Arial",
					"outlettype" : [ "" ],
					"fontsize" : 10.0,
					"id" : "obj-40",
					"numinlets" : 1,
					"patching_rect" : [ 66.0, 96.0, 83.0, 20.0 ]
				}

			}
, 			{
				"box" : 				{
					"maxclass" : "newobj",
					"text" : "jit.bfg 1 float32 256 256",
					"numoutlets" : 2,
					"fontname" : "Arial",
					"outlettype" : [ "jit_matrix", "" ],
					"fontsize" : 10.0,
					"id" : "obj-41",
					"color" : [ 1.0, 0.890196, 0.090196, 1.0 ],
					"numinlets" : 1,
					"patching_rect" : [ 23.0, 188.0, 131.0, 20.0 ]
				}

			}
, 			{
				"box" : 				{
					"maxclass" : "flonum",
					"htextcolor" : [ 0.870588, 0.870588, 0.870588, 1.0 ],
					"numoutlets" : 2,
					"fontname" : "Arial",
					"triscale" : 0.9,
					"outlettype" : [ "float", "bang" ],
					"fontsize" : 10.0,
					"id" : "obj-42",
					"bgcolor" : [ 0.866667, 0.866667, 0.866667, 1.0 ],
					"numinlets" : 1,
					"patching_rect" : [ 150.0, 115.0, 45.0, 20.0 ]
				}

			}
, 			{
				"box" : 				{
					"maxclass" : "message",
					"text" : "scale $1 $1",
					"numoutlets" : 1,
					"fontname" : "Arial",
					"outlettype" : [ "" ],
					"fontsize" : 10.0,
					"id" : "obj-43",
					"numinlets" : 2,
					"patching_rect" : [ 150.0, 138.0, 70.0, 18.0 ]
				}

			}
, 			{
				"box" : 				{
					"maxclass" : "toggle",
					"numoutlets" : 1,
					"outlettype" : [ "int" ],
					"id" : "obj-44",
					"numinlets" : 1,
					"patching_rect" : [ 23.0, 74.0, 20.0, 20.0 ]
				}

			}
, 			{
				"box" : 				{
					"maxclass" : "newobj",
					"text" : "metro",
					"numoutlets" : 1,
					"fontname" : "Arial",
					"outlettype" : [ "bang" ],
					"fontsize" : 10.0,
					"id" : "obj-45",
					"numinlets" : 2,
					"patching_rect" : [ 23.0, 96.0, 40.0, 20.0 ]
				}

			}
, 			{
				"box" : 				{
					"maxclass" : "jit.fpsgui",
					"numoutlets" : 1,
					"fontname" : "Arial",
					"outlettype" : [ "" ],
					"fontsize" : 10.0,
					"id" : "obj-46",
					"numinlets" : 1,
					"patching_rect" : [ 23.0, 519.0, 60.0, 33.333271 ]
				}

			}
, 			{
				"box" : 				{
					"maxclass" : "jit.pwindow",
					"numoutlets" : 2,
					"depthbuffer" : 0,
					"outlettype" : [ "", "" ],
					"id" : "obj-47",
					"numinlets" : 1,
					"patching_rect" : [ 23.0, 255.0, 256.0, 256.0 ]
				}

			}
, 			{
				"box" : 				{
					"maxclass" : "comment",
					"text" : "Display",
					"numoutlets" : 0,
					"fontname" : "Arial",
					"fontsize" : 10.0,
					"id" : "obj-48",
					"numinlets" : 1,
					"patching_rect" : [ 23.0, 56.0, 49.0, 20.0 ]
				}

			}
, 			{
				"box" : 				{
					"maxclass" : "panel",
					"numoutlets" : 0,
					"id" : "obj-49",
					"background" : 1,
					"bgcolor" : [ 0.498039, 0.498039, 1.0, 1.0 ],
					"rounded" : 0,
					"numinlets" : 1,
					"patching_rect" : [ 282.0, 225.0, 154.0, 295.0 ]
				}

			}
, 			{
				"box" : 				{
					"maxclass" : "panel",
					"numoutlets" : 0,
					"id" : "obj-50",
					"background" : 1,
					"bgcolor" : [ 1.0, 1.0, 0.501961, 1.0 ],
					"rounded" : 0,
					"numinlets" : 1,
					"patching_rect" : [ 10.0, 251.0, 288.0, 308.0 ]
				}

			}
, 			{
				"box" : 				{
					"maxclass" : "panel",
					"numoutlets" : 0,
					"id" : "obj-51",
					"background" : 1,
					"bgcolor" : [ 0.498039, 1.0, 0.498039, 1.0 ],
					"rounded" : 0,
					"numinlets" : 1,
					"patching_rect" : [ 10.0, 41.0, 637.0, 210.0 ]
				}

			}
 ],
		"lines" : [ 			{
				"patchline" : 				{
					"source" : [ "obj-44", 0 ],
					"destination" : [ "obj-45", 0 ],
					"hidden" : 0
				}

			}
, 			{
				"patchline" : 				{
					"source" : [ "obj-16", 0 ],
					"destination" : [ "obj-41", 0 ],
					"hidden" : 0,
					"midpoints" : [ 101.5, 172.0, 32.5, 172.0 ]
				}

			}
, 			{
				"patchline" : 				{
					"source" : [ "obj-30", 0 ],
					"destination" : [ "obj-41", 0 ],
					"hidden" : 0,
					"midpoints" : [ 485.5, 172.0, 32.5, 172.0 ]
				}

			}
, 			{
				"patchline" : 				{
					"source" : [ "obj-34", 0 ],
					"destination" : [ "obj-41", 0 ],
					"hidden" : 0,
					"midpoints" : [ 359.5, 172.0, 32.5, 172.0 ]
				}

			}
, 			{
				"patchline" : 				{
					"source" : [ "obj-38", 0 ],
					"destination" : [ "obj-41", 0 ],
					"hidden" : 0,
					"midpoints" : [ 233.5, 172.0, 32.5, 172.0 ]
				}

			}
, 			{
				"patchline" : 				{
					"source" : [ "obj-45", 0 ],
					"destination" : [ "obj-41", 0 ],
					"hidden" : 0
				}

			}
, 			{
				"patchline" : 				{
					"source" : [ "obj-43", 0 ],
					"destination" : [ "obj-41", 0 ],
					"hidden" : 0,
					"midpoints" : [ 159.5, 172.0, 32.5, 172.0 ]
				}

			}
, 			{
				"patchline" : 				{
					"source" : [ "obj-40", 0 ],
					"destination" : [ "obj-41", 0 ],
					"hidden" : 0,
					"midpoints" : [ 75.5, 172.0, 32.5, 172.0 ]
				}

			}
, 			{
				"patchline" : 				{
					"source" : [ "obj-41", 0 ],
					"destination" : [ "obj-39", 0 ],
					"hidden" : 0
				}

			}
, 			{
				"patchline" : 				{
					"source" : [ "obj-39", 0 ],
					"destination" : [ "obj-47", 0 ],
					"hidden" : 0
				}

			}
, 			{
				"patchline" : 				{
					"source" : [ "obj-47", 0 ],
					"destination" : [ "obj-46", 0 ],
					"hidden" : 0
				}

			}
, 			{
				"patchline" : 				{
					"source" : [ "obj-14", 1 ],
					"destination" : [ "obj-40", 0 ],
					"hidden" : 0,
					"midpoints" : [ 151.0, 92.0, 75.5, 92.0 ]
				}

			}
, 			{
				"patchline" : 				{
					"source" : [ "obj-42", 0 ],
					"destination" : [ "obj-43", 0 ],
					"hidden" : 0
				}

			}
, 			{
				"patchline" : 				{
					"source" : [ "obj-37", 0 ],
					"destination" : [ "obj-38", 1 ],
					"hidden" : 0
				}

			}
, 			{
				"patchline" : 				{
					"source" : [ "obj-26", 0 ],
					"destination" : [ "obj-15", 0 ],
					"hidden" : 0,
					"midpoints" : [ 307.5, 293.0, 291.5, 293.0 ]
				}

			}
, 			{
				"patchline" : 				{
					"source" : [ "obj-23", 0 ],
					"destination" : [ "obj-15", 0 ],
					"hidden" : 0,
					"midpoints" : [ 307.5, 315.0, 291.5, 315.0 ]
				}

			}
, 			{
				"patchline" : 				{
					"source" : [ "obj-24", 0 ],
					"destination" : [ "obj-15", 0 ],
					"hidden" : 0,
					"midpoints" : [ 307.5, 338.0, 291.5, 338.0 ]
				}

			}
, 			{
				"patchline" : 				{
					"source" : [ "obj-21", 0 ],
					"destination" : [ "obj-15", 0 ],
					"hidden" : 0,
					"midpoints" : [ 307.5, 391.0, 291.5, 391.0 ]
				}

			}
, 			{
				"patchline" : 				{
					"source" : [ "obj-19", 0 ],
					"destination" : [ "obj-15", 0 ],
					"hidden" : 0,
					"midpoints" : [ 307.5, 437.0, 291.5, 437.0 ]
				}

			}
, 			{
				"patchline" : 				{
					"source" : [ "obj-18", 0 ],
					"destination" : [ "obj-15", 0 ],
					"hidden" : 0,
					"midpoints" : [ 307.5, 483.0, 291.5, 483.0 ]
				}

			}
, 			{
				"patchline" : 				{
					"source" : [ "obj-36", 0 ],
					"destination" : [ "obj-38", 2 ],
					"hidden" : 0
				}

			}
, 			{
				"patchline" : 				{
					"source" : [ "obj-25", 0 ],
					"destination" : [ "obj-26", 0 ],
					"hidden" : 0
				}

			}
, 			{
				"patchline" : 				{
					"source" : [ "obj-22", 1 ],
					"destination" : [ "obj-21", 0 ],
					"hidden" : 0,
					"midpoints" : [ 348.0, 364.0, 307.5, 364.0 ]
				}

			}
, 			{
				"patchline" : 				{
					"source" : [ "obj-20", 0 ],
					"destination" : [ "obj-19", 0 ],
					"hidden" : 0
				}

			}
, 			{
				"patchline" : 				{
					"source" : [ "obj-17", 0 ],
					"destination" : [ "obj-18", 0 ],
					"hidden" : 0
				}

			}
, 			{
				"patchline" : 				{
					"source" : [ "obj-35", 0 ],
					"destination" : [ "obj-38", 3 ],
					"hidden" : 0
				}

			}
, 			{
				"patchline" : 				{
					"source" : [ "obj-33", 0 ],
					"destination" : [ "obj-34", 1 ],
					"hidden" : 0
				}

			}
, 			{
				"patchline" : 				{
					"source" : [ "obj-32", 0 ],
					"destination" : [ "obj-34", 2 ],
					"hidden" : 0
				}

			}
, 			{
				"patchline" : 				{
					"source" : [ "obj-31", 0 ],
					"destination" : [ "obj-34", 3 ],
					"hidden" : 0
				}

			}
, 			{
				"patchline" : 				{
					"source" : [ "obj-29", 0 ],
					"destination" : [ "obj-30", 1 ],
					"hidden" : 0
				}

			}
, 			{
				"patchline" : 				{
					"source" : [ "obj-28", 0 ],
					"destination" : [ "obj-30", 2 ],
					"hidden" : 0
				}

			}
, 			{
				"patchline" : 				{
					"source" : [ "obj-27", 0 ],
					"destination" : [ "obj-30", 3 ],
					"hidden" : 0
				}

			}
 ]
	}

}
