#N canvas 63 22 1287 776 10;
#X obj -354 -643 cnv 15 552 40 empty \$0-pddp.cnv.header hoa.library
3 12 0 18 -204280 -1 0;
#X text 224 -640 hoalibrary | Julien Colafrancesco \, Pierre Guillot
& Eliott Paris © 2012-2013 CICM / Universite Paris 8;
#X text -351 -621 High Order Ambisonics Library;
#X text -347 -601 Hoa Library allows musicians and composers to synthesize
\, transform and render sound fields in a creative and artistic way.
This library facilitates the understanding and the appropriation of
key concepts of ambisonics. Thanks to original graphical interfaces
a lot of new signal processing are allowed like diffuse sound field
synthesis \, perspective distorsion or spatial filtering.;
#X obj 792 -411 phasor~ 1.33;
#X obj 639 -411 phasor~ 1;
#X obj 298 -129 hoa.scope~ @size [ 184 184 ] @fontname [ helvetica
] @fontweight [ normal ] @fontslant [ regular ] @fontsize [ 11 ] @order
[ 3 ] @gain [ 1 ] @interval [ 100 ] @bgcolor [ 0.76 0.76 0.76 1 ] @bdcolor
[ 0.5 0.5 0.5 1 ] @phcolor [ 1 0 0 1 ] @nhcolor [ 0 0 1 1 ];
#X obj 246 -580 hoa.pi 2;
#X obj 261 -558 phasor~ 0.2;
#X obj 246 -536 *~;
#X obj 69 -152 hoa.optim~ 3 @mode [ inPhase ];
#X obj 609 -613 hoa.map @size [ 184 184 ] @fontname [ helvetica ] @fontweight
[ normal ] @fontslant [ regular ] @fontsize [ 11 ] @bgcolor [ 0.9 0.9
0.9 1 ] @bdcolor [ 0.5 0.5 0.5 1 ] @outputmode [ 0 ] @zoom [ 0.35 ]
sources_parameters [ source 0 -0.248447 -1.95652 0 0.2 0.2 0.5 1 Tic
source 1 0.124224 1.18012 0 0.2 0.2 0.2 1 s_nosymbol ] groups_parameters
[ group 0 2 0 1 0 0.2 0.2 0.2 1 s_nosymbol ];
#X obj -336 -487 hoa.space @size [ 184 184 ] @fontname [ helvetica
] @fontweight [ normal ] @fontslant [ regular ] @fontsize [ 11 ] @channels
[ 8 ] @coeffs [ 0 0 0 0 0.00489098 0 0 0 0 0 0 0 0 0 0 0 0 0 0 0 0
0 0 0 0 0 0 0 0 0 0 0 0 0 0 0 0 0 0 0 0 0 0 0 0 0 0 0 0 0 0 0 0 0 0
0 0 0 0 0 0 0 0 0 0 0 0 0 0 0 0 0 0 0 0 0 0 0 0 0 0 0 0 0 0 0 0 0 0
0 0 0 0 0 0 0 0 0 0 0 0 0 0 0 0 0 0 0 0 0 0 0 0 0 0 0 0 0 0 0 0 0 0
0 0 0 0 0 0 0 0 0 0 0 0 0 0 0 0 0 0 0 0 0 0 0 0 0 0 0 0 0 0 0 0 0 0
0 0 0 0 0 0 0 0 0 0 0 0 0 0 0 0 0 0 0 0 0 0 0 0 0 0 0 0 0 0 0 0 0 0
0 0 0 0 0 0 0 0 0 0 0 0 0 0 0 0 0 0 0 0 0 0 0 0 0 0 0 0 0 0 0 0 0 0
0 0 0 0 0 0 0 0 0 0 0 0 0 0 0 0 0 0 0 0 0 0 0 0 0 ] @bgcolor [ 0.7
0.7 0.7 1 ] @bdcolor [ 0.5 0.5 0.5 1 ] @spacecolor [ 0 0.4 0.6 1 ]
@miccolor [ 0 0 0 1 ] @circolor [ 0.7 0.7 0.7 1 ];
#X obj 70 -313 hoa.delay~ 3 post ************;
#X obj -127 -227 hoa.recomposer~ 3 8 **********;
#X obj -127 -279 hoa.space~ 8 *****************;
#X obj -127 -379 hoa.projector~ 3 8 ***********;
#X obj -127 -450 hoa.grain~ 3 no **************;
#X obj 70 -380 hoa.ringmod~ 3 post **********;
#X obj 69 -505 hoa.encoder~ 3 ***************;
#X obj 442 -488 hoa.pi 2;
#X obj 427 -445 *~;
#X obj 639 -274 hoa.freeverb~ 3 **********;
#X obj 639 -369 hoa.map~ 3 2 *************;
#X obj 69 -559 noise~;
#X obj 299 -373 hoa.wider~ 3 *************;
#X obj 299 -414 hoa.encoder~ 3 *******;
#X obj 476 -319 hoa.pi 0.25;
#X obj 476 -348 loadbang;
#X obj 246 -603 loadbang;
#X msg -226 -131 \; pd dsp 1;
#X msg -227 -94 \; pd dsp 0;
#X obj 609 -643 loadbang;
#X obj 69 -125 hoa.decoder~ 3 ambisonic 8 ---;
#X obj 99 -93 dac~ 1 2 3 4 5 6 7 8;
#X obj 452 -396 nbx 5 14 0 1 0 0 empty empty empty 0 -8 0 10 -262144
-1 -1 0.7 256;
#X obj 299 -225 hoa.rotate~ 3 ****************;
#X obj -127 -476 *~ 0.3;
#X obj 442 -512 loadbang;
#X obj 427 -467 phasor~ -0.5;
#X obj 299 -510 osc~ 330;
#X obj -336 -509 loadbang;
#X obj 452 -438 loadbang;
#X msg 452 -415 0.7;
#X msg 689 -137 wet \$1;
#X obj 689 -170 nbx 5 14 0 1 0 0 empty empty empty 0 -8 0 10 -262144
-1 -1 1 256;
#X obj 816 -170 nbx 5 14 0 1 0 0 empty empty empty 0 -8 0 10 -262144
-1 -1 0.5 256;
#X msg 816 -137 damp \$1;
#X obj 753 -168 nbx 5 14 0 1 0 0 empty empty empty 0 -8 0 10 -262144
-1 -1 1 256;
#X msg 753 -135 size \$1;
#X obj 689 -227 loadbang;
#X msg 689 -202 1;
#X msg 816 -198 0.5;
#X obj 69 -530 *~ 0.01;
#X obj 299 -478 *~ 0.15;
#X obj -127 -502 osc~ 440;
#X obj 69 -70 hoa.meter~ @size [ 184 184 ] @fontname [ helvetica ]
@fontweight [ normal ] @fontslant [ regular ] @fontsize [ 11 ] @vectors
[ 1 ] @channels [ 8 ] @angles [ 0 45 90 135 180 225 270 315 0 0 0 0
0 0 0 0 0 0 0 0 0 0 0 0 0 0 0 0 0 0 0 0 0 0 0 0 0 0 0 0 0 0 0 0 0 0
0 0 0 0 0 0 0 0 0 0 0 0 0 0 0 0 0 0 ] @offset [ 0 ] @rotation [ 0 ]
@interval [ 50 ] @bgcolor [ 0.7 0.7 0.7 1 ] @bdcolor [ 0.5 0.5 0.5
1 ] @coldcolor [ 0 0.6 0 0.8 ] @tepidcolor [ 0.6 0.73 0 0.8 ] @warmcolor
[ 0.85 0.85 0 0.8 ] @hotcolor [ 1 0.6 0 0.8 ] @overcolor [ 1 0 0 0.8
] @energycolor [ 0 0 1 0.8 ] @velocitycolor [ 1 0 0 0.8 ];
#X connect 4 0 23 1;
#X connect 5 0 23 0;
#X connect 7 0 9 0;
#X connect 8 0 9 1;
#X connect 9 0 19 1;
#X connect 10 0 33 0;
#X connect 10 1 33 1;
#X connect 10 2 33 2;
#X connect 10 3 33 3;
#X connect 10 4 33 4;
#X connect 10 5 33 5;
#X connect 10 6 33 6;
#X connect 11 0 23 0;
#X connect 12 0 15 0;
#X connect 13 0 10 0;
#X connect 13 1 10 1;
#X connect 13 2 10 2;
#X connect 13 3 10 3;
#X connect 13 4 10 4;
#X connect 13 5 10 5;
#X connect 13 6 10 6;
#X connect 14 0 10 0;
#X connect 14 1 10 1;
#X connect 14 2 10 2;
#X connect 14 3 10 3;
#X connect 14 4 10 4;
#X connect 14 5 10 5;
#X connect 14 6 10 6;
#X connect 15 0 14 0;
#X connect 15 1 14 1;
#X connect 15 2 14 2;
#X connect 15 3 14 3;
#X connect 15 4 14 4;
#X connect 15 5 14 5;
#X connect 15 6 14 6;
#X connect 15 7 14 7;
#X connect 16 0 15 0;
#X connect 16 1 15 1;
#X connect 16 2 15 2;
#X connect 16 3 15 3;
#X connect 16 4 15 4;
#X connect 16 5 15 5;
#X connect 16 6 15 6;
#X connect 16 7 15 7;
#X connect 17 0 16 0;
#X connect 17 1 16 1;
#X connect 17 2 16 2;
#X connect 17 3 16 3;
#X connect 17 4 16 4;
#X connect 17 5 16 5;
#X connect 17 6 16 6;
#X connect 18 0 13 0;
#X connect 18 1 13 1;
#X connect 18 2 13 2;
#X connect 18 3 13 3;
#X connect 18 4 13 4;
#X connect 18 5 13 5;
#X connect 18 6 13 6;
#X connect 19 0 18 0;
#X connect 19 1 18 1;
#X connect 19 2 18 2;
#X connect 19 3 18 3;
#X connect 19 4 18 4;
#X connect 19 5 18 5;
#X connect 19 6 18 6;
#X connect 20 0 21 1;
#X connect 21 0 26 1;
#X connect 22 0 36 0;
#X connect 22 1 36 1;
#X connect 22 2 36 2;
#X connect 22 3 36 3;
#X connect 22 4 36 4;
#X connect 22 5 36 5;
#X connect 22 6 36 6;
#X connect 23 0 22 0;
#X connect 23 1 22 1;
#X connect 23 2 22 2;
#X connect 23 3 22 3;
#X connect 23 4 22 4;
#X connect 23 5 22 5;
#X connect 23 6 22 6;
#X connect 24 0 53 0;
#X connect 25 0 36 0;
#X connect 25 1 36 1;
#X connect 25 2 36 2;
#X connect 25 3 36 3;
#X connect 25 4 36 4;
#X connect 25 5 36 5;
#X connect 25 6 36 6;
#X connect 26 0 25 0;
#X connect 26 1 25 1;
#X connect 26 2 25 2;
#X connect 26 3 25 3;
#X connect 26 4 25 4;
#X connect 26 5 25 5;
#X connect 26 6 25 6;
#X connect 27 0 36 7;
#X connect 28 0 27 0;
#X connect 29 0 7 0;
#X connect 32 0 11 0;
#X connect 33 0 34 0;
#X connect 33 0 56 0;
#X connect 33 1 34 1;
#X connect 33 1 56 1;
#X connect 33 2 34 2;
#X connect 33 2 56 2;
#X connect 33 3 34 3;
#X connect 33 3 56 3;
#X connect 33 4 34 4;
#X connect 33 4 56 4;
#X connect 33 5 34 5;
#X connect 33 5 56 5;
#X connect 33 6 34 6;
#X connect 33 6 56 6;
#X connect 33 7 34 7;
#X connect 33 7 56 7;
#X connect 35 0 25 7;
#X connect 36 0 10 0;
#X connect 36 0 6 0;
#X connect 36 1 10 1;
#X connect 36 1 6 1;
#X connect 36 2 10 2;
#X connect 36 2 6 2;
#X connect 36 3 10 3;
#X connect 36 3 6 3;
#X connect 36 4 10 4;
#X connect 36 4 6 4;
#X connect 36 5 10 5;
#X connect 36 5 6 5;
#X connect 36 6 10 6;
#X connect 36 6 6 6;
#X connect 37 0 17 0;
#X connect 38 0 20 0;
#X connect 39 0 21 0;
#X connect 40 0 54 0;
#X connect 41 0 12 0;
#X connect 42 0 43 0;
#X connect 43 0 35 0;
#X connect 44 0 22 0;
#X connect 45 0 44 0;
#X connect 46 0 47 0;
#X connect 47 0 22 0;
#X connect 48 0 49 0;
#X connect 49 0 22 0;
#X connect 50 0 51 0;
#X connect 50 0 52 0;
#X connect 51 0 45 0;
#X connect 51 0 48 0;
#X connect 52 0 46 0;
#X connect 53 0 19 0;
#X connect 54 0 26 0;
#X connect 55 0 37 0;
#X coords 0 776 1 775 100 60 0;
