#N canvas 4 22 1256 818 10;
#X obj 1025 294 hoa.scope~ @patching_rect [ 1025 294 181 181 ] @size
[ 181 181 ] @fontname [ helvetica ] @fontweight [ normal ] @fontslant
[ regular ] @fontsize [ 11 ] @order [ 3 ] @gain [ 1 ] @interval [ 100
] @drawcircle [ 1 ] @drawangles [ 1 ] @drawcontrib [ 1 ] @bgcolor [
0.76 0.76 0.76 1 ] @bdcolor [ 0.7 0.7 0.7 1 ] @txcolor [ 0 0 0 7 ]
@phcolor [ 1 0 0 1 ] @nhcolor [ 0 0 1 1 ];
#X msg 891 28 \; pd dsp 1;
#X msg 893 83 \; pd dsp 0;
#X obj 789 21 hoa.pi 2;
#X obj 804 43 phasor~ 0.2;
#X obj 789 65 *~;
#X obj 632 116 hoa.encoder~ 3 ***************;
#X obj 612 42 noise~;
#X obj 789 -2 loadbang;
#X obj 611 71 *~ 0.1;
#X obj 825 75 nbx 5 14 -1e+37 1e+37 0 0 empty empty empty 0 -8 0 10
-262144 -1 -1 0 256;
#X obj 641 172 hoa.optim~ 3 @mode [ inPhase ];
#X msg 1127 137 angles 330 30;
#X obj 670 36 nbx 5 14 -1e+37 1e+37 0 0 empty empty empty 0 -8 0 10
-262144 -1 -1 0 256;
#X obj 1 174 hoa.map @patching_rect [ 1 174 300 300 ] @size [ 300 300
] @fontname [ helvetica ] @fontweight [ normal ] @fontslant [ regular
] @fontsize [ 11 ] @bgcolor [ 0.9 0.9 0.9 1 ] @bgcolor2 [ 0.75 0.75
0.75 1 ] @bdcolor [ 0 0 0 1 ] @selcolor [ 0.36 0.37 0.37 0.5 ] @outputmode
[ 0 ] @zoom [ 0.35 ] sources_parameters [ source 0 -1.42857 1.33333
0 0.2 0.2 0.2 1 s_nosymbol source 1 1.2381 1.48571 0 0.2 0.2 0.2 1
s_nosymbol source 2 1.9619 -1.29524 0 0.2 0.2 0.2 1 s_nosymbol source
3 -1.44762 -1.06667 0 0.2 0.2 0.2 1 s_nosymbol ];
#X msg 1 148 trajectory \$1;
#X obj 354 503 hoa.meter~ @patching_rect [ 354 503 284 284 ] @size
[ 284 284 ] @fontname [ helvetica ] @fontweight [ normal ] @fontslant
[ regular ] @fontsize [ 11 ] @vectors [ 1 ] @loudspeakers [ 16 ] @angles
[ 0 22.5 45 67.5 90 112.5 135 157.5 180 202.5 225 247.5 270 292.5 315
337.5 0 0 0 0 0 0 0 0 0 0 0 0 0 0 0 0 0 0 0 0 0 0 0 0 0 0 0 0 0 0 0
0 0 0 0 0 0 0 0 0 0 0 0 0 0 0 0 0 ] @offset [ 0 ] @rotation [ 0 ] @interval
[ 50 ] @bgcolor [ 0.55 0.55 0.55 1 ] @mbgcolor [ 0.4 0.4 0.4 1 ] @bordercolor
[ 0.25 0.25 0.25 1 ] @coldcolor [ 0 0.6 0 0.8 ] @tepidcolor [ 0.6 0.73
0 0.8 ] @warmcolor [ 0.85 0.85 0 0.8 ] @hotcolor [ 1 0.6 0 0.8 ] @overcolor
[ 1 0 0 0.8 ] @energycolor [ 0 0 1 0.8 ] @velocitycolor [ 1 0 0 0.8
];
#X msg 33 699 size \$1 \$1;
#X obj 32 680 nbx 5 14 -1e+37 1e+37 0 0 empty empty empty 0 -8 0 10
-262144 -1 -1 0 256;
#X obj 354 374 hoa.optim~ 7 @mode [ inPhase ] ****************;
#X obj 354 409 hoa.delay~ 7 post *****************************;
#X obj 354 337 hoa.map~ 7 4 **********************************;
#X msg 79 631 loudspeakers 16;
#X obj 684 460 hoa.decoder~ 7 2 2 @angles [ 30 330 ] *********;
#X obj 354 531 dac~ 1 ************************************** 2;
#X obj 354 452 hoa.decoder~ 7 ambisonics 16 ******************;
#X obj 347 271 sig~ 1;
#X connect 3 0 5 0;
#X connect 4 0 5 1;
#X connect 5 0 6 1;
#X connect 6 0 0 0;
#X connect 6 0 11 0;
#X connect 6 1 0 1;
#X connect 6 1 11 1;
#X connect 6 2 0 2;
#X connect 6 2 11 2;
#X connect 6 3 0 3;
#X connect 6 3 11 3;
#X connect 6 4 0 4;
#X connect 6 4 11 4;
#X connect 6 5 0 5;
#X connect 6 5 11 5;
#X connect 6 6 0 6;
#X connect 6 6 11 6;
#X connect 7 0 9 0;
#X connect 8 0 3 0;
#X connect 9 0 6 0;
#X connect 10 0 4 0;
#X connect 13 0 9 1;
#X connect 14 0 21 0;
#X connect 15 0 14 0;
#X connect 17 0 16 0;
#X connect 18 0 17 0;
#X connect 19 0 20 0;
#X connect 19 1 20 1;
#X connect 19 2 20 2;
#X connect 19 3 20 3;
#X connect 19 4 20 4;
#X connect 19 5 20 5;
#X connect 19 6 20 6;
#X connect 19 7 20 7;
#X connect 19 8 20 8;
#X connect 19 9 20 9;
#X connect 19 10 20 10;
#X connect 19 11 20 11;
#X connect 19 12 20 12;
#X connect 19 13 20 13;
#X connect 19 14 20 14;
#X connect 20 0 25 0;
#X connect 20 0 23 0;
#X connect 20 1 25 1;
#X connect 20 1 23 1;
#X connect 20 2 25 2;
#X connect 20 2 23 2;
#X connect 20 3 25 3;
#X connect 20 3 23 3;
#X connect 20 4 25 4;
#X connect 20 4 23 4;
#X connect 20 5 25 5;
#X connect 20 5 23 5;
#X connect 20 6 25 6;
#X connect 20 6 23 6;
#X connect 20 7 25 7;
#X connect 20 7 23 7;
#X connect 20 8 25 8;
#X connect 20 8 23 8;
#X connect 20 9 25 9;
#X connect 20 9 23 9;
#X connect 20 10 25 10;
#X connect 20 10 23 10;
#X connect 20 11 25 11;
#X connect 20 11 23 11;
#X connect 20 12 25 12;
#X connect 20 12 23 12;
#X connect 20 13 25 13;
#X connect 20 13 23 13;
#X connect 20 14 25 14;
#X connect 20 14 23 14;
#X connect 21 0 19 0;
#X connect 21 1 19 1;
#X connect 21 2 19 2;
#X connect 21 3 19 3;
#X connect 21 4 19 4;
#X connect 21 5 19 5;
#X connect 21 6 19 6;
#X connect 21 7 19 7;
#X connect 21 8 19 8;
#X connect 21 9 19 9;
#X connect 21 10 19 10;
#X connect 21 11 19 11;
#X connect 21 12 19 12;
#X connect 21 13 19 13;
#X connect 21 14 19 14;
#X connect 22 0 16 0;
#X connect 23 0 24 0;
#X connect 23 1 24 2;
#X connect 25 0 16 0;
#X connect 25 1 16 1;
#X connect 25 2 16 2;
#X connect 25 3 16 3;
#X connect 25 4 16 4;
#X connect 25 5 16 5;
#X connect 25 6 16 6;
#X connect 25 7 16 7;
#X connect 25 8 16 8;
#X connect 25 9 16 9;
#X connect 25 10 16 10;
#X connect 25 11 16 11;
#X connect 25 12 16 12;
#X connect 25 13 16 13;
#X connect 25 14 16 14;
#X connect 25 15 16 15;
#X connect 26 0 21 0;
