#N canvas 70 224 450 300 10;
#X obj 24 50 clip 0.001 1;
#X obj 24 74 log 10;
#X obj 24 21 snapshot~;
#X obj 24 129 outlet;
#X obj 24 -14 inlet~;
#X obj 161 22 tgl 15 0 empty empty empty 17 7 0 10 -262144 -1 -1 1
1;
#X obj 230 5 loadbang;
#X msg 230 32 1;
#X obj 161 55 metro 20;
#X obj 24 98 * 10;
#X connect 0 0 1 0;
#X connect 1 0 9 0;
#X connect 2 0 0 0;
#X connect 4 0 2 0;
#X connect 5 0 8 0;
#X connect 6 0 7 0;
#X connect 7 0 5 0;
#X connect 8 0 2 0;
#X connect 9 0 3 0;
