#N canvas 566 374 686 323 10;
#X obj -325 -799 cnv 15 552 40 empty \$0-pddp.cnv.header hoa.connect
3 12 0 18 -204280 -1 0;
#X text -322 -777 A connector for hoa objects;
#X text -303 -559 hoalibrary | Julien Colafrancesco \, Pierre Guillot
& Eliott Paris © 2012-2013 CICM / Universite Paris 8;
#X text -324 -756 hoa.connect hepls to connect the hoa objects together.
;
#X obj -193 -599 hoa.canvas~ test;
#N canvas 193 221 450 300 testo 0;
#X obj 87 -472 outlet~;
#X obj 93 -516 nbx 5 14 -1e+37 1e+37 0 0 empty empty empty 0 -8 0 10
-262144 -1 -1 0 256;
#X obj 96 -531 route f s;
#X obj 83 -555 inlet;
#X restore 90 -659 pd testo;
#X obj 93 -683 nbx 5 14 -1e+37 1e+37 0 0 empty empty empty 0 -8 0 10
-262144 -1 -1 0 256;
#X obj 102 -617 nbx 5 14 -1e+37 1e+37 0 0 empty empty empty 0 -8 0
10 -262144 -1 -1 0 256;
#X obj 151 -690 sig~ 1;
