#N canvas 102 36 764 658 10;
#X obj -255 -480 cnv 15 552 40 empty \$0-pddp.cnv.header hoa.projector~
3 12 0 18 -204280 -1 0;
#X obj -236 -145 hoa.projector~ 4 10;
#X obj -236 -291 hoa.encoder~ 4 ----;
#X obj -110 -341 hoa.pi 2;
#X obj -110 -360 loadbang;
#X obj 113 -122 hoa.recomposer~ 4 10;
#X obj -236 -339 osc~ 220;
#X msg 330 -80 \; pd dsp 1;
#X msg 330 -42 \; pd dsp 0;
#X text -116 124 Eliott Paris © 2012-2013 CICM / Universite Paris
8;
#X text -116 108 hoalibrary | Julien Colafrancesco \, Pierre Guillot
;
#X obj -236 -122 delwrite~ del_proj1 1000;
#X obj -224 -100 delwrite~ del_proj2 1000;
#X obj -212 -78 delwrite~ del_proj3 1000;
#X obj -199 -58 delwrite~ del_proj4 1000;
#X obj -187 -36 delwrite~ del_proj5 1000;
#X obj -175 -14 delwrite~ del_proj6 1000;
#X obj -162 8 delwrite~ del_proj7 1000;
#X obj -150 28 delwrite~ del_proj8 1000;
#X obj -138 50 delwrite~ del_proj9 1000;
#X obj -125 72 delwrite~ del_proj10 1000;
#X obj 152 -277 delread~ del_proj4 300;
#X obj 126 -319 delread~ del_proj2 600;
#X obj 165 -255 delread~ del_proj5 200;
#X obj 178 -233 delread~ del_proj6 100;
#X obj -125 -322 *~;
#X obj 113 44 hoa.decoder~ 4 0 10-;
#X obj 113 77 hoa.dac~ 1:10 ------;
#X obj -236 -268 hoa.scope~ @size 117 117 @fontname Helvetica @fontweight
normal @fontslant roman @fontsize 11 @receive (null) @send (null) @order
4 @gain 1 @interval 20 @bgcolor 0.7 0.7 0.7 1 @bdcolor 0.5 0.5 0.5
1 @phcolor 1 0 0 1 @nhcolor 0 0 1 1;
#X obj 113 -99 hoa.scope~ @size 123 123 @fontname Helvetica @fontweight
normal @fontslant roman @fontsize 11 @receive (null) @send (null) @order
4 @gain 1 @interval 20 @bgcolor 0.7 0.7 0.7 1 @bdcolor 0.5 0.5 0.5
1 @phcolor 1 0 0 1 @nhcolor 0 0 1 1;
#X obj 191 -211 delread~ del_proj7 150;
#X obj 204 -191 delread~ del_proj8 380;
#X obj 217 -169 delread~ del_proj9 570;
#X obj 230 -147 delread~ del_proj10 800;
#X text -252 -458 A plane wave projector;
#X text -253 -438 hoa.projector~ discretizes the ambisonic soundfield
into an array of virtual loudspeakers and gives a access to the plane
wave domain. Use hoa.recomposer~ to come back to harmonics domain.
;
#X text 128 -428 Sound field transformations have differents behavior
in the plane domain compared to the ambisonic domain.;
#X text 128 -398 Here \, we apply differents delay lines on each signal.
;
#X text 127 -379 Look to hoa.recomposer~ and hoa.space~ for futher
informations and soundfield transformations.;
#X obj 113 -341 delread~ del_proj1 30;
#X obj 139 -297 delread~ del_proj3 10;
#X obj -125 -381 phasor~ 0.8;
#X connect 1 0 11 0;
#X connect 1 1 12 0;
#X connect 1 2 13 0;
#X connect 1 3 14 0;
#X connect 1 4 15 0;
#X connect 1 5 16 0;
#X connect 1 6 17 0;
#X connect 1 7 18 0;
#X connect 1 8 19 0;
#X connect 1 9 20 0;
#X connect 2 0 1 0;
#X connect 2 0 28 0;
#X connect 2 1 1 1;
#X connect 2 1 28 1;
#X connect 2 2 1 2;
#X connect 2 2 28 2;
#X connect 2 3 1 3;
#X connect 2 3 28 3;
#X connect 2 4 1 4;
#X connect 2 4 28 4;
#X connect 2 5 1 5;
#X connect 2 5 28 5;
#X connect 2 6 1 6;
#X connect 2 6 28 6;
#X connect 2 7 1 7;
#X connect 2 7 28 7;
#X connect 2 8 1 8;
#X connect 2 8 28 8;
#X connect 3 0 25 1;
#X connect 4 0 3 0;
#X connect 5 0 26 0;
#X connect 5 0 29 0;
#X connect 5 1 26 1;
#X connect 5 1 29 1;
#X connect 5 2 26 2;
#X connect 5 2 29 2;
#X connect 5 3 26 3;
#X connect 5 3 29 3;
#X connect 5 4 26 4;
#X connect 5 4 29 4;
#X connect 5 5 26 5;
#X connect 5 5 29 5;
#X connect 5 6 26 6;
#X connect 5 6 29 6;
#X connect 5 7 26 7;
#X connect 5 7 29 7;
#X connect 5 8 26 8;
#X connect 5 8 29 8;
#X connect 6 0 2 0;
#X connect 21 0 5 3;
#X connect 22 0 5 1;
#X connect 23 0 5 4;
#X connect 24 0 5 5;
#X connect 25 0 2 1;
#X connect 26 0 27 0;
#X connect 26 1 27 1;
#X connect 26 2 27 2;
#X connect 26 3 27 3;
#X connect 26 4 27 4;
#X connect 26 5 27 5;
#X connect 26 6 27 6;
#X connect 26 7 27 7;
#X connect 26 8 27 8;
#X connect 26 9 27 9;
#X connect 30 0 5 6;
#X connect 31 0 5 7;
#X connect 32 0 5 8;
#X connect 33 0 5 9;
#X connect 39 0 5 0;
#X connect 40 0 5 2;
#X connect 41 0 25 0;
#X coords 0 658 1 657 100 60 0;
