#N canvas 343 82 1053 676 10;
#X obj -168 -348 cnv 15 552 40 empty \$0-pddp.cnv.header hoa.space
3 12 0 18 -204280 -1 0;
#X obj -156 -197 bng 15 250 50 0 empty empty empty 17 7 0 10 -262144
-1 -1;
#X obj 719 -255 nbx 5 14 -1e+37 1e+37 0 0 empty empty empty 0 -8 0
10 -262144 -1 -1 12 256;
#X msg 719 -222 channels \$1;
#X obj 550 -261 nbx 5 14 -1e+37 1e+37 0 0 empty empty empty 0 -8 0
10 -262144 -1 -1 0 256;
#X obj 705 -34 nbx 5 14 0 1 0 0 empty empty empty 0 -8 0 10 -262144
-1 -1 0 256;
#X msg -118 244 0.904819 1 0.0370832 0.348502 0.807854 0.807854 0.976473
0.853987 0.705692 0.653529 0.509649 0.382843 0.772379;
#X msg -118 199 set \$1 \$2 \$3 \$4 \$5 \$5 \$6 \$7 \$8 \$9 \$10 \$11
\$12;
#X text 441 -311 The attributes (saved with the object) :;
#X text 545 -287 Size of the box;
#X text 712 -287 Number of channels;
#X obj 552 -36 nbx 5 14 0 1 0 0 empty empty empty 0 -8 0 10 -262144
-1 -1 0.7 256;
#X text 546 -63 Background color;
#X msg 552 -2 bgcolor \$1 \$1 \$1 1;
#X obj 706 58 pack 0 0 0;
#X obj 762 24 + 0.2;
#X msg 706 80 harmocolor \$1 \$2 \$3 1;
#X obj 734 -6 + 0.4;
#X obj 555 56 nbx 5 14 0 1 0 0 empty empty empty 0 -8 0 10 -262144
-1 -1 0 256;
#X msg 555 90 miccolor \$1 \$1 \$1 1;
#X obj 550 -140 nbx 5 14 0 1 0 0 empty empty empty 0 -8 0 10 -262144
-1 -1 0.7 256;
#X msg 550 -106 circolor \$1 \$1 \$1 1;
#X msg 471 -185 0.7;
#X text 546 -166 Circle color;
#X text 549 31 Points color;
#X text 701 -63 Surface color;
#X obj 697 -142 nbx 5 14 0 1 0 0 empty empty empty 0 -8 0 10 -262144
-1 -1 0 256;
#X msg 697 -108 bordercolor \$1 \$1 \$1 1;
#X text 693 -168 Border color;
#X obj 663 146 send space;
#X obj -118 -201 receive space;
#X text -160 -228 Bang to output values;
#X obj 550 -187 send space;
#X text -8 -226 Coefficients;
#X obj 471 -220 loadbang;
#X obj 644 -78 send space;
#X text 195 -64 1 - Click and drag to set the coefficients.;
#X text 195 -34 2 - Hold shift and click and drag to increase or decrease
all the coefficients together.;
#X text 195 6 3 - Hold alt + shift and click and drag to compute a
rotation of the coefficients;
#X text -166 -306 hoa.space allows you to draw spatial filtering and
apply gains to the virtual microphones signals. It sould be used with
the hoa.space~ object in the plane wave domain.;
#X text 313 235 Eliott Paris © 2012-2013 CICM / Universite Paris 8
;
#X text 313 219 hoalibrary | Julien Colafrancesco \, Pierre Guillot
;
#X msg 550 -220 size \$1 \$1;
#X obj -114 -145 hoa.space @patching_rect [ -114 -145 300 300 ] @size
[ 300 300 ] @fontname [ helvetica ] @fontweight [ normal ] @fontslant
[ regular ] @fontsize [ 11 ] @channels [ 12 ] @coeffs [ 0.876279 1
1 1 0.0306693 0.0306693 0.0137424 0 0 0.017797 0.0343521 0.0879706
0.0036886 0 0 0.600701 0 0 0 0 0 0 0 0 0 0 0 0 0 0 0 0 0 0 0 0 0 0
0 0 0 0 0 0 0 0 0 0 0 0 0 0 0 0 0 0 0 0 0 0 0 0 0 0 0 0 0 0 0 0 0 0
0 0 0 0 0 0 0 0 0 0 0 0 0 0 0 0 0 0 0 0 0 0 0 0 0 0 0 0 0 0 0 0 0 0
0 0 0 0 0 0 0 0 0 0 0 0 0 0 0 0 0 0 0 0 0 0 0 0 0 0 0 0 0 0 0 0 0 0
0 0 0 0 0 0 0 0 0 0 0 0 0 0 0 0 0 0 0 0 0 0 0 0 0 0 0 0 0 0 0 0 0 0
0 0 0 0 0 0 0 0 0 0 0 0 0 0 0 0 0 0 0 0 0 0 0 0 0 0 0 0 0 0 0 0 0 0
0 0 0 0 0 0 0 0 0 0 0 0 0 0 0 0 0 0 0 0 0 0 0 0 0 0 0 0 0 0 0 0 0 0
0 0 0 0 0 0 0 0 ] @bgcolor [ 0.7 0.7 0.7 1 ] @bordercolor [ 0 0 0 1
] @harmocolor [ 0 0.4 0.6 1 ] @miccolor [ 0 0 0 1 ] @circolor [ 0.7
0.7 0.7 1 ];
#N canvas 277 320 494 344 META 0;
#X text 12 35 LICENSE SIBSD;
#X text 12 105 OUTLET_0 anything;
#X text 12 5 KEYWORDS control GUI nonlocal symbol_op list_op anything_op
bang_op;
#X text 12 55 DESCRIPTION A GUI to design ambisonic space;
#X text 12 125 LIBRARY Hoa.library;
#X text 12 145 AUTHOR Pierre Guillot;
#X text 12 165 WEBSITE;
#X text 12 184 RELEASE_DATE;
#X text 12 205 HELP_PATCH_AUTHORS;
#X text 12 75 INLET_0 anything set message yoh !;
#X restore 335 -345 pd META;
#X text -166 -326 A GUI to design ambisonic space;
#X obj -17 -250 loadbang;
#X msg -17 -202 0.876279 1 1 1 0.0306693 0.0306693 0.0137424 0 0 0.017797
0.0343521 0.0879706 0.0634424;
#X connect 1 0 43 0;
#X connect 2 0 3 0;
#X connect 3 0 32 0;
#X connect 4 0 42 0;
#X connect 5 0 14 0;
#X connect 5 0 17 0;
#X connect 7 0 6 0;
#X connect 11 0 13 0;
#X connect 13 0 29 0;
#X connect 14 0 16 0;
#X connect 15 0 14 2;
#X connect 16 0 29 0;
#X connect 17 0 14 1;
#X connect 17 0 15 0;
#X connect 18 0 19 0;
#X connect 19 0 29 0;
#X connect 20 0 21 0;
#X connect 21 0 35 0;
#X connect 22 0 20 0;
#X connect 22 0 11 0;
#X connect 26 0 27 0;
#X connect 27 0 35 0;
#X connect 30 0 43 0;
#X connect 34 0 22 0;
#X connect 42 0 32 0;
#X connect 43 0 7 0;
#X connect 46 0 47 0;
#X connect 47 0 43 0;
