#N canvas 325 230 663 297 10;
#X obj -237 17 outlet~;
#X obj 24 12 outlet~;
#X obj -437 -129 tgl 15 0 empty empty empty 0 -6 0 8 -262144 -1 -1
1 1;
#X obj -439 33 switch~ 512 1 1;
#X obj -237 -68 inlet~;
#X obj -219 -100 inlet~;
#X obj -200 -126 inlet~;
#X obj -182 -158 inlet~;
#X obj -163 -70 inlet~;
#X obj -144 -102 inlet~;
#X obj -126 -128 inlet~;
#X obj -108 -160 inlet~;
#X obj -87 -68 inlet~;
#X obj -69 -100 inlet~;
#X obj -50 -126 inlet~;
#X obj -32 -158 inlet~;
#X obj -13 -70 inlet~;
#X obj 6 -102 inlet~;
#X obj 24 -128 inlet~;
#X msg -413 -106 set 512 1 1;
#X obj -369 -139 loadbang;
#X msg -438 -159 1;
#X obj -237 -34 hoa.decoder~ 7 binaural @pinnae small;
#X obj -313 -75 r binaural;
#X connect 2 0 3 0;
#X connect 4 0 22 0;
#X connect 5 0 22 1;
#X connect 6 0 22 2;
#X connect 7 0 22 3;
#X connect 8 0 22 4;
#X connect 9 0 22 5;
#X connect 10 0 22 6;
#X connect 11 0 22 7;
#X connect 12 0 22 8;
#X connect 13 0 22 9;
#X connect 14 0 22 10;
#X connect 15 0 22 11;
#X connect 16 0 22 12;
#X connect 17 0 22 13;
#X connect 18 0 22 14;
#X connect 19 0 3 0;
#X connect 20 0 21 0;
#X connect 20 0 19 0;
#X connect 21 0 2 0;
#X connect 22 0 0 0;
#X connect 22 1 1 0;
#X connect 23 0 22 0;
#X coords 0 297 1 296 100 60 0;
