#N canvas 61 50 1156 782 10;
#X obj -336 -281 cnv 15 552 40 empty \$0-pddp.cnv.header hoa.recomposer~
3 12 0 18 -204280 -1 0;
#X obj 162 -63 hoa.projector~ 4 10;
#X obj 162 -121 hoa.encoder~ 4 ----;
#X obj 324 -181 hoa.pi 2;
#X obj 324 -210 loadbang;
#X obj 273 -237 loadbang;
#X msg 273 -210 0.333;
#X obj 273 -152 *;
#X obj 273 -181 nbx 5 14 -1e+37 1e+37 0 0 empty empty empty 0 -8 0
10 -262144 -1 -1 0.333 256;
#X obj 144 188 dac~ 1 2 3 4 5 6 7 8 9 10;
#X text -332 -258 A plane wave recomposer to harmonics domain;
#X text -333 -238 hoa.recomposer~ recomposes a plane wave decomposition
into circular harmonics.;
#X text 588 48 Fisheye factor between 0 and 1;
#X obj -127 -103 nbx 5 14 0 9 0 0 empty empty empty 0 -8 0 10 -262144
-1 -1 7 256;
#X obj -82 -134 nbx 5 14 -1e+37 1e+37 0 0 empty empty empty 0 -8 0
10 -262144 -1 -1 3.1 256;
#X obj -127 -80 pack 0 0;
#X msg -127 -57 angle \$1 \$2;
#X text -141 -164 Set angles with an index of microphones;
#X obj -224 31 nbx 5 14 0 9 0 0 empty empty empty 0 -8 0 10 -262144
-1 -1 8 256;
#X obj -179 1 nbx 5 14 0 1 0 0 empty empty empty 0 -8 0 10 -262144
-1 -1 0 256;
#X obj -224 54 pack 0 0;
#X text -248 -18 and a widen value (0 -1) :;
#X obj 356 109 hoa.recomposer~ 4 10 @mode [ fisheye ];
#X obj -127 107 hoa.recomposer~ 4 10 @mode [ free ];
#X obj 116 106 hoa.recomposer~ 4 10 @mode [ fixe ];
#X text 222 -263 Eliott Paris © 2012-2013 CICM / Universite Paris
8;
#X text 222 -279 hoalibrary | Julien Colafrancesco \, Pierre Guillot
;
#X text -332 -201 First argument is the order \, second argument is
the number of channels (inputs) \, @mode [ value (int or sym)] set
the decomposition mode.;
#X text 399 -164 There's 3 modes : fixe (just recompostion without
any "effect") \, fisheye (to apply a fisheye effect on soundfield)
and free (that allows you to change angle and direcvity figures of
"virtual microphones");
#X obj 581 66 nbx 5 14 0 1 0 0 empty empty empty 0 -8 0 10 -262144
-1 -1 0.333 256;
#X msg 442 -59 \; pd dsp 1;
#X msg 442 -21 \; pd dsp 0;
#X obj -128 226 hoa.scope~ @order [ 4 ] @patching_rect { 0 0 232 232
} @order { 4 } @gain { 1 } @interval { 100 } @drawcircle { 1 } @drawangles
{ 1 } @drawcontrib { 1 } @bgcolor { 0.76 0.76 0.76 1 } @bordercolor
{ 0.7 0.7 0.7 1 } @txcolor { 0 0 0 7 } @phcolor { 1 0 0 1 } @nhcolor
{ 0 0 1 1 } @patching_rect { 0 0 215.23 215.23 } @order { 4 } @gain
{ 1 } @interval { 100 } @drawcircle { 1 } @drawangles { 1 } @drawcontrib
{ 1 } @bgcolor { 0.76 0.76 0.76 1 } @bordercolor { 0.7 0.7 0.7 1 }
@txcolor { 0 0 0 7 } @phcolor { 1 0 0 1 } @nhcolor { 0 0 1 1 } @patching_rect
{ 0 0 215.23 215.23 } @order { 4 } @gain { 1 } @interval { 100 } @drawcircle
{ 1 } @drawangles { 1 } @drawcontrib { 1 } @bgcolor { 0.76 0.76 0.76
1 } @bordercolor { 0.7 0.7 0.7 1 } @txcolor { 0 0 0 7 } @phcolor {
1 0 0 1 } @nhcolor { 0 0 1 1 } @patching_rect { 0 0 215.23 215.23 }
@order { 4 } @gain { 1 } @interval { 100 } @drawcircle { 1 } @drawangles
{ 1 } @drawcontrib { 1 } @bgcolor { 0.76 0.76 0.76 1 } @bordercolor
{ 0.7 0.7 0.7 1 } @txcolor { 0 0 0 7 } @phcolor { 1 0 0 1 } @nhcolor
{ 0 0 1 1 } @patching_rect { 0 0 215.23 215.23 } @order { 4 } @gain
{ 1 } @interval { 100 } @drawcircle { 1 } @drawangles { 1 } @drawcontrib
{ 1 } @bgcolor { 0.76 0.76 0.76 1 } @bordercolor { 0.7 0.7 0.7 1 }
@txcolor { 0 0 0 7 } @phcolor { 1 0 0 1 } @nhcolor { 0 0 1 1 } @patching_rect
{ 0 0 215.23 215.23 } @order { 4 } @gain { 1 } @interval { 100 } @drawcircle
{ 1 } @drawangles { 1 } @drawcontrib { 1 } @bgcolor { 0.76 0.76 0.76
1 } @bordercolor { 0.7 0.7 0.7 1 } @txcolor { 0 0 0 7 } @phcolor {
1 0 0 1 } @nhcolor { 0 0 1 1 } @patching_rect { 0 0 215.23 215.23 }
@order { 4 } @gain { 1 } @interval { 100 } @drawcircle { 1 } @drawangles
{ 1 } @drawcontrib { 1 } @bgcolor { 0.76 0.76 0.76 1 } @bordercolor
{ 0.7 0.7 0.7 1 } @txcolor { 0 0 0 7 } @phcolor { 1 0 0 1 } @nhcolor
{ 0 0 1 1 } @patching_rect { 0 0 215.23 215.23 } @order { 4 } @gain
{ 1 } @interval { 100 } @drawcircle { 1 } @drawangles { 1 } @drawcontrib
{ 1 } @bgcolor { 0.76 0.76 0.76 1 } @bordercolor { 0.7 0.7 0.7 1 }
@txcolor { 0 0 0 7 } @phcolor { 1 0 0 1 } @nhcolor { 0 0 1 1 } @patching_rect
{ 0 0 215.23 215.23 } @order { 4 } @gain { 1 } @interval { 100 } @drawcircle
{ 1 } @drawangles { 1 } @drawcontrib { 1 } @bgcolor { 0.76 0.76 0.76
1 } @bordercolor { 0.7 0.7 0.7 1 } @txcolor { 0 0 0 7 } @phcolor {
1 0 0 1 } @nhcolor { 0 0 1 1 } @patching_rect { 0 0 215.23 215.23 }
@order { 4 } @gain { 1 } @interval { 100 } @drawcircle { 1 } @drawangles
{ 1 } @drawcontrib { 1 } @bgcolor { 0.76 0.76 0.76 1 } @bordercolor
{ 0.7 0.7 0.7 1 } @txcolor { 0 0 0 7 } @phcolor { 1 0 0 1 } @nhcolor
{ 0 0 1 1 } @patching_rect { 0 0 215.23 215.23 } @order { 4 } @gain
{ 1 } @interval { 100 } @drawcircle { 1 } @drawangles { 1 } @drawcontrib
{ 1 } @bgcolor { 0.76 0.76 0.76 1 } @bordercolor { 0.7 0.7 0.7 1 }
@txcolor { 0 0 0 7 } @phcolor { 1 0 0 1 } @nhcolor { 0 0 1 1 };
#X obj 116 228 hoa.scope~ @order [ 4 ] @patching_rect { 0 0 232 232
} @order { 4 } @gain { 1 } @interval { 100 } @drawcircle { 1 } @drawangles
{ 1 } @drawcontrib { 1 } @bgcolor { 0.76 0.76 0.76 1 } @bordercolor
{ 0.7 0.7 0.7 1 } @txcolor { 0 0 0 7 } @phcolor { 1 0 0 1 } @nhcolor
{ 0 0 1 1 } @patching_rect { 0 0 215.23 215.23 } @order { 4 } @gain
{ 1 } @interval { 100 } @drawcircle { 1 } @drawangles { 1 } @drawcontrib
{ 1 } @bgcolor { 0.76 0.76 0.76 1 } @bordercolor { 0.7 0.7 0.7 1 }
@txcolor { 0 0 0 7 } @phcolor { 1 0 0 1 } @nhcolor { 0 0 1 1 } @patching_rect
{ 0 0 215.23 215.23 } @order { 4 } @gain { 1 } @interval { 100 } @drawcircle
{ 1 } @drawangles { 1 } @drawcontrib { 1 } @bgcolor { 0.76 0.76 0.76
1 } @bordercolor { 0.7 0.7 0.7 1 } @txcolor { 0 0 0 7 } @phcolor {
1 0 0 1 } @nhcolor { 0 0 1 1 } @patching_rect { 0 0 215.23 215.23 }
@order { 4 } @gain { 1 } @interval { 100 } @drawcircle { 1 } @drawangles
{ 1 } @drawcontrib { 1 } @bgcolor { 0.76 0.76 0.76 1 } @bordercolor
{ 0.7 0.7 0.7 1 } @txcolor { 0 0 0 7 } @phcolor { 1 0 0 1 } @nhcolor
{ 0 0 1 1 } @patching_rect { 0 0 215.23 215.23 } @order { 4 } @gain
{ 1 } @interval { 100 } @drawcircle { 1 } @drawangles { 1 } @drawcontrib
{ 1 } @bgcolor { 0.76 0.76 0.76 1 } @bordercolor { 0.7 0.7 0.7 1 }
@txcolor { 0 0 0 7 } @phcolor { 1 0 0 1 } @nhcolor { 0 0 1 1 } @patching_rect
{ 0 0 215.23 215.23 } @order { 4 } @gain { 1 } @interval { 100 } @drawcircle
{ 1 } @drawangles { 1 } @drawcontrib { 1 } @bgcolor { 0.76 0.76 0.76
1 } @bordercolor { 0.7 0.7 0.7 1 } @txcolor { 0 0 0 7 } @phcolor {
1 0 0 1 } @nhcolor { 0 0 1 1 } @patching_rect { 0 0 215.23 215.23 }
@order { 4 } @gain { 1 } @interval { 100 } @drawcircle { 1 } @drawangles
{ 1 } @drawcontrib { 1 } @bgcolor { 0.76 0.76 0.76 1 } @bordercolor
{ 0.7 0.7 0.7 1 } @txcolor { 0 0 0 7 } @phcolor { 1 0 0 1 } @nhcolor
{ 0 0 1 1 } @patching_rect { 0 0 215.23 215.23 } @order { 4 } @gain
{ 1 } @interval { 100 } @drawcircle { 1 } @drawangles { 1 } @drawcontrib
{ 1 } @bgcolor { 0.76 0.76 0.76 1 } @bordercolor { 0.7 0.7 0.7 1 }
@txcolor { 0 0 0 7 } @phcolor { 1 0 0 1 } @nhcolor { 0 0 1 1 } @patching_rect
{ 0 0 215.23 215.23 } @order { 4 } @gain { 1 } @interval { 100 } @drawcircle
{ 1 } @drawangles { 1 } @drawcontrib { 1 } @bgcolor { 0.76 0.76 0.76
1 } @bordercolor { 0.7 0.7 0.7 1 } @txcolor { 0 0 0 7 } @phcolor {
1 0 0 1 } @nhcolor { 0 0 1 1 } @patching_rect { 0 0 215.23 215.23 }
@order { 4 } @gain { 1 } @interval { 100 } @drawcircle { 1 } @drawangles
{ 1 } @drawcontrib { 1 } @bgcolor { 0.76 0.76 0.76 1 } @bordercolor
{ 0.7 0.7 0.7 1 } @txcolor { 0 0 0 7 } @phcolor { 1 0 0 1 } @nhcolor
{ 0 0 1 1 } @patching_rect { 0 0 215.23 215.23 } @order { 4 } @gain
{ 1 } @interval { 100 } @drawcircle { 1 } @drawangles { 1 } @drawcontrib
{ 1 } @bgcolor { 0.76 0.76 0.76 1 } @bordercolor { 0.7 0.7 0.7 1 }
@txcolor { 0 0 0 7 } @phcolor { 1 0 0 1 } @nhcolor { 0 0 1 1 } @patching_rect
{ 0 0 215.23 215.23 } @order { 4 } @gain { 1 } @interval { 100 } @drawcircle
{ 1 } @drawangles { 1 } @drawcontrib { 1 } @bgcolor { 0.76 0.76 0.76
1 } @bordercolor { 0.7 0.7 0.7 1 } @txcolor { 0 0 0 7 } @phcolor {
1 0 0 1 } @nhcolor { 0 0 1 1 };
#X obj 162 -167 osc~ 220;
#X obj -127 -123 bng 15 250 50 0 empty empty empty 17 7 0 10 -262144
-1 -1;
#X text -141 -152 and an angle (radian) :;
#X obj -224 9 bng 15 250 50 0 empty empty empty 17 7 0 10 -262144 -1
-1;
#X obj 356 228 hoa.scope~ @order [ 4 ] @patching_rect { 0 0 232 232
} @order { 4 } @gain { 1 } @interval { 100 } @drawcircle { 1 } @drawangles
{ 1 } @drawcontrib { 1 } @bgcolor { 0.76 0.76 0.76 1 } @bordercolor
{ 0.7 0.7 0.7 1 } @txcolor { 0 0 0 7 } @phcolor { 1 0 0 1 } @nhcolor
{ 0 0 1 1 } @patching_rect { 0 0 215.23 215.23 } @order { 4 } @gain
{ 1 } @interval { 100 } @drawcircle { 1 } @drawangles { 1 } @drawcontrib
{ 1 } @bgcolor { 0.76 0.76 0.76 1 } @bordercolor { 0.7 0.7 0.7 1 }
@txcolor { 0 0 0 7 } @phcolor { 1 0 0 1 } @nhcolor { 0 0 1 1 } @patching_rect
{ 0 0 215.23 215.23 } @order { 4 } @gain { 1 } @interval { 100 } @drawcircle
{ 1 } @drawangles { 1 } @drawcontrib { 1 } @bgcolor { 0.76 0.76 0.76
1 } @bordercolor { 0.7 0.7 0.7 1 } @txcolor { 0 0 0 7 } @phcolor {
1 0 0 1 } @nhcolor { 0 0 1 1 } @patching_rect { 0 0 215.23 215.23 }
@order { 4 } @gain { 1 } @interval { 100 } @drawcircle { 1 } @drawangles
{ 1 } @drawcontrib { 1 } @bgcolor { 0.76 0.76 0.76 1 } @bordercolor
{ 0.7 0.7 0.7 1 } @txcolor { 0 0 0 7 } @phcolor { 1 0 0 1 } @nhcolor
{ 0 0 1 1 } @patching_rect { 0 0 215.23 215.23 } @order { 4 } @gain
{ 1 } @interval { 100 } @drawcircle { 1 } @drawangles { 1 } @drawcontrib
{ 1 } @bgcolor { 0.76 0.76 0.76 1 } @bordercolor { 0.7 0.7 0.7 1 }
@txcolor { 0 0 0 7 } @phcolor { 1 0 0 1 } @nhcolor { 0 0 1 1 } @patching_rect
{ 0 0 215.23 215.23 } @order { 4 } @gain { 1 } @interval { 100 } @drawcircle
{ 1 } @drawangles { 1 } @drawcontrib { 1 } @bgcolor { 0.76 0.76 0.76
1 } @bordercolor { 0.7 0.7 0.7 1 } @txcolor { 0 0 0 7 } @phcolor {
1 0 0 1 } @nhcolor { 0 0 1 1 } @patching_rect { 0 0 215.23 215.23 }
@order { 4 } @gain { 1 } @interval { 100 } @drawcircle { 1 } @drawangles
{ 1 } @drawcontrib { 1 } @bgcolor { 0.76 0.76 0.76 1 } @bordercolor
{ 0.7 0.7 0.7 1 } @txcolor { 0 0 0 7 } @phcolor { 1 0 0 1 } @nhcolor
{ 0 0 1 1 } @patching_rect { 0 0 215.23 215.23 } @order { 4 } @gain
{ 1 } @interval { 100 } @drawcircle { 1 } @drawangles { 1 } @drawcontrib
{ 1 } @bgcolor { 0.76 0.76 0.76 1 } @bordercolor { 0.7 0.7 0.7 1 }
@txcolor { 0 0 0 7 } @phcolor { 1 0 0 1 } @nhcolor { 0 0 1 1 } @patching_rect
{ 0 0 215.23 215.23 } @order { 4 } @gain { 1 } @interval { 100 } @drawcircle
{ 1 } @drawangles { 1 } @drawcontrib { 1 } @bgcolor { 0.76 0.76 0.76
1 } @bordercolor { 0.7 0.7 0.7 1 } @txcolor { 0 0 0 7 } @phcolor {
1 0 0 1 } @nhcolor { 0 0 1 1 } @patching_rect { 0 0 215.23 215.23 }
@order { 4 } @gain { 1 } @interval { 100 } @drawcircle { 1 } @drawangles
{ 1 } @drawcontrib { 1 } @bgcolor { 0.76 0.76 0.76 1 } @bordercolor
{ 0.7 0.7 0.7 1 } @txcolor { 0 0 0 7 } @phcolor { 1 0 0 1 } @nhcolor
{ 0 0 1 1 } @patching_rect { 0 0 215.23 215.23 } @order { 4 } @gain
{ 1 } @interval { 100 } @drawcircle { 1 } @drawangles { 1 } @drawcontrib
{ 1 } @bgcolor { 0.76 0.76 0.76 1 } @bordercolor { 0.7 0.7 0.7 1 }
@txcolor { 0 0 0 7 } @phcolor { 1 0 0 1 } @nhcolor { 0 0 1 1 } @patching_rect
{ 0 0 215.23 215.23 } @order { 4 } @gain { 1 } @interval { 100 } @drawcircle
{ 1 } @drawangles { 1 } @drawcontrib { 1 } @bgcolor { 0.76 0.76 0.76
1 } @bordercolor { 0.7 0.7 0.7 1 } @txcolor { 0 0 0 7 } @phcolor {
1 0 0 1 } @nhcolor { 0 0 1 1 } @patching_rect { 0 0 215.23 215.23 }
@order { 4 } @gain { 1 } @interval { 100 } @drawcircle { 1 } @drawangles
{ 1 } @drawcontrib { 1 } @bgcolor { 0.76 0.76 0.76 1 } @bordercolor
{ 0.7 0.7 0.7 1 } @txcolor { 0 0 0 7 } @phcolor { 1 0 0 1 } @nhcolor
{ 0 0 1 1 };
#X obj 581 3 loadbang;
#X msg 581 30 0.333;
#X text 129 456 The soundfield is kept intact.;
#X msg -224 77 wide \$1 \$2;
#X text 355 457 The sound field is squeezed (around 0 degrees following
the fisheye factor).;
#X text -234 451 The sound field is deformed by the simulation of virtual
microphones with an irregular repartition over the circle and eclectic
directivities.;
#X text -248 -30 Set microphone directity with an index;
#X obj -272 -113 loadbang;
#X msg -272 -84 9;
#X msg -231 -53 0.2;
#X msg -308 -85 8;
#X msg -290 -51 0;
#X obj -6 -130 loadbang;
#X msg -6 -101 5;
#X msg 35 -70 0.3;
#X msg -31 -71 7;
#X msg 10 -40 3.1;
#X obj 144 155 hoa.decoder~ 4 0 10 -----;
#X connect 1 0 22 0;
#X connect 1 0 23 0;
#X connect 1 0 24 0;
#X connect 1 1 22 1;
#X connect 1 1 23 1;
#X connect 1 1 24 1;
#X connect 1 2 22 2;
#X connect 1 2 23 2;
#X connect 1 2 24 2;
#X connect 1 3 22 3;
#X connect 1 3 23 3;
#X connect 1 3 24 3;
#X connect 1 4 22 4;
#X connect 1 4 23 4;
#X connect 1 4 24 4;
#X connect 1 5 22 5;
#X connect 1 5 23 5;
#X connect 1 5 24 5;
#X connect 1 6 22 6;
#X connect 1 6 23 6;
#X connect 1 6 24 6;
#X connect 1 7 22 7;
#X connect 1 7 23 7;
#X connect 1 7 24 7;
#X connect 1 8 22 8;
#X connect 1 8 23 8;
#X connect 1 8 24 8;
#X connect 1 9 22 9;
#X connect 1 9 23 9;
#X connect 1 9 24 9;
#X connect 2 0 1 0;
#X connect 2 1 1 1;
#X connect 2 2 1 2;
#X connect 2 3 1 3;
#X connect 2 4 1 4;
#X connect 2 5 1 5;
#X connect 2 6 1 6;
#X connect 2 7 1 7;
#X connect 2 8 1 8;
#X connect 3 0 7 1;
#X connect 4 0 3 0;
#X connect 5 0 6 0;
#X connect 6 0 8 0;
#X connect 7 0 2 1;
#X connect 8 0 7 0;
#X connect 13 0 15 0;
#X connect 14 0 15 1;
#X connect 14 0 35 0;
#X connect 15 0 16 0;
#X connect 16 0 23 0;
#X connect 18 0 20 0;
#X connect 19 0 20 1;
#X connect 19 0 37 0;
#X connect 20 0 42 0;
#X connect 22 0 38 0;
#X connect 22 0 56 0;
#X connect 22 1 38 1;
#X connect 22 1 56 1;
#X connect 22 2 38 2;
#X connect 22 2 56 2;
#X connect 22 3 38 3;
#X connect 22 3 56 3;
#X connect 22 4 38 4;
#X connect 22 4 56 4;
#X connect 22 5 38 5;
#X connect 22 5 56 5;
#X connect 22 6 38 6;
#X connect 22 6 56 6;
#X connect 22 7 38 7;
#X connect 22 7 56 7;
#X connect 22 8 38 8;
#X connect 22 8 56 8;
#X connect 23 0 32 0;
#X connect 23 0 56 0;
#X connect 23 1 32 1;
#X connect 23 1 56 1;
#X connect 23 2 32 2;
#X connect 23 2 56 2;
#X connect 23 3 32 3;
#X connect 23 3 56 3;
#X connect 23 4 32 4;
#X connect 23 4 56 4;
#X connect 23 5 32 5;
#X connect 23 5 56 5;
#X connect 23 6 32 6;
#X connect 23 6 56 6;
#X connect 23 7 32 7;
#X connect 23 7 56 7;
#X connect 23 8 32 8;
#X connect 23 8 56 8;
#X connect 24 0 33 0;
#X connect 24 0 56 0;
#X connect 24 1 33 1;
#X connect 24 1 56 1;
#X connect 24 2 33 2;
#X connect 24 2 56 2;
#X connect 24 3 33 3;
#X connect 24 3 56 3;
#X connect 24 4 33 4;
#X connect 24 4 56 4;
#X connect 24 5 33 5;
#X connect 24 5 56 5;
#X connect 24 6 33 6;
#X connect 24 6 56 6;
#X connect 24 7 33 7;
#X connect 24 7 56 7;
#X connect 24 8 33 8;
#X connect 24 8 56 8;
#X connect 29 0 22 10;
#X connect 34 0 2 0;
#X connect 35 0 13 0;
#X connect 37 0 18 0;
#X connect 39 0 40 0;
#X connect 40 0 29 0;
#X connect 42 0 23 0;
#X connect 46 0 47 0;
#X connect 46 0 49 0;
#X connect 47 0 18 0;
#X connect 47 0 48 0;
#X connect 48 0 19 0;
#X connect 49 0 50 0;
#X connect 49 0 18 0;
#X connect 50 0 19 0;
#X connect 51 0 52 0;
#X connect 51 0 54 0;
#X connect 52 0 53 0;
#X connect 52 0 13 0;
#X connect 53 0 14 0;
#X connect 54 0 55 0;
#X connect 54 0 13 0;
#X connect 55 0 14 0;
#X connect 56 0 9 0;
#X connect 56 1 9 1;
#X connect 56 2 9 2;
#X connect 56 3 9 3;
#X connect 56 4 9 4;
#X connect 56 5 9 5;
#X connect 56 6 9 6;
#X connect 56 7 9 7;
#X connect 56 8 9 8;
#X connect 56 9 9 9;
#X coords 0 782 1 781 100 60 0;
