#N canvas 325 230 663 297 10;
#X obj -237 17 outlet~;
#X obj 24 12 outlet~;
#X obj -437 -129 tgl 15 0 empty empty empty 0 -6 0 8 -262144 -1 -1
1 1;
#X obj -237 -68 inlet~;
#X obj -219 -100 inlet~;
#X obj -200 -126 inlet~;
#X obj -182 -158 inlet~;
#X obj -163 -70 inlet~;
#X obj -144 -102 inlet~;
#X obj -126 -128 inlet~;
#X obj -369 -139 loadbang;
#X msg -438 -159 1;
#X obj -237 -34 hoa.decoder~ 3 2 binaural small-------------;
#X msg -413 -106 set 1024 1 1;
#X obj -439 33 switch~ 1024 1 1;
#X connect 2 0 14 0;
#X connect 3 0 12 0;
#X connect 4 0 12 1;
#X connect 5 0 12 2;
#X connect 6 0 12 3;
#X connect 7 0 12 4;
#X connect 8 0 12 5;
#X connect 9 0 12 6;
#X connect 10 0 11 0;
#X connect 10 0 13 0;
#X connect 11 0 2 0;
#X connect 12 0 0 0;
#X connect 12 1 1 0;
#X connect 13 0 14 0;
#X coords 0 297 1 296 100 60 0;
