#N canvas 355 58 668 587 10;
#X obj -425 -465 cnv 15 552 40 empty \$0-pddp.cnv.header hoa.freeverb~
3 12 0 18 -204280 -1 0;
#X msg -129 -251 wet \$1;
#X msg -62 -251 dry \$1;
#X obj -218 -317 phasor~ 1.33;
#X msg 8 -249 damp \$1;
#X msg 75 -249 size \$1;
#X msg -49 -114 spread \$1;
#X msg -129 -114 freeze \$1;
#X text -422 -443 An implementation of the freeverb algorithm for ambisonics.
;
#X msg 53 -115 fspread \$1;
#X obj -365 -317 phasor~ 1;
#X msg -16 -414 \; pd dsp 1;
#X msg 76 -412 \; pd dsp 0;
#X text -309 80 Eliott Paris © 2012-2013 CICM / Universite Paris 8
;
#X text -309 64 hoalibrary | Julien Colafrancesco \, Pierre Guillot
;
#X text -424 -425 hoa.freeverb~ is based on Schroeder/Moorer reverberation
model that uses eight parallel comb filters and four cascaded allpass
filters adapted to ambisonic domain.;
#X obj -365 -189 hoa.scope~ @size 153 153 @fontname Helvetica @fontweight
normal @fontslant roman @fontsize 11 @receive (null) @send (null) @order
3 @gain 1 @interval 20 @bgcolor 0.7 0.7 0.7 1 @bdcolor 0.5 0.5 0.5
1 @phcolor 1 0 0 1 @nhcolor 0 0 1 1;
#X obj -365 -220 hoa.freeverb~ 3 ---------;
#X obj -365 -285 hoa.map~ 3 2 ------------;
#X obj -129 -279 c.number @size 53 17 @fontname Helvetica @fontweight
normal @fontslant roman @fontsize 11 @receive (null) @send (null) @presetname
(null) @min 0 @max 1 @minmax 0 1 @decimal 6 @bgcolor 0.75 0.75 0.75
1 @bdcolor 0.5 0.5 0.5 1 @textcolor 0 0 0 1;
#X obj -62 -279 c.number @size 53 17 @fontname Helvetica @fontweight
normal @fontslant roman @fontsize 11 @receive (null) @send (null) @presetname
(null) @min 0 @max 1 @minmax 0 1 @decimal 6 @bgcolor 0.75 0.75 0.75
1 @bdcolor 0.5 0.5 0.5 1 @textcolor 0 0 0 1;
#X obj 8 -279 c.number @size 53 17 @fontname Helvetica @fontweight
normal @fontslant roman @fontsize 11 @receive (null) @send (null) @presetname
(null) @min 0 @max 1 @minmax 0 1 @decimal 6 @bgcolor 0.75 0.75 0.75
1 @bdcolor 0.5 0.5 0.5 1 @textcolor 0 0 0 1;
#X obj -129 -207 s hoafv;
#X obj 8 -207 s hoafv;
#X text -119 -298 Wet;
#X text -54 -299 Dry;
#X text 14 -299 Damping;
#X obj 75 -279 c.number @size 53 17 @fontname Helvetica @fontweight
normal @fontslant roman @fontsize 11 @receive (null) @send (null) @presetname
(null) @min 0 @max 1 @minmax 0 1 @decimal 6 @bgcolor 0.75 0.75 0.75
1 @bdcolor 0.5 0.5 0.5 1 @textcolor 0 0 0 1;
#X text 81 -299 Size;
#X obj 8 -348 c.loadmess 0.5;
#X obj 75 -328 c.loadmess 0.75;
#X obj -419 -257 r hoafv;
#X text -131 -166 Freeze;
#X obj -129 -67 s hoafv;
#X obj 53 -66 s hoafv;
#X obj -129 -143 c.toggle @size 15 15 @fontname Helvetica @fontweight
normal @fontslant roman @fontsize 11 @receive (null) @send (null) @presetname
(null) @bgcolor 0.75 0.75 0.75 1 @bdcolor 0.5 0.5 0.5 1 @crcolor 0.5
0.5 0.5 1;
#X msg 153 -115 lspread \$1;
#X obj 53 -148 c.number @size 53 17 @fontname Helvetica @fontweight
normal @fontslant roman @fontsize 11 @receive (null) @send (null) @presetname
(null) @min 0 @max 1 @minmax 0 1 @decimal 6 @bgcolor 0.75 0.75 0.75
1 @bdcolor 0.5 0.5 0.5 1 @textcolor 0 0 0 1;
#X obj 153 -148 c.number @size 53 17 @fontname Helvetica @fontweight
normal @fontslant roman @fontsize 11 @receive (null) @send (null) @presetname
(null) @min 0 @max 1 @minmax 0 1 @decimal 6 @bgcolor 0.75 0.75 0.75
1 @bdcolor 0.5 0.5 0.5 1 @textcolor 0 0 0 1;
#X obj -49 -148 c.number @size 53 17 @fontname Helvetica @fontweight
normal @fontslant roman @fontsize 11 @receive (null) @send (null) @presetname
(null) @min 0 @max 1 @minmax 0 1 @decimal 6 @bgcolor 0.75 0.75 0.75
1 @bdcolor 0.5 0.5 0.5 1 @textcolor 0 0 0 1;
#X text 150 -168 Late spread;
#X text 56 -167 First spread;
#X text -54 -167 Global spread;
#X obj 53 -198 c.loadmess 0.1;
#X obj -62 -328 c.loadmess 0;
#X obj -129 -348 c.loadmess 1;
#X obj -421 -377 c.loadmess 0 pol 1 1.5708;
#X obj -421 -349 c.loadmess 1 pol 1 -1.5708;
#X obj -364 15 hoa.dac~ 1:2 -----------;
#N canvas 249 118 450 300 binaural 0;
#X obj -237 17 outlet~;
#X obj -18 20 outlet~;
#X obj -437 -129 tgl 15 0 empty empty empty 0 -6 0 8 -262144 -1 -1
1 1;
#X obj -439 33 switch~ 512 1 1;
#X obj -237 -68 inlet~;
#X obj -222 -100 inlet~;
#X obj -206 -126 inlet~;
#X obj -191 -158 inlet~;
#X obj -175 -70 inlet~;
#X obj -159 -102 inlet~;
#X obj -144 -128 inlet~;
#X msg -413 -106 set 512 1 1;
#X obj -369 -139 loadbang;
#X msg -438 -159 1;
#X obj -313 -75 r binaural;
#X obj -237 -6 *~ 0.5;
#X obj -18 -6 *~ 0.5;
#X obj -355 -38 c.prepend pinnae;
#X obj -237 -34 hoa.decoder~ 3 binaural @pinnae small;
#X connect 2 0 3 0;
#X connect 4 0 18 0;
#X connect 5 0 18 1;
#X connect 6 0 18 2;
#X connect 7 0 18 3;
#X connect 8 0 18 4;
#X connect 9 0 18 5;
#X connect 10 0 18 6;
#X connect 11 0 3 0;
#X connect 12 0 13 0;
#X connect 12 0 11 0;
#X connect 13 0 2 0;
#X connect 14 0 17 0;
#X connect 15 0 0 0;
#X connect 16 0 1 0;
#X connect 17 0 18 0;
#X connect 18 0 15 0;
#X connect 18 1 16 0;
#X restore -364 -16 pd binaural ------------;
#X connect 1 0 22 0;
#X connect 2 0 22 0;
#X connect 3 0 18 1;
#X connect 4 0 23 0;
#X connect 5 0 23 0;
#X connect 6 0 34 0;
#X connect 7 0 33 0;
#X connect 9 0 34 0;
#X connect 10 0 18 0;
#X connect 17 0 16 0;
#X connect 17 0 49 0;
#X connect 17 1 16 1;
#X connect 17 1 49 1;
#X connect 17 2 16 2;
#X connect 17 2 49 2;
#X connect 17 3 16 3;
#X connect 17 3 49 3;
#X connect 17 4 16 4;
#X connect 17 4 49 4;
#X connect 17 5 16 5;
#X connect 17 5 49 5;
#X connect 17 6 16 6;
#X connect 17 6 49 6;
#X connect 18 0 17 0;
#X connect 18 1 17 1;
#X connect 18 2 17 2;
#X connect 18 3 17 3;
#X connect 18 4 17 4;
#X connect 18 5 17 5;
#X connect 18 6 17 6;
#X connect 19 0 1 0;
#X connect 20 0 2 0;
#X connect 21 0 4 0;
#X connect 27 0 5 0;
#X connect 29 0 21 0;
#X connect 30 0 27 0;
#X connect 31 0 17 0;
#X connect 35 0 7 0;
#X connect 36 0 34 0;
#X connect 37 0 9 0;
#X connect 38 0 36 0;
#X connect 39 0 6 0;
#X connect 43 0 37 0;
#X connect 43 0 39 0;
#X connect 43 0 38 0;
#X connect 44 0 20 0;
#X connect 45 0 19 0;
#X connect 46 0 18 0;
#X connect 47 0 18 0;
#X connect 49 0 48 0;
#X connect 49 1 48 1;
#X coords 0 587 1 586 100 60 0;
