#N canvas 64 88 1205 608 10;
#X obj -524 -318 hoa.map @patching_rect { 0 0 300 300 } @bgcolor {
0.9 0.9 0.9 1 } @bgcolor2 { 0.75 0.75 0.75 1 } @bdcolor { 0 0 0 1 }
@selcolor { 0.36 0.36 0.37 0.5 } @outputmode { 0 } @zoom { 0.277677
} sources_parameters { source 0 -0.0240087 -2.01673 0 0.2 0.2 0.2 1
s_nosymbol source 1 -1.00837 0.960348 0 0.2 0.2 0.2 1 s_nosymbol }
groups_parameters { group 0 2 0 1 0 0.2 0.2 0.2 1 s_nosymbol } slots_parameters
{ slot 0 source 0 -1.60508 -1.11746 0 0.2 0.2 0.2 1 s_nosymbol source
1 1.76064 1.2611 0 0.2 0.2 0.2 1 s_nosymbol group 0 2 0 1 0 0.2 0.2
0.2 1 s_nosymbol slot 1 source 0 -1.54413 1.7473 0 0.2 0.2 0.2 1 s_nosymbol
source 1 1.70667 -2.15365 0 0.2 0.2 0.2 1 s_nosymbol group 0 2 0 1
0 0.2 0.2 0.2 1 s_nosymbol slot 2 source 0 -1.54413 1.7473 0 0.2 0.2
0.2 1 s_nosymbol source 1 -2.17397 -1.7473 0 0.2 0.2 0.2 1 s_nosymbol
group 0 2 0 1 0 0.2 0.2 0.2 1 s_nosymbol } @patching_rect [ 0 0 300
300 ] @bgcolor [ 0.9 0.9 0.9 1 ] @bgcolor2 [ 0.75 0.75 0.75 1 ] @bdcolor
[ 0 0 0 1 ] @selcolor [ 0.36 0.36 0.37 0.5 ] @outputmode [ 0 ] @zoom
[ 0.312488 ] sources_parameters [ source 0 -1.49339 -0.0853365 0 0.2
0.2 0.2 1 s_nosymbol source 1 1.0027 0.768029 1 0.2 0.2 0.2 1 s_nosymbol
] groups_parameters [ group 0 2 0 1 0 0.2 0.2 0.2 1 s_nosymbol ] slots_parameters
[ slot 0 source 0 -1.60508 -1.11746 0 0.2 0.2 0.2 1 s_nosymbol source
1 1.76064 1.2611 0 0.2 0.2 0.2 1 s_nosymbol group 0 2 0 1 0 0.2 0.2
0.2 1 s_nosymbol slot 1 source 0 -1.54413 1.7473 0 0.2 0.2 0.2 1 s_nosymbol
source 1 1.70667 -2.15365 0 0.2 0.2 0.2 1 s_nosymbol group 0 2 0 1
0 0.2 0.2 0.2 1 s_nosymbol slot 2 source 0 -1.54413 1.7473 0 0.2 0.2
0.2 1 s_nosymbol source 1 -2.17397 -1.7473 0 0.2 0.2 0.2 1 s_nosymbol
group 0 2 0 1 0 0.2 0.2 0.2 1 s_nosymbol ] @patching_rect [ 0 0 300
300 ] @bgcolor [ 0.9 0.9 0.9 1 ] @bgcolor2 [ 0.75 0.75 0.75 1 ] @bdcolor
[ 0 0 0 1 ] @selcolor [ 0.36 0.36 0.37 0.5 ] @outputmode [ 0 ] @zoom
[ 0.312488 ] sources_parameters [ source 0 -1.8933 -1.07654 0 0.2 0.2
0.2 1 s_nosymbol source 1 0.608295 1.66711 0 0.7 0 0.6 1 Jimi Hendrix
] groups_parameters [ group 0 2 0 1 0 0.2 0.9 0 1 Band of Gypsys ]
slots_parameters [ slot 0 source 0 -1.60508 -1.11746 0 0.2 0.2 0.2
1 s_nosymbol source 1 1.76064 1.2611 0 0.2 0.2 0.2 1 s_nosymbol group
0 2 0 1 0 0.2 0.2 0.2 1 s_nosymbol slot 1 source 0 -1.54413 1.7473
0 0.2 0.2 0.2 1 s_nosymbol source 1 1.70667 -2.15365 0 0.2 0.2 0.2
1 s_nosymbol group 0 2 0 1 0 0.2 0.2 0.2 1 s_nosymbol slot 2 source
0 -1.54413 1.7473 0 0.2 0.2 0.2 1 s_nosymbol source 1 -2.17397 -1.7473
0 0.2 0.2 0.2 1 s_nosymbol group 0 2 0 1 0 0.2 0.2 0.2 1 s_nosymbol
] @patching_rect [ 0 0 300 300 ] @bgcolor [ 0.9 0.9 0.9 1 ] @bgcolor2
[ 0.75 0.75 0.75 1 ] @bdcolor [ 0 0 0 1 ] @selcolor [ 0.36 0.36 0.37
0.5 ] @outputmode [ 0 ] @zoom [ 0.312488 ] sources_parameters [ source
0 -2.34675 2.51743 0 0.2 0.2 0.2 1 s_nosymbol source 1 -2.30409 -0.960036
0 0.2 0.2 0.2 1 s_nosymbol ] groups_parameters [ group 0 2 0 1 0 0.2
0.2 0.2 1 s_nosymbol ] slots_parameters [ slot 0 source 0 -1.60508
-1.11746 0 0.2 0.2 0.2 1 s_nosymbol source 1 1.76064 1.2611 0 0.2 0.2
0.2 1 s_nosymbol group 0 2 0 1 0 0.2 0.2 0.2 1 s_nosymbol slot 1 source
0 -2.34675 2.51743 0 0.2 0.2 0.2 1 s_nosymbol source 1 1.70673 -1.92007
0 0.2 0.2 0.2 1 s_nosymbol group 0 2 0 1 0 0.2 0.2 0.2 1 s_nosymbol
slot 2 source 0 -2.34675 2.51743 0 0.2 0.2 0.2 1 s_nosymbol source
1 -2.30409 -0.960036 0 0.2 0.2 0.2 1 s_nosymbol group 0 2 0 1 0 0.2
0.2 0.2 1 s_nosymbol slot 3 source 0 1.32585 -1.65066 0 0.2 0.2 0.2
1 s_nosymbol source 1 1.11177 0.369875 0 0.2 0.2 0.2 1 s_nosymbol group
0 2 0 1 0 0.2 0.2 0.2 1 s_nosymbol ] @patching_rect [ 0 0 300 300 ]
@bgcolor [ 0.9 0.9 0.9 1 ] @bgcolor2 [ 0.75 0.75 0.75 1 ] @bdcolor
[ 0 0 0 1 ] @selcolor [ 0.36 0.36 0.37 0.5 ] @outputmode [ 0 ] @zoom
[ 0.312488 ] sources_parameters [ source 0 -2.34675 2.51743 0 0.2 0.2
0.2 1 s_nosymbol source 1 -2.30409 -0.960036 0 0.2 0.2 0.2 1 s_nosymbol
] groups_parameters [ group 0 2 0 1 0 0.2 0.2 0.2 1 s_nosymbol ] slots_parameters
[ slot 0 source 0 -1.60508 -1.11746 0 0.2 0.2 0.2 1 s_nosymbol source
1 1.76064 1.2611 0 0.2 0.2 0.2 1 s_nosymbol group 0 2 0 1 0 0.2 0.2
0.2 1 s_nosymbol slot 1 source 0 -2.34675 2.51743 0 0.2 0.2 0.2 1 s_nosymbol
source 1 1.70673 -1.92007 0 0.2 0.2 0.2 1 s_nosymbol group 0 2 0 1
0 0.2 0.2 0.2 1 s_nosymbol slot 2 source 0 -2.34675 2.51743 0 0.2 0.2
0.2 1 s_nosymbol source 1 -2.30409 -0.960036 0 0.2 0.2 0.2 1 s_nosymbol
group 0 2 0 1 0 0.2 0.2 0.2 1 s_nosymbol slot 3 source 0 1.32585 -1.65066
0 0.2 0.2 0.2 1 s_nosymbol source 1 1.11177 0.369875 0 0.2 0.2 0.2
1 s_nosymbol group 0 2 0 1 0 0.2 0.2 0.2 1 s_nosymbol ] @patching_rect
[ 0 0 300 300 ] @bgcolor [ 0.9 0.9 0.9 1 ] @bgcolor2 [ 0.75 0.75 0.75
1 ] @bdcolor [ 0 0 0 1 ] @selcolor [ 0.36 0.36 0.37 0.5 ] @outputmode
[ 0 ] @zoom [ 0.312488 ] sources_parameters [ source 0 -2.34675 2.51743
0 0.2 0.2 0.2 1 s_nosymbol source 1 -2.30409 -0.960036 0 0.2 0.2 0.2
1 s_nosymbol ] groups_parameters [ group 0 2 0 1 0 0.2 0.2 0.2 1 s_nosymbol
] slots_parameters [ slot 0 source 0 -1.60508 -1.11746 0 0.2 0.2 0.2
1 s_nosymbol source 1 1.76064 1.2611 0 0.2 0.2 0.2 1 s_nosymbol group
0 2 0 1 0 0.2 0.2 0.2 1 s_nosymbol slot 1 source 0 -2.34675 2.51743
0 0.2 0.2 0.2 1 s_nosymbol source 1 1.70673 -1.92007 0 0.2 0.2 0.2
1 s_nosymbol group 0 2 0 1 0 0.2 0.2 0.2 1 s_nosymbol slot 2 source
0 -2.34675 2.51743 0 0.2 0.2 0.2 1 s_nosymbol source 1 -2.30409 -0.960036
0 0.2 0.2 0.2 1 s_nosymbol group 0 2 0 1 0 0.2 0.2 0.2 1 s_nosymbol
slot 3 source 0 1.32585 -1.65066 0 0.2 0.2 0.2 1 s_nosymbol source
1 1.11177 0.369875 0 0.2 0.2 0.2 1 s_nosymbol group 0 2 0 1 0 0.2 0.2
0.2 1 s_nosymbol ];
#X obj -538 -384 nbx 10 14 -1e+37 1e+37 0 0 empty empty empty 0 -8
0 10 -262144 -1 -1 0.312488 256;
#X msg -524 -352 zoom \$1;
#X obj -541 -316 vsl 15 294 0 127 0 0 empty empty empty 0 -9 0 10 -262144
-1 -1 9228 1;
#X obj -588 -231 / 128;
#X text -537 -403 Set the zoom;
#X obj -587 -364 loadbang;
#X msg -587 -339 40;
#X obj -429 -374 receive map_slot;
#X text -190 -363 Store a preset at a defined slot;
#X msg -188 -316 slot store \$1;
#X obj -188 -340 nbx 5 14 0 1e+37 0 0 empty empty empty 0 -8 0 10 -262144
-1 -1 0 256;
#X msg -93 -301 slot storeagain;
#X text -92 -338 Store again the last slot stored (overwrite);
#X obj -191 -130 send map_slot;
#X msg -83 -259 slot storenext;
#X text -81 -281 Store the next slot (overwrite if need);
#X msg -77 -220 slot storeend;
#X text -75 -242 Store at new end slot;
#X text -77 -199 Store the first empty slot (store at new end slot
if need);
#X msg -75 -164 slot storeempty;
#X obj 184 -366 nbx 5 14 0 1e+37 0 0 empty empty empty 0 -8 0 10 -262144
-1 -1 0 256;
#X obj 184 -238 send map_slot;
#X text 182 -388 Copy a slot in another;
#X msg 184 -322 slot copy \$1 \$1;
#X obj 184 -343 pack 0 0;
#X obj 245 -366 nbx 5 14 0 1e+37 0 0 empty empty empty 0 -8 0 10 -262144
-1 -1 0 256;
#X text 310 -371 Insert a slot at index and increase nexts;
#X obj 314 -348 nbx 5 14 0 1e+37 0 0 empty empty empty 0 -8 0 10 -262144
-1 -1 0 256;
#X msg 314 -325 slot insert \$1;
#X text 321 -291 Renumber slots : 0 \, 1 \, 2 \, 3...;
#X msg 322 -267 slot renumber;
#X text 374 -210 Remove a slot;
#X obj 374 -194 nbx 5 14 0 1e+37 0 0 empty empty empty 0 -8 0 10 -262144
-1 -1 0 256;
#X text 171 -209 Remove a slot and decrease nexts;
#X msg 173 -171 slot delete \$1;
#X obj 173 -194 nbx 5 14 0 1e+37 0 0 empty empty empty 0 -8 0 10 -262144
-1 -1 0 256;
#X msg 374 -169 slot remove \$1;
#X msg 474 -169 slot renumber;
#X text 473 -196 Remove all slots;
#X obj 173 -128 send map_slot;
#X obj 203 -63 nbx 5 14 0 1e+37 0 0 empty empty empty 0 -8 0 10 -262144
-1 -1 0 256;
#X obj 203 45 send map_slot;
#X obj 203 -40 pack 0 0;
#X obj 264 -63 nbx 5 14 0 1e+37 0 0 empty empty empty 0 -8 0 10 -262144
-1 -1 0 256;
#X text 201 -105 Store a source at a defined slot;
#X msg 203 -19 slot storesource \$1 \$1;
#X text 200 -84 Slot;
#X text 260 -84 Source index;
#X obj 402 -63 nbx 5 14 0 1e+37 0 0 empty empty empty 0 -8 0 10 -262144
-1 -1 0 256;
#X obj 402 -40 pack 0 0;
#X obj 463 -63 nbx 5 14 0 1e+37 0 0 empty empty empty 0 -8 0 10 -262144
-1 -1 0 256;
#X text 399 -84 Slot;
#X text 400 -105 Store a group at a defined slot;
#X text 459 -84 Group index;
#X msg 402 -19 slot storesource \$1 \$1;
#X obj -181 -67 nbx 5 14 0 1e+37 0 0 empty empty empty 0 -8 0 10 -262144
-1 -1 0 256;
#X msg -181 -23 slot \$1;
#X text -183 -109 Recall a slot and interpolate;
#X text -190 -97 between two consecutives slots;
#X obj -181 7 send map_slot;
#X obj 18 -65 nbx 5 14 0 1e+37 0 0 empty empty empty 0 -8 0 10 -262144
-1 -1 0 256;
#X text 9 -95 between two consecutives slots;
#X obj 18 18 send map_slot;
#X msg 18 -21 slot recall 0 2 \$1;
#X obj -580 85 send map_slot;
#X msg -580 55 slot write /Users/Pierre/Desktop/2001_A_Space_Odissey.pd
;
#X text -583 -1 Save presets in text file;
#X text 9 -107 Recall a slot and interpolate;
#X obj -206 117 send map_slot;
#X msg -206 88 slot read /Users/Pierre/Desktop/2001_A_Space_Odissey.pd
;
#X text -209 41 Read presets in text file;
#X text -583 14 hoa.map needs an absolute path. Here is an example
but this is my name therefor it won't work...;
#X text -209 57 hoa.map needs an absolute path. Here is an example.
;
#X text -186 -429 hoa.map can save presets. It allows you to create
\, recall \, make interpolation between differents presets. The presets
are saved within the patcher when you save it and can be saved in text
file to recall them later.;
#X connect 1 0 2 0;
#X connect 2 0 0 0;
#X connect 3 0 4 0;
#X connect 4 0 1 0;
#X connect 6 0 7 0;
#X connect 7 0 3 0;
#X connect 8 0 0 0;
#X connect 10 0 14 0;
#X connect 11 0 10 0;
#X connect 12 0 14 0;
#X connect 15 0 14 0;
#X connect 17 0 14 0;
#X connect 20 0 14 0;
#X connect 21 0 25 0;
#X connect 24 0 22 0;
#X connect 25 0 24 0;
#X connect 26 0 25 1;
#X connect 28 0 29 0;
#X connect 29 0 22 0;
#X connect 31 0 22 0;
#X connect 33 0 37 0;
#X connect 35 0 40 0;
#X connect 36 0 35 0;
#X connect 37 0 40 0;
#X connect 38 0 40 0;
#X connect 41 0 43 0;
#X connect 43 0 46 0;
#X connect 44 0 43 1;
#X connect 46 0 42 0;
#X connect 49 0 50 0;
#X connect 50 0 55 0;
#X connect 51 0 50 1;
#X connect 55 0 42 0;
#X connect 56 0 57 0;
#X connect 57 0 60 0;
#X connect 61 0 64 0;
#X connect 64 0 63 0;
#X connect 66 0 65 0;
#X connect 70 0 69 0;