#N canvas 105 105 913 569 10;
#X obj -275 -363 cnv 15 552 40 empty \$0-pddp.cnv.header hoa.ringmod~
3 12 0 18 -204280 -1 0;
#X obj -105 -196 noise~;
#X obj 111 -205 hoa.pi 2;
#X obj 111 -224 loadbang;
#X obj 96 -186 *~;
#X obj 96 -243 phasor~ -0.3;
#X obj 331 -173 osc~ 220;
#X text 313 -337 Eliott Paris © 2012-2013 CICM / Universite Paris
8;
#X text 313 -353 hoalibrary | Julien Colafrancesco \, Pierre Guillot
;
#X obj -105 -37 hoa.scope~ @size 207 207 @fontname Helvetica @fontweight
normal @fontslant roman @fontsize 11 @receive (null) @send (null) @order
7 @gain 1 @interval 100 @bgcolor 0.76 0.76 0.76 1 @bdcolor 0.7 0.7
0.7 1 @phcolor 1 0 0 1 @nhcolor 0 0 1 1;
#X obj 331 -38 hoa.scope~ @size 208 208 @fontname Helvetica @fontweight
normal @fontslant roman @fontsize 11 @receive (null) @send (null) @order
7 @gain 1 @interval 100 @bgcolor 0.76 0.76 0.76 1 @bdcolor 0.7 0.7
0.7 1 @phcolor 1 0 0 1 @nhcolor 0 0 1 1;
#X msg 191 75 \; pd dsp 1;
#X msg 191 113 \; pd dsp 0;
#X msg -212 -133 diffusion \$1;
#X msg 394 -174 frequency \$1;
#X text -272 -341 An ambisonics soundfield ring modulation;
#X text -270 -323 hoa.ringmod~ creates a diffuse soundfield by modulating
the amplitude of the circular harmonics signals.;
#X obj -105 -106 hoa.ringmod~ 7 post @diffusion 0.7;
#X obj -105 -149 hoa.encoder~ 7 -------------------;
#X obj 115 31 hoa.dac~ 1:16 --------------------;
#X obj 115 -37 hoa.decoder~ 7 ambisonic 16 ------;
#X obj 331 -116 hoa.ringmod~ 7 no @frequency 17 --;
#X obj 394 -205 c.number @size 53 17 @fontname Helvetica @fontweight
normal @fontslant roman @fontsize 11 @receive (null) @send (null) @presetname
(null) @min (null) @max (null) @minmax (null) (null) @decimal 6 @bgcolor
0.75 0.75 0.75 1 @bdcolor 0.5 0.5 0.5 1 @textcolor 0 0 0 1;
#X obj 394 -235 c.loadmess 17;
#X text 331 -211 Frequency;
#X text 331 -201 (hertz);
#X msg -195 -222 frequency \$1;
#X obj -195 -253 c.number @size 53 17 @fontname Helvetica @fontweight
normal @fontslant roman @fontsize 11 @receive (null) @send (null) @presetname
(null) @min (null) @max (null) @minmax (null) (null) @decimal 6 @bgcolor
0.75 0.75 0.75 1 @bdcolor 0.5 0.5 0.5 1 @textcolor 0 0 0 1;
#X text -258 -259 Frequency;
#X text -258 -249 (hertz);
#X obj -195 -283 c.loadmess 9.7;
#X obj -212 -164 c.number @size 53 17 @fontname Helvetica @fontweight
normal @fontslant roman @fontsize 11 @receive (null) @send (null) @presetname
(null) @min 0 @max 1 @minmax 0 1 @decimal 6 @bgcolor 0.75 0.75 0.75
1 @bdcolor 0.5 0.5 0.5 1 @textcolor 0 0 0 1;
#X obj -212 -194 c.loadmess 0.7;
#X text -274 -156 (0 - 1);
#X text -274 -166 factor;
#X text -274 -176 Diffusion;
#X text 393 -139 No encoder mode;
#X text -219 -104 Post encoder mode;
#X connect 1 0 18 0;
#X connect 2 0 4 1;
#X connect 3 0 2 0;
#X connect 4 0 18 1;
#X connect 5 0 4 0;
#X connect 6 0 21 0;
#X connect 13 0 17 0;
#X connect 14 0 21 0;
#X connect 17 0 9 0;
#X connect 17 0 20 0;
#X connect 17 1 9 1;
#X connect 17 1 20 1;
#X connect 17 2 9 2;
#X connect 17 2 20 2;
#X connect 17 3 9 3;
#X connect 17 3 20 3;
#X connect 17 4 9 4;
#X connect 17 4 20 4;
#X connect 17 5 9 5;
#X connect 17 5 20 5;
#X connect 17 6 9 6;
#X connect 17 6 20 6;
#X connect 17 7 9 7;
#X connect 17 7 20 7;
#X connect 17 8 9 8;
#X connect 17 8 20 8;
#X connect 17 9 9 9;
#X connect 17 9 20 9;
#X connect 17 10 9 10;
#X connect 17 10 20 10;
#X connect 17 11 9 11;
#X connect 17 11 20 11;
#X connect 17 12 9 12;
#X connect 17 12 20 12;
#X connect 17 13 9 13;
#X connect 17 13 20 13;
#X connect 17 14 9 14;
#X connect 17 14 20 14;
#X connect 18 0 17 0;
#X connect 18 1 17 1;
#X connect 18 2 17 2;
#X connect 18 3 17 3;
#X connect 18 4 17 4;
#X connect 18 5 17 5;
#X connect 18 6 17 6;
#X connect 18 7 17 7;
#X connect 18 8 17 8;
#X connect 18 9 17 9;
#X connect 18 10 17 10;
#X connect 18 11 17 11;
#X connect 18 12 17 12;
#X connect 18 13 17 13;
#X connect 18 14 17 14;
#X connect 20 0 19 0;
#X connect 20 1 19 1;
#X connect 20 2 19 2;
#X connect 20 3 19 3;
#X connect 20 4 19 4;
#X connect 20 5 19 5;
#X connect 20 6 19 6;
#X connect 20 7 19 7;
#X connect 20 8 19 8;
#X connect 20 9 19 9;
#X connect 20 10 19 10;
#X connect 20 11 19 11;
#X connect 20 12 19 12;
#X connect 20 13 19 13;
#X connect 20 14 19 14;
#X connect 20 15 19 15;
#X connect 21 0 10 0;
#X connect 21 0 20 0;
#X connect 21 1 10 1;
#X connect 21 1 20 1;
#X connect 21 2 10 2;
#X connect 21 2 20 2;
#X connect 21 3 10 3;
#X connect 21 3 20 3;
#X connect 21 4 10 4;
#X connect 21 4 20 4;
#X connect 21 5 10 5;
#X connect 21 5 20 5;
#X connect 21 6 10 6;
#X connect 21 6 20 6;
#X connect 21 7 10 7;
#X connect 21 7 20 7;
#X connect 21 8 10 8;
#X connect 21 8 20 8;
#X connect 21 9 10 9;
#X connect 21 9 20 9;
#X connect 21 10 10 10;
#X connect 21 10 20 10;
#X connect 21 11 10 11;
#X connect 21 11 20 11;
#X connect 21 12 10 12;
#X connect 21 12 20 12;
#X connect 21 13 10 13;
#X connect 21 13 20 13;
#X connect 21 14 10 14;
#X connect 21 14 20 14;
#X connect 22 0 14 0;
#X connect 23 0 22 0;
#X connect 26 0 17 0;
#X connect 27 0 26 0;
#X connect 30 0 27 0;
#X connect 31 0 13 0;
#X connect 32 0 31 0;
#X coords 0 569 1 568 100 60 0;
