#N canvas 231 36 613 574 10;
#X obj -255 -564 cnv 15 552 40 empty \$0-pddp.cnv.header hoa.delay~
3 12 0 18 -204280 -1 0;
#X obj 29 -411 hoa.pi 2;
#X obj 29 -430 loadbang;
#X obj 14 -392 *~;
#X obj 14 -449 phasor~ -0.3;
#X msg 175 -506 \; pd dsp 1;
#X msg 174 -469 \; pd dsp 0;
#X obj -145 -414 osc~ 220;
#X text -230 -26 Eliott Paris © 2012-2013 CICM / Universite Paris
8;
#X text -230 -42 hoalibrary | Julien Colafrancesco \, Pierre Guillot
;
#X text 82 -116 1st argument is the order;
#X text 82 -97 2nd argument is the mode :;
#X text 112 -78 post : after an encoder;
#X text 111 -61 no : no encoder (direct synthesis);
#X obj -145 -291 hoa.scope~ @size 165 165 @fontname Helvetica @fontweight
normal @fontslant roman @fontsize 11 @receive (null) @send (null) @order
7 @gain 1 @interval 100 @bgcolor 0.7 0.7 0.7 1 @bdcolor 0.5 0.5 0.5
1 @phcolor 1 0 0 1 @nhcolor 0 0 1 1;
#X obj -148 -107 hoa.decoder~ 7 ambisonic 16;
#X obj -148 -76 hoa.dac~ 1:16 -------------;
#X obj -145 -370 hoa.encoder~ 7 ------------;
#X obj 123 -370 c.number @size 53 17 @fontname Helvetica @fontweight
normal @fontslant roman @fontsize 11 @receive (null) @send (null) @presetname
(null) @min 0 @max (null) @minmax 0 (null) @decimal 6 @bgcolor 0.75
0.75 0.75 1 @bdcolor 0.5 0.5 0.5 1 @textcolor 0 0 0 1;
#X obj 222 -369 c.number @size 53 17 @fontname Helvetica @fontweight
normal @fontslant roman @fontsize 11 @receive (null) @send (null) @presetname
(null) @min 0 @max (null) @minmax 0 (null) @decimal 0 @bgcolor 0.75
0.75 0.75 1 @bdcolor 0.5 0.5 0.5 1 @textcolor 0 0 0 1;
#X obj 222 -239 c.number @size 53 17 @fontname Helvetica @fontweight
normal @fontslant roman @fontsize 11 @receive (null) @send (null) @presetname
(null) @min 0 @max 1 @minmax 0 1 @decimal 6 @bgcolor 0.75 0.75 0.75
1 @bdcolor 0.5 0.5 0.5 1 @textcolor 0 0 0 1;
#X obj 123 -240 c.number @size 53 17 @fontname Helvetica @fontweight
normal @fontslant roman @fontsize 11 @receive (null) @send (null) @presetname
(null) @min 0 @max (null) @minmax 0 (null) @decimal 6 @bgcolor 0.75
0.75 0.75 1 @bdcolor 0.5 0.5 0.5 1 @textcolor 0 0 0 1;
#X obj 222 -277 c.loadmess 0.75;
#X obj -145 -323 hoa.delay~ 7 post grain_env;
#X text -252 -542 An ambisonic sound field decorrelator.;
#X text -250 -524 hoa.delay~ allows you to delay the differents harmonics
depending on the harmonic number to decorrelate the harmonics and generate
a diffuse sound field.;
#X obj -231 -364 r hoadelay~;
#X obj 123 -175 s hoadelay~;
#X msg 123 -343 ms \$1;
#X msg 222 -340 sample \$1;
#X msg 123 -209 ramp \$1;
#X obj 123 -277 c.loadmess 100;
#X msg 222 -209 diff \$1;
#X obj 123 -305 s hoadelay~;
#X obj 123 -407 c.loadmess 1000;
#X obj 222 -407 c.loadmess 44100;
#X connect 1 0 3 1;
#X connect 2 0 1 0;
#X connect 3 0 17 1;
#X connect 4 0 3 0;
#X connect 7 0 17 0;
#X connect 15 0 16 0;
#X connect 15 1 16 1;
#X connect 15 2 16 2;
#X connect 15 3 16 3;
#X connect 15 4 16 4;
#X connect 15 5 16 5;
#X connect 15 6 16 6;
#X connect 15 7 16 7;
#X connect 15 8 16 8;
#X connect 15 9 16 9;
#X connect 15 10 16 10;
#X connect 15 11 16 11;
#X connect 15 12 16 12;
#X connect 15 13 16 13;
#X connect 15 14 16 14;
#X connect 15 15 16 15;
#X connect 17 0 23 0;
#X connect 17 1 23 1;
#X connect 17 2 23 2;
#X connect 17 3 23 3;
#X connect 17 4 23 4;
#X connect 17 5 23 5;
#X connect 17 6 23 6;
#X connect 17 7 23 7;
#X connect 17 8 23 8;
#X connect 17 9 23 9;
#X connect 17 10 23 10;
#X connect 17 11 23 11;
#X connect 17 12 23 12;
#X connect 17 13 23 13;
#X connect 17 14 23 14;
#X connect 18 0 28 0;
#X connect 19 0 29 0;
#X connect 20 0 32 0;
#X connect 21 0 30 0;
#X connect 22 0 20 0;
#X connect 23 0 14 0;
#X connect 23 0 15 0;
#X connect 23 1 14 1;
#X connect 23 1 15 1;
#X connect 23 2 14 2;
#X connect 23 2 15 2;
#X connect 23 3 14 3;
#X connect 23 3 15 3;
#X connect 23 4 14 4;
#X connect 23 4 15 4;
#X connect 23 5 14 5;
#X connect 23 5 15 5;
#X connect 23 6 14 6;
#X connect 23 6 15 6;
#X connect 23 7 14 7;
#X connect 23 7 15 7;
#X connect 23 8 14 8;
#X connect 23 8 15 8;
#X connect 23 9 14 9;
#X connect 23 9 15 9;
#X connect 23 10 14 10;
#X connect 23 10 15 10;
#X connect 23 11 14 11;
#X connect 23 11 15 11;
#X connect 23 12 14 12;
#X connect 23 12 15 12;
#X connect 23 13 14 13;
#X connect 23 13 15 13;
#X connect 23 14 14 14;
#X connect 23 14 15 14;
#X connect 26 0 23 0;
#X connect 28 0 33 0;
#X connect 29 0 33 0;
#X connect 30 0 27 0;
#X connect 31 0 21 0;
#X connect 32 0 27 0;
#X connect 34 0 18 0;
#X connect 35 0 19 0;
#X coords 0 574 1 573 100 60 0;
