#N canvas 333 63 570 591 10;
#X obj -166 -502 cnv 15 552 40 empty \$0-pddp.cnv.header hoa.rotate~
3 12 0 18 -204280 -1 0;
#X obj 60 -388 phasor~ 330;
#X obj 267 -277 hoa.pi 2;
#X obj 267 -296 loadbang;
#X obj 252 -258 *~;
#X obj 252 -321 phasor~ 0.1;
#X text -163 -480 An ambisonic soundfield rotation external;
#X obj -46 -205 hoa.rotate~ 4 -----------;
#X text -120 59 Eliott Paris © 2012-2013 CICM / Universite Paris 8
;
#X text -120 43 hoalibrary | Julien Colafrancesco \, Pierre Guillot
;
#X msg 145 -137 \; pd dsp 1;
#X msg 145 -99 \; pd dsp 0;
#X obj -46 -175 hoa.scope~ @size 153 153 @fontname Helvetica @fontweight
normal @fontslant roman @fontsize 11 @receive (null) @send (null) @order
4 @gain 1 @interval 100 @bgcolor 0.76 0.76 0.76 1 @bdcolor 0.5 0.5
0.5 1 @phcolor 1 0 0 1 @nhcolor 0 0 1 1;
#X obj -46 -19 hoa.decoder~ 4 0 10 -----;
#X obj -46 13 hoa.dac~ 1:10 -----------;
#X obj 252 -215 c.number~ @size 53 17 @fontname Helvetica @fontweight
normal @fontslant roman @fontsize 11 @receive (null) @send (null) @interval
50 @decimal 6 @bgcolor 0.75 0.75 0.75 1 @bdcolor 0.5 0.5 0.5 1 @textcolor
0 0 0 1;
#X obj -136 -340 hoa.encoder~ 4 -------;
#X obj 60 -340 hoa.encoder~ 4 -------;
#X text -165 -462 hoa.rotate~ allows you to apply a rotation on the
ambisonic sound field. The last inlet set the angle of the rotation.
;
#X obj 189 -363 hoa.pi;
#X obj -7 -364 hoa.pi;
#X obj -7 -417 c.loadmess 0;
#X obj -7 -388 c.number @size 53 17 @fontname Helvetica @fontweight
normal @fontslant roman @fontsize 11 @receive (null) @send (null) @presetname
(null) @min (null) @max (null) @minmax (null) (null) @decimal 6 @bgcolor
0.75 0.75 0.75 1 @bdcolor 0.5 0.5 0.5 1 @textcolor 0 0 0 1;
#X obj 189 -388 c.number @size 53 17 @fontname Helvetica @fontweight
normal @fontslant roman @fontsize 11 @receive (null) @send (null) @presetname
(null) @min (null) @max (null) @minmax (null) (null) @decimal 6 @bgcolor
0.75 0.75 0.75 1 @bdcolor 0.5 0.5 0.5 1 @textcolor 0 0 0 1;
#X obj 189 -417 c.loadmess 1;
#X obj 252 -348 c.number @size 53 17 @fontname Helvetica @fontweight
normal @fontslant roman @fontsize 11 @receive (null) @send (null) @presetname
(null) @min (null) @max (null) @minmax (null) (null) @decimal 6 @bgcolor
0.75 0.75 0.75 1 @bdcolor 0.5 0.5 0.5 1 @textcolor 0 0 0 1;
#X obj 252 -397 c.loadmess 0.1;
#X text 259 -376 Speed of;
#X text 259 -366 rotation;
#X text 281 -256 Angle of;
#X text 281 -246 rotation;
#X text 281 -236 in radian;
#X obj -136 -388 phasor~ 365;
#X connect 1 0 17 0;
#X connect 2 0 4 1;
#X connect 3 0 2 0;
#X connect 4 0 7 9;
#X connect 4 0 15 0;
#X connect 5 0 4 0;
#X connect 7 0 12 0;
#X connect 7 0 13 0;
#X connect 7 1 12 1;
#X connect 7 1 13 1;
#X connect 7 2 12 2;
#X connect 7 2 13 2;
#X connect 7 3 12 3;
#X connect 7 3 13 3;
#X connect 7 4 12 4;
#X connect 7 4 13 4;
#X connect 7 5 12 5;
#X connect 7 5 13 5;
#X connect 7 6 12 6;
#X connect 7 6 13 6;
#X connect 7 7 12 7;
#X connect 7 7 13 7;
#X connect 7 8 13 8;
#X connect 13 0 14 0;
#X connect 13 1 14 1;
#X connect 13 2 14 2;
#X connect 13 3 14 3;
#X connect 13 4 14 4;
#X connect 13 5 14 5;
#X connect 13 6 14 6;
#X connect 13 7 14 7;
#X connect 13 8 14 8;
#X connect 13 9 14 9;
#X connect 16 0 7 0;
#X connect 16 1 7 1;
#X connect 16 2 7 2;
#X connect 16 3 7 3;
#X connect 16 4 7 4;
#X connect 16 5 7 5;
#X connect 16 6 7 6;
#X connect 16 7 7 7;
#X connect 16 8 7 8;
#X connect 17 0 7 0;
#X connect 17 1 7 1;
#X connect 17 2 7 2;
#X connect 17 3 7 3;
#X connect 17 4 7 4;
#X connect 17 5 7 5;
#X connect 17 6 7 6;
#X connect 17 7 7 7;
#X connect 17 8 7 8;
#X connect 19 0 17 1;
#X connect 20 0 16 1;
#X connect 21 0 22 0;
#X connect 22 0 20 0;
#X connect 23 0 19 0;
#X connect 24 0 23 0;
#X connect 25 0 5 0;
#X connect 26 0 25 0;
#X connect 32 0 16 0;
#X coords 0 591 1 590 100 60 0;
