#N canvas 117 42 1122 689 10;
#X obj -325 -243 cnv 15 552 40 empty \$0-pddp.cnv.header hoa.decoder~
3 12 0 18 -204280 -1 0;
#X text 243 -235 hoalibrary | Julien Colafrancesco \, Pierre Guillot
& Eliott Paris © 2012-2013 CICM / Universite Paris 8;
#X obj 335 -50 hoa.pi 2;
#X obj 335 -69 loadbang;
#X obj 320 -31 *~;
#X obj 320 -88 phasor~ -0.3;
#X obj 65 -9 hoa.encoder~ 7 ----------------------------;
#X text -15 61 Click me ->;
#X text -322 -221 An ambisonic decoder;
#X text -320 -193 hoa.decoder~ decodes an ambisonic sound field for
several loudspeakers configurations or for headphones.;
#X msg 484 -177 \; pd dsp 1;
#X msg 484 -139 \; pd dsp 0;
#X text 422 -56 Irregular mode is used for standart configurations
: mono (1) \, stereo (2) \, 3.1 (3) \, quadriphonie (4) \, 5.1 (5)
\, 6.1 \, 7.1. The fourth argument is the irregular decoding mode :
panning (default) or projection. You should use "inPhase" optimization
to avoid artefact.;
#X text 24 243 Binaural mode is used for headphones. It uses the CIPIC
Hrtfs \, then the maximum order is 35 The fourth argument is the pinnae
size : small (default) or large. You shouldn't use optimization to
avoid artefact. The hoa.decoder~ is packed in a subpatcher because
the binaural decoding needs a bigger vector size than 64 due to matrix
optimization (it depends on computer but 512 seems to be suffisant
for all configuration).;
#X obj -305 96 hoa.decoder~ 7 ambisonics 16 --------------;
#X obj -305 137 hoa.meter~ @size 261 261 @fontname Helvetica @fontweight
normal @fontslant roman @fontsize 11 @receive (null) @send (null) @channels
16 @angles 0 22.5 45 67.5 90 112.5 135 157.5 180 202.5 225 247.5 270
292.5 315 337.5 @offset 0 @rotation Anti-Clockwise @vectors Energy
@interval 50 @bgcolor 0.7 0.7 0.7 1 @bdcolor 0.5 0.5 0.5 1 @coldcolor
0 0.6 0 0.8 @tepidcolor 0.6 0.73 0 0.8 @warmcolor 0.85 0.85 0 0.8 @hotcolor
1 0.6 0 0.8 @overcolor 1 0 0 0.8 @energycolor 0 0 1 0.8 @velocitycolor
1 0 0 0.8;
#X obj 427 140 hoa.meter~ @size 261 261 @fontname Helvetica @fontweight
normal @fontslant roman @fontsize 11 @receive (null) @send (null) @channels
5 @angles 0 30 110 250 330 @offset 0 @rotation Anti-Clockwise @vectors
Energy @interval 50 @bgcolor 0.7 0.7 0.7 1 @bdcolor 0.5 0.5 0.5 1 @coldcolor
0 0.6 0 0.8 @tepidcolor 0.6 0.73 0 0.8 @warmcolor 0.85 0.85 0 0.8 @hotcolor
1 0.6 0 0.8 @overcolor 1 0 0 0.8 @energycolor 0 0 1 0.8 @velocitycolor
1 0 0 0.8;
#X text -320 -163 1st argument is the order.;
#X text -321 -148 2nd argument is decoding mode : ambisonic or 0 \,
binaural or 1 (for headphones) \, irregular or 2 (for an irregular
loudpspeakers array).;
#X text -320 -107 3rd argument is the number of loudspeakers (minmum
2 * order + 1 for ambisonic mode).;
#X text -313 -54 Ambisonic mode is used for a perfect circle of loudspeakers
where all of them are to equal distance. The minimum number of loudspeakers
is 2 * order + 1 (default : 2 * order + 2). The fourth argument is
the offset of loudpeakers in degrees.;
#X obj -305 63 hoa.optim~ 7 @mode maxRe ------------------;
#X obj 427 73 hoa.optim~ 7 @mode inPhase ----------------;
#X obj 427 101 hoa.decoder~ 7 2 5 @angles 0 30 110 250 330;
#X obj 218 142 s binaural;
#X obj 65 95 c.meter~ @size 9 71 @fontname Helvetica @fontweight normal
@fontslant roman @fontsize 11 @receive (null) @send (null) @interval
50 @bgcolor 0.7 0.7 0.7 1 @bdcolor 0.5 0.5 0.5 1 @coldcolor 0 0.6 0
0.8 @tepidcolor 0.6 0.73 0 0.8 @warmcolor 0.85 0.85 0 0.8 @hotcolor
1 0.6 0 0.8 @overcolor 1 0 0 0.8;
#X obj 321 89 c.meter~ @size 9 71 @fontname Helvetica @fontweight normal
@fontslant roman @fontsize 11 @receive (null) @send (null) @interval
50 @bgcolor 0.7 0.7 0.7 1 @bdcolor 0.5 0.5 0.5 1 @coldcolor 0 0.6 0
0.8 @tepidcolor 0.6 0.73 0 0.8 @warmcolor 0.85 0.85 0 0.8 @hotcolor
1 0.6 0 0.8 @overcolor 1 0 0 0.8;
#X obj 65 -68 noise~;
#X obj 65 179 hoa.dac~ 1 2 ------------------------------;
#N canvas 264 101 640 390 hoa.binaural_sp 0;
#X obj -237 17 outlet~;
#X obj -18 20 outlet~;
#X obj -437 -129 tgl 15 0 empty empty empty 0 -6 0 8 -262144 -1 -1
1 1;
#X obj -439 33 switch~ 512 1 1;
#X obj -237 -68 inlet~;
#X obj -222 -100 inlet~;
#X obj -206 -126 inlet~;
#X obj -191 -158 inlet~;
#X obj -175 -70 inlet~;
#X obj -159 -102 inlet~;
#X obj -144 -128 inlet~;
#X obj -127 -160 inlet~;
#X obj -112 -68 inlet~;
#X obj -97 -100 inlet~;
#X obj -81 -126 inlet~;
#X obj -65 -158 inlet~;
#X obj -50 -70 inlet~;
#X obj -34 -102 inlet~;
#X obj -18 -128 inlet~;
#X msg -413 -106 set 512 1 1;
#X obj -369 -139 loadbang;
#X msg -438 -159 1;
#X obj -237 -34 hoa.decoder~ 7 binaural @pinnae small;
#X obj -313 -75 r binaural;
#X obj -237 -6 *~ 0.5;
#X obj -18 -6 *~ 0.5;
#X obj -355 -38 c.prepend pinnae;
#X connect 2 0 3 0;
#X connect 4 0 22 0;
#X connect 5 0 22 1;
#X connect 6 0 22 2;
#X connect 7 0 22 3;
#X connect 8 0 22 4;
#X connect 9 0 22 5;
#X connect 10 0 22 6;
#X connect 11 0 22 7;
#X connect 12 0 22 8;
#X connect 13 0 22 9;
#X connect 14 0 22 10;
#X connect 15 0 22 11;
#X connect 16 0 22 12;
#X connect 17 0 22 13;
#X connect 18 0 22 14;
#X connect 19 0 3 0;
#X connect 20 0 21 0;
#X connect 20 0 19 0;
#X connect 21 0 2 0;
#X connect 22 0 24 0;
#X connect 22 1 25 0;
#X connect 23 0 26 0;
#X connect 24 0 0 0;
#X connect 25 0 1 0;
#X connect 26 0 22 0;
#X restore 65 64 pd hoa.binaural_sp ------------------------;
#X obj 123 112 c.menu @size 100 17 @fontname Helvetica @fontweight
normal @fontslant roman @fontsize 11 @receive (null) @send (null) @presetname
(null) @hover 0 @items small large @states 0 0 @bgcolor 0.75 0.75 0.75
1 @bdcolor 0.5 0.5 0.5 1 @textcolor 0 0 0 1;
#X obj 65 -30 c.gain~ @size 131 10 @fontname Helvetica @fontweight
normal @fontslant roman @fontsize 11 @receive (null) @send (null) @presetname
(null) @mode 0 @ramp 20 @bgcolor 0.75 0.75 0.75 1 @bdcolor 0.5 0.5
0.5 1 @kncolor 0.5 0.5 0.5 1;
#X connect 2 0 4 1;
#X connect 3 0 2 0;
#X connect 4 0 6 1;
#X connect 5 0 4 0;
#X connect 6 0 21 0;
#X connect 6 0 22 0;
#X connect 6 0 29 0;
#X connect 6 1 21 1;
#X connect 6 1 22 1;
#X connect 6 1 29 1;
#X connect 6 2 21 2;
#X connect 6 2 22 2;
#X connect 6 2 29 2;
#X connect 6 3 21 3;
#X connect 6 3 22 3;
#X connect 6 3 29 3;
#X connect 6 4 21 4;
#X connect 6 4 22 4;
#X connect 6 4 29 4;
#X connect 6 5 21 5;
#X connect 6 5 22 5;
#X connect 6 5 29 5;
#X connect 6 6 21 6;
#X connect 6 6 22 6;
#X connect 6 6 29 6;
#X connect 6 7 21 7;
#X connect 6 7 22 7;
#X connect 6 7 29 7;
#X connect 6 8 21 8;
#X connect 6 8 22 8;
#X connect 6 8 29 8;
#X connect 6 9 21 9;
#X connect 6 9 22 9;
#X connect 6 9 29 9;
#X connect 6 10 21 10;
#X connect 6 10 22 10;
#X connect 6 10 29 10;
#X connect 6 11 21 11;
#X connect 6 11 22 11;
#X connect 6 11 29 11;
#X connect 6 12 21 12;
#X connect 6 12 22 12;
#X connect 6 12 29 12;
#X connect 6 13 21 13;
#X connect 6 13 22 13;
#X connect 6 13 29 13;
#X connect 6 14 21 14;
#X connect 6 14 22 14;
#X connect 6 14 29 14;
#X connect 14 0 15 0;
#X connect 14 1 15 1;
#X connect 14 2 15 2;
#X connect 14 3 15 3;
#X connect 14 4 15 4;
#X connect 14 5 15 5;
#X connect 14 6 15 6;
#X connect 14 7 15 7;
#X connect 14 8 15 8;
#X connect 14 9 15 9;
#X connect 14 10 15 10;
#X connect 14 11 15 11;
#X connect 14 12 15 12;
#X connect 14 13 15 13;
#X connect 14 14 15 14;
#X connect 14 15 15 15;
#X connect 21 0 14 0;
#X connect 21 1 14 1;
#X connect 21 2 14 2;
#X connect 21 3 14 3;
#X connect 21 4 14 4;
#X connect 21 5 14 5;
#X connect 21 6 14 6;
#X connect 21 7 14 7;
#X connect 21 8 14 8;
#X connect 21 9 14 9;
#X connect 21 10 14 10;
#X connect 21 11 14 11;
#X connect 21 12 14 12;
#X connect 21 13 14 13;
#X connect 21 14 14 14;
#X connect 22 0 23 0;
#X connect 22 1 23 1;
#X connect 22 2 23 2;
#X connect 22 3 23 3;
#X connect 22 4 23 4;
#X connect 22 5 23 5;
#X connect 22 6 23 6;
#X connect 22 7 23 7;
#X connect 22 8 23 8;
#X connect 22 9 23 9;
#X connect 22 10 23 10;
#X connect 22 11 23 11;
#X connect 22 12 23 12;
#X connect 22 13 23 13;
#X connect 22 14 23 14;
#X connect 23 0 16 0;
#X connect 23 1 16 1;
#X connect 23 2 16 2;
#X connect 23 3 16 3;
#X connect 23 4 16 4;
#X connect 27 0 31 0;
#X connect 29 0 28 0;
#X connect 29 0 25 0;
#X connect 29 1 28 1;
#X connect 29 1 26 0;
#X connect 30 1 24 0;
#X connect 31 0 6 0;
#X coords 0 689 1 688 100 60 0;
