#N canvas 208 121 1205 608 10;
#X obj -524 -318 hoa.map @patching_rect [ -524 -318 300 300 ] @size
[ 300 300 ] @fontname [ helvetica ] @fontweight [ groups_parameters
] @fontslant [ regular ] @fontsize [ 11 ] @bgcolor [ 0.9 0.9 0.9 1
] @bgcolor2 [ 0.75 0.75 0.75 1 ] @bdcolor [ 0 0 0 1 ] @selcolor [ 0.36
0.36 0.37 0.5 ] @outputmode [ 0 ] @zoom [ 0.312488 ] sources_parameters
[ source 0 0.790543 1.5216 0 0.2 0.2 0.2 1 s_nosymbol source 1 1.47088
0.569141 0 0.2 0.2 0.2 1 s_nosymbol source 2 -0.20754 0.309505 0 0.2
0.2 0.2 1 s_nosymbol 300 300 ] @fontname [ helvetica ] @fontweight
[ groups_parameters ] groups_parameters [ group 0 2 0 1 0 0.2 0.2 0.2
1 s_nosymbol group 1 2 2 3 0 0.2 0.2 0.2 1 s_nosymbol ] slots_parameters
[ slot 0 slot 1 slot 2 slot 3 ] trajectory_parameters [ slot 0 slot
1 slot 2 slot 3 slot 4 slot 5 slot 6 slot 7 slot 8 slot 9 slot 10 slot
11 slot 12 slot 13 slot 14 slot 15 slot 16 slot 17 slot 18 slot 19
slot 20 slot 21 slot 22 slot 23 slot 24 slot 25 slot 26 slot 27 slot
28 slot 29 slot 30 slot 31 slot 32 slot 33 slot 34 slot 35 slot 36
slot 37 slot 38 slot 39 slot 40 slot 41 slot 42 slot 43 slot 44 slot
45 slot 46 slot 47 slot 48 slot 49 slot 50 slot 51 slot 52 slot 53
slot 54 slot 55 slot 56 slot 57 slot 58 slot 59 slot 60 slot 61 slot
62 slot 63 slot 64 slot 65 slot 66 slot 67 slot 68 slot 69 slot 70
slot 71 slot 72 slot 73 slot 74 slot 75 slot 76 slot 77 slot 78 slot
79 slot 80 slot 81 slot 82 slot 83 slot 84 slot 85 slot 86 slot 87
slot 88 slot 89 slot 90 slot 91 slot 92 slot 93 slot 94 slot 95 slot
96 ];
#X obj -580 107 send map_slot;
#X obj -206 131 send map_slot;
#X text -583 14 hoa.map needs an absolute path. Here is an example
but this is my name therefor it won't work...;
#X text -209 57 hoa.map needs an absolute path. Here is an example.
;
#X text -186 -429 hoa.map allows you to record and play trajectories.
Trajectories record the position of sources or groups while you're
draging it. You can overwrite with other sources or groups to create
complexs trajectories. Trajectories are saved in the patch and can
be saved in a text file.;
#X obj -429 -375 receive map_traj;
#X text 208 -321 1 - Set "trajectory record 1";
#X obj -188 -254 send map_traj;
#X obj -188 -315 tgl 15 0 empty empty empty 17 7 0 10 -262144 -1 -1
0 1;
#X text 208 -307 2 - Draw the trajectory of a source or a group;
#X text 208 -292 2 (bis) - Set "record 0" (for safety);
#X obj -183 -136 send map_traj;
#X obj -183 -192 nbx 5 14 0 1 0 0 empty empty empty 0 -8 0 10 -262144
-1 -1 0 256;
#X msg -183 -168 trajectory \$1;
#X msg -188 -286 trajectory record \$1;
#X text 208 -277 3 - Replay with floats between 0 and 1;
#X text 208 -262 4 - Rewind to 0;
#X text 208 -248 5 - Set "limit 1";
#X obj -180 11 send map_traj;
#X obj -180 -50 tgl 15 0 empty empty empty 17 7 0 10 -262144 -1 -1
0 1;
#X text -186 -108 (5) When a trajectory is recorded \, you can overwrite
it with another source or group. To limit the lenght of the new trajectory
to the lenght of previous trajectory set "limit 1".;
#X msg -180 -21 trajectory limit \$1;
#X text -191 -354 (1 \, 2bis and 6) Set "record 1" to enable the recording.
Then draw your trajectory.;
#X text 208 -234 6 - Set "record 1";
#X text 208 -220 7 - Overwrite the trajectory with another source or
another group;
#X text 208 -192 8 - Rewind to 0;
#X text -187 -225 (3 \, 4 and 8) Use values between 0 and 1 to play/rewind
the trajectory.;
#X text 250 -350 How to record trajectories;
#X text 208 -178 9 - (record \, play and rewind to inifite);
#X obj 207 -88 send map_traj;
#X msg 207 -120 trajectory erase;
#X text 204 -141 Erase all the trajectory.;
#X text 203 -63 Erase a part of the trajectory. For example "erasepart
0 0.1" to erase the beginning of the trajectory;
#X obj 207 54 send map_traj;
#X msg 207 22 trajectory erasepart \$1 \$2;
#X obj 207 -6 pack 0 0;
#X obj 207 -29 nbx 5 14 -1e+37 1e+37 0 0 empty empty empty 0 -8 0 10
-262144 -1 -1 0 256;
#X obj 270 -31 nbx 5 14 -1e+37 1e+37 0 0 empty empty empty 0 -8 0 10
-262144 -1 -1 0 256;
#X text -209 41 Read trajectories in text file;
#X text -583 -1 Save trajectory in text file;
#X msg -580 55 trajectory write /Users/Pierre/Desktop/The_Graduate.pd
;
#X msg -206 88 trajectory read /Users/Pierre/Desktop/The_Graduate.pd
;
#X connect 6 0 0 0;
#X connect 9 0 15 0;
#X connect 13 0 14 0;
#X connect 14 0 12 0;
#X connect 15 0 8 0;
#X connect 20 0 22 0;
#X connect 22 0 19 0;
#X connect 31 0 30 0;
#X connect 35 0 34 0;
#X connect 36 0 35 0;
#X connect 37 0 36 0;
#X connect 38 0 36 1;
#X connect 41 0 1 0;
#X connect 42 0 2 0;
