#N canvas 0 22 450 300 10;
#X obj 159 160 triangle~;
#X obj 280 103 sig~ 0.5;
#X obj 177 87 loadbang;
#X msg 44 133 lo 0;
#X msg 106 133 hi 1;
#X obj 193 216 snapshot~;
#X obj 283 191 metro 20;
#X msg 293 161 1;
#X obj 204 252 outlet;
#X obj 170 131 phasor~ 0.01;
#X connect 0 0 5 0;
#X connect 1 0 0 1;
#X connect 2 0 4 0;
#X connect 2 0 3 0;
#X connect 2 0 7 0;
#X connect 3 0 0 0;
#X connect 4 0 0 0;
#X connect 5 0 8 0;
#X connect 6 0 5 0;
#X connect 7 0 6 0;
#X connect 9 0 0 0;
