#N canvas 522 236 686 480 10;
#X obj 443 165 hoa.scope~ @patching_rect [ 443 165 181 181 ] @size
[ 181 181 ] @fontname [ helvetica ] @fontweight [ normal ] @fontslant
[ regular ] @fontsize [ 11 ] @order [ 3 ] @gain [ 1 ] @interval [ 100
] @drawcircle [ 1 ] @drawangles [ 1 ] @drawcontrib [ 1 ] @bgcolor [
0.76 0.76 0.76 1 ] @bdcolor [ 0.7 0.7 0.7 1 ] @txcolor [ 0 0 0 7 ]
@phcolor [ 1 0 0 1 ] @nhcolor [ 0 0 1 1 ];
#X msg 288 40 \; pd dsp 1;
#X msg 290 95 \; pd dsp 0;
#X obj 186 33 hoa.pi 2;
#X obj 201 55 phasor~ 0.2;
#X obj 186 77 *~;
#X obj 29 128 hoa.encoder~ 3 ***************;
#X obj 9 54 noise~;
#X obj 186 10 loadbang;
#X obj 8 83 *~ 0.1;
#X obj 84 329 dac~ 2 16;
#X obj 166 321 hoa.meter~ @patching_rect [ 166 321 225 225 ] @size
[ 225 225 ] @fontname [ helvetica ] @fontweight [ normal ] @fontslant
[ regular ] @fontsize [ 11 ] @vectors [ 1 ] @loudspeakers [ 2 ] @angles
[ 30 330 90 135 180 225 270 315 0 0 0 0 0 0 0 0 0 0 0 0 0 0 0 0 0 0
0 0 0 0 0 0 0 0 0 0 0 0 0 0 0 0 0 0 0 0 0 0 0 0 0 0 0 0 0 0 0 0 0 0
0 0 0 0 ] @offset [ 0 ] @rotation [ 0 ] @interval [ 50 ] @bgcolor [
0.55 0.55 0.55 1 ] @mbgcolor [ 0.4 0.4 0.4 1 ] @bordercolor [ 0.25
0.25 0.25 1 ] @coldcolor [ 0 0.6 0 0.8 ] @tepidcolor [ 0.6 0.73 0 0.8
] @warmcolor [ 0.85 0.85 0 0.8 ] @hotcolor [ 1 0.6 0 0.8 ] @overcolor
[ 1 0 0 0.8 ] @energycolor [ 0 0 1 0.8 ] @velocitycolor [ 1 0 0 0.8
];
#X obj 222 87 nbx 5 14 -1e+37 1e+37 0 0 empty empty empty 0 -8 0 10
-262144 -1 -1 -0.2 256;
#X obj 38 184 hoa.optim~ 3 @mode [ inPhase ];
#X msg 253 224 angles 330 30;
#X obj 67 48 nbx 5 14 -1e+37 1e+37 0 0 empty empty empty 0 -8 0 10
-262144 -1 -1 0.73 256;
#X obj 26 252 hoa.decoder~ 3 2 2 @restitution [ projection ] @angles
[30 330 ];
#X connect 3 0 5 0;
#X connect 4 0 5 1;
#X connect 5 0 6 1;
#X connect 6 0 0 0;
#X connect 6 0 13 0;
#X connect 6 1 0 1;
#X connect 6 1 13 1;
#X connect 6 2 0 2;
#X connect 6 2 13 2;
#X connect 6 3 0 3;
#X connect 6 3 13 3;
#X connect 6 4 0 4;
#X connect 6 4 13 4;
#X connect 6 5 0 5;
#X connect 6 5 13 5;
#X connect 6 6 0 6;
#X connect 6 6 13 6;
#X connect 7 0 9 0;
#X connect 8 0 3 0;
#X connect 9 0 6 0;
#X connect 12 0 4 0;
#X connect 13 0 16 0;
#X connect 13 1 16 1;
#X connect 13 2 16 2;
#X connect 13 3 16 3;
#X connect 13 4 16 4;
#X connect 13 5 16 5;
#X connect 13 6 16 6;
#X connect 14 0 11 0;
#X connect 14 0 16 0;
#X connect 15 0 9 1;
#X connect 16 0 10 0;
#X connect 16 0 11 0;
#X connect 16 1 10 1;
#X connect 16 1 11 1;
