#N canvas 536 198 605 340 10;
#X obj 18 32 inlet~;
#X obj 78 32 inlet~;
#X obj 17 82 snapshot~;
#X obj 77 82 snapshot~;
#X obj 138 32 inlet~;
#X obj 198 32 inlet~;
#X obj 137 82 snapshot~;
#X obj 197 82 snapshot~;
#X obj 262 32 inlet~;
#X obj 322 32 inlet~;
#X obj 261 82 snapshot~;
#X obj 321 82 snapshot~;
#X obj 382 32 inlet~;
#X obj 442 32 inlet~;
#X obj 381 82 snapshot~;
#X obj 441 82 snapshot~;
#X obj 17 155 pack f f f f f f f f;
#X obj 17 184 outlet;
#X obj 234 -59 loadbang;
#X obj 234 -35 metro 20;
#X connect 0 0 2 0;
#X connect 1 0 3 0;
#X connect 2 0 16 0;
#X connect 3 0 16 1;
#X connect 4 0 6 0;
#X connect 5 0 7 0;
#X connect 6 0 16 2;
#X connect 7 0 16 3;
#X connect 8 0 10 0;
#X connect 9 0 11 0;
#X connect 10 0 16 4;
#X connect 11 0 16 5;
#X connect 12 0 14 0;
#X connect 13 0 15 0;
#X connect 14 0 16 6;
#X connect 15 0 16 7;
#X connect 16 0 17 0;
#X connect 18 0 19 0;
#X connect 19 0 2 0;
#X connect 19 0 15 0;
#X connect 19 0 14 0;
#X connect 19 0 11 0;
#X connect 19 0 10 0;
#X connect 19 0 7 0;
#X connect 19 0 6 0;
#X connect 19 0 3 0;
