#N canvas 855 254 450 300 10;
#X obj 101 224 outlet~;
#X obj 101 192 readsf~;
#X obj 101 124 loadbang;
#X msg 101 165 open sound3.wav \, 1;
#X obj 233 184 readsf~;
#X obj 233 116 loadbang;
#X msg 233 157 open sound3.wav \, 2;
#X obj 297 112 metro 1000;
#X obj 305 69 tgl 15 0 empty empty empty 17 7 0 10 -262144 -1 -1 1
1;
#X obj 156 50 tgl 15 0 empty empty empty 17 7 0 10 -262144 -1 -1 1
1;
#X obj 148 93 metro 757;
#X connect 1 0 0 0;
#X connect 1 1 3 0;
#X connect 2 0 3 0;
#X connect 3 0 1 0;
#X connect 4 0 0 0;
#X connect 4 1 6 0;
#X connect 5 0 6 0;
#X connect 6 0 4 0;
#X connect 7 0 6 0;
#X connect 8 0 7 0;
#X connect 9 0 10 0;
#X connect 10 0 3 0;
