#N canvas 183 22 1032 752 10;
#X obj 215 582 print sources;
#X obj 654 47 nbx 5 14 -1e+37 1e+37 0 0 empty empty empty 0 -8 0 10
-262144 -1 -1 0 256;
#X msg 689 120 patching_rect 0 0 \$1 \$1;
#X obj 245 175 hoa.map @patching_rect { 0 0 300 300 } @bgcolor { 0.9
0.9 0.9 1 } @bgcolor2 { 0.75 0.75 0.75 1 } @bdcolor { 0 0 0 1 } @selcolor
{ 0.36 0.36 0.37 0.5 } @outputmode { 0 } @zoom { 0.328125 } sources_parameters
{ source 0 -1.60508 -1.11746 0 0.2 0.2 0.2 1 s_nosymbol source 1 1.76064
1.2611 0 0.2 0.2 0.2 1 s_nosymbol } groups_parameters { group 0 2 0
1 0 0.2 0.2 0.2 1 s_nosymbol };
#X obj 414 55 nbx 10 14 -1e+37 1e+37 0 0 empty empty empty 0 -8 0 10
-262144 -1 -1 0 256;
#X msg 381 104 zoom \$1;
#X obj 187 90 nbx 5 14 -1e+37 1e+37 0 0 empty empty empty 0 -8 0 10
-262144 -1 -1 0 256;
#X floatatom 210 33 10 0 0 0 - - -;
#X msg 344 45 0.011;
#X msg 457 125 group;
#X msg 469 96 source 0 car 0 1;
#X msg 591 160 map;
#X msg 658 210 slot store \$1;
#X obj 664 149 nbx 5 14 -1e+37 1e+37 0 0 empty empty empty 0 -8 0 10
-262144 -1 -1 0 256;
#X msg 656 270 slot \$1;
#X obj 665 235 nbx 5 14 -1e+37 1e+37 0 0 empty empty empty 0 -8 0 10
-262144 -1 -1 0 256;
#X msg 796 149 0;
#X msg 809 179 1;
#X msg 818 214 2;
#X msg 520 121 source 1 car 0 -1;
#X msg 121 173 room_col 0;
#X obj 202 201 vsl 15 128 0 127 0 0 empty empty empty 0 -9 0 10 -262144
-1 -1 0 1;
#X obj 186 363 / 128;
#X obj 659 392 nbx 5 14 -1e+37 1e+37 0 0 empty empty empty 0 -8 0 10
-262144 -1 -1 0 256;
#X msg 650 427 trajectory \$1;
#X obj 749 452 nbx 5 14 -1e+37 1e+37 0 0 empty empty empty 0 -8 0 10
-262144 -1 -1 0 256;
#X msg 740 487 trajectory record \$1;
#X obj 777 411 tgl 15 0 empty empty empty 17 7 0 10 -262144 -1 -1 0
1;
#X obj 535 686 nbx 5 14 -1e+37 1e+37 0 0 empty empty empty 0 -8 0 10
-262144 -1 -1 0 256;
#X obj 628 675 nbx 5 14 -1e+37 1e+37 0 0 empty empty empty 0 -8 0 10
-262144 -1 -1 0 256;
#X obj 381 675 nbx 5 14 -1e+37 1e+37 0 0 empty empty empty 0 -8 0 10
-262144 -1 -1 0 256;
#X msg 559 64 source 2 car 0 -1;
#X obj 441 637 unpack 0 s f f;
#X msg 641 298 source 1 mute \$1;
#X obj 760 267 tgl 15 0 empty empty empty 17 7 0 10 -262144 -1 -1 0
1;
#X msg 606 335 clear all;
#X msg 260 111 slot write;
#X connect 1 0 2 0;
#X connect 2 0 3 0;
#X connect 3 0 0 0;
#X connect 4 0 5 0;
#X connect 5 0 3 0;
#X connect 7 0 5 0;
#X connect 8 0 4 0;
#X connect 9 0 3 0;
#X connect 10 0 3 0;
#X connect 11 0 3 0;
#X connect 12 0 3 0;
#X connect 13 0 12 0;
#X connect 14 0 3 0;
#X connect 15 0 14 0;
#X connect 16 0 12 0;
#X connect 17 0 12 0;
#X connect 18 0 12 0;
#X connect 19 0 3 0;
#X connect 20 0 3 0;
#X connect 21 0 22 0;
#X connect 22 0 4 0;
#X connect 23 0 24 0;
#X connect 24 0 3 0;
#X connect 25 0 26 0;
#X connect 26 0 3 0;
#X connect 27 0 26 0;
#X connect 31 0 3 0;
#X connect 32 0 30 0;
#X connect 32 2 28 0;
#X connect 32 3 29 0;
#X connect 33 0 3 0;
#X connect 34 0 33 0;
#X connect 35 0 3 0;
#X connect 36 0 3 0;
#X coords 0 752 1 751 85 60 0;
