#N canvas 0 22 1440 852 10;
#X obj 268 84 metro 100;
#X obj 271 41 tgl 15 0 empty empty empty 17 7 0 10 -262144 -1 -1 1
1;
#X floatatom 77 150 5 0 0 0 - - -;
#X obj 77 119 snapshot~;
#X floatatom 145 151 10 0 0 0 - - -;
#X obj 145 119 snapshot~;
#X floatatom 212 149 10 0 0 0 - - -;
#X obj 212 118 snapshot~;
#X obj 77 75 hoa.encoder~ 1 --------;
#X obj 186 28 sig~ 1;
#X floatatom 193 -1 5 0 0 0 - - -;
#X obj 77 23 sig~ 1;
#X obj 135 206 hoa.rotate~ 1;
#X floatatom 76 270 5 0 0 0 - - -;
#X obj 76 239 snapshot~;
#X floatatom 144 271 10 0 0 0 - - -;
#X obj 144 239 snapshot~;
#X floatatom 211 269 10 0 0 0 - - -;
#X obj 211 238 snapshot~;
#X floatatom 293 168 5 0 0 0 - - -;
#X obj 100 312 hoa.optim~ 1 inPhase;
#X floatatom 84 393 5 0 0 0 - - -;
#X obj 84 362 snapshot~;
#X floatatom 152 394 10 0 0 0 - - -;
#X obj 152 362 snapshot~;
#X floatatom 219 392 10 0 0 0 - - -;
#X obj 219 361 snapshot~;
#X obj 516 88 metro 100;
#X floatatom 257 523 5 0 0 0 - - -;
#X obj 257 491 snapshot~;
#X floatatom 325 523 10 0 0 0 - - -;
#X obj 325 491 snapshot~;
#X floatatom 392 521 10 0 0 0 - - -;
#X obj 392 490 snapshot~;
#X obj 273 441 hoa.wider~ 1;
#X obj 95 558 hoa.projector~ 1 4;
#X obj 80 712 vu 15 120 empty empty -1 -8 0 10 -66577 -1 1 0;
#X obj 86 593 snapshot~;
#X obj 37 488 metro 100;
#X obj 362 34 loadbang;
#X obj 82 631 clip 0.001 1;
#X obj 81 655 log 10;
#X obj 80 679 * 20;
#X obj 161 711 vu 15 120 empty empty -1 -8 0 10 -66577 -1 1 0;
#X obj 167 592 snapshot~;
#X obj 163 630 clip 0.001 1;
#X obj 162 654 log 10;
#X obj 161 678 * 20;
#X obj 255 717 vu 15 120 empty empty -1 -8 0 10 -66577 -1 1 0;
#X obj 261 598 snapshot~;
#X obj 257 636 clip 0.001 1;
#X obj 256 660 log 10;
#X obj 255 684 * 20;
#X obj 338 715 vu 15 120 empty empty -1 -8 0 10 -66577 -1 1 0;
#X obj 344 596 snapshot~;
#X obj 340 634 clip 0.001 1;
#X obj 339 658 log 10;
#X obj 338 682 * 20;
#X floatatom 544 227 10 0 0 0 - - -;
#X obj 569 188 loadbang;
#X msg 530 192 1;
#X obj 532 563 hoa.projector~ 1 4;
#X obj 517 717 vu 15 120 empty empty -1 -8 0 10 -66577 -1 1 0;
#X obj 523 598 snapshot~;
#X obj 688 489 metro 100;
#X obj 519 636 clip 0.001 1;
#X obj 518 660 log 10;
#X obj 517 684 * 20;
#X obj 598 716 vu 15 120 empty empty -1 -8 0 10 -66577 -1 1 0;
#X obj 604 597 snapshot~;
#X obj 600 635 clip 0.001 1;
#X obj 599 659 log 10;
#X obj 598 683 * 20;
#X obj 692 722 vu 15 120 empty empty -1 -8 0 10 -66577 -1 1 0;
#X obj 698 603 snapshot~;
#X obj 694 641 clip 0.001 1;
#X obj 693 665 log 10;
#X obj 692 689 * 20;
#X obj 775 720 vu 15 120 empty empty -1 -8 0 10 -66577 -1 1 0;
#X obj 781 601 snapshot~;
#X obj 777 639 clip 0.001 1;
#X obj 776 663 log 10;
#X obj 775 687 * 20;
#X floatatom 655 349 10 0 0 0 - - -;
#X obj 680 310 loadbang;
#X msg 641 314 1;
#X obj 452 575 snapshot~;
#X floatatom 465 618 5 0 0 0 - - -;
#X obj 671 389 sig~ 1;
#X obj 711 138 hoa.pi 3;
#X obj 709 94 bng 15 250 50 0 empty empty empty 17 7 0 10 -262144 -1
-1;
#X floatatom 676 219 10 0 0 0 - - -;
#X floatatom 745 75 10 0 0 0 - - -;
#X obj 508 508 hoa.recomposer~ 1 4 fisheye;
#X obj 473 392 snapshot~;
#X floatatom 486 435 5 0 0 0 - - -;
#X obj 535 406 snapshot~;
#X floatatom 548 449 5 0 0 0 - - -;
#X obj 1032 411 metro 100;
#X obj 796 497 snapshot~;
#X floatatom 809 540 5 0 0 0 - - -;
#X obj 817 314 snapshot~;
#X floatatom 830 357 5 0 0 0 - - -;
#X obj 879 328 snapshot~;
#X floatatom 892 371 5 0 0 0 - - -;
#X obj 852 430 hoa.recomposer~ 1 4;
#X floatatom 26 618 5 0 0 0 - - -;
#X floatatom 475 673 5 0 0 0 - - -;
#X floatatom 570 674 5 0 0 0 - - -;
#X floatatom 661 680 5 0 0 0 - - -;
#X floatatom 836 684 5 0 0 0 - - -;
#X connect 0 0 3 0;
#X connect 0 0 5 0;
#X connect 0 0 7 0;
#X connect 0 0 18 0;
#X connect 0 0 16 0;
#X connect 0 0 14 0;
#X connect 0 0 26 0;
#X connect 0 0 24 0;
#X connect 0 0 22 0;
#X connect 1 0 0 0;
#X connect 1 0 27 0;
#X connect 1 0 38 0;
#X connect 1 0 64 0;
#X connect 1 0 98 0;
#X connect 3 0 2 0;
#X connect 5 0 4 0;
#X connect 7 0 6 0;
#X connect 8 0 3 0;
#X connect 8 0 12 0;
#X connect 8 1 5 0;
#X connect 8 1 12 1;
#X connect 8 2 7 0;
#X connect 8 2 12 2;
#X connect 9 0 8 1;
#X connect 10 0 9 0;
#X connect 11 0 8 0;
#X connect 12 0 14 0;
#X connect 12 0 20 0;
#X connect 12 1 16 0;
#X connect 12 1 20 1;
#X connect 12 2 18 0;
#X connect 12 2 20 2;
#X connect 14 0 13 0;
#X connect 16 0 15 0;
#X connect 18 0 17 0;
#X connect 19 0 12 3;
#X connect 20 0 22 0;
#X connect 20 0 34 0;
#X connect 20 1 24 0;
#X connect 20 1 34 1;
#X connect 20 2 26 0;
#X connect 20 2 34 2;
#X connect 22 0 21 0;
#X connect 24 0 23 0;
#X connect 26 0 25 0;
#X connect 27 0 33 0;
#X connect 27 0 31 0;
#X connect 27 0 29 0;
#X connect 29 0 28 0;
#X connect 31 0 30 0;
#X connect 33 0 32 0;
#X connect 34 0 29 0;
#X connect 34 0 35 0;
#X connect 34 1 31 0;
#X connect 34 1 35 1;
#X connect 34 2 33 0;
#X connect 34 2 35 2;
#X connect 35 0 37 0;
#X connect 35 0 93 0;
#X connect 35 0 105 0;
#X connect 35 1 44 0;
#X connect 35 1 93 1;
#X connect 35 1 105 1;
#X connect 35 2 49 0;
#X connect 35 2 93 2;
#X connect 35 2 105 2;
#X connect 35 3 54 0;
#X connect 35 3 93 3;
#X connect 35 3 105 3;
#X connect 37 0 40 0;
#X connect 37 0 106 0;
#X connect 38 0 37 0;
#X connect 38 0 44 0;
#X connect 38 0 49 0;
#X connect 38 0 54 0;
#X connect 39 0 1 0;
#X connect 40 0 41 0;
#X connect 41 0 42 0;
#X connect 42 0 36 0;
#X connect 44 0 45 0;
#X connect 45 0 46 0;
#X connect 46 0 47 0;
#X connect 47 0 43 0;
#X connect 49 0 50 0;
#X connect 50 0 51 0;
#X connect 51 0 52 0;
#X connect 52 0 48 0;
#X connect 54 0 55 0;
#X connect 55 0 56 0;
#X connect 56 0 57 0;
#X connect 57 0 53 0;
#X connect 58 0 34 3;
#X connect 59 0 60 0;
#X connect 60 0 58 0;
#X connect 61 0 63 0;
#X connect 61 1 69 0;
#X connect 61 2 74 0;
#X connect 61 3 79 0;
#X connect 63 0 65 0;
#X connect 63 0 107 0;
#X connect 64 0 63 0;
#X connect 64 0 69 0;
#X connect 64 0 74 0;
#X connect 64 0 79 0;
#X connect 64 0 86 0;
#X connect 64 0 94 0;
#X connect 64 0 96 0;
#X connect 65 0 66 0;
#X connect 66 0 67 0;
#X connect 67 0 62 0;
#X connect 69 0 70 0;
#X connect 69 0 108 0;
#X connect 70 0 71 0;
#X connect 71 0 72 0;
#X connect 72 0 68 0;
#X connect 74 0 75 0;
#X connect 74 0 109 0;
#X connect 75 0 76 0;
#X connect 76 0 77 0;
#X connect 77 0 73 0;
#X connect 79 0 80 0;
#X connect 79 0 110 0;
#X connect 80 0 81 0;
#X connect 81 0 82 0;
#X connect 82 0 78 0;
#X connect 83 0 88 0;
#X connect 84 0 85 0;
#X connect 85 0 83 0;
#X connect 86 0 87 0;
#X connect 88 0 93 4;
#X connect 89 0 91 0;
#X connect 90 0 89 0;
#X connect 92 0 89 0;
#X connect 93 0 61 0;
#X connect 93 0 86 0;
#X connect 93 1 61 1;
#X connect 93 1 94 0;
#X connect 93 2 61 2;
#X connect 93 2 96 0;
#X connect 94 0 95 0;
#X connect 96 0 97 0;
#X connect 98 0 99 0;
#X connect 98 0 101 0;
#X connect 98 0 103 0;
#X connect 99 0 100 0;
#X connect 101 0 102 0;
#X connect 103 0 104 0;
#X connect 105 0 99 0;
#X connect 105 1 101 0;
#X connect 105 2 103 0;
