#N canvas 507 22 893 793 10;
#X obj -255 -109 cnv 15 552 40 empty \$0-pddp.cnv.header hoa.encoder~
3 12 0 18 -204280 -1 0;
#X text -228 628 hoalibrary | Julien Colafrancesco \, Pierre Guillot
& Eliott Paris © 2012-2013 CICM / Universite Paris 8;
#X obj -247 78 noise~;
#X obj -33 59 hoa.pi 2;
#X obj -33 30 loadbang;
#X obj 222 59 hoa.pi 2;
#X obj 222 30 loadbang;
#X obj 171 88 *~;
#X obj 171 5 phasor~ 0.1;
#X obj -84 88 *~;
#X obj -84 1 phasor~ -0.3;
#X text -252 -87 An ambisonic encoder;
#X text -250 -59 hoa.encoder~ creates the circular harmonics of a signal
depending of a given order.;
#X obj 91 124 hoa.encoder~ 7 ----------------------------;
#X obj 91 71 phasor~ 4;
#X obj -247 125 hoa.freeverb~ 7 ----------------------------;
#X obj -240 194 noise~;
#X obj -26 175 hoa.pi 2;
#X obj -26 146 loadbang;
#X obj -77 204 *~;
#X obj -77 117 phasor~ -0.3;
#X obj -240 241 hoa.map~ 7 5 ----------------------------;
#X obj 5 279 noise~;
#X obj 219 260 hoa.pi 2;
#X obj 219 231 loadbang;
#X obj 168 289 *~;
#X obj 168 202 phasor~ -0.3;
#X obj 5 326 hoa.optim~ 7 ------------------;
#X obj -199 432 noise~;
#X obj 15 413 hoa.pi 2;
#X obj 15 384 loadbang;
#X obj -36 442 *~;
#X obj -36 355 phasor~ -0.3;
#X obj -199 479 hoa.projector~ 7 16 ------------------;
#X obj 119 454 noise~;
#X obj 333 435 hoa.pi 2;
#X obj 333 406 loadbang;
#X obj 282 464 *~;
#X obj 282 377 phasor~ -0.3;
#X obj 119 501 hoa.recomposer~ 7 16 ------------------;
#X obj -483 473 noise~;
#X obj -269 454 hoa.pi 2;
#X obj -269 425 loadbang;
#X obj -320 483 *~;
#X obj -320 396 phasor~ -0.3;
#X obj -483 520 hoa.rotate~ 7 ------------------;
#X obj -483 302 noise~;
#X obj -269 283 hoa.pi 2;
#X obj -269 254 loadbang;
#X obj -320 312 *~;
#X obj -320 225 phasor~ -0.3;
#X obj -483 349 hoa.space~ 10 ------------------;
#X obj -473 112 noise~;
#X obj -310 122 *~;
#X obj -372 84 phasor~ -0.3;
#X obj -473 159 hoa.wider~ 10 ------------------;
#X obj -478 -1 noise~;
#X obj -315 9 *~;
#X obj -315 -78 phasor~ -0.3;
#X obj -478 46 hoa.decoder~ 7 16 ------------------;
#X connect 2 0 15 0;
#X connect 3 0 9 1;
#X connect 4 0 3 0;
#X connect 5 0 7 1;
#X connect 6 0 5 0;
#X connect 7 0 13 1;
#X connect 8 0 7 0;
#X connect 9 0 15 1;
#X connect 10 0 9 0;
#X connect 14 0 13 0;
#X connect 16 0 21 0;
#X connect 17 0 19 1;
#X connect 18 0 17 0;
#X connect 19 0 21 1;
#X connect 20 0 19 0;
#X connect 22 0 27 0;
#X connect 23 0 25 1;
#X connect 24 0 23 0;
#X connect 25 0 27 1;
#X connect 26 0 25 0;
#X connect 28 0 33 0;
#X connect 29 0 31 1;
#X connect 30 0 29 0;
#X connect 31 0 33 1;
#X connect 32 0 31 0;
#X connect 34 0 39 0;
#X connect 35 0 37 1;
#X connect 36 0 35 0;
#X connect 37 0 39 1;
#X connect 38 0 37 0;
#X connect 40 0 45 0;
#X connect 41 0 43 1;
#X connect 42 0 41 0;
#X connect 43 0 45 1;
#X connect 44 0 43 0;
#X connect 46 0 51 0;
#X connect 47 0 49 1;
#X connect 48 0 47 0;
#X connect 49 0 51 1;
#X connect 50 0 49 0;
#X connect 52 0 55 0;
#X connect 53 0 55 1;
#X connect 54 0 53 0;
#X connect 56 0 59 0;
#X connect 57 0 59 1;
#X connect 58 0 57 0;
#X coords 0 793 1 792 100 60 0;
