#N canvas 208 121 1205 608 10;
#X obj -524 -318 hoa.map @patching_rect  -524 -318 300 300  @size
 300 300  @fontname  helvetica  @fontweight  groups_parameters
 @fontslant  regular  @fontsize  11  @bgcolor  0.9 0.9 0.9 1
 @bgcolor2  0.75 0.75 0.75 1  @bdcolor  0 0 0 1  @selcolor  0.36
0.36 0.37 0.5  @outputmode  0  @zoom  0.312488  sources_parameters
 source 0 1.48624 -2.03295 0 0.2 0.2 0.2 1 (null) source 1 -1.7922
1.50934 0 0.2 0.2 0.2 1 (null) source 2 1.67561 2.6357 0 0.2 0.2
0.2 1 (null)  groups_parameters  group 0 2 0 1 0 0.2 0.2 0.2
1 (null) group 1 3 0 1 2 0 0.2 0.2 0.2 1 (null)  slots_parameters
 slot 0 slot 1 slot 2 slot 3  trajectory_parameters  slot 0 source
1 1.20479 -0.323453 0 0.2 0.2 0.2 1 (null) group 0 1 1 0 0.2 0.2
0.2 1 (null) group 1 1 1 0 0.2 0.2 0.2 1 (null) slot 1 source
1 1.23582 -0.235358 0 0.2 0.2 0.2 1 (null) group 0 1 1 0 0.2 0.2
0.2 1 (null) group 1 1 1 0 0.2 0.2 0.2 1 (null) slot 2 source
0 -0.938681 0.647345 0 0.2 0.2 0.2 1 (null) source 1 1.22971 -0.291882
0 0.2 0.2 0.2 1 (null) source 2 -0.164261 -1.74991 0 0.2 0.2 0.2
1 (null) group 0 2 0 1 0 0.2 0.2 0.2 1 (null) group 1 3 0 1
2 0 0.2 0.2 0.2 1 (null) slot 3 source 0 0.87472 1.61785 0 0.2
0.2 0.2 1 (null) source 1 -0.244638 -1.94749 0 0.2 0.2 0.2 1 (null)
source 2 -2.45627 -0.0355927 0 0.2 0.2 0.2 1 (null) group 0 2 0
1 0 0.2 0.2 0.2 1 (null) group 1 3 0 1 2 0 0.2 0.2 0.2 1 (null)
slot 4 source 0 2.49315 2.60182 0 0.2 0.2 0.2 1 (null) source 1
-1.42867 -3.44244 0 0.2 0.2 0.2 1 (null) source 2 -4.0855 1.06033
0 0.2 0.2 0.2 1 (null) group 0 2 0 1 0 0.2 0.2 0.2 1 (null)
group 1 3 0 1 2 0 0.2 0.2 0.2 1 (null) slot 5 source 0 3.62061
2.66629 0 0.2 0.2 0.2 1 (null) source 1 -2.47504 -3.90117 0 0.2
0.2 0.2 1 (null) source 2 -4.65696 2.11273 0 0.2 0.2 0.2 1 (null)
group 0 2 0 1 0 0.2 0.2 0.2 1 (null) group 1 3 0 1 2 0 0.2 0.2
0.2 1 (null) slot 6 source 0 4.9075 2.32056 0 0.2 0.2 0.2 1 (null)
source 1 -3.81856 -4.03047 0 0.2 0.2 0.2 1 (null) source 2 -4.92426
3.50771 0 0.2 0.2 0.2 1 (null) group 0 2 0 1 0 0.2 0.2 0.2 1 (null)
group 1 3 0 1 2 0 0.2 0.2 0.2 1 (null) slot 7 source 0 5.37366
2.103 0 0.2 0.2 0.2 1 (null) source 1 -4.33783 -3.9905 0 0.2 0.2
0.2 1 (null) source 2 -4.93626 4.05441 0 0.2 0.2 0.2 1 (null)
group 0 2 0 1 0 0.2 0.2 0.2 1 (null) group 1 3 0 1 2 0 0.2 0.2
0.2 1 (null) slot 8 source 0 5.62446 0.655244 0 0.2 0.2 0.2 1 (null)
source 1 -5.11434 -2.70605 0 0.2 0.2 0.2 1 (null) source 2 -3.68001
5.08862 0 0.2 0.2 0.2 1 (null) group 0 2 0 1 0 0.2 0.2 0.2 1 (null)
group 1 3 0 1 2 0 0.2 0.2 0.2 1 (null) slot 9 source 0 4.86652
-0.878098 0 0.2 0.2 0.2 1 (null) source 1 -4.97543 -0.968089 0
0.2 0.2 0.2 1 (null) source 2 -1.81103 5.25939 0 0.2 0.2 0.2 1
(null) group 0 2 0 1 0 0.2 0.2 0.2 1 (null) group 1 3 0 1 2
0 0.2 0.2 0.2 1 (null) slot 10 source 0 3.56498 -1.93848 0 0.2
0.2 0.2 1 (null) source 1 -4.14769 0.531071 0 0.2 0.2 0.2 1 (null)
source 2 -0.0565923 4.67494 0 0.2 0.2 0.2 1 (null) group 0 2 0
1 0 0.2 0.2 0.2 1 (null) group 1 3 0 1 2 0 0.2 0.2 0.2 1 (null)
slot 11 source 0 2.70548 -1.91835 0 0.2 0.2 0.2 1 (null) source
1 -3.33656 0.838092 0 0.2 0.2 0.2 1 (null) source 2 0.418725 3.91159
0 0.2 0.2 0.2 1 (null) group 0 2 0 1 0 0.2 0.2 0.2 1 (null)
group 1 3 0 1 2 0 0.2 0.2 0.2 1 (null) slot 12 source 0 1.95644
-1.72448 0 0.2 0.2 0.2 1 (null) source 1 -2.56431 0.941209 0 0.2
0.2 0.2 1 (null) source 2 0.679678 3.15289 0 0.2 0.2 0.2 1 (null)
group 0 2 0 1 0 0.2 0.2 0.2 1 (null) group 1 3 0 1 2 0 0.2 0.2
0.2 1 (null) slot 13 source 0 1.01171 -1.53645 0 0.2 0.2 0.2 1
(null) source 1 -1.60036 1.1372 0 0.2 0.2 0.2 1 (null) source
2 1.13098 2.18121 0 0.2 0.2 0.2 1 (null) group 0 2 0 1 0 0.2 0.2
0.2 1 (null) group 1 3 0 1 2 0 0.2 0.2 0.2 1 (null) slot 14
source 0 0.45248 -1.10193 0 0.2 0.2 0.2 1 (null) source 1 -0.906125
0.952753 0 0.2 0.2 0.2 1 (null) source 2 1.12455 1.41644 0 0.2
0.2 0.2 1 (null) group 0 2 0 1 0 0.2 0.2 0.2 1 (null) group
1 3 0 1 2 0 0.2 0.2 0.2 1 (null) slot 15 source 0 -0.0851382 -0.655007
0 0.2 0.2 0.2 1 (null) source 1 -0.187483 0.761397 0 0.2 0.2 0.2
1 (null) source 2 1.18629 0.475038 0 0.2 0.2 0.2 1 (null) group
0 2 0 1 0 0.2 0.2 0.2 1 (null) group 1 3 0 1 2 0 0.2 0.2 0.2 1
(null) slot 16 source 0 -0.145884 -0.316935 0 0.2 0.2 0.2 1 (null)
source 1 0.0286619 0.471651 0 0.2 0.2 0.2 1 (null) source 2 0.963257
0.0760208 0 0.2 0.2 0.2 1 (null) group 0 2 0 1 0 0.2 0.2 0.2 1
(null) group 1 3 0 1 2 0 0.2 0.2 0.2 1 (null) slot 17 source
0 -0.131336 -0.0909102 0 0.2 0.2 0.2 1 (null) source 1 0.158738
0.234716 0 0.2 0.2 0.2 1 (null) source 2 0.69796 -0.341631 0 0.2
0.2 0.2 1 (null) group 0 2 0 1 0 0.2 0.2 0.2 1 (null) group
1 3 0 1 2 0 0.2 0.2 0.2 1 (null) slot 18 source 0 -0.154081 -0.0530054
0 0.2 0.2 0.2 1 (null) source 1 0.218805 0.185052 0 0.2 0.2 0.2
1 (null) source 2 0.581807 -0.519965 0 0.2 0.2 0.2 1 (null)
group 0 2 0 1 0 0.2 0.2 0.2 1 (null) group 1 3 0 1 2 0 0.2 0.2
0.2 1 (null) slot 19 source 0 -0.167658 0.101898 0 0.2 0.2 0.2
1 (null) source 1 0.314909 -0.0558168 0 0.2 0.2 0.2 1 (null)
source 2 -0.0292599 -0.813022 0 0.2 0.2 0.2 1 (null) group 0 2
0 1 0 0.2 0.2 0.2 1 (null) group 1 3 0 1 2 0 0.2 0.2 0.2 1 (null)
slot 20 source 0 -0.1978 0.292318 0 0.2 0.2 0.2 1 (null) source
1 0.391924 -0.271143 0 0.2 0.2 0.2 1 (null) source 2 -0.435772
-0.866945 0 0.2 0.2 0.2 1 (null) group 0 2 0 1 0 0.2 0.2 0.2 1
(null) group 1 3 0 1 2 0 0.2 0.2 0.2 1 (null) slot 21 source
0 -0.0826179 0.650079 0 0.2 0.2 0.2 1 (null) source 1 0.371455
-0.684656 0 0.2 0.2 0.2 1 (null) source 2 -1.02341 -0.756503 0
0.2 0.2 0.2 1 (null) group 0 2 0 1 0 0.2 0.2 0.2 1 (null) group
1 3 0 1 2 0 0.2 0.2 0.2 1 (null) slot 22 source 0 0.281716 1.02601
0 0.2 0.2 0.2 1 (null) source 1 0.121776 -1.18135 0 0.2 0.2 0.2
1 (null) source 2 -1.63228 -0.403204 0 0.2 0.2 0.2 1 (null)
group 0 2 0 1 0 0.2 0.2 0.2 1 (null) group 1 3 0 1 2 0 0.2 0.2
0.2 1 (null) slot 23 source 0 0.725511 1.29545 0 0.2 0.2 0.2 1
(null) source 1 -0.224178 -1.5927 0 0.2 0.2 0.2 1 (null) source
2 -2.10213 0.000805055 0 0.2 0.2 0.2 1 (null) group 0 2 0 1 0 0.2
0.2 0.2 1 (null) group 1 3 0 1 2 0 0.2 0.2 0.2 1 (null) slot
24 source 0 1.02163 1.32288 0 0.2 0.2 0.2 1 (null) source 1 -0.507999
-1.72169 0 0.2 0.2 0.2 1 (null) source 2 -2.26396 0.336297 0 0.2
0.2 0.2 1 (null) group 0 2 0 1 0 0.2 0.2 0.2 1 (null) group
1 3 0 1 2 0 0.2 0.2 0.2 1 (null) slot 25 source 0 1.18064 1.23091
0 0.2 0.2 0.2 1 (null) source 1 -0.701986 -1.68915 0 0.2 0.2 0.2
1 (null) source 2 -2.24817 0.584641 0 0.2 0.2 0.2 1 (null)
group 0 2 0 1 0 0.2 0.2 0.2 1 (null) group 1 3 0 1 2 0 0.2 0.2
0.2 1 (null) slot 26 source 0 1.48018 0.802882 0 0.2 0.2 0.2 1
(null) source 1 -1.16873 -1.37886 0 0.2 0.2 0.2 1 (null) source
2 -1.94528 1.22951 0 0.2 0.2 0.2 1 (null) group 0 2 0 1 0 0.2 0.2
0.2 1 (null) group 1 3 0 1 2 0 0.2 0.2 0.2 1 (null) slot 27
source 0 1.5455 -0.0290282 0 0.2 0.2 0.2 1 (null) source 1 -1.56709
-0.575425 0 0.2 0.2 0.2 1 (null) source 2 -1.02062 1.90721 0 0.2
0.2 0.2 1 (null) group 0 2 0 1 0 0.2 0.2 0.2 1 (null) group
1 3 0 1 2 0 0.2 0.2 0.2 1 (null) slot 28 source 0 1.43831 -0.580842
0 0.2 0.2 0.2 1 (null) source 1 -1.67465 0.0219726 0 0.2 0.2 0.2
1 (null) source 2 -0.273226 2.15124 0 0.2 0.2 0.2 1 (null)
group 0 2 0 1 0 0.2 0.2 0.2 1 (null) group 1 3 0 1 2 0 0.2 0.2
0.2 1 (null) slot 29 source 0 1.38786 -1.1527 0 0.2 0.2 0.2 1 (null)
source 1 -1.82842 0.610813 0 0.2 0.2 0.2 1 (null) source 2 0.44056
2.38107 0 0.2 0.2 0.2 1 (null) group 0 2 0 1 0 0.2 0.2 0.2 1 (null)
group 1 3 0 1 2 0 0.2 0.2 0.2 1 (null) slot 30 source 0 1.45318
-1.68014 0 0.2 0.2 0.2 1 (null) source 1 -2.07237 1.09745 0 0.2
0.2 0.2 1 (null) source 2 0.966908 2.669 0 0.2 0.2 0.2 1 (null)
group 0 2 0 1 0 0.2 0.2 0.2 1 (null) group 1 3 0 1 2 0 0.2 0.2
0.2 1 (null) slot 31 source 0 1.48807 -1.87471 0 0.2 0.2 0.2 1
(null) source 1 -2.17284 1.27072 0 0.2 0.2 0.2 1 (null) source
2 1.14395 2.78508 0 0.2 0.2 0.2 1 (null) group 0 2 0 1 0 0.2 0.2
0.2 1 (null) group 1 3 0 1 2 0 0.2 0.2 0.2 1 (null) slot 32
source 0 1.35841 -1.97069 0 0.2 0.2 0.2 1 (null) source 1 -2.08231
1.4142 0 0.2 0.2 0.2 1 (null) source 2 1.32896 2.7017 0 0.2 0.2
0.2 1 (null) group 0 2 0 1 0 0.2 0.2 0.2 1 (null) group 1 3
0 1 2 0 0.2 0.2 0.2 1 (null) slot 33 source 0 1.29673 -2.01181
0 0.2 0.2 0.2 1 (null) source 1 -2.03752 1.478 0 0.2 0.2 0.2 1
(null) source 2 1.41198 2.65925 0 0.2 0.2 0.2 1 (null) group
0 2 0 1 0 0.2 0.2 0.2 1 (null) group 1 3 0 1 2 0 0.2 0.2 0.2 1
(null) slot 34 source 0 1.32837 -1.99028 0 0.2 0.2 0.2 1 (null)
source 1 -1.95007 1.55201 0 0.2 0.2 0.2 1 (null) source 2 1.51773
2.67836 0 0.2 0.2 0.2 1 (null) group 0 2 0 1 0 0.2 0.2 0.2 1 (null)
group 1 3 0 1 2 0 0.2 0.2 0.2 1 (null) slot 35 source 0 1.43504
-2.03295 0 0.2 0.2 0.2 1 (null) source 1 -1.8434 1.50934 0 0.2
0.2 0.2 1 (null) source 2 1.62441 2.6357 0 0.2 0.2 0.2 1 (null)
group 0 2 0 1 0 0.2 0.2 0.2 1 (null) group 1 3 0 1 2 0 0.2 0.2
0.2 1 (null) slot 36 source 0 1.52038 -2.03295 0 0.2 0.2 0.2 1
(null) source 1 -1.75807 1.50934 0 0.2 0.2 0.2 1 (null) source
2 1.70974 2.6357 0 0.2 0.2 0.2 1 (null) group 0 2 0 1 0 0.2 0.2
0.2 1 (null) group 1 3 0 1 2 0 0.2 0.2 0.2 1 (null) slot 37
source 0 1.71239 -2.11829 0 0.2 0.2 0.2 1 (null) source 1 -1.56606
1.424 0 0.2 0.2 0.2 1 (null) source 2 1.90175 2.55036 0 0.2 0.2
0.2 1 (null) group 0 2 0 1 0 0.2 0.2 0.2 1 (null) group 1 3
0 1 2 0 0.2 0.2 0.2 1 (null) slot 38 source 0 1.90439 -2.18229
0 0.2 0.2 0.2 1 (null) source 1 -1.37405 1.36 0 0.2 0.2 0.2 1 (null)
source 2 2.09376 2.48636 0 0.2 0.2 0.2 1 (null) group 0 2 0 1 0
0.2 0.2 0.2 1 (null) group 1 3 0 1 2 0 0.2 0.2 0.2 1 (null)
slot 39 source 0 2.11774 -2.28896 0 0.2 0.2 0.2 1 (null) source
1 -1.16071 1.25333 0 0.2 0.2 0.2 1 (null) source 2 2.3071 2.37969
0 0.2 0.2 0.2 1 (null) group 0 2 0 1 0 0.2 0.2 0.2 1 (null)
group 1 3 0 1 2 0 0.2 0.2 0.2 1 (null) slot 40 source 0 2.22441
-2.45963 0 0.2 0.2 0.2 1 (null) source 1 -1.05404 1.08265 0 0.2
0.2 0.2 1 (null) source 2 2.41377 2.20901 0 0.2 0.2 0.2 1 (null)
group 0 2 0 1 0 0.2 0.2 0.2 1 (null) group 1 3 0 1 2 0 0.2 0.2
0.2 1 (null) slot 41 source 0 2.30974 -2.65164 0 0.2 0.2 0.2 1
(null) source 1 -0.968702 0.890647 0 0.2 0.2 0.2 1 (null) source
2 2.49911 2.017 0 0.2 0.2 0.2 1 (null) group 0 2 0 1 0 0.2 0.2
0.2 1 (null) group 1 3 0 1 2 0 0.2 0.2 0.2 1 (null) slot 42
source 0 2.33108 -3.03566 0 0.2 0.2 0.2 1 (null) source 1 -0.947368
0.506632 0 0.2 0.2 0.2 1 (null) source 2 2.52044 1.63299 0 0.2
0.2 0.2 1 (null) group 0 2 0 1 0 0.2 0.2 0.2 1 (null) group
1 3 0 1 2 0 0.2 0.2 0.2 1 (null) slot 43 source 0 2.30974 -3.22766
0 0.2 0.2 0.2 1 (null) source 1 -0.968702 0.314625 0 0.2 0.2 0.2
1 (null) source 2 2.49911 1.44098 0 0.2 0.2 0.2 1 (null) group
0 2 0 1 0 0.2 0.2 0.2 1 (null) group 1 3 0 1 2 0 0.2 0.2 0.2 1
(null) slot 44 source 0 2.05373 -3.46234 0 0.2 0.2 0.2 1 (null)
source 1 -1.22471 0.079949 0 0.2 0.2 0.2 1 (null) source 2 2.2431
1.20631 0 0.2 0.2 0.2 1 (null) group 0 2 0 1 0 0.2 0.2 0.2 1 (null)
group 1 3 0 1 2 0 0.2 0.2 0.2 1 (null) slot 45 source 0 1.60572
-3.52634 0 0.2 0.2 0.2 1 (null) source 1 -1.67273 0.0159466 0 0.2
0.2 0.2 1 (null) source 2 1.79508 1.1423 0 0.2 0.2 0.2 1 (null)
group 0 2 0 1 0 0.2 0.2 0.2 1 (null) group 1 3 0 1 2 0 0.2 0.2
0.2 1 (null) slot 46 source 0 1.00836 -3.46234 0 0.2 0.2 0.2 1
(null) source 1 -2.27009 0.079949 0 0.2 0.2 0.2 1 (null) source
2 1.19772 1.20631 0 0.2 0.2 0.2 1 (null) group 0 2 0 1 0 0.2 0.2
0.2 1 (null) group 1 3 0 1 2 0 0.2 0.2 0.2 1 (null) slot 47
source 0 0.581678 -3.22766 0 0.2 0.2 0.2 1 (null) source 1 -2.69677
0.314625 0 0.2 0.2 0.2 1 (null) source 2 0.771039 1.44098 0 0.2
0.2 0.2 1 (null) group 0 2 0 1 0 0.2 0.2 0.2 1 (null) group
1 3 0 1 2 0 0.2 0.2 0.2 1 (null) slot 48 source 0 0.240331 -2.97165
0 0.2 0.2 0.2 1 (null) source 1 -3.03812 0.570634 0 0.2 0.2 0.2
1 (null) source 2 0.429693 1.69699 0 0.2 0.2 0.2 1 (null) group
0 2 0 1 0 0.2 0.2 0.2 1 (null) group 1 3 0 1 2 0 0.2 0.2 0.2 1
(null) slot 49 source 0 -0.0583469 -2.58764 0 0.2 0.2 0.2 1 (null)
source 1 -3.33679 0.954649 0 0.2 0.2 0.2 1 (null) source 2 0.131015
2.08101 0 0.2 0.2 0.2 1 (null) group 0 2 0 1 0 0.2 0.2 0.2 1 (null)
group 1 3 0 1 2 0 0.2 0.2 0.2 1 (null) slot 50 source 0 -0.101015
-2.41697 0 0.2 0.2 0.2 1 (null) source 1 -3.37946 1.12532 0 0.2
0.2 0.2 1 (null) source 2 0.0883464 2.25168 0 0.2 0.2 0.2 1 (null)
group 0 2 0 1 0 0.2 0.2 0.2 1 (null) group 1 3 0 1 2 0 0.2 0.2
0.2 1 (null) slot 51 source 0 -0.0796813 -2.33163 0 0.2 0.2 0.2
1 (null) source 1 -3.35813 1.21066 0 0.2 0.2 0.2 1 (null) source
2 0.109681 2.33702 0 0.2 0.2 0.2 1 (null) group 0 2 0 1 0 0.2 0.2
0.2 1 (null) group 1 3 0 1 2 0 0.2 0.2 0.2 1 (null) slot 52
source 0 0.0696579 -2.18229 0 0.2 0.2 0.2 1 (null) source 1 -3.20879
1.36 0 0.2 0.2 0.2 1 (null) source 2 0.25902 2.48636 0 0.2 0.2
0.2 1 (null) group 0 2 0 1 0 0.2 0.2 0.2 1 (null) group 1 3
0 1 2 0 0.2 0.2 0.2 1 (null) slot 53 source 0 -0.141954 -2.05038
0 0.2 0.2 0.2 1 (null) source 1 -2.94294 1.61506 0 0.2 0.2 0.2
1 (null) source 2 0.482412 2.32211 0 0.2 0.2 0.2 1 (null) group
0 2 0 1 0 0.2 0.2 0.2 1 (null) group 1 3 0 1 2 0 0.2 0.2 0.2 1
(null) slot 54 source 0 -0.272721 -1.84634 0 0.2 0.2 0.2 1 (null)
source 1 -2.65094 1.7347 0 0.2 0.2 0.2 1 (null) source 2 0.608172
2.09634 0 0.2 0.2 0.2 1 (null) group 0 2 0 1 0 0.2 0.2 0.2 1 (null)
group 1 3 0 1 2 0 0.2 0.2 0.2 1 (null) slot 55 source 0 -0.557525
-1.26167 0 0.2 0.2 0.2 1 (null) source 1 -1.77169 2.01225 0 0.2
0.2 0.2 1 (null) source 2 0.888965 1.44408 0 0.2 0.2 0.2 1 (null)
group 0 2 0 1 0 0.2 0.2 0.2 1 (null) group 1 3 0 1 2 0 0.2 0.2
0.2 1 (null) slot 56 source 0 -0.527184 -0.863228 0 0.2 0.2 0.2
1 (null) source 1 -1.28647 1.92244 0 0.2 0.2 0.2 1 (null) source
2 0.839058 1.02921 0 0.2 0.2 0.2 1 (null) group 0 2 0 1 0 0.2 0.2
0.2 1 (null) group 1 3 0 1 2 0 0.2 0.2 0.2 1 (null) slot 57
source 0 -0.361204 -0.427352 0 0.2 0.2 0.2 1 (null) source 1 -0.786536
1.68689 0 0.2 0.2 0.2 1 (null) source 2 0.650768 0.586353 0 0.2
0.2 0.2 1 (null) group 0 2 0 1 0 0.2 0.2 0.2 1 (null) group
1 3 0 1 2 0 0.2 0.2 0.2 1 (null) slot 58 source 0 -0.201913 -0.187352
0 0.2 0.2 0.2 1 (null) source 1 -0.48895 1.49943 0 0.2 0.2 0.2
1 (null) source 2 0.484331 0.340168 0 0.2 0.2 0.2 1 (null)
group 0 2 0 1 0 0.2 0.2 0.2 1 (null) group 1 3 0 1 2 0 0.2 0.2
0.2 1 (null) slot 59 source 0 -0 0 0 0.2 0.2 0.2 1 (null) source
1 0.507411 1.03377 0 0.2 0.2 0.2 1 (null) source 2 0.164195 -0.026364
0 0.2 0.2 0.2 1 (null) group 0 2 0 1 0 0.2 0.2 0.2 1 (null)
group 1 3 0 1 2 0 0.2 0.2 0.2 1 (null) slot 60 source 0 -0.00301491
0.00168273 0 0.2 0.2 0.2 1 (null) source 1 0.883678 0.642861 0
0.2 0.2 0.2 1 (null) source 2 0.0859068 -0.064602 0 0.2 0.2 0.2
1 (null) group 0 2 0 1 0 0.2 0.2 0.2 1 (null) group 1 3 0 1
2 0 0.2 0.2 0.2 1 (null) slot 61 source 0 -0.0807838 0.291802 0
0.2 0.2 0.2 1 (null) source 1 1.37371 -0.225514 0 0.2 0.2 0.2 1
(null) source 2 0.0544988 -0.403145 0 0.2 0.2 0.2 1 (null)
group 0 2 0 1 0 0.2 0.2 0.2 1 (null) group 1 3 0 1 2 0 0.2 0.2
0.2 1 (null) slot 62 source 0 -0.00316016 0.905573 0 0.2 0.2 0.2
1 (null) source 1 1.81388 -0.830351 0 0.2 0.2 0.2 1 (null)
source 2 -0.133103 -1.0008 0 0.2 0.2 0.2 1 (null) group 0 2 0 1
0 0.2 0.2 0.2 1 (null) group 1 3 0 1 2 0 0.2 0.2 0.2 1 (null)
slot 63 source 0 0.295585 1.28358 0 0.2 0.2 0.2 1 (null) source
1 1.9024 -1.47381 0 0.2 0.2 0.2 1 (null) source 2 -0.503376 -1.32908
0 0.2 0.2 0.2 1 (null) group 0 2 0 1 0 0.2 0.2 0.2 1 (null)
group 1 3 0 1 2 0 0.2 0.2 0.2 1 (null) slot 64 source 0 0.418793
1.44586 0 0.2 0.2 0.2 1 (null) source 1 1.95964 -1.70054 0 0.2
0.2 0.2 1 (null) source 2 -0.652757 -1.471 0 0.2 0.2 0.2 1 (null)
group 0 2 0 1 0 0.2 0.2 0.2 1 (null) group 1 3 0 1 2 0 0.2 0.2
0.2 1 (null) slot 65 source 0 0.458187 1.48262 0 0.2 0.2 0.2 1
(null) source 1 1.96366 -1.76624 0 0.2 0.2 0.2 1 (null) source
2 -0.698447 -1.50133 0 0.2 0.2 0.2 1 (null) group 0 2 0 1 0 0.2
0.2 0.2 1 (null) group 1 3 0 1 2 0 0.2 0.2 0.2 1 (null) slot
66 source 0 0.893438 1.17122 0 0.2 0.2 0.2 1 (null) source 1 1.19766
-2.26529 0 0.2 0.2 0.2 1 (null) source 2 -1.11739 -1.11299 0 0.2
0.2 0.2 1 (null) group 0 2 0 1 0 0.2 0.2 0.2 1 (null) group
1 3 0 1 2 0 0.2 0.2 0.2 1 (null) slot 67 source 0 1.14161 0.943325
0 0.2 0.2 0.2 1 (null) source 1 0.655258 -2.48532 0 0.2 0.2 0.2
1 (null) source 2 -1.34717 -0.835005 0 0.2 0.2 0.2 1 (null)
group 0 2 0 1 0 0.2 0.2 0.2 1 (null) group 1 3 0 1 2 0 0.2 0.2
0.2 1 (null) slot 68 source 0 1.17788 0.873328 0 0.2 0.2 0.2 1
(null) source 1 0.520769 -2.50202 0 0.2 0.2 0.2 1 (null) source
2 -1.37639 -0.756024 0 0.2 0.2 0.2 1 (null) group 0 2 0 1 0 0.2
0.2 0.2 1 (null) group 1 3 0 1 2 0 0.2 0.2 0.2 1 (null) slot
69 source 0 1.20883 0.774622 0 0.2 0.2 0.2 1 (null) source 1 0.294874
-2.51292 0 0.2 0.2 0.2 1 (null) source 2 -1.4397 -0.629794 0 0.2
0.2 0.2 1 (null) group 0 2 0 1 0 0.2 0.2 0.2 1 (null) group
1 3 0 1 2 0 0.2 0.2 0.2 1 (null) slot 70 source 0 1.01682 0.795956
0 0.2 0.2 0.2 1 (null) source 1 0.102867 -2.49159 0 0.2 0.2 0.2
1 (null) source 2 -1.6317 -0.60846 0 0.2 0.2 0.2 1 (null) group
0 2 0 1 0 0.2 0.2 0.2 1 (null) group 1 3 0 1 2 0 0.2 0.2 0.2 1
(null) slot 71 source 0 0.952816 0.81729 0 0.2 0.2 0.2 1 (null)
source 1 0.0388645 -2.47025 0 0.2 0.2 0.2 1 (null) source 2 -1.69571
-0.587126 0 0.2 0.2 0.2 1 (null) group 0 2 0 1 0 0.2 0.2 0.2 1
(null) group 1 3 0 1 2 0 0.2 0.2 0.2 1 (null) slot 72 source
0 0.696806 0.838624 0 0.2 0.2 0.2 1 (null) source 1 -0.217145 -2.44892
0 0.2 0.2 0.2 1 (null) source 2 -1.95172 -0.565791 0 0.2 0.2 0.2
1 (null) group 0 2 0 1 0 0.2 0.2 0.2 1 (null) group 1 3 0 1
2 0 0.2 0.2 0.2 1 (null) slot 73 source 0 0.355459 0.923961 0 0.2
0.2 0.2 1 (null) source 1 -0.558492 -2.36358 0 0.2 0.2 0.2 1 (null)
source 2 -2.29306 -0.480455 0 0.2 0.2 0.2 1 (null) group 0 2 0
1 0 0.2 0.2 0.2 1 (null) group 1 3 0 1 2 0 0.2 0.2 0.2 1 (null)
slot 74 source 0 0.163452 0.987964 0 0.2 0.2 0.2 1 (null) source
1 -0.750499 -2.29958 0 0.2 0.2 0.2 1 (null) source 2 -2.48507 -0.416452
0 0.2 0.2 0.2 1 (null) group 0 2 0 1 0 0.2 0.2 0.2 1 (null)
group 1 3 0 1 2 0 0.2 0.2 0.2 1 (null) slot 75 source 0 -0.0712237
1.24397 0 0.2 0.2 0.2 1 (null) source 1 -0.985175 -2.04357 0 0.2
0.2 0.2 1 (null) source 2 -2.71975 -0.160443 0 0.2 0.2 0.2 1 (null)
group 0 2 0 1 0 0.2 0.2 0.2 1 (null) group 1 3 0 1 2 0 0.2 0.2
0.2 1 (null) slot 76 source 0 -0.15656 1.41465 0 0.2 0.2 0.2 1
(null) source 1 -1.07051 -1.87289 0 0.2 0.2 0.2 1 (null) source
2 -2.80508 0.0102309 0 0.2 0.2 0.2 1 (null) group 0 2 0 1 0 0.2
0.2 0.2 1 (null) group 1 3 0 1 2 0 0.2 0.2 0.2 1 (null) slot
77 source 0 -0.15656 1.71332 0 0.2 0.2 0.2 1 (null) source 1 -1.07051
-1.57422 0 0.2 0.2 0.2 1 (null) source 2 -2.80508 0.308909 0 0.2
0.2 0.2 1 (null) group 0 2 0 1 0 0.2 0.2 0.2 1 (null) group
1 3 0 1 2 0 0.2 0.2 0.2 1 (null) slot 78 source 0 0.0567811 2.20401
0 0.2 0.2 0.2 1 (null) source 1 -0.85717 -1.08353 0 0.2 0.2 0.2
1 (null) source 2 -2.59174 0.799594 0 0.2 0.2 0.2 1 (null)
group 0 2 0 1 0 0.2 0.2 0.2 1 (null) group 1 3 0 1 2 0 0.2 0.2
0.2 1 (null) slot 79 source 0 0.20612 2.50269 0 0.2 0.2 0.2 1 (null)
source 1 -0.707831 -0.784853 0 0.2 0.2 0.2 1 (null) source 2 -2.4424
1.09827 0 0.2 0.2 0.2 1 (null) group 0 2 0 1 0 0.2 0.2 0.2 1 (null)
group 1 3 0 1 2 0 0.2 0.2 0.2 1 (null) slot 80 source 0 0.526133
2.90804 0 0.2 0.2 0.2 1 (null) source 1 -0.387819 -0.379504 0 0.2
0.2 0.2 1 (null) source 2 -2.12239 1.50362 0 0.2 0.2 0.2 1 (null)
group 0 2 0 1 0 0.2 0.2 0.2 1 (null) group 1 3 0 1 2 0 0.2 0.2
0.2 1 (null) slot 81 source 0 0.846145 3.10004 0 0.2 0.2 0.2 1
(null) source 1 -0.0678064 -0.187496 0 0.2 0.2 0.2 1 (null)
source 2 -1.80238 1.69563 0 0.2 0.2 0.2 1 (null) group 0 2 0 1
0 0.2 0.2 0.2 1 (null) group 1 3 0 1 2 0 0.2 0.2 0.2 1 (null)
slot 82 source 0 1.35816 3.24938 0 0.2 0.2 0.2 1 (null) source
1 0.444213 -0.0381574 0 0.2 0.2 0.2 1 (null) source 2 -1.29036
1.84497 0 0.2 0.2 0.2 1 (null) group 0 2 0 1 0 0.2 0.2 0.2 1 (null)
group 1 3 0 1 2 0 0.2 0.2 0.2 1 (null) slot 83 source 0 1.89152
3.14271 0 0.2 0.2 0.2 1 (null) source 1 0.977567 -0.144828 0 0.2
0.2 0.2 1 (null) source 2 -0.757004 1.7383 0 0.2 0.2 0.2 1 (null)
group 0 2 0 1 0 0.2 0.2 0.2 1 (null) group 1 3 0 1 2 0 0.2 0.2
0.2 1 (null) slot 84 source 0 2.2542 2.80137 0 0.2 0.2 0.2 1 (null)
source 1 1.34025 -0.486175 0 0.2 0.2 0.2 1 (null) source 2 -0.394324
1.39695 0 0.2 0.2 0.2 1 (null) group 0 2 0 1 0 0.2 0.2 0.2 1 (null)
group 1 3 0 1 2 0 0.2 0.2 0.2 1 (null) slot 85 source 0 2.3822
2.37468 0 0.2 0.2 0.2 1 (null) source 1 1.46825 -0.912858 0 0.2
0.2 0.2 1 (null) source 2 -0.266319 0.970268 0 0.2 0.2 0.2 1 (null)
group 0 2 0 1 0 0.2 0.2 0.2 1 (null) group 1 3 0 1 2 0 0.2 0.2
0.2 1 (null) slot 86 source 0 2.42487 1.79866 0 0.2 0.2 0.2 1 (null)
source 1 1.51092 -1.48888 0 0.2 0.2 0.2 1 (null) source 2 -0.223651
0.394245 0 0.2 0.2 0.2 1 (null) group 0 2 0 1 0 0.2 0.2 0.2 1 (null)
group 1 3 0 1 2 0 0.2 0.2 0.2 1 (null) slot 87 source 0 2.40354
1.41465 0 0.2 0.2 0.2 1 (null) source 1 1.48959 -1.87289 0 0.2
0.2 0.2 1 (null) source 2 -0.244985 0.0102309 0 0.2 0.2 0.2 1 (null)
group 0 2 0 1 0 0.2 0.2 0.2 1 (null) group 1 3 0 1 2 0 0.2 0.2
0.2 1 (null) slot 88 source 0 2.10486 1.32931 0 0.2 0.2 0.2 1 (null)
source 1 1.19091 -1.95823 0 0.2 0.2 0.2 1 (null) source 2 -0.543663
-0.075106 0 0.2 0.2 0.2 1 (null) group 0 2 0 1 0 0.2 0.2 0.2 1
(null) group 1 3 0 1 2 0 0.2 0.2 0.2 1 (null) slot 89 source
0 1.63551 1.15864 0 0.2 0.2 0.2 1 (null) source 1 0.721557 -2.1289
0 0.2 0.2 0.2 1 (null) source 2 -1.01301 -0.245779 0 0.2 0.2 0.2
1 (null) group 0 2 0 1 0 0.2 0.2 0.2 1 (null) group 1 3 0 1
2 0 0.2 0.2 0.2 1 (null) ;
#X obj -580 107 send map_slot;
#X obj -206 131 send map_slot;
#X text -583 14 hoa.map needs an absolute path. Here is an example
but this is my name therefor it won't work...;
#X text -209 57 hoa.map needs an absolute path. Here is an example.
;
#X text -186 -429 hoa.map allows you to record and play trajectories.
Trajectories record the position of sources or groups while you're
draging it. You can overwrite with other sources or groups to create
complexs trajectories. Trajectories are saved in the patch and can
be saved in a text file.;
#X obj -429 -375 receive map_traj;
#X text 208 -321 1 - Set "trajectory record 1";
#X obj -188 -254 send map_traj;
#X obj -188 -315 tgl 15 0 empty empty empty 17 7 0 10 -262144 -1 -1
0 1;
#X text 208 -307 2 - Draw the trajectory of a source or a group;
#X text 208 -292 2 (bis) - Set "record 0" (for safety);
#X obj -183 -136 send map_traj;
#X obj -183 -192 nbx 5 14 0 1 0 0 empty empty empty 0 -8 0 10 -262144
-1 -1 0.4 256;
#X msg -183 -168 trajectory \$1;
#X msg -188 -286 trajectory record \$1;
#X text 208 -277 3 - Replay with floats between 0 and 1;
#X text 208 -262 4 - Rewind to 0;
#X text 208 -248 5 - Set "limit 1";
#X obj -180 11 send map_traj;
#X obj -180 -50 tgl 15 0 empty empty empty 17 7 0 10 -262144 -1 -1
0 1;
#X text -186 -108 (5) When a trajectory is recorded \, you can overwrite
it with another source or group. To limit the lenght of the new trajectory
to the lenght of previous trajectory set "limit 1".;
#X msg -180 -21 trajectory limit \$1;
#X text -191 -354 (1 \, 2bis and 6) Set "record 1" to enable the recording.
Then draw your trajectory.;
#X text 208 -234 6 - Set "record 1";
#X text 208 -220 7 - Overwrite the trajectory with another source or
another group;
#X text 208 -192 8 - Rewind to 0;
#X text -187 -225 (3 \, 4 and 8) Use values between 0 and 1 to play/rewind
the trajectory.;
#X text 250 -350 How to record trajectories;
#X text 208 -178 9 - (record \, play and rewind to inifite);
#X obj 207 -88 send map_traj;
#X msg 207 -120 trajectory erase;
#X text 204 -141 Erase all the trajectory.;
#X text 203 -63 Erase a part of the trajectory. For example "erasepart
0 0.1" to erase the beginning of the trajectory;
#X obj 207 54 send map_traj;
#X msg 207 22 trajectory erasepart \$1 \$2;
#X obj 207 -6 pack 0 0;
#X obj 207 -29 nbx 5 14 -1e+37 1e+37 0 0 empty empty empty 0 -8 0 10
-262144 -1 -1 0 256;
#X obj 270 -31 nbx 5 14 -1e+37 1e+37 0 0 empty empty empty 0 -8 0 10
-262144 -1 -1 0 256;
#X text -209 41 Read trajectories in text file;
#X text -583 -1 Save trajectory in text file;
#X msg -580 55 trajectory write /Users/Pierre/Desktop/The_Graduate.pd
;
#X msg -206 88 trajectory read /Users/Pierre/Desktop/The_Graduate.pd
;
#X connect 6 0 0 0;
#X connect 9 0 15 0;
#X connect 13 0 14 0;
#X connect 14 0 12 0;
#X connect 15 0 8 0;
#X connect 20 0 22 0;
#X connect 22 0 19 0;
#X connect 31 0 30 0;
#X connect 35 0 34 0;
#X connect 36 0 35 0;
#X connect 37 0 36 0;
#X connect 38 0 36 1;
#X connect 41 0 1 0;
#X connect 42 0 2 0;
