#N canvas 183 179 838 463 10;
#X obj 246 341 hoa.out~;
#X obj -12 5 c.loadmess;
#X obj 389 42 hoa.in extra 1;
#N canvas 0 22 450 300 hoa.mode.sel 0;
#X obj 85 62 unpack s s;
#X obj 139 90 sel harmonics planewaves;
#X obj 209 142 f 0;
#X obj 139 142 f 1;
#X obj 39 90 sel 2d 3d, f 14;
#X obj 79 142 f 1;
#X obj 39 142 f 0;
#X obj 103 178 +;
#X obj 87 21 inlet;
#X obj 103 248 outlet;
#X text 217 192 Planewaves 2d or 3d : mode 0;
#X text 217 212 Harmonics 2d : mode 1;
#X text 217 232 Harmonics 3d : mode 2;
#X connect 0 0 4 0;
#X connect 0 1 1 0;
#X connect 1 0 3 0;
#X connect 1 1 2 0;
#X connect 2 0 7 1;
#X connect 3 0 7 1;
#X connect 4 0 6 0;
#X connect 4 1 5 0;
#X connect 5 0 7 0;
#X connect 6 0 7 0;
#X connect 7 0 9 0;
#X connect 8 0 0 0;
#X restore 69 72 pd hoa.mode.sel;
#X text 200 369 Output the signal;
#X text 324 150 Input messages selector;
#N canvas 507 233 705 502 hoa.arg.map 0;
#X obj 333 90 inlet;
#X obj 80 90 inlet;
#X obj 333 118 sel 0 1 2;
#X obj 222 471 outlet;
#X text 331 32 Planewaves 2d or 3d : mode 0;
#X text 331 42 Harmonics 2d : mode 1;
#X text 331 52 Harmonics 3d : mode 2;
#X text 330 9 Right inlet the process mode;
#X text 80 9 Left inlet the instance arguments;
#X text 81 32 The arguments are mapped depending on;
#X msg 80 257 1;
#X text 23 328 Planewaves mode;
#X text 23 338 is not mapped.;
#X text 23 348 You should create;
#N canvas 53 442 611 363 hoa.arg.2dmap 0;
#X obj 206 104 spigot 0;
#X obj 251 83 f 1;
#X obj 252 161 < 0;
#X obj 225 161 * 2;
#X obj 225 182 abs;
#X obj 225 203 - 0;
#X obj 225 249 / 1;
#X obj 285 143 * 2;
#X obj 253 17 inlet;
#X obj 155 46 unpack;
#X obj 157 17 inlet;
#X obj 206 315 outlet;
#X obj 377 265 outlet;
#X obj 377 162 abs;
#X obj 377 224 / 1;
#X text 68 133 size mapping;
#X text 47 156 the arguments need;
#X text 47 176 depending on the;
#X text 47 186 the harmonic argument.;
#X text 47 166 need to be interleaved;
#X text 50 208 Then \, the result;
#X text 50 228 of harmonics.;
#X text 50 217 is divide by the number;
#X text 27 37 Harmonics 2d mode;
#X text 413 74 delay mapping;
#X text 413 99 The negative and positive;
#X text 413 109 harmonics have the same;
#X text 413 119 arguments;
#X obj 206 132 t 1 f f;
#X obj 206 273 -;
#X obj 377 188 + 1;
#X obj 407 158 + 1;
#X obj 285 171 + 2;
#X msg 206 226 1;
#X connect 0 0 28 0;
#X connect 0 0 13 0;
#X connect 1 0 0 1;
#X connect 2 0 5 1;
#X connect 3 0 4 0;
#X connect 4 0 5 0;
#X connect 5 0 6 0;
#X connect 6 0 29 1;
#X connect 7 0 32 0;
#X connect 8 0 1 0;
#X connect 9 0 0 0;
#X connect 9 1 7 0;
#X connect 9 1 31 0;
#X connect 10 0 9 0;
#X connect 13 0 30 0;
#X connect 14 0 12 0;
#X connect 28 0 33 0;
#X connect 28 1 3 0;
#X connect 28 2 2 0;
#X connect 29 0 11 0;
#X connect 30 0 14 0;
#X connect 31 0 14 1;
#X connect 32 0 6 1;
#X connect 33 0 29 0;
#X restore 257 249 pd hoa.arg.2dmap;
#X obj 283 471 outlet;
#X text 81 42 the mode to control the grain size and;
#X text 81 52 the delay;
#N canvas 0 22 611 363 hoa.arg.3dmap 0;
#X obj 206 104 spigot 0;
#X obj 251 83 f 1;
#X obj 233 151 < 0;
#X obj 206 132 t f f;
#X obj 206 151 * 2;
#X obj 206 172 abs;
#X obj 206 193 - 0;
#X obj 206 229 / 1;
#X obj 265 143 * 2;
#X obj 265 171 + 1;
#X obj 253 17 inlet;
#X obj 157 17 inlet;
#X obj 206 265 outlet;
#X obj 318 265 outlet;
#X obj 337 162 abs;
#X obj 337 189 / 1;
#X text 68 133 size mapping;
#X text 47 156 the arguments need;
#X text 47 176 depending on the;
#X text 47 186 the harmonic argument.;
#X text 47 166 need to be interleaved;
#X text 50 208 Then \, the result;
#X text 50 228 of harmonics.;
#X text 50 217 is divide by the number;
#X text 27 37 Harmonics 2d mode;
#X text 413 124 delay mapping;
#X text 413 149 The negative and positive;
#X text 413 159 harmonics have the same;
#X text 413 169 arguments;
#X obj 318 226 / 1;
#X obj 318 132 t 1 f;
#X obj 155 46 unpack 0 0 0;
#X obj 543 230 spigot 0;
#X obj 587 209 f 1;
#X obj 614 230 spigot 0;
#X obj 658 209 f 1;
#X obj 570 277 < 0;
#X obj 543 258 t f f;
#X obj 543 277 * 2;
#X obj 543 298 abs;
#X obj 543 319 - 0;
#X obj 543 365 + 0;
#X obj 614 259 * 2;
#X obj 614 287 + 1;
#X connect 0 0 3 0;
#X connect 0 0 30 0;
#X connect 1 0 0 1;
#X connect 2 0 6 1;
#X connect 3 0 4 0;
#X connect 3 1 2 0;
#X connect 4 0 5 0;
#X connect 5 0 6 0;
#X connect 6 0 7 0;
#X connect 8 0 9 0;
#X connect 9 0 7 1;
#X connect 10 0 1 0;
#X connect 11 0 31 0;
#X connect 14 0 15 0;
#X connect 15 0 29 1;
#X connect 30 0 29 0;
#X connect 30 1 14 0;
#X connect 31 0 0 0;
#X connect 31 1 8 0;
#X connect 31 1 15 1;
#X connect 32 0 37 0;
#X connect 33 0 32 1;
#X connect 34 0 42 0;
#X connect 35 0 34 1;
#X connect 36 0 40 1;
#X connect 37 0 38 0;
#X connect 37 1 36 0;
#X connect 38 0 39 0;
#X connect 39 0 40 0;
#X connect 40 0 41 0;
#X connect 42 0 43 0;
#X connect 43 0 41 1;
#X restore 388 249 pd hoa.arg.3dmap;
#X text 23 368 for this.;
#X text 23 358 your own granulator;
#X connect 0 0 2 0;
#X connect 1 0 14 0;
#X connect 1 0 18 0;
#X connect 2 0 10 0;
#X connect 2 1 14 1;
#X connect 2 2 18 1;
#X connect 10 0 3 0;
#X connect 10 0 15 0;
#X connect 14 0 3 0;
#X connect 14 1 15 0;
#X connect 18 0 3 0;
#X connect 18 1 15 0;
#X restore -12 101 pd hoa.arg.map;
#X text -6 147 In the subcanvas \, the mode;
#X text -6 167 are used to split the list;
#X text -6 177 at the right index.;
#X text -6 157 anf the arguments;
#X text 371 347 - feedback set all the instances feedback (except if
the target is used).;
#X text 371 377 - rarefaction set all the instances rarefaction (except
if the target is used).;
#N canvas 417 312 450 300 array_error 0;
#X obj 41 162 print hoa.gain~;
#X obj 41 112 sel unknown_array;
#X msg 41 137 : The buffer is not defined.;
#X obj 41 90 c.prepend symbol;
#X obj 41 48 inlet;
#X obj 169 184 outlet;
#X connect 1 0 2 0;
#X connect 1 1 5 0;
#X connect 2 0 0 0;
#X connect 3 0 1 0;
#X connect 4 0 3 0;
#X restore 578 170 pd array_error;
#X text 573 132 Post an error if the;
#X text 573 142 buffer is not defined;
#X obj 297 170 route size delay feedback rarefaction array;
#X text 181 120 Receive;
#X text 181 130 the signal;
#N canvas 86 221 900 507 granular 0;
#X obj 33 221 clip~ 0 1;
#X obj 33 184 line~;
#X obj 33 68 nbx 5 14 0 1 0 0 empty empty empty 0 -8 0 10 -262144 -1
-1 0.5 256;
#X obj 18 273 *~;
#X obj 83 361 *~;
#X obj 299 278 samphold~;
#X obj 400 244 phasor~;
#X obj 299 141 +~ 1;
#X obj 299 167 *~ 0.5;
#X obj 299 101 noise~;
#X obj 326 58 nbx 5 14 0 1 0 0 empty empty empty 0 -8 0 10 -262144
-1 -1 0 256;
#N canvas 0 22 450 300 >~ 0;
#X obj 67 114 max~ 0;
#X obj 67 175 -~ 0;
#X obj 130 188 /~;
#X obj 130 152 sig~ -1;
#X obj 145 114 -~;
#X obj 67 212 *~;
#X obj 67 17 inlet~;
#X obj 67 252 outlet~;
#X obj 132 15 inlet;
#X connect 0 0 1 0;
#X connect 1 0 5 0;
#X connect 2 0 5 1;
#X connect 3 0 2 0;
#X connect 4 0 2 1;
#X connect 5 0 7 0;
#X connect 6 0 0 0;
#X connect 6 0 4 1;
#X connect 8 0 4 0;
#X connect 8 0 1 1;
#X connect 8 0 0 1;
#X restore 299 196 pd >~;
#X text 317 37 Rarefaction;
#X text 427 9 Size;
#X obj 299 324 *~;
#X obj 400 278 *~ 513;
#X text 33 40 Feedback;
#X obj 400 109 sig~ 1000;
#X obj 400 183 /~ 80;
#X obj 149 243 samphold~;
#X obj 83 327 vd~ \$0-hoa_grain;
#X obj 83 271 delwrite~ \$0-hoa_grain 5500;
#X obj 164 68 nbx 5 14 1 5000 0 0 empty empty empty 0 -8 0 10 -262144
-1 -1 1000 256;
#X obj 149 101 noise~;
#X obj 149 130 *~ 1;
#X obj 149 158 +~;
#X obj 149 215 +~ 1;
#X obj 149 184 abs~;
#X text 160 40 Delay;
#X obj 502 84 random;
#X obj 427 160 +;
#X obj 195 101 * 0.1;
#X obj 502 62 metro;
#X obj 427 133 t b f;
#X obj 83 432 outlet~;
#X obj 432 24 nbx 5 14 0 1e+06 0 0 empty empty empty 0 -8 0 10 -262144
-1 -1 100 256;
#X obj 71 3 inlet;
#X obj 21 20 inlet~;
#X obj 151 3 inlet;
#X obj 231 3 inlet;
#X obj 291 3 inlet;
#X obj 580 22 c.loadmess 1;
#X obj 502 137 * 0.3;
#X obj 689 34 inlet;
#X obj 690 69 c.prepend set;
#X obj 400 307 tabread4~;
#X obj 450 198 c.loadmess 0;
#X obj 350 218 c.loadmess set 0;
#X connect 0 0 3 1;
#X connect 1 0 0 0;
#X connect 2 0 1 0;
#X connect 3 0 21 0;
#X connect 4 0 3 0;
#X connect 4 0 34 0;
#X connect 5 0 14 0;
#X connect 6 0 5 1;
#X connect 6 0 15 0;
#X connect 6 0 19 1;
#X connect 7 0 8 0;
#X connect 8 0 11 0;
#X connect 9 0 7 0;
#X connect 10 0 11 1;
#X connect 11 0 5 0;
#X connect 14 0 4 1;
#X connect 15 0 45 0;
#X connect 17 0 18 0;
#X connect 18 0 6 0;
#X connect 19 0 20 0;
#X connect 20 0 4 0;
#X connect 22 0 25 1;
#X connect 22 0 31 0;
#X connect 23 0 24 0;
#X connect 24 0 25 0;
#X connect 25 0 27 0;
#X connect 26 0 19 0;
#X connect 27 0 26 0;
#X connect 29 0 42 0;
#X connect 30 0 18 1;
#X connect 31 0 24 1;
#X connect 32 0 29 0;
#X connect 33 0 30 0;
#X connect 33 1 30 1;
#X connect 35 0 30 0;
#X connect 35 0 32 1;
#X connect 35 0 29 1;
#X connect 36 0 35 0;
#X connect 37 0 21 0;
#X connect 38 0 22 0;
#X connect 39 0 2 0;
#X connect 40 0 10 0;
#X connect 41 0 32 0;
#X connect 42 0 33 0;
#X connect 43 0 44 0;
#X connect 44 0 45 0;
#X connect 45 0 14 1;
#X connect 46 0 6 1;
#X connect 47 0 5 0;
#X connect 47 0 19 0;
#X restore 246 263 pd granular -------------------------------;
#X text 371 407 - array set all the instances array (except if the
target is used).;
#X text 531 109 Array must be defined as an argument.;
#X obj 246 125 hoa.in~ extra 1;
#X obj -12 32 hoa.thisprocess~ unknown_array @size 100 @delay 1000
@feedback 0.5 @rarefaction 0;
#X obj 297 238 * 1;
#X obj 348 238 * 1;
#X text 385 18 Extra 1 Retreive the inlet messages.;
#X obj 266 208 t b f;
#X obj 316 208 t b f;
#X connect 1 0 23 0;
#X connect 2 0 16 0;
#X connect 3 0 6 1;
#X connect 6 0 27 0;
#X connect 6 1 28 0;
#X connect 13 0 19 5;
#X connect 16 0 24 0;
#X connect 16 1 25 0;
#X connect 16 2 19 3;
#X connect 16 3 19 4;
#X connect 16 4 19 5;
#X connect 19 0 0 0;
#X connect 22 0 19 0;
#X connect 23 0 6 0;
#X connect 23 1 3 0;
#X connect 23 2 13 0;
#X connect 23 3 16 0;
#X connect 24 0 19 1;
#X connect 25 0 19 2;
#X connect 27 0 24 0;
#X connect 27 1 24 1;
#X connect 28 0 25 0;
#X connect 28 1 25 1;
