#N canvas 201 396 650 462 10;
#X obj 7 -21 hoa.in~;
#X obj 138 320 hoa.out~;
#X obj 298 -48 c.loadmess;
#X obj 7 22 delwrite~ \$0-hoa.delay 3000;
#X obj 298 6 unpack;
#X msg 554 73 0;
#X obj 478 121 osc~;
#X obj 478 73 samplerate~;
#X obj 478 144 *~ -0.5;
#X obj 470 45 c.loadmess;
#X obj 478 97 / 512;
#X obj 241 25 hoa.in extra 1;
#X obj 241 53 list split;
#X obj 254 105 f;
#X obj 22 170 *~ 513;
#X obj 470 192 tabwrite~ \$0-hoa_hann1;
#X obj 471 224 table \$0-hoa_hann1 512;
#X obj 478 167 +~ 0.5;
#X obj 22 198 tabread4~ \$0-hoa_hann1;
#X obj 7 249 *~;
#X obj 253 249 *~;
#X obj 7 105 f;
#X obj 268 198 tabread4~ \$0-hoa_hann1;
#X obj 268 149 wrap~;
#X obj 268 128 +~ 0.5;
#X obj 268 170 *~ 513;
#X obj 254 229 delread~ \$0-hoa.delay 1;
#X obj 7 229 delread~ \$0-hoa.delay 1;
#X obj 22 70 phasor~ 0.5;
#N canvas 580 165 450 300 sel~ 0;
#X obj 73 20 c.loadmess 1;
#X obj 92 141 samphold~;
#X obj 92 165 snapshot~;
#X obj 92 187 change;
#X obj 92 209 < 126;
#X obj 92 233 sel 0 1;
#X obj 38 59 inlet~;
#X obj 108 49 inlet~;
#X obj 92 261 outlet;
#X obj 153 261 outlet;
#X obj 155 232 nbx 5 14 -1e+37 1e+37 0 0 empty empty empty 0 -8 0 10
-262144 -1 -1 0 256;
#X obj 73 109 metro 5;
#X connect 0 0 11 0;
#X connect 1 0 2 0;
#X connect 2 0 3 0;
#X connect 3 0 4 0;
#X connect 3 0 10 0;
#X connect 4 0 5 0;
#X connect 5 0 9 0;
#X connect 5 1 8 0;
#X connect 6 0 1 0;
#X connect 6 0 1 1;
#X connect 7 0 1 1;
#X connect 11 0 2 0;
#X restore 181 197 pd sel~;
#X obj 269 77 unpack;
#X obj 298 -21 hoa.thisprocess~;
#X connect 0 0 3 0;
#X connect 2 0 31 0;
#X connect 4 0 12 1;
#X connect 5 0 6 1;
#X connect 6 0 8 0;
#X connect 7 0 10 0;
#X connect 8 0 17 0;
#X connect 9 0 5 0;
#X connect 9 0 7 0;
#X connect 9 0 15 0;
#X connect 10 0 6 0;
#X connect 11 0 12 0;
#X connect 12 1 30 0;
#X connect 13 0 26 0;
#X connect 14 0 18 0;
#X connect 14 0 29 0;
#X connect 17 0 15 0;
#X connect 18 0 19 1;
#X connect 19 0 1 0;
#X connect 20 0 1 0;
#X connect 21 0 27 0;
#X connect 22 0 20 1;
#X connect 23 0 25 0;
#X connect 24 0 23 0;
#X connect 25 0 22 0;
#X connect 25 0 29 1;
#X connect 26 0 20 0;
#X connect 27 0 19 0;
#X connect 28 0 14 0;
#X connect 28 0 24 0;
#X connect 29 0 21 0;
#X connect 29 1 13 0;
#X connect 30 0 13 1;
#X connect 30 0 21 1;
#X connect 31 0 4 0;
