#N canvas 498 403 450 300 10;
#X obj 168 136 freeverb~;
#X obj 168 45 hoa.in~;
#X obj 168 198 hoa.out~;
#X msg -5 65 wet 1;
#X msg 61 52 roomsize 0.8;
#X obj 0 -12 c.loadmess;
#X obj 279 45 hoa.in extra 1;
#X obj 298 182 switch~;
#X obj 337 108 tgl 15 0 empty empty empty 0 -6 0 8 -262144 -1 -1 0
1;
#X connect 0 0 2 0;
#X connect 1 0 0 0;
#X connect 3 0 0 0;
#X connect 4 0 0 0;
#X connect 5 0 3 0;
#X connect 5 0 4 0;
#X connect 6 0 0 0;
#X connect 6 0 8 0;
#X connect 8 0 7 0;
