#N canvas 321 64 976 762 10;
#X obj -610 -435 cnv 15 552 40 empty \$0-pddp.cnv.header hoa.2d.map
3 12 0 18 -204280 -1 0;
#X text -254 -344 To move source or group \, click on it and drag it.
Click and drag with shift to change the radius. Click and drag with
shift and alt to change the angle., f 60;
#X text -253 -292 To create source \, click with cmd or alt on a "free"
zone then select "Add source" in the popup menu. To remove source \,
idem and select "Remove source"., f 60;
#X text -252 -238 To create group \, drag select a set of sources \,
when mouse up the group will be created. To remove group \, click with
cmd or alt on group then select "Remove group".;
#X text -254 -187 To mute source or group \, click with cmd or alt
on it and select "Mute" or "Unmute"., f 60;
#X text -499 252 Eliott Paris © 2012-2013 CICM / Universite Paris
8;
#X text -499 236 hoalibrary | Julien Colafrancesco \, Pierre Guillot
;
#X text -252 -149 Mousewheel and alt to change the zoom.;
#X text -605 -414 A GUI to spatialize sources on a map.;
#X obj -579 -327 hoa.2d.map @size 288 288 @fontname Helvetica @fontweight
normal @fontslant roman @fontsize 11 @receive (null) @send (null) @bgcolor
0.76 0.76 0.76 1 @bdcolor 0.7 0.7 0.7 1 @outputmode polar @zoom 0.81
sources_parameters source 0 -1.84265e-16 -1.00309 0 0.2 0.2 0.2 1 (null)
source 1 -0.994513 0.0342936 0 0.2 0.2 0.2 1 (null) source 2 0.968793
0.0257201 0 0.2 0.2 0.2 1 (null) source 3 0.0170201 0.982148 0 0.2
0.2 0.2 1 (null) groups_parameters group 0 4 0 1 2 3 0 0.2 0.2 0.2
1 (null);
#X obj -579 198 hoa.dac~ 1 2 -----------------------------------;
#X obj -579 -352 c.loadmess;
#X msg -242 -100 \; pd dsp 1;
#X msg -242 -65 \; pd dsp 0;
#X text -605 -393 hoa.2d.map allows you to spatialize several sources
on a plane. You can add and remove sources \, change coordinates \,
add description and create groups.;
#N canvas 90 405 450 300 binaural_block 0;
#X obj -147 126 hoa.2d.decoder~ 3 binaural @pinna small --------;
#X obj -136 41 inlet~;
#X obj -86 41 inlet~;
#X obj -36 41 inlet~;
#X obj 14 41 inlet~;
#X obj 74 41 inlet~;
#X obj 124 41 inlet~;
#X obj 175 41 inlet~;
#X obj -117 234 outlet~;
#X obj -47 234 outlet~;
#X obj 102 257 block~ 256 1 1;
#X connect 0 0 8 0;
#X connect 0 1 9 0;
#X connect 1 0 0 0;
#X connect 2 0 0 1;
#X connect 3 0 0 2;
#X connect 4 0 0 3;
#X connect 5 0 0 4;
#X connect 6 0 0 5;
#X connect 7 0 0 6;
#X restore -579 162 pd binaural_block ------------------------------
;
#X obj -579 111 freeverb~;
#X obj -532 111 freeverb~;
#X obj -484 111 freeverb~;
#X obj -437 111 freeverb~;
#X obj -389 111 freeverb~;
#X obj -342 111 freeverb~;
#X obj -294 111 freeverb~;
#X obj -579 73 hoa.2d.optim~ 3 --------------------------------;
#X obj -30 -401 hoa.connect;
#X obj -30 -426 bng 15 250 50 0 empty empty empty 17 7 0 10 -262144
-1 -1;
#X msg -194 80 roomsize 0.9;
#X obj -579 38 hoa.2d.map~ 3 4 --------------------------------;
#X obj -473 -27 c.loadmess 1;
#N canvas 284 119 577 458 hoa.rhythm 0;
#X msg 231 -105 0;
#X obj 158 21 *~ 0;
#X msg 211 -33 0;
#X obj 204 -105 + 1;
#X obj 179 -104 f;
#X obj 8 21 *~ 0;
#X msg 61 -33 0;
#X obj 54 -105 + 1;
#X obj 29 -104 f;
#X msg 81 -105 0;
#X obj 29 -82 sel 0 4;
#X obj 61 -56 delay 3;
#X obj -112 57 *~ 0;
#X msg -59 -13 0;
#X obj -66 -85 + 1;
#X obj -91 -84 f;
#X msg -39 -85 0;
#X obj -91 -62 sel 0 6;
#X obj -62 231 *~ 0;
#X msg -9 177 0;
#X obj -9 154 delay 1;
#X obj -16 105 + 1;
#X obj -41 106 f;
#X msg 11 105 0;
#X obj -41 128 sel 0 2;
#X obj -62 200 osc~ 0.05;
#X obj -112 11 phasor~ 0.1;
#X obj -59 -36 delay 3;
#X obj -112 32 +~ 0.2;
#X obj 56 -9 osc~ 3.7;
#X obj 211 -59 delay 5;
#X obj -32 32 +~ 0.2;
#X obj 61 18 abs~;
#X obj 191 -166 nbx 5 14 -1e+37 1e+37 0 0 empty empty empty 0 -8 0
10 -262144 -1 -1 0 256;
#X obj 145 -194 tgl 15 0 empty empty empty 17 7 0 10 -262144 -1 -1
1 1;
#X obj 179 -82 sel 1 3 8;
#X obj 29 -138 metro 120;
#X msg -91 -13 0.8;
#X msg 29 -33 0.8;
#X obj 136 -66 noise~;
#X obj 144 -12 lop~ 200;
#X msg 179 -33 4;
#X msg -41 177 0.7;
#X obj 120 105 outlet~;
#X obj 180 105 outlet~;
#X obj 180 145 outlet~;
#X obj 120 145 outlet~;
#X obj 351 -46 inlet;
#X connect 0 0 4 0;
#X connect 1 0 44 0;
#X connect 2 0 1 1;
#X connect 3 0 4 1;
#X connect 4 0 3 0;
#X connect 4 0 35 0;
#X connect 5 0 43 0;
#X connect 6 0 5 1;
#X connect 7 0 8 1;
#X connect 8 0 7 0;
#X connect 8 0 10 0;
#X connect 9 0 8 0;
#X connect 10 0 38 0;
#X connect 10 0 11 0;
#X connect 10 1 9 0;
#X connect 11 0 6 0;
#X connect 12 0 46 0;
#X connect 13 0 12 1;
#X connect 14 0 15 1;
#X connect 15 0 14 0;
#X connect 15 0 17 0;
#X connect 16 0 15 0;
#X connect 17 0 37 0;
#X connect 17 0 27 0;
#X connect 17 1 16 0;
#X connect 18 0 45 0;
#X connect 19 0 18 1;
#X connect 20 0 19 0;
#X connect 21 0 22 1;
#X connect 22 0 21 0;
#X connect 22 0 24 0;
#X connect 23 0 22 0;
#X connect 24 0 42 0;
#X connect 24 0 20 0;
#X connect 24 1 23 0;
#X connect 25 0 18 0;
#X connect 26 0 28 0;
#X connect 27 0 13 0;
#X connect 28 0 12 0;
#X connect 29 0 32 0;
#X connect 30 0 2 0;
#X connect 31 0 5 0;
#X connect 32 0 31 0;
#X connect 33 0 36 1;
#X connect 34 0 36 0;
#X connect 35 0 41 0;
#X connect 35 0 30 0;
#X connect 35 1 41 0;
#X connect 35 1 30 0;
#X connect 35 2 0 0;
#X connect 36 0 4 0;
#X connect 36 0 8 0;
#X connect 36 0 15 0;
#X connect 36 0 22 0;
#X connect 37 0 12 1;
#X connect 38 0 5 1;
#X connect 39 0 40 0;
#X connect 40 0 1 0;
#X connect 41 0 1 1;
#X connect 42 0 18 1;
#X connect 47 0 34 0;
#X restore -579 6 pd hoa.rhythm ----------------------------------
;
#X connect 9 0 27 0;
#X connect 11 0 9 0;
#X connect 15 0 10 0;
#X connect 15 1 10 1;
#X connect 16 0 15 0;
#X connect 17 0 15 1;
#X connect 18 0 15 2;
#X connect 19 0 15 3;
#X connect 20 0 15 4;
#X connect 21 0 15 5;
#X connect 22 0 15 6;
#X connect 23 0 16 0;
#X connect 23 1 17 0;
#X connect 23 2 18 0;
#X connect 23 3 19 0;
#X connect 23 4 20 0;
#X connect 23 5 21 0;
#X connect 23 6 22 0;
#X connect 25 0 24 0;
#X connect 26 0 22 0;
#X connect 26 0 21 0;
#X connect 26 0 20 0;
#X connect 26 0 19 0;
#X connect 26 0 18 0;
#X connect 26 0 17 0;
#X connect 26 0 16 0;
#X connect 27 0 23 0;
#X connect 27 1 23 1;
#X connect 27 2 23 2;
#X connect 27 3 23 3;
#X connect 27 4 23 4;
#X connect 27 5 23 5;
#X connect 27 6 23 6;
#X connect 28 0 29 0;
#X connect 29 0 27 0;
#X connect 29 1 27 1;
#X connect 29 2 27 2;
#X connect 29 3 27 3;
#X coords 0 762 1 761 85 60 0;
