#N canvas 380 308 539 336 10;
#X obj 203 191 hoa.in~;
#X obj 203 257 hoa.out~;
#X obj 182 25 c.loadmess;
#X obj 299 78 hoa.in extra 1;
#X obj 259 191 line~;
#X obj 280 159 pack 1 20;
#X obj 203 228 *~;
#X obj 279 126 route default ramp;
#X obj 182 82 unpack;
#X obj 125 110 list split;
#X obj 153 134 unpack;
#X obj 182 52 hoa.thisprocess @ramp 20 @default 1, f 49;
#X obj 375 201 print;
#X connect 0 0 6 0;
#X connect 2 0 11 0;
#X connect 3 0 7 0;
#X connect 3 0 9 0;
#X connect 4 0 6 1;
#X connect 5 0 4 0;
#X connect 6 0 1 0;
#X connect 7 0 4 0;
#X connect 7 1 5 1;
#X connect 8 0 9 1;
#X connect 9 1 10 0;
#X connect 10 0 5 0;
#X connect 11 0 8 0;
#X connect 11 1 7 0;
