#N canvas 531 419 600 316 10;
#X obj 28 55 hoa.in~;
#X obj 28 238 hoa.out~;
#X obj 145 -22 c.loadmess;
#X obj 139 55 hoa.in extra 1;
#X obj 91 238 hoa.out~;
#X obj 28 147 freeverb~, f 11;
#X obj 81 55 hoa.in;
#X obj 145 12 c.patcherargs @wet 1 @dry 0 @room size 0.8 @damping 0.5
;
#X obj 28 201 *~;
#X obj 91 201 *~;
#X obj 115 167 line~;
#X obj 185 167 line~;
#X obj 139 88 route width;
#X obj 139 116 clip 0 1;
#X connect 0 0 5 0;
#X connect 2 0 7 0;
#X connect 3 0 12 0;
#X connect 5 0 8 0;
#X connect 5 1 9 0;
#X connect 6 0 5 0;
#X connect 7 1 12 0;
#X connect 8 0 1 0;
#X connect 9 0 4 0;
#X connect 10 0 8 1;
#X connect 11 0 9 1;
#X connect 12 0 13 0;
#X connect 12 1 5 0;
