#N canvas 64 88 1205 608 10;
#X obj -524 -318 hoa.map @patching_rect [ -524 -318 300 300 ] @size
[ 300 300 ] @fontname [ helvetica ] @fontweight [ normal ] @fontslant
[ regular ] @fontsize [ 11 ] @bgcolor [ 0.9 0.9 0.9 1 ] @bgcolor2 [
0.75 0.75 0.75 1 ] @bdcolor [ 0 0 0 1 ] @selcolor [ 0.36 0.36 0.37
0.5 ] @outputmode [ 0 ] @zoom [ 0.46 ] sources_parameters [ source
0 0.571659 0.101449 0 0.2 0.2 0.2 1 s_nosymbol source 1 1.52818 -0.855073
0 0.2 0.2 0.2 1 s_nosymbol source 2 0.117552 -1.37681 0 0.2 0.2 0.2
1 s_nosymbol ] groups_parameters [ group 0 3 0 1 2 0 0.2 0.2 0.2 1
s_nosymbol ] slots_parameters [ slot 0 source 0 0.449275 1.04348 0
0.2 0.2 0.2 1 s_nosymbol source 1 1.4058 0.0869566 0 0.2 0.2 0.2 1
s_nosymbol source 2 -1.08696 -1.26087 0 0.2 0.2 0.2 1 s_nosymbol group
0 3 0 1 2 0 0.2 0.2 0.2 1 s_nosymbol slot 1 source 0 -0.487923 1.47826
0 0.2 0.2 0.2 1 s_nosymbol source 1 0.468599 0.521739 0 0.2 0.2 0.2
1 s_nosymbol source 2 -0.942029 1.15365e-16 0 0.2 0.2 0.2 1 s_nosymbol
group 0 3 0 1 2 0 0.2 0.2 0.2 1 s_nosymbol slot 2 source 0 0.571659
0.101449 0 0.2 0.2 0.2 1 s_nosymbol source 1 1.52818 -0.855073 0 0.2
0.2 0.2 1 s_nosymbol source 2 0.117552 -1.37681 0 0.2 0.2 0.2 1 s_nosymbol
group 0 3 0 1 2 0 0.2 0.2 0.2 1 s_nosymbol ];
#X obj -429 -374 receive map_slot;
#X text -190 -363 Store a preset at a defined slot;
#X msg -188 -316 slot store \$1;
#X obj -188 -340 nbx 5 14 0 1e+37 0 0 empty empty empty 0 -8 0 10 -262144
-1 -1 0 256;
#X msg -93 -301 slot storeagain;
#X text -92 -338 Store again the last slot stored (overwrite);
#X obj -191 -130 send map_slot;
#X msg -83 -259 slot storenext;
#X text -81 -281 Store the next slot (overwrite if need);
#X msg -77 -220 slot storeend;
#X text -75 -242 Store at new end slot;
#X text -77 -199 Store the first empty slot (store at new end slot
if need);
#X msg -75 -164 slot storeempty;
#X obj 184 -366 nbx 5 14 0 1e+37 0 0 empty empty empty 0 -8 0 10 -262144
-1 -1 0 256;
#X obj 184 -238 send map_slot;
#X text 182 -388 Copy a slot in another;
#X msg 184 -322 slot copy \$1 \$1;
#X obj 184 -343 pack 0 0;
#X obj 245 -366 nbx 5 14 0 1e+37 0 0 empty empty empty 0 -8 0 10 -262144
-1 -1 0 256;
#X text 310 -371 Insert a slot at index and increase nexts;
#X obj 314 -348 nbx 5 14 0 1e+37 0 0 empty empty empty 0 -8 0 10 -262144
-1 -1 0 256;
#X msg 314 -325 slot insert \$1;
#X text 321 -291 Renumber slots : 0 \, 1 \, 2 \, 3...;
#X msg 322 -267 slot renumber;
#X text 374 -210 Remove a slot;
#X obj 374 -194 nbx 5 14 0 1e+37 0 0 empty empty empty 0 -8 0 10 -262144
-1 -1 0 256;
#X text 171 -209 Remove a slot and decrease nexts;
#X msg 173 -171 slot delete \$1;
#X obj 173 -194 nbx 5 14 0 1e+37 0 0 empty empty empty 0 -8 0 10 -262144
-1 -1 0 256;
#X msg 374 -169 slot remove \$1;
#X text 473 -196 Remove all slots;
#X obj 173 -128 send map_slot;
#X obj 203 -63 nbx 5 14 0 1e+37 0 0 empty empty empty 0 -8 0 10 -262144
-1 -1 0 256;
#X obj 203 45 send map_slot;
#X obj 203 -40 pack 0 0;
#X obj 264 -63 nbx 5 14 0 1e+37 0 0 empty empty empty 0 -8 0 10 -262144
-1 -1 0 256;
#X text 201 -105 Store a source at a defined slot;
#X msg 203 -19 slot storesource \$1 \$1;
#X text 200 -84 Slot;
#X text 260 -84 Source index;
#X obj 402 -63 nbx 5 14 0 1e+37 0 0 empty empty empty 0 -8 0 10 -262144
-1 -1 0 256;
#X obj 402 -40 pack 0 0;
#X obj 463 -63 nbx 5 14 0 1e+37 0 0 empty empty empty 0 -8 0 10 -262144
-1 -1 0 256;
#X text 399 -84 Slot;
#X text 400 -105 Store a group at a defined slot;
#X text 459 -84 Group index;
#X msg 402 -19 slot storesource \$1 \$1;
#X obj -181 -67 nbx 5 14 0 1e+37 0 0 empty empty empty 0 -8 0 10 -262144
-1 -1 2.79 256;
#X msg -181 -23 slot \$1;
#X text -183 -109 Recall a slot and interpolate;
#X text -190 -97 between two consecutives slots;
#X obj -181 7 send map_slot;
#X obj 18 -65 nbx 5 14 0 1e+37 0 0 empty empty empty 0 -8 0 10 -262144
-1 -1 2.1 256;
#X text 9 -95 between two consecutives slots;
#X obj 18 18 send map_slot;
#X msg 18 -21 slot recall 0 2 \$1;
#X obj -580 85 send map_slot;
#X msg -580 55 slot write /Users/Pierre/Desktop/2001_A_Space_Odissey.pd
;
#X text -583 -1 Save presets in text file;
#X text 9 -107 Recall a slot and interpolate;
#X obj -206 117 send map_slot;
#X msg -206 88 slot read /Users/Pierre/Desktop/2001_A_Space_Odissey.pd
;
#X text -209 41 Read presets in text file;
#X text -583 14 hoa.map needs an absolute path. Here is an example
but this is my name therefor it won't work...;
#X text -209 57 hoa.map needs an absolute path. Here is an example.
;
#X text -186 -429 hoa.map can save presets. It allows you to create
\, recall \, make interpolation between differents presets. The presets
are saved within the patcher when you save it and can be saved in text
file to recall them later.;
#X obj -388 100 print map;
#X obj -259 -360 bng 15 250 50 0 empty empty empty 17 7 0 10 -262144
-1 -1;
#X msg -302 -380 getinfo;
#X msg 474 -169 slot clear;
#X connect 0 2 67 0;
#X connect 1 0 0 0;
#X connect 3 0 7 0;
#X connect 4 0 3 0;
#X connect 5 0 7 0;
#X connect 8 0 7 0;
#X connect 10 0 7 0;
#X connect 13 0 7 0;
#X connect 14 0 18 0;
#X connect 17 0 15 0;
#X connect 18 0 17 0;
#X connect 19 0 18 1;
#X connect 21 0 22 0;
#X connect 22 0 15 0;
#X connect 24 0 15 0;
#X connect 26 0 30 0;
#X connect 28 0 32 0;
#X connect 29 0 28 0;
#X connect 30 0 32 0;
#X connect 33 0 35 0;
#X connect 35 0 38 0;
#X connect 36 0 35 1;
#X connect 38 0 34 0;
#X connect 41 0 42 0;
#X connect 42 0 47 0;
#X connect 43 0 42 1;
#X connect 47 0 34 0;
#X connect 48 0 49 0;
#X connect 49 0 52 0;
#X connect 53 0 56 0;
#X connect 56 0 55 0;
#X connect 58 0 57 0;
#X connect 62 0 61 0;
#X connect 68 0 0 0;
#X connect 69 0 0 0;
#X connect 70 0 32 0;
