#N canvas 574 130 839 493 10;
#N canvas 86 221 900 507 granular 0;
#X obj 463 201 random 1000;
#X obj 463 221 / 1000;
#X obj 463 181 c.loadmess;
#X obj 33 221 clip~ 0 1;
#X obj 33 184 line~;
#X obj 33 68 nbx 5 14 0 1 0 0 empty empty empty 0 -8 0 10 -262144 -1
-1 0.95 256;
#X obj 18 273 *~;
#X obj 83 361 *~;
#X obj 299 278 samphold~;
#X obj 400 244 phasor~;
#X obj 299 141 +~ 1;
#X obj 299 167 *~ 0.5;
#X obj 299 101 noise~;
#X obj 326 58 nbx 5 14 0 1 0 0 empty empty empty 0 -8 0 10 -262144
-1 -1 0.3 256;
#N canvas 0 22 450 300 >~ 0;
#X obj 67 114 max~ 0;
#X obj 67 175 -~ 0;
#X obj 130 188 /~;
#X obj 130 152 sig~ -1;
#X obj 145 114 -~;
#X obj 67 212 *~;
#X obj 67 17 inlet~;
#X obj 67 252 outlet~;
#X obj 132 15 inlet;
#X connect 0 0 1 0;
#X connect 1 0 5 0;
#X connect 2 0 5 1;
#X connect 3 0 2 0;
#X connect 4 0 2 1;
#X connect 5 0 7 0;
#X connect 6 0 0 0;
#X connect 6 0 4 1;
#X connect 8 0 4 0;
#X connect 8 0 1 1;
#X connect 8 0 0 1;
#X restore 299 196 pd >~;
#X text 317 37 Rarefaction;
#X text 427 9 Size;
#X obj 299 324 *~;
#X obj 400 278 *~ 513;
#X text 33 40 Feedback;
#X obj 400 109 sig~ 1000;
#X obj 400 183 /~ 80;
#X obj 149 243 samphold~;
#X obj 83 327 vd~ \$0-hoa_grain;
#X obj 83 271 delwrite~ \$0-hoa_grain 5500;
#X obj 164 68 nbx 5 14 1 5000 0 0 empty empty empty 0 -8 0 10 -262144
-1 -1 400 256;
#X obj 149 101 noise~;
#X obj 149 130 *~ 1;
#X obj 149 158 +~;
#X obj 149 215 +~ 1;
#X obj 149 184 abs~;
#X text 160 40 Delay;
#X obj 502 84 random;
#X obj 427 160 +;
#X obj 195 101 * 0.1;
#X obj 502 62 metro;
#X obj 427 133 t b f;
#X obj 83 432 outlet~;
#X obj 432 24 nbx 5 14 0 1e+06 0 0 empty empty empty 0 -8 0 10 -262144
-1 -1 26 256;
#X obj 71 3 inlet;
#X obj 21 20 inlet~;
#X obj 151 3 inlet;
#X obj 231 3 inlet;
#X obj 291 3 inlet;
#X obj 580 22 c.loadmess 1;
#X obj 400 307 tabread4~ \$0-hoa_hann2;
#X obj 502 137 * 0.3;
#X connect 0 0 1 0;
#X connect 1 0 9 1;
#X connect 2 0 0 0;
#X connect 3 0 6 1;
#X connect 4 0 3 0;
#X connect 5 0 4 0;
#X connect 6 0 24 0;
#X connect 7 0 6 0;
#X connect 7 0 37 0;
#X connect 8 0 17 0;
#X connect 9 0 8 1;
#X connect 9 0 18 0;
#X connect 9 0 22 1;
#X connect 10 0 11 0;
#X connect 11 0 14 0;
#X connect 12 0 10 0;
#X connect 13 0 14 1;
#X connect 14 0 8 0;
#X connect 17 0 7 1;
#X connect 18 0 45 0;
#X connect 20 0 21 0;
#X connect 21 0 9 0;
#X connect 22 0 23 0;
#X connect 23 0 7 0;
#X connect 25 0 28 1;
#X connect 25 0 34 0;
#X connect 26 0 27 0;
#X connect 27 0 28 0;
#X connect 28 0 30 0;
#X connect 29 0 22 0;
#X connect 30 0 29 0;
#X connect 32 0 46 0;
#X connect 33 0 21 1;
#X connect 34 0 27 1;
#X connect 35 0 32 0;
#X connect 36 0 33 0;
#X connect 36 1 33 1;
#X connect 38 0 33 0;
#X connect 38 0 35 1;
#X connect 38 0 32 1;
#X connect 39 0 38 0;
#X connect 40 0 24 0;
#X connect 41 0 25 0;
#X connect 42 0 5 0;
#X connect 43 0 13 0;
#X connect 44 0 35 0;
#X connect 45 0 17 1;
#X connect 46 0 36 0;
#X restore 55 178 pd granular;
#X msg 751 135 0;
#X obj 645 184 osc~;
#X obj 645 136 samplerate~;
#X obj 645 207 *~ -0.5;
#X obj 645 230 +~ 0.5;
#X obj 637 68 c.loadmess;
#X obj 645 160 / 512;
#X obj 637 255 tabwrite~ \$0-hoa_hann2;
#X obj 641 318 table \$0-hoa_hann2 512;
#N canvas 86 221 900 507 granular 0;
#X obj 463 201 random 1000;
#X obj 463 221 / 1000;
#X obj 463 181 c.loadmess;
#X obj 33 221 clip~ 0 1;
#X obj 33 184 line~;
#X obj 33 68 nbx 5 14 0 1 0 0 empty empty empty 0 -8 0 10 -262144 -1
-1 0.95 256;
#X obj 18 273 *~;
#X obj 83 361 *~;
#X obj 299 278 samphold~;
#X obj 400 244 phasor~;
#X obj 299 141 +~ 1;
#X obj 299 167 *~ 0.5;
#X obj 299 101 noise~;
#X obj 326 58 nbx 5 14 0 1 0 0 empty empty empty 0 -8 0 10 -262144
-1 -1 0.3 256;
#N canvas 0 22 450 300 >~ 0;
#X obj 67 114 max~ 0;
#X obj 67 175 -~ 0;
#X obj 130 188 /~;
#X obj 130 152 sig~ -1;
#X obj 145 114 -~;
#X obj 67 212 *~;
#X obj 67 17 inlet~;
#X obj 67 252 outlet~;
#X obj 132 15 inlet;
#X connect 0 0 1 0;
#X connect 1 0 5 0;
#X connect 2 0 5 1;
#X connect 3 0 2 0;
#X connect 4 0 2 1;
#X connect 5 0 7 0;
#X connect 6 0 0 0;
#X connect 6 0 4 1;
#X connect 8 0 4 0;
#X connect 8 0 1 1;
#X connect 8 0 0 1;
#X restore 299 196 pd >~;
#X text 317 37 Rarefaction;
#X text 427 9 Size;
#X obj 299 324 *~;
#X obj 400 278 *~ 513;
#X text 33 40 Feedback;
#X obj 400 109 sig~ 1000;
#X obj 149 243 samphold~;
#X obj 164 68 nbx 5 14 1 5000 0 0 empty empty empty 0 -8 0 10 -262144
-1 -1 800 256;
#X obj 149 101 noise~;
#X obj 149 130 *~ 1;
#X obj 149 158 +~;
#X obj 149 215 +~ 1;
#X obj 149 184 abs~;
#X text 160 40 Delay;
#X obj 502 84 random;
#X obj 427 160 +;
#X obj 195 101 * 0.1;
#X obj 502 62 metro;
#X obj 427 133 t b f;
#X obj 83 432 outlet~;
#X obj 432 24 nbx 5 14 0 1e+06 0 0 empty empty empty 0 -8 0 10 -262144
-1 -1 127 256;
#X obj 71 3 inlet;
#X obj 21 20 inlet~;
#X obj 151 3 inlet;
#X obj 231 3 inlet;
#X obj 291 3 inlet;
#X obj 580 22 c.loadmess 1;
#X obj 83 271 delwrite~ \$1-hoa_grain 5500;
#X obj 83 327 vd~ \$1-hoa_grain;
#X obj 400 307 tabread4~ \$0-hoa_hann2;
#X obj 502 137 * 0.3;
#X obj 559 199 line~;
#X msg 565 161 \$1 20;
#X obj 400 202 /~;
#X connect 0 0 1 0;
#X connect 1 0 9 1;
#X connect 2 0 0 0;
#X connect 3 0 6 1;
#X connect 4 0 3 0;
#X connect 5 0 4 0;
#X connect 6 0 42 0;
#X connect 7 0 6 0;
#X connect 7 0 34 0;
#X connect 8 0 17 0;
#X connect 9 0 8 1;
#X connect 9 0 18 0;
#X connect 9 0 21 1;
#X connect 10 0 11 0;
#X connect 11 0 14 0;
#X connect 12 0 10 0;
#X connect 13 0 14 1;
#X connect 14 0 8 0;
#X connect 17 0 7 1;
#X connect 18 0 44 0;
#X connect 20 0 48 0;
#X connect 21 0 43 0;
#X connect 22 0 25 1;
#X connect 22 0 31 0;
#X connect 23 0 24 0;
#X connect 24 0 25 0;
#X connect 25 0 27 0;
#X connect 26 0 21 0;
#X connect 27 0 26 0;
#X connect 29 0 45 0;
#X connect 30 0 47 0;
#X connect 31 0 24 1;
#X connect 32 0 29 0;
#X connect 33 0 30 0;
#X connect 33 1 30 1;
#X connect 35 0 30 0;
#X connect 35 0 32 1;
#X connect 35 0 29 1;
#X connect 36 0 35 0;
#X connect 37 0 42 0;
#X connect 38 0 22 0;
#X connect 39 0 5 0;
#X connect 40 0 13 0;
#X connect 41 0 32 0;
#X connect 43 0 7 0;
#X connect 44 0 17 1;
#X connect 45 0 33 0;
#X connect 46 0 48 1;
#X connect 47 0 46 0;
#X connect 48 0 9 0;
#X restore 135 178 pd granular;
#N canvas 86 221 900 507 granular 0;
#X obj 463 201 random 1000;
#X obj 463 221 / 1000;
#X obj 463 181 c.loadmess;
#X obj 33 221 clip~ 0 1;
#X obj 33 184 line~;
#X obj 33 68 nbx 5 14 0 1 0 0 empty empty empty 0 -8 0 10 -262144 -1
-1 0.95 256;
#X obj 18 273 *~;
#X obj 83 361 *~;
#X obj 299 278 samphold~;
#X obj 400 244 phasor~;
#X obj 299 141 +~ 1;
#X obj 299 167 *~ 0.5;
#X obj 299 101 noise~;
#X obj 326 58 nbx 5 14 0 1 0 0 empty empty empty 0 -8 0 10 -262144
-1 -1 0.3 256;
#N canvas 0 22 450 300 >~ 0;
#X obj 67 114 max~ 0;
#X obj 67 175 -~ 0;
#X obj 130 188 /~;
#X obj 130 152 sig~ -1;
#X obj 145 114 -~;
#X obj 67 212 *~;
#X obj 67 17 inlet~;
#X obj 67 252 outlet~;
#X obj 132 15 inlet;
#X connect 0 0 1 0;
#X connect 1 0 5 0;
#X connect 2 0 5 1;
#X connect 3 0 2 0;
#X connect 4 0 2 1;
#X connect 5 0 7 0;
#X connect 6 0 0 0;
#X connect 6 0 4 1;
#X connect 8 0 4 0;
#X connect 8 0 1 1;
#X connect 8 0 0 1;
#X restore 299 196 pd >~;
#X text 317 37 Rarefaction;
#X text 427 9 Size;
#X obj 299 324 *~;
#X obj 400 278 *~ 513;
#X text 33 40 Feedback;
#X obj 400 109 sig~ 1000;
#X obj 149 243 samphold~;
#X obj 164 68 nbx 5 14 1 5000 0 0 empty empty empty 0 -8 0 10 -262144
-1 -1 2800 256;
#X obj 149 101 noise~;
#X obj 149 130 *~ 1;
#X obj 149 158 +~;
#X obj 149 215 +~ 1;
#X obj 149 184 abs~;
#X text 160 40 Delay;
#X obj 502 84 random;
#X obj 427 160 +;
#X obj 195 101 * 0.1;
#X obj 502 62 metro;
#X obj 427 133 t b f;
#X obj 83 432 outlet~;
#X obj 432 24 nbx 5 14 0 1e+06 0 0 empty empty empty 0 -8 0 10 -262144
-1 -1 48 256;
#X obj 71 3 inlet;
#X obj 21 20 inlet~;
#X obj 151 3 inlet;
#X obj 231 3 inlet;
#X obj 291 3 inlet;
#X obj 580 22 c.loadmess 1;
#X obj 83 271 delwrite~ \$2-hoa_grain 5500;
#X obj 83 327 vd~ \$2-hoa_grain;
#X obj 400 307 tabread4~ \$0-hoa_hann2;
#X obj 502 137 * 0.3;
#X obj 400 183 /~;
#X obj 559 199 line~;
#X msg 565 161 \$1 20;
#X connect 0 0 1 0;
#X connect 1 0 9 1;
#X connect 2 0 0 0;
#X connect 3 0 6 1;
#X connect 4 0 3 0;
#X connect 5 0 4 0;
#X connect 6 0 42 0;
#X connect 7 0 6 0;
#X connect 7 0 34 0;
#X connect 8 0 17 0;
#X connect 9 0 8 1;
#X connect 9 0 18 0;
#X connect 9 0 21 1;
#X connect 10 0 11 0;
#X connect 11 0 14 0;
#X connect 12 0 10 0;
#X connect 13 0 14 1;
#X connect 14 0 8 0;
#X connect 17 0 7 1;
#X connect 18 0 44 0;
#X connect 20 0 46 0;
#X connect 21 0 43 0;
#X connect 22 0 25 1;
#X connect 22 0 31 0;
#X connect 23 0 24 0;
#X connect 24 0 25 0;
#X connect 25 0 27 0;
#X connect 26 0 21 0;
#X connect 27 0 26 0;
#X connect 29 0 45 0;
#X connect 30 0 48 0;
#X connect 31 0 24 1;
#X connect 32 0 29 0;
#X connect 33 0 30 0;
#X connect 33 1 30 1;
#X connect 35 0 30 0;
#X connect 35 0 32 1;
#X connect 35 0 29 1;
#X connect 36 0 35 0;
#X connect 37 0 42 0;
#X connect 38 0 22 0;
#X connect 39 0 5 0;
#X connect 40 0 13 0;
#X connect 41 0 32 0;
#X connect 43 0 7 0;
#X connect 44 0 17 1;
#X connect 45 0 33 0;
#X connect 46 0 9 0;
#X connect 47 0 46 1;
#X connect 48 0 47 0;
#X restore 215 178 pd granular;
#N canvas 86 221 900 507 granular 0;
#X obj 463 201 random 1000;
#X obj 463 221 / 1000;
#X obj 463 181 c.loadmess;
#X obj 33 221 clip~ 0 1;
#X obj 33 184 line~;
#X obj 33 68 nbx 5 14 0 1 0 0 empty empty empty 0 -8 0 10 -262144 -1
-1 0.95 256;
#X obj 18 273 *~;
#X obj 83 361 *~;
#X obj 299 278 samphold~;
#X obj 400 244 phasor~;
#X obj 299 141 +~ 1;
#X obj 299 167 *~ 0.5;
#X obj 299 101 noise~;
#X obj 326 58 nbx 5 14 0 1 0 0 empty empty empty 0 -8 0 10 -262144
-1 -1 0.3 256;
#N canvas 0 22 450 300 >~ 0;
#X obj 67 114 max~ 0;
#X obj 67 175 -~ 0;
#X obj 130 188 /~;
#X obj 130 152 sig~ -1;
#X obj 145 114 -~;
#X obj 67 212 *~;
#X obj 67 17 inlet~;
#X obj 67 252 outlet~;
#X obj 132 15 inlet;
#X connect 0 0 1 0;
#X connect 1 0 5 0;
#X connect 2 0 5 1;
#X connect 3 0 2 0;
#X connect 4 0 2 1;
#X connect 5 0 7 0;
#X connect 6 0 0 0;
#X connect 6 0 4 1;
#X connect 8 0 4 0;
#X connect 8 0 1 1;
#X connect 8 0 0 1;
#X restore 299 196 pd >~;
#X text 317 37 Rarefaction;
#X text 427 9 Size;
#X obj 299 324 *~;
#X obj 400 278 *~ 513;
#X text 33 40 Feedback;
#X obj 400 109 sig~ 1000;
#X obj 149 243 samphold~;
#X obj 164 68 nbx 5 14 1 5000 0 0 empty empty empty 0 -8 0 10 -262144
-1 -1 4000 256;
#X obj 149 101 noise~;
#X obj 149 130 *~ 1;
#X obj 149 158 +~;
#X obj 149 215 +~ 1;
#X obj 149 184 abs~;
#X text 160 40 Delay;
#X obj 502 84 random;
#X obj 427 160 +;
#X obj 195 101 * 0.1;
#X obj 502 62 metro;
#X obj 427 133 t b f;
#X obj 83 432 outlet~;
#X obj 432 24 nbx 5 14 0 1e+06 0 0 empty empty empty 0 -8 0 10 -262144
-1 -1 35 256;
#X obj 71 3 inlet;
#X obj 21 20 inlet~;
#X obj 151 3 inlet;
#X obj 231 3 inlet;
#X obj 291 3 inlet;
#X obj 580 22 c.loadmess 1;
#X obj 83 271 delwrite~ \$3-hoa_grain 5500;
#X obj 83 327 vd~ \$3-hoa_grain;
#X obj 400 307 tabread4~ \$0-hoa_hann2;
#X obj 502 137 * 0.3;
#X obj 559 199 line~;
#X msg 565 161 \$1 20;
#X obj 400 208 /~;
#X connect 0 0 1 0;
#X connect 1 0 9 1;
#X connect 2 0 0 0;
#X connect 3 0 6 1;
#X connect 4 0 3 0;
#X connect 5 0 4 0;
#X connect 6 0 42 0;
#X connect 7 0 6 0;
#X connect 7 0 34 0;
#X connect 8 0 17 0;
#X connect 9 0 8 1;
#X connect 9 0 18 0;
#X connect 9 0 21 1;
#X connect 10 0 11 0;
#X connect 11 0 14 0;
#X connect 12 0 10 0;
#X connect 13 0 14 1;
#X connect 14 0 8 0;
#X connect 17 0 7 1;
#X connect 18 0 44 0;
#X connect 20 0 48 0;
#X connect 21 0 43 0;
#X connect 22 0 25 1;
#X connect 22 0 31 0;
#X connect 23 0 24 0;
#X connect 24 0 25 0;
#X connect 25 0 27 0;
#X connect 26 0 21 0;
#X connect 27 0 26 0;
#X connect 29 0 45 0;
#X connect 30 0 47 0;
#X connect 31 0 24 1;
#X connect 32 0 29 0;
#X connect 33 0 30 0;
#X connect 33 1 30 1;
#X connect 35 0 30 0;
#X connect 35 0 32 1;
#X connect 35 0 29 1;
#X connect 36 0 35 0;
#X connect 37 0 42 0;
#X connect 38 0 22 0;
#X connect 39 0 5 0;
#X connect 40 0 13 0;
#X connect 41 0 32 0;
#X connect 43 0 7 0;
#X connect 44 0 17 1;
#X connect 45 0 33 0;
#X connect 46 0 48 1;
#X connect 47 0 46 0;
#X connect 48 0 9 0;
#X restore 294 178 pd granular;
#X obj 312 -60 nbx 5 14 -1e+37 1e+37 0 0 empty empty empty 0 -8 0 10
-262144 -1 -1 400 256;
#X obj 429 65 nbx 5 14 -1e+37 1e+37 0 0 empty empty empty 0 -8 0 10
-262144 -1 -1 0.95 256;
#X obj 499 65 nbx 5 14 -1e+37 1e+37 0 0 empty empty empty 0 -8 0 10
-262144 -1 -1 0.3 256;
#X obj 314 34 * 2;
#X obj 172 345 outlet~;
#X obj 413 -31 c.loadmess 0.95;
#X obj 453 -1 c.loadmess 0.3;
#X obj 414 34 * 10;
#X obj 364 34 * 7;
#N canvas 0 22 450 300 soundlost 0;
#X msg 675 149 0;
#X obj 569 198 osc~;
#X obj 569 150 samplerate~;
#X obj 569 221 *~ -0.5;
#X obj 569 244 +~ 0.5;
#X obj 561 82 c.loadmess;
#X obj 89 254 outlet~;
#X obj 89 178 noise~;
#X obj 355 475 / 1000;
#X obj 355 505 nbx 5 14 -1e+37 1e+37 0 0 empty empty empty 0 -8 0 10
-262144 -1 -1 0.625 256;
#X obj 473 487 t b f;
#X obj 473 539 list prepend;
#X obj 473 517 list prepend;
#X obj 510 650 pack 0 f;
#X obj 510 619 t b f;
#X obj 355 259 t b b;
#X obj 355 565 pack f f;
#X obj 355 226 metro 500;
#X msg 355 177 1;
#X obj 355 453 + 200;
#X obj 355 140 t b b;
#X obj 355 300 random 600;
#X obj 406 178 random 800;
#X obj 406 201 + 200;
#X obj 759 198 osc~;
#X obj 759 150 samplerate~;
#X obj 759 221 *~ -0.5;
#X obj 759 244 +~ 0.5;
#X obj 473 396 -;
#X obj 473 355 t b f;
#X msg 473 376 1;
#X obj 473 457 int;
#X obj 473 435 + 1;
#X obj 473 299 random 255;
#X obj 473 415 * 254;
#X msg 865 149 0.5;
#X obj 386 35 table \$0-hoa_filter 256;
#X obj 355 668 tabwrite \$0-hoa_filter;
#X obj 387 74 table \$0-hoa_hann 512;
#X obj 561 269 tabwrite~ \$0-hoa_hann;
#X obj 751 269 tabwrite~ \$0-hoa_prob;
#X msg 728 95 \; \$0-hoa_filter const 0;
#X obj 536 35 table \$0-hoa_prob 256;
#X obj 473 334 tabread \$0-hoa_prob;
#N canvas 0 22 427 426 spectralfilter 0;
#X obj 91 140 *~;
#X obj 91 174 rfft~;
#X obj 91 209 *~;
#X obj 124 209 *~;
#X obj 9 16 block~ 512 4;
#X obj 92 292 *~;
#X obj 91 245 rifft~;
#X obj 92 327 outlet~;
#X obj 207 163 *~;
#X obj 208 221 /~ 768;
#X obj 208 189 *~;
#X obj 206 134 tabreceive~ \$0-hoa_filter;
#X obj 113 267 tabreceive~ \$0-hoa_hann;
#X obj 141 96 tabreceive~ \$0-hoa_hann;
#X obj 91 80 inlet~;
#X connect 0 0 1 0;
#X connect 1 0 2 0;
#X connect 1 1 3 0;
#X connect 2 0 6 0;
#X connect 3 0 6 1;
#X connect 5 0 7 0;
#X connect 6 0 5 0;
#X connect 8 0 10 0;
#X connect 8 0 10 1;
#X connect 9 0 3 1;
#X connect 9 0 2 1;
#X connect 10 0 9 0;
#X connect 11 0 8 0;
#X connect 11 0 8 1;
#X connect 12 0 5 1;
#X connect 13 0 0 1;
#X connect 14 0 0 0;
#X restore 89 206 pd spectralfilter;
#X obj 569 174 / 512;
#X obj 759 174 / 700;
#X msg 522 487 0 0 0 0 0 0 0 0 0 0 0 0 0 0 0 0 0 0 0 0 0 0 0 0 0 0
0 0 0 0 0 0;
#X obj 473 571 list split 25;
#X obj 473 597 list split 24;
#X obj 89 233 *~ 8;
#X connect 0 0 1 1;
#X connect 1 0 3 0;
#X connect 2 0 45 0;
#X connect 3 0 4 0;
#X connect 4 0 39 0;
#X connect 5 0 0 0;
#X connect 5 0 20 0;
#X connect 5 0 2 0;
#X connect 5 0 35 0;
#X connect 5 0 25 0;
#X connect 5 0 39 0;
#X connect 5 0 40 0;
#X connect 7 0 44 0;
#X connect 8 0 9 0;
#X connect 9 0 16 0;
#X connect 10 0 12 0;
#X connect 10 1 11 1;
#X connect 11 0 48 0;
#X connect 12 0 11 0;
#X connect 13 0 37 0;
#X connect 14 0 13 0;
#X connect 14 1 13 1;
#X connect 15 0 21 0;
#X connect 15 1 33 0;
#X connect 16 0 37 0;
#X connect 17 0 15 0;
#X connect 17 0 22 0;
#X connect 18 0 17 0;
#X connect 19 0 8 0;
#X connect 20 0 18 0;
#X connect 20 1 47 0;
#X connect 21 0 19 0;
#X connect 22 0 23 0;
#X connect 23 0 17 1;
#X connect 24 0 26 0;
#X connect 25 0 46 0;
#X connect 26 0 27 0;
#X connect 27 0 40 0;
#X connect 28 0 34 0;
#X connect 29 0 30 0;
#X connect 29 1 28 1;
#X connect 30 0 28 0;
#X connect 31 0 10 0;
#X connect 31 0 16 1;
#X connect 32 0 31 0;
#X connect 33 0 43 0;
#X connect 34 0 32 0;
#X connect 35 0 24 1;
#X connect 43 0 29 0;
#X connect 44 0 50 0;
#X connect 45 0 1 0;
#X connect 46 0 24 0;
#X connect 47 0 12 0;
#X connect 48 0 12 1;
#X connect 48 0 49 0;
#X connect 49 1 14 0;
#X connect 50 0 6 0;
#X restore 121 88 pd soundlost;
#X obj 30 44 line;
#X obj 29 -54 random 80;
#X msg 30 14 \$1 50;
#X obj 29 -24 + 15;
#X obj 26 -86 metro 2000;
#X obj 126 -128 c.loadmess 1;
#X obj 104 44 line;
#X msg 104 14 \$1 50;
#X obj 103 -24 + 15;
#X obj 100 -86 metro 2000;
#X obj 184 44 line;
#X msg 184 14 \$1 50;
#X obj 183 -24 + 15;
#X obj 180 -86 metro 2000;
#X obj 254 44 line;
#X msg 254 14 \$1 50;
#X obj 253 -24 + 15;
#X obj 250 -86 metro 2000;
#X obj 383 -61 c.loadmess 400;
#X obj 103 -54 random 120;
#X obj 183 -54 random 160;
#X obj 253 -54 random 40;
#X connect 0 0 17 0;
#X connect 1 0 2 1;
#X connect 2 0 4 0;
#X connect 3 0 7 0;
#X connect 4 0 5 0;
#X connect 5 0 8 0;
#X connect 6 0 1 0;
#X connect 6 0 3 0;
#X connect 6 0 8 0;
#X connect 7 0 2 0;
#X connect 10 0 17 0;
#X connect 11 0 17 0;
#X connect 12 0 17 0;
#X connect 13 0 0 2;
#X connect 13 0 16 0;
#X connect 13 0 20 0;
#X connect 13 0 21 0;
#X connect 14 0 12 3;
#X connect 14 0 11 3;
#X connect 14 0 10 3;
#X connect 14 0 0 3;
#X connect 15 0 12 4;
#X connect 15 0 11 4;
#X connect 15 0 10 4;
#X connect 15 0 0 4;
#X connect 16 0 10 2;
#X connect 18 0 14 0;
#X connect 19 0 15 0;
#X connect 20 0 12 2;
#X connect 21 0 11 2;
#X connect 22 0 0 0;
#X connect 22 0 10 0;
#X connect 22 0 11 0;
#X connect 22 0 12 0;
#X connect 23 0 0 1;
#X connect 24 0 26 0;
#X connect 25 0 23 0;
#X connect 26 0 25 0;
#X connect 27 0 24 0;
#X connect 28 0 27 0;
#X connect 28 0 32 0;
#X connect 28 0 36 0;
#X connect 28 0 40 0;
#X connect 29 0 10 1;
#X connect 30 0 29 0;
#X connect 31 0 30 0;
#X connect 32 0 42 0;
#X connect 33 0 11 1;
#X connect 34 0 33 0;
#X connect 35 0 34 0;
#X connect 36 0 43 0;
#X connect 37 0 12 1;
#X connect 38 0 37 0;
#X connect 39 0 38 0;
#X connect 40 0 44 0;
#X connect 41 0 13 0;
#X connect 42 0 31 0;
#X connect 43 0 35 0;
#X connect 44 0 39 0;
