#N canvas 508 146 741 493 10;
#N canvas 0 22 804 588 inst 0;
#X obj 79 291 cos~;
#X obj 79 190 -~ 0.5;
#X obj 79 245 *~;
#X obj 79 268 clip~ -0.5 0.5;
#X obj 339 182 +~ 1;
#X obj 79 314 +~ 1;
#X obj 489 296 cos~;
#X obj 79 372 *~;
#X obj 489 270 *~;
#X obj 79 337 *~ 0.5;
#X obj 339 133 osc~ 0.3;
#X obj 339 162 *~;
#X obj 507 196 *~;
#X obj 504 246 +~ 1;
#X obj 79 90 *~;
#X obj 79 43 osc~ 0.001;
#X obj 507 163 osc~ 0.015;
#X obj 79 140 +~ 100;
#X obj 504 223 *~ 1;
#X obj 79 117 *~ 2;
#X obj 507 107 random 100;
#X obj 507 137 / 10000;
#X obj 507 68 metro 500;
#X obj 575 49 random 700;
#X obj 576 69 + 200;
#X obj 339 53 metro 500;
#X obj 408 30 random 700;
#X obj 408 54 + 200;
#X obj 339 107 / 1000;
#X obj 339 87 random 700;
#X obj 79 166 phasor~ 120;
#X obj 79 407 outlet~;
#X obj 339 -13 c.loadmess 1;
#X obj 226 41 c.patcherargs;
#X obj 226 18 bang;
#X obj 226 64 unpack s 0 0;
#X obj 78 -31 metro 500;
#X obj 147 -54 random 700;
#X obj 147 -30 + 200;
#X obj 78 3 random 700;
#X obj 79 22 / 100000;
#X connect 0 0 5 0;
#X connect 1 0 2 0;
#X connect 1 0 8 0;
#X connect 2 0 3 0;
#X connect 3 0 0 0;
#X connect 4 0 2 1;
#X connect 5 0 9 0;
#X connect 6 0 7 1;
#X connect 7 0 31 0;
#X connect 8 0 6 0;
#X connect 9 0 7 0;
#X connect 10 0 11 0;
#X connect 10 0 11 1;
#X connect 11 0 4 0;
#X connect 12 0 18 0;
#X connect 13 0 8 1;
#X connect 14 0 19 0;
#X connect 15 0 14 0;
#X connect 15 0 14 1;
#X connect 16 0 12 0;
#X connect 16 0 12 1;
#X connect 17 0 30 0;
#X connect 18 0 13 0;
#X connect 19 0 17 0;
#X connect 20 0 21 0;
#X connect 21 0 16 0;
#X connect 22 0 20 0;
#X connect 22 0 23 0;
#X connect 23 0 24 0;
#X connect 24 0 22 1;
#X connect 25 0 26 0;
#X connect 25 0 29 0;
#X connect 26 0 27 0;
#X connect 27 0 25 1;
#X connect 28 0 10 0;
#X connect 29 0 28 0;
#X connect 30 0 1 0;
#X connect 32 0 22 0;
#X connect 32 0 25 0;
#X connect 32 0 34 0;
#X connect 32 0 36 0;
#X connect 33 0 35 0;
#X connect 34 0 33 0;
#X connect 35 1 17 1;
#X connect 35 2 19 1;
#X connect 36 0 37 0;
#X connect 36 0 39 0;
#X connect 37 0 38 0;
#X connect 38 0 36 1;
#X connect 39 0 40 0;
#X connect 40 0 15 0;
#X restore 185 119 pd inst 175 1.8;
#N canvas 0 22 804 588 inst 0;
#X obj 79 291 cos~;
#X obj 79 190 -~ 0.5;
#X obj 79 245 *~;
#X obj 79 268 clip~ -0.5 0.5;
#X obj 339 182 +~ 1;
#X obj 79 314 +~ 1;
#X obj 489 296 cos~;
#X obj 79 372 *~;
#X obj 489 270 *~;
#X obj 79 337 *~ 0.5;
#X obj 339 133 osc~ 0.3;
#X obj 339 162 *~;
#X obj 507 196 *~;
#X obj 504 246 +~ 1;
#X obj 79 90 *~;
#X obj 79 43 osc~ 0.001;
#X obj 507 163 osc~ 0.015;
#X obj 79 140 +~ 100;
#X obj 504 223 *~ 1;
#X obj 79 117 *~ 2;
#X obj 507 107 random 100;
#X obj 507 137 / 10000;
#X obj 507 68 metro 500;
#X obj 575 49 random 700;
#X obj 576 69 + 200;
#X obj 339 53 metro 500;
#X obj 408 30 random 700;
#X obj 408 54 + 200;
#X obj 339 107 / 1000;
#X obj 339 87 random 700;
#X obj 79 166 phasor~ 120;
#X obj 79 407 outlet~;
#X obj 339 -13 c.loadmess 1;
#X obj 226 41 c.patcherargs;
#X obj 226 18 bang;
#X obj 226 64 unpack s 0 0;
#X obj 78 -31 metro 500;
#X obj 147 -54 random 700;
#X obj 147 -30 + 200;
#X obj 78 3 random 700;
#X obj 79 22 / 100000;
#X connect 0 0 5 0;
#X connect 1 0 2 0;
#X connect 1 0 8 0;
#X connect 2 0 3 0;
#X connect 3 0 0 0;
#X connect 4 0 2 1;
#X connect 5 0 9 0;
#X connect 6 0 7 1;
#X connect 7 0 31 0;
#X connect 8 0 6 0;
#X connect 9 0 7 0;
#X connect 10 0 11 0;
#X connect 10 0 11 1;
#X connect 11 0 4 0;
#X connect 12 0 18 0;
#X connect 13 0 8 1;
#X connect 14 0 19 0;
#X connect 15 0 14 0;
#X connect 15 0 14 1;
#X connect 16 0 12 0;
#X connect 16 0 12 1;
#X connect 17 0 30 0;
#X connect 18 0 13 0;
#X connect 19 0 17 0;
#X connect 20 0 21 0;
#X connect 21 0 16 0;
#X connect 22 0 20 0;
#X connect 22 0 23 0;
#X connect 23 0 24 0;
#X connect 24 0 22 1;
#X connect 25 0 26 0;
#X connect 25 0 29 0;
#X connect 26 0 27 0;
#X connect 27 0 25 1;
#X connect 28 0 10 0;
#X connect 29 0 28 0;
#X connect 30 0 1 0;
#X connect 32 0 22 0;
#X connect 32 0 25 0;
#X connect 32 0 34 0;
#X connect 32 0 36 0;
#X connect 33 0 35 0;
#X connect 34 0 33 0;
#X connect 35 1 17 1;
#X connect 35 2 19 1;
#X connect 36 0 37 0;
#X connect 36 0 39 0;
#X connect 37 0 38 0;
#X connect 38 0 36 1;
#X connect 39 0 40 0;
#X connect 40 0 15 0;
#X restore 285 119 pd inst 300 1.3;
#X obj 93 212 *~ 0.5;
#N canvas 0 22 804 588 inst 0;
#X obj 79 291 cos~;
#X obj 79 190 -~ 0.5;
#X obj 79 245 *~;
#X obj 79 268 clip~ -0.5 0.5;
#X obj 339 182 +~ 1;
#X obj 79 314 +~ 1;
#X obj 489 296 cos~;
#X obj 79 372 *~;
#X obj 489 270 *~;
#X obj 79 337 *~ 0.5;
#X obj 339 133 osc~ 0.3;
#X obj 339 162 *~;
#X obj 507 196 *~;
#X obj 504 246 +~ 1;
#X obj 79 90 *~;
#X obj 79 43 osc~ 0.001;
#X obj 507 163 osc~ 0.015;
#X obj 79 140 +~ 100;
#X obj 504 223 *~ 1;
#X obj 79 117 *~ 2;
#X obj 507 107 random 100;
#X obj 507 137 / 10000;
#X obj 507 68 metro 500;
#X obj 575 49 random 700;
#X obj 576 69 + 200;
#X obj 339 53 metro 500;
#X obj 408 30 random 700;
#X obj 408 54 + 200;
#X obj 339 107 / 1000;
#X obj 339 87 random 700;
#X obj 79 166 phasor~ 120;
#X obj 79 407 outlet~;
#X obj 339 -13 c.loadmess 1;
#X obj 226 41 c.patcherargs;
#X obj 226 18 bang;
#X obj 226 64 unpack s 0 0;
#X obj 78 -31 metro 500;
#X obj 147 -54 random 700;
#X obj 147 -30 + 200;
#X obj 78 3 random 700;
#X obj 79 22 / 100000;
#X connect 0 0 5 0;
#X connect 1 0 2 0;
#X connect 1 0 8 0;
#X connect 2 0 3 0;
#X connect 3 0 0 0;
#X connect 4 0 2 1;
#X connect 5 0 9 0;
#X connect 6 0 7 1;
#X connect 7 0 31 0;
#X connect 8 0 6 0;
#X connect 9 0 7 0;
#X connect 10 0 11 0;
#X connect 10 0 11 1;
#X connect 11 0 4 0;
#X connect 12 0 18 0;
#X connect 13 0 8 1;
#X connect 14 0 19 0;
#X connect 15 0 14 0;
#X connect 15 0 14 1;
#X connect 16 0 12 0;
#X connect 16 0 12 1;
#X connect 17 0 30 0;
#X connect 18 0 13 0;
#X connect 19 0 17 0;
#X connect 20 0 21 0;
#X connect 21 0 16 0;
#X connect 22 0 20 0;
#X connect 22 0 23 0;
#X connect 23 0 24 0;
#X connect 24 0 22 1;
#X connect 25 0 26 0;
#X connect 25 0 29 0;
#X connect 26 0 27 0;
#X connect 27 0 25 1;
#X connect 28 0 10 0;
#X connect 29 0 28 0;
#X connect 30 0 1 0;
#X connect 32 0 22 0;
#X connect 32 0 25 0;
#X connect 32 0 34 0;
#X connect 32 0 36 0;
#X connect 33 0 35 0;
#X connect 34 0 33 0;
#X connect 35 1 17 1;
#X connect 35 2 19 1;
#X connect 36 0 37 0;
#X connect 36 0 39 0;
#X connect 37 0 38 0;
#X connect 38 0 36 1;
#X connect 39 0 40 0;
#X connect 40 0 15 0;
#X restore 35 99 pd inst 100 2;
#N canvas 0 22 804 588 inst 0;
#X obj 79 291 cos~;
#X obj 79 190 -~ 0.5;
#X obj 79 245 *~;
#X obj 79 268 clip~ -0.5 0.5;
#X obj 339 182 +~ 1;
#X obj 79 314 +~ 1;
#X obj 489 296 cos~;
#X obj 79 372 *~;
#X obj 489 270 *~;
#X obj 79 337 *~ 0.5;
#X obj 339 133 osc~ 0.3;
#X obj 339 162 *~;
#X obj 507 196 *~;
#X obj 504 246 +~ 1;
#X obj 79 90 *~;
#X obj 79 43 osc~ 0.001;
#X obj 507 163 osc~ 0.015;
#X obj 79 140 +~ 100;
#X obj 504 223 *~ 1;
#X obj 79 117 *~ 2;
#X obj 507 107 random 100;
#X obj 507 137 / 10000;
#X obj 507 68 metro 500;
#X obj 575 49 random 700;
#X obj 576 69 + 200;
#X obj 339 53 metro 500;
#X obj 408 30 random 700;
#X obj 408 54 + 200;
#X obj 339 107 / 1000;
#X obj 339 87 random 700;
#X obj 79 166 phasor~ 120;
#X obj 79 407 outlet~;
#X obj 339 -13 c.loadmess 1;
#X obj 226 41 c.patcherargs;
#X obj 226 18 bang;
#X obj 226 64 unpack s 0 0;
#X obj 78 -31 metro 500;
#X obj 147 -54 random 700;
#X obj 147 -30 + 200;
#X obj 78 3 random 700;
#X obj 79 22 / 100000;
#X connect 0 0 5 0;
#X connect 1 0 2 0;
#X connect 1 0 8 0;
#X connect 2 0 3 0;
#X connect 3 0 0 0;
#X connect 4 0 2 1;
#X connect 5 0 9 0;
#X connect 6 0 7 1;
#X connect 7 0 31 0;
#X connect 8 0 6 0;
#X connect 9 0 7 0;
#X connect 10 0 11 0;
#X connect 10 0 11 1;
#X connect 11 0 4 0;
#X connect 12 0 18 0;
#X connect 13 0 8 1;
#X connect 14 0 19 0;
#X connect 15 0 14 0;
#X connect 15 0 14 1;
#X connect 16 0 12 0;
#X connect 16 0 12 1;
#X connect 17 0 30 0;
#X connect 18 0 13 0;
#X connect 19 0 17 0;
#X connect 20 0 21 0;
#X connect 21 0 16 0;
#X connect 22 0 20 0;
#X connect 22 0 23 0;
#X connect 23 0 24 0;
#X connect 24 0 22 1;
#X connect 25 0 26 0;
#X connect 25 0 29 0;
#X connect 26 0 27 0;
#X connect 27 0 25 1;
#X connect 28 0 10 0;
#X connect 29 0 28 0;
#X connect 30 0 1 0;
#X connect 32 0 22 0;
#X connect 32 0 25 0;
#X connect 32 0 34 0;
#X connect 32 0 36 0;
#X connect 33 0 35 0;
#X connect 34 0 33 0;
#X connect 35 1 17 1;
#X connect 35 2 19 1;
#X connect 36 0 37 0;
#X connect 36 0 39 0;
#X connect 37 0 38 0;
#X connect 38 0 36 1;
#X connect 39 0 40 0;
#X connect 40 0 15 0;
#X restore 95 119 pd inst 115 2.1;
#X obj 43 212 *~ 0.35;
#X obj 397 168 osc~ 0.3;
#X obj 397 73 metro 500;
#X msg 493 13 1;
#X obj 397 209 *~;
#X obj 204 212 *~ 0.15;
#X obj 148 210 *~ 0.3;
#X obj 197 270 *~;
#X obj 404 247 *~ 0.8;
#X obj 343 251 +~ 0.2;
#X obj 397 133 / 10000;
#X obj 397 111 random 3000;
#X obj 507 168 osc~ 0.3;
#X obj 507 73 metro 500;
#X obj 507 209 *~;
#X obj 514 247 *~ 0.8;
#X obj 453 251 +~ 0.2;
#X obj 507 133 / 10000;
#X obj 507 111 random 3000;
#X obj 146 270 *~;
#X obj 97 270 *~;
#X obj 46 270 *~;
#X obj 607 168 osc~ 0.3;
#X obj 607 73 metro 500;
#X obj 607 209 *~;
#X obj 614 247 *~ 0.8;
#X obj 553 251 +~ 0.2;
#X obj 607 133 / 10000;
#X obj 607 111 random 3000;
#X obj 717 168 osc~ 0.3;
#X obj 717 73 metro 500;
#X obj 717 209 *~;
#X obj 724 247 *~ 0.8;
#X obj 663 251 +~ 0.2;
#X obj 717 133 / 10000;
#X obj 717 111 random 3000;
#X obj 85 423 hip~;
#X obj 102 455 outlet~;
#X obj 339 37 c.loadmess;
#X connect 0 0 11 0;
#X connect 1 0 10 0;
#X connect 2 0 25 0;
#X connect 3 0 5 0;
#X connect 4 0 2 0;
#X connect 5 0 26 0;
#X connect 6 0 9 0;
#X connect 6 0 9 1;
#X connect 7 0 16 0;
#X connect 8 0 7 0;
#X connect 8 0 18 0;
#X connect 8 0 28 0;
#X connect 8 0 35 0;
#X connect 9 0 13 0;
#X connect 10 0 12 0;
#X connect 11 0 24 0;
#X connect 12 0 41 0;
#X connect 13 0 14 0;
#X connect 14 0 12 1;
#X connect 15 0 6 0;
#X connect 16 0 15 0;
#X connect 17 0 19 0;
#X connect 17 0 19 1;
#X connect 18 0 23 0;
#X connect 19 0 20 0;
#X connect 20 0 21 0;
#X connect 21 0 24 1;
#X connect 22 0 17 0;
#X connect 23 0 22 0;
#X connect 24 0 41 0;
#X connect 25 0 41 0;
#X connect 26 0 41 0;
#X connect 27 0 29 0;
#X connect 27 0 29 1;
#X connect 28 0 33 0;
#X connect 29 0 30 0;
#X connect 30 0 31 0;
#X connect 31 0 25 1;
#X connect 32 0 27 0;
#X connect 33 0 32 0;
#X connect 34 0 36 0;
#X connect 34 0 36 1;
#X connect 35 0 40 0;
#X connect 36 0 37 0;
#X connect 37 0 38 0;
#X connect 38 0 26 1;
#X connect 39 0 34 0;
#X connect 40 0 39 0;
#X connect 41 0 42 0;
#X connect 43 0 8 0;
