#N canvas 352 172 746 467 10;
#X obj 186 325 hoa.in~;
#X obj 186 391 hoa.out~;
#X obj -12 5 c.loadmess;
#X obj 236 112 hoa.in extra 1;
#X obj 201 302 line~;
#X obj 201 238 pack 1 20;
#X obj 186 355 *~;
#X text 232 88 Extra 1 retreive the right inlet messages.;
#X text 226 43 Default values;
#X obj 236 156 route float list db ramp;
#X text 239 325 Receive the signal;
#X text 239 393 Output the signal;
#X obj -12 32 hoa.thisprocess~ @ramp 20 @default 1;
#X text 341 291 - ramp set the ramp time in ms.;
#X text 341 261 - db have the same behavior as float or list except
that the variable are convert to rms.;
#X text 341 197 - float set all the instances ampltiudes (except if
the target is used).;
#X obj 201 65 route default ramp;
#X text 293 130 Input messages selector;
#X text -6 157 In the subcanvas \, the mode;
#X text -6 177 are used to split the list;
#X text -6 187 at the right index.;
#X text -6 167 anf the arguments;
#X text 341 229 - list is plit and only the right variable set the
amplitude of this instance (look at the subcanvas).;
#N canvas 0 22 626 405 hoa.route.mess- 0;
#X obj 231 80 list split;
#X obj 259 104 unpack;
#X obj 332 134 dbtorms;
#X obj 395 134 list split;
#X obj 423 158 unpack;
#X obj 131 28 inlet;
#X obj 131 234 outlet;
#X obj 231 28 inlet;
#X text 103 4 float is direct;
#X text 213 4 list is split;
#X text 343 4 db is routed;
#X obj 332 28 inlet;
#X text 392 43 db float is direct;
#X text 395 72 db list is split;
#X obj 332 103 route float list;
#X obj 61 28 inlet;
#X connect 0 1 1 0;
#X connect 1 0 6 0;
#X connect 2 0 6 0;
#X connect 3 1 4 0;
#X connect 4 0 6 0;
#X connect 5 0 6 0;
#X connect 7 0 0 0;
#X connect 11 0 14 0;
#X connect 14 0 2 0;
#X connect 14 1 3 0;
#X connect 15 0 0 1;
#X connect 15 0 3 1;
#X restore 201 178 pd hoa.route.mess-;
#X obj 59 65 hoa.mode.sel;
#X obj -12 101 hoa.args.map;
#X connect 0 0 6 0;
#X connect 2 0 12 0;
#X connect 3 0 9 0;
#X connect 4 0 6 1;
#X connect 5 0 4 0;
#X connect 6 0 1 0;
#X connect 9 0 23 1;
#X connect 9 1 23 2;
#X connect 9 2 23 3;
#X connect 9 3 5 1;
#X connect 12 0 25 0;
#X connect 12 1 24 0;
#X connect 12 3 16 0;
#X connect 16 0 4 0;
#X connect 16 0 5 0;
#X connect 16 1 5 1;
#X connect 23 0 5 0;
#X connect 24 0 25 1;
#X connect 25 0 23 0;
