#N canvas 540 157 711 471 10;
#X obj 387 155 hoa.in~;
#X obj 387 338 hoa.out~;
#X obj -4 -103 c.loadmess;
#X obj 440 155 hoa.in;
#X obj 387 247 c.convolve~ buffer 1;
#X obj 513 175 c.prepend set;
#X obj 103 -13 hoa.mode.sel;
#X obj -4 17 hoa.args.map;
#X obj 3 49 + 1;
#X obj 4 73 / 1;
#X obj 4 117 nbx 5 14 -1e+37 1e+37 0 0 empty empty empty 0 -8 0 10
-262144 -1 -1 0.142857 256;
#X obj 65 64 / 1;
#X obj 65 87 t b f;
#X obj 65 128 -;
#X msg 65 106 1;
#X obj 65 157 nbx 5 14 -1e+37 1e+37 0 0 empty empty empty 0 -8 0 10
-262144 -1 -1 1 256;
#X obj 278 226 line~;
#X obj 278 199 pack 0 20;
#X obj 317 176 line~;
#X obj 317 149 pack 0 20;
#X obj 389 287 *~;
#X obj 338 287 *~;
#X obj 288 -45 hoa.in extra 1;
#X obj -4 -69 hoa.thisprocess~ @wet 1 @dry 0 @normalize 1;
#X obj 513 135 c.prepend normalize;
#X obj 289 -2 route dry wet set nomalize;
#X connect 0 0 4 0;
#X connect 0 0 21 0;
#X connect 2 0 23 0;
#X connect 3 0 4 0;
#X connect 4 0 20 0;
#X connect 5 0 4 0;
#X connect 6 0 7 1;
#X connect 7 0 9 1;
#X connect 7 0 11 1;
#X connect 7 1 8 0;
#X connect 7 1 11 0;
#X connect 8 0 9 0;
#X connect 9 0 10 0;
#X connect 11 0 12 0;
#X connect 12 0 14 0;
#X connect 12 1 13 1;
#X connect 13 0 15 0;
#X connect 14 0 13 0;
#X connect 16 0 21 1;
#X connect 17 0 16 0;
#X connect 18 0 20 1;
#X connect 19 0 18 0;
#X connect 20 0 1 0;
#X connect 21 0 1 0;
#X connect 22 0 25 0;
#X connect 23 0 7 0;
#X connect 23 1 6 0;
#X connect 23 2 5 0;
#X connect 23 3 25 0;
#X connect 24 0 4 0;
#X connect 25 0 17 0;
#X connect 25 1 19 0;
#X connect 25 2 5 0;
#X connect 25 3 24 0;
