#N canvas 665 141 741 618 10;
#X obj 263 284 hoa.in~;
#X obj 263 427 hoa.out~;
#X obj -4 -75 c.loadmess;
#X obj 302 370 *~;
#X obj 351 336 c.freeverb~ left;
#X obj 103 -13 hoa.mode.sel;
#X obj -4 17 hoa.args.map;
#X obj 3 49 + 1;
#X obj 4 73 / 1;
#X obj 4 117 nbx 5 14 -1e+37 1e+37 0 0 empty empty empty 0 -8 0 10
-262144 -1 -1 0.142857 256;
#X obj 65 64 / 1;
#X obj 65 87 t b f;
#X obj 65 128 -;
#X msg 65 106 1;
#X obj 65 157 nbx 5 14 -1e+37 1e+37 0 0 empty empty empty 0 -8 0 10
-262144 -1 -1 1 256;
#X obj 263 371 *~;
#X obj 278 256 line~;
#X obj 278 229 pack 0 20;
#X obj 317 206 line~;
#X obj 317 179 pack 0 20;
#X obj 411 -18 hoa.in extra 1;
#N canvas 0 22 450 300 sel_router 0;
#X obj 199 107 route list float;
#X obj 199 57 inlet;
#X obj 199 141 list split;
#X obj 227 165 unpack;
#X obj 227 252 outlet;
#X obj 129 57 inlet;
#X connect 0 0 2 0;
#X connect 0 1 4 0;
#X connect 1 0 0 0;
#X connect 2 1 3 0;
#X connect 3 0 4 0;
#X connect 5 0 2 1;
#X restore 278 64 pd sel_router;
#N canvas 0 22 450 300 sel_router 0;
#X obj 199 107 route list float;
#X obj 199 57 inlet;
#X obj 199 141 list split;
#X obj 227 165 unpack;
#X obj 227 252 outlet;
#X obj 129 57 inlet;
#X connect 0 0 2 0;
#X connect 0 1 4 0;
#X connect 1 0 0 0;
#X connect 2 1 3 0;
#X connect 3 0 4 0;
#X connect 5 0 2 1;
#X restore 315 94 pd sel_router;
#N canvas 0 22 465 440 sel_router 0;
#X obj 199 57 route list float, f 28;
#X obj 199 7 inlet;
#X obj 199 211 list split;
#X obj 227 235 unpack;
#X obj 227 322 outlet;
#X obj 9 7 inlet;
#X obj 291 277 * 1;
#X obj 49 7 inlet;
#X obj 291 252 t b f;
#X obj 131 7 inlet;
#X obj 356 109 t b f;
#X obj 356 138 f 1;
#X obj 356 164 -;
#X obj 356 83 clip 0 1;
#X obj 281 211 clip 0 1;
#X obj 393 167 * 1;
#X obj 393 142 t b f;
#X obj 356 223 +;
#X obj 372 197 t b f;
#X connect 0 0 2 0;
#X connect 0 1 14 0;
#X connect 1 0 0 0;
#X connect 2 1 3 0;
#X connect 3 0 4 0;
#X connect 5 0 2 1;
#X connect 6 0 4 0;
#X connect 7 0 15 0;
#X connect 8 0 6 0;
#X connect 8 1 6 1;
#X connect 9 0 13 0;
#X connect 10 0 11 0;
#X connect 10 1 12 1;
#X connect 10 1 16 0;
#X connect 11 0 12 0;
#X connect 12 0 17 0;
#X connect 13 0 10 0;
#X connect 14 0 6 0;
#X connect 15 0 18 0;
#X connect 16 0 15 0;
#X connect 16 1 15 1;
#X connect 17 0 8 0;
#X connect 18 0 17 0;
#X connect 18 1 17 1;
#X restore 353 124 pd sel_router;
#N canvas 340 330 499 431 sel_router 0;
#X obj 199 107 route list float, f 28;
#X obj 199 57 inlet;
#X obj 199 141 list split;
#X obj 227 165 unpack;
#X obj 227 312 outlet;
#X obj 9 57 inlet;
#X obj 312 267 * 1;
#X obj 49 57 inlet;
#X obj 312 242 t b f;
#X obj 386 109 t b f;
#X obj 386 138 f 1;
#X obj 386 164 -;
#X obj 386 83 clip 0 1;
#X obj 281 150 clip 0 1;
#X obj 423 167 * 1;
#X obj 423 142 t b f;
#X obj 386 223 +;
#X obj 402 197 t b f;
#X obj 119 57 inlet;
#X connect 0 0 2 0;
#X connect 0 1 13 0;
#X connect 1 0 0 0;
#X connect 2 1 3 0;
#X connect 3 0 4 0;
#X connect 5 0 2 1;
#X connect 6 0 4 0;
#X connect 7 0 14 0;
#X connect 8 0 6 0;
#X connect 8 1 6 1;
#X connect 9 0 10 0;
#X connect 9 1 11 1;
#X connect 9 1 15 0;
#X connect 10 0 11 0;
#X connect 11 0 16 0;
#X connect 12 0 9 0;
#X connect 13 0 6 0;
#X connect 14 0 17 0;
#X connect 15 0 14 0;
#X connect 15 1 14 1;
#X connect 16 0 8 0;
#X connect 17 0 16 0;
#X connect 17 1 16 1;
#X connect 18 0 12 0;
#X restore 391 154 pd sel_router;
#X text 256 -91 This hoa.processing applies reveberation on a sound
field with the freeverb.;
#X obj 351 242 c.prepend roomsize;
#X obj 391 283 c.prepend damp;
#X obj 353 33 route wet dry roomsize damp diff;
#X obj -4 -41 hoa.thisprocess~ @wet 1 @dry 0 @roomsize 0.5 @damp 0.5
@diff 0;
#X connect 0 0 4 0;
#X connect 0 0 3 0;
#X connect 2 0 29 0;
#X connect 3 0 1 0;
#X connect 4 0 15 0;
#X connect 5 0 6 1;
#X connect 6 0 8 1;
#X connect 6 0 10 1;
#X connect 6 1 7 0;
#X connect 6 1 10 0;
#X connect 6 1 21 0;
#X connect 6 1 22 0;
#X connect 6 1 23 0;
#X connect 6 1 24 0;
#X connect 7 0 8 0;
#X connect 8 0 9 0;
#X connect 8 0 24 1;
#X connect 10 0 11 0;
#X connect 11 0 13 0;
#X connect 11 1 12 1;
#X connect 12 0 14 0;
#X connect 12 0 23 1;
#X connect 13 0 12 0;
#X connect 15 0 1 0;
#X connect 16 0 15 1;
#X connect 17 0 16 0;
#X connect 18 0 3 1;
#X connect 19 0 18 0;
#X connect 20 0 28 0;
#X connect 21 0 17 0;
#X connect 22 0 19 0;
#X connect 23 0 26 0;
#X connect 24 0 27 0;
#X connect 26 0 4 0;
#X connect 27 0 4 0;
#X connect 28 0 21 1;
#X connect 28 1 22 1;
#X connect 28 2 23 3;
#X connect 28 3 24 3;
#X connect 28 4 23 2;
#X connect 28 4 24 2;
#X connect 29 0 6 0;
#X connect 29 1 5 0;
#X connect 29 3 28 0;
