#N canvas 687 22 1060 426 10;
#X obj -12 -185 c.loadmess;
#N canvas 0 22 450 300 hoa.mode.sel 1;
#X obj 85 62 unpack s s;
#X obj 185 90 sel harmonics planewaves;
#X obj 85 90 sel 2d 3d, f 14;
#X obj 125 142 f 1;
#X obj 85 178 +;
#X obj 85 21 inlet;
#X obj 85 248 outlet;
#X text 217 182 Harmonics 2d : mode 0;
#X text 217 202 Harmonics 3d : mode 1;
#X text 217 222 Planewaves 2d or 3d : mode 2;
#X text 217 243 Planewaves 2d or 3d : mode 3;
#X obj 185 142 f 0;
#X obj 255 142 f 2;
#X obj 85 142 f 1;
#X connect 0 0 2 0;
#X connect 0 1 1 0;
#X connect 1 0 11 0;
#X connect 1 1 12 0;
#X connect 2 0 13 0;
#X connect 2 1 3 0;
#X connect 3 0 4 0;
#X connect 4 0 6 0;
#X connect 5 0 0 0;
#X connect 11 0 4 1;
#X connect 12 0 4 1;
#X connect 13 0 4 0;
#X restore 151 -129 pd hoa.mode.sel;
#N canvas 507 233 705 502 hoa.arg.map 0;
#X obj 333 90 inlet;
#X obj 80 90 inlet;
#X obj 333 118 sel 0 1 2;
#X obj 222 471 outlet;
#X text 331 32 Planewaves 2d or 3d : mode 0;
#X text 331 42 Harmonics 2d : mode 1;
#X text 331 52 Harmonics 3d : mode 2;
#X text 330 9 Right inlet the process mode;
#X text 80 9 Left inlet the instance arguments;
#X text 81 32 The arguments are mapped depending on;
#X msg 80 257 1;
#X text 23 328 Planewaves mode;
#X text 23 338 is not mapped.;
#X text 23 348 You should create;
#N canvas 53 442 611 363 hoa.arg.2dmap 0;
#X obj 206 104 spigot 0;
#X obj 251 83 f 1;
#X obj 252 161 < 0;
#X obj 225 161 * 2;
#X obj 225 182 abs;
#X obj 225 203 - 0;
#X obj 225 249 / 1;
#X obj 285 143 * 2;
#X obj 253 17 inlet;
#X obj 155 46 unpack;
#X obj 157 17 inlet;
#X obj 206 315 outlet;
#X obj 377 265 outlet;
#X obj 377 162 abs;
#X obj 377 224 / 1;
#X text 68 133 size mapping;
#X text 47 156 the arguments need;
#X text 47 176 depending on the;
#X text 47 186 the harmonic argument.;
#X text 47 166 need to be interleaved;
#X text 50 208 Then \, the result;
#X text 50 228 of harmonics.;
#X text 50 217 is divide by the number;
#X text 27 37 Harmonics 2d mode;
#X text 413 74 delay mapping;
#X text 413 99 The negative and positive;
#X text 413 109 harmonics have the same;
#X text 413 119 arguments;
#X obj 206 132 t 1 f f;
#X obj 206 273 -;
#X obj 377 188 + 1;
#X obj 407 158 + 1;
#X obj 285 171 + 2;
#X msg 206 226 1;
#X connect 0 0 28 0;
#X connect 0 0 13 0;
#X connect 1 0 0 1;
#X connect 2 0 5 1;
#X connect 3 0 4 0;
#X connect 4 0 5 0;
#X connect 5 0 6 0;
#X connect 6 0 29 1;
#X connect 7 0 32 0;
#X connect 8 0 1 0;
#X connect 9 0 0 0;
#X connect 9 1 7 0;
#X connect 9 1 31 0;
#X connect 10 0 9 0;
#X connect 13 0 30 0;
#X connect 14 0 12 0;
#X connect 28 0 33 0;
#X connect 28 1 3 0;
#X connect 28 2 2 0;
#X connect 29 0 11 0;
#X connect 30 0 14 0;
#X connect 31 0 14 1;
#X connect 32 0 6 1;
#X connect 33 0 29 0;
#X restore 257 249 pd hoa.arg.2dmap;
#X obj 283 471 outlet;
#X text 81 42 the mode to control the grain size and;
#X text 81 52 the delay;
#N canvas 0 22 611 363 hoa.arg.3dmap 0;
#X obj 206 104 spigot 0;
#X obj 251 83 f 1;
#X obj 233 151 < 0;
#X obj 206 132 t f f;
#X obj 206 151 * 2;
#X obj 206 172 abs;
#X obj 206 193 - 0;
#X obj 206 229 / 1;
#X obj 265 143 * 2;
#X obj 265 171 + 1;
#X obj 253 17 inlet;
#X obj 157 17 inlet;
#X obj 206 265 outlet;
#X obj 318 265 outlet;
#X obj 337 162 abs;
#X obj 337 189 / 1;
#X text 68 133 size mapping;
#X text 47 156 the arguments need;
#X text 47 176 depending on the;
#X text 47 186 the harmonic argument.;
#X text 47 166 need to be interleaved;
#X text 50 208 Then \, the result;
#X text 50 228 of harmonics.;
#X text 50 217 is divide by the number;
#X text 27 37 Harmonics 2d mode;
#X text 413 124 delay mapping;
#X text 413 149 The negative and positive;
#X text 413 159 harmonics have the same;
#X text 413 169 arguments;
#X obj 318 226 / 1;
#X obj 318 132 t 1 f;
#X obj 155 46 unpack 0 0 0;
#X obj 543 230 spigot 0;
#X obj 587 209 f 1;
#X obj 614 230 spigot 0;
#X obj 658 209 f 1;
#X obj 570 277 < 0;
#X obj 543 258 t f f;
#X obj 543 277 * 2;
#X obj 543 298 abs;
#X obj 543 319 - 0;
#X obj 543 365 + 0;
#X obj 614 259 * 2;
#X obj 614 287 + 1;
#X connect 0 0 3 0;
#X connect 0 0 30 0;
#X connect 1 0 0 1;
#X connect 2 0 6 1;
#X connect 3 0 4 0;
#X connect 3 1 2 0;
#X connect 4 0 5 0;
#X connect 5 0 6 0;
#X connect 6 0 7 0;
#X connect 8 0 9 0;
#X connect 9 0 7 1;
#X connect 10 0 1 0;
#X connect 11 0 31 0;
#X connect 14 0 15 0;
#X connect 15 0 29 1;
#X connect 30 0 29 0;
#X connect 30 1 14 0;
#X connect 31 0 0 0;
#X connect 31 1 8 0;
#X connect 31 1 15 1;
#X connect 32 0 37 0;
#X connect 33 0 32 1;
#X connect 34 0 42 0;
#X connect 35 0 34 1;
#X connect 36 0 40 1;
#X connect 37 0 38 0;
#X connect 37 1 36 0;
#X connect 38 0 39 0;
#X connect 39 0 40 0;
#X connect 40 0 41 0;
#X connect 42 0 43 0;
#X connect 43 0 41 1;
#X restore 388 249 pd hoa.arg.3dmap;
#X text 23 368 for this.;
#X text 23 358 your own granulator, f 15;
#X connect 0 0 2 0;
#X connect 1 0 14 0;
#X connect 1 0 18 0;
#X connect 2 0 10 0;
#X connect 2 1 14 1;
#X connect 2 2 18 1;
#X connect 10 0 3 0;
#X connect 10 0 15 0;
#X connect 14 0 3 0;
#X connect 14 1 15 0;
#X connect 18 0 3 0;
#X connect 18 1 15 0;
#X restore -12 -89 pd hoa.arg.map;
#X text 575 67 - feedback set all the instances feedback (except if
the target is used).;
#X text 575 97 - rarefaction set all the instances rarefaction (except
if the target is used).;
#N canvas 417 312 450 300 array_error 0;
#X obj 41 162 print hoa.gain~;
#X obj 41 112 sel unknown_array;
#X msg 41 137 : The buffer is not defined.;
#X obj 41 90 c.prepend symbol;
#X obj 41 48 inlet;
#X obj 169 184 outlet;
#X connect 1 0 2 0;
#X connect 1 1 5 0;
#X connect 2 0 0 0;
#X connect 3 0 1 0;
#X connect 4 0 3 0;
#X restore 501 -57 pd array_error;
#X text 598 -51 Post an error if the;
#X text 598 -41 buffer is not defined;
#X text 575 122 - array set all the instances array (except if the
target is used).;
#X text 556 -74 Array must be defined as an argument.;
#X obj -12 -158 hoa.thisprocess~ unknown_array @size 100 @delay 1000
@feedback 0.5 @rarefaction 0, f 82;
#X text 245 -94 Extra 1 Retreive the inlet messages.;
#X obj 297 -71 hoa.in extra 1;
#X text 324 -40 Input messages selector;
#X obj 297 -20 route size delay feedback rarefaction array;
#X obj 297 48 * 1, f 5;
#X obj 348 48 * 1, f 5;
#X obj 297 18 t b f;
#X obj 348 18 t b f;
#X obj 246 72 hoa.in~ extra 1;
#X obj 246 140 hoa.out~;
#N canvas 697 140 608 675 hoa_granular----------------------------
0;
#X obj 564 175 clip~ 0 1;
#X obj 564 138 line~;
#X obj 542 440 *~;
#X obj 263 362 *~;
#X obj 34 315 *~ 513;
#X obj 136 131 random;
#X obj 136 207 +;
#X obj 136 109 metro;
#X obj 136 180 t b f;
#X obj 136 75 c.loadmess 1;
#X obj -6 114 c.prepend set;
#X obj 136 154 * 0.1;
#X obj 34 281 phasor~ 1;
#X msg 564 114 \$1 20;
#X obj 34 344 tabread4~;
#X obj 393 272 samphold~;
#X obj 393 130 noise~;
#X obj 393 159 *~ 1;
#X obj 393 187 +~;
#X obj 393 244 +~ 1;
#X obj 393 213 abs~;
#X obj 439 130 * 0.1;
#X obj 263 316 samphold~;
#X obj 263 179 +~ 1;
#X obj 263 205 *~ 0.5;
#X obj 263 139 noise~;
#N canvas 65 381 450 300 delme 0;
#X obj 89 47 inlet~;
#X obj 88 264 outlet~;
#X obj 37 48 inlet~;
#X obj -17 50 inlet~;
#X obj 56 167 *~;
#X obj 88 201 vd~ \$0-hoa_grain;
#X obj 89 127 delwrite~ \$0-hoa_grain 5500;
#X obj 88 172 +~ 2;
#X connect 0 0 6 0;
#X connect 2 0 4 0;
#X connect 3 0 7 0;
#X connect 4 0 6 0;
#X connect 5 0 4 0;
#X connect 5 0 1 0;
#X connect 7 0 5 0;
#X restore 542 324 pd delme;
#X obj 135 230 t b f;
#X obj 34 260 /;
#X msg 53 223 1000;
#N canvas 0 22 450 300 >~ 0;
#X obj 67 114 max~ 0;
#X obj 67 175 -~ 0;
#X obj 130 188 /~;
#X obj 130 152 sig~ -1;
#X obj 145 114 -~;
#X obj 67 212 *~;
#X obj 67 17 inlet~;
#X obj 67 252 outlet~;
#X obj 132 15 inlet;
#X connect 0 0 1 0;
#X connect 1 0 5 0;
#X connect 2 0 5 1;
#X connect 3 0 2 0;
#X connect 4 0 2 1;
#X connect 5 0 7 0;
#X connect 6 0 0 0;
#X connect 6 0 4 1;
#X connect 8 0 4 0;
#X connect 8 0 1 1;
#X connect 8 0 0 1;
#X restore 263 234 pd >~ 1;
#X obj 53 61 inlet~;
#X obj 490 565 outlet~;
#X obj 495 4 inlet;
#X obj 362 17 inlet;
#X obj 313 19 inlet;
#X obj 161 43 inlet;
#X obj 218 23 inlet;
#X connect 0 0 26 1;
#X connect 1 0 0 0;
#X connect 2 0 32 0;
#X connect 3 0 2 1;
#X connect 4 0 14 0;
#X connect 5 0 11 0;
#X connect 6 0 27 0;
#X connect 6 0 28 1;
#X connect 7 0 5 0;
#X connect 8 0 6 0;
#X connect 8 1 6 1;
#X connect 9 0 7 0;
#X connect 10 0 14 0;
#X connect 11 0 8 0;
#X connect 12 0 4 0;
#X connect 12 0 15 1;
#X connect 12 0 22 1;
#X connect 13 0 1 0;
#X connect 14 0 3 1;
#X connect 15 0 26 0;
#X connect 16 0 17 0;
#X connect 17 0 18 0;
#X connect 18 0 20 0;
#X connect 19 0 15 0;
#X connect 20 0 19 0;
#X connect 21 0 17 1;
#X connect 22 0 3 0;
#X connect 23 0 24 0;
#X connect 24 0 30 0;
#X connect 25 0 23 0;
#X connect 26 0 2 0;
#X connect 27 0 29 0;
#X connect 27 1 28 1;
#X connect 28 0 12 0;
#X connect 29 0 28 0;
#X connect 30 0 22 0;
#X connect 31 0 26 2;
#X connect 33 0 10 0;
#X connect 34 0 30 1;
#X connect 35 0 13 0;
#X connect 36 0 6 0;
#X connect 36 0 7 1;
#X connect 36 0 5 1;
#X connect 37 0 21 0;
#X connect 37 0 18 1;
#X restore 246 106 pd hoa_granular----------------------------;
#X text 171 149 the signal;
#X text 171 139 Output;
#X text 171 59 Receive the;
#X text 171 69 extra signal;
#X text 575 27 - size is mapped depending on args.;
#X text 575 47 - delay is mapped depending on args.;
#X connect 0 0 10 0;
#X connect 1 0 2 1;
#X connect 2 0 17 0;
#X connect 2 1 18 0;
#X connect 5 0 21 5;
#X connect 10 0 2 0;
#X connect 10 1 1 0;
#X connect 10 2 5 0;
#X connect 10 3 14 0;
#X connect 12 0 14 0;
#X connect 14 0 15 0;
#X connect 14 1 16 0;
#X connect 14 2 21 3;
#X connect 14 3 21 4;
#X connect 14 4 21 5;
#X connect 15 0 21 1;
#X connect 16 0 21 2;
#X connect 17 0 15 0;
#X connect 17 1 15 1;
#X connect 18 0 16 0;
#X connect 18 1 16 1;
#X connect 19 0 21 0;
#X connect 21 0 20 0;
