#N canvas 155 89 765 613 10;
#X obj 76 365 hoa.in~;
#X obj 76 431 hoa.out~;
#X obj -12 5 c.loadmess;
#X obj 236 112 hoa.in extra 1;
#X obj 91 342 line~;
#X obj 141 298 pack 1 20;
#X obj 76 395 *~;
#X text 232 88 Extra 1 retreive the right inlet messages.;
#X text 226 43 Default values;
#X text 129 365 Receive the signal;
#X text 129 433 Output the signal;
#X obj -12 32 hoa.thisprocess~ @ramp 20 @default 1;
#X obj 201 65 route default ramp;
#X text 293 130 Input messages selector;
#X obj 59 65 hoa.mode.sel;
#X obj -12 101 hoa.args.map;
#X text 254 2 This hoa.processing control the gains of a sound field.
;
#X obj 271 231 list split;
#X obj 299 255 unpack;
#X obj 369 206 list split;
#X obj 397 227 unpack;
#X obj 306 182 route float list;
#N canvas 0 22 450 300 dbtoamp 0;
#X obj 121 87 * 0.05;
#X obj 121 106 t b f;
#X obj 121 148 pow;
#X obj 121 127 f 20;
#X obj 121 43 inlet;
#X obj 121 194 outlet;
#X connect 0 0 1 0;
#X connect 1 0 3 0;
#X connect 1 1 2 1;
#X connect 2 0 5 0;
#X connect 3 0 2 0;
#X connect 4 0 0 0;
#X restore 306 206 pd dbtoamp;
#N canvas 0 22 450 300 dbtoamp 0;
#X obj 121 87 * 0.05;
#X obj 121 106 t b f;
#X obj 121 148 pow;
#X obj 121 127 f 20;
#X obj 121 43 inlet;
#X obj 121 194 outlet;
#X connect 0 0 1 0;
#X connect 1 0 3 0;
#X connect 1 1 2 1;
#X connect 2 0 5 0;
#X connect 3 0 2 0;
#X connect 4 0 0 0;
#X restore 397 248 pd dbtoamp;
#X text 321 419 list : The item corresponding to the instance is selected
and set the amplitude of this instance.;
#X text 321 337 float : set the amplitudes of all the instances (except
if the target is used).;
#X text 321 367 db/float : set the amplitudes of all the instances
with a logarithmic scale (except if the target is used).;
#X text 322 451 db/list : The item corresponding to the instance is
selected and set the amplitude of this instance with a logarithmic
scale.;
#X text 324 506 ramp : set the ramp time in ms.;
#X obj 236 156 route float list dB ramp;
#X connect 0 0 6 0;
#X connect 2 0 11 0;
#X connect 3 0 29 0;
#X connect 4 0 6 1;
#X connect 5 0 4 0;
#X connect 6 0 1 0;
#X connect 11 0 15 0;
#X connect 11 1 14 0;
#X connect 11 3 12 0;
#X connect 12 0 4 0;
#X connect 12 0 5 0;
#X connect 12 1 5 1;
#X connect 14 0 15 1;
#X connect 15 1 17 1;
#X connect 15 1 19 1;
#X connect 17 1 18 0;
#X connect 18 0 5 0;
#X connect 19 1 20 0;
#X connect 20 0 23 0;
#X connect 21 0 22 0;
#X connect 21 1 19 0;
#X connect 22 0 5 0;
#X connect 23 0 5 0;
#X connect 29 0 5 0;
#X connect 29 1 17 0;
#X connect 29 2 21 0;
#X connect 29 3 5 1;
