#N canvas 702 62 814 638 10;
#X obj 57 475 hoa.in~;
#X obj 57 601 hoa.out~;
#X obj -55 -15 c.loadmess;
#X text -63 475 Receive the signal;
#X text -56 602 Output the signal;
#X text 294 86 Input messages selector;
#X obj 12 55 hoa.mode.sel;
#X obj -55 81 hoa.args.map;
#X obj 57 559 *~;
#X obj 117 478 line~;
#X obj 258 512 *~;
#X obj 258 451 osc~ 1;
#X obj 258 429 line~;
#X msg 258 407 \$1 20;
#X obj 14 105 + 1;
#X obj 14 140 / 1;
#X obj 163 41 hoa.in extra 1;
#X text 256 41 Extra 1 Receive the inlet messages.;
#X text -44 11 Default arguments and attributes;
#X text 309 451 Simple ring modulation;
#X obj 230 131 list split;
#X obj 258 155 unpack;
#X obj 179 206 *;
#X text 17 190 factor;
#X text 13 180 instance;
#X obj 14 160 nbx 5 14 -1e+37 1e+37 0 0 empty empty empty 0 -8 0 10
-262144 -1 -1 0 256;
#X obj -55 160 nbx 5 14 -1e+37 1e+37 0 0 empty empty empty 0 -8 0 10
-262144 -1 -1 0 256;
#X obj 128 274 clip 0 1;
#X text 303 193 float : The value \, that control the frequency of
the ring modulation \, is multiplied by a factor depending on the intance.
The factor is 1 for the highest harmonic and decreases toward 0 for
the lower harmonics.;
#X obj 258 385 f 1;
#X msg 117 457 \$1 20;
#X obj 155 380 sel 0 1;
#X obj 128 337 t b f;
#X text -56 180 number of;
#X text -59 190 instances;
#X text 307 275 diffusion : The value is clip between 0 and 1 and reversed.
If the value is 1 \, the ring modulation is applied to all the intances.
If the value is 0 \, the ring modulation is applied to no harmonics.
Between the boudnaries \, the ring modulation appears first in the
high harmonics then in the low harmonics.;
#X obj 128 310 >= 0;
#X obj 117 409 f 1;
#X obj 198 478 line~;
#X msg 198 457 \$1 20;
#X obj 228 409 f 1;
#X obj 155 409 f 0;
#X obj 188 409 f 0;
#X obj 125 371 tgl 15 0 empty empty empty 17 7 0 10 -262144 -1 -1 1
1;
#X text -34 363 1 if the ring modulation;
#X text -34 373 is active and 0 if not;
#X obj 104 56 f 10;
#X obj 128 87 route diffusion float list;
#X obj 279 60 sel done;
#X obj -55 32 hoa.thisprocess~ 5 @diffusion 1;
#X text 306 134 list : The item corresponding to the instance is selected
and control the frequency of the ring modulation (mostly used in the
plane waves domain).;
#X text 172 -5 This hoa.processing diffuses the sound field with ring
modulation.;
#X connect 0 0 8 0;
#X connect 2 0 49 0;
#X connect 6 0 7 1;
#X connect 7 0 26 0;
#X connect 7 0 15 1;
#X connect 7 1 14 0;
#X connect 7 1 20 1;
#X connect 8 0 1 0;
#X connect 9 0 8 1;
#X connect 10 0 8 1;
#X connect 11 0 10 0;
#X connect 12 0 11 0;
#X connect 13 0 12 0;
#X connect 14 0 15 0;
#X connect 15 0 22 1;
#X connect 15 0 25 0;
#X connect 15 0 36 1;
#X connect 16 0 47 0;
#X connect 20 1 21 0;
#X connect 21 0 29 0;
#X connect 22 0 29 0;
#X connect 27 0 36 0;
#X connect 29 0 13 0;
#X connect 30 0 9 0;
#X connect 31 0 37 0;
#X connect 31 0 41 0;
#X connect 31 1 40 0;
#X connect 31 1 42 0;
#X connect 32 0 29 0;
#X connect 32 1 31 0;
#X connect 32 1 43 0;
#X connect 36 0 32 0;
#X connect 37 0 30 0;
#X connect 38 0 10 1;
#X connect 39 0 38 0;
#X connect 40 0 39 0;
#X connect 41 0 39 0;
#X connect 42 0 30 0;
#X connect 46 0 47 0;
#X connect 47 0 27 0;
#X connect 47 1 22 0;
#X connect 47 2 20 0;
#X connect 47 3 48 0;
#X connect 48 0 46 0;
#X connect 49 0 7 0;
#X connect 49 1 6 0;
#X connect 49 2 46 0;
#X connect 49 3 47 0;
