#N canvas 0 22 864 247 10;
#X obj -293 56 hoa.in;
#X obj -146 56 hoa.in~;
#X obj -223 56 hoa.in;
#X obj -223 155 hoa.out;
#X obj -293 155 hoa.out;
#X obj -146 156 hoa.out~;
#X obj -112 100 c.number~ @size 53 17 @fontname Helvetica @fontweight
normal @fontslant roman @fontsize 11 @receive (null) @send (null) @interval
50 @decimal 6 @bgcolor 0.75 0.75 0.75 1 @bdcolor 0.5 0.5 0.5 1 @textcolor
0 0 0 1;
#X obj -46 56 hoa.in~;
#X obj -46 156 hoa.out~;
#X obj -12 100 c.number~ @size 53 17 @fontname Helvetica @fontweight
normal @fontslant roman @fontsize 11 @receive (null) @send (null) @interval
50 @decimal 6 @bgcolor 0.75 0.75 0.75 1 @bdcolor 0.5 0.5 0.5 1 @textcolor
0 0 0 1;
#X obj 348 100 c.number~ @size 53 17 @fontname Helvetica @fontweight
normal @fontslant roman @fontsize 11 @receive (null) @send (null) @interval
50 @decimal 6 @bgcolor 0.75 0.75 0.75 1 @bdcolor 0.5 0.5 0.5 1 @textcolor
0 0 0 1;
#X obj 468 100 c.number~ @size 53 17 @fontname Helvetica @fontweight
normal @fontslant roman @fontsize 11 @receive (null) @send (null) @interval
50 @decimal 6 @bgcolor 0.75 0.75 0.75 1 @bdcolor 0.5 0.5 0.5 1 @textcolor
0 0 0 1;
#X obj 97 56 hoa.in extra 1;
#X obj 97 156 hoa.out extra 1;
#X obj 314 56 hoa.in~ extra 1;
#X obj 207 56 hoa.in extra 3;
#X obj 207 156 hoa.out extra 4;
#X obj 314 156 hoa.out~ extra 1;
#X obj 434 56 hoa.in~ extra 2;
#X obj 434 156 hoa.out~ extra 2;
#X obj 129 100 c.number @size 53 17 @fontname Helvetica @fontweight
normal @fontslant roman @fontsize 11 @receive (null) @send (null) @presetname
(null) @min (null) @max (null) @minmax (null) (null) @decimal 6 @bgcolor
0.75 0.75 0.75 1 @bdcolor 0.5 0.5 0.5 1 @textcolor 0 0 0 1;
#X obj -281 100 c.number @size 53 17 @fontname Helvetica @fontweight
normal @fontslant roman @fontsize 11 @receive (null) @send (null) @presetname
(null) @min (null) @max (null) @minmax (null) (null) @decimal 6 @bgcolor
0.75 0.75 0.75 1 @bdcolor 0.5 0.5 0.5 1 @textcolor 0 0 0 1;
#X obj -211 100 c.number @size 53 17 @fontname Helvetica @fontweight
normal @fontslant roman @fontsize 11 @receive (null) @send (null) @presetname
(null) @min (null) @max (null) @minmax (null) (null) @decimal 6 @bgcolor
0.75 0.75 0.75 1 @bdcolor 0.5 0.5 0.5 1 @textcolor 0 0 0 1;
#X msg 228 101;
#X connect 0 0 4 0;
#X connect 0 0 21 0;
#X connect 1 0 6 0;
#X connect 1 0 5 0;
#X connect 2 0 3 0;
#X connect 2 0 22 0;
#X connect 7 0 9 0;
#X connect 7 0 8 0;
#X connect 12 0 20 0;
#X connect 12 0 13 0;
#X connect 14 0 10 0;
#X connect 14 0 17 0;
#X connect 15 0 16 0;
#X connect 15 0 23 0;
#X connect 18 0 11 0;
#X connect 18 0 19 0;
