#N canvas 179 190 711 471 10;
#X obj 387 155 hoa.in~;
#X obj 387 338 hoa.out~;
#X obj -4 -103 c.loadmess;
#X obj 440 155 hoa.in;
#X obj 387 247 c.convolve~ buffer 1;
#X obj 513 175 c.prepend set;
#X obj 289 -2 route wet dry;
#X obj -4 -69 hoa.thisprocess~ @wet 1 @dry 0 @normalize;
#X obj 103 -13 hoa.mode.sel;
#X obj -4 17 hoa.args.map;
#X obj 3 49 + 1;
#X obj 4 73 / 1;
#X obj 4 117 nbx 5 14 -1e+37 1e+37 0 0 empty empty empty 0 -8 0 10
-262144 -1 -1 0 256;
#X obj 65 64 / 1;
#X obj 65 87 t b f;
#X obj 65 128 -;
#X msg 65 106 1;
#X obj 65 157 nbx 5 14 -1e+37 1e+37 0 0 empty empty empty 0 -8 0 10
-262144 -1 -1 0 256;
#X obj 278 226 line~;
#X obj 278 199 pack 0 20;
#X obj 317 176 line~;
#X obj 317 149 pack 0 20;
#N canvas 0 22 450 300 sel_router 0;
#X obj 199 107 route list float;
#X obj 199 57 inlet;
#X obj 199 141 list split;
#X obj 227 165 unpack;
#X obj 227 252 outlet;
#X obj 129 57 inlet;
#X connect 0 0 2 0;
#X connect 0 1 4 0;
#X connect 1 0 0 0;
#X connect 2 1 3 0;
#X connect 3 0 4 0;
#X connect 5 0 2 1;
#X restore 278 64 pd sel_router;
#N canvas 0 22 450 300 sel_router 0;
#X obj 199 107 route list float;
#X obj 199 57 inlet;
#X obj 199 141 list split;
#X obj 227 165 unpack;
#X obj 227 252 outlet;
#X obj 129 57 inlet;
#X connect 0 0 2 0;
#X connect 0 1 4 0;
#X connect 1 0 0 0;
#X connect 2 1 3 0;
#X connect 3 0 4 0;
#X connect 5 0 2 1;
#X restore 315 94 pd sel_router;
#X obj 389 287 *~;
#X obj 338 287 *~;
#X connect 0 0 4 0;
#X connect 0 0 25 0;
#X connect 2 0 7 0;
#X connect 3 0 4 0;
#X connect 4 0 24 0;
#X connect 5 0 4 0;
#X connect 6 0 22 0;
#X connect 6 1 23 1;
#X connect 7 0 9 0;
#X connect 7 1 8 0;
#X connect 7 2 5 0;
#X connect 8 0 9 1;
#X connect 9 0 11 1;
#X connect 9 0 13 1;
#X connect 9 1 10 0;
#X connect 9 1 13 0;
#X connect 9 1 22 0;
#X connect 9 1 23 0;
#X connect 10 0 11 0;
#X connect 11 0 12 0;
#X connect 13 0 14 0;
#X connect 14 0 16 0;
#X connect 14 1 15 1;
#X connect 15 0 17 0;
#X connect 16 0 15 0;
#X connect 18 0 25 1;
#X connect 19 0 18 0;
#X connect 20 0 24 1;
#X connect 21 0 20 0;
#X connect 22 0 19 0;
#X connect 23 0 21 0;
#X connect 24 0 1 0;
#X connect 25 0 1 0;
