#N canvas 179 190 711 471 10;
#X obj 28 55 hoa.in~;
#X obj 28 238 hoa.out~;
#X obj 145 -22 c.loadmess;
#X obj 139 55 hoa.in extra 1;
#X obj 135 248 hoa.out~;
#X obj 81 55 hoa.in;
#X obj 28 201 *~;
#X obj 135 211 *~;
#X obj 239 116 clip 0 1;
#X msg 216 138 \$1 20;
#X obj 215 167 line~ 1;
#X obj 285 167 line~ 0;
#X msg 266 138 \$1 20;
#X obj 28 147 c.freeverb~ left;
#X obj 134 148 c.freeverb~ right;
#X obj 139 88 route width wet dry;
#X obj 145 12 c.patcherargs @wet 1 @dry 0 @roomsize 0.8 @damp 0.5 @width
1;
#X connect 0 0 13 0;
#X connect 0 0 14 0;
#X connect 2 0 16 0;
#X connect 3 0 15 0;
#X connect 5 0 13 0;
#X connect 5 0 14 0;
#X connect 6 0 1 0;
#X connect 7 0 4 0;
#X connect 8 0 9 0;
#X connect 8 0 12 0;
#X connect 9 0 10 0;
#X connect 10 0 6 1;
#X connect 11 0 7 1;
#X connect 12 0 11 0;
#X connect 13 0 6 0;
#X connect 14 0 7 0;
#X connect 15 0 8 0;
#X connect 15 3 14 0;
#X connect 15 3 13 0;
#X connect 16 1 15 0;
