#N canvas 159 125 946 548 10;
#X obj 372 -26 hoa.in~;
#X obj 56 402 hoa.out~;
#X obj -109 -101 c.loadmess;
#X obj 208 35 hoa.in extra 1;
#X obj 618 251 table \$0-hoa_hann1 512;
#X obj 287 224 unpack;
#X obj 619 50 / 256;
#X obj 619 95 * 1;
#X obj 619 149 * 0.5;
#X obj 619 121 sin;
#X obj 619 173 + 0.5;
#X obj 620 -90 c.loadmess;
#X obj 619 22 t f f;
#X obj 619 201 pack;
#X obj 655 68 hoa.pi 1;
#X obj 619 71 - 0.5;
#X obj 620 -66 t b b;
#X obj 619 -22 until;
#X obj 619 -1 f;
#X obj 646 0 + 1;
#X msg 619 -43 512;
#X obj 619 225 tabwrite \$0-hoa_hann1;
#X text 232 -106 This hoa.processing diffuses a sound field with delay
lines.;
#X obj -42 -51 hoa.mode.sel;
#X obj -109 -25 hoa.args.map;
#X obj -40 -1 + 1;
#X obj -40 34 / 1;
#X text -37 84 factor;
#X text -41 74 instance;
#X obj -40 54 nbx 5 14 -1e+37 1e+37 0 0 empty empty empty 0 -8 0 10
-262144 -1 -1 0.0666667 256;
#X obj -109 54 nbx 5 14 -1e+37 1e+37 0 0 empty empty empty 0 -8 0 10
-262144 -1 -1 15 256;
#X text -110 74 number of;
#X text -113 84 instances;
#X obj 372 17 delwrite~ \$0-hoa.delay 5000;
#X obj 259 191 list split;
#X obj 208 233 * 1;
#X obj 208 190 t b f;
#X text 413 318 list : The item is selected depending on the instance
and directly set the delay time of the instance (mostly used in the
plane waves domain).;
#X text 413 378 float : The delay time are mapped depending on the
intance and increase while the index and the band of the harmonics
increase.;
#N canvas 671 289 471 383 delay_noflange 0;
#X obj 307 81 f;
#X obj 125 146 *~ 513;
#X obj 125 174 tabread4~ \$0-hoa_hann1;
#X obj 110 225 *~;
#X obj 306 225 *~;
#X obj 110 81 f;
#X obj 321 174 tabread4~ \$0-hoa_hann1;
#X obj 321 125 wrap~;
#X obj 321 104 +~ 0.5;
#X obj 321 146 *~ 513;
#X obj 307 205 delread~ \$0-hoa.delay 1;
#X obj 110 205 delread~ \$0-hoa.delay 1;
#X obj 152 59 phasor~ 0.5;
#N canvas 970 176 450 300 sel~ 0;
#X obj 73 20 c.loadmess 1;
#X obj 92 141 samphold~;
#X obj 92 165 snapshot~;
#X obj 92 187 change;
#X obj 92 209 < 126;
#X obj 92 233 sel 0 1;
#X obj 38 59 inlet~;
#X obj 108 49 inlet~;
#X obj 92 261 outlet;
#X obj 153 261 outlet;
#X obj 155 232 nbx 5 14 -1e+37 1e+37 0 0 empty empty empty 0 -8 0 10
-262144 -1 -1 0.000254173 256;
#X obj 73 109 metro 5;
#X connect 0 0 11 0;
#X connect 1 0 2 0;
#X connect 2 0 3 0;
#X connect 3 0 4 0;
#X connect 3 0 10 0;
#X connect 4 0 5 0;
#X connect 5 0 9 0;
#X connect 5 1 8 0;
#X connect 6 0 1 0;
#X connect 6 0 1 1;
#X connect 7 0 1 1;
#X connect 11 0 2 0;
#X restore 253 228 pd sel~;
#X obj 192 293 outlet~;
#X obj 125 19 inlet;
#X obj 85 19 inlet;
#X connect 0 0 10 0;
#X connect 1 0 2 0;
#X connect 1 0 13 0;
#X connect 2 0 3 1;
#X connect 3 0 14 0;
#X connect 4 0 14 0;
#X connect 5 0 11 0;
#X connect 6 0 4 1;
#X connect 7 0 9 0;
#X connect 8 0 7 0;
#X connect 9 0 6 0;
#X connect 9 0 13 1;
#X connect 10 0 4 0;
#X connect 11 0 3 0;
#X connect 12 0 1 0;
#X connect 12 0 8 0;
#X connect 13 0 5 0;
#X connect 13 1 0 0;
#X connect 15 0 5 1;
#X connect 15 0 0 1;
#X connect 16 0 5 0;
#X connect 16 0 0 0;
#X restore 56 379 pd delay_noflange;
#X obj 208 65 route float list diffusion;
#X obj -109 -74 hoa.thisprocess~ @delay 1000 @diffusion 0;
#X obj 56 36 route delay diffusion;
#X obj 208 331 spigot 1;
#X obj 155 333 sel 0;
#X obj 155 354 f 0;
#X obj 117 153 f 1;
#X obj 117 125 t b f;
#X obj 117 180 -, f 5;
#X obj 117 104 clip 0 1;
#X obj 117 259 <, f 5;
#X obj 144 233 f 1;
#X obj 117 206 t f b;
#X obj 208 305 f;
#X obj 117 282 t f b f;
#X connect 0 0 33 0;
#X connect 2 0 41 0;
#X connect 3 0 40 0;
#X connect 5 0 53 0;
#X connect 6 0 15 0;
#X connect 7 0 9 0;
#X connect 8 0 10 0;
#X connect 9 0 8 0;
#X connect 10 0 13 0;
#X connect 11 0 16 0;
#X connect 12 0 6 0;
#X connect 12 1 13 1;
#X connect 13 0 21 0;
#X connect 14 0 7 1;
#X connect 15 0 7 0;
#X connect 16 0 20 0;
#X connect 16 1 14 0;
#X connect 17 0 18 0;
#X connect 18 0 19 0;
#X connect 18 0 12 0;
#X connect 19 0 18 1;
#X connect 20 0 17 0;
#X connect 23 0 24 1;
#X connect 24 0 30 0;
#X connect 24 0 26 1;
#X connect 24 1 25 0;
#X connect 24 1 34 1;
#X connect 25 0 26 0;
#X connect 26 0 29 0;
#X connect 29 0 36 0;
#X connect 29 0 51 1;
#X connect 34 1 5 0;
#X connect 35 0 53 0;
#X connect 36 0 35 0;
#X connect 36 1 35 1;
#X connect 39 0 1 0;
#X connect 40 0 35 0;
#X connect 40 1 34 0;
#X connect 40 2 49 0;
#X connect 41 0 24 0;
#X connect 41 1 23 0;
#X connect 41 3 42 0;
#X connect 42 0 39 0;
#X connect 42 1 49 0;
#X connect 43 0 39 1;
#X connect 44 0 45 0;
#X connect 45 0 39 1;
#X connect 46 0 48 0;
#X connect 47 0 46 0;
#X connect 47 1 48 1;
#X connect 48 0 52 0;
#X connect 49 0 47 0;
#X connect 50 0 54 0;
#X connect 51 0 50 1;
#X connect 52 0 50 0;
#X connect 52 1 51 0;
#X connect 53 0 43 0;
#X connect 54 0 44 0;
#X connect 54 1 53 0;
#X connect 54 2 43 1;
