#N canvas 191 135 803 416 10;
#X obj 22 4 c.canvasinfos;
#X obj 21 0 c.loadmess;
#X obj 4 -1 hoa.tuto.header;
#X obj 417 -1 hoa.help.pub;
#X obj 428 61 c.blackboard @size 320 320 @fontname Helvetica @fontweight
normal @fontslant roman @fontsize 11 @receive (null) @send (null) @chalkmode
0 @bgcolor 0.75 0.75 0.75 1 @bdcolor 0.5 0.5 0.5 1;
#N canvas 0 22 450 300 subscript 0;
#X msg 143 85 clear \, fill 0 \, width 3 \, color rgb 0 0 0 \, oval
7 7 315 315 \, width 1 \, line 161 161 52 52 \, line 161 161 52 271
\, line 161 161 271 52 \, line 161 161 271 271 \, color rgb 0 0 1 \,
fill 1 \, oval 157 157 166 166 \, line 161 161 161 120 \, line 161
120 156 130 \, line 161 120 166 130 \, fill 0 \, arc 20 20 303 303
90 40 \, line 70 54 74 43 \, line 70 54 81 53 \, color rgb 0 0 0 \,
text 140 61 FRONT \, text 144 242 BACK \, text 61 159 LEFT \, text
232 159 RIGHT;
#X obj 142 243 outlet;
#X obj 154 46 c.loadmess;
#X connect 0 0 1 0;
#X connect 2 0 0 0;
#X restore 492 123 pd subscript;
#X text 3 128 The angles are usually defined in radians (between 0
and 2π rad) for a representation of space in the circular harmonics
domain and in degrees (between 0° and 360 °) for a representation
of the space outside the circular harmonics domain., f 65;
#X text 3 198 It is customary to define the "front" of the sound field
at 0° or 0 rad \, the "left" at 90 ° or π/2 rad \, the "back" at
180° or π rad and the"right" at 270° or 3/2π rad assuming that
the listener is directed to 0°., f 65;
#X text 3 48 The ambisonic model is based on a polar representation
of space in adequacy with a listener placed at the center of a sphere
of loudspeakers. We arbitrarily define the direction of rotation as
counterclockwise \, and the 0° is 90° phase shifted relative to a
mathematical representation of a circle., f 65;
#X connect 0 0 2 0;
#X connect 1 0 0 0;
#X connect 5 0 4 0;
