#N canvas 62 97 901 734 10;
#X obj 489 -21 sig~ 1;
#X msg 4 104 \; pd dsp 1;
#X msg 3 141 \; pd dsp 0;
#X text 251 315 2 - Decoding for a set of loudspeakers;
#X obj 14 -136 c.canvasinfos;
#X obj 13 -140 c.loadmess;
#X obj -4 -141 hoa.tuto.header;
#X obj 409 -141 hoa.help.pub;
#X text 237 154 Representation of the circular harmonics;
#X text 208 46 1 - Encoding in the spherical harmonics domain;
#X obj 489 73 hoa.3d.scope~ @size 231 231 @fontname Helvetica @fontweight
normal @fontslant roman @fontsize 11 @receive (null) @send (null) @order
3 @gain 1 @interval 100 @bgcolor 0.76 0.76 0.76 1 @bdcolor 0.7 0.7
0.7 1 @phcolor 1 0 0 1 @nhcolor 0 0 1 1;
#X text 161 450 Representation of the contribution of 20 loudspeakers
;
#X obj 490 342 hoa.3d.meter~ @size 231 231 @fontname Helvetica @fontweight
normal @fontslant roman @fontsize 11 @receive (null) @send (null) @channels
20 @angles 180 69.0948 159.095 -0 90 20.9052 135 35.2644 135 -35.2644
180 -69.0948 20.9052 -0 90 -20.9052 45 35.2644 45 -35.2644 0 69.0948
200.905 -0 270 20.9052 225 35.2644 225 -35.2644 0 -69.0948 339.095
-0 270 -20.9052 315 35.2644 315 -35.2644 @offset 0 0 0 @rotation anti-clockwise
@view top @vectors none @interval 50 @bgcolor 0.76 0.76 0.76 1 @bdcolor
0.7 0.7 0.7 1 @coldcolor 0 0.6 0 0.8 @tepidcolor 0.6 0.73 0 0.8 @warmcolor
0.85 0.85 0 0.8 @hotcolor 1 0.6 0 0.8 @overcolor 1 0 0 0.8 @energycolor
0 0 1 0.8 @velocitycolor 1 0 0 0.8;
#X obj 489 45 hoa.3d.encoder~ 3 --------------------;
#X obj 490 315 hoa.3d.decoder~ 3 ambisonics 20 ------;
#X text -3 -19 In this example \, a source is encoded in a three dimensional
space. The synthesized sound field owns the sound and its spatial information
in the form of spherical harmonics. Thereafter \, the sound field is
decoded for a set of loudspeakers., f 66;
#X obj 617 17 c.number~ @size 53 17 @fontname Helvetica @fontweight
normal @fontslant roman @fontsize 11 @receive (null) @send (null) @interval
50 @decimal 6 @bgcolor 0.75 0.75 0.75 1 @bdcolor 0.5 0.5 0.5 1 @textcolor
0 0 0 1;
#X obj 601 -31 hoa.pi~ 2;
#X text 627 -11 azimuth;
#X text 734 -13 elevation;
#X obj 714 -82 c.number @size 53 17 @fontname Helvetica @fontweight
normal @fontslant roman @fontsize 11 @receive (null) @send (null) @presetname
(null) @min (null) @max (null) @minmax (null) (null) @decimal 6 @bgcolor
0.75 0.75 0.75 1 @bdcolor 0.5 0.5 0.5 1 @textcolor 0 0 0 1;
#X obj 601 -82 c.number @size 53 17 @fontname Helvetica @fontweight
normal @fontslant roman @fontsize 11 @receive (null) @send (null) @presetname
(null) @min (null) @max (null) @minmax (null) (null) @decimal 6 @bgcolor
0.75 0.75 0.75 1 @bdcolor 0.5 0.5 0.5 1 @textcolor 0 0 0 1;
#X obj 728 17 c.number~ @size 53 17 @fontname Helvetica @fontweight
normal @fontslant roman @fontsize 11 @receive (null) @send (null) @interval
50 @decimal 6 @bgcolor 0.75 0.75 0.75 1 @bdcolor 0.5 0.5 0.5 1 @textcolor
0 0 0 1;
#X obj 601 -56 phasor~ -0.5;
#X text 625 0 (-π & π);
#X text 726 -1 (-π/2 & π/2);
#X obj 714 -31 hoa.pi~ 0.5;
#X obj 714 -56 hoa.tri~ 0.05;
#X text 480 -47 Source;
#X text -5 -92 Ambisonics can be extented to the third dimension using
spherical harmonics instead of circular harmonics., f 66;
#X connect 0 0 13 0;
#X connect 4 0 6 0;
#X connect 5 0 4 0;
#X connect 13 0 10 0;
#X connect 13 0 14 0;
#X connect 13 1 10 1;
#X connect 13 1 14 1;
#X connect 13 2 10 2;
#X connect 13 2 14 2;
#X connect 13 3 10 3;
#X connect 13 3 14 3;
#X connect 13 4 10 4;
#X connect 13 4 14 4;
#X connect 13 5 10 5;
#X connect 13 5 14 5;
#X connect 13 6 10 6;
#X connect 13 6 14 6;
#X connect 13 7 10 7;
#X connect 13 7 14 7;
#X connect 13 8 10 8;
#X connect 13 8 14 8;
#X connect 13 9 10 9;
#X connect 13 9 14 9;
#X connect 13 10 10 10;
#X connect 13 10 14 10;
#X connect 13 11 10 11;
#X connect 13 11 14 11;
#X connect 13 12 10 12;
#X connect 13 12 14 12;
#X connect 13 13 10 13;
#X connect 13 13 14 13;
#X connect 13 14 10 14;
#X connect 13 14 14 14;
#X connect 13 15 10 15;
#X connect 13 15 14 15;
#X connect 14 0 12 0;
#X connect 14 1 12 1;
#X connect 14 2 12 2;
#X connect 14 3 12 3;
#X connect 14 4 12 4;
#X connect 14 5 12 5;
#X connect 14 6 12 6;
#X connect 14 7 12 7;
#X connect 14 8 12 8;
#X connect 14 9 12 9;
#X connect 14 10 12 10;
#X connect 14 11 12 11;
#X connect 14 12 12 12;
#X connect 14 13 12 13;
#X connect 14 14 12 14;
#X connect 14 15 12 15;
#X connect 14 16 12 16;
#X connect 14 17 12 17;
#X connect 14 18 12 18;
#X connect 14 19 12 19;
#X connect 17 0 16 0;
#X connect 17 0 13 1;
#X connect 20 0 27 0;
#X connect 21 0 23 0;
#X connect 23 0 17 1;
#X connect 26 0 22 0;
#X connect 26 0 13 2;
#X connect 27 0 26 1;
