#N canvas 225 138 886 341 10;
#X obj -245 -424 cnv 15 552 40 empty \$0-pddp.cnv.header HoaTutorial-1
3 12 0 18 -204280 -1 0;
#X text 311 -423 hoalibrary | Julien Colafrancesco \, Pierre Guillot
;
#X text -242 -402 Basics;
#N canvas 429 76 914 750 Introduction 1;
#X obj -235 -414 cnv 15 552 40 empty \$0-pddp.cnv.header HoaTutorial-1
3 12 0 18 -204280 -1 0;
#X text 321 -397 Eliott Paris © 2012-2013 CICM / Universite Paris
8;
#X text 321 -413 hoalibrary | Julien Colafrancesco \, Pierre Guillot
;
#X text -232 -392 Introduction;
#X obj 263 -140 hoa.encoder~ 7 ---------------;
#X obj 263 -109 hoa.2d.scope~ @size 183 183 @fontname Helvetica @fontweight
normal @fontslant roman @fontsize 11 @receive (null) @send (null) @order
7 @gain 1 @interval 100 @bgcolor 0.7 0.7 0.7 1 @bdcolor 0.5 0.5 0.5
1 @phcolor 1 0 0 1 @nhcolor 0 0 1 1;
#X obj 455 -182 hoa.pi 2;
#X obj 440 -162 *~;
#X obj 440 -223 phasor~ 0.1;
#X obj 263 -206 sig~ 1;
#X msg -222 -141 \; pd dsp 1;
#X msg -223 -104 \; pd dsp 0;
#X obj 455 -203 loadbang;
#X obj 264 145 hoa.2d.meter~ @size 183 183 @fontname Helvetica @fontweight
normal @fontslant roman @fontsize 11 @receive (null) @send (null) @channels
16 @angles 0 22.5 45 67.5 90 112.5 135 157.5 180 202.5 225 247.5 270
292.5 315 337.5 @offset 0 @rotation anti-clockwise @vectors energy
@interval 50 @bgcolor 0.7 0.7 0.7 1 @bdcolor 0.5 0.5 0.5 1 @coldcolor
0 0.6 0 0.8 @tepidcolor 0.6 0.73 0 0.8 @warmcolor 0.85 0.85 0 0.8 @hotcolor
1 0.6 0 0.8 @overcolor 1 0 0 0.8 @energycolor 0 0 1 0.8 @velocitycolor
1 0 0 0.8;
#X text 234 -222 Source synthesis;
#X text -16 -139 1 - Encoding in the circular harmonics domain;
#X text -29 -31 Circular harmonics representation over a plane.;
#X text 25 90 2 - Decoding for a set of loudspeakers;
#X text -65 215 representation of the contribution of 16 loudspeakers
regularly placed over a circle.;
#X obj 387 -291 hoa.connect;
#X obj 387 -318 bng 15 250 50 0 empty empty empty 17 7 0 10 -262144
-1 -1;
#X text -231 -367 Ambisonics is a set of techniques for recording \,
synthesis \, transformation and restitution of sound field based on
a physical representation of the sound space in the spherical or circular
harmonics domain. This representation is based on a decomposition of
the sound space in a weighted sum of spatial functions that allows
a wide range of sound and space processing., f 91;
#X text -230 -254 In this example \, a sound source is encoded in a
two-dimensional space. The synthesized sound field comprises the sound
source and its spatial information as signals dependent circular harmonics.
Then \, the sound field is decoded to a set of loudspeakers.;
#X obj 476 -119 c.number~ @size 53 17 @fontname Helvetica @fontweight
normal @fontslant roman @fontsize 11 @receive (null) @send (null) @interval
50 @decimal 6 @bgcolor 0.75 0.75 0.75 1 @bdcolor 0.5 0.5 0.5 1 @textcolor
0 0 0 1;
#X text 472 -96 Encoding angle in radian;
#X obj 264 90 hoa.decoder~ 7 ambisonics 16 -;
#X connect 4 0 5 0;
#X connect 4 0 25 0;
#X connect 4 1 5 1;
#X connect 4 1 25 1;
#X connect 4 2 5 2;
#X connect 4 2 25 2;
#X connect 4 3 5 3;
#X connect 4 3 25 3;
#X connect 4 4 5 4;
#X connect 4 4 25 4;
#X connect 4 5 5 5;
#X connect 4 5 25 5;
#X connect 4 6 5 6;
#X connect 4 6 25 6;
#X connect 4 7 5 7;
#X connect 4 7 25 7;
#X connect 4 8 5 8;
#X connect 4 8 25 8;
#X connect 4 9 5 9;
#X connect 4 9 25 9;
#X connect 4 10 5 10;
#X connect 4 10 25 10;
#X connect 4 11 5 11;
#X connect 4 11 25 11;
#X connect 4 12 5 12;
#X connect 4 12 25 12;
#X connect 4 13 5 13;
#X connect 4 13 25 13;
#X connect 4 14 5 14;
#X connect 4 14 25 14;
#X connect 6 0 7 1;
#X connect 7 0 4 1;
#X connect 7 0 23 0;
#X connect 8 0 7 0;
#X connect 9 0 4 0;
#X connect 12 0 6 0;
#X connect 20 0 19 0;
#X connect 25 0 13 0;
#X connect 25 1 13 1;
#X connect 25 2 13 2;
#X connect 25 3 13 3;
#X connect 25 4 13 4;
#X connect 25 5 13 5;
#X connect 25 6 13 6;
#X connect 25 7 13 7;
#X connect 25 8 13 8;
#X connect 25 9 13 9;
#X connect 25 10 13 10;
#X connect 25 11 13 11;
#X connect 25 12 13 12;
#X connect 25 13 13 13;
#X connect 25 14 13 14;
#X connect 25 15 13 15;
#X restore -233 -367 pd Introduction;
#X text 311 -407 Eliott Paris © 2012-2014 CICM / Universite Paris
8;
