#N canvas 209 111 971 619 10;
#X obj 22 4 c.canvasinfos;
#X obj 21 0 c.loadmess;
#X obj 4 -1 hoa.tuto.header;
#X obj 417 -1 hoa.help.pub;
#X obj 142 381 hoa.2d.scope~ @size 225 225 @fontname Helvetica @fontweight
normal @fontslant roman @fontsize 11 @receive (null) @send (null) @order
1 @gain 100 @interval 100 @bgcolor 0.76 0.76 0.76 1 @bdcolor 0.7 0.7
0.7 1 @phcolor 1 0 0 1 @nhcolor 0 0 1 1;
#X obj 251 269 sig~ 1;
#X msg 57 387 \; pd dsp 1;
#X msg 57 427 \; pd dsp 0;
#X obj 554 381 hoa.2d.scope~ @size 225 225 @fontname Helvetica @fontweight
normal @fontslant roman @fontsize 11 @receive (null) @send (null) @order
7 @gain 100 @interval 100 @bgcolor 0.76 0.76 0.76 1 @bdcolor 0.7 0.7
0.7 1 @phcolor 1 0 0 1 @nhcolor 0 0 1 1;
#X obj 554 269 sig~ 1;
#X obj 773 293 c.number @size 53 17 @fontname Helvetica @fontweight
normal @fontslant roman @fontsize 11 @receive (null) @send (null) @presetname
(null) @min (null) @max (null) @minmax (null) (null) @decimal 6 @bgcolor
0.75 0.75 0.75 1 @bdcolor 0.5 0.5 0.5 1 @textcolor 0 0 0 1;
#X text 4 144 For an order of decomposition 1 \, the sound field is
represented by 3 circular harmonics. The gains of harmonics depends
on the encoding angle :;
#X text 4 194 The gain of the harmonic 0 is always 1;
#X text 4 209 The gain of the harmonic -1 is equal to the sinus of
the angle.;
#X text 4 237 The gain of the harmonic 1 is equal to the cosinus of
the angle.;
#X obj 382 278 c.number @size 53 17 @fontname Helvetica @fontweight
normal @fontslant roman @fontsize 11 @receive (null) @send (null) @presetname
(null) @min (null) @max (null) @minmax (null) (null) @decimal 6 @bgcolor
0.75 0.75 0.75 1 @bdcolor 0.5 0.5 0.5 1 @textcolor 0 0 0 1;
#X text 201 270 Source;
#X obj 142 342 *~ 1;
#X obj 361 344 *~ 1;
#X obj 251 344 *~ 0;
#X obj 272 319 sin;
#X obj 382 319 cos;
#X text 380 256 Azimuth in radian;
#X text 148 363 Harmonic 0;
#X text 258 363 Harmonic -1;
#X text 368 363 Harmonic 1;
#X text 3 48 With Ambisonics \, the encoding operation gives the spatials
informations to a sound. Thus \, the sound can be listened as coming
from a point of the space. Encoding a source in the circular harmonics
domain returns to synthesize the circular harmonics depending on an
azimuth. This operation consits to apply a gain to the sound depending
on the order of the harmonic and this azimuth., f 65;
#X text 516 124 For high order of decomposition \, the gain G of the
harmonics is defined by :;
#X text 516 164 if m < 0;
#X text 516 179 G(m \, a) = sin(l*a);
#X text 516 209 G(m \, a) = cos(l*a);
#X text 516 194 else;
#X text 516 229 With m the order \, l the degree and a the azimuth.
;
#X obj 554 347 hoa.2d.process~ 7 hoa.syn.encoder~ --;
#X text 661 294 Azimuth in radian;
#X text 786 348 Look inside;
#X connect 0 0 2 0;
#X connect 1 0 0 0;
#X connect 5 0 17 0;
#X connect 5 0 19 0;
#X connect 5 0 18 0;
#X connect 9 0 33 0;
#X connect 10 0 33 1;
#X connect 15 0 20 0;
#X connect 15 0 21 0;
#X connect 17 0 4 0;
#X connect 18 0 4 2;
#X connect 19 0 4 1;
#X connect 20 0 19 1;
#X connect 21 0 18 1;
#X connect 33 0 8 0;
#X connect 33 1 8 1;
#X connect 33 2 8 2;
#X connect 33 3 8 3;
#X connect 33 4 8 4;
#X connect 33 5 8 5;
#X connect 33 6 8 6;
#X connect 33 7 8 7;
#X connect 33 8 8 8;
#X connect 33 9 8 9;
#X connect 33 10 8 10;
#X connect 33 11 8 11;
#X connect 33 12 8 12;
#X connect 33 13 8 13;
#X connect 33 14 8 14;
