#N canvas 0 22 1440 852 10;
#X obj 742 189 hoa.pi 2;
#X obj 499 231 hoa.encoder~ 7 --------------------------;
#X obj 499 278 hoa.scope~ @patching_rect [ 499 278 249 249 ] @size
[ 249 249 ] @fontname [ helvetica ] @fontweight [ normal ] @fontslant
[ regular ] @fontsize [ 11 ] @order [ 7 ] @gain [ 1 ] @interval [ 100
] @drawcircle [ 1 ] @drawangles [ 1 ] @drawcontrib [ 1 ] @bgcolor [
0.76 0.76 0.76 1 ] @bdcolor [ 0.7 0.7 0.7 1 ] @txcolor [ 0 0 0 7 ]
@phcolor [ 1 0 0 1 ] @nhcolor [ 0 0 1 1 ];
#X obj 742 158 nbx 5 14 -1e+37 1e+37 0 0 empty empty empty 0 -8 0 10
-262144 -1 -1 2.1 256;
#X obj 499 189 sig~ 1;
#X connect 0 0 1 1;
#X connect 1 0 2 0;
#X connect 1 1 2 1;
#X connect 1 2 2 2;
#X connect 1 3 2 3;
#X connect 1 4 2 4;
#X connect 1 5 2 5;
#X connect 1 6 2 6;
#X connect 1 7 2 7;
#X connect 1 8 2 8;
#X connect 1 9 2 9;
#X connect 1 10 2 10;
#X connect 1 11 2 11;
#X connect 1 12 2 12;
#X connect 1 13 2 13;
#X connect 1 14 2 14;
#X connect 3 0 0 0;
#X connect 4 0 1 0;
