#N canvas 118 40 971 642 10;
#X obj 22 4 c.canvasinfos;
#X obj 21 0 c.loadmess;
#X obj 4 -1 hoa.tuto.header;
#X obj 417 -1 hoa.help.pub;
#X msg 437 426 \; pd dsp 1;
#X msg 437 466 \; pd dsp 0;
#X obj 434 229 sig~ 1;
#X text 3 48 With Ambisonics \, decoding is the operation that synthesizes
the signals of the loudspeakers. As in any spatialisation technique
\, this operation has advantages and limitations., f 65;
#X text 3 98 Ambisonics allows to synthesize several sound fields and
to decodes them with only a one operation offering. This advantage
allows to reduce the CPU usage., f 65;
#X text 3 148 The separation of these two operations allows to perform
many operations between them \, in the circular harmonics domain \,
and also to record the sound field in this domain. Thus \, it is possible
to adapt the sound field \, after the synthesis \, to the speakers
arrengement., f 65;
#X text 3 228 Ambisonics offers a homogeneous rendering of the sound
field. Unlike other techniques where the angular resolution varies
depending on the sources directions \, Ambisonics provides a constant
angular resolution across the circle., f 65;
#X text 3 468 With Ambisonics \, the auditor should be ideally placed
at the center of the loudspeakers array otherwise the sound field resitution
will be distorted. However \, the use of the maxRe or inPhase optimizations
(see hoa.optim~ object) can make up this artefact (to the detriment
of the spatial resolution) and offers the possibility of an audience
spread all over the circle., f 65;
#X obj 434 307 hoa.2d.encoder~ 7 -------------------;
#X obj 602 251 phasor~ 0.1;
#X obj 714 229 sig~ 1;
#X obj 714 307 hoa.2d.encoder~ 7 -------------------;
#X obj 882 277 hoa.pi~ 2;
#X obj 602 277 hoa.pi~ 2;
#X obj 882 251 phasor~ -0.1;
#X obj 475 110 c.number @size 53 17 @fontname Helvetica @fontweight
normal @fontslant roman @fontsize 11 @receive (null) @send (null) @presetname
(null) @min (null) @max (null) @minmax (null) (null) @decimal 0 @bgcolor
0.75 0.75 0.75 1 @bdcolor 0.5 0.5 0.5 1 @textcolor 0 0 0 1;
#N canvas 0 22 450 300 DecToLs 0;
#X obj 192 97 * 2;
#X obj 192 133 + 1;
#X obj 194 177 outlet;
#X obj 191 62 inlet;
#X connect 0 0 1 0;
#X connect 1 0 2 0;
#X connect 3 0 0 0;
#X restore 475 131 pd DecToLs;
#X obj 475 160 c.number @size 53 17 @fontname Helvetica @fontweight
normal @fontslant roman @fontsize 11 @receive (null) @send (null) @presetname
(null) @min (null) @max (null) @minmax (null) (null) @decimal 0 @bgcolor
0.75 0.75 0.75 1 @bdcolor 0.5 0.5 0.5 1 @textcolor 0 0 0 1;
#X text 438 66 Order of decomposition;
#X text 428 186 Minimum number of loudspeakers;
#X obj 715 110 c.number @size 53 17 @fontname Helvetica @fontweight
normal @fontslant roman @fontsize 11 @receive (null) @send (null) @presetname
(null) @min (null) @max (null) @minmax (null) (null) @decimal 0 @bgcolor
0.75 0.75 0.75 1 @bdcolor 0.5 0.5 0.5 1 @textcolor 0 0 0 1;
#X obj 715 160 c.number @size 53 17 @fontname Helvetica @fontweight
normal @fontslant roman @fontsize 11 @receive (null) @send (null) @presetname
(null) @min (null) @max (null) @minmax (null) (null) @decimal 0 @bgcolor
0.75 0.75 0.75 1 @bdcolor 0.5 0.5 0.5 1 @textcolor 0 0 0 1;
#X text 671 67 Number of loudspeakers;
#X text 628 186 Maximum (optimal) order of decomposition;
#N canvas 0 22 450 300 LsToDec 0;
#X obj 194 177 outlet;
#X obj 191 62 inlet;
#X obj 192 97 - 1;
#X obj 192 133 / 2;
#X connect 1 0 2 0;
#X connect 2 0 3 0;
#X connect 3 0 0 0;
#X restore 715 131 pd LsToDec;
#X obj 475 85 c.loadmess 7;
#X obj 715 85 c.loadmess 16;
#X obj 574 359 hoa.2d.decoder~ 7 ambisonics 16 -----;
#X obj 574 381 hoa.2d.meter~ @size 225 225 @fontname Helvetica @fontweight
normal @fontslant roman @fontsize 11 @receive (null) @send (null) @channels
16 @angles 0 22.5 45 67.5 90 112.5 135 157.5 180 202.5 225 247.5 270
292.5 315 337.5 @offset 0 @rotation anti-clockwise @vectors both @interval
50 @bgcolor 0.76 0.76 0.76 1 @bdcolor 0.7 0.7 0.7 1 @coldcolor 0 0.6
0 0.8 @tepidcolor 0.6 0.73 0 0.8 @warmcolor 0.85 0.85 0 0.8 @hotcolor
1 0.6 0 0.8 @overcolor 1 0 0 0.8 @energycolor 0 0 1 0.8 @velocitycolor
1 0 0 0.8;
#X text 3 298 Nevertheless \, the restitution system is restricted
by the order of decomposition. The number of loudspeakers must be higher
than or equal to the number of harmonics. Thus \, the minimum number
of loudspeakers is 3 for an order of decomposition of 1 Futhermore
\, the loudspeakers must be placed on a circle at equal distance from
each other. However \, these restrictions can be bypassed to the detriment
of the quality of the sound field restitution. Thus \, in practise
\, it is \, in fact \, possible to project the sound field on many
loudspeakers systems from stereo to an infinity of loudspeakers through
all irregular configurations such as 5.1 \, 7.1 and headphones (see
hoa.decoder~ object)., f 65;
#X connect 0 0 2 0;
#X connect 1 0 0 0;
#X connect 6 0 12 0;
#X connect 12 0 31 0;
#X connect 12 1 31 1;
#X connect 12 2 31 2;
#X connect 12 3 31 3;
#X connect 12 4 31 4;
#X connect 12 5 31 5;
#X connect 12 6 31 6;
#X connect 12 7 31 7;
#X connect 12 8 31 8;
#X connect 12 9 31 9;
#X connect 12 10 31 10;
#X connect 12 11 31 11;
#X connect 12 12 31 12;
#X connect 12 13 31 13;
#X connect 12 14 31 14;
#X connect 13 0 17 1;
#X connect 14 0 15 0;
#X connect 15 0 31 0;
#X connect 15 1 31 1;
#X connect 15 2 31 2;
#X connect 15 3 31 3;
#X connect 15 4 31 4;
#X connect 15 5 31 5;
#X connect 15 6 31 6;
#X connect 15 7 31 7;
#X connect 15 8 31 8;
#X connect 15 9 31 9;
#X connect 15 10 31 10;
#X connect 15 11 31 11;
#X connect 15 12 31 12;
#X connect 15 13 31 13;
#X connect 15 14 31 14;
#X connect 16 0 15 1;
#X connect 17 0 12 1;
#X connect 18 0 16 1;
#X connect 19 0 20 0;
#X connect 20 0 21 0;
#X connect 24 0 28 0;
#X connect 28 0 25 0;
#X connect 29 0 19 0;
#X connect 30 0 24 0;
#X connect 31 0 32 0;
#X connect 31 1 32 1;
#X connect 31 2 32 2;
#X connect 31 3 32 3;
#X connect 31 4 32 4;
#X connect 31 5 32 5;
#X connect 31 6 32 6;
#X connect 31 7 32 7;
#X connect 31 8 32 8;
#X connect 31 9 32 9;
#X connect 31 10 32 10;
#X connect 31 11 32 11;
#X connect 31 12 32 12;
#X connect 31 13 32 13;
#X connect 31 14 32 14;
#X connect 31 15 32 15;
