#N canvas 121 111 973 640 10;
#X obj 22 4 c.canvasinfos;
#X obj 21 0 c.loadmess;
#X obj 4 -1 hoa.tuto.header;
#X obj 417 -1 hoa.help.pub;
#X obj 144 391 hoa.2d.scope~ @size 225 225 @fontname Helvetica @fontweight
normal @fontslant roman @fontsize 11 @receive (null) @send (null) @order
7 @gain 100 @interval 100 @bgcolor 0.76 0.76 0.76 1 @bdcolor 0.7 0.7
0.7 1 @phcolor 1 0 0 1 @nhcolor 0 0 1 1;
#X obj 144 279 sig~ 1;
#X obj 363 302 c.number @size 53 17 @fontname Helvetica @fontweight
normal @fontslant roman @fontsize 11 @receive (null) @send (null) @presetname
(null) @min 0 @max 7 @minmax 0 7 @decimal 0 @bgcolor 0.75 0.75 0.75
1 @bdcolor 0.5 0.5 0.5 1 @textcolor 0 0 0 1;
#X obj 346 302 c.incdec @size 15 17 @fontname Helvetica @fontweight
normal @fontslant roman @fontsize 11 @receive (null) @send (null) @step
1 @bgcolor 0.75 0.75 0.75 1 @bdcolor 0.5 0.5 0.5 1 @arcolor 0 0 0 1
;
#N canvas 0 22 496 402 map.deg 0;
#X obj 249 320 outlet;
#X obj 248 202 / 2;
#X obj 251 228 nbx 5 14 -1e+37 1e+37 0 0 empty empty empty 0 -8 0 10
-262144 -1 -1 4 256;
#X obj 246 172 + 1;
#X obj 319 180 % 2;
#X obj 256 295 int;
#X obj 255 269 *;
#X obj 361 205 sel 1;
#X msg 390 248 -1;
#X msg 343 242 1;
#X obj 236 87 inlet;
#X obj 236 117 t f f;
#X connect 1 0 2 0;
#X connect 2 0 6 0;
#X connect 3 0 1 0;
#X connect 4 0 7 0;
#X connect 5 0 0 0;
#X connect 6 0 5 0;
#X connect 7 0 8 0;
#X connect 7 1 9 0;
#X connect 8 0 6 1;
#X connect 9 0 6 1;
#X connect 10 0 11 0;
#X connect 11 0 3 0;
#X connect 11 1 4 0;
#X restore 349 302 pd map.deg;
#N canvas 0 22 450 300 target.pro 0;
#X obj 259 47 inlet;
#X obj 260 277 outlet;
#X msg 320 110 target all \, 0;
#X msg 259 227 target \$1 \, 1;
#X obj 264 145 until;
#X obj 261 105 * 2;
#X obj 260 125 + 1;
#X obj 260 204 -;
#X obj 261 85 t f f b;
#X obj 262 176 f 0;
#X obj 335 181 + 1;
#X msg 345 137 0;
#X connect 0 0 8 0;
#X connect 2 0 1 0;
#X connect 3 0 1 0;
#X connect 4 0 9 0;
#X connect 5 0 6 0;
#X connect 6 0 4 0;
#X connect 7 0 3 0;
#X connect 8 0 5 0;
#X connect 8 1 7 1;
#X connect 8 2 2 0;
#X connect 8 2 11 0;
#X connect 9 0 10 0;
#X connect 9 0 7 0;
#X connect 10 0 9 1;
#X connect 11 0 9 1;
#X restore 363 332 pd target.pro;
#X msg 59 397 \; pd dsp 1;
#X msg 59 437 \; pd dsp 0;
#X obj 144 357 hoa.2d.process~ 7 hoa.fx.gain~ ------;
#X text 202 302 Order of decomposition;
#X obj 363 280 c.loadmess 7;
#X obj 554 391 hoa.2d.scope~ @size 225 225 @fontname Helvetica @fontweight
normal @fontslant roman @fontsize 11 @receive (null) @send (null) @order
7 @gain 100 @interval 100 @bgcolor 0.76 0.76 0.76 1 @bdcolor 0.7 0.7
0.7 1 @phcolor 1 0 0 1 @nhcolor 0 0 1 1;
#X obj 554 279 sig~ 1;
#X obj 144 331 hoa.2d.encoder~ 7 -----------------;
#X obj 554 331 hoa.2d.encoder~ 7 -----------------;
#X obj 554 357 hoa.2d.wider~ 7 ---------------------;
#X obj 773 303 c.number @size 53 17 @fontname Helvetica @fontweight
normal @fontslant roman @fontsize 11 @receive (null) @send (null) @presetname
(null) @min 0 @max 1 @minmax 0 1 @decimal 6 @bgcolor 0.75 0.75 0.75
1 @bdcolor 0.5 0.5 0.5 1 @textcolor 0 0 0 1;
#X text 583 304 Fractional decomposition order;
#X text 833 304 minmax: 0 - 1;
#X obj 773 276 c.loadmess 1;
#X text 3 48 The order of decomposition affects the quality of the
sound field restitution. While the order of decomposition increases
\, the number of circular harmonics increases and the "spatial resolution"
of the sound field increases. "Quality" or "relevance" of ambisonic
processings varies according to the spatial resolution. During the
encoding of a point source in the circular harmonics domain \, the
precision with which the listener perceives a point source depends
on the spatial resolution of the sound field. With a high order of
decomposition \, the listener can clearly define the direction of a
point source. It is usual to talk about "angular resolution" to describe
the precision with which the listener perceives a point source. The
"spatial resolution" is a broader concept to qualify more varied and
complex sound field where sound field is not necessarily composed of
point sources (eg. diffuse sound field)., f 66;
#X connect 0 0 2 0;
#X connect 1 0 0 0;
#X connect 5 0 17 0;
#X connect 6 0 7 0;
#X connect 6 0 8 0;
#X connect 6 0 9 0;
#X connect 7 0 6 0;
#X connect 9 0 12 15;
#X connect 12 0 4 0;
#X connect 12 1 4 1;
#X connect 12 2 4 2;
#X connect 12 3 4 3;
#X connect 12 4 4 4;
#X connect 12 5 4 5;
#X connect 12 6 4 6;
#X connect 12 7 4 7;
#X connect 12 8 4 8;
#X connect 12 9 4 9;
#X connect 12 10 4 10;
#X connect 12 11 4 11;
#X connect 12 12 4 12;
#X connect 12 13 4 13;
#X connect 12 14 4 14;
#X connect 14 0 6 0;
#X connect 16 0 18 0;
#X connect 17 0 12 0;
#X connect 17 1 12 1;
#X connect 17 2 12 2;
#X connect 17 3 12 3;
#X connect 17 4 12 4;
#X connect 17 5 12 5;
#X connect 17 6 12 6;
#X connect 17 7 12 7;
#X connect 17 8 12 8;
#X connect 17 9 12 9;
#X connect 17 10 12 10;
#X connect 17 11 12 11;
#X connect 17 12 12 12;
#X connect 17 13 12 13;
#X connect 17 14 12 14;
#X connect 18 0 19 0;
#X connect 18 1 19 1;
#X connect 18 2 19 2;
#X connect 18 3 19 3;
#X connect 18 4 19 4;
#X connect 18 5 19 5;
#X connect 18 6 19 6;
#X connect 18 7 19 7;
#X connect 18 8 19 8;
#X connect 18 9 19 9;
#X connect 18 10 19 10;
#X connect 18 11 19 11;
#X connect 18 12 19 12;
#X connect 18 13 19 13;
#X connect 18 14 19 14;
#X connect 19 0 15 0;
#X connect 19 1 15 1;
#X connect 19 2 15 2;
#X connect 19 3 15 3;
#X connect 19 4 15 4;
#X connect 19 5 15 5;
#X connect 19 6 15 6;
#X connect 19 7 15 7;
#X connect 19 8 15 8;
#X connect 19 9 15 9;
#X connect 19 10 15 10;
#X connect 19 11 15 11;
#X connect 19 12 15 12;
#X connect 19 13 15 13;
#X connect 19 14 15 14;
#X connect 20 0 19 15;
#X connect 23 0 20 0;
