#N canvas 9 35 423 217 10;
#X obj -242 -380 c.tab @size 398 44 @fontname Helvetica @fontweight
normal @fontslant roman @fontsize 11 @receive (null) @send (null) @presetname
(null) @orientation 0 @toggle 0 @items Introduction Space Harmonics
Resolution Encoding @bgcolor 0.75 0.75 0.75 1 @bdcolor 0.5 0.5 0.5
1 @textcolor 0 0 0 1 @hocolor 0.5 0.5 0.5 1 @secolor 0.35 0.35 0.35
1;
#N canvas 0 22 450 300 open.tuto 0;
#X obj 236 -165 c.patcherinfos;
#X msg 196 -64 \; pd open \$1 \$2;
#X obj 176 -137 pack s s;
#X obj 160 -250 t s b;
#X obj 246 -132 makefilename %s/;
#X obj 176 -192 makefilename Tutorial_1_%s.pd;
#X obj 163 -284 inlet;
#X connect 0 1 4 0;
#X connect 2 0 1 0;
#X connect 3 0 5 0;
#X connect 3 1 0 0;
#X connect 4 0 2 1;
#X connect 5 0 2 0;
#X connect 6 0 3 0;
#X restore -126 -355 pd open.tuto;
#X obj -225 -423 c.canvasinfos;
#X obj -226 -427 c.loadmess;
#X obj -243 -428 hoa.tuto.header;
#X obj -231 -303 hoa.help.pub;
#X connect 0 1 1 0;
#X connect 2 0 4 0;
#X connect 3 0 2 0;
