#N canvas 443 29 901 707 10;
#X obj 499 215 hoa.encoder~ 7 ---------------;
#X obj 499 246 hoa.2d.scope~ @size 183 183 @fontname Helvetica @fontweight
normal @fontslant roman @fontsize 11 @receive (null) @send (null) @order
7 @gain 1 @interval 100 @bgcolor 0.7 0.7 0.7 1 @bdcolor 0.5 0.5 0.5
1 @phcolor 1 0 0 1 @nhcolor 0 0 1 1;
#X obj 691 173 hoa.pi 2;
#X obj 676 193 *~;
#X obj 676 132 phasor~ 0.1;
#X obj 499 149 sig~ 1;
#X msg 14 244 \; pd dsp 1;
#X msg 13 281 \; pd dsp 0;
#X obj 691 152 loadbang;
#X obj 500 500 hoa.2d.meter~ @size 183 183 @fontname Helvetica @fontweight
normal @fontslant roman @fontsize 11 @receive (null) @send (null) @channels
16 @angles 0 22.5 45 67.5 90 112.5 135 157.5 180 202.5 225 247.5 270
292.5 315 337.5 @offset 0 @rotation anti-clockwise @vectors energy
@interval 50 @bgcolor 0.7 0.7 0.7 1 @bdcolor 0.5 0.5 0.5 1 @coldcolor
0 0.6 0 0.8 @tepidcolor 0.6 0.73 0 0.8 @warmcolor 0.85 0.85 0 0.8 @hotcolor
1 0.6 0 0.8 @overcolor 1 0 0 0.8 @energycolor 0 0 1 0.8 @velocitycolor
1 0 0 0.8;
#X text 470 133 Source synthesis;
#X text 220 216 1 - Encoding in the circular harmonics domain;
#X text 261 445 2 - Decoding for a set of loudspeakers;
#X obj 712 236 c.number~ @size 53 17 @fontname Helvetica @fontweight
normal @fontslant roman @fontsize 11 @receive (null) @send (null) @interval
50 @decimal 6 @bgcolor 0.75 0.75 0.75 1 @bdcolor 0.5 0.5 0.5 1 @textcolor
0 0 0 1;
#X text 708 259 Encoding angle in radian;
#X obj 500 445 hoa.decoder~ 7 ambisonics 16 -;
#X obj 24 4 c.canvasinfos;
#X obj 23 0 c.loadmess;
#X obj 6 -1 hoa.tuto.header;
#X obj 419 -1 hoa.help.pub;
#X text 5 48 Ambisonics is a set of techniques for recording \, synthesis
\, transformation and restitution of sound field based on a physical
representation of the space in the spherical or circular harmonics
domain. This representation is based on a decomposition of the space
by a weighted sum of spatial functions that allows a wide range of
sound and space processing., f 91;
#X text 7 121 In this example \, a source is encoded in a two-dimensional
space. The synthesized sound field owns the sound and its spatial information
as circular harmonics. Then \, the sound field is decoded to a set
of loudspeakers.;
#X text 247 324 Representation of the circular harmonics;
#X text 171 570 Representation of the contribution of 16 loudspeakers
;
#X connect 0 0 1 0;
#X connect 0 0 15 0;
#X connect 0 1 1 1;
#X connect 0 1 15 1;
#X connect 0 2 1 2;
#X connect 0 2 15 2;
#X connect 0 3 1 3;
#X connect 0 3 15 3;
#X connect 0 4 1 4;
#X connect 0 4 15 4;
#X connect 0 5 1 5;
#X connect 0 5 15 5;
#X connect 0 6 1 6;
#X connect 0 6 15 6;
#X connect 0 7 1 7;
#X connect 0 7 15 7;
#X connect 0 8 1 8;
#X connect 0 8 15 8;
#X connect 0 9 1 9;
#X connect 0 9 15 9;
#X connect 0 10 1 10;
#X connect 0 10 15 10;
#X connect 0 11 1 11;
#X connect 0 11 15 11;
#X connect 0 12 1 12;
#X connect 0 12 15 12;
#X connect 0 13 1 13;
#X connect 0 13 15 13;
#X connect 0 14 1 14;
#X connect 0 14 15 14;
#X connect 2 0 3 1;
#X connect 3 0 0 1;
#X connect 3 0 13 0;
#X connect 4 0 3 0;
#X connect 5 0 0 0;
#X connect 8 0 2 0;
#X connect 15 0 9 0;
#X connect 15 1 9 1;
#X connect 15 2 9 2;
#X connect 15 3 9 3;
#X connect 15 4 9 4;
#X connect 15 5 9 5;
#X connect 15 6 9 6;
#X connect 15 7 9 7;
#X connect 15 8 9 8;
#X connect 15 9 9 9;
#X connect 15 10 9 10;
#X connect 15 11 9 11;
#X connect 15 12 9 12;
#X connect 15 13 9 13;
#X connect 15 14 9 14;
#X connect 15 15 9 15;
#X connect 16 0 18 0;
#X connect 17 0 16 0;
