#N canvas 0 39 889 698 10;
#X obj 22 4 c.canvasinfos;
#X obj 21 0 c.loadmess;
#X obj 4 -1 hoa.tuto.header;
#X obj 417 -1 hoa.help.pub;
#X obj 470 97 c.number @size 53 17 @fontname Helvetica @fontweight
normal @fontslant roman @fontsize 11 @receive (null) @send (null) @presetname
(null) @min 0 @max (null) @minmax 0 (null) @decimal 0 @bgcolor 0.75
0.75 0.75 1 @bdcolor 0.5 0.5 0.5 1 @textcolor 0 0 0 1;
#N canvas 0 22 450 300 DecToNharmos 0;
#X obj 235 101 inlet;
#X obj 244 194 outlet;
#X obj 235 129 * 2;
#X obj 241 171 + 1;
#X connect 0 0 2 0;
#X connect 2 0 3 0;
#X connect 3 0 1 0;
#X restore 470 122 pd DecToNharmos;
#X obj 470 147 c.number @size 53 17 @fontname Helvetica @fontweight
normal @fontslant roman @fontsize 11 @receive (null) @send (null) @presetname
(null) @min 0 @max (null) @minmax 0 (null) @decimal 0 @bgcolor 0.75
0.75 0.75 1 @bdcolor 0.5 0.5 0.5 1 @textcolor 0 0 0 1;
#X obj 470 75 c.loadmess 7;
#X obj 640 97 c.number @size 53 17 @fontname Helvetica @fontweight
normal @fontslant roman @fontsize 11 @receive (null) @send (null) @presetname
(null) @min 0 @max (null) @minmax 0 (null) @decimal 0 @bgcolor 0.75
0.75 0.75 1 @bdcolor 0.5 0.5 0.5 1 @textcolor 0 0 0 1;
#X obj 640 147 c.number @size 53 17 @fontname Helvetica @fontweight
normal @fontslant roman @fontsize 11 @receive (null) @send (null) @presetname
(null) @min 0 @max (null) @minmax 0 (null) @decimal 0 @bgcolor 0.75
0.75 0.75 1 @bdcolor 0.5 0.5 0.5 1 @textcolor 0 0 0 1;
#N canvas 0 22 450 300 NharmosToDec 0;
#X obj 235 101 inlet;
#X obj 244 194 outlet;
#X obj 235 129 - 1;
#X obj 241 171 / 2;
#X connect 0 0 2 0;
#X connect 2 0 3 0;
#X connect 3 0 1 0;
#X restore 640 122 pd NharmosToDec;
#X obj 640 75 c.loadmess 15;
#X obj 471 237 c.number @size 53 17 @fontname Helvetica @fontweight
normal @fontslant roman @fontsize 11 @receive (null) @send (null) @presetname
(null) @min 0 @max (null) @minmax 0 (null) @decimal 0 @bgcolor 0.75
0.75 0.75 1 @bdcolor 0.5 0.5 0.5 1 @textcolor 0 0 0 1;
#N canvas 0 22 485 337 DecToDeg 0;
#X obj 235 101 inlet;
#X obj 314 303 outlet;
#X obj 324 148 until;
#X obj 322 187 f 0;
#X obj 357 190 + 1;
#X obj 290 102 t f b;
#X msg 368 149 0;
#X obj 320 239 list prepend;
#X obj 406 238 list;
#X obj 317 264 c.prepend set;
#X obj 322 215 + 1;
#X connect 0 0 5 0;
#X connect 2 0 3 0;
#X connect 3 0 4 0;
#X connect 3 0 10 0;
#X connect 4 0 3 1;
#X connect 5 0 2 0;
#X connect 5 1 6 0;
#X connect 6 0 3 1;
#X connect 6 0 7 1;
#X connect 7 0 8 0;
#X connect 7 0 9 0;
#X connect 8 0 7 1;
#X connect 9 0 1 0;
#X connect 10 0 7 0;
#X restore 471 262 pd DecToDeg;
#X msg 471 287 0 1 2 3 4 5 6 7;
#X obj 471 215 c.loadmess 7;
#X obj 644 237 c.number @size 53 17 @fontname Helvetica @fontweight
normal @fontslant roman @fontsize 11 @receive (null) @send (null) @presetname
(null) @min 0 @max (null) @minmax 0 (null) @decimal 0 @bgcolor 0.75
0.75 0.75 1 @bdcolor 0.5 0.5 0.5 1 @textcolor 0 0 0 1;
#X msg 644 287 0 -1 1 -2 2 -3 3 -4 4 -5 5 -6 6 -7 7;
#X obj 644 215 c.loadmess 7;
#N canvas 0 22 531 366 DecToOrder 0;
#X obj 235 101 inlet;
#X obj 314 353 outlet;
#X obj 324 148 until;
#X obj 322 187 f 0;
#X obj 357 190 + 1;
#X obj 290 102 t f b;
#X msg 368 149 0;
#X obj 320 289 list prepend;
#X obj 406 288 list;
#X obj 317 314 c.prepend set;
#X obj 324 207 + 1;
#X obj 323 230 t f f;
#X obj 346 267 * -1;
#X connect 0 0 5 0;
#X connect 2 0 3 0;
#X connect 3 0 4 0;
#X connect 3 0 10 0;
#X connect 4 0 3 1;
#X connect 5 0 2 0;
#X connect 5 1 6 0;
#X connect 6 0 3 1;
#X connect 6 0 7 1;
#X connect 7 0 8 0;
#X connect 7 0 9 0;
#X connect 8 0 7 1;
#X connect 9 0 1 0;
#X connect 10 0 11 0;
#X connect 11 0 7 0;
#X connect 11 1 12 0;
#X connect 12 0 7 0;
#X restore 644 262 pd DecToOrder;
#X text 437 56 Order of decomposition;
#X text 444 166 Number of harmonics;
#X text 624 57 Number of harmonics;
#X text 617 166 Order of decomposition;
#X text 438 196 Order of decomposition;
#X text 618 196 Order of decomposition;
#X text 438 306 Degrees of the harmonics;
#X text 618 306 Orders of the harmonics;
#X obj 471 450 hoa.2d.scope~ @size 225 225 @fontname Helvetica @fontweight
normal @fontslant roman @fontsize 11 @receive (null) @send (null) @order
7 @gain 100 @interval 100 @bgcolor 0.76 0.76 0.76 1 @bdcolor 0.7 0.7
0.7 1 @phcolor 1 0 0 1 @nhcolor 0 0 1 1;
#X obj 471 348 sig~ 1;
#X obj 471 416 hoa.2d.process~ 7 hoa.tuto.gain~ ----;
#X obj 689 361 c.number @size 53 17 @fontname Helvetica @fontweight
normal @fontslant roman @fontsize 11 @receive (null) @send (null) @presetname
(null) @min 0 @max 14 @minmax 0 14 @decimal 6 @bgcolor 0.75 0.75 0.75
1 @bdcolor 0.5 0.5 0.5 1 @textcolor 0 0 0 1;
#X obj 673 361 c.incdec @size 15 17 @fontname Helvetica @fontweight
normal @fontslant roman @fontsize 11 @receive (null) @send (null) @step
1 @bgcolor 0.75 0.75 0.75 1 @bdcolor 0.5 0.5 0.5 1 @arcolor 0 0 0 1
;
#N canvas 0 22 496 402 map.deg 0;
#X obj 249 320 outlet;
#X obj 248 202 / 2;
#X obj 251 228 nbx 5 14 -1e+37 1e+37 0 0 empty empty empty 0 -8 0 10
-262144 -1 -1 0.5 256;
#X obj 246 172 + 1;
#X obj 319 180 % 2;
#X obj 256 295 int;
#X obj 255 269 *;
#X obj 361 205 sel 1;
#X msg 390 248 -1;
#X msg 343 242 1;
#X obj 236 87 inlet;
#X obj 236 117 t f f;
#X connect 1 0 2 0;
#X connect 2 0 6 0;
#X connect 3 0 1 0;
#X connect 4 0 7 0;
#X connect 5 0 0 0;
#X connect 6 0 5 0;
#X connect 7 0 8 0;
#X connect 7 1 9 0;
#X connect 8 0 6 1;
#X connect 9 0 6 1;
#X connect 10 0 11 0;
#X connect 11 0 3 0;
#X connect 11 1 4 0;
#X restore 676 361 pd map.deg;
#X obj 690 361 c.number @size 53 17 @fontname Helvetica @fontweight
normal @fontslant roman @fontsize 11 @receive (null) @send (null) @presetname
(null) @min -7 @max 7 @minmax -7 7 @decimal 0 @bgcolor 0.75 0.75 0.75
1 @bdcolor 0.5 0.5 0.5 1 @textcolor 0 0 0 1;
#X obj 689 337 c.loadmess 0;
#N canvas 0 22 450 300 target.pro 0;
#X obj 259 47 inlet;
#X obj 279 204 outlet;
#X obj 261 85 t f b;
#X msg 320 110 target all \, 0;
#X msg 270 141 target \$1 \, 1;
#X connect 0 0 2 0;
#X connect 2 0 4 0;
#X connect 2 1 3 0;
#X connect 3 0 1 0;
#X connect 4 0 1 0;
#X restore 690 391 pd target.pro;
#X msg 738 460 \; pd dsp 1;
#X msg 738 500 \; pd dsp 0;
#X text 529 361 Order of the harmonics;
#X text 3 148 These circular functions can be represented on a two-dimensional
space. Depending on the angle α \, the functions are positive (red)
or negative (blue)., f 59;
#X text 3 208 The decomposition of a sound field in the circular harmonics
domain is performed according to an order of decomposition N. A given
decomposition order N includes all the degrees from 0 to N and thus
all the orders from -N to N. Thus \, the sound field is encoded by
2 N + 1 circular harmonics.;
#X text 3 48 The circular harmonics are dependent on a degree l and
an order m and take as variable an angle α in radian. Each degree
l includes a positive harmonic with the order m = l and a negative
harmonic with the order m = -l except the degree 0 that has only one
harmonic with the order 0 considered positive.;
#X text 3 324 0 0 \, 1 -1 \, 1 1 \, 2 -2 \, 2 2 \, 3 -3 \, 3 3 \, ...
\, 7 -7 \, 7 7;
#X text 3 298 For an order of decomposition 7 \, there are 15 harmonics
sorted by their degrees and their orders : (degree order);
#X text 3 354 The harmonic 0 is omnidirectional and the number of lobes
of the harmonics and their directivities increase with the degrees.
;
#X connect 0 0 2 0;
#X connect 1 0 0 0;
#X connect 4 0 5 0;
#X connect 5 0 6 0;
#X connect 7 0 4 0;
#X connect 8 0 10 0;
#X connect 10 0 9 0;
#X connect 11 0 8 0;
#X connect 12 0 13 0;
#X connect 13 0 14 0;
#X connect 15 0 12 0;
#X connect 16 0 19 0;
#X connect 18 0 16 0;
#X connect 19 0 17 0;
#X connect 29 0 30 0;
#X connect 30 0 28 0;
#X connect 30 1 28 1;
#X connect 30 2 28 2;
#X connect 30 3 28 3;
#X connect 30 4 28 4;
#X connect 30 5 28 5;
#X connect 30 6 28 6;
#X connect 30 7 28 7;
#X connect 30 8 28 8;
#X connect 30 9 28 9;
#X connect 30 10 28 10;
#X connect 30 11 28 11;
#X connect 30 12 28 12;
#X connect 30 13 28 13;
#X connect 30 14 28 14;
#X connect 31 0 32 0;
#X connect 31 0 33 0;
#X connect 32 0 31 0;
#X connect 33 0 34 0;
#X connect 34 0 36 0;
#X connect 35 0 31 0;
#X connect 36 0 30 1;
