{
	"patcher" : 	{
		"fileversion" : 1,
		"appversion" : 		{
			"major" : 6,
			"minor" : 1,
			"revision" : 5,
			"architecture" : "x64"
		}
,
		"rect" : [ 0.0, 44.0, 1440.0, 806.0 ],
		"bgcolor" : [ 0.93, 0.93, 0.92, 1.0 ],
		"bglocked" : 0,
		"openinpresentation" : 0,
		"default_fontsize" : 11.595187,
		"default_fontface" : 0,
		"default_fontname" : "Arial",
		"gridonopen" : 0,
		"gridsize" : [ 15.0, 15.0 ],
		"gridsnaponopen" : 0,
		"statusbarvisible" : 2,
		"toolbarvisible" : 1,
		"boxanimatetime" : 200,
		"imprint" : 0,
		"enablehscroll" : 1,
		"enablevscroll" : 1,
		"devicewidth" : 0.0,
		"description" : "",
		"digest" : "",
		"tags" : "",
		"showrootpatcherontab" : 0,
		"showontab" : 0,
		"boxes" : [ 			{
				"box" : 				{
					"color" : [ 0.734694, 0.734694, 0.734694, 1.0 ],
					"fontname" : "Arial",
					"fontsize" : 12.0,
					"hidden" : 1,
					"id" : "obj-11",
					"maxclass" : "newobj",
					"numinlets" : 0,
					"numoutlets" : 0,
					"patcher" : 					{
						"fileversion" : 1,
						"appversion" : 						{
							"major" : 6,
							"minor" : 1,
							"revision" : 5,
							"architecture" : "x64"
						}
,
						"rect" : [ 0.0, 70.0, 1440.0, 780.0 ],
						"bgcolor" : [ 0.93, 0.93, 0.92, 1.0 ],
						"bglocked" : 0,
						"openinpresentation" : 0,
						"default_fontsize" : 11.595187,
						"default_fontface" : 0,
						"default_fontname" : "Arial",
						"gridonopen" : 0,
						"gridsize" : [ 15.0, 15.0 ],
						"gridsnaponopen" : 0,
						"statusbarvisible" : 2,
						"toolbarvisible" : 1,
						"boxanimatetime" : 200,
						"imprint" : 0,
						"enablehscroll" : 1,
						"enablevscroll" : 1,
						"devicewidth" : 0.0,
						"description" : "",
						"digest" : "",
						"tags" : "",
						"showontab" : 1,
						"boxes" : [ 							{
								"box" : 								{
									"fontname" : "Arial",
									"fontsize" : 11.595187,
									"id" : "obj-2",
									"maxclass" : "newobj",
									"numinlets" : 1,
									"numoutlets" : 1,
									"outlettype" : [ "signal" ],
									"patching_rect" : [ 636.0, 303.0, 60.0, 19.0 ],
									"text" : "rand~ 0.4"
								}

							}
, 							{
								"box" : 								{
									"fontname" : "Arial",
									"fontsize" : 11.595187,
									"id" : "obj-22",
									"maxclass" : "message",
									"numinlets" : 2,
									"numoutlets" : 1,
									"outlettype" : [ "" ],
									"patching_rect" : [ 109.0, 417.0, 52.0, 17.0 ],
									"text" : "inPhase"
								}

							}
, 							{
								"box" : 								{
									"fontname" : "Arial",
									"fontsize" : 11.595187,
									"id" : "obj-16",
									"maxclass" : "message",
									"numinlets" : 2,
									"numoutlets" : 1,
									"outlettype" : [ "" ],
									"patching_rect" : [ 226.5, 451.5, 38.0, 17.0 ],
									"text" : "basic"
								}

							}
, 							{
								"box" : 								{
									"fontname" : "Arial",
									"fontsize" : 12.0,
									"id" : "obj-6",
									"maxclass" : "newobj",
									"numinlets" : 1,
									"numoutlets" : 1,
									"outlettype" : [ "bang" ],
									"patching_rect" : [ 857.0, 451.5, 60.0, 20.0 ],
									"text" : "loadbang"
								}

							}
, 							{
								"box" : 								{
									"fontname" : "Arial",
									"fontsize" : 12.0,
									"id" : "obj-8",
									"maxclass" : "newobj",
									"numinlets" : 1,
									"numoutlets" : 1,
									"outlettype" : [ "" ],
									"patcher" : 									{
										"fileversion" : 1,
										"appversion" : 										{
											"major" : 6,
											"minor" : 1,
											"revision" : 5,
											"architecture" : "x64"
										}
,
										"rect" : [ 196.0, 109.0, 872.0, 603.0 ],
										"bglocked" : 0,
										"openinpresentation" : 0,
										"default_fontsize" : 12.0,
										"default_fontface" : 0,
										"default_fontname" : "Arial",
										"gridonopen" : 0,
										"gridsize" : [ 15.0, 15.0 ],
										"gridsnaponopen" : 0,
										"statusbarvisible" : 2,
										"toolbarvisible" : 1,
										"boxanimatetime" : 200,
										"imprint" : 0,
										"enablehscroll" : 1,
										"enablevscroll" : 1,
										"devicewidth" : 0.0,
										"description" : "",
										"digest" : "",
										"tags" : "",
										"boxes" : [ 											{
												"box" : 												{
													"fontname" : "Arial",
													"fontsize" : 12.0,
													"id" : "obj-10",
													"maxclass" : "newobj",
													"numinlets" : 2,
													"numoutlets" : 1,
													"outlettype" : [ "float" ],
													"patching_rect" : [ 556.166687, 262.0, 35.0, 20.0 ],
													"text" : "* 0.5"
												}

											}
, 											{
												"box" : 												{
													"fontname" : "Arial",
													"fontsize" : 12.0,
													"id" : "obj-9",
													"maxclass" : "newobj",
													"numinlets" : 1,
													"numoutlets" : 1,
													"outlettype" : [ "float" ],
													"patching_rect" : [ 556.166687, 334.0, 43.0, 20.0 ],
													"text" : "hoa.pi"
												}

											}
, 											{
												"box" : 												{
													"fontname" : "Arial",
													"fontsize" : 12.0,
													"id" : "obj-8",
													"maxclass" : "newobj",
													"numinlets" : 2,
													"numoutlets" : 1,
													"outlettype" : [ "float" ],
													"patching_rect" : [ 556.166687, 303.0, 44.0, 20.0 ],
													"text" : "+ 0.25"
												}

											}
, 											{
												"box" : 												{
													"fontname" : "Arial",
													"fontsize" : 12.0,
													"id" : "obj-7",
													"maxclass" : "newobj",
													"numinlets" : 1,
													"numoutlets" : 1,
													"outlettype" : [ "float" ],
													"patching_rect" : [ 618.5, 334.0, 43.0, 20.0 ],
													"text" : "hoa.pi"
												}

											}
, 											{
												"box" : 												{
													"fontname" : "Verdana",
													"fontsize" : 10.0,
													"id" : "obj-30",
													"maxclass" : "newobj",
													"numinlets" : 1,
													"numoutlets" : 1,
													"outlettype" : [ "" ],
													"patching_rect" : [ 612.5, 286.0, 164.0, 19.0 ],
													"text" : "if $i1 < 4 then 0.25 else -0.25"
												}

											}
, 											{
												"box" : 												{
													"fontname" : "Verdana",
													"fontsize" : 10.0,
													"id" : "obj-19",
													"maxclass" : "newobj",
													"numinlets" : 2,
													"numoutlets" : 1,
													"outlettype" : [ "int" ],
													"patching_rect" : [ 497.0, 182.0, 32.5, 19.0 ],
													"text" : "- 1"
												}

											}
, 											{
												"box" : 												{
													"id" : "obj-17",
													"maxclass" : "button",
													"numinlets" : 1,
													"numoutlets" : 1,
													"outlettype" : [ "bang" ],
													"patching_rect" : [ 471.0, 96.5, 20.0, 20.0 ]
												}

											}
, 											{
												"box" : 												{
													"fontname" : "Verdana",
													"fontsize" : 10.0,
													"id" : "obj-14",
													"maxclass" : "newobj",
													"numinlets" : 4,
													"numoutlets" : 1,
													"outlettype" : [ "" ],
													"patching_rect" : [ 495.5, 388.0, 110.0, 19.0 ],
													"text" : "pack lscoord 0 0. 0."
												}

											}
, 											{
												"box" : 												{
													"fontname" : "Verdana",
													"fontsize" : 10.0,
													"id" : "obj-5",
													"maxclass" : "newobj",
													"numinlets" : 1,
													"numoutlets" : 4,
													"outlettype" : [ "bang", "int", "int", "int" ],
													"patching_rect" : [ 497.0, 214.0, 59.5, 19.0 ],
													"text" : "t b i i i"
												}

											}
, 											{
												"box" : 												{
													"fontname" : "Verdana",
													"fontsize" : 10.0,
													"id" : "obj-6",
													"maxclass" : "newobj",
													"numinlets" : 2,
													"numoutlets" : 3,
													"outlettype" : [ "bang", "bang", "int" ],
													"patching_rect" : [ 471.0, 124.0, 46.0, 19.0 ],
													"text" : "uzi 8"
												}

											}
, 											{
												"box" : 												{
													"comment" : "",
													"id" : "obj-4",
													"maxclass" : "inlet",
													"numinlets" : 0,
													"numoutlets" : 1,
													"outlettype" : [ "bang" ],
													"patching_rect" : [ 374.0, 64.0, 25.0, 25.0 ]
												}

											}
, 											{
												"box" : 												{
													"comment" : "",
													"id" : "obj-1",
													"maxclass" : "outlet",
													"numinlets" : 1,
													"numoutlets" : 0,
													"patching_rect" : [ 481.5, 490.0, 25.0, 25.0 ]
												}

											}
 ],
										"lines" : [ 											{
												"patchline" : 												{
													"destination" : [ "obj-8", 0 ],
													"disabled" : 0,
													"hidden" : 0,
													"source" : [ "obj-10", 0 ]
												}

											}
, 											{
												"patchline" : 												{
													"destination" : [ "obj-1", 0 ],
													"disabled" : 0,
													"hidden" : 0,
													"source" : [ "obj-14", 0 ]
												}

											}
, 											{
												"patchline" : 												{
													"destination" : [ "obj-6", 0 ],
													"disabled" : 0,
													"hidden" : 0,
													"source" : [ "obj-17", 0 ]
												}

											}
, 											{
												"patchline" : 												{
													"destination" : [ "obj-5", 0 ],
													"disabled" : 0,
													"hidden" : 0,
													"source" : [ "obj-19", 0 ]
												}

											}
, 											{
												"patchline" : 												{
													"destination" : [ "obj-7", 0 ],
													"disabled" : 0,
													"hidden" : 0,
													"source" : [ "obj-30", 0 ]
												}

											}
, 											{
												"patchline" : 												{
													"destination" : [ "obj-17", 0 ],
													"disabled" : 0,
													"hidden" : 0,
													"source" : [ "obj-4", 0 ]
												}

											}
, 											{
												"patchline" : 												{
													"destination" : [ "obj-10", 0 ],
													"disabled" : 0,
													"hidden" : 0,
													"source" : [ "obj-5", 2 ]
												}

											}
, 											{
												"patchline" : 												{
													"destination" : [ "obj-14", 1 ],
													"disabled" : 0,
													"hidden" : 0,
													"source" : [ "obj-5", 1 ]
												}

											}
, 											{
												"patchline" : 												{
													"destination" : [ "obj-14", 0 ],
													"disabled" : 0,
													"hidden" : 0,
													"source" : [ "obj-5", 0 ]
												}

											}
, 											{
												"patchline" : 												{
													"destination" : [ "obj-30", 0 ],
													"disabled" : 0,
													"hidden" : 0,
													"source" : [ "obj-5", 3 ]
												}

											}
, 											{
												"patchline" : 												{
													"destination" : [ "obj-19", 0 ],
													"disabled" : 0,
													"hidden" : 0,
													"source" : [ "obj-6", 2 ]
												}

											}
, 											{
												"patchline" : 												{
													"destination" : [ "obj-14", 3 ],
													"disabled" : 0,
													"hidden" : 0,
													"source" : [ "obj-7", 0 ]
												}

											}
, 											{
												"patchline" : 												{
													"destination" : [ "obj-9", 0 ],
													"disabled" : 0,
													"hidden" : 0,
													"source" : [ "obj-8", 0 ]
												}

											}
, 											{
												"patchline" : 												{
													"destination" : [ "obj-14", 2 ],
													"disabled" : 0,
													"hidden" : 0,
													"source" : [ "obj-9", 0 ]
												}

											}
 ]
									}
,
									"patching_rect" : [ 857.0, 494.5, 52.0, 20.0 ],
									"saved_object_attributes" : 									{
										"default_fontface" : 0,
										"default_fontname" : "Arial",
										"default_fontsize" : 12.0,
										"description" : "",
										"digest" : "",
										"fontface" : 0,
										"fontname" : "Arial",
										"fontsize" : 12.0,
										"globalpatchername" : "",
										"tags" : ""
									}
,
									"text" : "p set_ls"
								}

							}
, 							{
								"box" : 								{
									"fontname" : "Arial",
									"fontsize" : 11.595187,
									"id" : "obj-27",
									"maxclass" : "flonum",
									"numinlets" : 1,
									"numoutlets" : 2,
									"outlettype" : [ "float", "bang" ],
									"parameter_enable" : 0,
									"patching_rect" : [ 554.5, 292.0, 59.0, 19.0 ]
								}

							}
, 							{
								"box" : 								{
									"fontname" : "Arial",
									"fontsize" : 11.595187,
									"id" : "obj-3",
									"maxclass" : "newobj",
									"numinlets" : 36,
									"numoutlets" : 36,
									"outlettype" : [ "signal", "signal", "signal", "signal", "signal", "signal", "signal", "signal", "signal", "signal", "signal", "signal", "signal", "signal", "signal", "signal", "signal", "signal", "signal", "signal", "signal", "signal", "signal", "signal", "signal", "signal", "signal", "signal", "signal", "signal", "signal", "signal", "signal", "signal", "signal", "signal" ],
									"patching_rect" : [ 347.5, 452.5, 491.5, 19.0 ],
									"text" : "hoa.optim3D~ 5 inPhase"
								}

							}
, 							{
								"box" : 								{
									"id" : "obj-59",
									"inputmode" : 1,
									"maxclass" : "hoa.gain~",
									"numinlets" : 9,
									"numoutlets" : 9,
									"outlettype" : [ "signal", "signal", "signal", "signal", "signal", "signal", "signal", "signal", "" ],
									"parameter_enable" : 0,
									"patching_rect" : [ 342.0, 583.0, 208.714279, 25.0 ]
								}

							}
, 							{
								"box" : 								{
									"fontname" : "Arial",
									"fontsize" : 11.595187,
									"id" : "obj-47",
									"maxclass" : "flonum",
									"numinlets" : 1,
									"numoutlets" : 2,
									"outlettype" : [ "float", "bang" ],
									"parameter_enable" : 0,
									"patching_rect" : [ 465.0, 278.0, 59.0, 19.0 ]
								}

							}
, 							{
								"box" : 								{
									"args" : [ "@vol", -30, "@module", 1 ],
									"id" : "obj-10",
									"maxclass" : "bpatcher",
									"name" : "demosound.maxpat",
									"numinlets" : 0,
									"numoutlets" : 1,
									"outlettype" : [ "signal" ],
									"patching_rect" : [ 89.0, 91.0, 225.0, 96.5 ]
								}

							}
, 							{
								"box" : 								{
									"angles" : [ 0.0, 90.0, 180.0, 270.0 ],
									"channels" : 4,
									"color" : [ 1.0, 1.0, 1.0, 1.0 ],
									"id" : "obj-45",
									"loudspeakers" : 4,
									"maxclass" : "hoa.meter~",
									"numinlets" : 4,
									"numoutlets" : 2,
									"offset" : 45.0,
									"outlettype" : [ "list", "list" ],
									"patching_rect" : [ 630.0, 583.0, 148.0, 148.0 ],
									"yls" : 4,
									"zls" : [ 0.0, 90.0, 180.0, 270.0 ]
								}

							}
, 							{
								"box" : 								{
									"angles" : [ 0.0, 90.0, 180.0, 270.0 ],
									"channels" : 4,
									"color" : [ 1.0, 1.0, 1.0, 1.0 ],
									"id" : "obj-44",
									"loudspeakers" : 4,
									"maxclass" : "hoa.meter~",
									"numinlets" : 4,
									"numoutlets" : 2,
									"offset" : 45.0,
									"outlettype" : [ "list", "list" ],
									"patching_rect" : [ 794.0, 583.0, 148.0, 148.0 ],
									"yls" : 4,
									"zls" : [ 0.0, 90.0, 180.0, 270.0 ]
								}

							}
, 							{
								"box" : 								{
									"id" : "obj-33",
									"maxclass" : "gain~",
									"numinlets" : 2,
									"numoutlets" : 2,
									"outlettype" : [ "signal", "int" ],
									"parameter_enable" : 0,
									"patching_rect" : [ 89.0, 223.0, 129.0, 15.0 ]
								}

							}
, 							{
								"box" : 								{
									"fontname" : "Arial",
									"fontsize" : 11.595187,
									"id" : "obj-29",
									"maxclass" : "message",
									"numinlets" : 2,
									"numoutlets" : 1,
									"outlettype" : [ "" ],
									"patching_rect" : [ 288.0, 642.0, 32.5, 17.0 ],
									"text" : "stop"
								}

							}
, 							{
								"box" : 								{
									"fontname" : "Arial",
									"fontsize" : 11.595187,
									"id" : "obj-11",
									"maxclass" : "message",
									"numinlets" : 2,
									"numoutlets" : 1,
									"outlettype" : [ "" ],
									"patching_rect" : [ 209.5, 659.0, 72.0, 17.0 ],
									"text" : "startwindow"
								}

							}
, 							{
								"box" : 								{
									"fontname" : "Arial",
									"fontsize" : 11.595187,
									"id" : "obj-4",
									"maxclass" : "newobj",
									"numinlets" : 36,
									"numoutlets" : 8,
									"outlettype" : [ "signal", "signal", "signal", "signal", "signal", "signal", "signal", "signal" ],
									"patching_rect" : [ 342.0, 514.5, 491.5, 19.0 ],
									"text" : "hoa.decoder3D~ 5 8"
								}

							}
, 							{
								"box" : 								{
									"fontname" : "Arial",
									"fontsize" : 11.595187,
									"id" : "obj-32",
									"maxclass" : "newobj",
									"numinlets" : 8,
									"numoutlets" : 0,
									"patching_rect" : [ 342.0, 704.0, 185.0, 19.0 ],
									"text" : "hoa.dac~ 1:8"
								}

							}
, 							{
								"box" : 								{
									"fontname" : "Arial",
									"fontsize" : 11.595187,
									"id" : "obj-46",
									"maxclass" : "newobj",
									"numinlets" : 0,
									"numoutlets" : 1,
									"outlettype" : [ "bang" ],
									"patcher" : 									{
										"fileversion" : 1,
										"appversion" : 										{
											"major" : 6,
											"minor" : 1,
											"revision" : 5,
											"architecture" : "x64"
										}
,
										"rect" : [ 321.0, 105.0, 640.0, 480.0 ],
										"bglocked" : 0,
										"openinpresentation" : 0,
										"default_fontsize" : 12.0,
										"default_fontface" : 0,
										"default_fontname" : "Arial",
										"gridonopen" : 0,
										"gridsize" : [ 15.0, 15.0 ],
										"gridsnaponopen" : 0,
										"statusbarvisible" : 2,
										"toolbarvisible" : 1,
										"boxanimatetime" : 200,
										"imprint" : 0,
										"enablehscroll" : 1,
										"enablevscroll" : 1,
										"devicewidth" : 0.0,
										"description" : "",
										"digest" : "",
										"tags" : "",
										"boxes" : [ 											{
												"box" : 												{
													"fontname" : "Arial",
													"fontsize" : 12.0,
													"id" : "obj-5",
													"maxclass" : "newobj",
													"numinlets" : 1,
													"numoutlets" : 2,
													"outlettype" : [ "int", "int" ],
													"patching_rect" : [ 178.0, 100.0, 49.0, 20.0 ],
													"text" : "unpack"
												}

											}
, 											{
												"box" : 												{
													"fontname" : "Arial",
													"fontsize" : 12.0,
													"id" : "obj-4",
													"maxclass" : "newobj",
													"numinlets" : 1,
													"numoutlets" : 1,
													"outlettype" : [ "bang" ],
													"patching_rect" : [ 178.0, 31.0, 60.0, 20.0 ],
													"text" : "loadbang"
												}

											}
, 											{
												"box" : 												{
													"fontname" : "Arial",
													"fontsize" : 12.0,
													"id" : "obj-3",
													"maxclass" : "number",
													"numinlets" : 1,
													"numoutlets" : 2,
													"outlettype" : [ "int", "bang" ],
													"parameter_enable" : 0,
													"patching_rect" : [ 178.0, 130.0, 50.0, 20.0 ]
												}

											}
, 											{
												"box" : 												{
													"fontname" : "Arial",
													"fontsize" : 12.0,
													"id" : "obj-1",
													"maxclass" : "newobj",
													"numinlets" : 1,
													"numoutlets" : 2,
													"outlettype" : [ "", "" ],
													"patching_rect" : [ 178.0, 63.0, 74.0, 20.0 ],
													"text" : "patcherargs"
												}

											}
, 											{
												"box" : 												{
													"id" : "obj-10",
													"maxclass" : "button",
													"numinlets" : 1,
													"numoutlets" : 1,
													"outlettype" : [ "bang" ],
													"patching_rect" : [ 50.0, 160.0, 20.0, 20.0 ]
												}

											}
, 											{
												"box" : 												{
													"fontname" : "Arial",
													"fontsize" : 11.595187,
													"id" : "obj-23",
													"maxclass" : "newobj",
													"numinlets" : 2,
													"numoutlets" : 2,
													"outlettype" : [ "bang", "" ],
													"patching_rect" : [ 50.0, 130.0, 41.0, 19.0 ],
													"text" : "sel 32"
												}

											}
, 											{
												"box" : 												{
													"fontname" : "Arial",
													"fontsize" : 11.595187,
													"id" : "obj-17",
													"maxclass" : "newobj",
													"numinlets" : 0,
													"numoutlets" : 4,
													"outlettype" : [ "int", "int", "int", "int" ],
													"patching_rect" : [ 50.0, 100.0, 59.5, 19.0 ],
													"text" : "key"
												}

											}
, 											{
												"box" : 												{
													"comment" : "",
													"id" : "obj-45",
													"maxclass" : "outlet",
													"numinlets" : 1,
													"numoutlets" : 0,
													"patching_rect" : [ 50.0, 240.0, 25.0, 25.0 ]
												}

											}
 ],
										"lines" : [ 											{
												"patchline" : 												{
													"destination" : [ "obj-5", 0 ],
													"disabled" : 0,
													"hidden" : 0,
													"source" : [ "obj-1", 0 ]
												}

											}
, 											{
												"patchline" : 												{
													"destination" : [ "obj-45", 0 ],
													"disabled" : 0,
													"hidden" : 0,
													"source" : [ "obj-10", 0 ]
												}

											}
, 											{
												"patchline" : 												{
													"destination" : [ "obj-23", 0 ],
													"disabled" : 0,
													"hidden" : 0,
													"midpoints" : [ 59.5, 121.0, 59.5, 121.0 ],
													"source" : [ "obj-17", 0 ]
												}

											}
, 											{
												"patchline" : 												{
													"destination" : [ "obj-10", 0 ],
													"disabled" : 0,
													"hidden" : 0,
													"midpoints" : [ 59.5, 151.0, 59.5, 151.0 ],
													"source" : [ "obj-23", 0 ]
												}

											}
, 											{
												"patchline" : 												{
													"destination" : [ "obj-23", 1 ],
													"disabled" : 0,
													"hidden" : 0,
													"midpoints" : [ 187.5, 150.0, 102.0, 150.0, 102.0, 126.0, 81.5, 126.0 ],
													"source" : [ "obj-3", 0 ]
												}

											}
, 											{
												"patchline" : 												{
													"destination" : [ "obj-1", 0 ],
													"disabled" : 0,
													"hidden" : 0,
													"source" : [ "obj-4", 0 ]
												}

											}
, 											{
												"patchline" : 												{
													"destination" : [ "obj-3", 0 ],
													"disabled" : 0,
													"hidden" : 0,
													"source" : [ "obj-5", 1 ]
												}

											}
 ]
									}
,
									"patching_rect" : [ 459.0, 23.0, 76.0, 19.0 ],
									"saved_object_attributes" : 									{
										"default_fontface" : 0,
										"default_fontname" : "Arial",
										"default_fontsize" : 12.0,
										"description" : "",
										"digest" : "",
										"fontface" : 0,
										"fontname" : "Arial",
										"fontsize" : 12.0,
										"globalpatchername" : "",
										"tags" : ""
									}
,
									"text" : "p key_sel 32"
								}

							}
, 							{
								"box" : 								{
									"fontname" : "Arial",
									"fontsize" : 11.595187,
									"id" : "obj-30",
									"maxclass" : "newobj",
									"numinlets" : 1,
									"numoutlets" : 0,
									"patching_rect" : [ 459.0, 53.0, 99.0, 19.0 ],
									"saved_object_attributes" : 									{
										"poscolor" : [ 1.0, 0.0, 0.0, 1.0 ]
									}
,
									"text" : "hoa.connect 35 6"
								}

							}
, 							{
								"box" : 								{
									"id" : "obj-7",
									"increment" : 0.25,
									"maxclass" : "incdec",
									"numinlets" : 1,
									"numoutlets" : 1,
									"outlettype" : [ "float" ],
									"parameter_enable" : 0,
									"patching_rect" : [ 405.0, 333.0, 20.0, 20.0 ]
								}

							}
, 							{
								"box" : 								{
									"fontname" : "Arial",
									"fontsize" : 11.595187,
									"id" : "obj-9",
									"maxclass" : "newobj",
									"numinlets" : 2,
									"numoutlets" : 1,
									"outlettype" : [ "signal" ],
									"patching_rect" : [ 465.0, 303.0, 72.0, 19.0 ],
									"text" : "phasor~ 0.1"
								}

							}
, 							{
								"box" : 								{
									"fontname" : "Arial",
									"fontsize" : 11.595187,
									"id" : "obj-14",
									"maxclass" : "flonum",
									"numinlets" : 1,
									"numoutlets" : 2,
									"outlettype" : [ "float", "bang" ],
									"parameter_enable" : 0,
									"patching_rect" : [ 425.0, 333.0, 59.0, 19.0 ]
								}

							}
, 							{
								"box" : 								{
									"fontname" : "Arial",
									"fontsize" : 11.595187,
									"id" : "obj-21",
									"maxclass" : "newobj",
									"numinlets" : 2,
									"numoutlets" : 1,
									"outlettype" : [ "signal" ],
									"patching_rect" : [ 425.0, 363.0, 59.0, 19.0 ],
									"text" : "hoa.pi~ 2"
								}

							}
, 							{
								"box" : 								{
									"fontname" : "Arial",
									"fontsize" : 11.595187,
									"id" : "obj-23",
									"maxclass" : "newobj",
									"numinlets" : 3,
									"numoutlets" : 36,
									"outlettype" : [ "signal", "signal", "signal", "signal", "signal", "signal", "signal", "signal", "signal", "signal", "signal", "signal", "signal", "signal", "signal", "signal", "signal", "signal", "signal", "signal", "signal", "signal", "signal", "signal", "signal", "signal", "signal", "signal", "signal", "signal", "signal", "signal", "signal", "signal", "signal", "signal" ],
									"patching_rect" : [ 342.0, 423.0, 491.5, 19.0 ],
									"text" : "hoa.encoder3D~ 5"
								}

							}
, 							{
								"box" : 								{
									"id" : "obj-1",
									"increment" : 0.25,
									"maxclass" : "incdec",
									"numinlets" : 1,
									"numoutlets" : 1,
									"outlettype" : [ "float" ],
									"parameter_enable" : 0,
									"patching_rect" : [ 491.0, 328.0, 20.0, 20.0 ]
								}

							}
, 							{
								"box" : 								{
									"fontname" : "Arial",
									"fontsize" : 11.595187,
									"id" : "obj-19",
									"maxclass" : "newobj",
									"numinlets" : 2,
									"numoutlets" : 1,
									"outlettype" : [ "signal" ],
									"patching_rect" : [ 541.5, 353.0, 72.0, 19.0 ],
									"text" : "phasor~ 0.1"
								}

							}
, 							{
								"box" : 								{
									"fontname" : "Arial",
									"fontsize" : 11.595187,
									"id" : "obj-20",
									"maxclass" : "flonum",
									"numinlets" : 1,
									"numoutlets" : 2,
									"outlettype" : [ "float", "bang" ],
									"parameter_enable" : 0,
									"patching_rect" : [ 508.0, 328.0, 59.0, 19.0 ]
								}

							}
, 							{
								"box" : 								{
									"fontname" : "Arial",
									"fontsize" : 11.595187,
									"id" : "obj-12",
									"maxclass" : "newobj",
									"numinlets" : 2,
									"numoutlets" : 1,
									"outlettype" : [ "signal" ],
									"patching_rect" : [ 508.0, 395.0, 59.0, 19.0 ],
									"text" : "hoa.pi~ 2"
								}

							}
, 							{
								"box" : 								{
									"id" : "obj-5",
									"maxclass" : "ezadc~",
									"numinlets" : 1,
									"numoutlets" : 2,
									"outlettype" : [ "signal", "signal" ],
									"patching_rect" : [ 794.0, 40.0, 45.0, 45.0 ]
								}

							}
 ],
						"lines" : [ 							{
								"patchline" : 								{
									"destination" : [ "obj-20", 0 ],
									"disabled" : 0,
									"hidden" : 0,
									"source" : [ "obj-1", 0 ]
								}

							}
, 							{
								"patchline" : 								{
									"destination" : [ "obj-33", 0 ],
									"disabled" : 0,
									"hidden" : 0,
									"source" : [ "obj-10", 0 ]
								}

							}
, 							{
								"patchline" : 								{
									"destination" : [ "obj-32", 7 ],
									"disabled" : 0,
									"hidden" : 0,
									"source" : [ "obj-11", 0 ]
								}

							}
, 							{
								"patchline" : 								{
									"destination" : [ "obj-23", 2 ],
									"disabled" : 0,
									"hidden" : 0,
									"source" : [ "obj-12", 0 ]
								}

							}
, 							{
								"patchline" : 								{
									"destination" : [ "obj-21", 0 ],
									"disabled" : 0,
									"hidden" : 0,
									"source" : [ "obj-14", 0 ]
								}

							}
, 							{
								"patchline" : 								{
									"destination" : [ "obj-7", 0 ],
									"disabled" : 0,
									"hidden" : 0,
									"source" : [ "obj-14", 0 ]
								}

							}
, 							{
								"patchline" : 								{
									"destination" : [ "obj-3", 0 ],
									"disabled" : 0,
									"hidden" : 0,
									"source" : [ "obj-16", 0 ]
								}

							}
, 							{
								"patchline" : 								{
									"destination" : [ "obj-12", 1 ],
									"disabled" : 0,
									"hidden" : 0,
									"source" : [ "obj-19", 0 ]
								}

							}
, 							{
								"patchline" : 								{
									"destination" : [ "obj-12", 1 ],
									"disabled" : 0,
									"hidden" : 0,
									"source" : [ "obj-2", 0 ]
								}

							}
, 							{
								"patchline" : 								{
									"destination" : [ "obj-1", 0 ],
									"disabled" : 0,
									"hidden" : 0,
									"source" : [ "obj-20", 0 ]
								}

							}
, 							{
								"patchline" : 								{
									"destination" : [ "obj-12", 0 ],
									"disabled" : 0,
									"hidden" : 0,
									"source" : [ "obj-20", 0 ]
								}

							}
, 							{
								"patchline" : 								{
									"destination" : [ "obj-23", 1 ],
									"disabled" : 0,
									"hidden" : 0,
									"source" : [ "obj-21", 0 ]
								}

							}
, 							{
								"patchline" : 								{
									"destination" : [ "obj-3", 0 ],
									"disabled" : 0,
									"hidden" : 0,
									"source" : [ "obj-22", 0 ]
								}

							}
, 							{
								"patchline" : 								{
									"destination" : [ "obj-3", 35 ],
									"disabled" : 0,
									"hidden" : 0,
									"source" : [ "obj-23", 35 ]
								}

							}
, 							{
								"patchline" : 								{
									"destination" : [ "obj-3", 34 ],
									"disabled" : 0,
									"hidden" : 0,
									"source" : [ "obj-23", 34 ]
								}

							}
, 							{
								"patchline" : 								{
									"destination" : [ "obj-3", 33 ],
									"disabled" : 0,
									"hidden" : 0,
									"source" : [ "obj-23", 33 ]
								}

							}
, 							{
								"patchline" : 								{
									"destination" : [ "obj-3", 32 ],
									"disabled" : 0,
									"hidden" : 0,
									"source" : [ "obj-23", 32 ]
								}

							}
, 							{
								"patchline" : 								{
									"destination" : [ "obj-3", 31 ],
									"disabled" : 0,
									"hidden" : 0,
									"source" : [ "obj-23", 31 ]
								}

							}
, 							{
								"patchline" : 								{
									"destination" : [ "obj-3", 30 ],
									"disabled" : 0,
									"hidden" : 0,
									"source" : [ "obj-23", 30 ]
								}

							}
, 							{
								"patchline" : 								{
									"destination" : [ "obj-3", 29 ],
									"disabled" : 0,
									"hidden" : 0,
									"source" : [ "obj-23", 29 ]
								}

							}
, 							{
								"patchline" : 								{
									"destination" : [ "obj-3", 28 ],
									"disabled" : 0,
									"hidden" : 0,
									"source" : [ "obj-23", 28 ]
								}

							}
, 							{
								"patchline" : 								{
									"destination" : [ "obj-3", 27 ],
									"disabled" : 0,
									"hidden" : 0,
									"source" : [ "obj-23", 27 ]
								}

							}
, 							{
								"patchline" : 								{
									"destination" : [ "obj-3", 26 ],
									"disabled" : 0,
									"hidden" : 0,
									"source" : [ "obj-23", 26 ]
								}

							}
, 							{
								"patchline" : 								{
									"destination" : [ "obj-3", 25 ],
									"disabled" : 0,
									"hidden" : 0,
									"source" : [ "obj-23", 25 ]
								}

							}
, 							{
								"patchline" : 								{
									"destination" : [ "obj-3", 24 ],
									"disabled" : 0,
									"hidden" : 0,
									"source" : [ "obj-23", 24 ]
								}

							}
, 							{
								"patchline" : 								{
									"destination" : [ "obj-3", 23 ],
									"disabled" : 0,
									"hidden" : 0,
									"source" : [ "obj-23", 23 ]
								}

							}
, 							{
								"patchline" : 								{
									"destination" : [ "obj-3", 22 ],
									"disabled" : 0,
									"hidden" : 0,
									"source" : [ "obj-23", 22 ]
								}

							}
, 							{
								"patchline" : 								{
									"destination" : [ "obj-3", 21 ],
									"disabled" : 0,
									"hidden" : 0,
									"source" : [ "obj-23", 21 ]
								}

							}
, 							{
								"patchline" : 								{
									"destination" : [ "obj-3", 20 ],
									"disabled" : 0,
									"hidden" : 0,
									"source" : [ "obj-23", 20 ]
								}

							}
, 							{
								"patchline" : 								{
									"destination" : [ "obj-3", 19 ],
									"disabled" : 0,
									"hidden" : 0,
									"source" : [ "obj-23", 19 ]
								}

							}
, 							{
								"patchline" : 								{
									"destination" : [ "obj-3", 18 ],
									"disabled" : 0,
									"hidden" : 0,
									"source" : [ "obj-23", 18 ]
								}

							}
, 							{
								"patchline" : 								{
									"destination" : [ "obj-3", 17 ],
									"disabled" : 0,
									"hidden" : 0,
									"source" : [ "obj-23", 17 ]
								}

							}
, 							{
								"patchline" : 								{
									"destination" : [ "obj-3", 16 ],
									"disabled" : 0,
									"hidden" : 0,
									"source" : [ "obj-23", 16 ]
								}

							}
, 							{
								"patchline" : 								{
									"destination" : [ "obj-3", 15 ],
									"disabled" : 0,
									"hidden" : 0,
									"source" : [ "obj-23", 15 ]
								}

							}
, 							{
								"patchline" : 								{
									"destination" : [ "obj-3", 14 ],
									"disabled" : 0,
									"hidden" : 0,
									"source" : [ "obj-23", 14 ]
								}

							}
, 							{
								"patchline" : 								{
									"destination" : [ "obj-3", 13 ],
									"disabled" : 0,
									"hidden" : 0,
									"source" : [ "obj-23", 13 ]
								}

							}
, 							{
								"patchline" : 								{
									"destination" : [ "obj-3", 12 ],
									"disabled" : 0,
									"hidden" : 0,
									"source" : [ "obj-23", 12 ]
								}

							}
, 							{
								"patchline" : 								{
									"destination" : [ "obj-3", 11 ],
									"disabled" : 0,
									"hidden" : 0,
									"source" : [ "obj-23", 11 ]
								}

							}
, 							{
								"patchline" : 								{
									"destination" : [ "obj-3", 10 ],
									"disabled" : 0,
									"hidden" : 0,
									"source" : [ "obj-23", 10 ]
								}

							}
, 							{
								"patchline" : 								{
									"destination" : [ "obj-3", 9 ],
									"disabled" : 0,
									"hidden" : 0,
									"source" : [ "obj-23", 9 ]
								}

							}
, 							{
								"patchline" : 								{
									"destination" : [ "obj-3", 8 ],
									"disabled" : 0,
									"hidden" : 0,
									"source" : [ "obj-23", 8 ]
								}

							}
, 							{
								"patchline" : 								{
									"destination" : [ "obj-3", 7 ],
									"disabled" : 0,
									"hidden" : 0,
									"source" : [ "obj-23", 7 ]
								}

							}
, 							{
								"patchline" : 								{
									"destination" : [ "obj-3", 6 ],
									"disabled" : 0,
									"hidden" : 0,
									"source" : [ "obj-23", 6 ]
								}

							}
, 							{
								"patchline" : 								{
									"destination" : [ "obj-3", 5 ],
									"disabled" : 0,
									"hidden" : 0,
									"source" : [ "obj-23", 5 ]
								}

							}
, 							{
								"patchline" : 								{
									"destination" : [ "obj-3", 4 ],
									"disabled" : 0,
									"hidden" : 0,
									"source" : [ "obj-23", 4 ]
								}

							}
, 							{
								"patchline" : 								{
									"destination" : [ "obj-3", 3 ],
									"disabled" : 0,
									"hidden" : 0,
									"source" : [ "obj-23", 3 ]
								}

							}
, 							{
								"patchline" : 								{
									"destination" : [ "obj-3", 2 ],
									"disabled" : 0,
									"hidden" : 0,
									"source" : [ "obj-23", 2 ]
								}

							}
, 							{
								"patchline" : 								{
									"destination" : [ "obj-3", 1 ],
									"disabled" : 0,
									"hidden" : 0,
									"source" : [ "obj-23", 1 ]
								}

							}
, 							{
								"patchline" : 								{
									"destination" : [ "obj-3", 0 ],
									"disabled" : 0,
									"hidden" : 0,
									"source" : [ "obj-23", 0 ]
								}

							}
, 							{
								"patchline" : 								{
									"destination" : [ "obj-19", 0 ],
									"disabled" : 0,
									"hidden" : 0,
									"source" : [ "obj-27", 0 ]
								}

							}
, 							{
								"patchline" : 								{
									"destination" : [ "obj-32", 7 ],
									"disabled" : 0,
									"hidden" : 0,
									"source" : [ "obj-29", 0 ]
								}

							}
, 							{
								"patchline" : 								{
									"destination" : [ "obj-4", 35 ],
									"disabled" : 0,
									"hidden" : 0,
									"source" : [ "obj-3", 35 ]
								}

							}
, 							{
								"patchline" : 								{
									"destination" : [ "obj-4", 34 ],
									"disabled" : 0,
									"hidden" : 0,
									"source" : [ "obj-3", 34 ]
								}

							}
, 							{
								"patchline" : 								{
									"destination" : [ "obj-4", 33 ],
									"disabled" : 0,
									"hidden" : 0,
									"source" : [ "obj-3", 33 ]
								}

							}
, 							{
								"patchline" : 								{
									"destination" : [ "obj-4", 32 ],
									"disabled" : 0,
									"hidden" : 0,
									"source" : [ "obj-3", 32 ]
								}

							}
, 							{
								"patchline" : 								{
									"destination" : [ "obj-4", 31 ],
									"disabled" : 0,
									"hidden" : 0,
									"source" : [ "obj-3", 31 ]
								}

							}
, 							{
								"patchline" : 								{
									"destination" : [ "obj-4", 30 ],
									"disabled" : 0,
									"hidden" : 0,
									"source" : [ "obj-3", 30 ]
								}

							}
, 							{
								"patchline" : 								{
									"destination" : [ "obj-4", 29 ],
									"disabled" : 0,
									"hidden" : 0,
									"source" : [ "obj-3", 29 ]
								}

							}
, 							{
								"patchline" : 								{
									"destination" : [ "obj-4", 28 ],
									"disabled" : 0,
									"hidden" : 0,
									"source" : [ "obj-3", 28 ]
								}

							}
, 							{
								"patchline" : 								{
									"destination" : [ "obj-4", 27 ],
									"disabled" : 0,
									"hidden" : 0,
									"source" : [ "obj-3", 27 ]
								}

							}
, 							{
								"patchline" : 								{
									"destination" : [ "obj-4", 26 ],
									"disabled" : 0,
									"hidden" : 0,
									"source" : [ "obj-3", 26 ]
								}

							}
, 							{
								"patchline" : 								{
									"destination" : [ "obj-4", 25 ],
									"disabled" : 0,
									"hidden" : 0,
									"source" : [ "obj-3", 25 ]
								}

							}
, 							{
								"patchline" : 								{
									"destination" : [ "obj-4", 24 ],
									"disabled" : 0,
									"hidden" : 0,
									"source" : [ "obj-3", 24 ]
								}

							}
, 							{
								"patchline" : 								{
									"destination" : [ "obj-4", 23 ],
									"disabled" : 0,
									"hidden" : 0,
									"source" : [ "obj-3", 23 ]
								}

							}
, 							{
								"patchline" : 								{
									"destination" : [ "obj-4", 22 ],
									"disabled" : 0,
									"hidden" : 0,
									"source" : [ "obj-3", 22 ]
								}

							}
, 							{
								"patchline" : 								{
									"destination" : [ "obj-4", 21 ],
									"disabled" : 0,
									"hidden" : 0,
									"source" : [ "obj-3", 21 ]
								}

							}
, 							{
								"patchline" : 								{
									"destination" : [ "obj-4", 20 ],
									"disabled" : 0,
									"hidden" : 0,
									"source" : [ "obj-3", 20 ]
								}

							}
, 							{
								"patchline" : 								{
									"destination" : [ "obj-4", 19 ],
									"disabled" : 0,
									"hidden" : 0,
									"source" : [ "obj-3", 19 ]
								}

							}
, 							{
								"patchline" : 								{
									"destination" : [ "obj-4", 18 ],
									"disabled" : 0,
									"hidden" : 0,
									"source" : [ "obj-3", 18 ]
								}

							}
, 							{
								"patchline" : 								{
									"destination" : [ "obj-4", 17 ],
									"disabled" : 0,
									"hidden" : 0,
									"source" : [ "obj-3", 17 ]
								}

							}
, 							{
								"patchline" : 								{
									"destination" : [ "obj-4", 16 ],
									"disabled" : 0,
									"hidden" : 0,
									"source" : [ "obj-3", 16 ]
								}

							}
, 							{
								"patchline" : 								{
									"destination" : [ "obj-4", 15 ],
									"disabled" : 0,
									"hidden" : 0,
									"source" : [ "obj-3", 15 ]
								}

							}
, 							{
								"patchline" : 								{
									"destination" : [ "obj-4", 14 ],
									"disabled" : 0,
									"hidden" : 0,
									"source" : [ "obj-3", 14 ]
								}

							}
, 							{
								"patchline" : 								{
									"destination" : [ "obj-4", 13 ],
									"disabled" : 0,
									"hidden" : 0,
									"source" : [ "obj-3", 13 ]
								}

							}
, 							{
								"patchline" : 								{
									"destination" : [ "obj-4", 12 ],
									"disabled" : 0,
									"hidden" : 0,
									"source" : [ "obj-3", 12 ]
								}

							}
, 							{
								"patchline" : 								{
									"destination" : [ "obj-4", 11 ],
									"disabled" : 0,
									"hidden" : 0,
									"source" : [ "obj-3", 11 ]
								}

							}
, 							{
								"patchline" : 								{
									"destination" : [ "obj-4", 10 ],
									"disabled" : 0,
									"hidden" : 0,
									"source" : [ "obj-3", 10 ]
								}

							}
, 							{
								"patchline" : 								{
									"destination" : [ "obj-4", 9 ],
									"disabled" : 0,
									"hidden" : 0,
									"source" : [ "obj-3", 9 ]
								}

							}
, 							{
								"patchline" : 								{
									"destination" : [ "obj-4", 8 ],
									"disabled" : 0,
									"hidden" : 0,
									"source" : [ "obj-3", 8 ]
								}

							}
, 							{
								"patchline" : 								{
									"destination" : [ "obj-4", 7 ],
									"disabled" : 0,
									"hidden" : 0,
									"source" : [ "obj-3", 7 ]
								}

							}
, 							{
								"patchline" : 								{
									"destination" : [ "obj-4", 6 ],
									"disabled" : 0,
									"hidden" : 0,
									"source" : [ "obj-3", 6 ]
								}

							}
, 							{
								"patchline" : 								{
									"destination" : [ "obj-4", 5 ],
									"disabled" : 0,
									"hidden" : 0,
									"source" : [ "obj-3", 5 ]
								}

							}
, 							{
								"patchline" : 								{
									"destination" : [ "obj-4", 4 ],
									"disabled" : 0,
									"hidden" : 0,
									"source" : [ "obj-3", 4 ]
								}

							}
, 							{
								"patchline" : 								{
									"destination" : [ "obj-4", 3 ],
									"disabled" : 0,
									"hidden" : 0,
									"source" : [ "obj-3", 3 ]
								}

							}
, 							{
								"patchline" : 								{
									"destination" : [ "obj-4", 2 ],
									"disabled" : 0,
									"hidden" : 0,
									"source" : [ "obj-3", 2 ]
								}

							}
, 							{
								"patchline" : 								{
									"destination" : [ "obj-4", 1 ],
									"disabled" : 0,
									"hidden" : 0,
									"source" : [ "obj-3", 1 ]
								}

							}
, 							{
								"patchline" : 								{
									"destination" : [ "obj-4", 0 ],
									"disabled" : 0,
									"hidden" : 0,
									"source" : [ "obj-3", 0 ]
								}

							}
, 							{
								"patchline" : 								{
									"destination" : [ "obj-23", 0 ],
									"disabled" : 0,
									"hidden" : 0,
									"source" : [ "obj-33", 0 ]
								}

							}
, 							{
								"patchline" : 								{
									"destination" : [ "obj-44", 3 ],
									"disabled" : 0,
									"hidden" : 0,
									"source" : [ "obj-4", 7 ]
								}

							}
, 							{
								"patchline" : 								{
									"destination" : [ "obj-44", 2 ],
									"disabled" : 0,
									"hidden" : 0,
									"source" : [ "obj-4", 6 ]
								}

							}
, 							{
								"patchline" : 								{
									"destination" : [ "obj-44", 1 ],
									"disabled" : 0,
									"hidden" : 0,
									"source" : [ "obj-4", 5 ]
								}

							}
, 							{
								"patchline" : 								{
									"destination" : [ "obj-44", 0 ],
									"disabled" : 0,
									"hidden" : 0,
									"source" : [ "obj-4", 4 ]
								}

							}
, 							{
								"patchline" : 								{
									"destination" : [ "obj-45", 3 ],
									"disabled" : 0,
									"hidden" : 0,
									"source" : [ "obj-4", 3 ]
								}

							}
, 							{
								"patchline" : 								{
									"destination" : [ "obj-45", 2 ],
									"disabled" : 0,
									"hidden" : 0,
									"source" : [ "obj-4", 2 ]
								}

							}
, 							{
								"patchline" : 								{
									"destination" : [ "obj-45", 1 ],
									"disabled" : 0,
									"hidden" : 0,
									"source" : [ "obj-4", 1 ]
								}

							}
, 							{
								"patchline" : 								{
									"destination" : [ "obj-45", 0 ],
									"disabled" : 0,
									"hidden" : 0,
									"source" : [ "obj-4", 0 ]
								}

							}
, 							{
								"patchline" : 								{
									"destination" : [ "obj-59", 7 ],
									"disabled" : 0,
									"hidden" : 0,
									"source" : [ "obj-4", 7 ]
								}

							}
, 							{
								"patchline" : 								{
									"destination" : [ "obj-59", 6 ],
									"disabled" : 0,
									"hidden" : 0,
									"source" : [ "obj-4", 6 ]
								}

							}
, 							{
								"patchline" : 								{
									"destination" : [ "obj-59", 5 ],
									"disabled" : 0,
									"hidden" : 0,
									"source" : [ "obj-4", 5 ]
								}

							}
, 							{
								"patchline" : 								{
									"destination" : [ "obj-59", 4 ],
									"disabled" : 0,
									"hidden" : 0,
									"source" : [ "obj-4", 4 ]
								}

							}
, 							{
								"patchline" : 								{
									"destination" : [ "obj-59", 3 ],
									"disabled" : 0,
									"hidden" : 0,
									"source" : [ "obj-4", 3 ]
								}

							}
, 							{
								"patchline" : 								{
									"destination" : [ "obj-59", 2 ],
									"disabled" : 0,
									"hidden" : 0,
									"source" : [ "obj-4", 2 ]
								}

							}
, 							{
								"patchline" : 								{
									"destination" : [ "obj-59", 1 ],
									"disabled" : 0,
									"hidden" : 0,
									"source" : [ "obj-4", 1 ]
								}

							}
, 							{
								"patchline" : 								{
									"destination" : [ "obj-59", 0 ],
									"disabled" : 0,
									"hidden" : 0,
									"source" : [ "obj-4", 0 ]
								}

							}
, 							{
								"patchline" : 								{
									"destination" : [ "obj-30", 0 ],
									"disabled" : 0,
									"hidden" : 0,
									"midpoints" : [ 468.5, 44.0, 468.5, 44.0 ],
									"source" : [ "obj-46", 0 ]
								}

							}
, 							{
								"patchline" : 								{
									"destination" : [ "obj-9", 0 ],
									"disabled" : 0,
									"hidden" : 0,
									"source" : [ "obj-47", 0 ]
								}

							}
, 							{
								"patchline" : 								{
									"destination" : [ "obj-32", 7 ],
									"disabled" : 0,
									"hidden" : 0,
									"source" : [ "obj-59", 7 ]
								}

							}
, 							{
								"patchline" : 								{
									"destination" : [ "obj-32", 6 ],
									"disabled" : 0,
									"hidden" : 0,
									"source" : [ "obj-59", 6 ]
								}

							}
, 							{
								"patchline" : 								{
									"destination" : [ "obj-32", 5 ],
									"disabled" : 0,
									"hidden" : 0,
									"source" : [ "obj-59", 5 ]
								}

							}
, 							{
								"patchline" : 								{
									"destination" : [ "obj-32", 4 ],
									"disabled" : 0,
									"hidden" : 0,
									"source" : [ "obj-59", 4 ]
								}

							}
, 							{
								"patchline" : 								{
									"destination" : [ "obj-32", 3 ],
									"disabled" : 0,
									"hidden" : 0,
									"source" : [ "obj-59", 3 ]
								}

							}
, 							{
								"patchline" : 								{
									"destination" : [ "obj-32", 2 ],
									"disabled" : 0,
									"hidden" : 0,
									"source" : [ "obj-59", 2 ]
								}

							}
, 							{
								"patchline" : 								{
									"destination" : [ "obj-32", 1 ],
									"disabled" : 0,
									"hidden" : 0,
									"source" : [ "obj-59", 1 ]
								}

							}
, 							{
								"patchline" : 								{
									"destination" : [ "obj-32", 0 ],
									"disabled" : 0,
									"hidden" : 0,
									"source" : [ "obj-59", 0 ]
								}

							}
, 							{
								"patchline" : 								{
									"destination" : [ "obj-8", 0 ],
									"disabled" : 0,
									"hidden" : 0,
									"source" : [ "obj-6", 0 ]
								}

							}
, 							{
								"patchline" : 								{
									"destination" : [ "obj-14", 0 ],
									"disabled" : 0,
									"hidden" : 0,
									"source" : [ "obj-7", 0 ]
								}

							}
, 							{
								"patchline" : 								{
									"destination" : [ "obj-4", 3 ],
									"disabled" : 0,
									"hidden" : 0,
									"source" : [ "obj-8", 0 ]
								}

							}
, 							{
								"patchline" : 								{
									"destination" : [ "obj-21", 1 ],
									"disabled" : 0,
									"hidden" : 0,
									"source" : [ "obj-9", 0 ]
								}

							}
 ]
					}
,
					"patching_rect" : [ 22.0, 27.0, 51.0, 20.0 ],
					"saved_object_attributes" : 					{
						"default_fontface" : 0,
						"default_fontname" : "Arial",
						"default_fontsize" : 11.595187,
						"description" : "",
						"digest" : "",
						"fontface" : 0,
						"fontname" : "Arial",
						"fontsize" : 11.595187,
						"globalpatchername" : "",
						"tags" : ""
					}
,
					"text" : "p basic",
					"textcolor" : [ 0.209184, 0.209184, 0.209184, 1.0 ]
				}

			}
, 			{
				"box" : 				{
					"color" : [ 0.734694, 0.734694, 0.734694, 1.0 ],
					"fontname" : "Arial",
					"fontsize" : 12.0,
					"hidden" : 1,
					"id" : "obj-24",
					"maxclass" : "newobj",
					"numinlets" : 0,
					"numoutlets" : 0,
					"patcher" : 					{
						"fileversion" : 1,
						"appversion" : 						{
							"major" : 6,
							"minor" : 1,
							"revision" : 5,
							"architecture" : "x64"
						}
,
						"rect" : [ 0.0, 26.0, 1440.0, 780.0 ],
						"bglocked" : 0,
						"openinpresentation" : 0,
						"default_fontsize" : 13.0,
						"default_fontface" : 0,
						"default_fontname" : "Arial",
						"gridonopen" : 0,
						"gridsize" : [ 5.0, 5.0 ],
						"gridsnaponopen" : 0,
						"statusbarvisible" : 2,
						"toolbarvisible" : 1,
						"boxanimatetime" : 200,
						"imprint" : 0,
						"enablehscroll" : 1,
						"enablevscroll" : 1,
						"devicewidth" : 0.0,
						"description" : "",
						"digest" : "",
						"tags" : "",
						"showontab" : 1,
						"boxes" : [  ],
						"lines" : [  ]
					}
,
					"patching_rect" : [ 73.0, 27.0, 50.0, 20.0 ],
					"saved_object_attributes" : 					{
						"default_fontface" : 0,
						"default_fontname" : "Arial",
						"default_fontsize" : 13.0,
						"description" : "",
						"digest" : "",
						"fontface" : 0,
						"fontname" : "Arial",
						"fontsize" : 13.0,
						"globalpatchername" : "",
						"tags" : ""
					}
,
					"text" : "p ?",
					"textcolor" : [ 0.209184, 0.209184, 0.209184, 1.0 ],
					"varname" : "q_tab"
				}

			}
 ],
		"lines" : [  ],
		"parameters" : 		{
			"obj-11::obj-10::obj-35" : [ "[5]", "Level", 0 ],
			"obj-11::obj-10::obj-21::obj-6" : [ "live.tab[3]", "live.tab[1]", 0 ],
			"obj-11::obj-10::obj-32" : [ "[8]", "[2]", 0 ]
		}
,
		"dependency_cache" : [ 			{
				"name" : "demosound.maxpat",
				"bootpath" : "/Applications/Max 6.1/Cycling '74/msp-help",
				"patcherrelativepath" : "../../../../../../Applications/Max 6.1/Cycling '74/msp-help",
				"type" : "JSON",
				"implicit" : 1
			}
, 			{
				"name" : "sine.svg",
				"bootpath" : "/Applications/Max 6.1/patches/picts/m4l-picts",
				"patcherrelativepath" : "../../../../../../Applications/Max 6.1/patches/picts/m4l-picts",
				"type" : "svg ",
				"implicit" : 1
			}
, 			{
				"name" : "saw.svg",
				"bootpath" : "/Applications/Max 6.1/patches/picts/m4l-picts",
				"patcherrelativepath" : "../../../../../../Applications/Max 6.1/patches/picts/m4l-picts",
				"type" : "svg ",
				"implicit" : 1
			}
, 			{
				"name" : "square.svg",
				"bootpath" : "/Applications/Max 6.1/patches/picts/m4l-picts",
				"patcherrelativepath" : "../../../../../../Applications/Max 6.1/patches/picts/m4l-picts",
				"type" : "svg ",
				"implicit" : 1
			}
, 			{
				"name" : "random.svg",
				"bootpath" : "/Applications/Max 6.1/patches/picts/m4l-picts",
				"patcherrelativepath" : "../../../../../../Applications/Max 6.1/patches/picts/m4l-picts",
				"type" : "svg ",
				"implicit" : 1
			}
, 			{
				"name" : "hoa.pi~.mxo",
				"type" : "iLaX"
			}
, 			{
				"name" : "hoa.encoder3D~.mxo",
				"type" : "iLaX"
			}
, 			{
				"name" : "hoa.connect.mxo",
				"type" : "iLaX"
			}
, 			{
				"name" : "hoa.decoder3D~.mxo",
				"type" : "iLaX"
			}
, 			{
				"name" : "hoa.meter~.mxo",
				"type" : "iLaX"
			}
, 			{
				"name" : "hoa.gain~.mxo",
				"type" : "iLaX"
			}
, 			{
				"name" : "hoa.optim3D~.mxo",
				"type" : "iLaX"
			}
, 			{
				"name" : "hoa.pi.mxo",
				"type" : "iLaX"
			}
 ]
	}

}
