{
	"patcher" : 	{
		"fileversion" : 1,
		"appversion" : 		{
			"major" : 6,
			"minor" : 1,
			"revision" : 5,
			"architecture" : "x64"
		}
,
		"rect" : [ 0.0, 44.0, 1036.0, 806.0 ],
		"bgcolor" : [ 0.93, 0.93, 0.92, 1.0 ],
		"bglocked" : 0,
		"openinpresentation" : 0,
		"default_fontsize" : 11.595187,
		"default_fontface" : 0,
		"default_fontname" : "Arial",
		"gridonopen" : 0,
		"gridsize" : [ 15.0, 15.0 ],
		"gridsnaponopen" : 0,
		"statusbarvisible" : 2,
		"toolbarvisible" : 1,
		"boxanimatetime" : 200,
		"imprint" : 0,
		"enablehscroll" : 1,
		"enablevscroll" : 1,
		"devicewidth" : 0.0,
		"description" : "",
		"digest" : "",
		"tags" : "",
		"showrootpatcherontab" : 0,
		"showontab" : 0,
		"boxes" : [ 			{
				"box" : 				{
					"color" : [ 0.734694, 0.734694, 0.734694, 1.0 ],
					"fontname" : "Arial",
					"fontsize" : 12.0,
					"hidden" : 1,
					"id" : "obj-11",
					"maxclass" : "newobj",
					"numinlets" : 0,
					"numoutlets" : 0,
					"patcher" : 					{
						"fileversion" : 1,
						"appversion" : 						{
							"major" : 6,
							"minor" : 1,
							"revision" : 5,
							"architecture" : "x64"
						}
,
						"rect" : [ 0.0, 70.0, 1036.0, 780.0 ],
						"bgcolor" : [ 0.93, 0.93, 0.92, 1.0 ],
						"bglocked" : 0,
						"openinpresentation" : 0,
						"default_fontsize" : 11.595187,
						"default_fontface" : 0,
						"default_fontname" : "Arial",
						"gridonopen" : 0,
						"gridsize" : [ 15.0, 15.0 ],
						"gridsnaponopen" : 0,
						"statusbarvisible" : 2,
						"toolbarvisible" : 1,
						"boxanimatetime" : 200,
						"imprint" : 0,
						"enablehscroll" : 1,
						"enablevscroll" : 1,
						"devicewidth" : 0.0,
						"description" : "",
						"digest" : "",
						"tags" : "",
						"showontab" : 1,
						"boxes" : [ 							{
								"box" : 								{
									"camera" : [ 2.083686, 0.472716 ],
									"color" : [ 1.0, 1.0, 1.0, 1.0 ],
									"id" : "obj-1",
									"maxclass" : "hoa.scope3D~",
									"numinlets" : 49,
									"numoutlets" : 0,
									"order" : 6,
									"patching_rect" : [ 45.433334, 367.0, 219.964279, 219.964279 ]
								}

							}
, 							{
								"box" : 								{
									"fontname" : "Arial",
									"fontsize" : 11.595187,
									"id" : "obj-16",
									"maxclass" : "message",
									"numinlets" : 2,
									"numoutlets" : 1,
									"outlettype" : [ "" ],
									"patching_rect" : [ 423.0, 122.0, 33.0, 17.0 ],
									"text" : "0.25"
								}

							}
, 							{
								"box" : 								{
									"fontname" : "Arial",
									"fontsize" : 11.595187,
									"id" : "obj-24",
									"maxclass" : "message",
									"numinlets" : 2,
									"numoutlets" : 1,
									"outlettype" : [ "" ],
									"patching_rect" : [ 408.0, 106.0, 32.5, 17.0 ],
									"text" : "0.5"
								}

							}
, 							{
								"box" : 								{
									"fontname" : "Arial",
									"fontsize" : 11.595187,
									"id" : "obj-19",
									"maxclass" : "message",
									"numinlets" : 2,
									"numoutlets" : 1,
									"outlettype" : [ "" ],
									"patching_rect" : [ 314.0, 97.0, 32.5, 17.0 ],
									"text" : "0"
								}

							}
, 							{
								"box" : 								{
									"id" : "obj-3",
									"maxclass" : "ezadc~",
									"numinlets" : 1,
									"numoutlets" : 2,
									"outlettype" : [ "signal", "signal" ],
									"patching_rect" : [ 609.0, 290.0, 45.0, 45.0 ]
								}

							}
, 							{
								"box" : 								{
									"fontname" : "Arial",
									"fontsize" : 11.595187,
									"id" : "obj-47",
									"maxclass" : "newobj",
									"numinlets" : 0,
									"numoutlets" : 1,
									"outlettype" : [ "bang" ],
									"patcher" : 									{
										"fileversion" : 1,
										"appversion" : 										{
											"major" : 6,
											"minor" : 1,
											"revision" : 5,
											"architecture" : "x64"
										}
,
										"rect" : [ 321.0, 105.0, 640.0, 480.0 ],
										"bglocked" : 0,
										"openinpresentation" : 0,
										"default_fontsize" : 12.0,
										"default_fontface" : 0,
										"default_fontname" : "Arial",
										"gridonopen" : 0,
										"gridsize" : [ 15.0, 15.0 ],
										"gridsnaponopen" : 0,
										"statusbarvisible" : 2,
										"toolbarvisible" : 1,
										"boxanimatetime" : 200,
										"imprint" : 0,
										"enablehscroll" : 1,
										"enablevscroll" : 1,
										"devicewidth" : 0.0,
										"description" : "",
										"digest" : "",
										"tags" : "",
										"boxes" : [ 											{
												"box" : 												{
													"fontname" : "Arial",
													"fontsize" : 12.0,
													"id" : "obj-5",
													"maxclass" : "newobj",
													"numinlets" : 1,
													"numoutlets" : 2,
													"outlettype" : [ "int", "int" ],
													"patching_rect" : [ 178.0, 100.0, 49.0, 20.0 ],
													"text" : "unpack"
												}

											}
, 											{
												"box" : 												{
													"fontname" : "Arial",
													"fontsize" : 12.0,
													"id" : "obj-4",
													"maxclass" : "newobj",
													"numinlets" : 1,
													"numoutlets" : 1,
													"outlettype" : [ "bang" ],
													"patching_rect" : [ 178.0, 31.0, 60.0, 20.0 ],
													"text" : "loadbang"
												}

											}
, 											{
												"box" : 												{
													"fontname" : "Arial",
													"fontsize" : 12.0,
													"id" : "obj-3",
													"maxclass" : "number",
													"numinlets" : 1,
													"numoutlets" : 2,
													"outlettype" : [ "int", "bang" ],
													"parameter_enable" : 0,
													"patching_rect" : [ 178.0, 130.0, 50.0, 20.0 ]
												}

											}
, 											{
												"box" : 												{
													"fontname" : "Arial",
													"fontsize" : 12.0,
													"id" : "obj-1",
													"maxclass" : "newobj",
													"numinlets" : 1,
													"numoutlets" : 2,
													"outlettype" : [ "", "" ],
													"patching_rect" : [ 178.0, 63.0, 74.0, 20.0 ],
													"text" : "patcherargs"
												}

											}
, 											{
												"box" : 												{
													"id" : "obj-10",
													"maxclass" : "button",
													"numinlets" : 1,
													"numoutlets" : 1,
													"outlettype" : [ "bang" ],
													"patching_rect" : [ 50.0, 160.0, 20.0, 20.0 ]
												}

											}
, 											{
												"box" : 												{
													"fontname" : "Arial",
													"fontsize" : 11.595187,
													"id" : "obj-23",
													"maxclass" : "newobj",
													"numinlets" : 2,
													"numoutlets" : 2,
													"outlettype" : [ "bang", "" ],
													"patching_rect" : [ 50.0, 130.0, 41.0, 19.0 ],
													"text" : "sel 32"
												}

											}
, 											{
												"box" : 												{
													"fontname" : "Arial",
													"fontsize" : 11.595187,
													"id" : "obj-17",
													"maxclass" : "newobj",
													"numinlets" : 0,
													"numoutlets" : 4,
													"outlettype" : [ "int", "int", "int", "int" ],
													"patching_rect" : [ 50.0, 100.0, 59.5, 19.0 ],
													"text" : "key"
												}

											}
, 											{
												"box" : 												{
													"comment" : "",
													"id" : "obj-45",
													"maxclass" : "outlet",
													"numinlets" : 1,
													"numoutlets" : 0,
													"patching_rect" : [ 50.0, 240.0, 25.0, 25.0 ]
												}

											}
 ],
										"lines" : [ 											{
												"patchline" : 												{
													"destination" : [ "obj-5", 0 ],
													"disabled" : 0,
													"hidden" : 0,
													"source" : [ "obj-1", 0 ]
												}

											}
, 											{
												"patchline" : 												{
													"destination" : [ "obj-45", 0 ],
													"disabled" : 0,
													"hidden" : 0,
													"source" : [ "obj-10", 0 ]
												}

											}
, 											{
												"patchline" : 												{
													"destination" : [ "obj-23", 0 ],
													"disabled" : 0,
													"hidden" : 0,
													"midpoints" : [ 59.5, 121.0, 59.5, 121.0 ],
													"source" : [ "obj-17", 0 ]
												}

											}
, 											{
												"patchline" : 												{
													"destination" : [ "obj-10", 0 ],
													"disabled" : 0,
													"hidden" : 0,
													"midpoints" : [ 59.5, 151.0, 59.5, 151.0 ],
													"source" : [ "obj-23", 0 ]
												}

											}
, 											{
												"patchline" : 												{
													"destination" : [ "obj-23", 1 ],
													"disabled" : 0,
													"hidden" : 0,
													"midpoints" : [ 187.5, 150.0, 102.0, 150.0, 102.0, 126.0, 81.5, 126.0 ],
													"source" : [ "obj-3", 0 ]
												}

											}
, 											{
												"patchline" : 												{
													"destination" : [ "obj-1", 0 ],
													"disabled" : 0,
													"hidden" : 0,
													"source" : [ "obj-4", 0 ]
												}

											}
, 											{
												"patchline" : 												{
													"destination" : [ "obj-3", 0 ],
													"disabled" : 0,
													"hidden" : 0,
													"source" : [ "obj-5", 1 ]
												}

											}
 ]
									}
,
									"patching_rect" : [ 884.0, 124.0, 76.0, 19.0 ],
									"saved_object_attributes" : 									{
										"default_fontface" : 0,
										"default_fontname" : "Arial",
										"default_fontsize" : 12.0,
										"description" : "",
										"digest" : "",
										"fontface" : 0,
										"fontname" : "Arial",
										"fontsize" : 12.0,
										"globalpatchername" : "",
										"tags" : ""
									}
,
									"text" : "p key_sel 32"
								}

							}
, 							{
								"box" : 								{
									"fontname" : "Arial",
									"fontsize" : 11.595187,
									"id" : "obj-48",
									"maxclass" : "newobj",
									"numinlets" : 1,
									"numoutlets" : 0,
									"patching_rect" : [ 884.0, 154.0, 89.0, 19.0 ],
									"saved_object_attributes" : 									{
										"nhcolor" : [ 0.0, 0.0, 1.0, 1.0 ],
										"phcolor" : [ 1.0, 0.0, 0.0, 1.0 ],
										"planecolor" : [ 1.0, 1.0, 1.0, 1.0 ],
										"zhcolor" : [ 0.2, 0.2, 0.2, 1.0 ]
									}
,
									"text" : "hoa.connect3D"
								}

							}
, 							{
								"box" : 								{
									"fontname" : "Arial",
									"fontsize" : 11.595187,
									"id" : "obj-37",
									"maxclass" : "newobj",
									"numinlets" : 1,
									"numoutlets" : 1,
									"outlettype" : [ "float" ],
									"patching_rect" : [ 246.5, 190.0, 42.0, 19.0 ],
									"text" : "hoa.pi"
								}

							}
, 							{
								"box" : 								{
									"fontname" : "Arial",
									"fontsize" : 11.595187,
									"id" : "obj-38",
									"maxclass" : "flonum",
									"numinlets" : 1,
									"numoutlets" : 2,
									"outlettype" : [ "float", "bang" ],
									"parameter_enable" : 0,
									"patching_rect" : [ 246.5, 142.0, 82.0, 19.0 ]
								}

							}
, 							{
								"box" : 								{
									"fontname" : "Arial",
									"fontsize" : 11.595187,
									"id" : "obj-36",
									"maxclass" : "newobj",
									"numinlets" : 1,
									"numoutlets" : 1,
									"outlettype" : [ "float" ],
									"patching_rect" : [ 145.25, 182.0, 42.0, 19.0 ],
									"text" : "hoa.pi"
								}

							}
, 							{
								"box" : 								{
									"fontname" : "Arial",
									"fontsize" : 11.595187,
									"id" : "obj-35",
									"maxclass" : "flonum",
									"numinlets" : 1,
									"numoutlets" : 2,
									"outlettype" : [ "float", "bang" ],
									"parameter_enable" : 0,
									"patching_rect" : [ 145.25, 154.0, 50.0, 19.0 ]
								}

							}
, 							{
								"box" : 								{
									"fontname" : "Arial",
									"fontsize" : 11.595187,
									"id" : "obj-145",
									"maxclass" : "message",
									"numinlets" : 2,
									"numoutlets" : 1,
									"outlettype" : [ "" ],
									"patching_rect" : [ 709.5, -34.0, 32.5, 17.0 ],
									"text" : "0.5"
								}

							}
, 							{
								"box" : 								{
									"fontname" : "Arial",
									"fontsize" : 11.595187,
									"id" : "obj-140",
									"maxclass" : "message",
									"numinlets" : 2,
									"numoutlets" : 1,
									"outlettype" : [ "" ],
									"patching_rect" : [ 943.75, -50.0, 32.5, 17.0 ],
									"text" : "0.5"
								}

							}
, 							{
								"box" : 								{
									"fontname" : "Arial",
									"fontsize" : 11.595187,
									"id" : "obj-13",
									"maxclass" : "flonum",
									"numinlets" : 1,
									"numoutlets" : 2,
									"outlettype" : [ "float", "bang" ],
									"parameter_enable" : 0,
									"patching_rect" : [ 44.0, 122.0, 50.0, 19.0 ]
								}

							}
, 							{
								"box" : 								{
									"fontname" : "Arial",
									"fontsize" : 11.595187,
									"id" : "obj-2",
									"maxclass" : "newobj",
									"numinlets" : 1,
									"numoutlets" : 1,
									"outlettype" : [ "signal" ],
									"patching_rect" : [ 44.0, 162.0, 42.0, 19.0 ],
									"text" : "sig~ 1"
								}

							}
, 							{
								"box" : 								{
									"fontname" : "Arial",
									"fontsize" : 11.595187,
									"id" : "obj-34",
									"maxclass" : "newobj",
									"numinlets" : 3,
									"numoutlets" : 49,
									"outlettype" : [ "signal", "signal", "signal", "signal", "signal", "signal", "signal", "signal", "signal", "signal", "signal", "signal", "signal", "signal", "signal", "signal", "signal", "signal", "signal", "signal", "signal", "signal", "signal", "signal", "signal", "signal", "signal", "signal", "signal", "signal", "signal", "signal", "signal", "signal", "signal", "signal", "signal", "signal", "signal", "signal", "signal", "signal", "signal", "signal", "signal", "signal", "signal", "signal", "signal" ],
									"patching_rect" : [ 44.0, 230.0, 221.5, 19.0 ],
									"text" : "hoa.encoder3D~ 6"
								}

							}
 ],
						"lines" : [ 							{
								"patchline" : 								{
									"destination" : [ "obj-2", 0 ],
									"disabled" : 0,
									"hidden" : 0,
									"source" : [ "obj-13", 0 ]
								}

							}
, 							{
								"patchline" : 								{
									"destination" : [ "obj-38", 0 ],
									"disabled" : 0,
									"hidden" : 0,
									"source" : [ "obj-16", 0 ]
								}

							}
, 							{
								"patchline" : 								{
									"destination" : [ "obj-38", 0 ],
									"disabled" : 0,
									"hidden" : 0,
									"source" : [ "obj-19", 0 ]
								}

							}
, 							{
								"patchline" : 								{
									"destination" : [ "obj-34", 0 ],
									"disabled" : 0,
									"hidden" : 0,
									"source" : [ "obj-2", 0 ]
								}

							}
, 							{
								"patchline" : 								{
									"destination" : [ "obj-38", 0 ],
									"disabled" : 0,
									"hidden" : 0,
									"source" : [ "obj-24", 0 ]
								}

							}
, 							{
								"patchline" : 								{
									"color" : [ 1.0, 0.0, 0.0, 1.0 ],
									"destination" : [ "obj-1", 48 ],
									"disabled" : 0,
									"hidden" : 0,
									"source" : [ "obj-34", 48 ]
								}

							}
, 							{
								"patchline" : 								{
									"color" : [ 0.0, 0.0, 1.0, 1.0 ],
									"destination" : [ "obj-1", 47 ],
									"disabled" : 0,
									"hidden" : 0,
									"source" : [ "obj-34", 47 ]
								}

							}
, 							{
								"patchline" : 								{
									"color" : [ 1.0, 0.0, 0.0, 1.0 ],
									"destination" : [ "obj-1", 46 ],
									"disabled" : 0,
									"hidden" : 0,
									"source" : [ "obj-34", 46 ]
								}

							}
, 							{
								"patchline" : 								{
									"color" : [ 0.0, 0.0, 1.0, 1.0 ],
									"destination" : [ "obj-1", 45 ],
									"disabled" : 0,
									"hidden" : 0,
									"source" : [ "obj-34", 45 ]
								}

							}
, 							{
								"patchline" : 								{
									"color" : [ 1.0, 0.0, 0.0, 1.0 ],
									"destination" : [ "obj-1", 44 ],
									"disabled" : 0,
									"hidden" : 0,
									"source" : [ "obj-34", 44 ]
								}

							}
, 							{
								"patchline" : 								{
									"color" : [ 0.0, 0.0, 1.0, 1.0 ],
									"destination" : [ "obj-1", 43 ],
									"disabled" : 0,
									"hidden" : 0,
									"source" : [ "obj-34", 43 ]
								}

							}
, 							{
								"patchline" : 								{
									"color" : [ 1.0, 0.0, 0.0, 1.0 ],
									"destination" : [ "obj-1", 42 ],
									"disabled" : 0,
									"hidden" : 0,
									"source" : [ "obj-34", 42 ]
								}

							}
, 							{
								"patchline" : 								{
									"color" : [ 0.0, 0.0, 1.0, 1.0 ],
									"destination" : [ "obj-1", 41 ],
									"disabled" : 0,
									"hidden" : 0,
									"source" : [ "obj-34", 41 ]
								}

							}
, 							{
								"patchline" : 								{
									"color" : [ 1.0, 0.0, 0.0, 1.0 ],
									"destination" : [ "obj-1", 40 ],
									"disabled" : 0,
									"hidden" : 0,
									"source" : [ "obj-34", 40 ]
								}

							}
, 							{
								"patchline" : 								{
									"color" : [ 0.0, 0.0, 1.0, 1.0 ],
									"destination" : [ "obj-1", 39 ],
									"disabled" : 0,
									"hidden" : 0,
									"source" : [ "obj-34", 39 ]
								}

							}
, 							{
								"patchline" : 								{
									"color" : [ 1.0, 0.0, 0.0, 1.0 ],
									"destination" : [ "obj-1", 38 ],
									"disabled" : 0,
									"hidden" : 0,
									"source" : [ "obj-34", 38 ]
								}

							}
, 							{
								"patchline" : 								{
									"color" : [ 0.0, 0.0, 1.0, 1.0 ],
									"destination" : [ "obj-1", 37 ],
									"disabled" : 0,
									"hidden" : 0,
									"source" : [ "obj-34", 37 ]
								}

							}
, 							{
								"patchline" : 								{
									"color" : [ 0.2, 0.2, 0.2, 1.0 ],
									"destination" : [ "obj-1", 36 ],
									"disabled" : 0,
									"hidden" : 0,
									"source" : [ "obj-34", 36 ]
								}

							}
, 							{
								"patchline" : 								{
									"color" : [ 1.0, 0.0, 0.0, 1.0 ],
									"destination" : [ "obj-1", 35 ],
									"disabled" : 0,
									"hidden" : 0,
									"source" : [ "obj-34", 35 ]
								}

							}
, 							{
								"patchline" : 								{
									"color" : [ 0.0, 0.0, 1.0, 1.0 ],
									"destination" : [ "obj-1", 34 ],
									"disabled" : 0,
									"hidden" : 0,
									"source" : [ "obj-34", 34 ]
								}

							}
, 							{
								"patchline" : 								{
									"color" : [ 1.0, 0.0, 0.0, 1.0 ],
									"destination" : [ "obj-1", 33 ],
									"disabled" : 0,
									"hidden" : 0,
									"source" : [ "obj-34", 33 ]
								}

							}
, 							{
								"patchline" : 								{
									"color" : [ 0.0, 0.0, 1.0, 1.0 ],
									"destination" : [ "obj-1", 32 ],
									"disabled" : 0,
									"hidden" : 0,
									"source" : [ "obj-34", 32 ]
								}

							}
, 							{
								"patchline" : 								{
									"color" : [ 1.0, 0.0, 0.0, 1.0 ],
									"destination" : [ "obj-1", 31 ],
									"disabled" : 0,
									"hidden" : 0,
									"source" : [ "obj-34", 31 ]
								}

							}
, 							{
								"patchline" : 								{
									"color" : [ 0.0, 0.0, 1.0, 1.0 ],
									"destination" : [ "obj-1", 30 ],
									"disabled" : 0,
									"hidden" : 0,
									"source" : [ "obj-34", 30 ]
								}

							}
, 							{
								"patchline" : 								{
									"color" : [ 1.0, 0.0, 0.0, 1.0 ],
									"destination" : [ "obj-1", 29 ],
									"disabled" : 0,
									"hidden" : 0,
									"source" : [ "obj-34", 29 ]
								}

							}
, 							{
								"patchline" : 								{
									"color" : [ 0.0, 0.0, 1.0, 1.0 ],
									"destination" : [ "obj-1", 28 ],
									"disabled" : 0,
									"hidden" : 0,
									"source" : [ "obj-34", 28 ]
								}

							}
, 							{
								"patchline" : 								{
									"color" : [ 1.0, 0.0, 0.0, 1.0 ],
									"destination" : [ "obj-1", 27 ],
									"disabled" : 0,
									"hidden" : 0,
									"source" : [ "obj-34", 27 ]
								}

							}
, 							{
								"patchline" : 								{
									"color" : [ 0.0, 0.0, 1.0, 1.0 ],
									"destination" : [ "obj-1", 26 ],
									"disabled" : 0,
									"hidden" : 0,
									"source" : [ "obj-34", 26 ]
								}

							}
, 							{
								"patchline" : 								{
									"color" : [ 0.2, 0.2, 0.2, 1.0 ],
									"destination" : [ "obj-1", 25 ],
									"disabled" : 0,
									"hidden" : 0,
									"source" : [ "obj-34", 25 ]
								}

							}
, 							{
								"patchline" : 								{
									"color" : [ 1.0, 0.0, 0.0, 1.0 ],
									"destination" : [ "obj-1", 24 ],
									"disabled" : 0,
									"hidden" : 0,
									"source" : [ "obj-34", 24 ]
								}

							}
, 							{
								"patchline" : 								{
									"color" : [ 0.0, 0.0, 1.0, 1.0 ],
									"destination" : [ "obj-1", 23 ],
									"disabled" : 0,
									"hidden" : 0,
									"source" : [ "obj-34", 23 ]
								}

							}
, 							{
								"patchline" : 								{
									"color" : [ 1.0, 0.0, 0.0, 1.0 ],
									"destination" : [ "obj-1", 22 ],
									"disabled" : 0,
									"hidden" : 0,
									"source" : [ "obj-34", 22 ]
								}

							}
, 							{
								"patchline" : 								{
									"color" : [ 0.0, 0.0, 1.0, 1.0 ],
									"destination" : [ "obj-1", 21 ],
									"disabled" : 0,
									"hidden" : 0,
									"source" : [ "obj-34", 21 ]
								}

							}
, 							{
								"patchline" : 								{
									"color" : [ 1.0, 0.0, 0.0, 1.0 ],
									"destination" : [ "obj-1", 20 ],
									"disabled" : 0,
									"hidden" : 0,
									"source" : [ "obj-34", 20 ]
								}

							}
, 							{
								"patchline" : 								{
									"color" : [ 0.0, 0.0, 1.0, 1.0 ],
									"destination" : [ "obj-1", 19 ],
									"disabled" : 0,
									"hidden" : 0,
									"source" : [ "obj-34", 19 ]
								}

							}
, 							{
								"patchline" : 								{
									"color" : [ 1.0, 0.0, 0.0, 1.0 ],
									"destination" : [ "obj-1", 18 ],
									"disabled" : 0,
									"hidden" : 0,
									"source" : [ "obj-34", 18 ]
								}

							}
, 							{
								"patchline" : 								{
									"color" : [ 0.0, 0.0, 1.0, 1.0 ],
									"destination" : [ "obj-1", 17 ],
									"disabled" : 0,
									"hidden" : 0,
									"source" : [ "obj-34", 17 ]
								}

							}
, 							{
								"patchline" : 								{
									"color" : [ 0.2, 0.2, 0.2, 1.0 ],
									"destination" : [ "obj-1", 16 ],
									"disabled" : 0,
									"hidden" : 0,
									"source" : [ "obj-34", 16 ]
								}

							}
, 							{
								"patchline" : 								{
									"color" : [ 1.0, 0.0, 0.0, 1.0 ],
									"destination" : [ "obj-1", 15 ],
									"disabled" : 0,
									"hidden" : 0,
									"source" : [ "obj-34", 15 ]
								}

							}
, 							{
								"patchline" : 								{
									"color" : [ 0.0, 0.0, 1.0, 1.0 ],
									"destination" : [ "obj-1", 14 ],
									"disabled" : 0,
									"hidden" : 0,
									"source" : [ "obj-34", 14 ]
								}

							}
, 							{
								"patchline" : 								{
									"color" : [ 1.0, 0.0, 0.0, 1.0 ],
									"destination" : [ "obj-1", 13 ],
									"disabled" : 0,
									"hidden" : 0,
									"source" : [ "obj-34", 13 ]
								}

							}
, 							{
								"patchline" : 								{
									"color" : [ 0.0, 0.0, 1.0, 1.0 ],
									"destination" : [ "obj-1", 12 ],
									"disabled" : 0,
									"hidden" : 0,
									"source" : [ "obj-34", 12 ]
								}

							}
, 							{
								"patchline" : 								{
									"color" : [ 1.0, 0.0, 0.0, 1.0 ],
									"destination" : [ "obj-1", 11 ],
									"disabled" : 0,
									"hidden" : 0,
									"source" : [ "obj-34", 11 ]
								}

							}
, 							{
								"patchline" : 								{
									"color" : [ 0.0, 0.0, 1.0, 1.0 ],
									"destination" : [ "obj-1", 10 ],
									"disabled" : 0,
									"hidden" : 0,
									"source" : [ "obj-34", 10 ]
								}

							}
, 							{
								"patchline" : 								{
									"color" : [ 0.2, 0.2, 0.2, 1.0 ],
									"destination" : [ "obj-1", 9 ],
									"disabled" : 0,
									"hidden" : 0,
									"source" : [ "obj-34", 9 ]
								}

							}
, 							{
								"patchline" : 								{
									"color" : [ 1.0, 0.0, 0.0, 1.0 ],
									"destination" : [ "obj-1", 8 ],
									"disabled" : 0,
									"hidden" : 0,
									"source" : [ "obj-34", 8 ]
								}

							}
, 							{
								"patchline" : 								{
									"color" : [ 0.0, 0.0, 1.0, 1.0 ],
									"destination" : [ "obj-1", 7 ],
									"disabled" : 0,
									"hidden" : 0,
									"source" : [ "obj-34", 7 ]
								}

							}
, 							{
								"patchline" : 								{
									"color" : [ 1.0, 0.0, 0.0, 1.0 ],
									"destination" : [ "obj-1", 6 ],
									"disabled" : 0,
									"hidden" : 0,
									"source" : [ "obj-34", 6 ]
								}

							}
, 							{
								"patchline" : 								{
									"color" : [ 0.0, 0.0, 1.0, 1.0 ],
									"destination" : [ "obj-1", 5 ],
									"disabled" : 0,
									"hidden" : 0,
									"source" : [ "obj-34", 5 ]
								}

							}
, 							{
								"patchline" : 								{
									"color" : [ 0.2, 0.2, 0.2, 1.0 ],
									"destination" : [ "obj-1", 4 ],
									"disabled" : 0,
									"hidden" : 0,
									"source" : [ "obj-34", 4 ]
								}

							}
, 							{
								"patchline" : 								{
									"color" : [ 1.0, 0.0, 0.0, 1.0 ],
									"destination" : [ "obj-1", 3 ],
									"disabled" : 0,
									"hidden" : 0,
									"source" : [ "obj-34", 3 ]
								}

							}
, 							{
								"patchline" : 								{
									"color" : [ 0.0, 0.0, 1.0, 1.0 ],
									"destination" : [ "obj-1", 2 ],
									"disabled" : 0,
									"hidden" : 0,
									"source" : [ "obj-34", 2 ]
								}

							}
, 							{
								"patchline" : 								{
									"color" : [ 0.2, 0.2, 0.2, 1.0 ],
									"destination" : [ "obj-1", 1 ],
									"disabled" : 0,
									"hidden" : 0,
									"source" : [ "obj-34", 1 ]
								}

							}
, 							{
								"patchline" : 								{
									"color" : [ 0.2, 0.2, 0.2, 1.0 ],
									"destination" : [ "obj-1", 0 ],
									"disabled" : 0,
									"hidden" : 0,
									"source" : [ "obj-34", 0 ]
								}

							}
, 							{
								"patchline" : 								{
									"destination" : [ "obj-36", 0 ],
									"disabled" : 0,
									"hidden" : 0,
									"source" : [ "obj-35", 0 ]
								}

							}
, 							{
								"patchline" : 								{
									"destination" : [ "obj-34", 1 ],
									"disabled" : 0,
									"hidden" : 0,
									"source" : [ "obj-36", 0 ]
								}

							}
, 							{
								"patchline" : 								{
									"destination" : [ "obj-34", 2 ],
									"disabled" : 0,
									"hidden" : 0,
									"source" : [ "obj-37", 0 ]
								}

							}
, 							{
								"patchline" : 								{
									"destination" : [ "obj-37", 0 ],
									"disabled" : 0,
									"hidden" : 0,
									"source" : [ "obj-38", 0 ]
								}

							}
, 							{
								"patchline" : 								{
									"destination" : [ "obj-48", 0 ],
									"disabled" : 0,
									"hidden" : 0,
									"midpoints" : [ 893.5, 145.0, 893.5, 145.0 ],
									"source" : [ "obj-47", 0 ]
								}

							}
 ]
					}
,
					"patching_rect" : [ 22.0, 27.0, 51.0, 20.0 ],
					"saved_object_attributes" : 					{
						"default_fontface" : 0,
						"default_fontname" : "Arial",
						"default_fontsize" : 11.595187,
						"description" : "",
						"digest" : "",
						"fontface" : 0,
						"fontname" : "Arial",
						"fontsize" : 11.595187,
						"globalpatchername" : "",
						"tags" : ""
					}
,
					"text" : "p basic",
					"textcolor" : [ 0.209184, 0.209184, 0.209184, 1.0 ]
				}

			}
, 			{
				"box" : 				{
					"color" : [ 0.734694, 0.734694, 0.734694, 1.0 ],
					"fontname" : "Arial",
					"fontsize" : 12.0,
					"hidden" : 1,
					"id" : "obj-24",
					"maxclass" : "newobj",
					"numinlets" : 0,
					"numoutlets" : 0,
					"patcher" : 					{
						"fileversion" : 1,
						"appversion" : 						{
							"major" : 6,
							"minor" : 1,
							"revision" : 5,
							"architecture" : "x64"
						}
,
						"rect" : [ 0.0, 26.0, 1036.0, 780.0 ],
						"bglocked" : 0,
						"openinpresentation" : 0,
						"default_fontsize" : 13.0,
						"default_fontface" : 0,
						"default_fontname" : "Arial",
						"gridonopen" : 0,
						"gridsize" : [ 5.0, 5.0 ],
						"gridsnaponopen" : 0,
						"statusbarvisible" : 2,
						"toolbarvisible" : 1,
						"boxanimatetime" : 200,
						"imprint" : 0,
						"enablehscroll" : 1,
						"enablevscroll" : 1,
						"devicewidth" : 0.0,
						"description" : "",
						"digest" : "",
						"tags" : "",
						"showontab" : 1,
						"boxes" : [  ],
						"lines" : [  ]
					}
,
					"patching_rect" : [ 73.0, 27.0, 50.0, 20.0 ],
					"saved_object_attributes" : 					{
						"default_fontface" : 0,
						"default_fontname" : "Arial",
						"default_fontsize" : 13.0,
						"description" : "",
						"digest" : "",
						"fontface" : 0,
						"fontname" : "Arial",
						"fontsize" : 13.0,
						"globalpatchername" : "",
						"tags" : ""
					}
,
					"text" : "p ?",
					"textcolor" : [ 0.209184, 0.209184, 0.209184, 1.0 ],
					"varname" : "q_tab"
				}

			}
 ],
		"lines" : [  ],
		"dependency_cache" : [ 			{
				"name" : "hoa.encoder3D~.mxo",
				"type" : "iLaX"
			}
, 			{
				"name" : "hoa.pi.mxo",
				"type" : "iLaX"
			}
, 			{
				"name" : "hoa.connect3D.mxo",
				"type" : "iLaX"
			}
, 			{
				"name" : "hoa.scope3D~.mxo",
				"type" : "iLaX"
			}
 ]
	}

}
